cumTime	delTime	event	pitch	vel	chan	value
cumTime	delTime	event	pitch	vel	chan	value
cumTime	delTime	event	pitch	vel	chan	value
2718	2718	non	78	116	0	na
2958	240	noff	78	0	0	na
2958	0	non	73	101	0	na
3198	240	noff	73	0	0	na
3198	0	non	76	110	0	na
3438	240	noff	76	0	0	na
3438	0	non	76	96	0	na
3558	120	noff	76	0	0	na
3558	0	non	78	113	0	na
3838	280	noff	78	0	0	na
3918	80	non	73	100	0	na
4038	120	noff	73	0	0	na
4038	0	non	76	110	0	na
4278	240	noff	76	0	0	na
4278	0	non	78	114	0	na
4398	120	noff	78	0	0	na
4398	0	non	73	108	0	na
4518	120	noff	73	0	0	na
4518	0	non	76	111	0	na
4638	120	noff	76	0	0	na
4638	0	non	81	122	0	na
4878	240	noff	81	0	0	na
4958	80	non	81	121	0	na
5118	160	noff	81	0	0	na
5118	0	non	80	119	0	na
5358	240	noff	80	0	0	na
5438	80	non	80	115	0	na
5598	160	noff	80	0	0	na
5598	0	non	78	119	0	na
5838	240	noff	78	0	0	na
5918	80	non	78	115	0	na
6078	160	noff	78	0	0	na
6078	0	non	73	97	0	na
6198	120	noff	73	0	0	na
6198	0	non	76	105	0	na
6438	240	noff	76	0	0	na
6438	0	non	78	115	0	na
6798	360	noff	78	0	0	na
6798	0	non	76	109	0	na
7038	240	noff	76	0	0	na
7038	0	non	73	100	0	na
7158	120	noff	73	0	0	na
7158	0	non	76	106	0	na
7398	240	noff	76	0	0	na
7518	120	non	69	94	0	na
7758	240	noff	69	0	0	na
7758	0	non	71	100	0	na
7998	240	noff	71	0	0	na
7998	0	non	73	106	0	na
8238	240	noff	73	0	0	na
8238	0	non	80	114	0	na
8478	240	noff	80	0	0	na
8478	0	non	81	119	0	na
8718	240	noff	81	0	0	na
8958	240	non	83	120	0	na
9198	240	noff	83	0	0	na
9318	120	non	81	118	0	na
9558	240	noff	81	0	0	na
9558	0	non	80	115	0	na
9678	120	noff	80	0	0	na
9678	0	non	76	113	0	na
9798	120	noff	76	0	0	na
9798	0	non	78	113	0	na
9918	120	noff	78	0	0	na
9918	0	non	73	110	0	na
10038	120	noff	73	0	0	na
10038	0	non	76	108	0	na
10158	120	noff	76	0	0	na
10158	0	non	71	105	0	na
10398	240	noff	71	0	0	na
10398	0	non	73	106	0	na
10638	240	noff	73	0	0	na
10638	0	non	76	107	0	na
10878	240	noff	76	0	0	na
10878	0	non	78	109	0	na
11238	360	noff	78	0	0	na
11238	0	non	73	102	0	na
11478	240	noff	73	0	0	na
11478	0	non	73	106	0	na
11598	120	noff	73	0	0	na
11598	0	non	76	108	0	na
11838	240	noff	76	0	0	na
11838	0	non	78	112	0	na
12078	240	noff	78	0	0	na
12078	0	non	71	105	0	na
12318	240	noff	71	0	0	na
12318	0	non	69	102	0	na
12558	240	noff	69	0	0	na
12558	0	non	68	99	0	na
12798	240	noff	68	0	0	na
12798	0	non	76	100	0	na
12978	180	noff	76	0	0	na
12978	0	non	76	88	0	na
13038	60	non	78	107	0	na
13098	60	noff	76	0	0	na
13278	180	noff	78	0	0	na
13278	0	non	73	104	0	na
13518	240	noff	73	0	0	na
13518	0	non	71	101	0	na
13758	240	noff	71	0	0	na
13758	0	non	69	98	0	na
13998	240	noff	69	0	0	na
13998	0	non	68	100	0	na
14238	240	noff	68	0	0	na
14238	0	non	69	102	0	na
14478	240	noff	69	0	0	na
14478	0	non	68	97	0	na
14718	240	noff	68	0	0	na
14718	0	non	66	91	0	na
14898	180	noff	66	0	0	na
14898	0	non	71	84	0	na
14958	60	non	73	106	0	na
15018	60	noff	71	0	0	na
15198	180	noff	73	0	0	na
15198	0	non	69	100	0	na
15438	240	noff	69	0	0	na
15438	0	non	68	99	0	na
15678	240	noff	68	0	0	na
15678	0	non	66	98	0	na
15798	120	noff	66	0	0	na
15798	0	non	73	95	0	na
15918	120	noff	73	0	0	na
15918	0	non	76	99	0	na
16038	120	noff	76	0	0	na
16038	0	non	71	106	0	na
16158	120	noff	71	0	0	na
16158	0	non	69	105	0	na
16398	240	noff	69	0	0	na
16398	0	non	68	104	0	na
16638	240	noff	68	0	0	na
16638	0	non	66	96	0	na
16878	240	noff	66	0	0	na
16878	0	non	61	94	0	na
17118	240	noff	61	0	0	na
17118	0	non	68	103	0	na
17358	240	noff	68	0	0	na
17358	0	non	66	99	0	na
17598	240	noff	66	0	0	na
17598	0	non	64	95	0	na
17838	240	noff	64	0	0	na
17838	0	non	59	91	0	na
18078	240	noff	59	0	0	na
18078	0	non	78	116	0	na
18318	240	noff	78	0	0	na
18318	0	non	73	101	0	na
18558	240	noff	73	0	0	na
18558	0	non	76	110	0	na
18798	240	noff	76	0	0	na
18798	0	non	76	96	0	na
18918	120	noff	76	0	0	na
18918	0	non	78	113	0	na
19198	280	noff	78	0	0	na
19278	80	non	73	100	0	na
19398	120	noff	73	0	0	na
19398	0	non	76	110	0	na
19638	240	noff	76	0	0	na
19638	0	non	78	114	0	na
19758	120	noff	78	0	0	na
19758	0	non	73	108	0	na
19878	120	noff	73	0	0	na
19878	0	non	76	111	0	na
19998	120	noff	76	0	0	na
19998	0	non	81	122	0	na
20238	240	noff	81	0	0	na
20318	80	non	81	121	0	na
20478	160	noff	81	0	0	na
20478	0	non	80	119	0	na
20718	240	noff	80	0	0	na
20798	80	non	80	115	0	na
20958	160	noff	80	0	0	na
20958	0	non	78	119	0	na
21198	240	noff	78	0	0	na
21278	80	non	78	115	0	na
21438	160	noff	78	0	0	na
21438	0	non	73	97	0	na
21558	120	noff	73	0	0	na
21558	0	non	76	105	0	na
21798	240	noff	76	0	0	na
21798	0	non	78	115	0	na
22158	360	noff	78	0	0	na
22158	0	non	76	109	0	na
22398	240	noff	76	0	0	na
22398	0	non	73	100	0	na
22518	120	noff	73	0	0	na
22518	0	non	76	106	0	na
22758	240	noff	76	0	0	na
22878	120	non	69	94	0	na
23118	240	noff	69	0	0	na
23118	0	non	71	100	0	na
23358	240	noff	71	0	0	na
23358	0	non	73	106	0	na
23598	240	noff	73	0	0	na
23598	0	non	80	114	0	na
23838	240	noff	80	0	0	na
23838	0	non	81	119	0	na
24078	240	noff	81	0	0	na
24318	240	non	83	120	0	na
24558	240	noff	83	0	0	na
24678	120	non	81	118	0	na
24918	240	noff	81	0	0	na
24918	0	non	80	115	0	na
25038	120	noff	80	0	0	na
25038	0	non	76	113	0	na
25158	120	noff	76	0	0	na
25158	0	non	78	113	0	na
25278	120	noff	78	0	0	na
25278	0	non	73	110	0	na
25398	120	noff	73	0	0	na
25398	0	non	76	108	0	na
25518	120	noff	76	0	0	na
25518	0	non	71	105	0	na
25758	240	noff	71	0	0	na
25758	0	non	73	106	0	na
25998	240	noff	73	0	0	na
25998	0	non	76	107	0	na
26238	240	noff	76	0	0	na
26238	0	non	78	109	0	na
26598	360	noff	78	0	0	na
26598	0	non	73	102	0	na
26838	240	noff	73	0	0	na
26838	0	non	73	106	0	na
26958	120	noff	73	0	0	na
26958	0	non	76	108	0	na
27198	240	noff	76	0	0	na
27198	0	non	78	112	0	na
27438	240	noff	78	0	0	na
27438	0	non	71	105	0	na
27678	240	noff	71	0	0	na
27678	0	non	69	102	0	na
27918	240	noff	69	0	0	na
27918	0	non	68	99	0	na
28158	240	noff	68	0	0	na
28158	0	non	76	100	0	na
28338	180	noff	76	0	0	na
28338	0	non	76	88	0	na
28398	60	noff	76	0	0	na
28398	0	non	78	107	0	na
28638	240	noff	78	0	0	na
28638	0	non	73	104	0	na
28878	240	noff	73	0	0	na
28878	0	non	71	101	0	na
29118	240	noff	71	0	0	na
29118	0	non	69	98	0	na
29358	240	noff	69	0	0	na
29358	0	non	68	100	0	na
29598	240	noff	68	0	0	na
29598	0	non	69	102	0	na
29838	240	noff	69	0	0	na
29838	0	non	68	97	0	na
30078	240	noff	68	0	0	na
30078	0	non	66	91	0	na
30258	180	noff	66	0	0	na
30258	0	non	71	84	0	na
30318	60	noff	71	0	0	na
30318	0	non	73	106	0	na
30558	240	noff	73	0	0	na
30558	0	non	69	100	0	na
30798	240	noff	69	0	0	na
30798	0	non	68	99	0	na
31038	240	noff	68	0	0	na
31038	0	non	66	98	0	na
31158	120	noff	66	0	0	na
31158	0	non	73	95	0	na
31278	120	noff	73	0	0	na
31278	0	non	76	99	0	na
31398	120	noff	76	0	0	na
31398	0	non	71	106	0	na
31518	120	noff	71	0	0	na
31518	0	non	69	105	0	na
31758	240	noff	69	0	0	na
31758	0	non	68	104	0	na
31998	240	noff	68	0	0	na
31998	0	non	66	96	0	na
32238	240	noff	66	0	0	na
32238	0	non	61	94	0	na
32478	240	noff	61	0	0	na
32478	0	non	66	103	0	na
32478	0	non	78	100	0	na
32958	480	noff	66	0	0	na
32958	0	noff	78	0	0	na
32958	0	non	68	100	0	na
32958	0	non	80	100	0	na
33438	480	noff	68	0	0	na
33438	0	noff	80	0	0	na
33438	0	non	70	100	0	na
34878	1440	noff	70	0	0	na
34878	0	non	68	98	0	na
35118	240	noff	68	0	0	na
35118	0	non	66	94	0	na
35358	240	noff	66	0	0	na
35358	0	non	65	92	0	na
35718	360	noff	65	0	0	na
35718	0	non	66	100	0	na
36078	360	noff	66	0	0	na
36078	0	non	75	104	0	na
36318	240	noff	75	0	0	na
36318	0	non	70	105	0	na
36798	480	noff	70	0	0	na
36798	0	non	63	90	0	na
37038	240	noff	63	0	0	na
37038	0	non	65	95	0	na
37278	240	noff	65	0	0	na
37278	0	non	66	100	0	na
37518	240	noff	66	0	0	na
37518	0	non	68	100	0	na
37638	120	noff	68	0	0	na
37638	0	non	66	104	0	na
37878	240	noff	66	0	0	na
37878	0	non	66	101	0	na
37998	120	noff	66	0	0	na
37998	0	non	65	100	0	na
38238	240	noff	65	0	0	na
38238	0	non	61	95	0	na
38478	240	noff	61	0	0	na
38478	0	non	58	87	0	na
38718	240	noff	58	0	0	na
38718	0	non	61	84	0	na
38838	120	noff	61	0	0	na
38838	0	non	63	100	0	na
39438	600	noff	63	0	0	na
39438	0	non	65	95	0	na
39678	240	noff	65	0	0	na
39678	0	non	66	98	0	na
39918	240	noff	66	0	0	na
39918	0	non	73	106	0	na
40158	240	noff	73	0	0	na
40158	0	non	70	102	0	na
40638	480	noff	70	0	0	na
40638	0	non	66	89	0	na
40878	240	noff	66	0	0	na
40878	0	non	68	94	0	na
41118	240	noff	68	0	0	na
41118	0	non	70	99	0	na
42318	1200	noff	70	0	0	na
42318	0	non	70	95	0	na
42558	240	noff	70	0	0	na
42558	0	non	75	98	0	na
42798	240	noff	75	0	0	na
42798	0	non	77	104	0	na
43038	240	noff	77	0	0	na
43038	0	non	78	110	0	na
43398	360	noff	78	0	0	na
43398	0	non	77	107	0	na
43758	360	noff	77	0	0	na
43758	0	non	73	100	0	na
43998	240	noff	73	0	0	na
43998	0	non	75	106	0	na
44478	480	noff	75	0	0	na
44478	0	non	75	105	0	na
44718	240	noff	75	0	0	na
44718	0	non	77	109	0	na
44958	240	noff	77	0	0	na
44958	0	non	78	114	0	na
45198	240	noff	78	0	0	na
45198	0	non	80	111	0	na
45318	120	noff	80	0	0	na
45318	0	non	78	114	0	na
45558	240	noff	78	0	0	na
45558	0	non	77	111	0	na
45678	120	noff	77	0	0	na
45678	0	non	75	111	0	na
45918	240	noff	75	0	0	na
45918	0	non	70	104	0	na
46158	240	noff	70	0	0	na
46158	0	non	68	94	0	na
46398	240	noff	68	0	0	na
46398	0	non	73	98	0	na
46638	240	noff	73	0	0	na
46638	0	non	75	102	0	na
47238	600	non	80	107	0	na
47598	360	noff	80	0	0	na
47598	0	non	78	104	0	na
47838	240	noff	75	0	0	na
47838	0	noff	78	0	0	na
47838	0	non	78	101	0	na
48078	240	noff	78	0	0	na
48078	0	non	75	92	0	na
48198	120	noff	75	0	0	na
48198	0	non	77	96	0	na
48438	240	noff	77	0	0	na
48438	0	non	78	103	0	na
48558	120	noff	78	0	0	na
48558	0	non	77	100	0	na
48798	240	noff	77	0	0	na
48798	0	non	75	88	0	na
48918	120	noff	75	0	0	na
48918	0	non	80	103	0	na
49158	240	noff	80	0	0	na
49158	0	non	82	109	0	na
49278	120	noff	82	0	0	na
49278	0	non	75	94	0	na
49398	120	noff	75	0	0	na
49398	0	non	78	108	0	na
49518	120	noff	78	0	0	na
49518	0	non	77	104	0	na
49638	120	noff	77	0	0	na
49638	0	non	73	98	0	na
49758	120	noff	73	0	0	na
49758	0	non	70	90	0	na
50118	360	noff	70	0	0	na
50118	0	non	70	89	0	na
50358	240	noff	70	0	0	na
50358	0	non	75	91	0	na
50478	120	noff	75	0	0	na
50478	0	non	68	88	0	na
50718	240	noff	68	0	0	na
50718	0	non	66	88	0	na
50838	120	noff	66	0	0	na
50958	120	non	75	94	0	na
51078	120	noff	75	0	0	na
51078	0	non	66	88	0	na
51198	120	noff	66	0	0	na
51198	0	non	65	91	0	na
51318	120	noff	65	0	0	na
51438	120	non	73	98	0	na
51558	120	noff	73	0	0	na
51558	0	non	65	87	0	na
51678	120	noff	65	0	0	na
51678	0	non	66	90	0	na
51798	120	noff	66	0	0	na
51918	120	non	75	100	0	na
52158	240	noff	75	0	0	na
52158	0	non	70	84	0	na
52278	120	noff	70	0	0	na
52278	0	non	75	95	0	na
52398	120	noff	75	0	0	na
52398	0	non	77	103	0	na
52638	240	noff	77	0	0	na
52638	0	non	78	107	0	na
52878	240	noff	78	0	0	na
52878	0	non	80	111	0	na
52998	120	noff	80	0	0	na
52998	0	non	78	109	0	na
53118	120	noff	78	0	0	na
53238	120	non	78	105	0	na
53358	120	noff	78	0	0	na
53358	0	non	77	104	0	na
53598	240	noff	77	0	0	na
53598	0	non	73	99	0	na
53718	120	noff	73	0	0	na
53718	0	non	70	98	0	na
53838	120	noff	70	0	0	na
53838	0	non	68	96	0	na
53958	120	noff	68	0	0	na
53958	0	non	70	95	0	na
54078	120	noff	70	0	0	na
54078	0	non	73	92	0	na
54198	120	noff	73	0	0	na
54198	0	non	75	94	0	na
54318	120	noff	75	0	0	na
54318	0	non	78	100	0	na
54438	120	noff	78	0	0	na
54438	0	non	80	102	0	na
54558	120	noff	80	0	0	na
54558	0	non	75	100	0	na
54678	120	noff	75	0	0	na
54678	0	non	75	81	0	na
54798	120	noff	75	0	0	na
54798	0	non	82	105	0	na
54978	180	noff	82	0	0	na
55038	60	non	70	93	0	na
55158	120	noff	70	0	0	na
55158	0	non	70	81	0	na
55278	120	noff	70	0	0	na
55278	0	non	78	99	0	na
55518	240	noff	78	0	0	na
55518	0	non	66	94	0	na
55638	120	noff	66	0	0	na
55638	0	non	68	96	0	na
55758	120	noff	68	0	0	na
55758	0	non	70	99	0	na
55878	120	noff	70	0	0	na
55878	0	non	75	100	0	na
55998	120	noff	75	0	0	na
55998	0	non	70	97	0	na
56118	120	noff	70	0	0	na
56118	0	non	68	94	0	na
56238	120	noff	68	0	0	na
56238	0	non	65	83	0	na
56358	120	noff	65	0	0	na
56358	0	non	61	77	0	na
56478	120	noff	61	0	0	na
56478	0	non	75	100	0	na
56598	120	noff	75	0	0	na
56598	0	non	77	103	0	na
56718	120	noff	77	0	0	na
56838	120	non	78	102	0	na
56958	120	noff	78	0	0	na
56958	0	non	75	92	0	na
57078	120	noff	75	0	0	na
57198	120	non	77	102	0	na
57318	120	noff	77	0	0	na
57318	0	non	73	91	0	na
57438	120	noff	73	0	0	na
57438	0	non	70	89	0	na
57738	300	noff	70	0	0	na
57798	60	non	70	91	0	na
57918	120	noff	70	0	0	na
57918	0	non	70	94	0	na
58038	120	noff	70	0	0	na
58038	0	non	75	97	0	na
58158	120	noff	75	0	0	na
58158	0	non	68	88	0	na
58398	240	noff	68	0	0	na
58398	0	non	66	84	0	na
58518	120	noff	66	0	0	na
58518	0	non	66	87	0	na
58638	120	noff	66	0	0	na
58638	0	non	75	105	0	na
58758	120	noff	75	0	0	na
58758	0	non	66	97	0	na
58878	120	noff	66	0	0	na
58878	0	non	65	92	0	na
58998	120	noff	65	0	0	na
58998	0	non	70	96	0	na
59118	120	noff	70	0	0	na
59118	0	non	73	104	0	na
59238	120	non	65	88	0	na
59298	60	noff	73	0	0	na
59358	60	noff	65	0	0	na
59358	0	non	66	89	0	na
59538	180	noff	66	0	0	na
59598	60	non	75	105	0	na
59778	180	noff	75	0	0	na
59838	60	non	70	91	0	na
59958	120	noff	70	0	0	na
59958	0	non	75	97	0	na
60078	120	noff	75	0	0	na
60078	0	non	77	104	0	na
60318	240	noff	77	0	0	na
60318	0	non	78	110	0	na
60558	240	noff	78	0	0	na
60558	0	non	80	110	0	na
60678	120	noff	80	0	0	na
60678	0	non	78	109	0	na
60798	120	noff	78	0	0	na
60918	120	non	77	105	0	na
61038	120	noff	77	0	0	na
61038	0	non	73	105	0	na
61158	120	noff	73	0	0	na
61278	120	non	73	105	0	na
61398	120	noff	73	0	0	na
61398	0	non	70	104	0	na
61518	120	noff	70	0	0	na
61518	0	non	68	102	0	na
61638	120	noff	68	0	0	na
61638	0	non	70	100	0	na
61758	120	noff	70	0	0	na
61758	0	non	73	100	0	na
61878	120	noff	73	0	0	na
61878	0	non	75	102	0	na
61998	120	noff	75	0	0	na
61998	0	non	78	105	0	na
62118	120	noff	78	0	0	na
62118	0	non	73	100	0	na
62238	120	noff	73	0	0	na
62238	0	non	75	96	0	na
62238	0	non	70	100	0	na
64098	1860	noff	75	0	0	na
64098	0	noff	70	0	0	na
64398	300	non	70	85	0	na
64638	240	noff	70	0	0	na
64638	0	non	75	91	0	na
64878	240	noff	75	0	0	na
64878	0	non	70	80	0	na
65118	240	noff	70	0	0	na
65358	240	non	70	79	0	na
65598	240	noff	70	0	0	na
65598	0	non	75	89	0	na
65838	240	noff	75	0	0	na
65838	0	non	70	81	0	na
66078	240	noff	70	0	0	na
66318	240	non	70	81	0	na
66558	240	noff	70	0	0	na
66558	0	non	75	88	0	na
66798	240	noff	75	0	0	na
66798	0	non	78	89	0	na
67038	240	noff	78	0	0	na
67038	0	non	77	88	0	na
67278	240	noff	77	0	0	na
67278	0	non	73	82	0	na
67518	240	noff	73	0	0	na
67518	0	non	68	71	0	na
67758	240	noff	68	0	0	na
68238	480	non	70	72	0	na
68478	240	noff	70	0	0	na
68478	0	non	75	85	0	na
68718	240	noff	75	0	0	na
68718	0	non	70	75	0	na
68958	240	noff	70	0	0	na
69198	240	non	70	78	0	na
69438	240	noff	70	0	0	na
69438	0	non	75	87	0	na
69678	240	noff	75	0	0	na
69678	0	non	70	78	0	na
69918	240	noff	70	0	0	na
70158	240	non	70	77	0	na
70398	240	noff	70	0	0	na
70398	0	non	75	86	0	na
70638	240	noff	75	0	0	na
70638	0	non	78	94	0	na
70878	240	noff	78	0	0	na
70878	0	non	77	86	0	na
71118	240	noff	77	0	0	na
71118	0	non	78	90	0	na
71358	240	noff	78	0	0	na
71358	0	non	80	93	0	na
71598	240	noff	80	0	0	na
72078	480	non	73	74	0	na
72318	240	noff	73	0	0	na
72318	0	non	78	86	0	na
72438	120	non	61	81	0	na
72558	120	noff	78	0	0	na
72558	0	noff	61	0	0	na
72558	0	non	73	80	0	na
72678	120	non	66	85	0	na
72798	120	noff	73	0	0	na
72798	0	noff	66	0	0	na
72918	120	non	66	76	0	na
73038	120	noff	66	0	0	na
73038	0	non	73	75	0	na
73278	240	noff	73	0	0	na
73278	0	non	78	85	0	na
73518	240	noff	78	0	0	na
73518	0	non	73	77	0	na
73758	240	noff	73	0	0	na
73998	240	non	73	78	0	na
74238	240	noff	73	0	0	na
74238	0	non	78	82	0	na
74358	120	non	73	100	0	na
74478	120	noff	78	0	0	na
74478	0	noff	73	0	0	na
74478	0	non	81	89	0	na
74718	240	noff	81	0	0	na
74718	0	non	80	86	0	na
74958	240	noff	80	0	0	na
74958	0	non	76	80	0	na
75198	240	noff	76	0	0	na
75198	0	non	68	74	0	na
75438	240	noff	68	0	0	na
75438	0	non	71	87	0	na
75558	120	noff	71	0	0	na
75558	0	non	73	100	0	na
75678	120	noff	73	0	0	na
75918	240	non	73	79	0	na
76158	240	noff	73	0	0	na
76158	0	non	78	91	0	na
76278	120	non	61	77	0	na
76398	120	noff	78	0	0	na
76398	0	noff	61	0	0	na
76398	0	non	73	84	0	na
76518	120	non	66	86	0	na
76638	120	noff	73	0	0	na
76638	0	noff	66	0	0	na
76758	120	non	66	80	0	na
76878	120	noff	66	0	0	na
76878	0	non	73	81	0	na
77118	240	noff	73	0	0	na
77118	0	non	78	87	0	na
77358	240	noff	78	0	0	na
77358	0	non	73	84	0	na
77598	240	noff	73	0	0	na
77838	240	non	61	88	0	na
77838	0	non	73	81	0	na
77958	120	noff	61	0	0	na
77958	0	non	66	100	0	na
78078	120	noff	73	0	0	na
78078	0	noff	66	0	0	na
78078	0	non	66	78	0	na
78078	0	non	78	84	0	na
78198	120	noff	66	0	0	na
78318	120	noff	78	0	0	na
78318	0	non	66	100	0	na
78318	0	non	81	88	0	na
78438	120	noff	66	0	0	na
78558	120	noff	81	0	0	na
78558	0	non	64	91	0	na
78558	0	non	80	84	0	na
78678	120	noff	64	0	0	na
78798	120	noff	80	0	0	na
78798	0	non	61	88	0	na
78798	0	non	81	88	0	na
78918	120	noff	61	0	0	na
79038	120	noff	81	0	0	na
79038	0	non	64	93	0	na
79038	0	non	83	95	0	na
79158	120	noff	64	0	0	na
79278	120	non	66	100	0	na
79398	120	noff	66	0	0	na
79398	0	non	68	102	0	na
79458	60	noff	83	0	0	na
79518	60	noff	68	0	0	na
79518	0	non	78	107	0	na
80238	720	noff	78	0	0	na
80238	0	non	76	100	0	na
80478	240	noff	76	0	0	na
80478	0	non	71	94	0	na
80838	360	noff	71	0	0	na
80838	0	non	73	100	0	na
81198	360	noff	73	0	0	na
81198	0	non	76	106	0	na
81438	240	noff	76	0	0	na
81438	0	non	78	108	0	na
81798	360	noff	78	0	0	na
81798	0	non	81	107	0	na
82158	360	noff	81	0	0	na
82158	0	non	80	105	0	na
82398	240	noff	80	0	0	na
82398	0	non	73	100	0	na
83118	720	noff	73	0	0	na
83118	0	non	78	99	0	na
83238	120	noff	78	0	0	na
83238	0	non	80	102	0	na
83358	120	noff	80	0	0	na
83358	0	non	81	108	0	na
83718	360	noff	81	0	0	na
83718	0	non	83	109	0	na
84078	360	noff	83	0	0	na
84078	0	non	81	110	0	na
84318	240	noff	81	0	0	na
84318	0	non	80	108	0	na
84678	360	noff	80	0	0	na
84678	0	non	77	102	0	na
85038	360	noff	77	0	0	na
85038	0	non	73	93	0	na
85278	240	noff	73	0	0	na
85278	0	non	80	100	0	na
85998	720	noff	80	0	0	na
85998	0	non	81	105	0	na
86238	240	noff	81	0	0	na
86238	0	non	81	98	0	na
86958	720	noff	81	0	0	na
86958	0	non	73	97	0	na
87078	120	noff	73	0	0	na
87078	0	non	76	100	0	na
87198	120	noff	76	0	0	na
87198	0	non	78	102	0	na
87918	720	noff	78	0	0	na
87918	0	non	76	100	0	na
88158	240	noff	76	0	0	na
88158	0	non	71	96	0	na
88518	360	noff	71	0	0	na
88518	0	non	73	101	0	na
88878	360	noff	73	0	0	na
88878	0	non	76	105	0	na
89118	240	noff	76	0	0	na
89118	0	non	78	105	0	na
89478	360	noff	78	0	0	na
89478	0	non	81	106	0	na
89838	360	noff	81	0	0	na
89838	0	non	80	107	0	na
90078	240	noff	80	0	0	na
90078	0	non	78	104	0	na
90798	720	noff	78	0	0	na
90798	0	non	78	101	0	na
90918	120	noff	78	0	0	na
90918	0	non	80	104	0	na
91038	120	noff	80	0	0	na
91038	0	non	81	108	0	na
91398	360	noff	81	0	0	na
91398	0	non	83	107	0	na
91758	360	noff	83	0	0	na
91758	0	non	81	108	0	na
91998	240	noff	81	0	0	na
91998	0	non	80	105	0	na
92358	360	noff	80	0	0	na
92358	0	non	77	101	0	na
92718	360	noff	77	0	0	na
92718	0	non	73	97	0	na
92958	240	noff	73	0	0	na
92958	0	non	78	94	0	na
94818	1860	noff	78	0	0	na
94878	60	non	78	107	0	na
95598	720	noff	78	0	0	na
95598	0	non	76	100	0	na
95838	240	noff	76	0	0	na
95838	0	non	71	94	0	na
96198	360	noff	71	0	0	na
96198	0	non	73	100	0	na
96558	360	noff	73	0	0	na
96558	0	non	76	106	0	na
96798	240	noff	76	0	0	na
96798	0	non	78	108	0	na
97158	360	noff	78	0	0	na
97158	0	non	81	107	0	na
97518	360	noff	81	0	0	na
97518	0	non	80	105	0	na
97758	240	noff	80	0	0	na
97758	0	non	73	100	0	na
98478	720	noff	73	0	0	na
98478	0	non	78	99	0	na
98598	120	noff	78	0	0	na
98598	0	non	80	102	0	na
98718	120	noff	80	0	0	na
98718	0	non	81	108	0	na
99078	360	noff	81	0	0	na
99078	0	non	83	109	0	na
99438	360	noff	83	0	0	na
99438	0	non	81	110	0	na
99678	240	noff	81	0	0	na
99678	0	non	80	108	0	na
100038	360	noff	80	0	0	na
100038	0	non	77	102	0	na
100398	360	noff	77	0	0	na
100398	0	non	73	93	0	na
100638	240	noff	73	0	0	na
100638	0	non	80	100	0	na
101358	720	noff	80	0	0	na
101358	0	non	81	105	0	na
101598	240	noff	81	0	0	na
101598	0	non	81	98	0	na
102318	720	noff	81	0	0	na
102318	0	non	73	97	0	na
102438	120	noff	73	0	0	na
102438	0	non	76	100	0	na
102558	120	noff	76	0	0	na
102558	0	non	78	102	0	na
103278	720	noff	78	0	0	na
103278	0	non	76	100	0	na
103518	240	noff	76	0	0	na
103518	0	non	71	96	0	na
103878	360	noff	71	0	0	na
103878	0	non	73	101	0	na
104238	360	noff	73	0	0	na
104238	0	non	76	105	0	na
104478	240	noff	76	0	0	na
104478	0	non	78	105	0	na
104838	360	noff	78	0	0	na
104838	0	non	81	106	0	na
105198	360	noff	81	0	0	na
105198	0	non	80	107	0	na
105438	240	noff	80	0	0	na
105438	0	non	78	104	0	na
106158	720	noff	78	0	0	na
106158	0	non	78	101	0	na
106278	120	noff	78	0	0	na
106278	0	non	80	104	0	na
106398	120	noff	80	0	0	na
106398	0	non	81	108	0	na
106758	360	noff	81	0	0	na
106758	0	non	83	107	0	na
107118	360	noff	83	0	0	na
107118	0	non	81	108	0	na
107358	240	noff	81	0	0	na
107358	0	non	80	105	0	na
107718	360	noff	80	0	0	na
107718	0	non	77	101	0	na
108078	360	noff	77	0	0	na
108078	0	non	73	97	0	na
108318	240	noff	73	0	0	na
108318	0	non	78	94	0	na
110178	1860	noff	78	0	0	na
110238	60	non	78	116	0	na
110478	240	noff	78	0	0	na
110478	0	non	73	101	0	na
110718	240	noff	73	0	0	na
110718	0	non	76	110	0	na
110958	240	noff	76	0	0	na
110958	0	non	76	96	0	na
111078	120	noff	76	0	0	na
111078	0	non	78	113	0	na
111358	280	noff	78	0	0	na
111438	80	non	73	100	0	na
111558	120	noff	73	0	0	na
111558	0	non	76	110	0	na
111798	240	noff	76	0	0	na
111798	0	non	78	114	0	na
111918	120	noff	78	0	0	na
111918	0	non	73	108	0	na
112038	120	noff	73	0	0	na
112038	0	non	76	111	0	na
112158	120	noff	76	0	0	na
112158	0	non	81	122	0	na
112398	240	noff	81	0	0	na
112478	80	non	81	121	0	na
112638	160	noff	81	0	0	na
112638	0	non	80	119	0	na
112878	240	noff	80	0	0	na
112958	80	non	80	115	0	na
113118	160	noff	80	0	0	na
113118	0	non	78	119	0	na
113358	240	noff	78	0	0	na
113438	80	non	78	115	0	na
113598	160	noff	78	0	0	na
113598	0	non	73	97	0	na
113718	120	noff	73	0	0	na
113718	0	non	76	105	0	na
113958	240	noff	76	0	0	na
113958	0	non	78	115	0	na
114318	360	noff	78	0	0	na
114318	0	non	76	109	0	na
114558	240	noff	76	0	0	na
114558	0	non	73	100	0	na
114678	120	noff	73	0	0	na
114678	0	non	76	106	0	na
114918	240	noff	76	0	0	na
115038	120	non	69	94	0	na
115278	240	noff	69	0	0	na
115278	0	non	71	100	0	na
115518	240	noff	71	0	0	na
115518	0	non	73	106	0	na
115758	240	noff	73	0	0	na
115758	0	non	80	114	0	na
115998	240	noff	80	0	0	na
115998	0	non	81	119	0	na
116238	240	noff	81	0	0	na
116478	240	non	83	120	0	na
116718	240	noff	83	0	0	na
116838	120	non	81	118	0	na
117078	240	noff	81	0	0	na
117078	0	non	80	115	0	na
117198	120	noff	80	0	0	na
117198	0	non	76	113	0	na
117318	120	noff	76	0	0	na
117318	0	non	78	113	0	na
117438	120	noff	78	0	0	na
117438	0	non	73	110	0	na
117558	120	noff	73	0	0	na
117558	0	non	76	108	0	na
117678	120	noff	76	0	0	na
117678	0	non	71	105	0	na
117918	240	noff	71	0	0	na
117918	0	non	73	106	0	na
118158	240	noff	73	0	0	na
118158	0	non	76	107	0	na
118398	240	noff	76	0	0	na
118398	0	non	78	109	0	na
118758	360	noff	78	0	0	na
118758	0	non	73	102	0	na
118998	240	noff	73	0	0	na
118998	0	non	73	106	0	na
119118	120	noff	73	0	0	na
119118	0	non	76	108	0	na
119358	240	noff	76	0	0	na
119358	0	non	78	112	0	na
119598	240	noff	78	0	0	na
119598	0	non	71	105	0	na
119838	240	noff	71	0	0	na
119838	0	non	69	102	0	na
120078	240	noff	69	0	0	na
120078	0	non	68	99	0	na
120318	240	noff	68	0	0	na
120318	0	non	76	100	0	na
120498	180	noff	76	0	0	na
120498	0	non	76	88	0	na
120558	60	non	78	107	0	na
120618	60	noff	76	0	0	na
120798	180	noff	78	0	0	na
120798	0	non	73	104	0	na
121038	240	noff	73	0	0	na
121038	0	non	71	101	0	na
121278	240	noff	71	0	0	na
121278	0	non	69	98	0	na
121518	240	noff	69	0	0	na
121518	0	non	68	100	0	na
121758	240	noff	68	0	0	na
121758	0	non	69	102	0	na
121998	240	noff	69	0	0	na
121998	0	non	68	97	0	na
122238	240	noff	68	0	0	na
122238	0	non	66	91	0	na
122418	180	noff	66	0	0	na
122418	0	non	71	84	0	na
122478	60	non	73	106	0	na
122538	60	noff	71	0	0	na
122718	180	noff	73	0	0	na
122718	0	non	69	100	0	na
122958	240	noff	69	0	0	na
122958	0	non	68	99	0	na
123198	240	noff	68	0	0	na
123198	0	non	66	98	0	na
123318	120	noff	66	0	0	na
123318	0	non	73	95	0	na
123438	120	noff	73	0	0	na
123438	0	non	76	99	0	na
123558	120	noff	76	0	0	na
123558	0	non	71	106	0	na
123678	120	noff	71	0	0	na
123678	0	non	69	105	0	na
123918	240	noff	69	0	0	na
123918	0	non	68	104	0	na
124158	240	noff	68	0	0	na
124158	0	non	66	96	0	na
124398	240	noff	66	0	0	na
124398	0	non	61	94	0	na
124638	240	noff	61	0	0	na
124638	0	non	68	103	0	na
124878	240	noff	68	0	0	na
124878	0	non	66	99	0	na
125118	240	noff	66	0	0	na
125118	0	non	64	95	0	na
125358	240	noff	64	0	0	na
125358	0	non	59	91	0	na
125598	240	noff	59	0	0	na
125598	0	non	78	116	0	na
125838	240	noff	78	0	0	na
125838	0	non	73	101	0	na
126078	240	noff	73	0	0	na
126078	0	non	76	110	0	na
126318	240	noff	76	0	0	na
126318	0	non	76	96	0	na
126438	120	noff	76	0	0	na
126438	0	non	78	113	0	na
126718	280	noff	78	0	0	na
126798	80	non	73	100	0	na
126918	120	noff	73	0	0	na
126918	0	non	76	110	0	na
127158	240	noff	76	0	0	na
127158	0	non	78	114	0	na
127278	120	noff	78	0	0	na
127278	0	non	73	108	0	na
127398	120	noff	73	0	0	na
127398	0	non	76	111	0	na
127518	120	noff	76	0	0	na
127518	0	non	81	122	0	na
127758	240	noff	81	0	0	na
127838	80	non	81	121	0	na
127998	160	noff	81	0	0	na
127998	0	non	80	119	0	na
128238	240	noff	80	0	0	na
128318	80	non	80	115	0	na
128478	160	noff	80	0	0	na
128478	0	non	78	119	0	na
128718	240	noff	78	0	0	na
128798	80	non	78	115	0	na
128958	160	noff	78	0	0	na
128958	0	non	73	97	0	na
129078	120	noff	73	0	0	na
129078	0	non	76	105	0	na
129318	240	noff	76	0	0	na
129318	0	non	78	115	0	na
129678	360	noff	78	0	0	na
129678	0	non	76	109	0	na
129918	240	noff	76	0	0	na
129918	0	non	73	100	0	na
130038	120	noff	73	0	0	na
130038	0	non	76	106	0	na
130278	240	noff	76	0	0	na
130398	120	non	69	94	0	na
130638	240	noff	69	0	0	na
130638	0	non	71	100	0	na
130878	240	noff	71	0	0	na
130878	0	non	73	106	0	na
131118	240	noff	73	0	0	na
131118	0	non	80	114	0	na
131358	240	noff	80	0	0	na
131358	0	non	81	119	0	na
131598	240	noff	81	0	0	na
131838	240	non	83	120	0	na
132078	240	noff	83	0	0	na
132198	120	non	81	118	0	na
132438	240	noff	81	0	0	na
132438	0	non	80	115	0	na
132558	120	noff	80	0	0	na
132558	0	non	76	113	0	na
132678	120	noff	76	0	0	na
132678	0	non	78	113	0	na
132798	120	noff	78	0	0	na
132798	0	non	73	110	0	na
132918	120	noff	73	0	0	na
132918	0	non	76	108	0	na
133038	120	noff	76	0	0	na
133038	0	non	71	105	0	na
133278	240	noff	71	0	0	na
133278	0	non	73	106	0	na
133518	240	noff	73	0	0	na
133518	0	non	76	107	0	na
133758	240	noff	76	0	0	na
133758	0	non	78	109	0	na
134118	360	noff	78	0	0	na
134118	0	non	73	102	0	na
134358	240	noff	73	0	0	na
134358	0	non	73	106	0	na
134478	120	noff	73	0	0	na
134478	0	non	76	108	0	na
134718	240	noff	76	0	0	na
134718	0	non	78	112	0	na
134958	240	noff	78	0	0	na
134958	0	non	71	105	0	na
135198	240	noff	71	0	0	na
135198	0	non	69	102	0	na
135438	240	noff	69	0	0	na
135438	0	non	68	99	0	na
135678	240	noff	68	0	0	na
135678	0	non	76	100	0	na
135858	180	noff	76	0	0	na
135858	0	non	76	88	0	na
135918	60	noff	76	0	0	na
135918	0	non	78	107	0	na
136158	240	noff	78	0	0	na
136158	0	non	73	104	0	na
136398	240	noff	73	0	0	na
136398	0	non	71	101	0	na
136638	240	noff	71	0	0	na
136638	0	non	69	98	0	na
136878	240	noff	69	0	0	na
136878	0	non	68	100	0	na
137118	240	noff	68	0	0	na
137118	0	non	69	102	0	na
137358	240	noff	69	0	0	na
137358	0	non	68	97	0	na
137598	240	noff	68	0	0	na
137598	0	non	66	91	0	na
137778	180	noff	66	0	0	na
137778	0	non	71	84	0	na
137838	60	noff	71	0	0	na
137838	0	non	73	106	0	na
138078	240	noff	73	0	0	na
138078	0	non	69	100	0	na
138318	240	noff	69	0	0	na
138318	0	non	68	99	0	na
138558	240	noff	68	0	0	na
138558	0	non	66	98	0	na
138678	120	noff	66	0	0	na
138678	0	non	73	95	0	na
138798	120	noff	73	0	0	na
138798	0	non	76	99	0	na
138918	120	noff	76	0	0	na
138918	0	non	71	106	0	na
139038	120	noff	71	0	0	na
139038	0	non	69	105	0	na
139278	240	noff	69	0	0	na
139278	0	non	68	104	0	na
139518	240	noff	68	0	0	na
139518	0	non	66	96	0	na
139758	240	noff	66	0	0	na
139758	0	non	61	94	0	na
139998	240	noff	61	0	0	na
139998	0	non	66	103	0	na
139998	0	non	78	100	0	na
140478	480	noff	66	0	0	na
140478	0	noff	78	0	0	na
140478	0	non	68	100	0	na
140478	0	non	80	100	0	na
140958	480	noff	68	0	0	na
140958	0	noff	80	0	0	na
140958	0	non	70	100	0	na
142398	1440	noff	70	0	0	na
142398	0	non	68	98	0	na
142638	240	noff	68	0	0	na
142638	0	non	66	94	0	na
142878	240	noff	66	0	0	na
142878	0	non	65	92	0	na
143238	360	noff	65	0	0	na
143238	0	non	66	100	0	na
143598	360	noff	66	0	0	na
143598	0	non	75	104	0	na
143838	240	noff	75	0	0	na
143838	0	non	70	105	0	na
144318	480	noff	70	0	0	na
144318	0	non	63	90	0	na
144558	240	noff	63	0	0	na
144558	0	non	65	95	0	na
144798	240	noff	65	0	0	na
144798	0	non	66	100	0	na
145038	240	noff	66	0	0	na
145038	0	non	68	100	0	na
145158	120	noff	68	0	0	na
145158	0	non	66	104	0	na
145398	240	noff	66	0	0	na
145398	0	non	66	101	0	na
145518	120	noff	66	0	0	na
145518	0	non	65	100	0	na
145758	240	noff	65	0	0	na
145758	0	non	61	95	0	na
145998	240	noff	61	0	0	na
145998	0	non	58	87	0	na
146238	240	noff	58	0	0	na
146238	0	non	61	84	0	na
146358	120	noff	61	0	0	na
146358	0	non	63	100	0	na
146958	600	noff	63	0	0	na
146958	0	non	65	95	0	na
147198	240	noff	65	0	0	na
147198	0	non	66	98	0	na
147438	240	noff	66	0	0	na
147438	0	non	73	106	0	na
147678	240	noff	73	0	0	na
147678	0	non	70	102	0	na
148158	480	noff	70	0	0	na
148158	0	non	66	89	0	na
148398	240	noff	66	0	0	na
148398	0	non	68	94	0	na
148638	240	noff	68	0	0	na
148638	0	non	70	99	0	na
149838	1200	noff	70	0	0	na
149838	0	non	70	95	0	na
150078	240	noff	70	0	0	na
150078	0	non	75	98	0	na
150318	240	noff	75	0	0	na
150318	0	non	77	104	0	na
150558	240	noff	77	0	0	na
150558	0	non	78	110	0	na
150918	360	noff	78	0	0	na
150918	0	non	77	107	0	na
151278	360	noff	77	0	0	na
151278	0	non	73	100	0	na
151518	240	noff	73	0	0	na
151518	0	non	75	106	0	na
151998	480	noff	75	0	0	na
151998	0	non	75	105	0	na
152238	240	noff	75	0	0	na
152238	0	non	77	109	0	na
152478	240	noff	77	0	0	na
152478	0	non	78	114	0	na
152718	240	noff	78	0	0	na
152718	0	non	80	111	0	na
152838	120	noff	80	0	0	na
152838	0	non	78	114	0	na
153078	240	noff	78	0	0	na
153078	0	non	77	111	0	na
153198	120	noff	77	0	0	na
153198	0	non	75	111	0	na
153438	240	noff	75	0	0	na
153438	0	non	70	104	0	na
153678	240	noff	70	0	0	na
153678	0	non	68	94	0	na
153918	240	noff	68	0	0	na
153918	0	non	73	98	0	na
154158	240	noff	73	0	0	na
154158	0	non	75	102	0	na
154758	600	non	80	107	0	na
155118	360	noff	80	0	0	na
155118	0	non	78	104	0	na
155358	240	noff	75	0	0	na
155358	0	noff	78	0	0	na
155358	0	non	78	101	0	na
155598	240	noff	78	0	0	na
155598	0	non	75	92	0	na
155718	120	noff	75	0	0	na
155718	0	non	77	96	0	na
155958	240	noff	77	0	0	na
155958	0	non	78	103	0	na
156078	120	noff	78	0	0	na
156078	0	non	77	100	0	na
156318	240	noff	77	0	0	na
156318	0	non	75	88	0	na
156438	120	noff	75	0	0	na
156438	0	non	80	103	0	na
156678	240	noff	80	0	0	na
156678	0	non	82	109	0	na
156798	120	noff	82	0	0	na
156798	0	non	75	94	0	na
156918	120	noff	75	0	0	na
156918	0	non	78	108	0	na
157038	120	noff	78	0	0	na
157038	0	non	77	104	0	na
157158	120	noff	77	0	0	na
157158	0	non	73	98	0	na
157278	120	noff	73	0	0	na
157278	0	non	70	90	0	na
157638	360	noff	70	0	0	na
157638	0	non	70	89	0	na
157878	240	noff	70	0	0	na
157878	0	non	75	91	0	na
157998	120	noff	75	0	0	na
157998	0	non	68	88	0	na
158238	240	noff	68	0	0	na
158238	0	non	66	88	0	na
158358	120	noff	66	0	0	na
158478	120	non	75	94	0	na
158598	120	noff	75	0	0	na
158598	0	non	66	88	0	na
158718	120	noff	66	0	0	na
158718	0	non	65	91	0	na
158838	120	noff	65	0	0	na
158958	120	non	73	98	0	na
159078	120	noff	73	0	0	na
159078	0	non	65	87	0	na
159198	120	noff	65	0	0	na
159198	0	non	66	90	0	na
159318	120	noff	66	0	0	na
159438	120	non	75	100	0	na
159678	240	noff	75	0	0	na
159678	0	non	70	84	0	na
159798	120	noff	70	0	0	na
159798	0	non	75	95	0	na
159918	120	noff	75	0	0	na
159918	0	non	77	103	0	na
160158	240	noff	77	0	0	na
160158	0	non	78	107	0	na
160398	240	noff	78	0	0	na
160398	0	non	80	111	0	na
160518	120	noff	80	0	0	na
160518	0	non	78	109	0	na
160638	120	noff	78	0	0	na
160758	120	non	78	105	0	na
160878	120	noff	78	0	0	na
160878	0	non	77	104	0	na
161118	240	noff	77	0	0	na
161118	0	non	73	99	0	na
161238	120	noff	73	0	0	na
161238	0	non	70	98	0	na
161358	120	noff	70	0	0	na
161358	0	non	68	96	0	na
161478	120	noff	68	0	0	na
161478	0	non	70	95	0	na
161598	120	noff	70	0	0	na
161598	0	non	73	92	0	na
161718	120	noff	73	0	0	na
161718	0	non	75	94	0	na
161838	120	noff	75	0	0	na
161838	0	non	78	100	0	na
161958	120	noff	78	0	0	na
161958	0	non	80	102	0	na
162078	120	noff	80	0	0	na
162078	0	non	75	100	0	na
162198	120	noff	75	0	0	na
162198	0	non	75	81	0	na
162318	120	noff	75	0	0	na
162318	0	non	82	105	0	na
162498	180	noff	82	0	0	na
162558	60	non	70	93	0	na
162678	120	noff	70	0	0	na
162678	0	non	70	81	0	na
162798	120	noff	70	0	0	na
162798	0	non	78	99	0	na
163038	240	noff	78	0	0	na
163038	0	non	66	94	0	na
163158	120	noff	66	0	0	na
163158	0	non	68	96	0	na
163278	120	noff	68	0	0	na
163278	0	non	70	99	0	na
163398	120	noff	70	0	0	na
163398	0	non	75	100	0	na
163518	120	noff	75	0	0	na
163518	0	non	70	97	0	na
163638	120	noff	70	0	0	na
163638	0	non	68	94	0	na
163758	120	noff	68	0	0	na
163758	0	non	65	83	0	na
163878	120	noff	65	0	0	na
163878	0	non	61	77	0	na
163998	120	noff	61	0	0	na
163998	0	non	75	100	0	na
164118	120	noff	75	0	0	na
164118	0	non	77	103	0	na
164238	120	noff	77	0	0	na
164358	120	non	78	102	0	na
164478	120	noff	78	0	0	na
164478	0	non	75	92	0	na
164598	120	noff	75	0	0	na
164718	120	non	77	102	0	na
164838	120	noff	77	0	0	na
164838	0	non	73	91	0	na
164958	120	noff	73	0	0	na
164958	0	non	70	89	0	na
165258	300	noff	70	0	0	na
165318	60	non	70	91	0	na
165438	120	noff	70	0	0	na
165438	0	non	70	94	0	na
165558	120	noff	70	0	0	na
165558	0	non	75	97	0	na
165678	120	noff	75	0	0	na
165678	0	non	68	88	0	na
165918	240	noff	68	0	0	na
165918	0	non	66	84	0	na
166038	120	noff	66	0	0	na
166038	0	non	66	87	0	na
166158	120	noff	66	0	0	na
166158	0	non	75	105	0	na
166278	120	noff	75	0	0	na
166278	0	non	66	97	0	na
166398	120	noff	66	0	0	na
166398	0	non	65	92	0	na
166518	120	noff	65	0	0	na
166518	0	non	70	96	0	na
166638	120	noff	70	0	0	na
166638	0	non	73	104	0	na
166758	120	non	65	88	0	na
166818	60	noff	73	0	0	na
166878	60	noff	65	0	0	na
166878	0	non	66	89	0	na
167058	180	noff	66	0	0	na
167118	60	non	75	105	0	na
167298	180	noff	75	0	0	na
167358	60	non	70	91	0	na
167478	120	noff	70	0	0	na
167478	0	non	75	97	0	na
167598	120	noff	75	0	0	na
167598	0	non	77	104	0	na
167838	240	noff	77	0	0	na
167838	0	non	78	110	0	na
168078	240	noff	78	0	0	na
168078	0	non	80	110	0	na
168198	120	noff	80	0	0	na
168198	0	non	78	109	0	na
168318	120	noff	78	0	0	na
168438	120	non	77	105	0	na
168558	120	noff	77	0	0	na
168558	0	non	73	105	0	na
168678	120	noff	73	0	0	na
168798	120	non	73	105	0	na
168918	120	noff	73	0	0	na
168918	0	non	70	104	0	na
169038	120	noff	70	0	0	na
169038	0	non	68	102	0	na
169158	120	noff	68	0	0	na
169158	0	non	70	100	0	na
169278	120	noff	70	0	0	na
169278	0	non	73	100	0	na
169398	120	noff	73	0	0	na
169398	0	non	75	102	0	na
169518	120	noff	75	0	0	na
169518	0	non	78	105	0	na
169638	120	noff	78	0	0	na
169638	0	non	73	100	0	na
169758	120	noff	73	0	0	na
169758	0	non	75	96	0	na
169758	0	non	70	100	0	na
171618	1860	noff	75	0	0	na
171618	0	noff	70	0	0	na
171918	300	non	70	85	0	na
172158	240	noff	70	0	0	na
172158	0	non	75	91	0	na
172398	240	noff	75	0	0	na
172398	0	non	70	80	0	na
172638	240	noff	70	0	0	na
172878	240	non	70	79	0	na
173118	240	noff	70	0	0	na
173118	0	non	75	89	0	na
173358	240	noff	75	0	0	na
173358	0	non	70	81	0	na
173598	240	noff	70	0	0	na
173838	240	non	70	81	0	na
174078	240	noff	70	0	0	na
174078	0	non	75	88	0	na
174318	240	noff	75	0	0	na
174318	0	non	78	89	0	na
174558	240	noff	78	0	0	na
174558	0	non	77	88	0	na
174798	240	noff	77	0	0	na
174798	0	non	73	82	0	na
175038	240	noff	73	0	0	na
175038	0	non	68	71	0	na
175278	240	noff	68	0	0	na
175758	480	non	70	72	0	na
175998	240	noff	70	0	0	na
175998	0	non	75	85	0	na
176238	240	noff	75	0	0	na
176238	0	non	70	75	0	na
176478	240	noff	70	0	0	na
176718	240	non	70	78	0	na
176958	240	noff	70	0	0	na
176958	0	non	75	87	0	na
177198	240	noff	75	0	0	na
177198	0	non	70	78	0	na
177438	240	noff	70	0	0	na
177678	240	non	70	77	0	na
177918	240	noff	70	0	0	na
177918	0	non	75	86	0	na
178158	240	noff	75	0	0	na
178158	0	non	78	94	0	na
178398	240	noff	78	0	0	na
178398	0	non	77	86	0	na
178638	240	noff	77	0	0	na
178638	0	non	78	90	0	na
178878	240	noff	78	0	0	na
178878	0	non	80	93	0	na
179118	240	noff	80	0	0	na
179598	480	non	73	74	0	na
179838	240	noff	73	0	0	na
179838	0	non	78	86	0	na
179958	120	non	61	81	0	na
180078	120	noff	78	0	0	na
180078	0	noff	61	0	0	na
180078	0	non	73	80	0	na
180198	120	non	66	85	0	na
180318	120	noff	73	0	0	na
180318	0	noff	66	0	0	na
180438	120	non	66	76	0	na
180558	120	noff	66	0	0	na
180558	0	non	73	75	0	na
180798	240	noff	73	0	0	na
180798	0	non	78	85	0	na
181038	240	noff	78	0	0	na
181038	0	non	73	77	0	na
181278	240	noff	73	0	0	na
181518	240	non	73	78	0	na
181758	240	noff	73	0	0	na
181758	0	non	78	82	0	na
181878	120	non	73	100	0	na
181998	120	noff	78	0	0	na
181998	0	noff	73	0	0	na
181998	0	non	81	89	0	na
182238	240	noff	81	0	0	na
182238	0	non	80	86	0	na
182478	240	noff	80	0	0	na
182478	0	non	76	80	0	na
182718	240	noff	76	0	0	na
182718	0	non	68	74	0	na
182958	240	noff	68	0	0	na
182958	0	non	71	87	0	na
183078	120	noff	71	0	0	na
183078	0	non	73	100	0	na
183198	120	noff	73	0	0	na
183438	240	non	73	79	0	na
183678	240	noff	73	0	0	na
183678	0	non	78	91	0	na
183798	120	non	61	77	0	na
183918	120	noff	78	0	0	na
183918	0	noff	61	0	0	na
183918	0	non	73	84	0	na
184038	120	non	66	86	0	na
184158	120	noff	73	0	0	na
184158	0	noff	66	0	0	na
184278	120	non	66	80	0	na
184398	120	noff	66	0	0	na
184398	0	non	73	81	0	na
184638	240	noff	73	0	0	na
184638	0	non	78	87	0	na
184878	240	noff	78	0	0	na
184878	0	non	73	84	0	na
185118	240	noff	73	0	0	na
185358	240	non	61	88	0	na
185358	0	non	73	81	0	na
185478	120	noff	61	0	0	na
185478	0	non	66	100	0	na
185598	120	noff	73	0	0	na
185598	0	noff	66	0	0	na
185598	0	non	66	78	0	na
185598	0	non	78	84	0	na
185718	120	noff	66	0	0	na
185838	120	noff	78	0	0	na
185838	0	non	66	100	0	na
185838	0	non	81	88	0	na
185958	120	noff	66	0	0	na
186078	120	noff	81	0	0	na
186078	0	non	64	91	0	na
186078	0	non	80	84	0	na
186198	120	noff	64	0	0	na
186318	120	noff	80	0	0	na
186318	0	non	61	88	0	na
186318	0	non	81	88	0	na
186438	120	noff	61	0	0	na
186558	120	noff	81	0	0	na
186558	0	non	64	93	0	na
186558	0	non	83	95	0	na
186678	120	noff	64	0	0	na
186798	120	non	66	100	0	na
186918	120	noff	66	0	0	na
186918	0	non	68	102	0	na
186978	60	noff	83	0	0	na
187038	60	noff	68	0	0	na
187038	0	non	78	107	0	na
187758	720	noff	78	0	0	na
187758	0	non	76	100	0	na
187998	240	noff	76	0	0	na
187998	0	non	71	94	0	na
188358	360	noff	71	0	0	na
188358	0	non	73	100	0	na
188718	360	noff	73	0	0	na
188718	0	non	76	106	0	na
188958	240	noff	76	0	0	na
188958	0	non	78	108	0	na
189318	360	noff	78	0	0	na
189318	0	non	81	107	0	na
189678	360	noff	81	0	0	na
189678	0	non	80	105	0	na
189918	240	noff	80	0	0	na
189918	0	non	73	100	0	na
190638	720	noff	73	0	0	na
190638	0	non	78	99	0	na
190758	120	noff	78	0	0	na
190758	0	non	80	102	0	na
190878	120	noff	80	0	0	na
190878	0	non	81	108	0	na
191238	360	noff	81	0	0	na
191238	0	non	83	109	0	na
191598	360	noff	83	0	0	na
191598	0	non	81	110	0	na
191838	240	noff	81	0	0	na
191838	0	non	80	108	0	na
192198	360	noff	80	0	0	na
192198	0	non	77	102	0	na
192558	360	noff	77	0	0	na
192558	0	non	73	93	0	na
192798	240	noff	73	0	0	na
192798	0	non	80	100	0	na
193518	720	noff	80	0	0	na
193518	0	non	81	105	0	na
193758	240	noff	81	0	0	na
193758	0	non	81	98	0	na
194478	720	noff	81	0	0	na
194478	0	non	73	97	0	na
194598	120	noff	73	0	0	na
194598	0	non	76	100	0	na
194718	120	noff	76	0	0	na
194718	0	non	78	102	0	na
195438	720	noff	78	0	0	na
195438	0	non	76	100	0	na
195678	240	noff	76	0	0	na
195678	0	non	71	96	0	na
196038	360	noff	71	0	0	na
196038	0	non	73	101	0	na
196398	360	noff	73	0	0	na
196398	0	non	76	105	0	na
196638	240	noff	76	0	0	na
196638	0	non	78	105	0	na
196998	360	noff	78	0	0	na
196998	0	non	81	106	0	na
197358	360	noff	81	0	0	na
197358	0	non	80	107	0	na
197598	240	noff	80	0	0	na
197598	0	non	78	104	0	na
198318	720	noff	78	0	0	na
198318	0	non	78	101	0	na
198438	120	noff	78	0	0	na
198438	0	non	80	104	0	na
198558	120	noff	80	0	0	na
198558	0	non	81	108	0	na
198918	360	noff	81	0	0	na
198918	0	non	83	107	0	na
199278	360	noff	83	0	0	na
199278	0	non	81	108	0	na
199518	240	noff	81	0	0	na
199518	0	non	80	105	0	na
199878	360	noff	80	0	0	na
199878	0	non	77	101	0	na
200238	360	noff	77	0	0	na
200238	0	non	73	97	0	na
200478	240	noff	73	0	0	na
200478	0	non	78	94	0	na
202338	1860	noff	78	0	0	na
202398	60	non	78	107	0	na
203118	720	noff	78	0	0	na
203118	0	non	76	100	0	na
203358	240	noff	76	0	0	na
203358	0	non	71	94	0	na
203718	360	noff	71	0	0	na
203718	0	non	73	100	0	na
204078	360	noff	73	0	0	na
204078	0	non	76	106	0	na
204318	240	noff	76	0	0	na
204318	0	non	78	108	0	na
204678	360	noff	78	0	0	na
204678	0	non	81	107	0	na
205038	360	noff	81	0	0	na
205038	0	non	80	105	0	na
205278	240	noff	80	0	0	na
205278	0	non	73	100	0	na
205998	720	noff	73	0	0	na
205998	0	non	78	99	0	na
206118	120	noff	78	0	0	na
206118	0	non	80	102	0	na
206238	120	noff	80	0	0	na
206238	0	non	81	108	0	na
206598	360	noff	81	0	0	na
206598	0	non	83	109	0	na
206958	360	noff	83	0	0	na
206958	0	non	81	110	0	na
207198	240	noff	81	0	0	na
207198	0	non	80	108	0	na
207558	360	noff	80	0	0	na
207558	0	non	77	102	0	na
207918	360	noff	77	0	0	na
207918	0	non	73	93	0	na
208158	240	noff	73	0	0	na
208158	0	non	80	100	0	na
208878	720	noff	80	0	0	na
208878	0	non	81	105	0	na
209118	240	noff	81	0	0	na
209118	0	non	81	98	0	na
209838	720	noff	81	0	0	na
209838	0	non	73	97	0	na
209958	120	noff	73	0	0	na
209958	0	non	76	100	0	na
210078	120	noff	76	0	0	na
210078	0	non	78	102	0	na
210798	720	noff	78	0	0	na
210798	0	non	76	100	0	na
211038	240	noff	76	0	0	na
211038	0	non	71	96	0	na
211398	360	noff	71	0	0	na
211398	0	non	73	101	0	na
211758	360	noff	73	0	0	na
211758	0	non	76	105	0	na
211998	240	noff	76	0	0	na
211998	0	non	78	105	0	na
212358	360	noff	78	0	0	na
212358	0	non	81	106	0	na
212718	360	noff	81	0	0	na
212718	0	non	80	107	0	na
212958	240	noff	80	0	0	na
212958	0	non	78	104	0	na
213678	720	noff	78	0	0	na
213678	0	non	78	101	0	na
213798	120	noff	78	0	0	na
213798	0	non	80	104	0	na
213918	120	noff	80	0	0	na
213918	0	non	81	108	0	na
214278	360	noff	81	0	0	na
214278	0	non	83	107	0	na
214638	360	noff	83	0	0	na
214638	0	non	81	108	0	na
214878	240	noff	81	0	0	na
214878	0	non	80	105	0	na
215238	360	noff	80	0	0	na
215238	0	non	77	101	0	na
215598	360	noff	77	0	0	na
215598	0	non	73	97	0	na
215838	240	noff	73	0	0	na
215838	0	non	78	94	0	na
217698	1860	noff	78	0	0	na
cumTime	delTime	event	pitch	vel	chan	value
2718	2718	non	69	113	1	na
2958	240	noff	69	0	1	na
2958	0	non	66	107	1	na
3198	240	noff	66	0	1	na
3198	0	non	68	102	1	na
3438	240	noff	68	0	1	na
3438	0	non	68	94	1	na
3558	120	noff	68	0	1	na
3558	0	non	69	103	1	na
3858	300	noff	69	0	1	na
3918	60	non	69	89	1	na
4038	120	noff	69	0	1	na
4038	0	non	71	90	1	na
4278	240	noff	71	0	1	na
4278	0	non	66	95	1	na
4398	120	noff	66	0	1	na
4398	0	non	68	97	1	na
4518	120	noff	68	0	1	na
4518	0	non	69	100	1	na
4638	120	noff	69	0	1	na
4818	180	non	69	105	1	na
4818	0	non	73	105	1	na
5118	300	noff	69	0	1	na
5118	0	noff	73	0	1	na
5298	180	non	71	104	1	na
5298	0	non	68	104	1	na
5598	300	noff	71	0	1	na
5598	0	noff	68	0	1	na
5778	180	non	69	105	1	na
5778	0	non	66	105	1	na
6078	300	noff	69	0	1	na
6078	0	noff	66	0	1	na
6078	0	non	66	100	1	na
6318	240	noff	66	0	1	na
6318	0	non	69	103	1	na
6798	480	noff	69	0	1	na
6798	0	non	64	95	1	na
7398	600	noff	64	0	1	na
7518	120	non	64	90	1	na
7638	120	non	66	93	1	na
7758	120	non	68	98	1	na
7818	60	noff	64	0	1	na
7938	120	noff	66	0	1	na
8478	540	noff	68	0	1	na
8718	240	non	73	103	1	na
8718	0	non	69	103	1	na
8958	240	noff	73	0	1	na
8958	0	noff	69	0	1	na
9198	240	non	73	100	1	na
9198	0	non	69	100	1	na
9318	120	noff	73	0	1	na
9318	0	noff	69	0	1	na
9318	0	non	73	89	1	na
9678	360	noff	73	0	1	na
9678	0	non	73	100	1	na
9798	120	noff	73	0	1	na
9798	0	non	73	95	1	na
9918	120	noff	73	0	1	na
9918	0	non	73	93	1	na
10038	120	noff	73	0	1	na
10038	0	non	73	89	1	na
10158	120	noff	73	0	1	na
10158	0	non	71	86	1	na
10398	240	noff	71	0	1	na
10398	0	non	66	79	1	na
10638	240	noff	66	0	1	na
10638	0	non	71	85	1	na
10878	240	noff	71	0	1	na
10878	0	non	73	91	1	na
11238	360	noff	73	0	1	na
11238	0	non	66	100	1	na
11478	240	noff	66	0	1	na
11478	0	non	66	92	1	na
11598	120	noff	66	0	1	na
11598	0	non	71	100	1	na
11838	240	noff	71	0	1	na
11838	0	non	73	106	1	na
12078	240	noff	73	0	1	na
12078	0	non	68	100	1	na
12318	240	noff	68	0	1	na
12318	0	non	66	94	1	na
12558	240	noff	66	0	1	na
12558	0	non	64	90	1	na
12798	240	noff	64	0	1	na
12798	0	non	71	100	1	na
13038	240	noff	71	0	1	na
13038	0	non	73	105	1	na
13278	240	noff	73	0	1	na
13278	0	non	69	97	1	na
13518	240	noff	69	0	1	na
13518	0	non	68	93	1	na
13758	240	noff	68	0	1	na
13758	0	non	66	90	1	na
13998	240	noff	66	0	1	na
13998	0	non	64	87	1	na
14238	240	noff	64	0	1	na
14238	0	non	66	94	1	na
14478	240	noff	66	0	1	na
14478	0	non	64	91	1	na
14718	240	noff	64	0	1	na
14718	0	non	61	88	1	na
14958	240	noff	61	0	1	na
14958	0	non	66	98	1	na
15198	240	noff	66	0	1	na
15198	0	non	66	96	1	na
15438	240	noff	66	0	1	na
15438	0	non	64	94	1	na
15678	240	noff	64	0	1	na
15678	0	non	61	84	1	na
15798	120	noff	61	0	1	na
15798	0	non	64	95	1	na
16038	240	noff	64	0	1	na
16038	0	non	61	92	1	na
16158	120	noff	61	0	1	na
16158	0	non	66	100	1	na
16398	240	noff	66	0	1	na
16398	0	non	64	96	1	na
16638	240	noff	64	0	1	na
16638	0	non	61	93	1	na
16878	240	noff	61	0	1	na
16878	0	non	61	94	1	na
17118	240	noff	61	0	1	na
17118	0	non	61	95	1	na
17358	240	noff	61	0	1	na
17358	0	non	59	94	1	na
17598	240	noff	59	0	1	na
17598	0	non	56	88	1	na
17838	240	noff	56	0	1	na
17838	0	non	52	83	1	na
18078	240	noff	52	0	1	na
18078	0	non	69	113	1	na
18318	240	noff	69	0	1	na
18318	0	non	66	107	1	na
18558	240	noff	66	0	1	na
18558	0	non	68	102	1	na
18798	240	noff	68	0	1	na
18798	0	non	68	94	1	na
18918	120	noff	68	0	1	na
18918	0	non	69	103	1	na
19218	300	noff	69	0	1	na
19278	60	non	69	89	1	na
19398	120	noff	69	0	1	na
19398	0	non	71	90	1	na
19638	240	noff	71	0	1	na
19638	0	non	66	95	1	na
19758	120	noff	66	0	1	na
19758	0	non	68	97	1	na
19878	120	noff	68	0	1	na
19878	0	non	69	100	1	na
19998	120	noff	69	0	1	na
20178	180	non	69	105	1	na
20178	0	non	73	105	1	na
20478	300	noff	69	0	1	na
20478	0	noff	73	0	1	na
20658	180	non	71	104	1	na
20658	0	non	68	104	1	na
20958	300	noff	71	0	1	na
20958	0	noff	68	0	1	na
21138	180	non	69	105	1	na
21138	0	non	66	105	1	na
21438	300	noff	69	0	1	na
21438	0	noff	66	0	1	na
21438	0	non	66	100	1	na
21678	240	noff	66	0	1	na
21678	0	non	69	103	1	na
22158	480	noff	69	0	1	na
22158	0	non	64	95	1	na
22758	600	noff	64	0	1	na
22878	120	non	64	90	1	na
22998	120	non	66	93	1	na
23118	120	non	68	98	1	na
23178	60	noff	64	0	1	na
23298	120	noff	66	0	1	na
23838	540	noff	68	0	1	na
24078	240	non	73	103	1	na
24078	0	non	69	103	1	na
24318	240	noff	73	0	1	na
24318	0	noff	69	0	1	na
24558	240	non	73	100	1	na
24558	0	non	69	100	1	na
24678	120	noff	73	0	1	na
24678	0	noff	69	0	1	na
24678	0	non	73	89	1	na
25038	360	noff	73	0	1	na
25038	0	non	73	100	1	na
25158	120	noff	73	0	1	na
25158	0	non	73	95	1	na
25278	120	noff	73	0	1	na
25278	0	non	73	93	1	na
25398	120	noff	73	0	1	na
25398	0	non	73	89	1	na
25518	120	noff	73	0	1	na
25518	0	non	71	86	1	na
25758	240	noff	71	0	1	na
25758	0	non	66	79	1	na
25998	240	noff	66	0	1	na
25998	0	non	71	85	1	na
26238	240	noff	71	0	1	na
26238	0	non	73	91	1	na
26598	360	noff	73	0	1	na
26598	0	non	66	100	1	na
26838	240	noff	66	0	1	na
26838	0	non	66	92	1	na
26958	120	noff	66	0	1	na
26958	0	non	71	100	1	na
27198	240	noff	71	0	1	na
27198	0	non	73	106	1	na
27438	240	noff	73	0	1	na
27438	0	non	68	100	1	na
27678	240	noff	68	0	1	na
27678	0	non	66	94	1	na
27918	240	noff	66	0	1	na
27918	0	non	64	90	1	na
28158	240	noff	64	0	1	na
28158	0	non	71	100	1	na
28398	240	noff	71	0	1	na
28398	0	non	73	105	1	na
28638	240	noff	73	0	1	na
28638	0	non	69	97	1	na
28878	240	noff	69	0	1	na
28878	0	non	68	93	1	na
29118	240	noff	68	0	1	na
29118	0	non	66	90	1	na
29358	240	noff	66	0	1	na
29358	0	non	64	87	1	na
29598	240	noff	64	0	1	na
29598	0	non	66	94	1	na
29838	240	noff	66	0	1	na
29838	0	non	64	91	1	na
30078	240	noff	64	0	1	na
30078	0	non	61	88	1	na
30318	240	noff	61	0	1	na
30318	0	non	66	98	1	na
30558	240	noff	66	0	1	na
30558	0	non	66	96	1	na
30798	240	noff	66	0	1	na
30798	0	non	64	94	1	na
31038	240	noff	64	0	1	na
31038	0	non	61	84	1	na
31158	120	noff	61	0	1	na
31158	0	non	64	95	1	na
31398	240	noff	64	0	1	na
31398	0	non	61	92	1	na
31518	120	noff	61	0	1	na
31518	0	non	66	100	1	na
31758	240	noff	66	0	1	na
31758	0	non	64	96	1	na
31998	240	noff	64	0	1	na
31998	0	non	61	93	1	na
32238	240	noff	61	0	1	na
32238	0	non	61	94	1	na
32478	240	noff	61	0	1	na
32478	0	non	66	95	1	na
32958	480	noff	66	0	1	na
32958	0	non	68	100	1	na
33438	480	noff	68	0	1	na
33438	0	non	70	100	1	na
34878	1440	noff	70	0	1	na
34878	0	non	68	98	1	na
35118	240	noff	68	0	1	na
35118	0	non	66	94	1	na
35358	240	noff	66	0	1	na
35358	0	non	65	92	1	na
35718	360	noff	65	0	1	na
35718	0	non	66	100	1	na
36078	360	noff	66	0	1	na
36078	0	non	75	104	1	na
36318	240	noff	75	0	1	na
36318	0	non	70	105	1	na
36798	480	noff	70	0	1	na
36798	0	non	63	90	1	na
37038	240	noff	63	0	1	na
37038	0	non	65	95	1	na
37278	240	noff	65	0	1	na
37278	0	non	66	100	1	na
37518	240	noff	66	0	1	na
37518	0	non	68	100	1	na
37638	120	noff	68	0	1	na
37638	0	non	66	104	1	na
37878	240	noff	66	0	1	na
37878	0	non	66	101	1	na
37998	120	noff	66	0	1	na
37998	0	non	65	100	1	na
38238	240	noff	65	0	1	na
38238	0	non	61	95	1	na
38478	240	noff	61	0	1	na
38478	0	non	58	87	1	na
38718	240	noff	58	0	1	na
38718	0	non	61	84	1	na
38838	120	noff	61	0	1	na
38838	0	non	63	100	1	na
39438	600	noff	63	0	1	na
39438	0	non	65	95	1	na
39678	240	noff	65	0	1	na
39678	0	non	66	98	1	na
39918	240	noff	66	0	1	na
39918	0	non	73	106	1	na
40158	240	noff	73	0	1	na
40158	0	non	70	102	1	na
40638	480	noff	70	0	1	na
40638	0	non	66	89	1	na
40878	240	noff	66	0	1	na
40878	0	non	68	94	1	na
41118	240	noff	68	0	1	na
41118	0	non	70	99	1	na
42318	1200	noff	70	0	1	na
42318	0	non	70	95	1	na
42558	240	noff	70	0	1	na
42558	0	non	75	98	1	na
42798	240	noff	75	0	1	na
42798	0	non	77	104	1	na
43038	240	noff	77	0	1	na
43038	0	non	78	110	1	na
43398	360	noff	78	0	1	na
43398	0	non	77	107	1	na
43758	360	noff	77	0	1	na
43758	0	non	73	100	1	na
43998	240	noff	73	0	1	na
43998	0	non	75	106	1	na
44478	480	noff	75	0	1	na
44478	0	non	75	105	1	na
44718	240	noff	75	0	1	na
44718	0	non	77	109	1	na
44958	240	noff	77	0	1	na
44958	0	non	78	114	1	na
45198	240	noff	78	0	1	na
45198	0	non	80	111	1	na
45318	120	noff	80	0	1	na
45318	0	non	78	114	1	na
45558	240	noff	78	0	1	na
45558	0	non	77	111	1	na
45678	120	noff	77	0	1	na
45678	0	non	75	111	1	na
45918	240	noff	75	0	1	na
45918	0	non	70	104	1	na
46158	240	noff	70	0	1	na
46158	0	non	68	94	1	na
46398	240	noff	68	0	1	na
46398	0	non	73	98	1	na
46638	240	noff	73	0	1	na
46638	0	non	75	102	1	na
48078	1440	noff	75	0	1	na
64398	16320	non	70	81	1	na
64398	0	non	66	81	1	na
64518	120	noff	66	0	1	na
64578	60	noff	70	0	1	na
64638	60	non	75	96	1	na
64638	0	non	70	96	1	na
64758	120	noff	70	0	1	na
64818	60	noff	75	0	1	na
64878	60	non	70	90	1	na
64878	0	non	66	90	1	na
64998	120	noff	66	0	1	na
65058	60	noff	70	0	1	na
65358	300	non	70	86	1	na
65358	0	non	66	86	1	na
65478	120	noff	66	0	1	na
65538	60	noff	70	0	1	na
65598	60	non	75	95	1	na
65598	0	non	70	95	1	na
65718	120	noff	70	0	1	na
65778	60	noff	75	0	1	na
65838	60	non	70	85	1	na
65838	0	non	66	85	1	na
65958	120	noff	66	0	1	na
66018	60	noff	70	0	1	na
66318	300	non	70	83	1	na
66318	0	non	66	83	1	na
66438	120	noff	66	0	1	na
66498	60	noff	70	0	1	na
66558	60	non	75	91	1	na
66558	0	non	70	91	1	na
66678	120	noff	70	0	1	na
66738	60	noff	75	0	1	na
66798	60	non	78	100	1	na
66798	0	non	75	100	1	na
66918	120	noff	75	0	1	na
66978	60	noff	78	0	1	na
67038	60	non	77	95	1	na
67038	0	non	73	95	1	na
67158	120	noff	73	0	1	na
67218	60	noff	77	0	1	na
67278	60	non	68	89	1	na
67278	0	non	73	89	1	na
67398	120	noff	68	0	1	na
67458	60	noff	73	0	1	na
67518	60	non	61	83	1	na
67518	0	non	65	83	1	na
67758	240	noff	61	0	1	na
67758	0	noff	65	0	1	na
68238	480	non	70	85	1	na
68238	0	non	66	85	1	na
68358	120	noff	66	0	1	na
68418	60	noff	70	0	1	na
68478	60	non	75	100	1	na
68478	0	non	70	100	1	na
68598	120	noff	70	0	1	na
68658	60	noff	75	0	1	na
68718	60	non	70	89	1	na
68718	0	non	66	89	1	na
68838	120	noff	66	0	1	na
68898	60	noff	70	0	1	na
69198	300	non	70	82	1	na
69198	0	non	66	82	1	na
69318	120	noff	66	0	1	na
69378	60	noff	70	0	1	na
69438	60	non	75	98	1	na
69438	0	non	70	98	1	na
69558	120	noff	70	0	1	na
69618	60	noff	75	0	1	na
69678	60	non	70	87	1	na
69678	0	non	66	87	1	na
69798	120	noff	66	0	1	na
69858	60	noff	70	0	1	na
70158	300	non	70	85	1	na
70158	0	non	66	85	1	na
70278	120	noff	66	0	1	na
70338	60	noff	70	0	1	na
70398	60	non	75	91	1	na
70398	0	non	70	91	1	na
70518	120	noff	70	0	1	na
70578	60	noff	75	0	1	na
70638	60	non	78	94	1	na
70638	0	non	75	94	1	na
70758	120	noff	75	0	1	na
70818	60	noff	78	0	1	na
70878	60	non	77	92	1	na
70878	0	non	73	92	1	na
70998	120	noff	73	0	1	na
71058	60	noff	77	0	1	na
71118	60	non	78	97	1	na
71118	0	non	75	97	1	na
71238	120	noff	75	0	1	na
71298	60	noff	78	0	1	na
71358	60	non	80	100	1	na
71358	0	non	77	100	1	na
71598	240	noff	80	0	1	na
71598	0	noff	77	0	1	na
72078	480	non	73	90	1	na
72078	0	non	69	90	1	na
72198	120	noff	69	0	1	na
72258	60	noff	73	0	1	na
72318	60	non	78	100	1	na
72318	0	non	73	100	1	na
72438	120	noff	73	0	1	na
72498	60	noff	78	0	1	na
72558	60	non	73	87	1	na
72558	0	non	69	87	1	na
72678	120	noff	69	0	1	na
72738	60	noff	73	0	1	na
73038	300	non	73	87	1	na
73038	0	non	69	87	1	na
73158	120	noff	69	0	1	na
73218	60	noff	73	0	1	na
73278	60	non	78	100	1	na
73278	0	non	73	100	1	na
73398	120	noff	73	0	1	na
73458	60	noff	78	0	1	na
73518	60	non	73	88	1	na
73518	0	non	69	88	1	na
73638	120	noff	69	0	1	na
73698	60	noff	73	0	1	na
73998	300	non	73	87	1	na
73998	0	non	69	87	1	na
74118	120	noff	69	0	1	na
74178	60	noff	73	0	1	na
74238	60	non	78	92	1	na
74238	0	non	73	92	1	na
74358	120	noff	73	0	1	na
74418	60	noff	78	0	1	na
74478	60	non	81	95	1	na
74478	0	non	78	95	1	na
74598	120	noff	78	0	1	na
74658	60	noff	81	0	1	na
74718	60	non	80	92	1	na
74718	0	non	76	92	1	na
74838	120	noff	76	0	1	na
74898	60	noff	80	0	1	na
74958	60	non	71	90	1	na
74958	0	non	76	90	1	na
75078	120	noff	71	0	1	na
75138	60	noff	76	0	1	na
75198	60	non	64	82	1	na
75198	0	non	68	82	1	na
75438	240	noff	64	0	1	na
75438	0	noff	68	0	1	na
75438	0	non	71	97	1	na
75558	120	noff	71	0	1	na
75558	0	non	73	100	1	na
75678	120	noff	73	0	1	na
75918	240	non	73	87	1	na
75918	0	non	69	87	1	na
76038	120	noff	69	0	1	na
76098	60	noff	73	0	1	na
76158	60	non	78	100	1	na
76158	0	non	73	100	1	na
76278	120	noff	73	0	1	na
76338	60	noff	78	0	1	na
76398	60	non	73	88	1	na
76398	0	non	69	88	1	na
76518	120	noff	69	0	1	na
76578	60	noff	73	0	1	na
76878	300	non	73	87	1	na
76878	0	non	69	87	1	na
76998	120	noff	69	0	1	na
77058	60	noff	73	0	1	na
77118	60	non	78	100	1	na
77118	0	non	73	100	1	na
77238	120	noff	73	0	1	na
77298	60	noff	78	0	1	na
77358	60	non	73	84	1	na
77358	0	non	69	84	1	na
77478	120	noff	69	0	1	na
77538	60	noff	73	0	1	na
77838	300	non	73	84	1	na
77838	0	non	69	84	1	na
77958	120	noff	69	0	1	na
78018	60	noff	73	0	1	na
78078	60	non	78	89	1	na
78078	0	non	73	89	1	na
78198	120	noff	73	0	1	na
78258	60	noff	78	0	1	na
78318	60	non	81	95	1	na
78318	0	non	78	95	1	na
78438	120	noff	78	0	1	na
78498	60	noff	81	0	1	na
78558	60	non	80	88	1	na
78558	0	non	76	88	1	na
78678	120	noff	76	0	1	na
78738	60	noff	80	0	1	na
78798	60	non	81	91	1	na
78798	0	non	78	91	1	na
78918	120	noff	78	0	1	na
78978	60	noff	81	0	1	na
79038	60	non	83	94	1	na
79038	0	non	80	94	1	na
79278	240	noff	83	0	1	na
79278	0	noff	80	0	1	na
79278	0	non	73	100	1	na
79398	120	noff	73	0	1	na
79398	0	non	76	101	1	na
79518	120	noff	76	0	1	na
79518	0	non	86	90	1	na
79518	0	non	78	90	1	na
79518	0	non	83	90	1	na
82398	2880	noff	86	0	1	na
82398	0	noff	78	0	1	na
82398	0	noff	83	0	1	na
82398	0	non	76	88	1	na
82398	0	non	83	88	1	na
82398	0	non	80	88	1	na
83358	960	noff	76	0	1	na
83358	0	noff	83	0	1	na
83358	0	noff	80	0	1	na
83358	0	non	78	91	1	na
83358	0	non	85	91	1	na
83358	0	non	81	91	1	na
84318	960	noff	78	0	1	na
84318	0	noff	85	0	1	na
84318	0	noff	81	0	1	na
84318	0	non	83	87	1	na
84318	0	non	77	87	1	na
84318	0	non	80	87	1	na
85278	960	noff	83	0	1	na
85278	0	noff	77	0	1	na
85278	0	noff	80	0	1	na
85278	0	non	80	83	1	na
85278	0	non	73	83	1	na
85278	0	non	77	83	1	na
86238	960	noff	73	0	1	na
86238	0	non	73	84	1	na
87198	960	noff	80	0	1	na
87198	0	noff	77	0	1	na
87198	0	noff	73	0	1	na
87198	0	non	81	91	1	na
87198	0	non	74	91	1	na
87198	0	non	78	91	1	na
88158	960	noff	81	0	1	na
88158	0	noff	74	0	1	na
88158	0	noff	78	0	1	na
88158	0	non	76	95	1	na
88158	0	non	83	95	1	na
88158	0	non	80	95	1	na
89118	960	noff	76	0	1	na
89118	0	noff	83	0	1	na
89118	0	noff	80	0	1	na
89118	0	non	78	92	1	na
89118	0	non	73	92	1	na
89118	0	non	81	92	1	na
90078	960	noff	78	0	1	na
90078	0	noff	73	0	1	na
90078	0	noff	81	0	1	na
90078	0	non	88	95	1	na
90078	0	non	85	95	1	na
90078	0	non	81	95	1	na
91038	960	noff	88	0	1	na
91038	0	noff	85	0	1	na
91038	0	noff	81	0	1	na
91038	0	non	86	93	1	na
91038	0	non	81	93	1	na
91038	0	non	78	93	1	na
91998	960	noff	86	0	1	na
91998	0	noff	81	0	1	na
91998	0	noff	78	0	1	na
91998	0	non	83	90	1	na
91998	0	non	77	90	1	na
91998	0	non	80	90	1	na
92958	960	noff	83	0	1	na
92958	0	noff	77	0	1	na
92958	0	noff	80	0	1	na
92958	0	non	85	91	1	na
92958	0	non	78	91	1	na
92958	0	non	81	91	1	na
94878	1920	noff	85	0	1	na
94878	0	noff	78	0	1	na
94878	0	noff	81	0	1	na
94878	0	non	86	85	1	na
94878	0	non	78	85	1	na
95598	720	noff	86	0	1	na
95598	0	noff	78	0	1	na
95598	0	non	86	84	1	na
95598	0	non	78	84	1	na
96078	480	noff	86	0	1	na
96078	0	noff	78	0	1	na
96078	0	non	86	81	1	na
96078	0	non	78	81	1	na
96558	480	noff	86	0	1	na
96558	0	noff	78	0	1	na
96558	0	non	86	81	1	na
96558	0	non	78	81	1	na
97038	480	noff	86	0	1	na
97038	0	noff	78	0	1	na
97038	0	non	88	84	1	na
97038	0	non	80	84	1	na
97518	480	noff	88	0	1	na
97518	0	noff	80	0	1	na
97518	0	non	88	81	1	na
97518	0	non	80	81	1	na
97758	240	noff	88	0	1	na
97758	0	noff	80	0	1	na
97758	0	non	76	80	1	na
97758	0	non	85	80	1	na
98718	960	noff	76	0	1	na
98718	0	noff	85	0	1	na
98718	0	non	78	82	1	na
98718	0	non	85	82	1	na
99438	720	noff	78	0	1	na
99438	0	noff	85	0	1	na
99438	0	non	85	84	1	na
99438	0	non	78	84	1	na
99678	240	noff	85	0	1	na
99678	0	noff	78	0	1	na
99678	0	non	80	79	1	na
99678	0	non	77	79	1	na
100398	720	noff	80	0	1	na
100398	0	noff	77	0	1	na
100398	0	non	80	77	1	na
100398	0	non	77	77	1	na
100638	240	noff	80	0	1	na
100638	0	noff	77	0	1	na
100638	0	non	80	81	1	na
100638	0	non	77	81	1	na
101358	720	noff	80	0	1	na
101358	0	noff	77	0	1	na
101358	0	non	81	82	1	na
101358	0	non	78	82	1	na
101598	240	noff	81	0	1	na
101598	0	noff	78	0	1	na
101598	0	non	73	79	1	na
101598	0	non	78	79	1	na
102558	960	noff	73	0	1	na
102558	0	noff	78	0	1	na
102558	0	non	81	81	1	na
102558	0	non	78	81	1	na
103278	720	noff	81	0	1	na
103278	0	noff	78	0	1	na
103278	0	non	78	79	1	na
103278	0	non	81	79	1	na
103518	240	noff	78	0	1	na
103518	0	noff	81	0	1	na
103518	0	non	80	77	1	na
103518	0	non	76	77	1	na
104238	720	noff	80	0	1	na
104238	0	noff	76	0	1	na
104238	0	non	83	81	1	na
104238	0	non	80	81	1	na
104478	240	noff	83	0	1	na
104478	0	noff	80	0	1	na
104478	0	non	78	77	1	na
104478	0	non	81	77	1	na
104838	360	noff	78	0	1	na
104838	0	noff	81	0	1	na
104838	0	non	73	73	1	na
104838	0	non	78	73	1	na
105198	360	noff	73	0	1	na
105198	0	noff	78	0	1	na
105198	0	non	73	71	1	na
105198	0	non	78	71	1	na
105438	240	noff	73	0	1	na
105438	0	noff	78	0	1	na
105438	0	non	88	77	1	na
105438	0	non	81	77	1	na
106158	720	noff	88	0	1	na
106158	0	noff	81	0	1	na
106158	0	non	88	77	1	na
106158	0	non	81	77	1	na
106398	240	noff	88	0	1	na
106398	0	noff	81	0	1	na
106398	0	non	86	77	1	na
106398	0	non	78	77	1	na
107118	720	noff	86	0	1	na
107118	0	noff	78	0	1	na
107118	0	non	86	81	1	na
107118	0	non	78	81	1	na
107358	240	noff	86	0	1	na
107358	0	noff	78	0	1	na
107358	0	non	80	76	1	na
107358	0	non	73	76	1	na
107718	360	noff	80	0	1	na
107718	0	noff	73	0	1	na
107718	0	non	80	81	1	na
107718	0	non	77	81	1	na
108078	360	noff	80	0	1	na
108078	0	noff	77	0	1	na
108078	0	non	83	85	1	na
108078	0	non	80	85	1	na
108318	240	noff	83	0	1	na
108318	0	noff	80	0	1	na
108318	0	non	81	79	1	na
108318	0	non	78	79	1	na
108318	0	non	85	79	1	na
110178	1860	noff	81	0	1	na
110178	0	noff	78	0	1	na
110178	0	noff	85	0	1	na
110238	60	non	69	113	1	na
110478	240	noff	69	0	1	na
110478	0	non	66	107	1	na
110718	240	noff	66	0	1	na
110718	0	non	68	102	1	na
110958	240	noff	68	0	1	na
110958	0	non	68	94	1	na
111078	120	noff	68	0	1	na
111078	0	non	69	103	1	na
111378	300	noff	69	0	1	na
111438	60	non	69	89	1	na
111558	120	noff	69	0	1	na
111558	0	non	71	90	1	na
111798	240	noff	71	0	1	na
111798	0	non	66	95	1	na
111918	120	noff	66	0	1	na
111918	0	non	68	97	1	na
112038	120	noff	68	0	1	na
112038	0	non	69	100	1	na
112158	120	noff	69	0	1	na
112338	180	non	69	105	1	na
112338	0	non	73	105	1	na
112638	300	noff	69	0	1	na
112638	0	noff	73	0	1	na
112818	180	non	71	104	1	na
112818	0	non	68	104	1	na
113118	300	noff	71	0	1	na
113118	0	noff	68	0	1	na
113298	180	non	69	105	1	na
113298	0	non	66	105	1	na
113598	300	noff	69	0	1	na
113598	0	noff	66	0	1	na
113598	0	non	66	100	1	na
113838	240	noff	66	0	1	na
113838	0	non	69	103	1	na
114318	480	noff	69	0	1	na
114318	0	non	64	95	1	na
114918	600	noff	64	0	1	na
115038	120	non	64	90	1	na
115158	120	non	66	93	1	na
115278	120	non	68	98	1	na
115338	60	noff	64	0	1	na
115458	120	noff	66	0	1	na
115998	540	noff	68	0	1	na
116238	240	non	73	103	1	na
116238	0	non	69	103	1	na
116478	240	noff	73	0	1	na
116478	0	noff	69	0	1	na
116718	240	non	73	100	1	na
116718	0	non	69	100	1	na
116838	120	noff	73	0	1	na
116838	0	noff	69	0	1	na
116838	0	non	73	89	1	na
117198	360	noff	73	0	1	na
117198	0	non	73	100	1	na
117318	120	noff	73	0	1	na
117318	0	non	73	95	1	na
117438	120	noff	73	0	1	na
117438	0	non	73	93	1	na
117558	120	noff	73	0	1	na
117558	0	non	73	89	1	na
117678	120	noff	73	0	1	na
117678	0	non	71	86	1	na
117918	240	noff	71	0	1	na
117918	0	non	66	79	1	na
118158	240	noff	66	0	1	na
118158	0	non	71	85	1	na
118398	240	noff	71	0	1	na
118398	0	non	73	91	1	na
118758	360	noff	73	0	1	na
118758	0	non	66	100	1	na
118998	240	noff	66	0	1	na
118998	0	non	66	92	1	na
119118	120	noff	66	0	1	na
119118	0	non	71	100	1	na
119358	240	noff	71	0	1	na
119358	0	non	73	106	1	na
119598	240	noff	73	0	1	na
119598	0	non	68	100	1	na
119838	240	noff	68	0	1	na
119838	0	non	66	94	1	na
120078	240	noff	66	0	1	na
120078	0	non	64	90	1	na
120318	240	noff	64	0	1	na
120318	0	non	71	100	1	na
120558	240	noff	71	0	1	na
120558	0	non	73	105	1	na
120798	240	noff	73	0	1	na
120798	0	non	69	97	1	na
121038	240	noff	69	0	1	na
121038	0	non	68	93	1	na
121278	240	noff	68	0	1	na
121278	0	non	66	90	1	na
121518	240	noff	66	0	1	na
121518	0	non	64	87	1	na
121758	240	noff	64	0	1	na
121758	0	non	66	94	1	na
121998	240	noff	66	0	1	na
121998	0	non	64	91	1	na
122238	240	noff	64	0	1	na
122238	0	non	61	88	1	na
122478	240	noff	61	0	1	na
122478	0	non	66	98	1	na
122718	240	noff	66	0	1	na
122718	0	non	66	96	1	na
122958	240	noff	66	0	1	na
122958	0	non	64	94	1	na
123198	240	noff	64	0	1	na
123198	0	non	61	84	1	na
123318	120	noff	61	0	1	na
123318	0	non	64	95	1	na
123558	240	noff	64	0	1	na
123558	0	non	61	92	1	na
123678	120	noff	61	0	1	na
123678	0	non	66	100	1	na
123918	240	noff	66	0	1	na
123918	0	non	64	96	1	na
124158	240	noff	64	0	1	na
124158	0	non	61	93	1	na
124398	240	noff	61	0	1	na
124398	0	non	61	94	1	na
124638	240	noff	61	0	1	na
124638	0	non	61	95	1	na
124878	240	noff	61	0	1	na
124878	0	non	59	94	1	na
125118	240	noff	59	0	1	na
125118	0	non	56	88	1	na
125358	240	noff	56	0	1	na
125358	0	non	52	83	1	na
125598	240	noff	52	0	1	na
125598	0	non	69	113	1	na
125838	240	noff	69	0	1	na
125838	0	non	66	107	1	na
126078	240	noff	66	0	1	na
126078	0	non	68	102	1	na
126318	240	noff	68	0	1	na
126318	0	non	68	94	1	na
126438	120	noff	68	0	1	na
126438	0	non	69	103	1	na
126738	300	noff	69	0	1	na
126798	60	non	69	89	1	na
126918	120	noff	69	0	1	na
126918	0	non	71	90	1	na
127158	240	noff	71	0	1	na
127158	0	non	66	95	1	na
127278	120	noff	66	0	1	na
127278	0	non	68	97	1	na
127398	120	noff	68	0	1	na
127398	0	non	69	100	1	na
127518	120	noff	69	0	1	na
127698	180	non	69	105	1	na
127698	0	non	73	105	1	na
127998	300	noff	69	0	1	na
127998	0	noff	73	0	1	na
128178	180	non	71	104	1	na
128178	0	non	68	104	1	na
128478	300	noff	71	0	1	na
128478	0	noff	68	0	1	na
128658	180	non	69	105	1	na
128658	0	non	66	105	1	na
128958	300	noff	69	0	1	na
128958	0	noff	66	0	1	na
128958	0	non	66	100	1	na
129198	240	noff	66	0	1	na
129198	0	non	69	103	1	na
129678	480	noff	69	0	1	na
129678	0	non	64	95	1	na
130278	600	noff	64	0	1	na
130398	120	non	64	90	1	na
130518	120	non	66	93	1	na
130638	120	non	68	98	1	na
130698	60	noff	64	0	1	na
130818	120	noff	66	0	1	na
131358	540	noff	68	0	1	na
131598	240	non	73	103	1	na
131598	0	non	69	103	1	na
131838	240	noff	73	0	1	na
131838	0	noff	69	0	1	na
132078	240	non	73	100	1	na
132078	0	non	69	100	1	na
132198	120	noff	73	0	1	na
132198	0	noff	69	0	1	na
132198	0	non	73	89	1	na
132558	360	noff	73	0	1	na
132558	0	non	73	100	1	na
132678	120	noff	73	0	1	na
132678	0	non	73	95	1	na
132798	120	noff	73	0	1	na
132798	0	non	73	93	1	na
132918	120	noff	73	0	1	na
132918	0	non	73	89	1	na
133038	120	noff	73	0	1	na
133038	0	non	71	86	1	na
133278	240	noff	71	0	1	na
133278	0	non	66	79	1	na
133518	240	noff	66	0	1	na
133518	0	non	71	85	1	na
133758	240	noff	71	0	1	na
133758	0	non	73	91	1	na
134118	360	noff	73	0	1	na
134118	0	non	66	100	1	na
134358	240	noff	66	0	1	na
134358	0	non	66	92	1	na
134478	120	noff	66	0	1	na
134478	0	non	71	100	1	na
134718	240	noff	71	0	1	na
134718	0	non	73	106	1	na
134958	240	noff	73	0	1	na
134958	0	non	68	100	1	na
135198	240	noff	68	0	1	na
135198	0	non	66	94	1	na
135438	240	noff	66	0	1	na
135438	0	non	64	90	1	na
135678	240	noff	64	0	1	na
135678	0	non	71	100	1	na
135918	240	noff	71	0	1	na
135918	0	non	73	105	1	na
136158	240	noff	73	0	1	na
136158	0	non	69	97	1	na
136398	240	noff	69	0	1	na
136398	0	non	68	93	1	na
136638	240	noff	68	0	1	na
136638	0	non	66	90	1	na
136878	240	noff	66	0	1	na
136878	0	non	64	87	1	na
137118	240	noff	64	0	1	na
137118	0	non	66	94	1	na
137358	240	noff	66	0	1	na
137358	0	non	64	91	1	na
137598	240	noff	64	0	1	na
137598	0	non	61	88	1	na
137838	240	noff	61	0	1	na
137838	0	non	66	98	1	na
138078	240	noff	66	0	1	na
138078	0	non	66	96	1	na
138318	240	noff	66	0	1	na
138318	0	non	64	94	1	na
138558	240	noff	64	0	1	na
138558	0	non	61	84	1	na
138678	120	noff	61	0	1	na
138678	0	non	64	95	1	na
138918	240	noff	64	0	1	na
138918	0	non	61	92	1	na
139038	120	noff	61	0	1	na
139038	0	non	66	100	1	na
139278	240	noff	66	0	1	na
139278	0	non	64	96	1	na
139518	240	noff	64	0	1	na
139518	0	non	61	93	1	na
139758	240	noff	61	0	1	na
139758	0	non	61	94	1	na
139998	240	noff	61	0	1	na
139998	0	non	66	95	1	na
140478	480	noff	66	0	1	na
140478	0	non	68	100	1	na
140958	480	noff	68	0	1	na
140958	0	non	70	100	1	na
142398	1440	noff	70	0	1	na
142398	0	non	68	98	1	na
142638	240	noff	68	0	1	na
142638	0	non	66	94	1	na
142878	240	noff	66	0	1	na
142878	0	non	65	92	1	na
143238	360	noff	65	0	1	na
143238	0	non	66	100	1	na
143598	360	noff	66	0	1	na
143598	0	non	75	104	1	na
143838	240	noff	75	0	1	na
143838	0	non	70	105	1	na
144318	480	noff	70	0	1	na
144318	0	non	63	90	1	na
144558	240	noff	63	0	1	na
144558	0	non	65	95	1	na
144798	240	noff	65	0	1	na
144798	0	non	66	100	1	na
145038	240	noff	66	0	1	na
145038	0	non	68	100	1	na
145158	120	noff	68	0	1	na
145158	0	non	66	104	1	na
145398	240	noff	66	0	1	na
145398	0	non	66	101	1	na
145518	120	noff	66	0	1	na
145518	0	non	65	100	1	na
145758	240	noff	65	0	1	na
145758	0	non	61	95	1	na
145998	240	noff	61	0	1	na
145998	0	non	58	87	1	na
146238	240	noff	58	0	1	na
146238	0	non	61	84	1	na
146358	120	noff	61	0	1	na
146358	0	non	63	100	1	na
146958	600	noff	63	0	1	na
146958	0	non	65	95	1	na
147198	240	noff	65	0	1	na
147198	0	non	66	98	1	na
147438	240	noff	66	0	1	na
147438	0	non	73	106	1	na
147678	240	noff	73	0	1	na
147678	0	non	70	102	1	na
148158	480	noff	70	0	1	na
148158	0	non	66	89	1	na
148398	240	noff	66	0	1	na
148398	0	non	68	94	1	na
148638	240	noff	68	0	1	na
148638	0	non	70	99	1	na
149838	1200	noff	70	0	1	na
149838	0	non	70	95	1	na
150078	240	noff	70	0	1	na
150078	0	non	75	98	1	na
150318	240	noff	75	0	1	na
150318	0	non	77	104	1	na
150558	240	noff	77	0	1	na
150558	0	non	78	110	1	na
150918	360	noff	78	0	1	na
150918	0	non	77	107	1	na
151278	360	noff	77	0	1	na
151278	0	non	73	100	1	na
151518	240	noff	73	0	1	na
151518	0	non	75	106	1	na
151998	480	noff	75	0	1	na
151998	0	non	75	105	1	na
152238	240	noff	75	0	1	na
152238	0	non	77	109	1	na
152478	240	noff	77	0	1	na
152478	0	non	78	114	1	na
152718	240	noff	78	0	1	na
152718	0	non	80	111	1	na
152838	120	noff	80	0	1	na
152838	0	non	78	114	1	na
153078	240	noff	78	0	1	na
153078	0	non	77	111	1	na
153198	120	noff	77	0	1	na
153198	0	non	75	111	1	na
153438	240	noff	75	0	1	na
153438	0	non	70	104	1	na
153678	240	noff	70	0	1	na
153678	0	non	68	94	1	na
153918	240	noff	68	0	1	na
153918	0	non	73	98	1	na
154158	240	noff	73	0	1	na
154158	0	non	75	102	1	na
155598	1440	noff	75	0	1	na
171918	16320	non	70	81	1	na
171918	0	non	66	81	1	na
172038	120	noff	66	0	1	na
172098	60	noff	70	0	1	na
172158	60	non	75	96	1	na
172158	0	non	70	96	1	na
172278	120	noff	70	0	1	na
172338	60	noff	75	0	1	na
172398	60	non	70	90	1	na
172398	0	non	66	90	1	na
172518	120	noff	66	0	1	na
172578	60	noff	70	0	1	na
172878	300	non	70	86	1	na
172878	0	non	66	86	1	na
172998	120	noff	66	0	1	na
173058	60	noff	70	0	1	na
173118	60	non	75	95	1	na
173118	0	non	70	95	1	na
173238	120	noff	70	0	1	na
173298	60	noff	75	0	1	na
173358	60	non	70	85	1	na
173358	0	non	66	85	1	na
173478	120	noff	66	0	1	na
173538	60	noff	70	0	1	na
173838	300	non	70	83	1	na
173838	0	non	66	83	1	na
173958	120	noff	66	0	1	na
174018	60	noff	70	0	1	na
174078	60	non	75	91	1	na
174078	0	non	70	91	1	na
174198	120	noff	70	0	1	na
174258	60	noff	75	0	1	na
174318	60	non	78	100	1	na
174318	0	non	75	100	1	na
174438	120	noff	75	0	1	na
174498	60	noff	78	0	1	na
174558	60	non	77	95	1	na
174558	0	non	73	95	1	na
174678	120	noff	73	0	1	na
174738	60	noff	77	0	1	na
174798	60	non	68	89	1	na
174798	0	non	73	89	1	na
174918	120	noff	68	0	1	na
174978	60	noff	73	0	1	na
175038	60	non	61	83	1	na
175038	0	non	65	83	1	na
175278	240	noff	61	0	1	na
175278	0	noff	65	0	1	na
175758	480	non	70	85	1	na
175758	0	non	66	85	1	na
175878	120	noff	66	0	1	na
175938	60	noff	70	0	1	na
175998	60	non	75	100	1	na
175998	0	non	70	100	1	na
176118	120	noff	70	0	1	na
176178	60	noff	75	0	1	na
176238	60	non	70	89	1	na
176238	0	non	66	89	1	na
176358	120	noff	66	0	1	na
176418	60	noff	70	0	1	na
176718	300	non	70	82	1	na
176718	0	non	66	82	1	na
176838	120	noff	66	0	1	na
176898	60	noff	70	0	1	na
176958	60	non	75	98	1	na
176958	0	non	70	98	1	na
177078	120	noff	70	0	1	na
177138	60	noff	75	0	1	na
177198	60	non	70	87	1	na
177198	0	non	66	87	1	na
177318	120	noff	66	0	1	na
177378	60	noff	70	0	1	na
177678	300	non	70	85	1	na
177678	0	non	66	85	1	na
177798	120	noff	66	0	1	na
177858	60	noff	70	0	1	na
177918	60	non	75	91	1	na
177918	0	non	70	91	1	na
178038	120	noff	70	0	1	na
178098	60	noff	75	0	1	na
178158	60	non	78	94	1	na
178158	0	non	75	94	1	na
178278	120	noff	75	0	1	na
178338	60	noff	78	0	1	na
178398	60	non	77	92	1	na
178398	0	non	73	92	1	na
178518	120	noff	73	0	1	na
178578	60	noff	77	0	1	na
178638	60	non	78	97	1	na
178638	0	non	75	97	1	na
178758	120	noff	75	0	1	na
178818	60	noff	78	0	1	na
178878	60	non	80	100	1	na
178878	0	non	77	100	1	na
179118	240	noff	80	0	1	na
179118	0	noff	77	0	1	na
179598	480	non	73	90	1	na
179598	0	non	69	90	1	na
179718	120	noff	69	0	1	na
179778	60	noff	73	0	1	na
179838	60	non	78	100	1	na
179838	0	non	73	100	1	na
179958	120	noff	73	0	1	na
180018	60	noff	78	0	1	na
180078	60	non	73	87	1	na
180078	0	non	69	87	1	na
180198	120	noff	69	0	1	na
180258	60	noff	73	0	1	na
180558	300	non	73	87	1	na
180558	0	non	69	87	1	na
180678	120	noff	69	0	1	na
180738	60	noff	73	0	1	na
180798	60	non	78	100	1	na
180798	0	non	73	100	1	na
180918	120	noff	73	0	1	na
180978	60	noff	78	0	1	na
181038	60	non	73	88	1	na
181038	0	non	69	88	1	na
181158	120	noff	69	0	1	na
181218	60	noff	73	0	1	na
181518	300	non	73	87	1	na
181518	0	non	69	87	1	na
181638	120	noff	69	0	1	na
181698	60	noff	73	0	1	na
181758	60	non	78	92	1	na
181758	0	non	73	92	1	na
181878	120	noff	73	0	1	na
181938	60	noff	78	0	1	na
181998	60	non	81	95	1	na
181998	0	non	78	95	1	na
182118	120	noff	78	0	1	na
182178	60	noff	81	0	1	na
182238	60	non	80	92	1	na
182238	0	non	76	92	1	na
182358	120	noff	76	0	1	na
182418	60	noff	80	0	1	na
182478	60	non	71	90	1	na
182478	0	non	76	90	1	na
182598	120	noff	71	0	1	na
182658	60	noff	76	0	1	na
182718	60	non	64	82	1	na
182718	0	non	68	82	1	na
182958	240	noff	64	0	1	na
182958	0	noff	68	0	1	na
182958	0	non	71	97	1	na
183078	120	noff	71	0	1	na
183078	0	non	73	100	1	na
183198	120	noff	73	0	1	na
183438	240	non	73	87	1	na
183438	0	non	69	87	1	na
183558	120	noff	69	0	1	na
183618	60	noff	73	0	1	na
183678	60	non	78	100	1	na
183678	0	non	73	100	1	na
183798	120	noff	73	0	1	na
183858	60	noff	78	0	1	na
183918	60	non	73	88	1	na
183918	0	non	69	88	1	na
184038	120	noff	69	0	1	na
184098	60	noff	73	0	1	na
184398	300	non	73	87	1	na
184398	0	non	69	87	1	na
184518	120	noff	69	0	1	na
184578	60	noff	73	0	1	na
184638	60	non	78	100	1	na
184638	0	non	73	100	1	na
184758	120	noff	73	0	1	na
184818	60	noff	78	0	1	na
184878	60	non	73	84	1	na
184878	0	non	69	84	1	na
184998	120	noff	69	0	1	na
185058	60	noff	73	0	1	na
185358	300	non	73	84	1	na
185358	0	non	69	84	1	na
185478	120	noff	69	0	1	na
185538	60	noff	73	0	1	na
185598	60	non	78	89	1	na
185598	0	non	73	89	1	na
185718	120	noff	73	0	1	na
185778	60	noff	78	0	1	na
185838	60	non	81	95	1	na
185838	0	non	78	95	1	na
185958	120	noff	78	0	1	na
186018	60	noff	81	0	1	na
186078	60	non	80	88	1	na
186078	0	non	76	88	1	na
186198	120	noff	76	0	1	na
186258	60	noff	80	0	1	na
186318	60	non	81	91	1	na
186318	0	non	78	91	1	na
186438	120	noff	78	0	1	na
186498	60	noff	81	0	1	na
186558	60	non	83	94	1	na
186558	0	non	80	94	1	na
186798	240	noff	83	0	1	na
186798	0	noff	80	0	1	na
186798	0	non	73	100	1	na
186918	120	noff	73	0	1	na
186918	0	non	76	101	1	na
187038	120	noff	76	0	1	na
187038	0	non	86	90	1	na
187038	0	non	78	90	1	na
187038	0	non	83	90	1	na
189918	2880	noff	86	0	1	na
189918	0	noff	78	0	1	na
189918	0	noff	83	0	1	na
189918	0	non	76	88	1	na
189918	0	non	83	88	1	na
189918	0	non	80	88	1	na
190878	960	noff	76	0	1	na
190878	0	noff	83	0	1	na
190878	0	noff	80	0	1	na
190878	0	non	78	91	1	na
190878	0	non	85	91	1	na
190878	0	non	81	91	1	na
191838	960	noff	78	0	1	na
191838	0	noff	85	0	1	na
191838	0	noff	81	0	1	na
191838	0	non	83	87	1	na
191838	0	non	77	87	1	na
191838	0	non	80	87	1	na
192798	960	noff	83	0	1	na
192798	0	noff	77	0	1	na
192798	0	noff	80	0	1	na
192798	0	non	80	83	1	na
192798	0	non	73	83	1	na
192798	0	non	77	83	1	na
193758	960	noff	73	0	1	na
193758	0	non	73	84	1	na
194718	960	noff	80	0	1	na
194718	0	noff	77	0	1	na
194718	0	noff	73	0	1	na
194718	0	non	81	91	1	na
194718	0	non	74	91	1	na
194718	0	non	78	91	1	na
195678	960	noff	81	0	1	na
195678	0	noff	74	0	1	na
195678	0	noff	78	0	1	na
195678	0	non	76	95	1	na
195678	0	non	83	95	1	na
195678	0	non	80	95	1	na
196638	960	noff	76	0	1	na
196638	0	noff	83	0	1	na
196638	0	noff	80	0	1	na
196638	0	non	78	92	1	na
196638	0	non	73	92	1	na
196638	0	non	81	92	1	na
197598	960	noff	78	0	1	na
197598	0	noff	73	0	1	na
197598	0	noff	81	0	1	na
197598	0	non	88	95	1	na
197598	0	non	85	95	1	na
197598	0	non	81	95	1	na
198558	960	noff	88	0	1	na
198558	0	noff	85	0	1	na
198558	0	noff	81	0	1	na
198558	0	non	86	93	1	na
198558	0	non	81	93	1	na
198558	0	non	78	93	1	na
199518	960	noff	86	0	1	na
199518	0	noff	81	0	1	na
199518	0	noff	78	0	1	na
199518	0	non	83	90	1	na
199518	0	non	77	90	1	na
199518	0	non	80	90	1	na
200478	960	noff	83	0	1	na
200478	0	noff	77	0	1	na
200478	0	noff	80	0	1	na
200478	0	non	85	91	1	na
200478	0	non	78	91	1	na
200478	0	non	81	91	1	na
202398	1920	noff	85	0	1	na
202398	0	noff	78	0	1	na
202398	0	noff	81	0	1	na
202398	0	non	86	85	1	na
202398	0	non	78	85	1	na
203118	720	noff	86	0	1	na
203118	0	noff	78	0	1	na
203118	0	non	86	84	1	na
203118	0	non	78	84	1	na
203598	480	noff	86	0	1	na
203598	0	noff	78	0	1	na
203598	0	non	86	81	1	na
203598	0	non	78	81	1	na
204078	480	noff	86	0	1	na
204078	0	noff	78	0	1	na
204078	0	non	86	81	1	na
204078	0	non	78	81	1	na
204558	480	noff	86	0	1	na
204558	0	noff	78	0	1	na
204558	0	non	88	84	1	na
204558	0	non	80	84	1	na
205038	480	noff	88	0	1	na
205038	0	noff	80	0	1	na
205038	0	non	88	81	1	na
205038	0	non	80	81	1	na
205278	240	noff	88	0	1	na
205278	0	noff	80	0	1	na
205278	0	non	76	80	1	na
205278	0	non	85	80	1	na
206238	960	noff	76	0	1	na
206238	0	noff	85	0	1	na
206238	0	non	78	82	1	na
206238	0	non	85	82	1	na
206958	720	noff	78	0	1	na
206958	0	noff	85	0	1	na
206958	0	non	85	84	1	na
206958	0	non	78	84	1	na
207198	240	noff	85	0	1	na
207198	0	noff	78	0	1	na
207198	0	non	80	79	1	na
207198	0	non	77	79	1	na
207918	720	noff	80	0	1	na
207918	0	noff	77	0	1	na
207918	0	non	80	77	1	na
207918	0	non	77	77	1	na
208158	240	noff	80	0	1	na
208158	0	noff	77	0	1	na
208158	0	non	80	81	1	na
208158	0	non	77	81	1	na
208878	720	noff	80	0	1	na
208878	0	noff	77	0	1	na
208878	0	non	81	82	1	na
208878	0	non	78	82	1	na
209118	240	noff	81	0	1	na
209118	0	noff	78	0	1	na
209118	0	non	73	79	1	na
209118	0	non	78	79	1	na
210078	960	noff	73	0	1	na
210078	0	noff	78	0	1	na
210078	0	non	81	81	1	na
210078	0	non	78	81	1	na
210798	720	noff	81	0	1	na
210798	0	noff	78	0	1	na
210798	0	non	78	79	1	na
210798	0	non	81	79	1	na
211038	240	noff	78	0	1	na
211038	0	noff	81	0	1	na
211038	0	non	80	77	1	na
211038	0	non	76	77	1	na
211758	720	noff	80	0	1	na
211758	0	noff	76	0	1	na
211758	0	non	83	81	1	na
211758	0	non	80	81	1	na
211998	240	noff	83	0	1	na
211998	0	noff	80	0	1	na
211998	0	non	78	77	1	na
211998	0	non	81	77	1	na
212358	360	noff	78	0	1	na
212358	0	noff	81	0	1	na
212358	0	non	73	73	1	na
212358	0	non	78	73	1	na
212718	360	noff	73	0	1	na
212718	0	noff	78	0	1	na
212718	0	non	73	71	1	na
212718	0	non	78	71	1	na
212958	240	noff	73	0	1	na
212958	0	noff	78	0	1	na
212958	0	non	88	77	1	na
212958	0	non	81	77	1	na
213678	720	noff	88	0	1	na
213678	0	noff	81	0	1	na
213678	0	non	88	77	1	na
213678	0	non	81	77	1	na
213918	240	noff	88	0	1	na
213918	0	noff	81	0	1	na
213918	0	non	86	77	1	na
213918	0	non	78	77	1	na
214638	720	noff	86	0	1	na
214638	0	noff	78	0	1	na
214638	0	non	86	81	1	na
214638	0	non	78	81	1	na
214878	240	noff	86	0	1	na
214878	0	noff	78	0	1	na
214878	0	non	80	76	1	na
214878	0	non	73	76	1	na
215238	360	noff	80	0	1	na
215238	0	noff	73	0	1	na
215238	0	non	80	81	1	na
215238	0	non	77	81	1	na
215598	360	noff	80	0	1	na
215598	0	noff	77	0	1	na
215598	0	non	83	85	1	na
215598	0	non	80	85	1	na
215838	240	noff	83	0	1	na
215838	0	noff	80	0	1	na
215838	0	non	81	79	1	na
215838	0	non	78	79	1	na
215838	0	non	85	79	1	na
217698	1860	noff	81	0	1	na
217698	0	noff	78	0	1	na
217698	0	noff	85	0	1	na
cumTime	delTime	event	pitch	vel	chan	value
33438	33438	non	70	77	2	na
33558	120	noff	70	0	2	na
33558	0	non	75	91	2	na
33678	120	noff	75	0	2	na
33678	0	non	77	100	2	na
33798	120	noff	77	0	2	na
33798	0	non	70	82	2	na
33918	120	noff	70	0	2	na
33918	0	non	66	74	2	na
34038	120	noff	66	0	2	na
34038	0	non	68	79	2	na
34158	120	noff	68	0	2	na
34158	0	non	70	86	2	na
34278	120	noff	70	0	2	na
34278	0	non	75	91	2	na
34398	120	noff	75	0	2	na
34398	0	non	77	100	2	na
34518	120	noff	77	0	2	na
34518	0	non	73	89	2	na
34638	120	noff	73	0	2	na
34638	0	non	68	78	2	na
34758	120	noff	68	0	2	na
34758	0	non	70	83	2	na
34878	120	noff	70	0	2	na
34878	0	non	68	76	2	na
34998	120	noff	68	0	2	na
34998	0	non	75	94	2	na
35118	120	noff	75	0	2	na
35118	0	non	77	100	2	na
35238	120	noff	77	0	2	na
35238	0	non	73	94	2	na
35358	120	noff	73	0	2	na
35358	0	non	65	74	2	na
35478	120	noff	65	0	2	na
35478	0	non	68	81	2	na
35598	120	noff	68	0	2	na
35598	0	non	70	85	2	na
35718	120	noff	70	0	2	na
35718	0	non	75	90	2	na
35838	120	noff	75	0	2	na
35838	0	non	77	98	2	na
35958	120	noff	77	0	2	na
35958	0	non	73	98	2	na
36078	120	noff	73	0	2	na
36078	0	non	75	94	2	na
36198	120	noff	75	0	2	na
36198	0	non	70	89	2	na
36318	120	noff	70	0	2	na
36318	0	non	65	79	2	na
36438	120	noff	65	0	2	na
36438	0	non	66	79	2	na
36558	120	noff	66	0	2	na
36558	0	non	68	79	2	na
36678	120	noff	68	0	2	na
36678	0	non	66	79	2	na
36798	120	noff	66	0	2	na
36798	0	non	65	79	2	na
36918	120	noff	65	0	2	na
36918	0	non	66	79	2	na
37038	120	noff	66	0	2	na
37038	0	non	70	79	2	na
37158	120	noff	70	0	2	na
37158	0	non	66	79	2	na
37278	120	noff	66	0	2	na
37278	0	non	63	80	2	na
37398	120	noff	63	0	2	na
37398	0	non	65	80	2	na
37518	120	noff	65	0	2	na
37518	0	non	66	80	2	na
37638	120	noff	66	0	2	na
37638	0	non	68	80	2	na
37758	120	noff	68	0	2	na
37758	0	non	66	80	2	na
37878	120	noff	66	0	2	na
37878	0	non	65	80	2	na
37998	120	noff	65	0	2	na
37998	0	non	63	80	2	na
38118	120	noff	63	0	2	na
38118	0	non	65	80	2	na
38238	120	noff	65	0	2	na
38238	0	non	63	80	2	na
38358	120	noff	63	0	2	na
38358	0	non	70	80	2	na
38478	120	noff	70	0	2	na
38478	0	non	68	80	2	na
38598	120	noff	68	0	2	na
38598	0	non	66	80	2	na
38718	120	noff	66	0	2	na
38718	0	non	65	80	2	na
38838	120	noff	65	0	2	na
38838	0	non	66	81	2	na
38958	120	noff	66	0	2	na
38958	0	non	70	81	2	na
39078	120	noff	70	0	2	na
39078	0	non	65	81	2	na
39198	120	noff	65	0	2	na
39198	0	non	63	81	2	na
39318	120	noff	63	0	2	na
39318	0	non	65	81	2	na
39438	120	noff	65	0	2	na
39438	0	non	66	81	2	na
39558	120	noff	66	0	2	na
39558	0	non	70	81	2	na
39678	120	noff	70	0	2	na
39678	0	non	63	81	2	na
39798	120	noff	63	0	2	na
39798	0	non	66	81	2	na
39918	120	noff	66	0	2	na
39918	0	non	68	81	2	na
40038	120	noff	68	0	2	na
40038	0	non	63	81	2	na
40158	120	noff	63	0	2	na
40158	0	non	70	80	2	na
40278	120	noff	70	0	2	na
40278	0	non	75	94	2	na
40398	120	noff	75	0	2	na
40398	0	non	77	100	2	na
40518	120	noff	77	0	2	na
40518	0	non	70	78	2	na
40638	120	noff	70	0	2	na
40638	0	non	65	80	2	na
40758	120	noff	65	0	2	na
40758	0	non	70	85	2	na
40878	120	noff	70	0	2	na
40878	0	non	68	82	2	na
40998	120	noff	68	0	2	na
40998	0	non	73	91	2	na
41118	120	noff	73	0	2	na
41118	0	non	70	77	2	na
41238	120	noff	70	0	2	na
41238	0	non	75	95	2	na
41358	120	noff	75	0	2	na
41358	0	non	77	100	2	na
41478	120	noff	77	0	2	na
41478	0	non	70	81	2	na
41598	120	noff	70	0	2	na
41598	0	non	66	83	2	na
41718	120	noff	66	0	2	na
41718	0	non	68	87	2	na
41838	120	noff	68	0	2	na
41838	0	non	70	94	2	na
41958	120	noff	70	0	2	na
41958	0	non	75	98	2	na
42078	120	noff	75	0	2	na
42078	0	non	77	101	2	na
42198	120	noff	77	0	2	na
42198	0	non	73	91	2	na
42318	120	noff	73	0	2	na
42318	0	non	68	87	2	na
42438	120	noff	68	0	2	na
42438	0	non	70	93	2	na
42558	120	noff	70	0	2	na
42558	0	non	68	86	2	na
42678	120	noff	68	0	2	na
42678	0	non	75	95	2	na
42798	120	noff	75	0	2	na
42798	0	non	77	100	2	na
42918	120	noff	77	0	2	na
42918	0	non	73	89	2	na
43038	120	noff	73	0	2	na
43038	0	non	65	77	2	na
43158	120	noff	65	0	2	na
43158	0	non	68	81	2	na
43278	120	noff	68	0	2	na
43278	0	non	70	84	2	na
43398	120	noff	70	0	2	na
43398	0	non	75	90	2	na
43518	120	noff	75	0	2	na
43518	0	non	77	100	2	na
43638	120	noff	77	0	2	na
43638	0	non	73	86	2	na
43758	120	noff	73	0	2	na
43758	0	non	75	90	2	na
43878	120	noff	75	0	2	na
43878	0	non	70	83	2	na
43998	120	noff	70	0	2	na
43998	0	non	65	75	2	na
44118	120	noff	65	0	2	na
44118	0	non	66	75	2	na
44238	120	noff	66	0	2	na
44238	0	non	68	75	2	na
44358	120	noff	68	0	2	na
44358	0	non	66	75	2	na
44478	120	noff	66	0	2	na
44478	0	non	65	75	2	na
44598	120	noff	65	0	2	na
44598	0	non	66	75	2	na
44718	120	noff	66	0	2	na
44718	0	non	70	75	2	na
44838	120	noff	70	0	2	na
44838	0	non	66	75	2	na
44958	120	noff	66	0	2	na
44958	0	non	63	75	2	na
45078	120	noff	63	0	2	na
45078	0	non	65	75	2	na
45198	120	noff	65	0	2	na
45198	0	non	66	75	2	na
45318	120	noff	66	0	2	na
45318	0	non	68	75	2	na
45438	120	noff	68	0	2	na
45438	0	non	66	75	2	na
45558	120	noff	66	0	2	na
45558	0	non	65	75	2	na
45678	120	noff	65	0	2	na
45678	0	non	63	75	2	na
45798	120	noff	63	0	2	na
45798	0	non	65	75	2	na
45918	120	noff	65	0	2	na
45918	0	non	63	75	2	na
46038	120	noff	63	0	2	na
46038	0	non	70	75	2	na
46158	120	noff	70	0	2	na
46158	0	non	68	75	2	na
46278	120	noff	68	0	2	na
46278	0	non	66	75	2	na
46398	120	noff	66	0	2	na
46398	0	non	65	75	2	na
46518	120	noff	65	0	2	na
46518	0	non	66	75	2	na
46638	120	noff	66	0	2	na
46638	0	non	70	75	2	na
46758	120	noff	70	0	2	na
46758	0	non	65	75	2	na
46878	120	noff	65	0	2	na
46878	0	non	63	75	2	na
46998	120	noff	63	0	2	na
46998	0	non	65	75	2	na
47118	120	noff	65	0	2	na
47118	0	non	66	74	2	na
47238	120	noff	66	0	2	na
47238	0	non	70	74	2	na
47358	120	noff	70	0	2	na
47358	0	non	63	74	2	na
47478	120	noff	63	0	2	na
47478	0	non	66	74	2	na
47598	120	noff	66	0	2	na
47598	0	non	68	74	2	na
47718	120	noff	68	0	2	na
47718	0	non	63	74	2	na
47838	120	noff	63	0	2	na
47838	0	non	70	77	2	na
47958	120	noff	70	0	2	na
47958	0	non	75	94	2	na
48078	120	noff	75	0	2	na
48078	0	non	77	100	2	na
48198	120	noff	77	0	2	na
48198	0	non	70	77	2	na
48318	120	noff	70	0	2	na
48318	0	non	65	78	2	na
48438	120	noff	65	0	2	na
48438	0	non	70	93	2	na
48558	120	noff	70	0	2	na
48558	0	non	68	88	2	na
48678	120	noff	68	0	2	na
48678	0	non	73	100	2	na
48798	120	noff	73	0	2	na
48798	0	non	70	77	2	na
48918	120	noff	70	0	2	na
48918	0	non	75	91	2	na
49038	120	noff	75	0	2	na
49038	0	non	77	100	2	na
49158	120	noff	77	0	2	na
49158	0	non	70	82	2	na
49278	120	noff	70	0	2	na
49278	0	non	66	74	2	na
49398	120	noff	66	0	2	na
49398	0	non	68	79	2	na
49518	120	noff	68	0	2	na
49518	0	non	70	86	2	na
49638	120	noff	70	0	2	na
49638	0	non	75	91	2	na
49758	120	noff	75	0	2	na
49758	0	non	77	100	2	na
49878	120	noff	77	0	2	na
49878	0	non	73	89	2	na
49998	120	noff	73	0	2	na
49998	0	non	68	78	2	na
50118	120	noff	68	0	2	na
50118	0	non	70	83	2	na
50238	120	noff	70	0	2	na
50238	0	non	68	76	2	na
50358	120	noff	68	0	2	na
50358	0	non	75	94	2	na
50478	120	noff	75	0	2	na
50478	0	non	77	100	2	na
50598	120	noff	77	0	2	na
50598	0	non	73	94	2	na
50718	120	noff	73	0	2	na
50718	0	non	65	74	2	na
50838	120	noff	65	0	2	na
50838	0	non	68	81	2	na
50958	120	noff	68	0	2	na
50958	0	non	70	85	2	na
51078	120	noff	70	0	2	na
51078	0	non	75	90	2	na
51198	120	noff	75	0	2	na
51198	0	non	77	98	2	na
51318	120	noff	77	0	2	na
51318	0	non	73	98	2	na
51438	120	noff	73	0	2	na
51438	0	non	75	94	2	na
51558	120	noff	75	0	2	na
51558	0	non	70	89	2	na
51678	120	noff	70	0	2	na
51678	0	non	65	79	2	na
51798	120	noff	65	0	2	na
51798	0	non	66	79	2	na
51918	120	noff	66	0	2	na
51918	0	non	68	79	2	na
52038	120	noff	68	0	2	na
52038	0	non	66	79	2	na
52158	120	noff	66	0	2	na
52158	0	non	65	79	2	na
52278	120	noff	65	0	2	na
52278	0	non	66	79	2	na
52398	120	noff	66	0	2	na
52398	0	non	70	79	2	na
52518	120	noff	70	0	2	na
52518	0	non	66	79	2	na
52638	120	noff	66	0	2	na
52638	0	non	63	80	2	na
52758	120	noff	63	0	2	na
52758	0	non	65	80	2	na
52878	120	noff	65	0	2	na
52878	0	non	66	80	2	na
52998	120	noff	66	0	2	na
52998	0	non	68	80	2	na
53118	120	noff	68	0	2	na
53118	0	non	66	80	2	na
53238	120	noff	66	0	2	na
53238	0	non	65	80	2	na
53358	120	noff	65	0	2	na
53358	0	non	63	80	2	na
53478	120	noff	63	0	2	na
53478	0	non	65	80	2	na
53598	120	noff	65	0	2	na
53598	0	non	63	80	2	na
53718	120	noff	63	0	2	na
53718	0	non	70	80	2	na
53838	120	noff	70	0	2	na
53838	0	non	68	80	2	na
53958	120	noff	68	0	2	na
53958	0	non	66	80	2	na
54078	120	noff	66	0	2	na
54078	0	non	65	80	2	na
54198	120	noff	65	0	2	na
54198	0	non	66	81	2	na
54318	120	noff	66	0	2	na
54318	0	non	70	81	2	na
54438	120	noff	70	0	2	na
54438	0	non	65	81	2	na
54558	120	noff	65	0	2	na
54558	0	non	63	81	2	na
54678	120	noff	63	0	2	na
54678	0	non	65	81	2	na
54798	120	noff	65	0	2	na
54798	0	non	66	81	2	na
54918	120	noff	66	0	2	na
54918	0	non	70	81	2	na
55038	120	noff	70	0	2	na
55038	0	non	63	81	2	na
55158	120	noff	63	0	2	na
55158	0	non	66	81	2	na
55278	120	noff	66	0	2	na
55278	0	non	68	81	2	na
55398	120	noff	68	0	2	na
55398	0	non	63	81	2	na
55518	120	noff	63	0	2	na
55518	0	non	70	80	2	na
55638	120	noff	70	0	2	na
55638	0	non	75	94	2	na
55758	120	noff	75	0	2	na
55758	0	non	77	100	2	na
55878	120	noff	77	0	2	na
55878	0	non	70	78	2	na
55998	120	noff	70	0	2	na
55998	0	non	65	80	2	na
56118	120	noff	65	0	2	na
56118	0	non	70	85	2	na
56238	120	noff	70	0	2	na
56238	0	non	68	82	2	na
56358	120	noff	68	0	2	na
56358	0	non	73	91	2	na
56478	120	noff	73	0	2	na
56478	0	non	70	77	2	na
56598	120	noff	70	0	2	na
56598	0	non	75	95	2	na
56718	120	noff	75	0	2	na
56718	0	non	77	100	2	na
56838	120	noff	77	0	2	na
56838	0	non	70	81	2	na
56958	120	noff	70	0	2	na
56958	0	non	66	83	2	na
57078	120	noff	66	0	2	na
57078	0	non	68	87	2	na
57198	120	noff	68	0	2	na
57198	0	non	70	94	2	na
57318	120	noff	70	0	2	na
57318	0	non	75	98	2	na
57438	120	noff	75	0	2	na
57438	0	non	77	101	2	na
57558	120	noff	77	0	2	na
57558	0	non	73	91	2	na
57678	120	noff	73	0	2	na
57678	0	non	68	87	2	na
57798	120	noff	68	0	2	na
57798	0	non	70	93	2	na
57918	120	noff	70	0	2	na
57918	0	non	68	86	2	na
58038	120	noff	68	0	2	na
58038	0	non	75	95	2	na
58158	120	noff	75	0	2	na
58158	0	non	77	100	2	na
58278	120	noff	77	0	2	na
58278	0	non	73	89	2	na
58398	120	noff	73	0	2	na
58398	0	non	65	77	2	na
58518	120	noff	65	0	2	na
58518	0	non	68	81	2	na
58638	120	noff	68	0	2	na
58638	0	non	70	84	2	na
58758	120	noff	70	0	2	na
58758	0	non	75	90	2	na
58878	120	noff	75	0	2	na
58878	0	non	77	100	2	na
58998	120	noff	77	0	2	na
58998	0	non	73	86	2	na
59118	120	noff	73	0	2	na
59118	0	non	75	90	2	na
59238	120	noff	75	0	2	na
59238	0	non	70	83	2	na
59358	120	noff	70	0	2	na
59358	0	non	65	75	2	na
59478	120	noff	65	0	2	na
59478	0	non	66	75	2	na
59598	120	noff	66	0	2	na
59598	0	non	68	75	2	na
59718	120	noff	68	0	2	na
59718	0	non	66	75	2	na
59838	120	noff	66	0	2	na
59838	0	non	65	75	2	na
59958	120	noff	65	0	2	na
59958	0	non	66	75	2	na
60078	120	noff	66	0	2	na
60078	0	non	70	75	2	na
60198	120	noff	70	0	2	na
60198	0	non	66	75	2	na
60318	120	noff	66	0	2	na
60318	0	non	63	75	2	na
60438	120	noff	63	0	2	na
60438	0	non	65	75	2	na
60558	120	noff	65	0	2	na
60558	0	non	66	75	2	na
60678	120	noff	66	0	2	na
60678	0	non	68	75	2	na
60798	120	noff	68	0	2	na
60798	0	non	66	75	2	na
60918	120	noff	66	0	2	na
60918	0	non	65	75	2	na
61038	120	noff	65	0	2	na
61038	0	non	63	75	2	na
61158	120	noff	63	0	2	na
61158	0	non	65	75	2	na
61278	120	noff	65	0	2	na
61278	0	non	63	75	2	na
61398	120	noff	63	0	2	na
61398	0	non	70	75	2	na
61518	120	noff	70	0	2	na
61518	0	non	68	75	2	na
61638	120	noff	68	0	2	na
61638	0	non	66	75	2	na
61758	120	noff	66	0	2	na
61758	0	non	65	75	2	na
61878	120	noff	65	0	2	na
61878	0	non	66	75	2	na
61998	120	noff	66	0	2	na
61998	0	non	70	75	2	na
62118	120	noff	70	0	2	na
62118	0	non	65	75	2	na
62238	120	noff	65	0	2	na
62238	0	non	63	75	2	na
62358	120	noff	63	0	2	na
62358	0	non	65	75	2	na
62478	120	noff	65	0	2	na
62478	0	non	66	74	2	na
62598	120	noff	66	0	2	na
62598	0	non	70	74	2	na
62718	120	noff	70	0	2	na
62718	0	non	63	74	2	na
62838	120	noff	63	0	2	na
62838	0	non	66	74	2	na
62958	120	noff	66	0	2	na
62958	0	non	68	74	2	na
63078	120	noff	68	0	2	na
63078	0	non	63	74	2	na
63198	120	noff	63	0	2	na
63198	0	non	70	77	2	na
63318	120	noff	70	0	2	na
63318	0	non	75	94	2	na
63438	120	noff	75	0	2	na
63438	0	non	77	100	2	na
63558	120	noff	77	0	2	na
63558	0	non	70	77	2	na
63678	120	noff	70	0	2	na
63678	0	non	65	78	2	na
63798	120	noff	65	0	2	na
63798	0	non	70	93	2	na
63918	120	noff	70	0	2	na
63918	0	non	68	88	2	na
64038	120	noff	68	0	2	na
64038	0	non	73	100	2	na
64158	120	noff	73	0	2	na
140958	76800	non	70	77	2	na
141078	120	noff	70	0	2	na
141078	0	non	75	91	2	na
141198	120	noff	75	0	2	na
141198	0	non	77	100	2	na
141318	120	noff	77	0	2	na
141318	0	non	70	82	2	na
141438	120	noff	70	0	2	na
141438	0	non	66	74	2	na
141558	120	noff	66	0	2	na
141558	0	non	68	79	2	na
141678	120	noff	68	0	2	na
141678	0	non	70	86	2	na
141798	120	noff	70	0	2	na
141798	0	non	75	91	2	na
141918	120	noff	75	0	2	na
141918	0	non	77	100	2	na
142038	120	noff	77	0	2	na
142038	0	non	73	89	2	na
142158	120	noff	73	0	2	na
142158	0	non	68	78	2	na
142278	120	noff	68	0	2	na
142278	0	non	70	83	2	na
142398	120	noff	70	0	2	na
142398	0	non	68	76	2	na
142518	120	noff	68	0	2	na
142518	0	non	75	94	2	na
142638	120	noff	75	0	2	na
142638	0	non	77	100	2	na
142758	120	noff	77	0	2	na
142758	0	non	73	94	2	na
142878	120	noff	73	0	2	na
142878	0	non	65	74	2	na
142998	120	noff	65	0	2	na
142998	0	non	68	81	2	na
143118	120	noff	68	0	2	na
143118	0	non	70	85	2	na
143238	120	noff	70	0	2	na
143238	0	non	75	90	2	na
143358	120	noff	75	0	2	na
143358	0	non	77	98	2	na
143478	120	noff	77	0	2	na
143478	0	non	73	98	2	na
143598	120	noff	73	0	2	na
143598	0	non	75	94	2	na
143718	120	noff	75	0	2	na
143718	0	non	70	89	2	na
143838	120	noff	70	0	2	na
143838	0	non	65	79	2	na
143958	120	noff	65	0	2	na
143958	0	non	66	79	2	na
144078	120	noff	66	0	2	na
144078	0	non	68	79	2	na
144198	120	noff	68	0	2	na
144198	0	non	66	79	2	na
144318	120	noff	66	0	2	na
144318	0	non	65	79	2	na
144438	120	noff	65	0	2	na
144438	0	non	66	79	2	na
144558	120	noff	66	0	2	na
144558	0	non	70	79	2	na
144678	120	noff	70	0	2	na
144678	0	non	66	79	2	na
144798	120	noff	66	0	2	na
144798	0	non	63	80	2	na
144918	120	noff	63	0	2	na
144918	0	non	65	80	2	na
145038	120	noff	65	0	2	na
145038	0	non	66	80	2	na
145158	120	noff	66	0	2	na
145158	0	non	68	80	2	na
145278	120	noff	68	0	2	na
145278	0	non	66	80	2	na
145398	120	noff	66	0	2	na
145398	0	non	65	80	2	na
145518	120	noff	65	0	2	na
145518	0	non	63	80	2	na
145638	120	noff	63	0	2	na
145638	0	non	65	80	2	na
145758	120	noff	65	0	2	na
145758	0	non	63	80	2	na
145878	120	noff	63	0	2	na
145878	0	non	70	80	2	na
145998	120	noff	70	0	2	na
145998	0	non	68	80	2	na
146118	120	noff	68	0	2	na
146118	0	non	66	80	2	na
146238	120	noff	66	0	2	na
146238	0	non	65	80	2	na
146358	120	noff	65	0	2	na
146358	0	non	66	81	2	na
146478	120	noff	66	0	2	na
146478	0	non	70	81	2	na
146598	120	noff	70	0	2	na
146598	0	non	65	81	2	na
146718	120	noff	65	0	2	na
146718	0	non	63	81	2	na
146838	120	noff	63	0	2	na
146838	0	non	65	81	2	na
146958	120	noff	65	0	2	na
146958	0	non	66	81	2	na
147078	120	noff	66	0	2	na
147078	0	non	70	81	2	na
147198	120	noff	70	0	2	na
147198	0	non	63	81	2	na
147318	120	noff	63	0	2	na
147318	0	non	66	81	2	na
147438	120	noff	66	0	2	na
147438	0	non	68	81	2	na
147558	120	noff	68	0	2	na
147558	0	non	63	81	2	na
147678	120	noff	63	0	2	na
147678	0	non	70	80	2	na
147798	120	noff	70	0	2	na
147798	0	non	75	94	2	na
147918	120	noff	75	0	2	na
147918	0	non	77	100	2	na
148038	120	noff	77	0	2	na
148038	0	non	70	78	2	na
148158	120	noff	70	0	2	na
148158	0	non	65	80	2	na
148278	120	noff	65	0	2	na
148278	0	non	70	85	2	na
148398	120	noff	70	0	2	na
148398	0	non	68	82	2	na
148518	120	noff	68	0	2	na
148518	0	non	73	91	2	na
148638	120	noff	73	0	2	na
148638	0	non	70	77	2	na
148758	120	noff	70	0	2	na
148758	0	non	75	95	2	na
148878	120	noff	75	0	2	na
148878	0	non	77	100	2	na
148998	120	noff	77	0	2	na
148998	0	non	70	81	2	na
149118	120	noff	70	0	2	na
149118	0	non	66	83	2	na
149238	120	noff	66	0	2	na
149238	0	non	68	87	2	na
149358	120	noff	68	0	2	na
149358	0	non	70	94	2	na
149478	120	noff	70	0	2	na
149478	0	non	75	98	2	na
149598	120	noff	75	0	2	na
149598	0	non	77	101	2	na
149718	120	noff	77	0	2	na
149718	0	non	73	91	2	na
149838	120	noff	73	0	2	na
149838	0	non	68	87	2	na
149958	120	noff	68	0	2	na
149958	0	non	70	93	2	na
150078	120	noff	70	0	2	na
150078	0	non	68	86	2	na
150198	120	noff	68	0	2	na
150198	0	non	75	95	2	na
150318	120	noff	75	0	2	na
150318	0	non	77	100	2	na
150438	120	noff	77	0	2	na
150438	0	non	73	89	2	na
150558	120	noff	73	0	2	na
150558	0	non	65	77	2	na
150678	120	noff	65	0	2	na
150678	0	non	68	81	2	na
150798	120	noff	68	0	2	na
150798	0	non	70	84	2	na
150918	120	noff	70	0	2	na
150918	0	non	75	90	2	na
151038	120	noff	75	0	2	na
151038	0	non	77	100	2	na
151158	120	noff	77	0	2	na
151158	0	non	73	86	2	na
151278	120	noff	73	0	2	na
151278	0	non	75	90	2	na
151398	120	noff	75	0	2	na
151398	0	non	70	83	2	na
151518	120	noff	70	0	2	na
151518	0	non	65	75	2	na
151638	120	noff	65	0	2	na
151638	0	non	66	75	2	na
151758	120	noff	66	0	2	na
151758	0	non	68	75	2	na
151878	120	noff	68	0	2	na
151878	0	non	66	75	2	na
151998	120	noff	66	0	2	na
151998	0	non	65	75	2	na
152118	120	noff	65	0	2	na
152118	0	non	66	75	2	na
152238	120	noff	66	0	2	na
152238	0	non	70	75	2	na
152358	120	noff	70	0	2	na
152358	0	non	66	75	2	na
152478	120	noff	66	0	2	na
152478	0	non	63	75	2	na
152598	120	noff	63	0	2	na
152598	0	non	65	75	2	na
152718	120	noff	65	0	2	na
152718	0	non	66	75	2	na
152838	120	noff	66	0	2	na
152838	0	non	68	75	2	na
152958	120	noff	68	0	2	na
152958	0	non	66	75	2	na
153078	120	noff	66	0	2	na
153078	0	non	65	75	2	na
153198	120	noff	65	0	2	na
153198	0	non	63	75	2	na
153318	120	noff	63	0	2	na
153318	0	non	65	75	2	na
153438	120	noff	65	0	2	na
153438	0	non	63	75	2	na
153558	120	noff	63	0	2	na
153558	0	non	70	75	2	na
153678	120	noff	70	0	2	na
153678	0	non	68	75	2	na
153798	120	noff	68	0	2	na
153798	0	non	66	75	2	na
153918	120	noff	66	0	2	na
153918	0	non	65	75	2	na
154038	120	noff	65	0	2	na
154038	0	non	66	75	2	na
154158	120	noff	66	0	2	na
154158	0	non	70	75	2	na
154278	120	noff	70	0	2	na
154278	0	non	65	75	2	na
154398	120	noff	65	0	2	na
154398	0	non	63	75	2	na
154518	120	noff	63	0	2	na
154518	0	non	65	75	2	na
154638	120	noff	65	0	2	na
154638	0	non	66	74	2	na
154758	120	noff	66	0	2	na
154758	0	non	70	74	2	na
154878	120	noff	70	0	2	na
154878	0	non	63	74	2	na
154998	120	noff	63	0	2	na
154998	0	non	66	74	2	na
155118	120	noff	66	0	2	na
155118	0	non	68	74	2	na
155238	120	noff	68	0	2	na
155238	0	non	63	74	2	na
155358	120	noff	63	0	2	na
155358	0	non	70	77	2	na
155478	120	noff	70	0	2	na
155478	0	non	75	94	2	na
155598	120	noff	75	0	2	na
155598	0	non	77	100	2	na
155718	120	noff	77	0	2	na
155718	0	non	70	77	2	na
155838	120	noff	70	0	2	na
155838	0	non	65	78	2	na
155958	120	noff	65	0	2	na
155958	0	non	70	93	2	na
156078	120	noff	70	0	2	na
156078	0	non	68	88	2	na
156198	120	noff	68	0	2	na
156198	0	non	73	100	2	na
156318	120	noff	73	0	2	na
156318	0	non	70	77	2	na
156438	120	noff	70	0	2	na
156438	0	non	75	91	2	na
156558	120	noff	75	0	2	na
156558	0	non	77	100	2	na
156678	120	noff	77	0	2	na
156678	0	non	70	82	2	na
156798	120	noff	70	0	2	na
156798	0	non	66	74	2	na
156918	120	noff	66	0	2	na
156918	0	non	68	79	2	na
157038	120	noff	68	0	2	na
157038	0	non	70	86	2	na
157158	120	noff	70	0	2	na
157158	0	non	75	91	2	na
157278	120	noff	75	0	2	na
157278	0	non	77	100	2	na
157398	120	noff	77	0	2	na
157398	0	non	73	89	2	na
157518	120	noff	73	0	2	na
157518	0	non	68	78	2	na
157638	120	noff	68	0	2	na
157638	0	non	70	83	2	na
157758	120	noff	70	0	2	na
157758	0	non	68	76	2	na
157878	120	noff	68	0	2	na
157878	0	non	75	94	2	na
157998	120	noff	75	0	2	na
157998	0	non	77	100	2	na
158118	120	noff	77	0	2	na
158118	0	non	73	94	2	na
158238	120	noff	73	0	2	na
158238	0	non	65	74	2	na
158358	120	noff	65	0	2	na
158358	0	non	68	81	2	na
158478	120	noff	68	0	2	na
158478	0	non	70	85	2	na
158598	120	noff	70	0	2	na
158598	0	non	75	90	2	na
158718	120	noff	75	0	2	na
158718	0	non	77	98	2	na
158838	120	noff	77	0	2	na
158838	0	non	73	98	2	na
158958	120	noff	73	0	2	na
158958	0	non	75	94	2	na
159078	120	noff	75	0	2	na
159078	0	non	70	89	2	na
159198	120	noff	70	0	2	na
159198	0	non	65	79	2	na
159318	120	noff	65	0	2	na
159318	0	non	66	79	2	na
159438	120	noff	66	0	2	na
159438	0	non	68	79	2	na
159558	120	noff	68	0	2	na
159558	0	non	66	79	2	na
159678	120	noff	66	0	2	na
159678	0	non	65	79	2	na
159798	120	noff	65	0	2	na
159798	0	non	66	79	2	na
159918	120	noff	66	0	2	na
159918	0	non	70	79	2	na
160038	120	noff	70	0	2	na
160038	0	non	66	79	2	na
160158	120	noff	66	0	2	na
160158	0	non	63	80	2	na
160278	120	noff	63	0	2	na
160278	0	non	65	80	2	na
160398	120	noff	65	0	2	na
160398	0	non	66	80	2	na
160518	120	noff	66	0	2	na
160518	0	non	68	80	2	na
160638	120	noff	68	0	2	na
160638	0	non	66	80	2	na
160758	120	noff	66	0	2	na
160758	0	non	65	80	2	na
160878	120	noff	65	0	2	na
160878	0	non	63	80	2	na
160998	120	noff	63	0	2	na
160998	0	non	65	80	2	na
161118	120	noff	65	0	2	na
161118	0	non	63	80	2	na
161238	120	noff	63	0	2	na
161238	0	non	70	80	2	na
161358	120	noff	70	0	2	na
161358	0	non	68	80	2	na
161478	120	noff	68	0	2	na
161478	0	non	66	80	2	na
161598	120	noff	66	0	2	na
161598	0	non	65	80	2	na
161718	120	noff	65	0	2	na
161718	0	non	66	81	2	na
161838	120	noff	66	0	2	na
161838	0	non	70	81	2	na
161958	120	noff	70	0	2	na
161958	0	non	65	81	2	na
162078	120	noff	65	0	2	na
162078	0	non	63	81	2	na
162198	120	noff	63	0	2	na
162198	0	non	65	81	2	na
162318	120	noff	65	0	2	na
162318	0	non	66	81	2	na
162438	120	noff	66	0	2	na
162438	0	non	70	81	2	na
162558	120	noff	70	0	2	na
162558	0	non	63	81	2	na
162678	120	noff	63	0	2	na
162678	0	non	66	81	2	na
162798	120	noff	66	0	2	na
162798	0	non	68	81	2	na
162918	120	noff	68	0	2	na
162918	0	non	63	81	2	na
163038	120	noff	63	0	2	na
163038	0	non	70	80	2	na
163158	120	noff	70	0	2	na
163158	0	non	75	94	2	na
163278	120	noff	75	0	2	na
163278	0	non	77	100	2	na
163398	120	noff	77	0	2	na
163398	0	non	70	78	2	na
163518	120	noff	70	0	2	na
163518	0	non	65	80	2	na
163638	120	noff	65	0	2	na
163638	0	non	70	85	2	na
163758	120	noff	70	0	2	na
163758	0	non	68	82	2	na
163878	120	noff	68	0	2	na
163878	0	non	73	91	2	na
163998	120	noff	73	0	2	na
163998	0	non	70	77	2	na
164118	120	noff	70	0	2	na
164118	0	non	75	95	2	na
164238	120	noff	75	0	2	na
164238	0	non	77	100	2	na
164358	120	noff	77	0	2	na
164358	0	non	70	81	2	na
164478	120	noff	70	0	2	na
164478	0	non	66	83	2	na
164598	120	noff	66	0	2	na
164598	0	non	68	87	2	na
164718	120	noff	68	0	2	na
164718	0	non	70	94	2	na
164838	120	noff	70	0	2	na
164838	0	non	75	98	2	na
164958	120	noff	75	0	2	na
164958	0	non	77	101	2	na
165078	120	noff	77	0	2	na
165078	0	non	73	91	2	na
165198	120	noff	73	0	2	na
165198	0	non	68	87	2	na
165318	120	noff	68	0	2	na
165318	0	non	70	93	2	na
165438	120	noff	70	0	2	na
165438	0	non	68	86	2	na
165558	120	noff	68	0	2	na
165558	0	non	75	95	2	na
165678	120	noff	75	0	2	na
165678	0	non	77	100	2	na
165798	120	noff	77	0	2	na
165798	0	non	73	89	2	na
165918	120	noff	73	0	2	na
165918	0	non	65	77	2	na
166038	120	noff	65	0	2	na
166038	0	non	68	81	2	na
166158	120	noff	68	0	2	na
166158	0	non	70	84	2	na
166278	120	noff	70	0	2	na
166278	0	non	75	90	2	na
166398	120	noff	75	0	2	na
166398	0	non	77	100	2	na
166518	120	noff	77	0	2	na
166518	0	non	73	86	2	na
166638	120	noff	73	0	2	na
166638	0	non	75	90	2	na
166758	120	noff	75	0	2	na
166758	0	non	70	83	2	na
166878	120	noff	70	0	2	na
166878	0	non	65	75	2	na
166998	120	noff	65	0	2	na
166998	0	non	66	75	2	na
167118	120	noff	66	0	2	na
167118	0	non	68	75	2	na
167238	120	noff	68	0	2	na
167238	0	non	66	75	2	na
167358	120	noff	66	0	2	na
167358	0	non	65	75	2	na
167478	120	noff	65	0	2	na
167478	0	non	66	75	2	na
167598	120	noff	66	0	2	na
167598	0	non	70	75	2	na
167718	120	noff	70	0	2	na
167718	0	non	66	75	2	na
167838	120	noff	66	0	2	na
167838	0	non	63	75	2	na
167958	120	noff	63	0	2	na
167958	0	non	65	75	2	na
168078	120	noff	65	0	2	na
168078	0	non	66	75	2	na
168198	120	noff	66	0	2	na
168198	0	non	68	75	2	na
168318	120	noff	68	0	2	na
168318	0	non	66	75	2	na
168438	120	noff	66	0	2	na
168438	0	non	65	75	2	na
168558	120	noff	65	0	2	na
168558	0	non	63	75	2	na
168678	120	noff	63	0	2	na
168678	0	non	65	75	2	na
168798	120	noff	65	0	2	na
168798	0	non	63	75	2	na
168918	120	noff	63	0	2	na
168918	0	non	70	75	2	na
169038	120	noff	70	0	2	na
169038	0	non	68	75	2	na
169158	120	noff	68	0	2	na
169158	0	non	66	75	2	na
169278	120	noff	66	0	2	na
169278	0	non	65	75	2	na
169398	120	noff	65	0	2	na
169398	0	non	66	75	2	na
169518	120	noff	66	0	2	na
169518	0	non	70	75	2	na
169638	120	noff	70	0	2	na
169638	0	non	65	75	2	na
169758	120	noff	65	0	2	na
169758	0	non	63	75	2	na
169878	120	noff	63	0	2	na
169878	0	non	65	75	2	na
169998	120	noff	65	0	2	na
169998	0	non	66	74	2	na
170118	120	noff	66	0	2	na
170118	0	non	70	74	2	na
170238	120	noff	70	0	2	na
170238	0	non	63	74	2	na
170358	120	noff	63	0	2	na
170358	0	non	66	74	2	na
170478	120	noff	66	0	2	na
170478	0	non	68	74	2	na
170598	120	noff	68	0	2	na
170598	0	non	63	74	2	na
170718	120	noff	63	0	2	na
170718	0	non	70	77	2	na
170838	120	noff	70	0	2	na
170838	0	non	75	94	2	na
170958	120	noff	75	0	2	na
170958	0	non	77	100	2	na
171078	120	noff	77	0	2	na
171078	0	non	70	77	2	na
171198	120	noff	70	0	2	na
171198	0	non	65	78	2	na
171318	120	noff	65	0	2	na
171318	0	non	70	93	2	na
171438	120	noff	70	0	2	na
171438	0	non	68	88	2	na
171558	120	noff	68	0	2	na
171558	0	non	73	100	2	na
171678	120	noff	73	0	2	na
cumTime	delTime	event	pitch	vel	chan	value
32958	32958	non	63	68	3	na
33078	120	noff	63	0	3	na
33078	0	non	65	69	3	na
33198	120	noff	65	0	3	na
33198	0	non	66	72	3	na
33318	120	noff	66	0	3	na
33318	0	non	68	74	3	na
33438	120	noff	68	0	3	na
33438	0	non	70	77	3	na
33558	120	noff	70	0	3	na
33558	0	non	75	91	3	na
33678	120	noff	75	0	3	na
33678	0	non	77	100	3	na
33798	120	noff	77	0	3	na
33798	0	non	70	82	3	na
33918	120	noff	70	0	3	na
33918	0	non	66	74	3	na
34038	120	noff	66	0	3	na
34038	0	non	68	79	3	na
34158	120	noff	68	0	3	na
34158	0	non	70	86	3	na
34278	120	noff	70	0	3	na
34278	0	non	75	91	3	na
34398	120	noff	75	0	3	na
34398	0	non	77	100	3	na
34518	120	noff	77	0	3	na
34518	0	non	73	89	3	na
34638	120	noff	73	0	3	na
34638	0	non	68	78	3	na
34758	120	noff	68	0	3	na
34758	0	non	70	83	3	na
34878	120	noff	70	0	3	na
34878	0	non	68	76	3	na
34998	120	noff	68	0	3	na
34998	0	non	75	94	3	na
35118	120	noff	75	0	3	na
35118	0	non	77	100	3	na
35238	120	noff	77	0	3	na
35238	0	non	73	94	3	na
35358	120	noff	73	0	3	na
35358	0	non	63	79	3	na
35478	120	noff	63	0	3	na
35478	0	non	75	100	3	na
35478	0	non	70	100	3	na
35598	120	noff	75	0	3	na
35598	0	noff	70	0	3	na
35718	120	non	75	91	3	na
35718	0	non	70	91	3	na
36078	360	noff	75	0	3	na
36078	0	noff	70	0	3	na
36078	0	non	70	91	3	na
36318	240	noff	70	0	3	na
36318	0	non	68	89	3	na
36558	240	noff	68	0	3	na
36558	0	non	66	87	3	na
36798	240	noff	66	0	3	na
36798	0	non	63	84	3	na
37038	240	noff	63	0	3	na
37038	0	non	65	87	3	na
37158	120	noff	65	0	3	na
37158	0	non	61	76	3	na
37278	120	noff	61	0	3	na
37278	0	non	63	80	3	na
37398	120	noff	63	0	3	na
37398	0	non	65	80	3	na
37518	120	noff	65	0	3	na
37518	0	non	66	80	3	na
37638	120	noff	66	0	3	na
37638	0	non	68	80	3	na
37758	120	noff	68	0	3	na
37758	0	non	66	80	3	na
37878	120	noff	66	0	3	na
37878	0	non	65	80	3	na
37998	120	noff	65	0	3	na
37998	0	non	63	80	3	na
38118	120	noff	63	0	3	na
38118	0	non	65	80	3	na
38238	120	noff	65	0	3	na
38238	0	non	63	80	3	na
38358	120	noff	63	0	3	na
38358	0	non	70	80	3	na
38478	120	noff	70	0	3	na
38478	0	non	68	80	3	na
38598	120	noff	68	0	3	na
38598	0	non	66	80	3	na
38718	120	noff	66	0	3	na
38718	0	non	65	80	3	na
38838	120	noff	65	0	3	na
38838	0	non	66	81	3	na
38958	120	noff	66	0	3	na
38958	0	non	70	81	3	na
39078	120	noff	70	0	3	na
39078	0	non	65	81	3	na
39198	120	noff	65	0	3	na
39198	0	non	63	91	3	na
39438	240	noff	63	0	3	na
39438	0	non	63	83	3	na
39558	120	noff	63	0	3	na
39558	0	non	75	100	3	na
39678	120	noff	75	0	3	na
39798	120	non	70	100	3	na
39798	0	non	75	100	3	na
39918	120	noff	70	0	3	na
39918	0	noff	75	0	3	na
39918	0	non	75	96	3	na
39918	0	non	73	96	3	na
40098	180	noff	73	0	3	na
40158	60	noff	75	0	3	na
40158	0	non	68	88	3	na
40398	240	noff	68	0	3	na
40398	0	non	70	92	3	na
40638	240	noff	70	0	3	na
40638	0	non	66	85	3	na
40878	240	noff	66	0	3	na
40878	0	non	63	80	3	na
40878	0	non	58	80	3	na
40998	120	noff	63	0	3	na
41058	60	noff	58	0	3	na
41118	60	non	70	77	3	na
41238	120	noff	70	0	3	na
41238	0	non	75	95	3	na
41358	120	noff	75	0	3	na
41358	0	non	77	100	3	na
41478	120	noff	77	0	3	na
41478	0	non	70	81	3	na
41598	120	noff	70	0	3	na
41598	0	non	66	83	3	na
41718	120	noff	66	0	3	na
41718	0	non	68	87	3	na
41838	120	noff	68	0	3	na
41838	0	non	70	94	3	na
41958	120	noff	70	0	3	na
41958	0	non	75	98	3	na
42078	120	noff	75	0	3	na
42078	0	non	77	101	3	na
42198	120	noff	77	0	3	na
42198	0	non	73	91	3	na
42318	120	noff	73	0	3	na
42318	0	non	68	87	3	na
42438	120	noff	68	0	3	na
42438	0	non	70	93	3	na
42558	120	noff	70	0	3	na
42558	0	non	68	86	3	na
42678	120	noff	68	0	3	na
42678	0	non	75	95	3	na
42798	120	noff	75	0	3	na
42798	0	non	77	100	3	na
42918	120	noff	77	0	3	na
42918	0	non	73	89	3	na
43038	120	noff	73	0	3	na
43038	0	non	65	77	3	na
43158	120	noff	65	0	3	na
43158	0	non	68	81	3	na
43278	120	noff	68	0	3	na
43278	0	non	70	84	3	na
43398	120	noff	70	0	3	na
43398	0	non	75	90	3	na
43518	120	noff	75	0	3	na
43518	0	non	77	100	3	na
43638	120	noff	77	0	3	na
43638	0	non	73	86	3	na
43758	120	noff	73	0	3	na
43758	0	non	75	90	3	na
43878	120	noff	75	0	3	na
43878	0	non	70	83	3	na
43998	120	noff	70	0	3	na
43998	0	non	65	75	3	na
44118	120	noff	65	0	3	na
44118	0	non	66	75	3	na
44238	120	noff	66	0	3	na
44238	0	non	68	75	3	na
44358	120	noff	68	0	3	na
44358	0	non	66	75	3	na
44478	120	noff	66	0	3	na
44478	0	non	65	75	3	na
44598	120	noff	65	0	3	na
44598	0	non	66	75	3	na
44718	120	noff	66	0	3	na
44718	0	non	70	75	3	na
44838	120	noff	70	0	3	na
44838	0	non	66	75	3	na
44958	120	noff	66	0	3	na
44958	0	non	63	75	3	na
45078	120	noff	63	0	3	na
45078	0	non	65	75	3	na
45198	120	noff	65	0	3	na
45198	0	non	66	75	3	na
45318	120	noff	66	0	3	na
45318	0	non	68	75	3	na
45438	120	noff	68	0	3	na
45438	0	non	66	75	3	na
45558	120	noff	66	0	3	na
45558	0	non	65	75	3	na
45678	120	noff	65	0	3	na
45678	0	non	63	75	3	na
45798	120	noff	63	0	3	na
45798	0	non	68	75	3	na
45918	120	noff	68	0	3	na
45918	0	non	70	79	3	na
46038	120	noff	70	0	3	na
46038	0	non	77	98	3	na
46158	120	noff	77	0	3	na
46158	0	non	73	92	3	na
46278	120	noff	73	0	3	na
46278	0	non	70	87	3	na
46398	120	noff	70	0	3	na
46398	0	non	68	81	3	na
46518	120	noff	68	0	3	na
46518	0	non	70	84	3	na
46638	120	noff	70	0	3	na
46638	0	non	73	90	3	na
46758	120	noff	73	0	3	na
46758	0	non	75	94	3	na
46878	120	noff	75	0	3	na
46878	0	non	70	83	3	na
46998	120	noff	70	0	3	na
46998	0	non	78	100	3	na
47118	120	noff	78	0	3	na
47118	0	non	75	91	3	na
47238	120	noff	75	0	3	na
47238	0	non	77	94	3	na
47358	120	noff	77	0	3	na
47358	0	non	73	88	3	na
47478	120	noff	73	0	3	na
47478	0	non	75	91	3	na
47598	120	noff	75	0	3	na
47598	0	non	70	82	3	na
47718	120	noff	70	0	3	na
47718	0	non	68	78	3	na
47838	120	noff	68	0	3	na
47838	0	non	70	77	3	na
47958	120	noff	70	0	3	na
47958	0	non	75	94	3	na
48078	120	noff	75	0	3	na
48078	0	non	77	100	3	na
48198	120	noff	77	0	3	na
48198	0	non	70	77	3	na
48318	120	noff	70	0	3	na
48318	0	non	65	78	3	na
48438	120	noff	65	0	3	na
48438	0	non	70	93	3	na
48558	120	noff	70	0	3	na
48558	0	non	68	88	3	na
48678	120	noff	68	0	3	na
48678	0	non	73	100	3	na
48798	120	noff	73	0	3	na
48798	0	non	70	77	3	na
48918	120	noff	70	0	3	na
48918	0	non	75	91	3	na
49038	120	noff	75	0	3	na
49038	0	non	77	100	3	na
49158	120	noff	77	0	3	na
49158	0	non	70	82	3	na
49278	120	noff	70	0	3	na
49278	0	non	66	74	3	na
49398	120	noff	66	0	3	na
49398	0	non	68	79	3	na
49518	120	noff	68	0	3	na
49518	0	non	70	86	3	na
49638	120	noff	70	0	3	na
49638	0	non	75	91	3	na
49758	120	noff	75	0	3	na
49758	0	non	77	100	3	na
49878	120	noff	77	0	3	na
49878	0	non	73	89	3	na
49998	120	noff	73	0	3	na
49998	0	non	68	78	3	na
50118	120	noff	68	0	3	na
50118	0	non	70	83	3	na
50238	120	noff	70	0	3	na
50238	0	non	68	76	3	na
50358	120	noff	68	0	3	na
50358	0	non	75	94	3	na
50478	120	noff	75	0	3	na
50478	0	non	77	100	3	na
50598	120	noff	77	0	3	na
50598	0	non	73	94	3	na
50718	120	noff	73	0	3	na
50718	0	non	63	79	3	na
50838	120	noff	63	0	3	na
50838	0	non	75	100	3	na
50838	0	non	70	100	3	na
50958	120	noff	75	0	3	na
50958	0	noff	70	0	3	na
51078	120	non	75	91	3	na
51078	0	non	70	91	3	na
51438	360	noff	75	0	3	na
51438	0	noff	70	0	3	na
51438	0	non	70	91	3	na
51678	240	noff	70	0	3	na
51678	0	non	68	89	3	na
51918	240	noff	68	0	3	na
51918	0	non	66	87	3	na
52158	240	noff	66	0	3	na
52158	0	non	63	84	3	na
52398	240	noff	63	0	3	na
52398	0	non	65	87	3	na
52518	120	noff	65	0	3	na
52518	0	non	61	76	3	na
52638	120	noff	61	0	3	na
52638	0	non	63	80	3	na
52758	120	noff	63	0	3	na
52758	0	non	65	80	3	na
52878	120	noff	65	0	3	na
52878	0	non	66	80	3	na
52998	120	noff	66	0	3	na
52998	0	non	68	80	3	na
53118	120	noff	68	0	3	na
53118	0	non	66	80	3	na
53238	120	noff	66	0	3	na
53238	0	non	65	80	3	na
53358	120	noff	65	0	3	na
53358	0	non	63	80	3	na
53478	120	noff	63	0	3	na
53478	0	non	65	80	3	na
53598	120	noff	65	0	3	na
53598	0	non	63	80	3	na
53718	120	noff	63	0	3	na
53718	0	non	70	80	3	na
53838	120	noff	70	0	3	na
53838	0	non	68	80	3	na
53958	120	noff	68	0	3	na
53958	0	non	66	80	3	na
54078	120	noff	66	0	3	na
54078	0	non	65	80	3	na
54198	120	noff	65	0	3	na
54198	0	non	66	81	3	na
54318	120	noff	66	0	3	na
54318	0	non	70	81	3	na
54438	120	noff	70	0	3	na
54438	0	non	65	81	3	na
54558	120	noff	65	0	3	na
54558	0	non	63	91	3	na
54798	240	noff	63	0	3	na
54798	0	non	63	83	3	na
54918	120	noff	63	0	3	na
54918	0	non	75	100	3	na
55038	120	noff	75	0	3	na
55158	120	non	70	100	3	na
55158	0	non	75	100	3	na
55278	120	noff	70	0	3	na
55278	0	noff	75	0	3	na
55278	0	non	75	96	3	na
55278	0	non	73	96	3	na
55458	180	noff	73	0	3	na
55518	60	noff	75	0	3	na
55518	0	non	68	88	3	na
55758	240	noff	68	0	3	na
55758	0	non	70	92	3	na
55998	240	noff	70	0	3	na
55998	0	non	66	85	3	na
56238	240	noff	66	0	3	na
56238	0	non	63	80	3	na
56238	0	non	58	80	3	na
56358	120	noff	63	0	3	na
56418	60	noff	58	0	3	na
56478	60	non	70	77	3	na
56598	120	noff	70	0	3	na
56598	0	non	75	95	3	na
56718	120	noff	75	0	3	na
56718	0	non	77	100	3	na
56838	120	noff	77	0	3	na
56838	0	non	70	81	3	na
56958	120	noff	70	0	3	na
56958	0	non	66	83	3	na
57078	120	noff	66	0	3	na
57078	0	non	68	87	3	na
57198	120	noff	68	0	3	na
57198	0	non	70	94	3	na
57318	120	noff	70	0	3	na
57318	0	non	75	98	3	na
57438	120	noff	75	0	3	na
57438	0	non	77	101	3	na
57558	120	noff	77	0	3	na
57558	0	non	73	91	3	na
57678	120	noff	73	0	3	na
57678	0	non	68	87	3	na
57798	120	noff	68	0	3	na
57798	0	non	70	93	3	na
57918	120	noff	70	0	3	na
57918	0	non	68	86	3	na
58038	120	noff	68	0	3	na
58038	0	non	75	95	3	na
58158	120	noff	75	0	3	na
58158	0	non	77	100	3	na
58278	120	noff	77	0	3	na
58278	0	non	73	89	3	na
58398	120	noff	73	0	3	na
58398	0	non	63	86	3	na
58518	120	noff	63	0	3	na
58518	0	non	75	100	3	na
58518	0	non	70	100	3	na
58758	240	noff	75	0	3	na
58758	0	noff	70	0	3	na
58758	0	non	70	92	3	na
58878	120	noff	70	0	3	na
58998	120	non	68	89	3	na
59118	120	noff	68	0	3	na
59118	0	non	66	87	3	na
59238	120	noff	66	0	3	na
59238	0	non	65	86	3	na
59478	240	noff	65	0	3	na
59478	0	non	63	80	3	na
59598	120	noff	63	0	3	na
59598	0	non	66	85	3	na
59598	0	non	63	85	3	na
59838	240	noff	66	0	3	na
59838	0	noff	63	0	3	na
59838	0	non	65	83	3	na
59838	0	non	61	83	3	na
60078	240	noff	65	0	3	na
60078	0	noff	61	0	3	na
60078	0	non	61	79	3	na
60078	0	non	58	79	3	na
60318	240	noff	61	0	3	na
60318	0	noff	58	0	3	na
60318	0	non	63	77	3	na
60438	120	noff	63	0	3	na
60438	0	non	65	80	3	na
60558	120	noff	65	0	3	na
60558	0	non	66	84	3	na
60678	120	noff	66	0	3	na
60678	0	non	68	87	3	na
60798	120	noff	68	0	3	na
60798	0	non	66	91	3	na
60918	120	noff	66	0	3	na
60918	0	non	65	89	3	na
61038	120	noff	65	0	3	na
61038	0	non	63	85	3	na
61158	120	noff	63	0	3	na
61158	0	non	68	83	3	na
61278	120	noff	68	0	3	na
61278	0	non	70	79	3	na
61398	120	noff	70	0	3	na
61398	0	non	77	98	3	na
61518	120	noff	77	0	3	na
61518	0	non	73	92	3	na
61638	120	noff	73	0	3	na
61638	0	non	70	87	3	na
61758	120	noff	70	0	3	na
61758	0	non	68	81	3	na
61878	120	noff	68	0	3	na
61878	0	non	70	84	3	na
61998	120	noff	70	0	3	na
61998	0	non	73	90	3	na
62118	120	noff	73	0	3	na
62118	0	non	75	94	3	na
62238	120	noff	75	0	3	na
62238	0	non	70	83	3	na
62358	120	noff	70	0	3	na
62358	0	non	78	100	3	na
62478	120	noff	78	0	3	na
62478	0	non	75	91	3	na
62598	120	noff	75	0	3	na
62598	0	non	77	94	3	na
62718	120	noff	77	0	3	na
62718	0	non	73	88	3	na
62838	120	noff	73	0	3	na
62838	0	non	75	91	3	na
62958	120	noff	75	0	3	na
62958	0	non	70	82	3	na
63078	120	noff	70	0	3	na
63078	0	non	68	78	3	na
63198	120	noff	68	0	3	na
63198	0	non	70	77	3	na
63318	120	noff	70	0	3	na
63318	0	non	75	94	3	na
63438	120	noff	75	0	3	na
63438	0	non	77	100	3	na
63558	120	noff	77	0	3	na
63558	0	non	70	77	3	na
63678	120	noff	70	0	3	na
63678	0	non	65	78	3	na
63798	120	noff	65	0	3	na
63798	0	non	70	93	3	na
63918	120	noff	70	0	3	na
63918	0	non	68	88	3	na
64038	120	noff	68	0	3	na
64038	0	non	73	100	3	na
64158	120	noff	73	0	3	na
140478	76320	non	63	68	3	na
140598	120	noff	63	0	3	na
140598	0	non	65	69	3	na
140718	120	noff	65	0	3	na
140718	0	non	66	72	3	na
140838	120	noff	66	0	3	na
140838	0	non	68	74	3	na
140958	120	noff	68	0	3	na
140958	0	non	70	77	3	na
141078	120	noff	70	0	3	na
141078	0	non	75	91	3	na
141198	120	noff	75	0	3	na
141198	0	non	77	100	3	na
141318	120	noff	77	0	3	na
141318	0	non	70	82	3	na
141438	120	noff	70	0	3	na
141438	0	non	66	74	3	na
141558	120	noff	66	0	3	na
141558	0	non	68	79	3	na
141678	120	noff	68	0	3	na
141678	0	non	70	86	3	na
141798	120	noff	70	0	3	na
141798	0	non	75	91	3	na
141918	120	noff	75	0	3	na
141918	0	non	77	100	3	na
142038	120	noff	77	0	3	na
142038	0	non	73	89	3	na
142158	120	noff	73	0	3	na
142158	0	non	68	78	3	na
142278	120	noff	68	0	3	na
142278	0	non	70	83	3	na
142398	120	noff	70	0	3	na
142398	0	non	68	76	3	na
142518	120	noff	68	0	3	na
142518	0	non	75	94	3	na
142638	120	noff	75	0	3	na
142638	0	non	77	100	3	na
142758	120	noff	77	0	3	na
142758	0	non	73	94	3	na
142878	120	noff	73	0	3	na
142878	0	non	63	79	3	na
142998	120	noff	63	0	3	na
142998	0	non	75	100	3	na
142998	0	non	70	100	3	na
143118	120	noff	75	0	3	na
143118	0	noff	70	0	3	na
143238	120	non	75	91	3	na
143238	0	non	70	91	3	na
143598	360	noff	75	0	3	na
143598	0	noff	70	0	3	na
143598	0	non	70	91	3	na
143838	240	noff	70	0	3	na
143838	0	non	68	89	3	na
144078	240	noff	68	0	3	na
144078	0	non	66	87	3	na
144318	240	noff	66	0	3	na
144318	0	non	63	84	3	na
144558	240	noff	63	0	3	na
144558	0	non	65	87	3	na
144678	120	noff	65	0	3	na
144678	0	non	61	76	3	na
144798	120	noff	61	0	3	na
144798	0	non	63	80	3	na
144918	120	noff	63	0	3	na
144918	0	non	65	80	3	na
145038	120	noff	65	0	3	na
145038	0	non	66	80	3	na
145158	120	noff	66	0	3	na
145158	0	non	68	80	3	na
145278	120	noff	68	0	3	na
145278	0	non	66	80	3	na
145398	120	noff	66	0	3	na
145398	0	non	65	80	3	na
145518	120	noff	65	0	3	na
145518	0	non	63	80	3	na
145638	120	noff	63	0	3	na
145638	0	non	65	80	3	na
145758	120	noff	65	0	3	na
145758	0	non	63	80	3	na
145878	120	noff	63	0	3	na
145878	0	non	70	80	3	na
145998	120	noff	70	0	3	na
145998	0	non	68	80	3	na
146118	120	noff	68	0	3	na
146118	0	non	66	80	3	na
146238	120	noff	66	0	3	na
146238	0	non	65	80	3	na
146358	120	noff	65	0	3	na
146358	0	non	66	81	3	na
146478	120	noff	66	0	3	na
146478	0	non	70	81	3	na
146598	120	noff	70	0	3	na
146598	0	non	65	81	3	na
146718	120	noff	65	0	3	na
146718	0	non	63	91	3	na
146958	240	noff	63	0	3	na
146958	0	non	63	83	3	na
147078	120	noff	63	0	3	na
147078	0	non	75	100	3	na
147198	120	noff	75	0	3	na
147318	120	non	70	100	3	na
147318	0	non	75	100	3	na
147438	120	noff	70	0	3	na
147438	0	noff	75	0	3	na
147438	0	non	75	96	3	na
147438	0	non	73	96	3	na
147618	180	noff	73	0	3	na
147678	60	noff	75	0	3	na
147678	0	non	68	88	3	na
147918	240	noff	68	0	3	na
147918	0	non	70	92	3	na
148158	240	noff	70	0	3	na
148158	0	non	66	85	3	na
148398	240	noff	66	0	3	na
148398	0	non	63	80	3	na
148398	0	non	58	80	3	na
148518	120	noff	63	0	3	na
148578	60	noff	58	0	3	na
148638	60	non	70	77	3	na
148758	120	noff	70	0	3	na
148758	0	non	75	95	3	na
148878	120	noff	75	0	3	na
148878	0	non	77	100	3	na
148998	120	noff	77	0	3	na
148998	0	non	70	81	3	na
149118	120	noff	70	0	3	na
149118	0	non	66	83	3	na
149238	120	noff	66	0	3	na
149238	0	non	68	87	3	na
149358	120	noff	68	0	3	na
149358	0	non	70	94	3	na
149478	120	noff	70	0	3	na
149478	0	non	75	98	3	na
149598	120	noff	75	0	3	na
149598	0	non	77	101	3	na
149718	120	noff	77	0	3	na
149718	0	non	73	91	3	na
149838	120	noff	73	0	3	na
149838	0	non	68	87	3	na
149958	120	noff	68	0	3	na
149958	0	non	70	93	3	na
150078	120	noff	70	0	3	na
150078	0	non	68	86	3	na
150198	120	noff	68	0	3	na
150198	0	non	75	95	3	na
150318	120	noff	75	0	3	na
150318	0	non	77	100	3	na
150438	120	noff	77	0	3	na
150438	0	non	73	89	3	na
150558	120	noff	73	0	3	na
150558	0	non	65	77	3	na
150678	120	noff	65	0	3	na
150678	0	non	68	81	3	na
150798	120	noff	68	0	3	na
150798	0	non	70	84	3	na
150918	120	noff	70	0	3	na
150918	0	non	75	90	3	na
151038	120	noff	75	0	3	na
151038	0	non	77	100	3	na
151158	120	noff	77	0	3	na
151158	0	non	73	86	3	na
151278	120	noff	73	0	3	na
151278	0	non	75	90	3	na
151398	120	noff	75	0	3	na
151398	0	non	70	83	3	na
151518	120	noff	70	0	3	na
151518	0	non	65	75	3	na
151638	120	noff	65	0	3	na
151638	0	non	66	75	3	na
151758	120	noff	66	0	3	na
151758	0	non	68	75	3	na
151878	120	noff	68	0	3	na
151878	0	non	66	75	3	na
151998	120	noff	66	0	3	na
151998	0	non	65	75	3	na
152118	120	noff	65	0	3	na
152118	0	non	66	75	3	na
152238	120	noff	66	0	3	na
152238	0	non	70	75	3	na
152358	120	noff	70	0	3	na
152358	0	non	66	75	3	na
152478	120	noff	66	0	3	na
152478	0	non	63	75	3	na
152598	120	noff	63	0	3	na
152598	0	non	65	75	3	na
152718	120	noff	65	0	3	na
152718	0	non	66	75	3	na
152838	120	noff	66	0	3	na
152838	0	non	68	75	3	na
152958	120	noff	68	0	3	na
152958	0	non	66	75	3	na
153078	120	noff	66	0	3	na
153078	0	non	65	75	3	na
153198	120	noff	65	0	3	na
153198	0	non	63	75	3	na
153318	120	noff	63	0	3	na
153318	0	non	68	75	3	na
153438	120	noff	68	0	3	na
153438	0	non	70	79	3	na
153558	120	noff	70	0	3	na
153558	0	non	77	98	3	na
153678	120	noff	77	0	3	na
153678	0	non	73	92	3	na
153798	120	noff	73	0	3	na
153798	0	non	70	87	3	na
153918	120	noff	70	0	3	na
153918	0	non	68	81	3	na
154038	120	noff	68	0	3	na
154038	0	non	70	84	3	na
154158	120	noff	70	0	3	na
154158	0	non	73	90	3	na
154278	120	noff	73	0	3	na
154278	0	non	75	94	3	na
154398	120	noff	75	0	3	na
154398	0	non	70	83	3	na
154518	120	noff	70	0	3	na
154518	0	non	78	100	3	na
154638	120	noff	78	0	3	na
154638	0	non	75	91	3	na
154758	120	noff	75	0	3	na
154758	0	non	77	94	3	na
154878	120	noff	77	0	3	na
154878	0	non	73	88	3	na
154998	120	noff	73	0	3	na
154998	0	non	75	91	3	na
155118	120	noff	75	0	3	na
155118	0	non	70	82	3	na
155238	120	noff	70	0	3	na
155238	0	non	68	78	3	na
155358	120	noff	68	0	3	na
155358	0	non	70	77	3	na
155478	120	noff	70	0	3	na
155478	0	non	75	94	3	na
155598	120	noff	75	0	3	na
155598	0	non	77	100	3	na
155718	120	noff	77	0	3	na
155718	0	non	70	77	3	na
155838	120	noff	70	0	3	na
155838	0	non	65	78	3	na
155958	120	noff	65	0	3	na
155958	0	non	70	93	3	na
156078	120	noff	70	0	3	na
156078	0	non	68	88	3	na
156198	120	noff	68	0	3	na
156198	0	non	73	100	3	na
156318	120	noff	73	0	3	na
156318	0	non	70	77	3	na
156438	120	noff	70	0	3	na
156438	0	non	75	91	3	na
156558	120	noff	75	0	3	na
156558	0	non	77	100	3	na
156678	120	noff	77	0	3	na
156678	0	non	70	82	3	na
156798	120	noff	70	0	3	na
156798	0	non	66	74	3	na
156918	120	noff	66	0	3	na
156918	0	non	68	79	3	na
157038	120	noff	68	0	3	na
157038	0	non	70	86	3	na
157158	120	noff	70	0	3	na
157158	0	non	75	91	3	na
157278	120	noff	75	0	3	na
157278	0	non	77	100	3	na
157398	120	noff	77	0	3	na
157398	0	non	73	89	3	na
157518	120	noff	73	0	3	na
157518	0	non	68	78	3	na
157638	120	noff	68	0	3	na
157638	0	non	70	83	3	na
157758	120	noff	70	0	3	na
157758	0	non	68	76	3	na
157878	120	noff	68	0	3	na
157878	0	non	75	94	3	na
157998	120	noff	75	0	3	na
157998	0	non	77	100	3	na
158118	120	noff	77	0	3	na
158118	0	non	73	94	3	na
158238	120	noff	73	0	3	na
158238	0	non	63	79	3	na
158358	120	noff	63	0	3	na
158358	0	non	75	100	3	na
158358	0	non	70	100	3	na
158478	120	noff	75	0	3	na
158478	0	noff	70	0	3	na
158598	120	non	75	91	3	na
158598	0	non	70	91	3	na
158958	360	noff	75	0	3	na
158958	0	noff	70	0	3	na
158958	0	non	70	91	3	na
159198	240	noff	70	0	3	na
159198	0	non	68	89	3	na
159438	240	noff	68	0	3	na
159438	0	non	66	87	3	na
159678	240	noff	66	0	3	na
159678	0	non	63	84	3	na
159918	240	noff	63	0	3	na
159918	0	non	65	87	3	na
160038	120	noff	65	0	3	na
160038	0	non	61	76	3	na
160158	120	noff	61	0	3	na
160158	0	non	63	80	3	na
160278	120	noff	63	0	3	na
160278	0	non	65	80	3	na
160398	120	noff	65	0	3	na
160398	0	non	66	80	3	na
160518	120	noff	66	0	3	na
160518	0	non	68	80	3	na
160638	120	noff	68	0	3	na
160638	0	non	66	80	3	na
160758	120	noff	66	0	3	na
160758	0	non	65	80	3	na
160878	120	noff	65	0	3	na
160878	0	non	63	80	3	na
160998	120	noff	63	0	3	na
160998	0	non	65	80	3	na
161118	120	noff	65	0	3	na
161118	0	non	63	80	3	na
161238	120	noff	63	0	3	na
161238	0	non	70	80	3	na
161358	120	noff	70	0	3	na
161358	0	non	68	80	3	na
161478	120	noff	68	0	3	na
161478	0	non	66	80	3	na
161598	120	noff	66	0	3	na
161598	0	non	65	80	3	na
161718	120	noff	65	0	3	na
161718	0	non	66	81	3	na
161838	120	noff	66	0	3	na
161838	0	non	70	81	3	na
161958	120	noff	70	0	3	na
161958	0	non	65	81	3	na
162078	120	noff	65	0	3	na
162078	0	non	63	91	3	na
162318	240	noff	63	0	3	na
162318	0	non	63	83	3	na
162438	120	noff	63	0	3	na
162438	0	non	75	100	3	na
162558	120	noff	75	0	3	na
162678	120	non	70	100	3	na
162678	0	non	75	100	3	na
162798	120	noff	70	0	3	na
162798	0	noff	75	0	3	na
162798	0	non	75	96	3	na
162798	0	non	73	96	3	na
162978	180	noff	73	0	3	na
163038	60	noff	75	0	3	na
163038	0	non	68	88	3	na
163278	240	noff	68	0	3	na
163278	0	non	70	92	3	na
163518	240	noff	70	0	3	na
163518	0	non	66	85	3	na
163758	240	noff	66	0	3	na
163758	0	non	63	80	3	na
163758	0	non	58	80	3	na
163878	120	noff	63	0	3	na
163938	60	noff	58	0	3	na
163998	60	non	70	77	3	na
164118	120	noff	70	0	3	na
164118	0	non	75	95	3	na
164238	120	noff	75	0	3	na
164238	0	non	77	100	3	na
164358	120	noff	77	0	3	na
164358	0	non	70	81	3	na
164478	120	noff	70	0	3	na
164478	0	non	66	83	3	na
164598	120	noff	66	0	3	na
164598	0	non	68	87	3	na
164718	120	noff	68	0	3	na
164718	0	non	70	94	3	na
164838	120	noff	70	0	3	na
164838	0	non	75	98	3	na
164958	120	noff	75	0	3	na
164958	0	non	77	101	3	na
165078	120	noff	77	0	3	na
165078	0	non	73	91	3	na
165198	120	noff	73	0	3	na
165198	0	non	68	87	3	na
165318	120	noff	68	0	3	na
165318	0	non	70	93	3	na
165438	120	noff	70	0	3	na
165438	0	non	68	86	3	na
165558	120	noff	68	0	3	na
165558	0	non	75	95	3	na
165678	120	noff	75	0	3	na
165678	0	non	77	100	3	na
165798	120	noff	77	0	3	na
165798	0	non	73	89	3	na
165918	120	noff	73	0	3	na
165918	0	non	63	86	3	na
166038	120	noff	63	0	3	na
166038	0	non	75	100	3	na
166038	0	non	70	100	3	na
166278	240	noff	75	0	3	na
166278	0	noff	70	0	3	na
166278	0	non	70	92	3	na
166398	120	noff	70	0	3	na
166518	120	non	68	89	3	na
166638	120	noff	68	0	3	na
166638	0	non	66	87	3	na
166758	120	noff	66	0	3	na
166758	0	non	65	86	3	na
166998	240	noff	65	0	3	na
166998	0	non	63	80	3	na
167118	120	noff	63	0	3	na
167118	0	non	66	85	3	na
167118	0	non	63	85	3	na
167358	240	noff	66	0	3	na
167358	0	noff	63	0	3	na
167358	0	non	65	83	3	na
167358	0	non	61	83	3	na
167598	240	noff	65	0	3	na
167598	0	noff	61	0	3	na
167598	0	non	61	79	3	na
167598	0	non	58	79	3	na
167838	240	noff	61	0	3	na
167838	0	noff	58	0	3	na
167838	0	non	63	77	3	na
167958	120	noff	63	0	3	na
167958	0	non	65	80	3	na
168078	120	noff	65	0	3	na
168078	0	non	66	84	3	na
168198	120	noff	66	0	3	na
168198	0	non	68	87	3	na
168318	120	noff	68	0	3	na
168318	0	non	66	91	3	na
168438	120	noff	66	0	3	na
168438	0	non	65	89	3	na
168558	120	noff	65	0	3	na
168558	0	non	63	85	3	na
168678	120	noff	63	0	3	na
168678	0	non	68	83	3	na
168798	120	noff	68	0	3	na
168798	0	non	70	79	3	na
168918	120	noff	70	0	3	na
168918	0	non	77	98	3	na
169038	120	noff	77	0	3	na
169038	0	non	73	92	3	na
169158	120	noff	73	0	3	na
169158	0	non	70	87	3	na
169278	120	noff	70	0	3	na
169278	0	non	68	81	3	na
169398	120	noff	68	0	3	na
169398	0	non	70	84	3	na
169518	120	noff	70	0	3	na
169518	0	non	73	90	3	na
169638	120	noff	73	0	3	na
169638	0	non	75	94	3	na
169758	120	noff	75	0	3	na
169758	0	non	70	83	3	na
169878	120	noff	70	0	3	na
169878	0	non	78	100	3	na
169998	120	noff	78	0	3	na
169998	0	non	75	91	3	na
170118	120	noff	75	0	3	na
170118	0	non	77	94	3	na
170238	120	noff	77	0	3	na
170238	0	non	73	88	3	na
170358	120	noff	73	0	3	na
170358	0	non	75	91	3	na
170478	120	noff	75	0	3	na
170478	0	non	70	82	3	na
170598	120	noff	70	0	3	na
170598	0	non	68	78	3	na
170718	120	noff	68	0	3	na
170718	0	non	70	77	3	na
170838	120	noff	70	0	3	na
170838	0	non	75	94	3	na
170958	120	noff	75	0	3	na
170958	0	non	77	100	3	na
171078	120	noff	77	0	3	na
171078	0	non	70	77	3	na
171198	120	noff	70	0	3	na
171198	0	non	65	78	3	na
171318	120	noff	65	0	3	na
171318	0	non	70	93	3	na
171438	120	noff	70	0	3	na
171438	0	non	68	88	3	na
171558	120	noff	68	0	3	na
171558	0	non	73	100	3	na
171678	120	noff	73	0	3	na
cumTime	delTime	event	pitch	vel	chan	value
0	0	non	66	100	4	na
54	54	noff	66	0	4	na
54	0	non	68	107	4	na
214	160	noff	68	0	4	na
228	14	non	70	111	4	na
455	227	noff	70	0	4	na
455	0	non	68	108	4	na
649	194	noff	68	0	4	na
649	0	non	66	103	4	na
889	240	noff	66	0	4	na
889	0	non	65	98	4	na
1043	154	noff	65	0	4	na
1043	0	non	66	100	4	na
1210	167	noff	66	0	4	na
1210	0	non	75	105	4	na
1230	20	noff	75	0	4	na
1230	0	non	70	96	4	na
1377	147	noff	70	0	4	na
1397	20	non	63	95	4	na
1631	234	noff	63	0	4	na
1631	0	non	65	103	4	na
1871	240	noff	65	0	4	na
1871	0	non	66	104	4	na
2111	240	noff	66	0	4	na
2111	0	non	68	108	4	na
2231	120	noff	68	0	4	na
2231	0	non	66	106	4	na
2351	120	noff	66	0	4	na
2471	120	non	66	100	4	na
2591	120	noff	66	0	4	na
2591	0	non	65	97	4	na
2831	240	noff	65	0	4	na
2831	0	non	61	92	4	na
2991	160	noff	61	0	4	na
2991	0	non	58	89	4	na
3065	74	noff	58	0	4	na
3065	0	non	61	93	4	na
3072	7	noff	61	0	4	na
3072	0	non	58	88	4	na
3099	27	noff	58	0	4	na
3099	0	non	58	91	4	na
3106	7	noff	58	0	4	na
3106	0	non	65	87	4	na
3346	240	noff	65	0	4	na
3346	0	non	66	100	4	na
3586	240	noff	66	0	4	na
3586	0	non	73	107	4	na
3593	7	noff	73	0	4	na
3593	0	non	70	96	4	na
3627	34	noff	70	0	4	na
3627	0	non	66	87	4	na
3641	14	noff	66	0	4	na
3641	0	non	68	97	4	na
3708	67	noff	68	0	4	na
3708	0	non	70	105	4	na
3715	7	noff	70	0	4	na
3715	0	non	70	101	4	na
3735	20	noff	70	0	4	na
3735	0	non	75	108	4	na
3975	240	noff	75	0	4	na
3975	0	non	77	109	4	na
3982	7	noff	77	0	4	na
3982	0	non	78	109	4	na
3989	7	noff	78	0	4	na
4003	14	non	77	106	4	na
4083	80	noff	77	0	4	na
4083	0	non	73	94	4	na
4097	14	noff	73	0	4	na
4097	0	non	75	92	4	na
4217	120	noff	75	0	4	na
4337	120	non	75	91	4	na
4577	240	noff	75	0	4	na
4577	0	non	77	100	4	na
4817	240	noff	77	0	4	na
4817	0	non	78	104	4	na
5057	240	noff	78	0	4	na
5057	0	non	80	109	4	na
5177	120	noff	80	0	4	na
5177	0	non	78	106	4	na
5297	120	noff	78	0	4	na
5417	120	non	77	102	4	na
5537	120	noff	77	0	4	na
5537	0	non	73	98	4	na
5777	240	noff	73	0	4	na
5777	0	non	70	92	4	na
6017	240	noff	70	0	4	na
6017	0	non	68	89	4	na
6257	240	noff	68	0	4	na
6257	0	non	70	92	4	na
6317	60	noff	70	0	4	na
6317	0	non	75	96	4	na
6331	14	noff	75	0	4	na
19565	13234	non	61	99	4	na
19685	120	noff	61	0	4	na
19685	0	non	66	105	4	na
19805	120	noff	66	0	4	na
19805	0	non	69	106	4	na
19925	120	noff	69	0	4	na
20045	120	non	73	107	4	na
20165	120	noff	73	0	4	na
20285	120	non	69	102	4	na
20405	120	noff	69	0	4	na
20525	120	non	68	99	4	na
20645	120	noff	68	0	4	na
20765	120	non	69	96	4	na
20885	120	noff	69	0	4	na
21005	120	non	71	102	4	na
21245	240	noff	71	0	4	na
21245	0	non	73	105	4	na
21365	120	noff	73	0	4	na
21365	0	non	76	109	4	na
21485	120	noff	76	0	4	na
21485	0	non	78	107	4	na
22205	720	noff	78	0	4	na
22205	0	non	76	106	4	na
22325	120	noff	76	0	4	na
22445	120	non	71	97	4	na
22805	360	noff	71	0	4	na
22805	0	non	73	100	4	na
23165	360	noff	73	0	4	na
23165	0	non	76	106	4	na
23285	120	noff	76	0	4	na
23405	120	non	78	108	4	na
23645	240	noff	78	0	4	na
23765	120	non	81	109	4	na
24005	240	noff	81	0	4	na
24125	120	non	80	111	4	na
24365	240	noff	80	0	4	na
24365	0	non	73	100	4	na
24485	120	noff	73	0	4	na
24485	0	non	78	98	4	na
24605	120	noff	78	0	4	na
24605	0	non	80	100	4	na
24725	120	noff	80	0	4	na
24725	0	non	81	104	4	na
24905	180	noff	81	0	4	na
25085	180	non	83	106	4	na
25445	360	noff	83	0	4	na
25445	0	non	81	97	4	na
25565	120	noff	81	0	4	na
25685	120	non	80	106	4	na
25985	300	noff	80	0	4	na
25985	0	non	76	89	4	na
26045	60	noff	76	0	4	na
26045	0	non	77	100	4	na
26405	360	noff	77	0	4	na
26405	0	non	73	91	4	na
26525	120	noff	73	0	4	na
26535	10	non	80	96	4	na
26545	10	noff	80	0	4	na
26545	0	non	81	100	4	na
26565	20	noff	81	0	4	na
26565	0	non	81	100	4	na
26955	390	noff	81	0	4	na
27055	100	non	73	98	4	na
27175	120	noff	73	0	4	na
27175	0	non	76	99	4	na
27205	30	noff	76	0	4	na
27205	0	non	78	102	4	na
27275	70	noff	78	0	4	na
27275	0	non	76	95	4	na
27385	110	noff	76	0	4	na
27425	40	non	71	93	4	na
27735	310	noff	71	0	4	na
27735	0	non	73	100	4	na
28095	360	noff	73	0	4	na
28095	0	non	76	104	4	na
28215	120	noff	76	0	4	na
28335	120	non	78	107	4	na
28575	240	noff	78	0	4	na
28695	120	non	81	109	4	na
28935	240	noff	81	0	4	na
29055	120	non	80	109	4	na
29175	120	noff	80	0	4	na
29295	120	non	78	104	4	na
29955	660	noff	78	0	4	na
30015	60	non	78	102	4	na
30135	120	noff	78	0	4	na
30135	0	non	80	104	4	na
30255	120	noff	80	0	4	na
30255	0	non	81	108	4	na
30495	240	noff	81	0	4	na
30615	120	non	83	109	4	na
30975	360	noff	83	0	4	na
30975	0	non	81	111	4	na
31095	120	noff	81	0	4	na
31215	120	non	80	111	4	na
31395	180	noff	80	0	4	na
31575	180	non	77	107	4	na
31935	360	noff	77	0	4	na
31935	0	non	73	104	4	na
32055	120	noff	73	0	4	na
32055	0	non	78	97	4	na
32285	230	noff	78	0	4	na
32285	0	non	76	92	4	na
32305	20	noff	76	0	4	na
32415	110	non	71	88	4	na
32655	240	noff	71	0	4	na
32775	120	non	73	94	4	na
33015	240	noff	73	0	4	na
33135	120	non	76	95	4	na
33255	120	noff	76	0	4	na
33375	120	non	78	97	4	na
33615	240	noff	78	0	4	na
33735	120	non	81	99	4	na
34095	360	noff	81	0	4	na
34095	0	non	80	97	4	na
34215	120	noff	80	0	4	na
34225	10	non	73	93	4	na
34265	40	noff	73	0	4	na
34265	0	non	78	98	4	na
34385	120	noff	78	0	4	na
34385	0	non	80	99	4	na
34505	120	noff	80	0	4	na
34505	0	non	81	101	4	na
34745	240	noff	81	0	4	na
34865	120	non	83	104	4	na
35165	300	noff	83	0	4	na
35225	60	non	81	106	4	na
35345	120	noff	81	0	4	na
35465	120	non	80	103	4	na
35765	300	noff	80	0	4	na
35825	60	non	77	99	4	na
36125	300	noff	77	0	4	na
36185	60	non	73	90	4	na
36305	120	noff	73	0	4	na
36325	20	non	80	93	4	na
36355	30	noff	80	0	4	na
36355	0	non	81	97	4	na
36415	60	noff	81	0	4	na
36425	10	non	81	91	4	na
36555	130	noff	81	0	4	na
36675	120	non	73	90	4	na
36755	80	noff	73	0	4	na
36755	0	non	76	92	4	na
36795	40	noff	76	0	4	na
36795	0	non	78	97	4	na
36825	30	noff	78	0	4	na
36835	10	non	76	91	4	na
36855	20	noff	76	0	4	na
36865	10	non	71	89	4	na
36955	90	noff	71	0	4	na
37015	60	non	73	89	4	na
37315	300	noff	73	0	4	na
37375	60	non	76	94	4	na
37495	120	noff	76	0	4	na
37505	10	non	78	95	4	na
37525	20	noff	78	0	4	na
37585	60	non	81	97	4	na
37615	30	noff	81	0	4	na
37615	0	non	80	99	4	na
37635	20	noff	80	0	4	na
37645	10	non	78	97	4	na
37705	60	noff	78	0	4	na
37765	60	non	78	100	4	na
37885	120	noff	78	0	4	na
37885	0	non	80	101	4	na
38005	120	noff	80	0	4	na
38005	0	non	78	102	4	na
38025	20	noff	78	0	4	na
38025	0	non	80	105	4	na
38055	30	noff	80	0	4	na
38075	20	non	78	108	4	na
38095	20	noff	78	0	4	na
38115	20	non	77	103	4	na
38165	50	noff	77	0	4	na
38165	0	non	73	100	4	na
38195	30	noff	73	0	4	na
38235	40	non	69	97	4	na
38315	80	noff	69	0	4	na
38415	100	non	73	94	4	na
38525	110	noff	73	0	4	na
38525	0	non	76	64	4	na
39305	780	noff	76	0	4	na
39305	0	non	66	100	4	na
39359	54	noff	66	0	4	na
39359	0	non	68	107	4	na
39519	160	noff	68	0	4	na
39533	14	non	70	111	4	na
39760	227	noff	70	0	4	na
39760	0	non	68	108	4	na
39954	194	noff	68	0	4	na
39954	0	non	66	103	4	na
40194	240	noff	66	0	4	na
40194	0	non	65	98	4	na
40348	154	noff	65	0	4	na
40348	0	non	66	100	4	na
40515	167	noff	66	0	4	na
40515	0	non	75	105	4	na
40535	20	noff	75	0	4	na
40535	0	non	70	96	4	na
40682	147	noff	70	0	4	na
40702	20	non	63	95	4	na
40936	234	noff	63	0	4	na
40936	0	non	65	103	4	na
41176	240	noff	65	0	4	na
41176	0	non	66	104	4	na
41416	240	noff	66	0	4	na
41416	0	non	68	108	4	na
41536	120	noff	68	0	4	na
41536	0	non	66	106	4	na
41656	120	noff	66	0	4	na
41776	120	non	66	100	4	na
41896	120	noff	66	0	4	na
41896	0	non	65	97	4	na
42136	240	noff	65	0	4	na
42136	0	non	61	92	4	na
42296	160	noff	61	0	4	na
42296	0	non	58	89	4	na
42370	74	noff	58	0	4	na
42370	0	non	61	93	4	na
42377	7	noff	61	0	4	na
42377	0	non	58	88	4	na
42404	27	noff	58	0	4	na
42404	0	non	58	91	4	na
42411	7	noff	58	0	4	na
42411	0	non	65	87	4	na
42651	240	noff	65	0	4	na
42651	0	non	66	100	4	na
42891	240	noff	66	0	4	na
42891	0	non	73	107	4	na
42898	7	noff	73	0	4	na
42898	0	non	70	96	4	na
42932	34	noff	70	0	4	na
42932	0	non	66	87	4	na
42946	14	noff	66	0	4	na
42946	0	non	68	97	4	na
43013	67	noff	68	0	4	na
43013	0	non	70	105	4	na
43020	7	noff	70	0	4	na
43020	0	non	70	101	4	na
43040	20	noff	70	0	4	na
43040	0	non	75	108	4	na
43280	240	noff	75	0	4	na
43280	0	non	77	109	4	na
43287	7	noff	77	0	4	na
43287	0	non	78	109	4	na
43294	7	noff	78	0	4	na
43308	14	non	77	106	4	na
43388	80	noff	77	0	4	na
43388	0	non	73	94	4	na
43402	14	noff	73	0	4	na
43402	0	non	75	92	4	na
43522	120	noff	75	0	4	na
43642	120	non	75	91	4	na
43882	240	noff	75	0	4	na
43882	0	non	77	100	4	na
44122	240	noff	77	0	4	na
44122	0	non	78	104	4	na
44362	240	noff	78	0	4	na
44362	0	non	80	109	4	na
44482	120	noff	80	0	4	na
44482	0	non	78	106	4	na
44602	120	noff	78	0	4	na
44722	120	non	77	102	4	na
44842	120	noff	77	0	4	na
44842	0	non	73	98	4	na
45082	240	noff	73	0	4	na
45082	0	non	70	92	4	na
45322	240	noff	70	0	4	na
45322	0	non	68	89	4	na
45562	240	noff	68	0	4	na
45562	0	non	70	92	4	na
45622	60	noff	70	0	4	na
45622	0	non	75	96	4	na
45636	14	noff	75	0	4	na
58870	13234	non	61	99	4	na
58990	120	noff	61	0	4	na
58990	0	non	66	105	4	na
59110	120	noff	66	0	4	na
59110	0	non	69	106	4	na
59230	120	noff	69	0	4	na
59350	120	non	73	107	4	na
59470	120	noff	73	0	4	na
59590	120	non	69	102	4	na
59710	120	noff	69	0	4	na
59830	120	non	68	99	4	na
59950	120	noff	68	0	4	na
60070	120	non	69	96	4	na
60190	120	noff	69	0	4	na
60310	120	non	71	102	4	na
60550	240	noff	71	0	4	na
60550	0	non	73	105	4	na
60670	120	noff	73	0	4	na
60670	0	non	76	109	4	na
60790	120	noff	76	0	4	na
60790	0	non	78	107	4	na
61510	720	noff	78	0	4	na
61510	0	non	76	106	4	na
61630	120	noff	76	0	4	na
61750	120	non	71	97	4	na
62110	360	noff	71	0	4	na
62110	0	non	73	100	4	na
62470	360	noff	73	0	4	na
62470	0	non	76	106	4	na
62590	120	noff	76	0	4	na
62710	120	non	78	108	4	na
62950	240	noff	78	0	4	na
63070	120	non	81	109	4	na
63310	240	noff	81	0	4	na
63430	120	non	80	111	4	na
63670	240	noff	80	0	4	na
63670	0	non	73	100	4	na
63790	120	noff	73	0	4	na
63790	0	non	78	98	4	na
63910	120	noff	78	0	4	na
63910	0	non	80	100	4	na
64030	120	noff	80	0	4	na
64030	0	non	81	104	4	na
64210	180	noff	81	0	4	na
64390	180	non	83	106	4	na
64750	360	noff	83	0	4	na
64750	0	non	81	97	4	na
64870	120	noff	81	0	4	na
64990	120	non	80	106	4	na
65290	300	noff	80	0	4	na
65290	0	non	76	89	4	na
65350	60	noff	76	0	4	na
65350	0	non	77	100	4	na
65710	360	noff	77	0	4	na
65710	0	non	73	91	4	na
65830	120	noff	73	0	4	na
65840	10	non	80	96	4	na
65850	10	noff	80	0	4	na
65850	0	non	81	100	4	na
65870	20	noff	81	0	4	na
65870	0	non	81	100	4	na
66260	390	noff	81	0	4	na
66360	100	non	73	98	4	na
66480	120	noff	73	0	4	na
66480	0	non	76	99	4	na
66510	30	noff	76	0	4	na
66510	0	non	78	102	4	na
66580	70	noff	78	0	4	na
66580	0	non	76	95	4	na
66690	110	noff	76	0	4	na
66730	40	non	71	93	4	na
67040	310	noff	71	0	4	na
67040	0	non	73	100	4	na
67400	360	noff	73	0	4	na
67400	0	non	76	104	4	na
67520	120	noff	76	0	4	na
67640	120	non	78	107	4	na
67880	240	noff	78	0	4	na
68000	120	non	81	109	4	na
68240	240	noff	81	0	4	na
68360	120	non	80	109	4	na
68480	120	noff	80	0	4	na
68600	120	non	78	104	4	na
69260	660	noff	78	0	4	na
69320	60	non	78	102	4	na
69440	120	noff	78	0	4	na
69440	0	non	80	104	4	na
69560	120	noff	80	0	4	na
69560	0	non	81	108	4	na
69800	240	noff	81	0	4	na
69920	120	non	83	109	4	na
70280	360	noff	83	0	4	na
70280	0	non	81	111	4	na
70400	120	noff	81	0	4	na
70520	120	non	80	111	4	na
70700	180	noff	80	0	4	na
70880	180	non	77	107	4	na
71240	360	noff	77	0	4	na
71240	0	non	73	104	4	na
71360	120	noff	73	0	4	na
71360	0	non	78	97	4	na
71590	230	noff	78	0	4	na
71590	0	non	76	92	4	na
71610	20	noff	76	0	4	na
71720	110	non	71	88	4	na
71960	240	noff	71	0	4	na
72080	120	non	73	94	4	na
72320	240	noff	73	0	4	na
72440	120	non	76	95	4	na
72560	120	noff	76	0	4	na
72680	120	non	78	97	4	na
72920	240	noff	78	0	4	na
73040	120	non	81	99	4	na
73400	360	noff	81	0	4	na
73400	0	non	80	97	4	na
73520	120	noff	80	0	4	na
73530	10	non	73	93	4	na
73570	40	noff	73	0	4	na
73570	0	non	78	98	4	na
73690	120	noff	78	0	4	na
73690	0	non	80	99	4	na
73810	120	noff	80	0	4	na
73810	0	non	81	101	4	na
74050	240	noff	81	0	4	na
74170	120	non	83	104	4	na
74470	300	noff	83	0	4	na
74530	60	non	81	106	4	na
74650	120	noff	81	0	4	na
74770	120	non	80	103	4	na
75070	300	noff	80	0	4	na
75130	60	non	77	99	4	na
75430	300	noff	77	0	4	na
75490	60	non	73	90	4	na
75610	120	noff	73	0	4	na
75630	20	non	80	93	4	na
75660	30	noff	80	0	4	na
75660	0	non	81	97	4	na
75720	60	noff	81	0	4	na
75730	10	non	81	91	4	na
75860	130	noff	81	0	4	na
75980	120	non	73	90	4	na
76060	80	noff	73	0	4	na
76060	0	non	76	92	4	na
76100	40	noff	76	0	4	na
76100	0	non	78	97	4	na
76130	30	noff	78	0	4	na
76140	10	non	76	91	4	na
76160	20	noff	76	0	4	na
76170	10	non	71	89	4	na
76260	90	noff	71	0	4	na
76320	60	non	73	89	4	na
76620	300	noff	73	0	4	na
76680	60	non	76	94	4	na
76800	120	noff	76	0	4	na
76810	10	non	78	95	4	na
76830	20	noff	78	0	4	na
76890	60	non	81	97	4	na
76920	30	noff	81	0	4	na
76920	0	non	80	99	4	na
76940	20	noff	80	0	4	na
76950	10	non	78	97	4	na
77010	60	noff	78	0	4	na
77070	60	non	78	100	4	na
77190	120	noff	78	0	4	na
77190	0	non	80	101	4	na
77310	120	noff	80	0	4	na
77310	0	non	78	102	4	na
77330	20	noff	78	0	4	na
77330	0	non	80	105	4	na
77360	30	noff	80	0	4	na
77380	20	non	78	108	4	na
77400	20	noff	78	0	4	na
77420	20	non	77	103	4	na
77470	50	noff	77	0	4	na
77470	0	non	73	100	4	na
77500	30	noff	73	0	4	na
77540	40	non	69	97	4	na
77620	80	noff	69	0	4	na
77720	100	non	73	94	4	na
77810	90	noff	73	0	4	na
cumTime	delTime	event	pitch	vel	chan	value
0	0	non	63	100	5	na
7	7	noff	63	0	5	na
7	0	non	65	104	5	na
301	294	noff	65	0	5	na
308	7	non	66	105	5	na
315	7	noff	66	0	5	na
315	0	non	65	100	5	na
329	14	noff	65	0	5	na
329	0	non	63	96	5	na
569	240	noff	63	0	5	na
569	0	non	61	91	5	na
929	360	noff	61	0	5	na
929	0	non	63	94	5	na
1289	360	noff	63	0	5	na
1289	0	non	70	91	5	na
1336	47	noff	70	0	5	na
1336	0	non	63	89	5	na
1350	14	noff	63	0	5	na
1470	120	non	63	93	5	na
1710	240	noff	63	0	5	na
1710	0	non	61	92	5	na
1950	240	noff	61	0	5	na
1950	0	non	63	88	5	na
2190	240	noff	63	0	5	na
2190	0	non	65	90	5	na
2310	120	noff	65	0	5	na
2310	0	non	63	91	5	na
2430	120	noff	63	0	5	na
2550	120	non	63	94	5	na
2670	120	noff	63	0	5	na
2670	0	non	61	90	5	na
2910	240	noff	61	0	5	na
2910	0	non	61	87	5	na
3150	240	noff	61	0	5	na
3150	0	non	53	85	5	na
3270	120	noff	53	0	5	na
3270	0	non	54	90	5	na
3390	120	noff	54	0	5	na
3390	0	non	61	93	5	na
3510	120	noff	61	0	5	na
3510	0	non	63	98	5	na
3630	120	noff	63	0	5	na
3630	0	non	53	83	5	na
3750	120	noff	53	0	5	na
3750	0	non	54	89	5	na
3870	120	noff	54	0	5	na
3870	0	non	65	98	5	na
3990	120	noff	65	0	5	na
3990	0	non	63	97	5	na
4110	120	noff	63	0	5	na
4110	0	non	61	92	5	na
4350	240	noff	61	0	5	na
4350	0	non	63	95	5	na
4590	240	noff	63	0	5	na
4590	0	non	65	97	5	na
4624	34	noff	65	0	5	na
4624	0	non	66	100	5	na
4671	47	noff	66	0	5	na
4671	0	non	63	88	5	na
4911	240	noff	63	0	5	na
4911	0	non	65	92	5	na
4938	27	noff	65	0	5	na
4938	0	non	66	96	5	na
5205	267	noff	66	0	5	na
5212	7	non	66	93	5	na
5319	107	noff	66	0	5	na
5319	0	non	75	106	5	na
5326	7	noff	75	0	5	na
5326	0	non	73	100	5	na
5346	20	noff	73	0	5	na
5346	0	non	75	103	5	na
5426	80	noff	75	0	5	na
5486	60	non	73	99	5	na
5513	27	noff	73	0	5	na
5513	0	non	68	91	5	na
5640	127	noff	68	0	5	na
5640	0	non	70	93	5	na
6000	360	noff	70	0	5	na
6120	120	non	70	87	5	na
6360	240	noff	70	0	5	na
6360	0	non	73	91	5	na
6600	240	noff	73	0	5	na
6600	0	non	75	94	5	na
6840	240	noff	75	0	5	na
6840	0	non	77	98	5	na
6960	120	noff	77	0	5	na
6960	0	non	75	95	5	na
7080	120	noff	75	0	5	na
7087	7	non	73	90	5	na
7107	20	noff	73	0	5	na
7107	0	non	70	89	5	na
7114	7	noff	70	0	5	na
7114	0	non	70	85	5	na
7174	60	noff	70	0	5	na
7174	0	non	68	84	5	na
7401	227	noff	68	0	5	na
7401	0	non	70	81	5	na
7415	14	noff	70	0	5	na
7415	0	non	70	89	5	na
7422	7	noff	70	0	5	na
20596	13174	non	61	91	5	na
20716	120	noff	61	0	5	na
20716	0	non	66	95	5	na
20836	120	noff	66	0	5	na
20836	0	non	66	98	5	na
20956	120	noff	66	0	5	na
21076	120	non	69	100	5	na
21196	120	noff	69	0	5	na
21316	120	non	66	94	5	na
21436	120	noff	66	0	5	na
21556	120	non	64	86	5	na
21676	120	noff	64	0	5	na
21796	120	non	66	90	5	na
21916	120	noff	66	0	5	na
22036	120	non	68	93	5	na
22056	20	noff	68	0	5	na
22056	0	non	73	96	5	na
22096	40	noff	73	0	5	na
22096	0	non	76	102	5	na
22106	10	noff	76	0	5	na
22106	0	non	78	104	5	na
22126	20	noff	78	0	5	na
22196	70	non	76	96	5	na
22316	120	noff	76	0	5	na
22316	0	non	71	96	5	na
22446	130	noff	71	0	5	na
22446	0	non	73	98	5	na
22686	240	noff	73	0	5	na
22746	60	non	76	103	5	na
22866	120	noff	76	0	5	na
22876	10	non	78	109	5	na
23116	240	noff	78	0	5	na
23236	120	non	81	107	5	na
23266	30	noff	81	0	5	na
23266	0	non	80	107	5	na
23286	20	noff	80	0	5	na
23286	0	non	73	105	5	na
23576	290	noff	73	0	5	na
23696	120	non	78	99	5	na
23816	120	noff	78	0	5	na
23816	0	non	80	101	5	na
23936	120	noff	80	0	5	na
23936	0	non	81	101	5	na
24056	120	noff	81	0	5	na
24066	10	non	81	81	5	na
24076	10	noff	81	0	5	na
24076	0	non	83	104	5	na
24096	20	noff	83	0	5	na
24096	0	non	81	102	5	na
24146	50	noff	81	0	5	na
24146	0	non	80	102	5	na
24276	130	noff	80	0	5	na
24276	0	non	77	99	5	na
24356	80	noff	77	0	5	na
24416	60	non	73	89	5	na
24436	20	noff	73	0	5	na
24466	30	non	80	97	5	na
24476	10	noff	80	0	5	na
24486	10	non	81	91	5	na
24506	20	noff	81	0	5	na
24516	10	non	81	96	5	na
24526	10	noff	81	0	5	na
24526	0	non	73	96	5	na
24556	30	noff	73	0	5	na
24556	0	non	76	96	5	na
24566	10	noff	76	0	5	na
24566	0	non	78	100	5	na
24586	20	noff	78	0	5	na
24586	0	non	76	97	5	na
24646	60	noff	76	0	5	na
24646	0	non	70	94	5	na
24676	30	noff	70	0	5	na
24676	0	non	71	92	5	na
24726	50	noff	71	0	5	na
24726	0	non	73	82	5	na
24746	20	noff	73	0	5	na
24866	120	non	76	91	5	na
24986	120	noff	76	0	5	na
25106	120	non	78	94	5	na
25346	240	noff	78	0	5	na
25466	120	non	81	102	5	na
25706	240	noff	81	0	5	na
25826	120	non	80	98	5	na
26006	180	noff	80	0	5	na
26006	0	non	78	94	5	na
26016	10	noff	78	0	5	na
26016	0	non	78	91	5	na
26056	40	noff	78	0	5	na
26056	0	non	80	92	5	na
26066	10	noff	80	0	5	na
26066	0	non	81	94	5	na
26296	230	noff	81	0	5	na
26416	120	non	83	100	5	na
26656	240	noff	83	0	5	na
26776	120	non	81	104	5	na
26896	120	noff	81	0	5	na
27016	120	non	80	101	5	na
27256	240	noff	80	0	5	na
27376	120	non	77	94	5	na
27736	360	noff	77	0	5	na
27736	0	non	73	88	5	na
27856	120	noff	73	0	5	na
27856	0	non	78	92	5	na
27876	20	noff	78	0	5	na
27876	0	non	76	87	5	na
27906	30	noff	76	0	5	na
27916	10	non	70	78	5	na
27946	30	noff	70	0	5	na
27946	0	non	71	78	5	na
28096	150	noff	71	0	5	na
28216	120	non	73	86	5	na
28456	240	noff	73	0	5	na
28576	120	non	76	93	5	na
28696	120	noff	76	0	5	na
28816	120	non	78	96	5	na
29056	240	noff	78	0	5	na
29056	0	non	81	100	5	na
29086	30	noff	81	0	5	na
29166	80	non	80	99	5	na
29266	100	noff	80	0	5	na
29266	0	non	73	86	5	na
29716	450	noff	73	0	5	na
29776	60	non	78	91	5	na
29896	120	noff	78	0	5	na
29896	0	non	80	95	5	na
30016	120	noff	80	0	5	na
30016	0	non	81	99	5	na
30196	180	noff	81	0	5	na
30376	180	non	83	102	5	na
30676	300	noff	83	0	5	na
30736	60	non	81	102	5	na
30856	120	noff	81	0	5	na
30976	120	non	80	97	5	na
31276	300	noff	80	0	5	na
31336	60	non	77	95	5	na
31636	300	noff	77	0	5	na
31696	60	non	73	93	5	na
31876	180	noff	73	0	5	na
31896	20	non	80	93	5	na
31936	40	noff	80	0	5	na
31936	0	non	81	86	5	na
31946	10	noff	81	0	5	na
31966	20	non	81	100	5	na
32096	130	noff	81	0	5	na
32186	90	non	73	92	5	na
32256	70	noff	73	0	5	na
32256	0	non	76	94	5	na
32376	120	noff	76	0	5	na
32376	0	non	78	97	5	na
32436	60	noff	78	0	5	na
32446	10	non	76	92	5	na
32486	40	noff	76	0	5	na
32486	0	non	71	86	5	na
32716	230	noff	71	0	5	na
32776	60	non	73	88	5	na
33076	300	noff	73	0	5	na
33136	60	non	76	91	5	na
33256	120	noff	76	0	5	na
33346	90	non	78	94	5	na
33356	10	noff	78	0	5	na
33376	20	non	81	100	5	na
33446	70	noff	81	0	5	na
33506	60	non	80	99	5	na
33686	180	noff	80	0	5	na
33686	0	non	78	94	5	na
33946	260	noff	78	0	5	na
34006	60	non	78	99	5	na
34016	10	noff	78	0	5	na
34016	0	non	80	101	5	na
34026	10	noff	80	0	5	na
34026	0	non	81	105	5	na
34036	10	noff	81	0	5	na
34096	60	non	83	104	5	na
34106	10	noff	83	0	5	na
34106	0	non	81	103	5	na
34136	30	noff	81	0	5	na
34186	50	non	80	101	5	na
34206	20	noff	80	0	5	na
34236	30	non	77	98	5	na
34446	210	noff	77	0	5	na
34566	120	non	73	93	5	na
34686	120	noff	73	0	5	na
34706	20	non	78	96	5	na
34716	10	noff	78	0	5	na
34716	0	non	73	87	5	na
34726	10	noff	73	0	5	na
34726	0	non	64	83	5	na
34746	20	noff	64	0	5	na
34746	0	non	66	80	5	na
34996	250	noff	66	0	5	na
35086	90	non	66	85	5	na
35386	300	noff	66	0	5	na
35446	60	non	68	91	5	na
35746	300	noff	68	0	5	na
35806	60	non	69	97	5	na
35926	120	noff	69	0	5	na
36046	120	non	71	100	5	na
36126	80	noff	71	0	5	na
36126	0	non	68	88	5	na
36216	90	noff	68	0	5	na
36216	0	non	69	95	5	na
36516	300	noff	69	0	5	na
36576	60	non	68	92	5	na
36876	300	noff	68	0	5	na
36996	120	non	64	83	5	na
37116	120	noff	64	0	5	na
37176	60	non	61	82	5	na
37726	550	noff	61	0	5	na
37726	0	non	63	100	5	na
37733	7	noff	63	0	5	na
37733	0	non	65	104	5	na
38027	294	noff	65	0	5	na
38034	7	non	66	105	5	na
38041	7	noff	66	0	5	na
38041	0	non	65	100	5	na
38055	14	noff	65	0	5	na
38055	0	non	63	96	5	na
38295	240	noff	63	0	5	na
38295	0	non	61	91	5	na
38655	360	noff	61	0	5	na
38655	0	non	63	94	5	na
39015	360	noff	63	0	5	na
39015	0	non	70	91	5	na
39062	47	noff	70	0	5	na
39062	0	non	63	89	5	na
39076	14	noff	63	0	5	na
39196	120	non	63	93	5	na
39436	240	noff	63	0	5	na
39436	0	non	61	92	5	na
39676	240	noff	61	0	5	na
39676	0	non	63	88	5	na
39916	240	noff	63	0	5	na
39916	0	non	65	90	5	na
40036	120	noff	65	0	5	na
40036	0	non	63	91	5	na
40156	120	noff	63	0	5	na
40276	120	non	63	94	5	na
40396	120	noff	63	0	5	na
40396	0	non	61	90	5	na
40636	240	noff	61	0	5	na
40636	0	non	61	87	5	na
40876	240	noff	61	0	5	na
40876	0	non	53	85	5	na
40996	120	noff	53	0	5	na
40996	0	non	54	90	5	na
41116	120	noff	54	0	5	na
41116	0	non	61	93	5	na
41236	120	noff	61	0	5	na
41236	0	non	63	98	5	na
41356	120	noff	63	0	5	na
41356	0	non	53	83	5	na
41476	120	noff	53	0	5	na
41476	0	non	54	89	5	na
41596	120	noff	54	0	5	na
41596	0	non	65	98	5	na
41716	120	noff	65	0	5	na
41716	0	non	63	97	5	na
41836	120	noff	63	0	5	na
41836	0	non	61	92	5	na
42076	240	noff	61	0	5	na
42076	0	non	63	95	5	na
42316	240	noff	63	0	5	na
42316	0	non	65	97	5	na
42350	34	noff	65	0	5	na
42350	0	non	66	100	5	na
42397	47	noff	66	0	5	na
42397	0	non	63	88	5	na
42637	240	noff	63	0	5	na
42637	0	non	65	92	5	na
42664	27	noff	65	0	5	na
42664	0	non	66	96	5	na
42931	267	noff	66	0	5	na
42938	7	non	66	93	5	na
43045	107	noff	66	0	5	na
43045	0	non	75	106	5	na
43052	7	noff	75	0	5	na
43052	0	non	73	100	5	na
43072	20	noff	73	0	5	na
43072	0	non	75	103	5	na
43152	80	noff	75	0	5	na
43212	60	non	73	99	5	na
43239	27	noff	73	0	5	na
43239	0	non	68	91	5	na
43366	127	noff	68	0	5	na
43366	0	non	70	93	5	na
43726	360	noff	70	0	5	na
43846	120	non	70	87	5	na
44086	240	noff	70	0	5	na
44086	0	non	73	91	5	na
44326	240	noff	73	0	5	na
44326	0	non	75	94	5	na
44566	240	noff	75	0	5	na
44566	0	non	77	98	5	na
44686	120	noff	77	0	5	na
44686	0	non	75	95	5	na
44806	120	noff	75	0	5	na
44813	7	non	73	90	5	na
44833	20	noff	73	0	5	na
44833	0	non	70	89	5	na
44840	7	noff	70	0	5	na
44840	0	non	70	85	5	na
44900	60	noff	70	0	5	na
44900	0	non	68	84	5	na
45127	227	noff	68	0	5	na
45127	0	non	70	81	5	na
45141	14	noff	70	0	5	na
45141	0	non	70	89	5	na
45148	7	noff	70	0	5	na
58322	13174	non	61	91	5	na
58442	120	noff	61	0	5	na
58442	0	non	66	95	5	na
58562	120	noff	66	0	5	na
58562	0	non	66	98	5	na
58682	120	noff	66	0	5	na
58802	120	non	69	100	5	na
58922	120	noff	69	0	5	na
59042	120	non	66	94	5	na
59162	120	noff	66	0	5	na
59282	120	non	64	86	5	na
59402	120	noff	64	0	5	na
59522	120	non	66	90	5	na
59642	120	noff	66	0	5	na
59762	120	non	68	93	5	na
59782	20	noff	68	0	5	na
59782	0	non	73	96	5	na
59822	40	noff	73	0	5	na
59822	0	non	76	102	5	na
59832	10	noff	76	0	5	na
59832	0	non	78	104	5	na
59852	20	noff	78	0	5	na
59922	70	non	76	96	5	na
60042	120	noff	76	0	5	na
60042	0	non	71	96	5	na
60172	130	noff	71	0	5	na
60172	0	non	73	98	5	na
60412	240	noff	73	0	5	na
60472	60	non	76	103	5	na
60592	120	noff	76	0	5	na
60602	10	non	78	109	5	na
60842	240	noff	78	0	5	na
60962	120	non	81	107	5	na
60992	30	noff	81	0	5	na
60992	0	non	80	107	5	na
61012	20	noff	80	0	5	na
61012	0	non	73	105	5	na
61302	290	noff	73	0	5	na
61422	120	non	78	99	5	na
61542	120	noff	78	0	5	na
61542	0	non	80	101	5	na
61662	120	noff	80	0	5	na
61662	0	non	81	101	5	na
61782	120	noff	81	0	5	na
61792	10	non	81	81	5	na
61802	10	noff	81	0	5	na
61802	0	non	83	104	5	na
61822	20	noff	83	0	5	na
61822	0	non	81	102	5	na
61872	50	noff	81	0	5	na
61872	0	non	80	102	5	na
62002	130	noff	80	0	5	na
62002	0	non	77	99	5	na
62082	80	noff	77	0	5	na
62142	60	non	73	89	5	na
62162	20	noff	73	0	5	na
62192	30	non	80	97	5	na
62202	10	noff	80	0	5	na
62212	10	non	81	91	5	na
62232	20	noff	81	0	5	na
62242	10	non	81	96	5	na
62252	10	noff	81	0	5	na
62252	0	non	73	96	5	na
62282	30	noff	73	0	5	na
62282	0	non	76	96	5	na
62292	10	noff	76	0	5	na
62292	0	non	78	100	5	na
62312	20	noff	78	0	5	na
62312	0	non	76	97	5	na
62372	60	noff	76	0	5	na
62372	0	non	70	94	5	na
62402	30	noff	70	0	5	na
62402	0	non	71	92	5	na
62452	50	noff	71	0	5	na
62452	0	non	73	82	5	na
62472	20	noff	73	0	5	na
62592	120	non	76	91	5	na
62712	120	noff	76	0	5	na
62832	120	non	78	94	5	na
63072	240	noff	78	0	5	na
63192	120	non	81	102	5	na
63432	240	noff	81	0	5	na
63552	120	non	80	98	5	na
63732	180	noff	80	0	5	na
63732	0	non	78	94	5	na
63742	10	noff	78	0	5	na
63742	0	non	78	91	5	na
63782	40	noff	78	0	5	na
63782	0	non	80	92	5	na
63792	10	noff	80	0	5	na
63792	0	non	81	94	5	na
64022	230	noff	81	0	5	na
64142	120	non	83	100	5	na
64382	240	noff	83	0	5	na
64502	120	non	81	104	5	na
64622	120	noff	81	0	5	na
64742	120	non	80	101	5	na
64982	240	noff	80	0	5	na
65102	120	non	77	94	5	na
65462	360	noff	77	0	5	na
65462	0	non	73	88	5	na
65582	120	noff	73	0	5	na
65582	0	non	78	92	5	na
65602	20	noff	78	0	5	na
65602	0	non	76	87	5	na
65632	30	noff	76	0	5	na
65642	10	non	70	78	5	na
65672	30	noff	70	0	5	na
65672	0	non	71	78	5	na
65822	150	noff	71	0	5	na
65942	120	non	73	86	5	na
66182	240	noff	73	0	5	na
66302	120	non	76	93	5	na
66422	120	noff	76	0	5	na
66542	120	non	78	96	5	na
66782	240	noff	78	0	5	na
66782	0	non	81	100	5	na
66812	30	noff	81	0	5	na
66892	80	non	80	99	5	na
66992	100	noff	80	0	5	na
66992	0	non	73	86	5	na
67442	450	noff	73	0	5	na
67502	60	non	78	91	5	na
67622	120	noff	78	0	5	na
67622	0	non	80	95	5	na
67742	120	noff	80	0	5	na
67742	0	non	81	99	5	na
67922	180	noff	81	0	5	na
68102	180	non	83	102	5	na
68402	300	noff	83	0	5	na
68462	60	non	81	102	5	na
68582	120	noff	81	0	5	na
68702	120	non	80	97	5	na
69002	300	noff	80	0	5	na
69062	60	non	77	95	5	na
69362	300	noff	77	0	5	na
69422	60	non	73	93	5	na
69602	180	noff	73	0	5	na
69622	20	non	80	93	5	na
69662	40	noff	80	0	5	na
69662	0	non	81	86	5	na
69672	10	noff	81	0	5	na
69692	20	non	81	100	5	na
69822	130	noff	81	0	5	na
69912	90	non	73	92	5	na
69982	70	noff	73	0	5	na
69982	0	non	76	94	5	na
70102	120	noff	76	0	5	na
70102	0	non	78	97	5	na
70162	60	noff	78	0	5	na
70172	10	non	76	92	5	na
70212	40	noff	76	0	5	na
70212	0	non	71	86	5	na
70442	230	noff	71	0	5	na
70502	60	non	73	88	5	na
70802	300	noff	73	0	5	na
70862	60	non	76	91	5	na
70982	120	noff	76	0	5	na
71072	90	non	78	94	5	na
71082	10	noff	78	0	5	na
71102	20	non	81	100	5	na
71172	70	noff	81	0	5	na
71232	60	non	80	99	5	na
71412	180	noff	80	0	5	na
71412	0	non	78	94	5	na
71672	260	noff	78	0	5	na
71732	60	non	78	99	5	na
71742	10	noff	78	0	5	na
71742	0	non	80	101	5	na
71752	10	noff	80	0	5	na
71752	0	non	81	105	5	na
71762	10	noff	81	0	5	na
71822	60	non	83	104	5	na
71832	10	noff	83	0	5	na
71832	0	non	81	103	5	na
71862	30	noff	81	0	5	na
71912	50	non	80	101	5	na
71932	20	noff	80	0	5	na
71962	30	non	77	98	5	na
72172	210	noff	77	0	5	na
72292	120	non	73	93	5	na
72412	120	noff	73	0	5	na
72432	20	non	78	96	5	na
72482	50	noff	78	0	5	na
cumTime	delTime	event	pitch	vel	chan	value
2718	2718	non	45	100	6	na
4638	1920	noff	45	0	6	na
4638	0	non	40	100	6	na
6558	1920	noff	40	0	6	na
6558	0	non	37	100	6	na
8478	1920	noff	37	0	6	na
8478	0	non	42	100	6	na
8718	240	noff	42	0	6	na
8718	0	non	54	100	6	na
8838	120	noff	54	0	6	na
8958	120	non	42	100	6	na
9198	240	noff	42	0	6	na
9198	0	non	54	100	6	na
9318	120	noff	54	0	6	na
9438	120	non	42	100	6	na
9678	240	noff	42	0	6	na
9678	0	non	54	100	6	na
9798	120	noff	54	0	6	na
9918	120	non	42	100	6	na
10158	240	noff	42	0	6	na
10158	0	non	54	100	6	na
10278	120	noff	54	0	6	na
10398	120	non	35	100	6	na
12318	1920	noff	35	0	6	na
12318	0	non	35	100	6	na
12558	240	noff	35	0	6	na
12558	0	non	37	100	6	na
12798	240	noff	37	0	6	na
12887	89	noff	28	134	4	na
12927	40	noff	0	10	4	na
25983	13056	noff	64	50	4	na
28839	2856	noff	100	120	4	na
41895	13056	noff	64	129	4	na
42007	112	noff	40	0	6	na
42007	0	non	40	100	6	na
42187	180	noff	40	0	6	na
42247	60	non	42	100	6	na
44167	1920	noff	42	0	6	na
44167	0	non	42	100	6	na
46087	1920	noff	42	0	6	na
46087	0	non	50	100	6	na
46747	660	noff	50	0	6	na
46807	60	non	50	100	6	na
46927	120	noff	50	0	6	na
46927	0	non	62	100	6	na
47367	440	noff	62	0	6	na
47367	0	non	54	100	6	na
47527	160	noff	54	0	6	na
47527	0	non	61	100	6	na
48007	480	noff	61	0	6	na
48007	0	non	47	100	6	na
49927	1920	noff	47	0	6	na
49927	0	non	44	100	6	na
50407	480	noff	44	0	6	na
50407	0	non	49	100	6	na
50647	240	noff	49	0	6	na
50647	0	non	53	100	6	na
50887	240	noff	53	0	6	na
50887	0	non	56	100	6	na
51127	240	noff	56	0	6	na
51127	0	non	49	100	6	na
51247	120	noff	49	0	6	na
51247	0	non	53	100	6	na
51367	120	noff	53	0	6	na
51487	120	non	57	100	6	na
51607	120	noff	57	0	6	na
51607	0	non	61	100	6	na
51727	120	noff	61	0	6	na
51727	0	non	57	100	6	na
51847	120	noff	57	0	6	na
51847	0	non	54	100	6	na
52087	240	noff	54	0	6	na
52087	0	non	61	100	6	na
52327	240	noff	61	0	6	na
52327	0	non	54	100	6	na
52507	180	non	61	100	6	na
52567	60	noff	54	0	6	na
52747	180	noff	61	0	6	na
52807	60	non	54	100	6	na
53047	240	noff	54	0	6	na
53047	0	non	61	100	6	na
53287	240	noff	61	0	6	na
53287	0	non	54	100	6	na
53527	240	noff	54	0	6	na
53527	0	non	52	100	6	na
53767	240	noff	52	0	6	na
53767	0	non	38	100	6	na
54247	480	noff	38	0	6	na
54487	240	non	38	100	6	na
54607	120	noff	38	0	6	na
54727	120	non	40	100	6	na
55207	480	noff	40	0	6	na
55207	0	non	38	100	6	na
55387	180	noff	38	0	6	na
55447	60	non	38	100	6	na
55627	180	noff	38	0	6	na
55687	60	non	35	100	6	na
55927	240	noff	35	0	6	na
55927	0	non	37	100	6	na
56167	240	noff	37	0	6	na
56256	89	noff	112	150	1	na
56308	52	noff	100	129	1	na
56420	112	noff	52	0	6	na
56480	60	noff	40	0	6	na
56480	0	non	40	100	6	na
56780	300	noff	40	0	6	na
56840	60	noff	56	0	6	na
56840	0	non	54	100	6	na
56840	0	non	42	100	6	na
57020	180	noff	42	0	6	na
57080	60	noff	54	0	6	na
57080	0	non	37	100	6	na
57740	660	noff	37	0	6	na
57800	60	non	54	100	6	na
57980	180	noff	54	0	6	na
58040	60	non	37	100	6	na
58460	420	noff	37	0	6	na
58520	60	non	37	100	6	na
58760	240	noff	37	0	6	na
58760	0	non	40	100	6	na
59000	240	noff	40	0	6	na
59000	0	non	37	100	6	na
59720	720	noff	37	0	6	na
59720	0	non	37	100	6	na
59900	180	noff	37	0	6	na
59960	60	non	42	100	6	na
60200	240	noff	42	0	6	na
60440	240	non	49	100	6	na
60920	480	noff	49	0	6	na
60920	0	non	39	100	6	na
61160	240	non	51	100	6	na
61160	0	non	54	100	6	na
61280	120	noff	54	0	6	na
61280	0	noff	51	0	6	na
61520	240	non	51	100	6	na
61520	0	non	54	100	6	na
61760	240	noff	54	0	6	na
61760	0	noff	51	0	6	na
61880	120	noff	39	0	6	na
61880	0	non	37	100	6	na
62120	240	non	49	100	6	na
62120	0	non	53	100	6	na
62240	120	noff	53	0	6	na
62240	0	noff	49	0	6	na
62480	240	non	51	100	6	na
62480	0	non	54	100	6	na
62780	300	noff	54	0	6	na
62780	0	noff	51	0	6	na
62840	60	noff	37	0	6	na
62840	0	non	39	100	6	na
63080	240	non	51	100	6	na
63080	0	non	54	100	6	na
63200	120	noff	54	0	6	na
63200	0	noff	51	0	6	na
63440	240	non	51	100	6	na
63440	0	non	54	100	6	na
63680	240	noff	54	0	6	na
63680	0	noff	51	0	6	na
63680	0	non	46	100	6	na
63800	120	noff	39	0	6	na
63800	0	noff	46	0	6	na
63800	0	non	37	100	6	na
64040	240	non	49	100	6	na
64040	0	non	53	100	6	na
64160	120	noff	53	0	6	na
64160	0	noff	49	0	6	na
64400	240	non	49	100	6	na
64400	0	non	53	100	6	na
64700	300	noff	53	0	6	na
64700	0	noff	49	0	6	na
64760	60	noff	37	0	6	na
64760	0	non	35	100	6	na
65000	240	non	47	100	6	na
65000	0	non	51	100	6	na
65120	120	noff	51	0	6	na
65120	0	noff	47	0	6	na
65360	240	non	47	100	6	na
65360	0	non	51	100	6	na
65600	240	noff	51	0	6	na
65600	0	noff	47	0	6	na
65720	120	noff	35	0	6	na
65720	0	non	37	100	6	na
65960	240	non	49	100	6	na
65960	0	non	53	100	6	na
66080	120	noff	53	0	6	na
66080	0	noff	49	0	6	na
66320	240	non	49	100	6	na
66320	0	non	53	100	6	na
66560	240	noff	53	0	6	na
66560	0	noff	49	0	6	na
66560	0	non	46	100	6	na
66680	120	noff	37	0	6	na
66680	0	noff	46	0	6	na
66680	0	non	35	100	6	na
66920	240	non	47	100	6	na
66920	0	non	51	100	6	na
67040	120	noff	51	0	6	na
67040	0	noff	47	0	6	na
67280	240	non	47	100	6	na
67280	0	non	51	100	6	na
67520	240	noff	51	0	6	na
67520	0	noff	47	0	6	na
67640	120	noff	35	0	6	na
67640	0	non	35	100	6	na
67880	240	non	47	100	6	na
67880	0	non	51	100	6	na
68000	120	noff	51	0	6	na
68000	0	noff	47	0	6	na
68120	120	noff	35	0	6	na
68120	0	non	37	100	6	na
68240	120	non	47	100	6	na
68240	0	non	51	100	6	na
68480	240	noff	51	0	6	na
68480	0	noff	47	0	6	na
68480	0	non	53	100	6	na
68600	120	noff	37	0	6	na
68600	0	noff	53	0	6	na
68600	0	non	39	100	6	na
68840	240	non	51	100	6	na
68840	0	non	54	100	6	na
68960	120	noff	54	0	6	na
68960	0	noff	51	0	6	na
69200	240	non	46	100	6	na
69200	0	non	51	100	6	na
69440	240	noff	51	0	6	na
69440	0	noff	46	0	6	na
69560	120	noff	39	0	6	na
69560	0	non	37	100	6	na
69800	240	non	49	100	6	na
69800	0	non	53	100	6	na
69920	120	noff	53	0	6	na
69920	0	noff	49	0	6	na
70160	240	non	51	100	6	na
70160	0	non	54	100	6	na
70400	240	noff	54	0	6	na
70400	0	noff	51	0	6	na
70520	120	noff	37	0	6	na
70520	0	non	39	100	6	na
70760	240	non	51	100	6	na
70760	0	non	54	100	6	na
70880	120	noff	54	0	6	na
70880	0	noff	51	0	6	na
71120	240	non	51	100	6	na
71120	0	non	54	100	6	na
71360	240	noff	54	0	6	na
71360	0	noff	51	0	6	na
71360	0	non	49	100	6	na
71480	120	noff	39	0	6	na
71480	0	noff	49	0	6	na
71480	0	non	37	100	6	na
71720	240	non	49	100	6	na
71720	0	non	53	100	6	na
71840	120	noff	53	0	6	na
71840	0	noff	49	0	6	na
72080	240	non	49	100	6	na
72080	0	non	53	100	6	na
72380	300	noff	53	0	6	na
72380	0	noff	49	0	6	na
72440	60	noff	37	0	6	na
72440	0	non	35	100	6	na
72680	240	non	47	100	6	na
72680	0	non	51	100	6	na
72800	120	noff	51	0	6	na
72800	0	noff	47	0	6	na
73040	240	non	47	100	6	na
73040	0	non	51	100	6	na
73280	240	noff	51	0	6	na
73280	0	noff	47	0	6	na
73400	120	noff	35	0	6	na
73400	0	non	37	100	6	na
73640	240	non	49	100	6	na
73640	0	non	53	100	6	na
73760	120	noff	53	0	6	na
73760	0	noff	49	0	6	na
74000	240	non	49	100	6	na
74000	0	non	53	100	6	na
74240	240	noff	53	0	6	na
74240	0	noff	49	0	6	na
74360	120	noff	37	0	6	na
74360	0	non	39	100	6	na
74600	240	non	46	100	6	na
74600	0	non	51	100	6	na
74720	120	noff	51	0	6	na
74720	0	noff	46	0	6	na
74960	240	non	46	100	6	na
74960	0	non	51	100	6	na
75200	240	noff	51	0	6	na
75200	0	noff	46	0	6	na
75320	120	noff	39	0	6	na
75320	0	non	39	100	6	na
75560	240	non	46	100	6	na
75560	0	non	51	100	6	na
75680	120	noff	51	0	6	na
75680	0	noff	46	0	6	na
75920	240	non	46	100	6	na
75920	0	non	51	100	6	na
76040	120	noff	51	0	6	na
76040	0	noff	46	0	6	na
76040	0	non	46	100	6	na
76040	0	non	51	100	6	na
76220	180	noff	51	0	6	na
76220	0	noff	46	0	6	na
76280	60	noff	39	0	6	na
76280	0	non	39	100	6	na
76520	240	non	51	100	6	na
76520	0	non	54	100	6	na
76640	120	noff	54	0	6	na
76640	0	noff	51	0	6	na
76880	240	non	51	100	6	na
76880	0	non	54	100	6	na
77120	240	noff	54	0	6	na
77120	0	noff	51	0	6	na
77240	120	noff	39	0	6	na
77240	0	non	37	100	6	na
77480	240	non	49	100	6	na
77480	0	non	53	100	6	na
77600	120	noff	53	0	6	na
77600	0	noff	49	0	6	na
77840	240	non	51	100	6	na
77840	0	non	54	100	6	na
78140	300	noff	54	0	6	na
78140	0	noff	51	0	6	na
78200	60	noff	37	0	6	na
78200	0	non	39	100	6	na
78440	240	non	51	100	6	na
78440	0	non	54	100	6	na
78560	120	noff	54	0	6	na
78560	0	noff	51	0	6	na
78800	240	non	51	100	6	na
78800	0	non	54	100	6	na
79040	240	noff	54	0	6	na
79040	0	noff	51	0	6	na
79040	0	non	46	100	6	na
79160	120	noff	39	0	6	na
79160	0	noff	46	0	6	na
79160	0	non	37	100	6	na
79400	240	non	49	100	6	na
79400	0	non	53	100	6	na
79520	120	noff	53	0	6	na
79520	0	noff	49	0	6	na
79760	240	non	49	100	6	na
79760	0	non	53	100	6	na
80060	300	noff	53	0	6	na
80060	0	noff	49	0	6	na
80120	60	noff	37	0	6	na
80120	0	non	35	100	6	na
80360	240	non	47	100	6	na
80360	0	non	51	100	6	na
80480	120	noff	51	0	6	na
80480	0	noff	47	0	6	na
80720	240	non	47	100	6	na
80720	0	non	51	100	6	na
80960	240	noff	51	0	6	na
80960	0	noff	47	0	6	na
81080	120	noff	35	0	6	na
81080	0	non	37	100	6	na
81320	240	non	49	100	6	na
81320	0	non	53	100	6	na
81440	120	noff	53	0	6	na
81440	0	noff	49	0	6	na
81680	240	non	49	100	6	na
81680	0	non	53	100	6	na
81920	240	noff	53	0	6	na
81920	0	noff	49	0	6	na
81920	0	non	46	100	6	na
82040	120	noff	37	0	6	na
82040	0	noff	46	0	6	na
82040	0	non	35	100	6	na
82280	240	non	47	100	6	na
82280	0	non	51	100	6	na
82400	120	noff	51	0	6	na
82400	0	noff	47	0	6	na
82640	240	non	47	100	6	na
82640	0	non	51	100	6	na
82880	240	noff	51	0	6	na
82880	0	noff	47	0	6	na
83000	120	noff	35	0	6	na
83000	0	non	35	100	6	na
83240	240	non	47	100	6	na
83240	0	non	51	100	6	na
83360	120	noff	51	0	6	na
83360	0	noff	47	0	6	na
83480	120	noff	35	0	6	na
83480	0	non	37	100	6	na
83600	120	non	47	100	6	na
83600	0	non	51	100	6	na
83840	240	noff	51	0	6	na
83840	0	noff	47	0	6	na
83840	0	non	53	100	6	na
83960	120	noff	37	0	6	na
83960	0	noff	53	0	6	na
83960	0	non	39	100	6	na
84200	240	non	51	100	6	na
84200	0	non	54	100	6	na
84320	120	noff	54	0	6	na
84320	0	noff	51	0	6	na
84560	240	non	46	100	6	na
84560	0	non	51	100	6	na
84800	240	noff	51	0	6	na
84800	0	noff	46	0	6	na
84920	120	noff	39	0	6	na
84920	0	non	37	100	6	na
85160	240	non	49	100	6	na
85160	0	non	53	100	6	na
85280	120	noff	53	0	6	na
85280	0	noff	49	0	6	na
85520	240	non	51	100	6	na
85520	0	non	54	100	6	na
85760	240	noff	54	0	6	na
85760	0	noff	51	0	6	na
85880	120	noff	37	0	6	na
85880	0	non	39	100	6	na
86120	240	non	51	100	6	na
86120	0	non	54	100	6	na
86240	120	noff	54	0	6	na
86240	0	noff	51	0	6	na
86480	240	non	51	100	6	na
86480	0	non	54	100	6	na
86720	240	noff	54	0	6	na
86720	0	noff	51	0	6	na
86720	0	non	49	100	6	na
86840	120	noff	39	0	6	na
86840	0	noff	49	0	6	na
86840	0	non	37	100	6	na
87080	240	non	49	100	6	na
87080	0	non	53	100	6	na
87200	120	noff	53	0	6	na
87200	0	noff	49	0	6	na
87440	240	non	49	100	6	na
87440	0	non	53	100	6	na
87740	300	noff	53	0	6	na
87740	0	noff	49	0	6	na
87800	60	noff	37	0	6	na
87800	0	non	35	100	6	na
88040	240	non	47	100	6	na
88040	0	non	51	100	6	na
88160	120	noff	51	0	6	na
88160	0	noff	47	0	6	na
88400	240	non	47	100	6	na
88400	0	non	51	100	6	na
88640	240	noff	51	0	6	na
88640	0	noff	47	0	6	na
88760	120	noff	35	0	6	na
88760	0	non	37	100	6	na
89000	240	non	49	100	6	na
89000	0	non	53	100	6	na
89120	120	noff	53	0	6	na
89120	0	noff	49	0	6	na
89360	240	non	49	100	6	na
89360	0	non	53	100	6	na
89600	240	noff	53	0	6	na
89600	0	noff	49	0	6	na
89720	120	noff	37	0	6	na
89720	0	non	39	100	6	na
89960	240	non	46	100	6	na
89960	0	non	51	100	6	na
90080	120	noff	51	0	6	na
90080	0	noff	46	0	6	na
90320	240	non	46	100	6	na
90320	0	non	51	100	6	na
90560	240	noff	51	0	6	na
90560	0	noff	46	0	6	na
90680	120	noff	39	0	6	na
90680	0	non	39	100	6	na
90920	240	non	46	100	6	na
90920	0	non	51	100	6	na
91040	120	noff	51	0	6	na
91040	0	noff	46	0	6	na
91280	240	non	46	100	6	na
91280	0	non	51	100	6	na
91400	120	noff	51	0	6	na
91400	0	noff	46	0	6	na
91400	0	non	46	100	6	na
91400	0	non	51	100	6	na
91580	180	noff	51	0	6	na
91580	0	noff	46	0	6	na
91640	60	noff	39	0	6	na
91640	0	non	35	100	6	na
91640	0	non	47	100	6	na
92120	480	noff	35	0	6	na
92120	0	noff	47	0	6	na
92600	480	non	35	100	6	na
92600	0	non	47	100	6	na
93080	480	noff	35	0	6	na
93080	0	noff	47	0	6	na
93560	480	non	35	100	6	na
93800	240	noff	35	0	6	na
93800	0	non	47	100	6	na
93800	0	non	42	100	6	na
93920	120	noff	47	0	6	na
93920	0	noff	42	0	6	na
94040	120	non	35	100	6	na
94280	240	noff	35	0	6	na
94280	0	non	46	100	6	na
94280	0	non	51	100	6	na
94400	120	noff	46	0	6	na
94400	0	noff	51	0	6	na
94520	120	non	35	100	6	na
94760	240	noff	35	0	6	na
94760	0	non	51	100	6	na
94760	0	non	46	100	6	na
94880	120	noff	51	0	6	na
94880	0	noff	46	0	6	na
95000	120	non	49	100	6	na
95000	0	non	44	100	6	na
95240	240	noff	49	0	6	na
95240	0	noff	44	0	6	na
95480	240	non	39	100	6	na
95480	0	non	51	100	6	na
95960	480	noff	39	0	6	na
95960	0	noff	51	0	6	na
96440	480	non	39	100	6	na
96440	0	non	51	100	6	na
96920	480	noff	39	0	6	na
96920	0	noff	51	0	6	na
97400	480	non	39	100	6	na
97400	0	non	34	100	6	na
97640	240	noff	39	0	6	na
97640	0	noff	34	0	6	na
97640	0	non	51	100	6	na
97640	0	non	42	100	6	na
97760	120	noff	51	0	6	na
97760	0	noff	42	0	6	na
97880	120	non	39	100	6	na
97880	0	non	34	100	6	na
98120	240	noff	39	0	6	na
98120	0	noff	34	0	6	na
98120	0	non	54	100	6	na
98120	0	non	46	100	6	na
98240	120	noff	54	0	6	na
98240	0	noff	46	0	6	na
98360	120	non	38	100	6	na
98360	0	non	32	100	6	na
98600	240	noff	38	0	6	na
98600	0	noff	32	0	6	na
98600	0	non	53	100	6	na
98600	0	non	44	100	6	na
98720	120	noff	53	0	6	na
98720	0	noff	44	0	6	na
98840	120	non	38	100	6	na
98840	0	non	34	100	6	na
99080	240	noff	38	0	6	na
99080	0	noff	34	0	6	na
99080	0	non	50	100	6	na
99080	0	non	41	100	6	na
99200	120	noff	50	0	6	na
99200	0	noff	41	0	6	na
99320	120	non	38	100	6	na
99320	0	non	50	100	6	na
99800	480	noff	38	0	6	na
99800	0	noff	50	0	6	na
100280	480	non	38	100	6	na
100280	0	non	50	100	6	na
100760	480	noff	38	0	6	na
100760	0	noff	50	0	6	na
101240	480	non	38	100	6	na
101480	240	noff	38	0	6	na
101480	0	non	42	100	6	na
101600	120	noff	42	0	6	na
101720	120	non	50	100	6	na
101720	0	non	38	100	6	na
101960	240	noff	50	0	6	na
101960	0	noff	38	0	6	na
101960	0	non	54	100	6	na
102080	120	noff	54	0	6	na
102200	120	non	50	100	6	na
102200	0	non	38	100	6	na
102440	240	noff	50	0	6	na
102440	0	noff	38	0	6	na
102440	0	non	54	100	6	na
102560	120	noff	54	0	6	na
102680	120	non	50	100	6	na
102680	0	non	38	100	6	na
102920	240	noff	50	0	6	na
102920	0	noff	38	0	6	na
103160	240	non	49	100	6	na
103160	0	non	42	100	6	na
103640	480	noff	49	0	6	na
103640	0	noff	42	0	6	na
104120	480	non	42	100	6	na
104120	0	non	49	100	6	na
104600	480	noff	42	0	6	na
104600	0	noff	49	0	6	na
105080	480	non	42	100	6	na
105320	240	noff	42	0	6	na
105320	0	non	57	100	6	na
105320	0	non	50	100	6	na
105440	120	noff	57	0	6	na
105440	0	noff	50	0	6	na
105560	120	non	42	100	6	na
105800	240	noff	42	0	6	na
105800	0	non	57	100	6	na
105800	0	non	50	100	6	na
105920	120	noff	57	0	6	na
105920	0	noff	50	0	6	na
106040	120	non	42	100	6	na
106280	240	noff	42	0	6	na
106280	0	non	50	100	6	na
106280	0	non	57	100	6	na
106400	120	noff	50	0	6	na
106400	0	noff	57	0	6	na
106400	0	non	54	100	6	na
106520	120	noff	54	0	6	na
106520	0	non	49	100	6	na
106640	120	noff	49	0	6	na
106640	0	non	45	100	6	na
106760	120	noff	45	0	6	na
106760	0	non	56	100	6	na
106880	120	noff	56	0	6	na
106880	0	non	57	100	6	na
107000	120	noff	57	0	6	na
107000	0	non	42	100	6	na
107000	0	non	38	100	6	na
107240	240	noff	42	0	6	na
107240	0	noff	38	0	6	na
107240	0	non	33	100	6	na
107360	120	noff	33	0	6	na
107480	120	non	38	100	6	na
107600	120	noff	38	0	6	na
107720	120	non	33	100	6	na
107840	120	noff	33	0	6	na
107960	120	non	38	100	6	na
108080	120	noff	38	0	6	na
108080	0	non	33	100	6	na
108200	120	noff	33	0	6	na
108200	0	non	33	100	6	na
108320	120	noff	33	0	6	na
108440	120	non	38	100	6	na
108680	240	noff	38	0	6	na
108800	120	non	42	100	6	na
108920	120	noff	42	0	6	na
108920	0	non	40	100	6	na
108920	0	non	44	100	6	na
109160	240	noff	40	0	6	na
109160	0	noff	44	0	6	na
109160	0	non	40	100	6	na
109280	120	noff	40	0	6	na
109400	120	non	42	100	6	na
109520	120	noff	42	0	6	na
109640	120	non	40	100	6	na
109820	180	noff	40	0	6	na
109880	60	non	40	100	6	na
110000	120	noff	40	0	6	na
110000	0	non	37	100	6	na
110120	120	noff	37	0	6	na
110120	0	non	40	100	6	na
110360	240	noff	40	0	6	na
110360	0	non	47	100	6	na
110780	420	noff	47	0	6	na
110840	60	non	42	100	6	na
110840	0	non	49	100	6	na
111080	240	noff	42	0	6	na
111080	0	noff	49	0	6	na
111080	0	non	37	100	6	na
111200	120	noff	37	0	6	na
111320	120	non	42	100	6	na
111440	120	noff	42	0	6	na
111560	120	non	37	100	6	na
111680	120	noff	37	0	6	na
111800	120	non	49	100	6	na
112040	240	noff	49	0	6	na
112040	0	non	52	100	6	na
112160	120	noff	52	0	6	na
112280	120	non	45	100	6	na
112400	120	noff	45	0	6	na
112400	0	non	49	100	6	na
112520	120	noff	49	0	6	na
112520	0	non	42	100	6	na
112640	120	noff	42	0	6	na
112640	0	non	44	100	6	na
112760	120	noff	44	0	6	na
112760	0	non	42	100	6	na
112880	120	noff	42	0	6	na
112880	0	non	45	100	6	na
113000	120	noff	45	0	6	na
113000	0	non	49	100	6	na
113000	0	non	45	100	6	na
113240	240	noff	49	0	6	na
113240	0	noff	45	0	6	na
113240	0	non	42	100	6	na
113360	120	noff	42	0	6	na
113480	120	non	40	100	6	na
113600	120	noff	40	0	6	na
113720	120	non	37	100	6	na
113720	0	non	42	100	6	na
113840	120	noff	37	0	6	na
113840	0	noff	42	0	6	na
113840	0	non	42	100	6	na
113960	120	noff	42	0	6	na
113960	0	non	45	100	6	na
113960	0	non	49	100	6	na
114200	240	noff	45	0	6	na
114200	0	noff	49	0	6	na
114200	0	non	52	100	6	na
114440	240	noff	52	0	6	na
114440	0	non	49	100	6	na
114560	120	noff	49	0	6	na
114560	0	non	45	100	6	na
114680	120	noff	45	0	6	na
114680	0	non	38	100	6	na
114680	0	non	42	100	6	na
114920	240	noff	38	0	6	na
114920	0	noff	42	0	6	na
114920	0	non	45	100	6	na
115160	240	noff	45	0	6	na
115160	0	non	38	100	6	na
115280	120	noff	38	0	6	na
115280	0	non	45	100	6	na
115400	120	noff	45	0	6	na
115400	0	non	42	100	6	na
115520	120	noff	42	0	6	na
115520	0	non	45	100	6	na
115640	120	noff	45	0	6	na
115640	0	non	40	100	6	na
115640	0	non	44	100	6	na
115880	240	noff	40	0	6	na
115880	0	noff	44	0	6	na
116000	120	non	47	100	6	na
116120	120	noff	47	0	6	na
116120	0	non	49	100	6	na
116240	120	noff	49	0	6	na
116240	0	non	45	100	6	na
116600	360	noff	45	0	6	na
116600	0	non	42	100	6	na
116840	240	noff	42	0	6	na
116840	0	non	45	100	6	na
117080	240	noff	45	0	6	na
117080	0	non	42	100	6	na
117320	240	noff	42	0	6	na
117320	0	non	45	100	6	na
117560	240	noff	45	0	6	na
117560	0	non	42	100	6	na
117800	240	noff	42	0	6	na
117800	0	non	47	100	6	na
117920	120	noff	47	0	6	na
117920	0	non	44	100	6	na
118040	120	noff	44	0	6	na
118040	0	non	42	100	6	na
118280	240	noff	42	0	6	na
118280	0	non	52	100	6	na
118400	120	noff	52	0	6	na
118400	0	non	49	100	6	na
118520	120	noff	49	0	6	na
118520	0	non	42	100	6	na
118520	0	non	45	100	6	na
118640	120	noff	42	0	6	na
118640	0	noff	45	0	6	na
118760	120	non	45	100	6	na
118760	0	non	50	100	6	na
118880	120	noff	45	0	6	na
118880	0	noff	50	0	6	na
119000	120	non	49	100	6	na
119120	120	noff	49	0	6	na
119120	0	non	50	100	6	na
119240	120	noff	50	0	6	na
119240	0	non	49	100	6	na
119360	120	noff	49	0	6	na
119360	0	non	45	100	6	na
119480	120	noff	45	0	6	na
119480	0	non	44	100	6	na
119720	240	noff	44	0	6	na
119720	0	non	41	100	6	na
119840	120	noff	41	0	6	na
119840	0	non	44	100	6	na
119960	120	noff	44	0	6	na
119960	0	non	37	100	6	na
120080	120	noff	37	0	6	na
120080	0	non	41	100	6	na
120200	120	noff	41	0	6	na
120200	0	non	37	100	6	na
120320	120	noff	37	0	6	na
120440	120	non	42	100	6	na
120680	240	noff	42	0	6	na
120680	0	non	45	100	6	na
120920	240	noff	45	0	6	na
120920	0	non	37	100	6	na
121040	120	noff	37	0	6	na
121040	0	non	42	100	6	na
121160	120	noff	42	0	6	na
121160	0	non	45	100	6	na
121400	240	noff	45	0	6	na
121400	0	non	42	100	6	na
121640	240	noff	42	0	6	na
121640	0	non	49	100	6	na
121760	120	noff	49	0	6	na
121760	0	non	45	100	6	na
121880	120	noff	45	0	6	na
121880	0	non	44	100	6	na
122000	120	noff	44	0	6	na
122000	0	non	40	100	6	na
122120	120	noff	40	0	6	na
122120	0	non	37	100	6	na
122240	120	noff	37	0	6	na
122240	0	non	33	100	6	na
122360	120	noff	33	0	6	na
122360	0	non	42	100	6	na
122360	0	non	38	100	6	na
122600	240	noff	42	0	6	na
122600	0	noff	38	0	6	na
122600	0	non	33	100	6	na
122720	120	noff	33	0	6	na
122840	120	non	38	100	6	na
122960	120	noff	38	0	6	na
123080	120	non	33	100	6	na
123200	120	noff	33	0	6	na
123320	120	non	38	100	6	na
123440	120	noff	38	0	6	na
123440	0	non	33	100	6	na
123560	120	noff	33	0	6	na
123560	0	non	33	100	6	na
123680	120	noff	33	0	6	na
123800	120	non	38	100	6	na
124040	240	noff	38	0	6	na
124160	120	non	42	100	6	na
124280	120	noff	42	0	6	na
124280	0	non	40	100	6	na
124280	0	non	44	100	6	na
124520	240	noff	40	0	6	na
124520	0	noff	44	0	6	na
124520	0	non	40	100	6	na
124640	120	noff	40	0	6	na
124760	120	non	42	100	6	na
124880	120	noff	42	0	6	na
125000	120	non	40	100	6	na
125180	180	noff	40	0	6	na
125240	60	non	40	100	6	na
125360	120	noff	40	0	6	na
125360	0	non	37	100	6	na
125480	120	noff	37	0	6	na
125480	0	non	40	100	6	na
125720	240	noff	40	0	6	na
125720	0	non	47	100	6	na
126140	420	noff	47	0	6	na
126200	60	non	42	100	6	na
126200	0	non	49	100	6	na
126440	240	noff	42	0	6	na
126440	0	noff	49	0	6	na
126440	0	non	37	100	6	na
126560	120	noff	37	0	6	na
126680	120	non	42	100	6	na
126800	120	noff	42	0	6	na
126920	120	non	37	100	6	na
127040	120	noff	37	0	6	na
127160	120	non	49	100	6	na
127400	240	noff	49	0	6	na
127400	0	non	52	100	6	na
127520	120	noff	52	0	6	na
127640	120	non	45	100	6	na
127760	120	noff	45	0	6	na
127760	0	non	49	100	6	na
127880	120	noff	49	0	6	na
127880	0	non	42	100	6	na
128000	120	noff	42	0	6	na
128000	0	non	44	100	6	na
128120	120	noff	44	0	6	na
128120	0	non	42	100	6	na
128240	120	noff	42	0	6	na
128240	0	non	45	100	6	na
128360	120	noff	45	0	6	na
128360	0	non	49	100	6	na
128360	0	non	45	100	6	na
128600	240	noff	49	0	6	na
128600	0	noff	45	0	6	na
128600	0	non	42	100	6	na
128720	120	noff	42	0	6	na
128840	120	non	40	100	6	na
128960	120	noff	40	0	6	na
129080	120	non	37	100	6	na
129080	0	non	42	100	6	na
129200	120	noff	37	0	6	na
129200	0	noff	42	0	6	na
129200	0	non	42	100	6	na
129320	120	noff	42	0	6	na
129320	0	non	45	100	6	na
129320	0	non	49	100	6	na
129560	240	noff	45	0	6	na
129560	0	noff	49	0	6	na
129560	0	non	52	100	6	na
129800	240	noff	52	0	6	na
129800	0	non	49	100	6	na
129920	120	noff	49	0	6	na
129920	0	non	45	100	6	na
130040	120	noff	45	0	6	na
130040	0	non	38	100	6	na
130040	0	non	42	100	6	na
130280	240	noff	38	0	6	na
130280	0	noff	42	0	6	na
130280	0	non	45	100	6	na
130520	240	noff	45	0	6	na
130520	0	non	38	100	6	na
130640	120	noff	38	0	6	na
130640	0	non	45	100	6	na
130760	120	noff	45	0	6	na
130760	0	non	42	100	6	na
130880	120	noff	42	0	6	na
130880	0	non	45	100	6	na
131000	120	noff	45	0	6	na
131000	0	non	40	100	6	na
131000	0	non	44	100	6	na
131240	240	noff	40	0	6	na
131240	0	noff	44	0	6	na
131360	120	non	47	100	6	na
131480	120	noff	47	0	6	na
131480	0	non	49	100	6	na
131600	120	noff	49	0	6	na
131600	0	non	45	100	6	na
131960	360	noff	45	0	6	na
131960	0	non	42	100	6	na
132200	240	noff	42	0	6	na
132200	0	non	45	100	6	na
132440	240	noff	45	0	6	na
132440	0	non	42	100	6	na
132680	240	noff	42	0	6	na
132680	0	non	45	100	6	na
132920	240	noff	45	0	6	na
132920	0	non	42	100	6	na
133160	240	noff	42	0	6	na
133160	0	non	47	100	6	na
133280	120	noff	47	0	6	na
133280	0	non	44	100	6	na
133400	120	noff	44	0	6	na
133400	0	non	42	100	6	na
133640	240	noff	42	0	6	na
133640	0	non	52	100	6	na
133760	120	noff	52	0	6	na
133760	0	non	49	100	6	na
133880	120	noff	49	0	6	na
133880	0	non	42	100	6	na
133880	0	non	45	100	6	na
134000	120	noff	42	0	6	na
134000	0	noff	45	0	6	na
134120	120	non	45	100	6	na
134120	0	non	50	100	6	na
134240	120	noff	45	0	6	na
134240	0	noff	50	0	6	na
134360	120	non	49	100	6	na
134480	120	noff	49	0	6	na
134480	0	non	50	100	6	na
134600	120	noff	50	0	6	na
134600	0	non	49	100	6	na
134720	120	noff	49	0	6	na
134720	0	non	45	100	6	na
134840	120	noff	45	0	6	na
134840	0	non	44	100	6	na
135080	240	noff	44	0	6	na
135080	0	non	41	100	6	na
135200	120	noff	41	0	6	na
135200	0	non	44	100	6	na
135320	120	noff	44	0	6	na
135320	0	non	37	100	6	na
135440	120	noff	37	0	6	na
135440	0	non	41	100	6	na
135560	120	noff	41	0	6	na
135560	0	non	37	100	6	na
135680	120	noff	37	0	6	na
135800	120	non	42	100	6	na
136040	240	noff	42	0	6	na
136040	0	non	45	100	6	na
136280	240	noff	45	0	6	na
136280	0	non	37	100	6	na
136400	120	noff	37	0	6	na
136400	0	non	42	100	6	na
136520	120	noff	42	0	6	na
136520	0	non	45	100	6	na
136760	240	noff	45	0	6	na
136760	0	non	42	100	6	na
137000	240	noff	42	0	6	na
137000	0	non	49	100	6	na
137120	120	noff	49	0	6	na
137120	0	non	45	100	6	na
137240	120	noff	45	0	6	na
137240	0	non	44	100	6	na
137360	120	noff	44	0	6	na
137360	0	non	40	100	6	na
137480	120	noff	40	0	6	na
137480	0	non	37	100	6	na
137600	120	noff	37	0	6	na
137600	0	non	33	100	6	na
137720	120	noff	33	0	6	na
137720	0	non	45	100	6	na
139640	1920	noff	45	0	6	na
139640	0	non	40	100	6	na
141560	1920	noff	40	0	6	na
141560	0	non	37	100	6	na
143480	1920	noff	37	0	6	na
143480	0	non	42	100	6	na
143720	240	noff	42	0	6	na
143720	0	non	54	100	6	na
143840	120	noff	54	0	6	na
143960	120	non	42	100	6	na
144200	240	noff	42	0	6	na
144200	0	non	54	100	6	na
144320	120	noff	54	0	6	na
144440	120	non	42	100	6	na
144680	240	noff	42	0	6	na
144680	0	non	54	100	6	na
144800	120	noff	54	0	6	na
144920	120	non	42	100	6	na
145160	240	noff	42	0	6	na
145160	0	non	54	100	6	na
145280	120	noff	54	0	6	na
145400	120	non	35	100	6	na
147320	1920	noff	35	0	6	na
147320	0	non	35	100	6	na
147560	240	noff	35	0	6	na
147560	0	non	37	100	6	na
147800	240	noff	37	0	6	na
147889	89	noff	28	134	4	na
147929	40	noff	0	10	4	na
160985	13056	noff	64	50	4	na
163841	2856	noff	100	120	4	na
176897	13056	noff	64	129	4	na
177009	112	noff	40	0	6	na
177009	0	non	40	100	6	na
177189	180	noff	40	0	6	na
177249	60	non	42	100	6	na
179169	1920	noff	42	0	6	na
179169	0	non	42	100	6	na
181089	1920	noff	42	0	6	na
181089	0	non	50	100	6	na
181749	660	noff	50	0	6	na
181809	60	non	50	100	6	na
181929	120	noff	50	0	6	na
181929	0	non	62	100	6	na
182369	440	noff	62	0	6	na
182369	0	non	54	100	6	na
182529	160	noff	54	0	6	na
182529	0	non	61	100	6	na
183009	480	noff	61	0	6	na
183009	0	non	47	100	6	na
184929	1920	noff	47	0	6	na
184929	0	non	44	100	6	na
185409	480	noff	44	0	6	na
185409	0	non	49	100	6	na
185649	240	noff	49	0	6	na
185649	0	non	53	100	6	na
185889	240	noff	53	0	6	na
185889	0	non	56	100	6	na
186129	240	noff	56	0	6	na
186129	0	non	49	100	6	na
186249	120	noff	49	0	6	na
186249	0	non	53	100	6	na
186369	120	noff	53	0	6	na
186489	120	non	57	100	6	na
186609	120	noff	57	0	6	na
186609	0	non	61	100	6	na
186729	120	noff	61	0	6	na
186729	0	non	57	100	6	na
186849	120	noff	57	0	6	na
186849	0	non	54	100	6	na
187089	240	noff	54	0	6	na
187089	0	non	61	100	6	na
187329	240	noff	61	0	6	na
187329	0	non	54	100	6	na
187509	180	non	61	100	6	na
187569	60	noff	54	0	6	na
187749	180	noff	61	0	6	na
187809	60	non	54	100	6	na
188049	240	noff	54	0	6	na
188049	0	non	61	100	6	na
188289	240	noff	61	0	6	na
188289	0	non	54	100	6	na
188529	240	noff	54	0	6	na
188529	0	non	52	100	6	na
188769	240	noff	52	0	6	na
188769	0	non	38	100	6	na
189249	480	noff	38	0	6	na
189489	240	non	38	100	6	na
189609	120	noff	38	0	6	na
189729	120	non	40	100	6	na
190209	480	noff	40	0	6	na
190209	0	non	38	100	6	na
190389	180	noff	38	0	6	na
190449	60	non	38	100	6	na
190629	180	noff	38	0	6	na
190689	60	non	35	100	6	na
190929	240	noff	35	0	6	na
190929	0	non	37	100	6	na
191169	240	noff	37	0	6	na
191258	89	noff	112	150	1	na
191310	52	noff	100	129	1	na
191422	112	noff	52	0	6	na
191482	60	noff	40	0	6	na
191482	0	non	40	100	6	na
191782	300	noff	40	0	6	na
191842	60	noff	56	0	6	na
191842	0	non	54	100	6	na
191842	0	non	42	100	6	na
192022	180	noff	42	0	6	na
192082	60	noff	54	0	6	na
192082	0	non	37	100	6	na
192742	660	noff	37	0	6	na
192802	60	non	54	100	6	na
192982	180	noff	54	0	6	na
193042	60	non	37	100	6	na
193462	420	noff	37	0	6	na
193522	60	non	37	100	6	na
193762	240	noff	37	0	6	na
193762	0	non	40	100	6	na
194002	240	noff	40	0	6	na
194002	0	non	37	100	6	na
194722	720	noff	37	0	6	na
194722	0	non	37	100	6	na
194902	180	noff	37	0	6	na
194962	60	non	42	100	6	na
195202	240	noff	42	0	6	na
195442	240	non	49	100	6	na
195922	480	noff	49	0	6	na
195922	0	non	39	100	6	na
196162	240	non	51	100	6	na
196162	0	non	54	100	6	na
196282	120	noff	54	0	6	na
196282	0	noff	51	0	6	na
196522	240	non	51	100	6	na
196522	0	non	54	100	6	na
196762	240	noff	54	0	6	na
196762	0	noff	51	0	6	na
196882	120	noff	39	0	6	na
196882	0	non	37	100	6	na
197122	240	non	49	100	6	na
197122	0	non	53	100	6	na
197242	120	noff	53	0	6	na
197242	0	noff	49	0	6	na
197482	240	non	51	100	6	na
197482	0	non	54	100	6	na
197782	300	noff	54	0	6	na
197782	0	noff	51	0	6	na
197842	60	noff	37	0	6	na
197842	0	non	39	100	6	na
198082	240	non	51	100	6	na
198082	0	non	54	100	6	na
198202	120	noff	54	0	6	na
198202	0	noff	51	0	6	na
198442	240	non	51	100	6	na
198442	0	non	54	100	6	na
198682	240	noff	54	0	6	na
198682	0	noff	51	0	6	na
198682	0	non	46	100	6	na
198802	120	noff	39	0	6	na
198802	0	noff	46	0	6	na
198802	0	non	37	100	6	na
199042	240	non	49	100	6	na
199042	0	non	53	100	6	na
199162	120	noff	53	0	6	na
199162	0	noff	49	0	6	na
199402	240	non	49	100	6	na
199402	0	non	53	100	6	na
199702	300	noff	53	0	6	na
199702	0	noff	49	0	6	na
199762	60	noff	37	0	6	na
199762	0	non	35	100	6	na
200002	240	non	47	100	6	na
200002	0	non	51	100	6	na
200122	120	noff	51	0	6	na
200122	0	noff	47	0	6	na
200362	240	non	47	100	6	na
200362	0	non	51	100	6	na
200602	240	noff	51	0	6	na
200602	0	noff	47	0	6	na
200722	120	noff	35	0	6	na
200722	0	non	37	100	6	na
200962	240	non	49	100	6	na
200962	0	non	53	100	6	na
201082	120	noff	53	0	6	na
201082	0	noff	49	0	6	na
201322	240	non	49	100	6	na
201322	0	non	53	100	6	na
201562	240	noff	53	0	6	na
201562	0	noff	49	0	6	na
201562	0	non	46	100	6	na
201682	120	noff	37	0	6	na
201682	0	noff	46	0	6	na
201682	0	non	35	100	6	na
201922	240	non	47	100	6	na
201922	0	non	51	100	6	na
202042	120	noff	51	0	6	na
202042	0	noff	47	0	6	na
202282	240	non	47	100	6	na
202282	0	non	51	100	6	na
202522	240	noff	51	0	6	na
202522	0	noff	47	0	6	na
202642	120	noff	35	0	6	na
202642	0	non	35	100	6	na
202882	240	non	47	100	6	na
202882	0	non	51	100	6	na
203002	120	noff	51	0	6	na
203002	0	noff	47	0	6	na
203122	120	noff	35	0	6	na
203122	0	non	37	100	6	na
203242	120	non	47	100	6	na
203242	0	non	51	100	6	na
203482	240	noff	51	0	6	na
203482	0	noff	47	0	6	na
203482	0	non	53	100	6	na
203602	120	noff	37	0	6	na
203602	0	noff	53	0	6	na
203602	0	non	39	100	6	na
203842	240	non	51	100	6	na
203842	0	non	54	100	6	na
203962	120	noff	54	0	6	na
203962	0	noff	51	0	6	na
204202	240	non	46	100	6	na
204202	0	non	51	100	6	na
204442	240	noff	51	0	6	na
204442	0	noff	46	0	6	na
204562	120	noff	39	0	6	na
204562	0	non	37	100	6	na
204802	240	non	49	100	6	na
204802	0	non	53	100	6	na
204922	120	noff	53	0	6	na
204922	0	noff	49	0	6	na
205162	240	non	51	100	6	na
205162	0	non	54	100	6	na
205402	240	noff	54	0	6	na
205402	0	noff	51	0	6	na
205522	120	noff	37	0	6	na
205522	0	non	39	100	6	na
205762	240	non	51	100	6	na
205762	0	non	54	100	6	na
205882	120	noff	54	0	6	na
205882	0	noff	51	0	6	na
206122	240	non	51	100	6	na
206122	0	non	54	100	6	na
206362	240	noff	54	0	6	na
206362	0	noff	51	0	6	na
206362	0	non	49	100	6	na
206482	120	noff	39	0	6	na
206482	0	noff	49	0	6	na
206482	0	non	37	100	6	na
206722	240	non	49	100	6	na
206722	0	non	53	100	6	na
206842	120	noff	53	0	6	na
206842	0	noff	49	0	6	na
207082	240	non	49	100	6	na
207082	0	non	53	100	6	na
207382	300	noff	53	0	6	na
207382	0	noff	49	0	6	na
207442	60	noff	37	0	6	na
207442	0	non	35	100	6	na
207682	240	non	47	100	6	na
207682	0	non	51	100	6	na
207802	120	noff	51	0	6	na
207802	0	noff	47	0	6	na
208042	240	non	47	100	6	na
208042	0	non	51	100	6	na
208282	240	noff	51	0	6	na
208282	0	noff	47	0	6	na
208402	120	noff	35	0	6	na
208402	0	non	37	100	6	na
208642	240	non	49	100	6	na
208642	0	non	53	100	6	na
208762	120	noff	53	0	6	na
208762	0	noff	49	0	6	na
209002	240	non	49	100	6	na
209002	0	non	53	100	6	na
209242	240	noff	53	0	6	na
209242	0	noff	49	0	6	na
209362	120	noff	37	0	6	na
209362	0	non	39	100	6	na
209602	240	non	46	100	6	na
209602	0	non	51	100	6	na
209722	120	noff	51	0	6	na
209722	0	noff	46	0	6	na
209962	240	non	46	100	6	na
209962	0	non	51	100	6	na
210202	240	noff	51	0	6	na
210202	0	noff	46	0	6	na
210322	120	noff	39	0	6	na
210322	0	non	39	100	6	na
210562	240	non	46	100	6	na
210562	0	non	51	100	6	na
210682	120	noff	51	0	6	na
210682	0	noff	46	0	6	na
210922	240	non	46	100	6	na
210922	0	non	51	100	6	na
211042	120	noff	51	0	6	na
211042	0	noff	46	0	6	na
211042	0	non	46	100	6	na
211042	0	non	51	100	6	na
211222	180	noff	51	0	6	na
211222	0	noff	46	0	6	na
211282	60	noff	39	0	6	na
211282	0	non	39	100	6	na
211522	240	non	51	100	6	na
211522	0	non	54	100	6	na
211642	120	noff	54	0	6	na
211642	0	noff	51	0	6	na
211882	240	non	51	100	6	na
211882	0	non	54	100	6	na
212122	240	noff	54	0	6	na
212122	0	noff	51	0	6	na
212242	120	noff	39	0	6	na
212242	0	non	37	100	6	na
212482	240	non	49	100	6	na
212482	0	non	53	100	6	na
212602	120	noff	53	0	6	na
212602	0	noff	49	0	6	na
212842	240	non	51	100	6	na
212842	0	non	54	100	6	na
213142	300	noff	54	0	6	na
213142	0	noff	51	0	6	na
213202	60	noff	37	0	6	na
213202	0	non	39	100	6	na
213442	240	non	51	100	6	na
213442	0	non	54	100	6	na
213562	120	noff	54	0	6	na
213562	0	noff	51	0	6	na
213802	240	non	51	100	6	na
213802	0	non	54	100	6	na
214042	240	noff	54	0	6	na
214042	0	noff	51	0	6	na
214042	0	non	46	100	6	na
214162	120	noff	39	0	6	na
214162	0	noff	46	0	6	na
214162	0	non	37	100	6	na
214402	240	non	49	100	6	na
214402	0	non	53	100	6	na
214522	120	noff	53	0	6	na
214522	0	noff	49	0	6	na
214762	240	non	49	100	6	na
214762	0	non	53	100	6	na
215062	300	noff	53	0	6	na
215062	0	noff	49	0	6	na
215122	60	noff	37	0	6	na
215122	0	non	35	100	6	na
215362	240	non	47	100	6	na
215362	0	non	51	100	6	na
215482	120	noff	51	0	6	na
215482	0	noff	47	0	6	na
215722	240	non	47	100	6	na
215722	0	non	51	100	6	na
215962	240	noff	51	0	6	na
215962	0	noff	47	0	6	na
216082	120	noff	35	0	6	na
216082	0	non	37	100	6	na
216322	240	non	49	100	6	na
216322	0	non	53	100	6	na
216442	120	noff	53	0	6	na
216442	0	noff	49	0	6	na
216682	240	non	49	100	6	na
216682	0	non	53	100	6	na
216922	240	noff	53	0	6	na
216922	0	noff	49	0	6	na
216922	0	non	46	100	6	na
217042	120	noff	37	0	6	na
217042	0	noff	46	0	6	na
217042	0	non	35	100	6	na
217282	240	non	47	100	6	na
217282	0	non	51	100	6	na
217402	120	noff	51	0	6	na
217402	0	noff	47	0	6	na
217642	240	non	47	100	6	na
217642	0	non	51	100	6	na
217882	240	noff	51	0	6	na
217882	0	noff	47	0	6	na
218002	120	noff	35	0	6	na
218002	0	non	35	100	6	na
218242	240	non	47	100	6	na
218242	0	non	51	100	6	na
218362	120	noff	51	0	6	na
218362	0	noff	47	0	6	na
218482	120	noff	35	0	6	na
218482	0	non	37	100	6	na
218602	120	non	47	100	6	na
218602	0	non	51	100	6	na
218842	240	noff	51	0	6	na
218842	0	noff	47	0	6	na
218842	0	non	53	100	6	na
218962	120	noff	37	0	6	na
218962	0	noff	53	0	6	na
218962	0	non	39	100	6	na
219202	240	non	51	100	6	na
219202	0	non	54	100	6	na
219322	120	noff	54	0	6	na
219322	0	noff	51	0	6	na
219562	240	non	46	100	6	na
219562	0	non	51	100	6	na
219802	240	noff	51	0	6	na
219802	0	noff	46	0	6	na
219922	120	noff	39	0	6	na
219922	0	non	37	100	6	na
220162	240	non	49	100	6	na
220162	0	non	53	100	6	na
220282	120	noff	53	0	6	na
220282	0	noff	49	0	6	na
220522	240	non	51	100	6	na
220522	0	non	54	100	6	na
220762	240	noff	54	0	6	na
220762	0	noff	51	0	6	na
220882	120	noff	37	0	6	na
220882	0	non	39	100	6	na
221122	240	non	51	100	6	na
221122	0	non	54	100	6	na
221242	120	noff	54	0	6	na
221242	0	noff	51	0	6	na
221482	240	non	51	100	6	na
221482	0	non	54	100	6	na
221722	240	noff	54	0	6	na
221722	0	noff	51	0	6	na
221722	0	non	49	100	6	na
221842	120	noff	39	0	6	na
221842	0	noff	49	0	6	na
221842	0	non	37	100	6	na
222082	240	non	49	100	6	na
222082	0	non	53	100	6	na
222202	120	noff	53	0	6	na
222202	0	noff	49	0	6	na
222442	240	non	49	100	6	na
222442	0	non	53	100	6	na
222742	300	noff	53	0	6	na
222742	0	noff	49	0	6	na
222802	60	noff	37	0	6	na
222802	0	non	35	100	6	na
223042	240	non	47	100	6	na
223042	0	non	51	100	6	na
223162	120	noff	51	0	6	na
223162	0	noff	47	0	6	na
223402	240	non	47	100	6	na
223402	0	non	51	100	6	na
223642	240	noff	51	0	6	na
223642	0	noff	47	0	6	na
223762	120	noff	35	0	6	na
223762	0	non	37	100	6	na
224002	240	non	49	100	6	na
224002	0	non	53	100	6	na
224122	120	noff	53	0	6	na
224122	0	noff	49	0	6	na
224362	240	non	49	100	6	na
224362	0	non	53	100	6	na
224602	240	noff	53	0	6	na
224602	0	noff	49	0	6	na
224722	120	noff	37	0	6	na
224722	0	non	39	100	6	na
224962	240	non	46	100	6	na
224962	0	non	51	100	6	na
225082	120	noff	51	0	6	na
225082	0	noff	46	0	6	na
225322	240	non	46	100	6	na
225322	0	non	51	100	6	na
225562	240	noff	51	0	6	na
225562	0	noff	46	0	6	na
225682	120	noff	39	0	6	na
225682	0	non	39	100	6	na
225922	240	non	46	100	6	na
225922	0	non	51	100	6	na
226042	120	noff	51	0	6	na
226042	0	noff	46	0	6	na
226282	240	non	46	100	6	na
226282	0	non	51	100	6	na
226402	120	noff	51	0	6	na
226402	0	noff	46	0	6	na
226402	0	non	46	100	6	na
226402	0	non	51	100	6	na
226582	180	noff	51	0	6	na
226582	0	noff	46	0	6	na
226642	60	noff	39	0	6	na
226642	0	non	35	100	6	na
226642	0	non	47	100	6	na
227122	480	noff	35	0	6	na
227122	0	noff	47	0	6	na
227602	480	non	35	100	6	na
227602	0	non	47	100	6	na
228082	480	noff	35	0	6	na
228082	0	noff	47	0	6	na
228562	480	non	35	100	6	na
228802	240	noff	35	0	6	na
228802	0	non	47	100	6	na
228802	0	non	42	100	6	na
228922	120	noff	47	0	6	na
228922	0	noff	42	0	6	na
229042	120	non	35	100	6	na
229282	240	noff	35	0	6	na
229282	0	non	46	100	6	na
229282	0	non	51	100	6	na
229402	120	noff	46	0	6	na
229402	0	noff	51	0	6	na
229522	120	non	35	100	6	na
229762	240	noff	35	0	6	na
229762	0	non	51	100	6	na
229762	0	non	46	100	6	na
229882	120	noff	51	0	6	na
229882	0	noff	46	0	6	na
230002	120	non	49	100	6	na
230002	0	non	44	100	6	na
230242	240	noff	49	0	6	na
230242	0	noff	44	0	6	na
230482	240	non	39	100	6	na
230482	0	non	51	100	6	na
230962	480	noff	39	0	6	na
230962	0	noff	51	0	6	na
231442	480	non	39	100	6	na
231442	0	non	51	100	6	na
231922	480	noff	39	0	6	na
231922	0	noff	51	0	6	na
232402	480	non	39	100	6	na
232402	0	non	34	100	6	na
232642	240	noff	39	0	6	na
232642	0	noff	34	0	6	na
232642	0	non	51	100	6	na
232642	0	non	42	100	6	na
232762	120	noff	51	0	6	na
232762	0	noff	42	0	6	na
232882	120	non	39	100	6	na
232882	0	non	34	100	6	na
233122	240	noff	39	0	6	na
233122	0	noff	34	0	6	na
233122	0	non	54	100	6	na
233122	0	non	46	100	6	na
233242	120	noff	54	0	6	na
233242	0	noff	46	0	6	na
233362	120	non	38	100	6	na
233362	0	non	32	100	6	na
233602	240	noff	38	0	6	na
233602	0	noff	32	0	6	na
233602	0	non	53	100	6	na
233602	0	non	44	100	6	na
233722	120	noff	53	0	6	na
233722	0	noff	44	0	6	na
233842	120	non	38	100	6	na
233842	0	non	34	100	6	na
234082	240	noff	38	0	6	na
234082	0	noff	34	0	6	na
234082	0	non	50	100	6	na
234082	0	non	41	100	6	na
234202	120	noff	50	0	6	na
234202	0	noff	41	0	6	na
234322	120	non	38	100	6	na
234322	0	non	50	100	6	na
234802	480	noff	38	0	6	na
234802	0	noff	50	0	6	na
235282	480	non	38	100	6	na
235282	0	non	50	100	6	na
235762	480	noff	38	0	6	na
235762	0	noff	50	0	6	na
236242	480	non	38	100	6	na
236482	240	noff	38	0	6	na
236482	0	non	42	100	6	na
236602	120	noff	42	0	6	na
236722	120	non	50	100	6	na
236722	0	non	38	100	6	na
236962	240	noff	50	0	6	na
236962	0	noff	38	0	6	na
236962	0	non	54	100	6	na
237082	120	noff	54	0	6	na
237202	120	non	50	100	6	na
237202	0	non	38	100	6	na
237442	240	noff	50	0	6	na
237442	0	noff	38	0	6	na
237442	0	non	54	100	6	na
237562	120	noff	54	0	6	na
237682	120	non	50	100	6	na
237682	0	non	38	100	6	na
237922	240	noff	50	0	6	na
237922	0	noff	38	0	6	na
238162	240	non	49	100	6	na
238162	0	non	42	100	6	na
238642	480	noff	49	0	6	na
238642	0	noff	42	0	6	na
239122	480	non	42	100	6	na
239122	0	non	49	100	6	na
239602	480	noff	42	0	6	na
239602	0	noff	49	0	6	na
240082	480	non	42	100	6	na
240322	240	noff	42	0	6	na
240322	0	non	57	100	6	na
240322	0	non	50	100	6	na
240442	120	noff	57	0	6	na
240442	0	noff	50	0	6	na
240562	120	non	42	100	6	na
240802	240	noff	42	0	6	na
240802	0	non	57	100	6	na
240802	0	non	50	100	6	na
240922	120	noff	57	0	6	na
240922	0	noff	50	0	6	na
241042	120	non	42	100	6	na
241282	240	noff	42	0	6	na
241282	0	non	50	100	6	na
241282	0	non	57	100	6	na
241402	120	noff	50	0	6	na
241402	0	noff	57	0	6	na
241402	0	non	54	100	6	na
241522	120	noff	54	0	6	na
241522	0	non	49	100	6	na
241642	120	noff	49	0	6	na
241642	0	non	45	100	6	na
241762	120	noff	45	0	6	na
241762	0	non	56	100	6	na
241882	120	noff	56	0	6	na
241882	0	non	57	100	6	na
242002	120	noff	57	0	6	na
242002	0	non	42	100	6	na
242002	0	non	38	100	6	na
242242	240	noff	42	0	6	na
242242	0	noff	38	0	6	na
242242	0	non	33	100	6	na
242362	120	noff	33	0	6	na
242482	120	non	38	100	6	na
242602	120	noff	38	0	6	na
242722	120	non	33	100	6	na
242842	120	noff	33	0	6	na
242962	120	non	38	100	6	na
243082	120	noff	38	0	6	na
243082	0	non	33	100	6	na
243202	120	noff	33	0	6	na
243202	0	non	33	100	6	na
243322	120	noff	33	0	6	na
243442	120	non	38	100	6	na
243682	240	noff	38	0	6	na
243802	120	non	42	100	6	na
243922	120	noff	42	0	6	na
243922	0	non	40	100	6	na
243922	0	non	44	100	6	na
244162	240	noff	40	0	6	na
244162	0	noff	44	0	6	na
244162	0	non	40	100	6	na
244282	120	noff	40	0	6	na
244402	120	non	42	100	6	na
244522	120	noff	42	0	6	na
244642	120	non	40	100	6	na
244822	180	noff	40	0	6	na
244882	60	non	40	100	6	na
245002	120	noff	40	0	6	na
245002	0	non	37	100	6	na
245122	120	noff	37	0	6	na
245122	0	non	40	100	6	na
245362	240	noff	40	0	6	na
245362	0	non	47	100	6	na
245782	420	noff	47	0	6	na
245842	60	non	42	100	6	na
245842	0	non	49	100	6	na
246082	240	noff	42	0	6	na
246082	0	noff	49	0	6	na
246082	0	non	37	100	6	na
246202	120	noff	37	0	6	na
246322	120	non	42	100	6	na
246442	120	noff	42	0	6	na
246562	120	non	37	100	6	na
246682	120	noff	37	0	6	na
246802	120	non	49	100	6	na
247042	240	noff	49	0	6	na
247042	0	non	52	100	6	na
247162	120	noff	52	0	6	na
247282	120	non	45	100	6	na
247402	120	noff	45	0	6	na
247402	0	non	49	100	6	na
247522	120	noff	49	0	6	na
247522	0	non	42	100	6	na
247642	120	noff	42	0	6	na
247642	0	non	44	100	6	na
247762	120	noff	44	0	6	na
247762	0	non	42	100	6	na
247882	120	noff	42	0	6	na
247882	0	non	45	100	6	na
248002	120	noff	45	0	6	na
248002	0	non	49	100	6	na
248002	0	non	45	100	6	na
248242	240	noff	49	0	6	na
248242	0	noff	45	0	6	na
248242	0	non	42	100	6	na
248362	120	noff	42	0	6	na
248482	120	non	40	100	6	na
248602	120	noff	40	0	6	na
248722	120	non	37	100	6	na
248722	0	non	42	100	6	na
248842	120	noff	37	0	6	na
248842	0	noff	42	0	6	na
248842	0	non	42	100	6	na
248962	120	noff	42	0	6	na
248962	0	non	45	100	6	na
248962	0	non	49	100	6	na
249202	240	noff	45	0	6	na
249202	0	noff	49	0	6	na
249202	0	non	52	100	6	na
249442	240	noff	52	0	6	na
249442	0	non	49	100	6	na
249562	120	noff	49	0	6	na
249562	0	non	45	100	6	na
249682	120	noff	45	0	6	na
249682	0	non	38	100	6	na
249682	0	non	42	100	6	na
249922	240	noff	38	0	6	na
249922	0	noff	42	0	6	na
249922	0	non	45	100	6	na
250162	240	noff	45	0	6	na
250162	0	non	38	100	6	na
250282	120	noff	38	0	6	na
250282	0	non	45	100	6	na
250402	120	noff	45	0	6	na
250402	0	non	42	100	6	na
250522	120	noff	42	0	6	na
250522	0	non	45	100	6	na
250642	120	noff	45	0	6	na
250642	0	non	40	100	6	na
250642	0	non	44	100	6	na
250882	240	noff	40	0	6	na
250882	0	noff	44	0	6	na
251002	120	non	47	100	6	na
251122	120	noff	47	0	6	na
251122	0	non	49	100	6	na
251242	120	noff	49	0	6	na
251242	0	non	45	100	6	na
251602	360	noff	45	0	6	na
251602	0	non	42	100	6	na
251842	240	noff	42	0	6	na
251842	0	non	45	100	6	na
252082	240	noff	45	0	6	na
252082	0	non	42	100	6	na
252322	240	noff	42	0	6	na
252322	0	non	45	100	6	na
252562	240	noff	45	0	6	na
252562	0	non	42	100	6	na
252802	240	noff	42	0	6	na
252802	0	non	47	100	6	na
252922	120	noff	47	0	6	na
252922	0	non	44	100	6	na
253042	120	noff	44	0	6	na
253042	0	non	42	100	6	na
253282	240	noff	42	0	6	na
253282	0	non	52	100	6	na
253402	120	noff	52	0	6	na
253402	0	non	49	100	6	na
253522	120	noff	49	0	6	na
253522	0	non	42	100	6	na
253522	0	non	45	100	6	na
253642	120	noff	42	0	6	na
253642	0	noff	45	0	6	na
253762	120	non	45	100	6	na
253762	0	non	50	100	6	na
253882	120	noff	45	0	6	na
253882	0	noff	50	0	6	na
254002	120	non	49	100	6	na
254122	120	noff	49	0	6	na
254122	0	non	50	100	6	na
254242	120	noff	50	0	6	na
254242	0	non	49	100	6	na
254362	120	noff	49	0	6	na
254362	0	non	45	100	6	na
254482	120	noff	45	0	6	na
254482	0	non	44	100	6	na
254722	240	noff	44	0	6	na
254722	0	non	41	100	6	na
254842	120	noff	41	0	6	na
254842	0	non	44	100	6	na
254962	120	noff	44	0	6	na
254962	0	non	37	100	6	na
255082	120	noff	37	0	6	na
255082	0	non	41	100	6	na
255202	120	noff	41	0	6	na
255202	0	non	37	100	6	na
255322	120	noff	37	0	6	na
255442	120	non	42	100	6	na
255682	240	noff	42	0	6	na
255682	0	non	45	100	6	na
255922	240	noff	45	0	6	na
255922	0	non	37	100	6	na
256042	120	noff	37	0	6	na
256042	0	non	42	100	6	na
256162	120	noff	42	0	6	na
256162	0	non	45	100	6	na
256402	240	noff	45	0	6	na
256402	0	non	42	100	6	na
256642	240	noff	42	0	6	na
256642	0	non	49	100	6	na
256762	120	noff	49	0	6	na
256762	0	non	45	100	6	na
256882	120	noff	45	0	6	na
256882	0	non	44	100	6	na
257002	120	noff	44	0	6	na
257002	0	non	40	100	6	na
257122	120	noff	40	0	6	na
257122	0	non	37	100	6	na
257242	120	noff	37	0	6	na
257242	0	non	33	100	6	na
257362	120	noff	33	0	6	na
257362	0	non	42	100	6	na
257362	0	non	38	100	6	na
257602	240	noff	42	0	6	na
257602	0	noff	38	0	6	na
257602	0	non	33	100	6	na
257722	120	noff	33	0	6	na
257842	120	non	38	100	6	na
257962	120	noff	38	0	6	na
258082	120	non	33	100	6	na
258202	120	noff	33	0	6	na
258322	120	non	38	100	6	na
258442	120	noff	38	0	6	na
258442	0	non	33	100	6	na
258562	120	noff	33	0	6	na
258562	0	non	33	100	6	na
258682	120	noff	33	0	6	na
258802	120	non	38	100	6	na
259042	240	noff	38	0	6	na
259162	120	non	42	100	6	na
259282	120	noff	42	0	6	na
259282	0	non	40	100	6	na
259282	0	non	44	100	6	na
259522	240	noff	40	0	6	na
259522	0	noff	44	0	6	na
259522	0	non	40	100	6	na
259642	120	noff	40	0	6	na
259762	120	non	42	100	6	na
259882	120	noff	42	0	6	na
260002	120	non	40	100	6	na
260182	180	noff	40	0	6	na
260242	60	non	40	100	6	na
260362	120	noff	40	0	6	na
260362	0	non	37	100	6	na
260482	120	noff	37	0	6	na
260482	0	non	40	100	6	na
260722	240	noff	40	0	6	na
260722	0	non	47	100	6	na
261142	420	noff	47	0	6	na
261202	60	non	42	100	6	na
261202	0	non	49	100	6	na
261442	240	noff	42	0	6	na
261442	0	noff	49	0	6	na
261442	0	non	37	100	6	na
261562	120	noff	37	0	6	na
261682	120	non	42	100	6	na
261802	120	noff	42	0	6	na
261922	120	non	37	100	6	na
262042	120	noff	37	0	6	na
262162	120	non	49	100	6	na
262402	240	noff	49	0	6	na
262402	0	non	52	100	6	na
262522	120	noff	52	0	6	na
262642	120	non	45	100	6	na
262762	120	noff	45	0	6	na
262762	0	non	49	100	6	na
262882	120	noff	49	0	6	na
262882	0	non	42	100	6	na
263002	120	noff	42	0	6	na
263002	0	non	44	100	6	na
263122	120	noff	44	0	6	na
263122	0	non	42	100	6	na
263242	120	noff	42	0	6	na
263242	0	non	45	100	6	na
263362	120	noff	45	0	6	na
263362	0	non	49	100	6	na
263362	0	non	45	100	6	na
263602	240	noff	49	0	6	na
263602	0	noff	45	0	6	na
263602	0	non	42	100	6	na
263722	120	noff	42	0	6	na
263842	120	non	40	100	6	na
263962	120	noff	40	0	6	na
264082	120	non	37	100	6	na
264082	0	non	42	100	6	na
264202	120	noff	37	0	6	na
264202	0	noff	42	0	6	na
264202	0	non	42	100	6	na
264322	120	noff	42	0	6	na
264322	0	non	45	100	6	na
264322	0	non	49	100	6	na
264562	240	noff	45	0	6	na
264562	0	noff	49	0	6	na
264562	0	non	52	100	6	na
264802	240	noff	52	0	6	na
264802	0	non	49	100	6	na
264922	120	noff	49	0	6	na
264922	0	non	45	100	6	na
265042	120	noff	45	0	6	na
265042	0	non	38	100	6	na
265042	0	non	42	100	6	na
265282	240	noff	38	0	6	na
265282	0	noff	42	0	6	na
265282	0	non	45	100	6	na
265522	240	noff	45	0	6	na
265522	0	non	38	100	6	na
265642	120	noff	38	0	6	na
265642	0	non	45	100	6	na
265762	120	noff	45	0	6	na
265762	0	non	42	100	6	na
265882	120	noff	42	0	6	na
265882	0	non	45	100	6	na
266002	120	noff	45	0	6	na
266002	0	non	40	100	6	na
266002	0	non	44	100	6	na
266242	240	noff	40	0	6	na
266242	0	noff	44	0	6	na
266362	120	non	47	100	6	na
266482	120	noff	47	0	6	na
266482	0	non	49	100	6	na
266602	120	noff	49	0	6	na
266602	0	non	45	100	6	na
266962	360	noff	45	0	6	na
266962	0	non	42	100	6	na
267202	240	noff	42	0	6	na
267202	0	non	45	100	6	na
267442	240	noff	45	0	6	na
267442	0	non	42	100	6	na
267682	240	noff	42	0	6	na
267682	0	non	45	100	6	na
267922	240	noff	45	0	6	na
267922	0	non	42	100	6	na
268162	240	noff	42	0	6	na
268162	0	non	47	100	6	na
268282	120	noff	47	0	6	na
268282	0	non	44	100	6	na
268402	120	noff	44	0	6	na
268402	0	non	42	100	6	na
268642	240	noff	42	0	6	na
268642	0	non	52	100	6	na
268762	120	noff	52	0	6	na
268762	0	non	49	100	6	na
268882	120	noff	49	0	6	na
268882	0	non	42	100	6	na
268882	0	non	45	100	6	na
269002	120	noff	42	0	6	na
269002	0	noff	45	0	6	na
269122	120	non	45	100	6	na
269122	0	non	50	100	6	na
269242	120	noff	45	0	6	na
269242	0	noff	50	0	6	na
269362	120	non	49	100	6	na
269482	120	noff	49	0	6	na
269482	0	non	50	100	6	na
269602	120	noff	50	0	6	na
269602	0	non	49	100	6	na
269722	120	noff	49	0	6	na
269722	0	non	45	100	6	na
269842	120	noff	45	0	6	na
269842	0	non	44	100	6	na
270082	240	noff	44	0	6	na
270082	0	non	41	100	6	na
270202	120	noff	41	0	6	na
270202	0	non	44	100	6	na
270322	120	noff	44	0	6	na
270322	0	non	37	100	6	na
270442	120	noff	37	0	6	na
270442	0	non	41	100	6	na
270562	120	noff	41	0	6	na
270562	0	non	37	100	6	na
270682	120	noff	37	0	6	na
270802	120	non	42	100	6	na
271042	240	noff	42	0	6	na
271042	0	non	45	100	6	na
271282	240	noff	45	0	6	na
271282	0	non	37	100	6	na
271402	120	noff	37	0	6	na
271402	0	non	42	100	6	na
271522	120	noff	42	0	6	na
271522	0	non	45	100	6	na
271762	240	noff	45	0	6	na
271762	0	non	42	100	6	na
272002	240	noff	42	0	6	na
272002	0	non	49	100	6	na
272122	120	noff	49	0	6	na
272122	0	non	45	100	6	na
272242	120	noff	45	0	6	na
272242	0	non	44	100	6	na
272362	120	noff	44	0	6	na
272362	0	non	40	100	6	na
272482	120	noff	40	0	6	na
272482	0	non	37	100	6	na
272602	120	noff	37	0	6	na
272602	0	non	33	100	6	na
272722	120	noff	33	0	6	na
cumTime	delTime	event	pitch	vel	chan	value
2718	2718	non	38	100	7	na
3378	660	noff	38	0	7	na
3438	60	non	38	100	7	na
3678	240	noff	38	0	7	na
3678	0	non	38	100	7	na
3798	120	noff	38	0	7	na
3798	0	non	40	100	7	na
3918	120	noff	40	0	7	na
3918	0	non	42	100	7	na
4038	120	noff	42	0	7	na
4158	120	non	42	100	7	na
4278	120	noff	42	0	7	na
4278	0	non	37	100	7	na
4398	120	noff	37	0	7	na
4398	0	non	40	100	7	na
4518	120	noff	40	0	7	na
4638	120	non	35	100	7	na
4798	160	noff	35	0	7	na
4798	0	non	40	100	7	na
4958	160	noff	40	0	7	na
4958	0	non	35	100	7	na
5118	160	noff	35	0	7	na
5118	0	non	44	100	7	na
5278	160	noff	44	0	7	na
5278	0	non	35	100	7	na
5438	160	noff	35	0	7	na
5438	0	non	40	100	7	na
5598	160	noff	40	0	7	na
5598	0	non	35	100	7	na
5758	160	noff	35	0	7	na
5758	0	non	40	100	7	na
5918	160	noff	40	0	7	na
5918	0	non	35	100	7	na
6078	160	noff	35	0	7	na
6078	0	non	44	100	7	na
6238	160	noff	44	0	7	na
6238	0	non	35	100	7	na
6398	160	noff	35	0	7	na
6398	0	non	40	100	7	na
6558	160	noff	40	0	7	na
6558	0	non	37	100	7	na
7038	480	noff	37	0	7	na
7038	0	non	37	100	7	na
7158	120	noff	37	0	7	na
7158	0	non	40	100	7	na
7278	120	noff	40	0	7	na
7278	0	non	49	100	7	na
7398	120	noff	49	0	7	na
7518	120	non	37	100	7	na
7758	240	noff	37	0	7	na
7758	0	non	49	100	7	na
7998	240	noff	49	0	7	na
7998	0	non	45	100	7	na
8118	120	noff	45	0	7	na
8118	0	non	44	100	7	na
8358	240	noff	44	0	7	na
8358	0	non	40	100	7	na
8478	120	noff	40	0	7	na
8478	0	non	42	100	7	na
8718	240	noff	42	0	7	na
8718	0	non	49	100	7	na
8838	120	noff	49	0	7	na
8958	120	non	42	100	7	na
9198	240	noff	42	0	7	na
9198	0	non	49	100	7	na
9318	120	noff	49	0	7	na
9438	120	non	42	100	7	na
9558	120	noff	42	0	7	na
9558	0	non	45	100	7	na
9678	120	noff	45	0	7	na
9678	0	non	49	100	7	na
9798	120	noff	49	0	7	na
9798	0	non	45	100	7	na
9918	120	noff	45	0	7	na
9918	0	non	42	100	7	na
10038	120	noff	42	0	7	na
10038	0	non	45	100	7	na
10158	120	noff	45	0	7	na
10158	0	non	49	100	7	na
10278	120	noff	49	0	7	na
10398	120	non	35	100	7	na
10878	480	noff	35	0	7	na
11118	240	non	35	100	7	na
11238	120	noff	35	0	7	na
11238	0	non	40	100	7	na
11358	120	noff	40	0	7	na
11358	0	non	44	100	7	na
11478	120	noff	44	0	7	na
11478	0	non	40	100	7	na
11598	120	noff	40	0	7	na
11598	0	non	35	100	7	na
11838	240	noff	35	0	7	na
11838	0	non	35	100	7	na
12018	180	noff	35	0	7	na
12078	60	non	35	100	7	na
12258	180	noff	35	0	7	na
12318	60	non	35	100	7	na
12558	240	noff	35	0	7	na
12558	0	non	37	100	7	na
12798	240	noff	37	0	7	na
12798	0	non	40	100	7	na
13038	240	noff	40	0	7	na
13038	0	non	45	100	7	na
13278	240	noff	45	0	7	na
13278	0	non	45	100	7	na
13278	0	non	37	100	7	na
13578	300	noff	45	0	7	na
13578	0	noff	37	0	7	na
13638	60	non	40	100	7	na
13998	360	noff	40	0	7	na
13998	0	non	45	100	7	na
13998	0	non	40	100	7	na
14118	120	noff	40	0	7	na
14178	60	noff	45	0	7	na
14238	60	non	42	100	7	na
14238	0	non	49	100	7	na
14898	660	noff	49	0	7	na
14958	60	non	45	100	7	na
15138	180	noff	42	0	7	na
15138	0	noff	45	0	7	na
15198	60	non	42	100	7	na
15198	0	non	49	100	7	na
15618	420	noff	49	0	7	na
15678	60	non	45	100	7	na
15918	240	noff	45	0	7	na
15918	0	non	47	100	7	na
16098	180	noff	42	0	7	na
16158	60	noff	47	0	7	na
16158	0	non	42	100	7	na
16158	0	non	49	100	7	na
16878	720	noff	49	0	7	na
16878	0	non	45	100	7	na
17058	180	noff	42	0	7	na
17058	0	noff	45	0	7	na
17118	60	non	49	100	7	na
17118	0	non	42	100	7	na
17538	420	noff	42	0	7	na
17598	60	noff	49	0	7	na
17598	0	non	44	100	7	na
17838	240	noff	44	0	7	na
17838	0	non	40	100	7	na
18078	240	noff	40	0	7	na
18078	0	non	38	100	7	na
18738	660	noff	38	0	7	na
18798	60	non	38	100	7	na
19038	240	noff	38	0	7	na
19038	0	non	38	100	7	na
19158	120	noff	38	0	7	na
19158	0	non	40	100	7	na
19278	120	noff	40	0	7	na
19278	0	non	42	100	7	na
19398	120	noff	42	0	7	na
19518	120	non	42	100	7	na
19638	120	noff	42	0	7	na
19638	0	non	37	100	7	na
19758	120	noff	37	0	7	na
19758	0	non	40	100	7	na
19878	120	noff	40	0	7	na
19998	120	non	35	100	7	na
20158	160	noff	35	0	7	na
20158	0	non	40	100	7	na
20318	160	noff	40	0	7	na
20318	0	non	35	100	7	na
20478	160	noff	35	0	7	na
20478	0	non	44	100	7	na
20638	160	noff	44	0	7	na
20638	0	non	35	100	7	na
20798	160	noff	35	0	7	na
20798	0	non	40	100	7	na
20958	160	noff	40	0	7	na
20958	0	non	35	100	7	na
21118	160	noff	35	0	7	na
21118	0	non	40	100	7	na
21278	160	noff	40	0	7	na
21278	0	non	35	100	7	na
21438	160	noff	35	0	7	na
21438	0	non	44	100	7	na
21598	160	noff	44	0	7	na
21598	0	non	35	100	7	na
21758	160	noff	35	0	7	na
21758	0	non	40	100	7	na
21918	160	noff	40	0	7	na
21918	0	non	37	100	7	na
22398	480	noff	37	0	7	na
22398	0	non	37	100	7	na
22518	120	noff	37	0	7	na
22518	0	non	40	100	7	na
22638	120	noff	40	0	7	na
22638	0	non	49	100	7	na
22758	120	noff	49	0	7	na
22878	120	non	37	100	7	na
23118	240	noff	37	0	7	na
23118	0	non	49	100	7	na
23358	240	noff	49	0	7	na
23358	0	non	45	100	7	na
23478	120	noff	45	0	7	na
23478	0	non	44	100	7	na
23718	240	noff	44	0	7	na
23718	0	non	40	100	7	na
23838	120	noff	40	0	7	na
23838	0	non	42	100	7	na
24078	240	noff	42	0	7	na
24078	0	non	49	100	7	na
24198	120	noff	49	0	7	na
24318	120	non	42	100	7	na
24558	240	noff	42	0	7	na
24558	0	non	49	100	7	na
24678	120	noff	49	0	7	na
24798	120	non	42	100	7	na
24918	120	noff	42	0	7	na
24918	0	non	45	100	7	na
25038	120	noff	45	0	7	na
25038	0	non	49	100	7	na
25158	120	noff	49	0	7	na
25158	0	non	45	100	7	na
25278	120	noff	45	0	7	na
25278	0	non	42	100	7	na
25398	120	noff	42	0	7	na
25398	0	non	45	100	7	na
25518	120	noff	45	0	7	na
25518	0	non	49	100	7	na
25638	120	noff	49	0	7	na
25758	120	non	35	100	7	na
26238	480	noff	35	0	7	na
26478	240	non	35	100	7	na
26598	120	noff	35	0	7	na
26598	0	non	40	100	7	na
26718	120	noff	40	0	7	na
26718	0	non	44	100	7	na
26838	120	noff	44	0	7	na
26838	0	non	40	100	7	na
26958	120	noff	40	0	7	na
26958	0	non	35	100	7	na
27198	240	noff	35	0	7	na
27198	0	non	35	100	7	na
27378	180	noff	35	0	7	na
27438	60	non	35	100	7	na
27618	180	noff	35	0	7	na
27678	60	non	35	100	7	na
27918	240	noff	35	0	7	na
27918	0	non	37	100	7	na
28158	240	noff	37	0	7	na
28158	0	non	40	100	7	na
28398	240	noff	40	0	7	na
28398	0	non	45	100	7	na
28638	240	noff	45	0	7	na
28638	0	non	45	100	7	na
28938	300	noff	45	0	7	na
28998	60	non	40	100	7	na
29358	360	noff	40	0	7	na
29358	0	non	45	100	7	na
29538	180	noff	45	0	7	na
29598	60	non	42	100	7	na
29598	0	non	49	100	7	na
30258	660	noff	42	0	7	na
30318	60	non	45	100	7	na
30498	180	noff	49	0	7	na
30498	0	noff	45	0	7	na
30558	60	non	49	100	7	na
30558	0	non	42	100	7	na
31038	480	noff	49	0	7	na
31038	0	noff	42	0	7	na
31038	0	non	45	100	7	na
31278	240	noff	45	0	7	na
31278	0	non	47	100	7	na
31518	240	noff	47	0	7	na
31518	0	non	42	100	7	na
31518	0	non	49	100	7	na
32238	720	noff	49	0	7	na
32238	0	non	45	100	7	na
32418	180	noff	42	0	7	na
32418	0	noff	45	0	7	na
32478	60	non	45	100	7	na
32478	0	non	37	100	7	na
32718	240	noff	45	0	7	na
32718	0	noff	37	0	7	na
32958	240	non	49	100	7	na
33078	120	noff	49	0	7	na
33078	0	non	45	100	7	na
33198	120	noff	45	0	7	na
33198	0	non	42	100	7	na
33318	120	noff	42	0	7	na
33318	0	non	37	100	7	na
33438	120	noff	37	0	7	na
33438	0	non	39	100	7	na
33678	240	noff	39	0	7	na
33678	0	non	46	100	7	na
33798	120	noff	46	0	7	na
33798	0	non	42	100	7	na
33918	120	noff	42	0	7	na
33918	0	non	39	100	7	na
34038	120	noff	39	0	7	na
34038	0	non	46	100	7	na
34158	120	noff	46	0	7	na
34158	0	non	42	100	7	na
34278	120	noff	42	0	7	na
34398	120	non	37	100	7	na
34638	240	noff	37	0	7	na
34638	0	non	41	100	7	na
34758	120	noff	41	0	7	na
34878	120	non	37	100	7	na
34998	120	noff	37	0	7	na
34998	0	non	42	100	7	na
35238	240	noff	42	0	7	na
35238	0	non	37	100	7	na
35358	120	noff	37	0	7	na
35358	0	non	39	100	7	na
35478	120	noff	39	0	7	na
35478	0	non	46	100	7	na
35598	120	noff	46	0	7	na
35598	0	non	42	100	7	na
35718	120	noff	42	0	7	na
35838	120	non	46	100	7	na
35958	120	noff	46	0	7	na
35958	0	non	42	100	7	na
36078	120	noff	42	0	7	na
36078	0	non	39	100	7	na
36198	120	noff	39	0	7	na
36318	120	non	37	100	7	na
36438	120	noff	37	0	7	na
36438	0	non	41	100	7	na
36558	120	noff	41	0	7	na
36798	240	non	37	100	7	na
36918	120	noff	37	0	7	na
36918	0	non	41	100	7	na
37158	240	noff	41	0	7	na
37158	0	non	37	100	7	na
37278	120	noff	37	0	7	na
37278	0	non	35	100	7	na
37518	240	noff	35	0	7	na
37518	0	non	39	100	7	na
37638	120	noff	39	0	7	na
37758	120	non	35	100	7	na
37878	120	noff	35	0	7	na
37878	0	non	39	100	7	na
37998	120	noff	39	0	7	na
37998	0	non	39	100	7	na
38118	120	noff	39	0	7	na
38238	120	non	37	100	7	na
38478	240	noff	37	0	7	na
38478	0	non	41	100	7	na
38598	120	noff	41	0	7	na
38718	120	non	37	100	7	na
38838	120	noff	37	0	7	na
38838	0	non	41	100	7	na
38958	120	noff	41	0	7	na
38958	0	non	46	100	7	na
39078	120	noff	46	0	7	na
39078	0	non	41	100	7	na
39198	120	noff	41	0	7	na
39198	0	non	39	100	7	na
39438	240	noff	39	0	7	na
39438	0	non	41	100	7	na
39558	120	noff	41	0	7	na
39678	120	non	39	100	7	na
39798	120	noff	39	0	7	na
39798	0	non	42	100	7	na
40038	240	noff	42	0	7	na
40158	120	non	39	100	7	na
40398	240	noff	39	0	7	na
40398	0	non	42	100	7	na
40518	120	noff	42	0	7	na
40518	0	non	39	100	7	na
40638	120	noff	39	0	7	na
40638	0	non	39	100	7	na
40758	120	noff	39	0	7	na
40758	0	non	42	100	7	na
40998	240	noff	42	0	7	na
41118	120	non	39	100	7	na
41358	240	noff	39	0	7	na
41358	0	non	46	100	7	na
41478	120	noff	46	0	7	na
41478	0	non	42	100	7	na
41598	120	noff	42	0	7	na
41598	0	non	39	100	7	na
41718	120	noff	39	0	7	na
41718	0	non	46	100	7	na
41838	120	noff	46	0	7	na
41838	0	non	42	100	7	na
41958	120	noff	42	0	7	na
42078	120	non	37	100	7	na
42318	240	noff	37	0	7	na
42318	0	non	41	100	7	na
42438	120	noff	41	0	7	na
42558	120	non	39	100	7	na
42678	120	noff	39	0	7	na
42678	0	non	42	100	7	na
42918	240	noff	42	0	7	na
42918	0	non	39	100	7	na
43038	120	noff	39	0	7	na
43038	0	non	39	100	7	na
43158	120	noff	39	0	7	na
43158	0	non	46	100	7	na
43278	120	noff	46	0	7	na
43278	0	non	42	100	7	na
43398	120	noff	42	0	7	na
43518	120	non	46	100	7	na
43638	120	noff	46	0	7	na
43638	0	non	42	100	7	na
43758	120	noff	42	0	7	na
43758	0	non	39	100	7	na
43878	120	noff	39	0	7	na
43998	120	non	37	100	7	na
44238	240	noff	37	0	7	na
44238	0	non	41	100	7	na
44358	120	noff	41	0	7	na
44478	120	non	37	100	7	na
44598	120	noff	37	0	7	na
44598	0	non	41	100	7	na
44718	120	noff	41	0	7	na
44718	0	non	37	100	7	na
44838	120	noff	37	0	7	na
44838	0	non	34	100	7	na
44958	120	noff	34	0	7	na
44958	0	non	35	100	7	na
45198	240	noff	35	0	7	na
45198	0	non	39	100	7	na
45318	120	noff	39	0	7	na
45438	120	non	35	100	7	na
45558	120	noff	35	0	7	na
45558	0	non	39	100	7	na
45678	120	noff	39	0	7	na
45678	0	non	39	100	7	na
45798	120	noff	39	0	7	na
45918	120	non	37	100	7	na
46158	240	noff	37	0	7	na
46158	0	non	41	100	7	na
46278	120	noff	41	0	7	na
46398	120	non	37	100	7	na
46518	120	noff	37	0	7	na
46518	0	non	44	100	7	na
46638	120	noff	44	0	7	na
46638	0	non	41	100	7	na
46758	120	noff	41	0	7	na
46758	0	non	37	100	7	na
46878	120	noff	37	0	7	na
46878	0	non	39	100	7	na
47118	240	noff	39	0	7	na
47118	0	non	39	100	7	na
47238	120	noff	39	0	7	na
47358	120	non	39	100	7	na
47478	120	noff	39	0	7	na
47478	0	non	39	100	7	na
47718	240	noff	39	0	7	na
47718	0	non	39	100	7	na
47838	120	noff	39	0	7	na
47838	0	non	39	100	7	na
48078	240	noff	39	0	7	na
48078	0	non	39	100	7	na
48198	120	noff	39	0	7	na
48318	120	non	39	100	7	na
48438	120	noff	39	0	7	na
48438	0	non	39	100	7	na
48558	120	noff	39	0	7	na
48558	0	non	39	100	7	na
48678	120	noff	39	0	7	na
48678	0	non	37	100	7	na
48798	120	noff	37	0	7	na
48798	0	non	39	100	7	na
49038	240	noff	39	0	7	na
49038	0	non	46	100	7	na
49158	120	noff	46	0	7	na
49158	0	non	42	100	7	na
49278	120	noff	42	0	7	na
49278	0	non	39	100	7	na
49398	120	noff	39	0	7	na
49398	0	non	46	100	7	na
49518	120	noff	46	0	7	na
49518	0	non	42	100	7	na
49638	120	noff	42	0	7	na
49758	120	non	37	100	7	na
49998	240	noff	37	0	7	na
49998	0	non	41	100	7	na
50118	120	noff	41	0	7	na
50238	120	non	37	100	7	na
50358	120	noff	37	0	7	na
50358	0	non	42	100	7	na
50598	240	noff	42	0	7	na
50598	0	non	37	100	7	na
50718	120	noff	37	0	7	na
50718	0	non	39	100	7	na
50838	120	noff	39	0	7	na
50838	0	non	46	100	7	na
50958	120	noff	46	0	7	na
50958	0	non	42	100	7	na
51078	120	noff	42	0	7	na
51198	120	non	46	100	7	na
51318	120	noff	46	0	7	na
51318	0	non	42	100	7	na
51438	120	noff	42	0	7	na
51438	0	non	39	100	7	na
51558	120	noff	39	0	7	na
51678	120	non	37	100	7	na
51798	120	noff	37	0	7	na
51798	0	non	41	100	7	na
51918	120	noff	41	0	7	na
52158	240	non	37	100	7	na
52278	120	noff	37	0	7	na
52278	0	non	41	100	7	na
52518	240	noff	41	0	7	na
52518	0	non	37	100	7	na
52638	120	noff	37	0	7	na
52638	0	non	35	100	7	na
52878	240	noff	35	0	7	na
52878	0	non	39	100	7	na
52998	120	noff	39	0	7	na
53118	120	non	35	100	7	na
53238	120	noff	35	0	7	na
53238	0	non	39	100	7	na
53358	120	noff	39	0	7	na
53358	0	non	39	100	7	na
53478	120	noff	39	0	7	na
53598	120	non	37	100	7	na
53838	240	noff	37	0	7	na
53838	0	non	41	100	7	na
53958	120	noff	41	0	7	na
54078	120	non	37	100	7	na
54198	120	noff	37	0	7	na
54198	0	non	41	100	7	na
54318	120	noff	41	0	7	na
54318	0	non	46	100	7	na
54438	120	noff	46	0	7	na
54438	0	non	41	100	7	na
54558	120	noff	41	0	7	na
54558	0	non	39	100	7	na
54798	240	noff	39	0	7	na
54798	0	non	41	100	7	na
54918	120	noff	41	0	7	na
55038	120	non	39	100	7	na
55158	120	noff	39	0	7	na
55158	0	non	42	100	7	na
55398	240	noff	42	0	7	na
55518	120	non	39	100	7	na
55758	240	noff	39	0	7	na
55758	0	non	42	100	7	na
55878	120	noff	42	0	7	na
55878	0	non	39	100	7	na
55998	120	noff	39	0	7	na
55998	0	non	39	100	7	na
56118	120	noff	39	0	7	na
56118	0	non	42	100	7	na
56358	240	noff	42	0	7	na
56478	120	non	39	100	7	na
56718	240	noff	39	0	7	na
56718	0	non	46	100	7	na
56838	120	noff	46	0	7	na
56838	0	non	42	100	7	na
56958	120	noff	42	0	7	na
56958	0	non	39	100	7	na
57078	120	noff	39	0	7	na
57078	0	non	46	100	7	na
57198	120	noff	46	0	7	na
57198	0	non	42	100	7	na
57318	120	noff	42	0	7	na
57438	120	non	37	100	7	na
57678	240	noff	37	0	7	na
57678	0	non	41	100	7	na
57798	120	noff	41	0	7	na
57918	120	non	39	100	7	na
58038	120	noff	39	0	7	na
58038	0	non	42	100	7	na
58278	240	noff	42	0	7	na
58278	0	non	39	100	7	na
58398	120	noff	39	0	7	na
58398	0	non	39	100	7	na
58518	120	noff	39	0	7	na
58518	0	non	46	100	7	na
58638	120	noff	46	0	7	na
58638	0	non	42	100	7	na
58758	120	noff	42	0	7	na
58878	120	non	46	100	7	na
58998	120	noff	46	0	7	na
58998	0	non	42	100	7	na
59118	120	noff	42	0	7	na
59118	0	non	39	100	7	na
59238	120	noff	39	0	7	na
59358	120	non	37	100	7	na
59598	240	noff	37	0	7	na
59598	0	non	41	100	7	na
59718	120	noff	41	0	7	na
59838	120	non	37	100	7	na
59958	120	noff	37	0	7	na
59958	0	non	41	100	7	na
60078	120	noff	41	0	7	na
60078	0	non	37	100	7	na
60198	120	noff	37	0	7	na
60198	0	non	34	100	7	na
60318	120	noff	34	0	7	na
60318	0	non	35	100	7	na
60558	240	noff	35	0	7	na
60558	0	non	39	100	7	na
60678	120	noff	39	0	7	na
60798	120	non	35	100	7	na
60918	120	noff	35	0	7	na
60918	0	non	39	100	7	na
61038	120	noff	39	0	7	na
61038	0	non	39	100	7	na
61158	120	noff	39	0	7	na
61278	120	non	37	100	7	na
61518	240	noff	37	0	7	na
61518	0	non	41	100	7	na
61638	120	noff	41	0	7	na
61758	120	non	37	100	7	na
61878	120	noff	37	0	7	na
61878	0	non	44	100	7	na
61998	120	noff	44	0	7	na
61998	0	non	41	100	7	na
62118	120	noff	41	0	7	na
62118	0	non	37	100	7	na
62238	120	noff	37	0	7	na
62238	0	non	39	100	7	na
62478	240	noff	39	0	7	na
62478	0	non	39	100	7	na
62598	120	noff	39	0	7	na
62718	120	non	39	100	7	na
62838	120	noff	39	0	7	na
62838	0	non	39	100	7	na
63078	240	noff	39	0	7	na
63078	0	non	39	100	7	na
63198	120	noff	39	0	7	na
63198	0	non	39	100	7	na
63438	240	noff	39	0	7	na
63438	0	non	39	100	7	na
63558	120	noff	39	0	7	na
63678	120	non	39	100	7	na
63798	120	noff	39	0	7	na
63798	0	non	39	100	7	na
63918	120	noff	39	0	7	na
63918	0	non	39	100	7	na
64038	120	noff	39	0	7	na
64038	0	non	37	100	7	na
64158	120	noff	37	0	7	na
64158	0	non	35	100	7	na
64158	0	non	39	100	7	na
64638	480	noff	35	0	7	na
64638	0	noff	39	0	7	na
65118	480	non	35	100	7	na
65118	0	non	39	100	7	na
65598	480	noff	35	0	7	na
65598	0	noff	39	0	7	na
66078	480	non	35	100	7	na
66078	0	non	39	100	7	na
66318	240	noff	35	0	7	na
66318	0	noff	39	0	7	na
66318	0	non	39	100	7	na
66438	120	noff	39	0	7	na
66558	120	non	35	100	7	na
66558	0	non	39	100	7	na
66798	240	noff	35	0	7	na
66798	0	noff	39	0	7	na
66798	0	non	39	100	7	na
66798	0	non	42	100	7	na
66918	120	noff	39	0	7	na
66918	0	noff	42	0	7	na
67038	120	non	35	100	7	na
67038	0	non	39	100	7	na
67278	240	noff	35	0	7	na
67278	0	noff	39	0	7	na
67278	0	non	42	100	7	na
67278	0	non	39	100	7	na
67398	120	noff	42	0	7	na
67398	0	noff	39	0	7	na
67518	120	non	37	100	7	na
67518	0	non	41	100	7	na
67758	240	noff	37	0	7	na
67758	0	noff	41	0	7	na
67998	240	non	39	100	7	na
67998	0	non	42	100	7	na
68478	480	noff	39	0	7	na
68478	0	noff	42	0	7	na
68958	480	non	39	100	7	na
68958	0	non	42	100	7	na
69438	480	noff	39	0	7	na
69438	0	noff	42	0	7	na
69918	480	non	46	100	7	na
69918	0	non	39	100	7	na
70158	240	noff	46	0	7	na
70158	0	noff	39	0	7	na
70158	0	non	51	100	7	na
70158	0	non	46	100	7	na
70278	120	noff	51	0	7	na
70278	0	noff	46	0	7	na
70398	120	non	46	100	7	na
70398	0	non	39	100	7	na
70638	240	noff	46	0	7	na
70638	0	noff	39	0	7	na
70638	0	non	58	100	7	na
70638	0	non	54	100	7	na
70758	120	noff	58	0	7	na
70758	0	noff	54	0	7	na
70878	120	non	38	100	7	na
70878	0	non	44	100	7	na
71118	240	noff	38	0	7	na
71118	0	noff	44	0	7	na
71118	0	non	56	100	7	na
71118	0	non	53	100	7	na
71238	120	noff	56	0	7	na
71238	0	noff	53	0	7	na
71358	120	non	38	100	7	na
71358	0	non	44	100	7	na
71598	240	noff	38	0	7	na
71598	0	noff	44	0	7	na
71598	0	non	53	100	7	na
71598	0	non	50	100	7	na
71718	120	noff	53	0	7	na
71718	0	noff	50	0	7	na
71838	120	non	38	100	7	na
71838	0	non	42	100	7	na
72318	480	noff	38	0	7	na
72318	0	noff	42	0	7	na
72798	480	non	38	100	7	na
72798	0	non	42	100	7	na
73278	480	noff	38	0	7	na
73278	0	noff	42	0	7	na
73758	480	non	38	100	7	na
73758	0	non	42	100	7	na
73998	240	noff	38	0	7	na
73998	0	noff	42	0	7	na
73998	0	non	42	100	7	na
74118	120	noff	42	0	7	na
74238	120	non	38	100	7	na
74238	0	non	42	100	7	na
74478	240	noff	38	0	7	na
74478	0	noff	42	0	7	na
74478	0	non	45	100	7	na
74478	0	non	54	100	7	na
74598	120	noff	45	0	7	na
74598	0	noff	54	0	7	na
74718	120	non	38	100	7	na
74718	0	non	42	100	7	na
74958	240	noff	38	0	7	na
74958	0	noff	42	0	7	na
74958	0	non	45	100	7	na
74958	0	non	54	100	7	na
75078	120	noff	45	0	7	na
75078	0	noff	54	0	7	na
75198	120	non	38	100	7	na
75198	0	non	42	100	7	na
75438	240	noff	38	0	7	na
75438	0	noff	42	0	7	na
75678	240	non	42	100	7	na
75678	0	non	37	100	7	na
76158	480	noff	42	0	7	na
76158	0	noff	37	0	7	na
76638	480	non	42	100	7	na
76638	0	non	37	100	7	na
77118	480	noff	42	0	7	na
77118	0	noff	37	0	7	na
77598	480	non	42	100	7	na
77598	0	non	37	100	7	na
77838	240	noff	42	0	7	na
77838	0	noff	37	0	7	na
77838	0	non	57	100	7	na
77838	0	non	54	100	7	na
77958	120	noff	57	0	7	na
77958	0	noff	54	0	7	na
78078	120	non	42	100	7	na
78078	0	non	37	100	7	na
78318	240	noff	42	0	7	na
78318	0	noff	37	0	7	na
78318	0	non	57	100	7	na
78318	0	non	54	100	7	na
78438	120	noff	57	0	7	na
78438	0	noff	54	0	7	na
78558	120	non	42	100	7	na
78558	0	non	37	100	7	na
78798	240	noff	42	0	7	na
78798	0	noff	37	0	7	na
78798	0	non	57	100	7	na
78798	0	non	54	100	7	na
78918	120	noff	57	0	7	na
78918	0	noff	54	0	7	na
79038	120	non	42	100	7	na
79038	0	non	37	100	7	na
79278	240	noff	42	0	7	na
79278	0	noff	37	0	7	na
79278	0	non	56	100	7	na
79398	120	noff	56	0	7	na
79398	0	non	57	100	7	na
79518	120	noff	57	0	7	na
79518	0	non	38	100	7	na
79758	240	noff	38	0	7	na
79758	0	non	38	100	7	na
79878	120	noff	38	0	7	na
79998	120	non	42	100	7	na
80118	120	noff	42	0	7	na
80238	120	non	38	100	7	na
80358	120	noff	38	0	7	na
80478	120	non	30	100	7	na
80598	120	noff	30	0	7	na
80598	0	non	38	100	7	na
80718	120	noff	38	0	7	na
80718	0	non	38	100	7	na
80838	120	noff	38	0	7	na
80958	120	non	42	100	7	na
81198	240	noff	42	0	7	na
81198	0	non	38	100	7	na
81318	120	noff	38	0	7	na
81318	0	non	42	100	7	na
81438	120	noff	42	0	7	na
81438	0	non	40	100	7	na
81678	240	noff	40	0	7	na
81678	0	non	44	100	7	na
81798	120	noff	44	0	7	na
81918	120	non	45	100	7	na
82038	120	noff	45	0	7	na
82158	120	non	44	100	7	na
82398	240	noff	44	0	7	na
82398	0	non	40	100	7	na
82518	120	noff	40	0	7	na
82518	0	non	40	100	7	na
82638	120	noff	40	0	7	na
82638	0	non	40	100	7	na
82878	240	noff	40	0	7	na
82878	0	non	40	100	7	na
83298	420	noff	40	0	7	na
83358	60	non	42	100	7	na
83598	240	noff	42	0	7	na
83598	0	non	42	100	7	na
83718	120	noff	42	0	7	na
83838	120	non	45	100	7	na
83958	120	noff	45	0	7	na
84078	120	non	42	100	7	na
84198	120	noff	42	0	7	na
84318	120	non	37	100	7	na
84438	120	noff	37	0	7	na
84438	0	non	42	100	7	na
84558	120	noff	42	0	7	na
84558	0	non	44	100	7	na
84798	240	noff	44	0	7	na
84798	0	non	45	100	7	na
84918	120	noff	45	0	7	na
84918	0	non	44	100	7	na
85038	120	noff	44	0	7	na
85158	120	non	41	100	7	na
85278	120	noff	41	0	7	na
85278	0	non	37	100	7	na
85398	120	noff	37	0	7	na
85398	0	non	42	100	7	na
85518	120	noff	42	0	7	na
85518	0	non	45	100	7	na
85758	240	noff	45	0	7	na
85758	0	non	49	100	7	na
85998	240	noff	49	0	7	na
85998	0	non	45	100	7	na
86238	240	noff	45	0	7	na
86238	0	non	37	100	7	na
86358	120	noff	37	0	7	na
86358	0	non	42	100	7	na
86478	120	noff	42	0	7	na
86478	0	non	45	100	7	na
86718	240	noff	45	0	7	na
86718	0	non	44	100	7	na
86838	120	noff	44	0	7	na
86838	0	non	40	100	7	na
86958	120	noff	40	0	7	na
86958	0	non	37	100	7	na
87078	120	noff	37	0	7	na
87078	0	non	40	100	7	na
87198	120	noff	40	0	7	na
87198	0	non	38	100	7	na
87438	240	noff	38	0	7	na
87438	0	non	42	100	7	na
87678	240	noff	42	0	7	na
87678	0	non	38	100	7	na
87798	120	noff	38	0	7	na
87798	0	non	42	100	7	na
87918	120	noff	42	0	7	na
87918	0	non	38	100	7	na
88038	120	noff	38	0	7	na
88038	0	non	42	100	7	na
88158	120	noff	42	0	7	na
88158	0	non	40	100	7	na
88398	240	noff	40	0	7	na
88398	0	non	37	100	7	na
88518	120	noff	37	0	7	na
88518	0	non	40	100	7	na
88638	120	noff	40	0	7	na
88638	0	non	49	100	7	na
88758	120	noff	49	0	7	na
88758	0	non	40	100	7	na
88878	120	noff	40	0	7	na
88878	0	non	37	100	7	na
88998	120	noff	37	0	7	na
88998	0	non	41	100	7	na
89118	120	noff	41	0	7	na
89118	0	non	42	100	7	na
89358	240	noff	42	0	7	na
89358	0	non	45	100	7	na
89598	240	noff	45	0	7	na
89598	0	non	42	100	7	na
89718	120	noff	42	0	7	na
89718	0	non	44	100	7	na
89838	120	noff	44	0	7	na
89838	0	non	45	100	7	na
89958	120	noff	45	0	7	na
89958	0	non	42	100	7	na
90078	120	noff	42	0	7	na
90078	0	non	42	100	7	na
90318	240	noff	42	0	7	na
90318	0	non	47	100	7	na
90558	240	noff	47	0	7	na
90558	0	non	47	100	7	na
90678	120	noff	47	0	7	na
90678	0	non	52	100	7	na
90798	120	noff	52	0	7	na
90798	0	non	47	100	7	na
90918	120	noff	47	0	7	na
90918	0	non	45	100	7	na
91038	120	noff	45	0	7	na
91038	0	non	42	100	7	na
91278	240	noff	42	0	7	na
91278	0	non	45	100	7	na
91518	240	noff	45	0	7	na
91518	0	non	42	100	7	na
91638	120	noff	42	0	7	na
91638	0	non	45	100	7	na
91758	120	noff	45	0	7	na
91758	0	non	42	100	7	na
91878	120	noff	42	0	7	na
91878	0	non	40	100	7	na
91998	120	noff	40	0	7	na
91998	0	non	44	100	7	na
92118	120	noff	44	0	7	na
92118	0	non	42	100	7	na
92238	120	noff	42	0	7	na
92238	0	non	41	100	7	na
92358	120	noff	41	0	7	na
92358	0	non	37	100	7	na
92478	120	noff	37	0	7	na
92478	0	non	37	100	7	na
92598	120	noff	37	0	7	na
92598	0	non	41	100	7	na
92718	120	noff	41	0	7	na
92718	0	non	44	100	7	na
92838	120	noff	44	0	7	na
92958	120	non	42	100	7	na
93198	240	noff	42	0	7	na
93198	0	non	45	100	7	na
93438	240	noff	45	0	7	na
93438	0	non	42	100	7	na
93558	120	noff	42	0	7	na
93558	0	non	42	100	7	na
93678	120	noff	42	0	7	na
93678	0	non	45	100	7	na
93798	120	noff	45	0	7	na
93798	0	non	42	100	7	na
93918	120	noff	42	0	7	na
93918	0	non	42	100	7	na
94158	240	noff	42	0	7	na
94158	0	non	42	100	7	na
94278	120	noff	42	0	7	na
94278	0	non	45	100	7	na
94398	120	noff	45	0	7	na
94398	0	non	44	100	7	na
94518	120	noff	44	0	7	na
94518	0	non	40	100	7	na
94638	120	noff	40	0	7	na
94638	0	non	37	100	7	na
94758	120	noff	37	0	7	na
94758	0	non	33	100	7	na
94878	120	noff	33	0	7	na
94878	0	non	38	100	7	na
95118	240	noff	38	0	7	na
95118	0	non	38	100	7	na
95238	120	noff	38	0	7	na
95358	120	non	42	100	7	na
95478	120	noff	42	0	7	na
95598	120	non	38	100	7	na
95718	120	noff	38	0	7	na
95838	120	non	30	100	7	na
95958	120	noff	30	0	7	na
95958	0	non	38	100	7	na
96078	120	noff	38	0	7	na
96078	0	non	38	100	7	na
96198	120	noff	38	0	7	na
96318	120	non	42	100	7	na
96558	240	noff	42	0	7	na
96558	0	non	38	100	7	na
96678	120	noff	38	0	7	na
96678	0	non	42	100	7	na
96798	120	noff	42	0	7	na
96798	0	non	40	100	7	na
97038	240	noff	40	0	7	na
97038	0	non	44	100	7	na
97158	120	noff	44	0	7	na
97278	120	non	45	100	7	na
97398	120	noff	45	0	7	na
97518	120	non	44	100	7	na
97758	240	noff	44	0	7	na
97758	0	non	40	100	7	na
97878	120	noff	40	0	7	na
97878	0	non	40	100	7	na
97998	120	noff	40	0	7	na
97998	0	non	40	100	7	na
98238	240	noff	40	0	7	na
98238	0	non	40	100	7	na
98658	420	noff	40	0	7	na
98718	60	non	42	100	7	na
98958	240	noff	42	0	7	na
98958	0	non	42	100	7	na
99078	120	noff	42	0	7	na
99198	120	non	45	100	7	na
99318	120	noff	45	0	7	na
99438	120	non	42	100	7	na
99558	120	noff	42	0	7	na
99678	120	non	37	100	7	na
99798	120	noff	37	0	7	na
99798	0	non	42	100	7	na
99918	120	noff	42	0	7	na
99918	0	non	44	100	7	na
100158	240	noff	44	0	7	na
100158	0	non	45	100	7	na
100278	120	noff	45	0	7	na
100278	0	non	44	100	7	na
100398	120	noff	44	0	7	na
100518	120	non	41	100	7	na
100638	120	noff	41	0	7	na
100638	0	non	37	100	7	na
100758	120	noff	37	0	7	na
100758	0	non	42	100	7	na
100878	120	noff	42	0	7	na
100878	0	non	45	100	7	na
101118	240	noff	45	0	7	na
101118	0	non	49	100	7	na
101358	240	noff	49	0	7	na
101358	0	non	45	100	7	na
101598	240	noff	45	0	7	na
101598	0	non	37	100	7	na
101718	120	noff	37	0	7	na
101718	0	non	42	100	7	na
101838	120	noff	42	0	7	na
101838	0	non	45	100	7	na
102078	240	noff	45	0	7	na
102078	0	non	44	100	7	na
102198	120	noff	44	0	7	na
102198	0	non	40	100	7	na
102318	120	noff	40	0	7	na
102318	0	non	37	100	7	na
102438	120	noff	37	0	7	na
102438	0	non	40	100	7	na
102558	120	noff	40	0	7	na
102558	0	non	38	100	7	na
102798	240	noff	38	0	7	na
102798	0	non	42	100	7	na
103038	240	noff	42	0	7	na
103038	0	non	38	100	7	na
103158	120	noff	38	0	7	na
103158	0	non	42	100	7	na
103278	120	noff	42	0	7	na
103278	0	non	38	100	7	na
103398	120	noff	38	0	7	na
103398	0	non	42	100	7	na
103518	120	noff	42	0	7	na
103518	0	non	40	100	7	na
103758	240	noff	40	0	7	na
103758	0	non	37	100	7	na
103878	120	noff	37	0	7	na
103878	0	non	40	100	7	na
103998	120	noff	40	0	7	na
103998	0	non	49	100	7	na
104118	120	noff	49	0	7	na
104118	0	non	40	100	7	na
104238	120	noff	40	0	7	na
104238	0	non	37	100	7	na
104358	120	noff	37	0	7	na
104358	0	non	41	100	7	na
104478	120	noff	41	0	7	na
104478	0	non	42	100	7	na
104718	240	noff	42	0	7	na
104718	0	non	45	100	7	na
104958	240	noff	45	0	7	na
104958	0	non	42	100	7	na
105078	120	noff	42	0	7	na
105078	0	non	44	100	7	na
105198	120	noff	44	0	7	na
105198	0	non	45	100	7	na
105318	120	noff	45	0	7	na
105318	0	non	42	100	7	na
105438	120	noff	42	0	7	na
105438	0	non	42	100	7	na
105678	240	noff	42	0	7	na
105678	0	non	47	100	7	na
105918	240	noff	47	0	7	na
105918	0	non	47	100	7	na
106038	120	noff	47	0	7	na
106038	0	non	52	100	7	na
106158	120	noff	52	0	7	na
106158	0	non	47	100	7	na
106278	120	noff	47	0	7	na
106278	0	non	45	100	7	na
106398	120	noff	45	0	7	na
106398	0	non	42	100	7	na
106638	240	noff	42	0	7	na
106638	0	non	45	100	7	na
106878	240	noff	45	0	7	na
106878	0	non	42	100	7	na
106998	120	noff	42	0	7	na
106998	0	non	45	100	7	na
107118	120	noff	45	0	7	na
107118	0	non	42	100	7	na
107238	120	noff	42	0	7	na
107238	0	non	40	100	7	na
107358	120	noff	40	0	7	na
107358	0	non	44	100	7	na
107478	120	noff	44	0	7	na
107478	0	non	42	100	7	na
107598	120	noff	42	0	7	na
107598	0	non	41	100	7	na
107718	120	noff	41	0	7	na
107718	0	non	37	100	7	na
107838	120	noff	37	0	7	na
107838	0	non	37	100	7	na
107958	120	noff	37	0	7	na
107958	0	non	41	100	7	na
108078	120	noff	41	0	7	na
108078	0	non	44	100	7	na
108198	120	noff	44	0	7	na
108318	120	non	42	100	7	na
108558	240	noff	42	0	7	na
108558	0	non	45	100	7	na
108798	240	noff	45	0	7	na
108798	0	non	42	100	7	na
108918	120	noff	42	0	7	na
108918	0	non	42	100	7	na
109038	120	noff	42	0	7	na
109038	0	non	45	100	7	na
109158	120	noff	45	0	7	na
109158	0	non	42	100	7	na
109278	120	noff	42	0	7	na
109278	0	non	42	100	7	na
109518	240	noff	42	0	7	na
109518	0	non	42	100	7	na
109638	120	noff	42	0	7	na
109638	0	non	45	100	7	na
109758	120	noff	45	0	7	na
109758	0	non	44	100	7	na
109878	120	noff	44	0	7	na
109878	0	non	40	100	7	na
109998	120	noff	40	0	7	na
109998	0	non	37	100	7	na
110118	120	noff	37	0	7	na
110118	0	non	33	100	7	na
110238	120	noff	33	0	7	na
110238	0	non	38	100	7	na
110898	660	noff	38	0	7	na
110958	60	non	38	100	7	na
111198	240	noff	38	0	7	na
111198	0	non	38	100	7	na
111318	120	noff	38	0	7	na
111318	0	non	40	100	7	na
111438	120	noff	40	0	7	na
111438	0	non	42	100	7	na
111558	120	noff	42	0	7	na
111678	120	non	42	100	7	na
111798	120	noff	42	0	7	na
111798	0	non	37	100	7	na
111918	120	noff	37	0	7	na
111918	0	non	40	100	7	na
112038	120	noff	40	0	7	na
112158	120	non	35	100	7	na
112318	160	noff	35	0	7	na
112318	0	non	40	100	7	na
112478	160	noff	40	0	7	na
112478	0	non	35	100	7	na
112638	160	noff	35	0	7	na
112638	0	non	44	100	7	na
112798	160	noff	44	0	7	na
112798	0	non	35	100	7	na
112958	160	noff	35	0	7	na
112958	0	non	40	100	7	na
113118	160	noff	40	0	7	na
113118	0	non	35	100	7	na
113278	160	noff	35	0	7	na
113278	0	non	40	100	7	na
113438	160	noff	40	0	7	na
113438	0	non	35	100	7	na
113598	160	noff	35	0	7	na
113598	0	non	44	100	7	na
113758	160	noff	44	0	7	na
113758	0	non	35	100	7	na
113918	160	noff	35	0	7	na
113918	0	non	40	100	7	na
114078	160	noff	40	0	7	na
114078	0	non	37	100	7	na
114558	480	noff	37	0	7	na
114558	0	non	37	100	7	na
114678	120	noff	37	0	7	na
114678	0	non	40	100	7	na
114798	120	noff	40	0	7	na
114798	0	non	49	100	7	na
114918	120	noff	49	0	7	na
115038	120	non	37	100	7	na
115278	240	noff	37	0	7	na
115278	0	non	49	100	7	na
115518	240	noff	49	0	7	na
115518	0	non	45	100	7	na
115638	120	noff	45	0	7	na
115638	0	non	44	100	7	na
115878	240	noff	44	0	7	na
115878	0	non	40	100	7	na
115998	120	noff	40	0	7	na
115998	0	non	42	100	7	na
116238	240	noff	42	0	7	na
116238	0	non	49	100	7	na
116358	120	noff	49	0	7	na
116478	120	non	42	100	7	na
116718	240	noff	42	0	7	na
116718	0	non	49	100	7	na
116838	120	noff	49	0	7	na
116958	120	non	42	100	7	na
117078	120	noff	42	0	7	na
117078	0	non	45	100	7	na
117198	120	noff	45	0	7	na
117198	0	non	49	100	7	na
117318	120	noff	49	0	7	na
117318	0	non	45	100	7	na
117438	120	noff	45	0	7	na
117438	0	non	42	100	7	na
117558	120	noff	42	0	7	na
117558	0	non	45	100	7	na
117678	120	noff	45	0	7	na
117678	0	non	49	100	7	na
117798	120	noff	49	0	7	na
117918	120	non	35	100	7	na
118398	480	noff	35	0	7	na
118638	240	non	35	100	7	na
118758	120	noff	35	0	7	na
118758	0	non	40	100	7	na
118878	120	noff	40	0	7	na
118878	0	non	44	100	7	na
118998	120	noff	44	0	7	na
118998	0	non	40	100	7	na
119118	120	noff	40	0	7	na
119118	0	non	35	100	7	na
119358	240	noff	35	0	7	na
119358	0	non	35	100	7	na
119538	180	noff	35	0	7	na
119598	60	non	35	100	7	na
119778	180	noff	35	0	7	na
119838	60	non	35	100	7	na
120078	240	noff	35	0	7	na
120078	0	non	37	100	7	na
120318	240	noff	37	0	7	na
120318	0	non	40	100	7	na
120558	240	noff	40	0	7	na
120558	0	non	45	100	7	na
120798	240	noff	45	0	7	na
120798	0	non	45	100	7	na
120798	0	non	37	100	7	na
121098	300	noff	45	0	7	na
121098	0	noff	37	0	7	na
121158	60	non	40	100	7	na
121518	360	noff	40	0	7	na
121518	0	non	45	100	7	na
121518	0	non	40	100	7	na
121638	120	noff	40	0	7	na
121698	60	noff	45	0	7	na
121758	60	non	42	100	7	na
121758	0	non	49	100	7	na
122418	660	noff	49	0	7	na
122478	60	non	45	100	7	na
122658	180	noff	42	0	7	na
122658	0	noff	45	0	7	na
122718	60	non	42	100	7	na
122718	0	non	49	100	7	na
123138	420	noff	49	0	7	na
123198	60	non	45	100	7	na
123438	240	noff	45	0	7	na
123438	0	non	47	100	7	na
123618	180	noff	42	0	7	na
123678	60	noff	47	0	7	na
123678	0	non	42	100	7	na
123678	0	non	49	100	7	na
124398	720	noff	49	0	7	na
124398	0	non	45	100	7	na
124578	180	noff	42	0	7	na
124578	0	noff	45	0	7	na
124638	60	non	49	100	7	na
124638	0	non	42	100	7	na
125058	420	noff	42	0	7	na
125118	60	noff	49	0	7	na
125118	0	non	44	100	7	na
125358	240	noff	44	0	7	na
125358	0	non	40	100	7	na
125598	240	noff	40	0	7	na
125598	0	non	38	100	7	na
126258	660	noff	38	0	7	na
126318	60	non	38	100	7	na
126558	240	noff	38	0	7	na
126558	0	non	38	100	7	na
126678	120	noff	38	0	7	na
126678	0	non	40	100	7	na
126798	120	noff	40	0	7	na
126798	0	non	42	100	7	na
126918	120	noff	42	0	7	na
127038	120	non	42	100	7	na
127158	120	noff	42	0	7	na
127158	0	non	37	100	7	na
127278	120	noff	37	0	7	na
127278	0	non	40	100	7	na
127398	120	noff	40	0	7	na
127518	120	non	35	100	7	na
127678	160	noff	35	0	7	na
127678	0	non	40	100	7	na
127838	160	noff	40	0	7	na
127838	0	non	35	100	7	na
127998	160	noff	35	0	7	na
127998	0	non	44	100	7	na
128158	160	noff	44	0	7	na
128158	0	non	35	100	7	na
128318	160	noff	35	0	7	na
128318	0	non	40	100	7	na
128478	160	noff	40	0	7	na
128478	0	non	35	100	7	na
128638	160	noff	35	0	7	na
128638	0	non	40	100	7	na
128798	160	noff	40	0	7	na
128798	0	non	35	100	7	na
128958	160	noff	35	0	7	na
128958	0	non	44	100	7	na
129118	160	noff	44	0	7	na
129118	0	non	35	100	7	na
129278	160	noff	35	0	7	na
129278	0	non	40	100	7	na
129438	160	noff	40	0	7	na
129438	0	non	37	100	7	na
129918	480	noff	37	0	7	na
129918	0	non	37	100	7	na
130038	120	noff	37	0	7	na
130038	0	non	40	100	7	na
130158	120	noff	40	0	7	na
130158	0	non	49	100	7	na
130278	120	noff	49	0	7	na
130398	120	non	37	100	7	na
130638	240	noff	37	0	7	na
130638	0	non	49	100	7	na
130878	240	noff	49	0	7	na
130878	0	non	45	100	7	na
130998	120	noff	45	0	7	na
130998	0	non	44	100	7	na
131238	240	noff	44	0	7	na
131238	0	non	40	100	7	na
131358	120	noff	40	0	7	na
131358	0	non	42	100	7	na
131598	240	noff	42	0	7	na
131598	0	non	49	100	7	na
131718	120	noff	49	0	7	na
131838	120	non	42	100	7	na
132078	240	noff	42	0	7	na
132078	0	non	49	100	7	na
132198	120	noff	49	0	7	na
132318	120	non	42	100	7	na
132438	120	noff	42	0	7	na
132438	0	non	45	100	7	na
132558	120	noff	45	0	7	na
132558	0	non	49	100	7	na
132678	120	noff	49	0	7	na
132678	0	non	45	100	7	na
132798	120	noff	45	0	7	na
132798	0	non	42	100	7	na
132918	120	noff	42	0	7	na
132918	0	non	45	100	7	na
133038	120	noff	45	0	7	na
133038	0	non	49	100	7	na
133158	120	noff	49	0	7	na
133278	120	non	35	100	7	na
133758	480	noff	35	0	7	na
133998	240	non	35	100	7	na
134118	120	noff	35	0	7	na
134118	0	non	40	100	7	na
134238	120	noff	40	0	7	na
134238	0	non	44	100	7	na
134358	120	noff	44	0	7	na
134358	0	non	40	100	7	na
134478	120	noff	40	0	7	na
134478	0	non	35	100	7	na
134718	240	noff	35	0	7	na
134718	0	non	35	100	7	na
134898	180	noff	35	0	7	na
134958	60	non	35	100	7	na
135138	180	noff	35	0	7	na
135198	60	non	35	100	7	na
135438	240	noff	35	0	7	na
135438	0	non	37	100	7	na
135678	240	noff	37	0	7	na
135678	0	non	40	100	7	na
135918	240	noff	40	0	7	na
135918	0	non	45	100	7	na
136158	240	noff	45	0	7	na
136158	0	non	45	100	7	na
136458	300	noff	45	0	7	na
136518	60	non	40	100	7	na
136878	360	noff	40	0	7	na
136878	0	non	45	100	7	na
137058	180	noff	45	0	7	na
137118	60	non	42	100	7	na
137118	0	non	49	100	7	na
137778	660	noff	42	0	7	na
137838	60	non	45	100	7	na
138018	180	noff	49	0	7	na
138018	0	noff	45	0	7	na
138078	60	non	49	100	7	na
138078	0	non	42	100	7	na
138558	480	noff	49	0	7	na
138558	0	noff	42	0	7	na
138558	0	non	45	100	7	na
138798	240	noff	45	0	7	na
138798	0	non	47	100	7	na
139038	240	noff	47	0	7	na
139038	0	non	42	100	7	na
139038	0	non	49	100	7	na
139758	720	noff	49	0	7	na
139758	0	non	45	100	7	na
139938	180	noff	42	0	7	na
139938	0	noff	45	0	7	na
139998	60	non	45	100	7	na
139998	0	non	37	100	7	na
140238	240	noff	45	0	7	na
140238	0	noff	37	0	7	na
140478	240	non	49	100	7	na
140598	120	noff	49	0	7	na
140598	0	non	45	100	7	na
140718	120	noff	45	0	7	na
140718	0	non	42	100	7	na
140838	120	noff	42	0	7	na
140838	0	non	37	100	7	na
140958	120	noff	37	0	7	na
140958	0	non	39	100	7	na
141198	240	noff	39	0	7	na
141198	0	non	46	100	7	na
141318	120	noff	46	0	7	na
141318	0	non	42	100	7	na
141438	120	noff	42	0	7	na
141438	0	non	39	100	7	na
141558	120	noff	39	0	7	na
141558	0	non	46	100	7	na
141678	120	noff	46	0	7	na
141678	0	non	42	100	7	na
141798	120	noff	42	0	7	na
141918	120	non	37	100	7	na
142158	240	noff	37	0	7	na
142158	0	non	41	100	7	na
142278	120	noff	41	0	7	na
142398	120	non	37	100	7	na
142518	120	noff	37	0	7	na
142518	0	non	42	100	7	na
142758	240	noff	42	0	7	na
142758	0	non	37	100	7	na
142878	120	noff	37	0	7	na
142878	0	non	39	100	7	na
142998	120	noff	39	0	7	na
142998	0	non	46	100	7	na
143118	120	noff	46	0	7	na
143118	0	non	42	100	7	na
143238	120	noff	42	0	7	na
143358	120	non	46	100	7	na
143478	120	noff	46	0	7	na
143478	0	non	42	100	7	na
143598	120	noff	42	0	7	na
143598	0	non	39	100	7	na
143718	120	noff	39	0	7	na
143838	120	non	37	100	7	na
143958	120	noff	37	0	7	na
143958	0	non	41	100	7	na
144078	120	noff	41	0	7	na
144318	240	non	37	100	7	na
144438	120	noff	37	0	7	na
144438	0	non	41	100	7	na
144678	240	noff	41	0	7	na
144678	0	non	37	100	7	na
144798	120	noff	37	0	7	na
144798	0	non	35	100	7	na
145038	240	noff	35	0	7	na
145038	0	non	39	100	7	na
145158	120	noff	39	0	7	na
145278	120	non	35	100	7	na
145398	120	noff	35	0	7	na
145398	0	non	39	100	7	na
145518	120	noff	39	0	7	na
145518	0	non	39	100	7	na
145638	120	noff	39	0	7	na
145758	120	non	37	100	7	na
145998	240	noff	37	0	7	na
145998	0	non	41	100	7	na
146118	120	noff	41	0	7	na
146238	120	non	37	100	7	na
146358	120	noff	37	0	7	na
146358	0	non	41	100	7	na
146478	120	noff	41	0	7	na
146478	0	non	46	100	7	na
146598	120	noff	46	0	7	na
146598	0	non	41	100	7	na
146718	120	noff	41	0	7	na
146718	0	non	39	100	7	na
146958	240	noff	39	0	7	na
146958	0	non	41	100	7	na
147078	120	noff	41	0	7	na
147198	120	non	39	100	7	na
147318	120	noff	39	0	7	na
147318	0	non	42	100	7	na
147558	240	noff	42	0	7	na
147678	120	non	39	100	7	na
147918	240	noff	39	0	7	na
147918	0	non	42	100	7	na
148038	120	noff	42	0	7	na
148038	0	non	39	100	7	na
148158	120	noff	39	0	7	na
148158	0	non	39	100	7	na
148278	120	noff	39	0	7	na
148278	0	non	42	100	7	na
148518	240	noff	42	0	7	na
148638	120	non	39	100	7	na
148878	240	noff	39	0	7	na
148878	0	non	46	100	7	na
148998	120	noff	46	0	7	na
148998	0	non	42	100	7	na
149118	120	noff	42	0	7	na
149118	0	non	39	100	7	na
149238	120	noff	39	0	7	na
149238	0	non	46	100	7	na
149358	120	noff	46	0	7	na
149358	0	non	42	100	7	na
149478	120	noff	42	0	7	na
149598	120	non	37	100	7	na
149838	240	noff	37	0	7	na
149838	0	non	41	100	7	na
149958	120	noff	41	0	7	na
150078	120	non	39	100	7	na
150198	120	noff	39	0	7	na
150198	0	non	42	100	7	na
150438	240	noff	42	0	7	na
150438	0	non	39	100	7	na
150558	120	noff	39	0	7	na
150558	0	non	39	100	7	na
150678	120	noff	39	0	7	na
150678	0	non	46	100	7	na
150798	120	noff	46	0	7	na
150798	0	non	42	100	7	na
150918	120	noff	42	0	7	na
151038	120	non	46	100	7	na
151158	120	noff	46	0	7	na
151158	0	non	42	100	7	na
151278	120	noff	42	0	7	na
151278	0	non	39	100	7	na
151398	120	noff	39	0	7	na
151518	120	non	37	100	7	na
151758	240	noff	37	0	7	na
151758	0	non	41	100	7	na
151878	120	noff	41	0	7	na
151998	120	non	37	100	7	na
152118	120	noff	37	0	7	na
152118	0	non	41	100	7	na
152238	120	noff	41	0	7	na
152238	0	non	37	100	7	na
152358	120	noff	37	0	7	na
152358	0	non	34	100	7	na
152478	120	noff	34	0	7	na
152478	0	non	35	100	7	na
152718	240	noff	35	0	7	na
152718	0	non	39	100	7	na
152838	120	noff	39	0	7	na
152958	120	non	35	100	7	na
153078	120	noff	35	0	7	na
153078	0	non	39	100	7	na
153198	120	noff	39	0	7	na
153198	0	non	39	100	7	na
153318	120	noff	39	0	7	na
153438	120	non	37	100	7	na
153678	240	noff	37	0	7	na
153678	0	non	41	100	7	na
153798	120	noff	41	0	7	na
153918	120	non	37	100	7	na
154038	120	noff	37	0	7	na
154038	0	non	44	100	7	na
154158	120	noff	44	0	7	na
154158	0	non	41	100	7	na
154278	120	noff	41	0	7	na
154278	0	non	37	100	7	na
154398	120	noff	37	0	7	na
154398	0	non	39	100	7	na
154638	240	noff	39	0	7	na
154638	0	non	39	100	7	na
154758	120	noff	39	0	7	na
154878	120	non	39	100	7	na
154998	120	noff	39	0	7	na
154998	0	non	39	100	7	na
155238	240	noff	39	0	7	na
155238	0	non	39	100	7	na
155358	120	noff	39	0	7	na
155358	0	non	39	100	7	na
155598	240	noff	39	0	7	na
155598	0	non	39	100	7	na
155718	120	noff	39	0	7	na
155838	120	non	39	100	7	na
155958	120	noff	39	0	7	na
155958	0	non	39	100	7	na
156078	120	noff	39	0	7	na
156078	0	non	39	100	7	na
156198	120	noff	39	0	7	na
156198	0	non	37	100	7	na
156318	120	noff	37	0	7	na
156318	0	non	39	100	7	na
156558	240	noff	39	0	7	na
156558	0	non	46	100	7	na
156678	120	noff	46	0	7	na
156678	0	non	42	100	7	na
156798	120	noff	42	0	7	na
156798	0	non	39	100	7	na
156918	120	noff	39	0	7	na
156918	0	non	46	100	7	na
157038	120	noff	46	0	7	na
157038	0	non	42	100	7	na
157158	120	noff	42	0	7	na
157278	120	non	37	100	7	na
157518	240	noff	37	0	7	na
157518	0	non	41	100	7	na
157638	120	noff	41	0	7	na
157758	120	non	37	100	7	na
157878	120	noff	37	0	7	na
157878	0	non	42	100	7	na
158118	240	noff	42	0	7	na
158118	0	non	37	100	7	na
158238	120	noff	37	0	7	na
158238	0	non	39	100	7	na
158358	120	noff	39	0	7	na
158358	0	non	46	100	7	na
158478	120	noff	46	0	7	na
158478	0	non	42	100	7	na
158598	120	noff	42	0	7	na
158718	120	non	46	100	7	na
158838	120	noff	46	0	7	na
158838	0	non	42	100	7	na
158958	120	noff	42	0	7	na
158958	0	non	39	100	7	na
159078	120	noff	39	0	7	na
159198	120	non	37	100	7	na
159318	120	noff	37	0	7	na
159318	0	non	41	100	7	na
159438	120	noff	41	0	7	na
159678	240	non	37	100	7	na
159798	120	noff	37	0	7	na
159798	0	non	41	100	7	na
160038	240	noff	41	0	7	na
160038	0	non	37	100	7	na
160158	120	noff	37	0	7	na
160158	0	non	35	100	7	na
160398	240	noff	35	0	7	na
160398	0	non	39	100	7	na
160518	120	noff	39	0	7	na
160638	120	non	35	100	7	na
160758	120	noff	35	0	7	na
160758	0	non	39	100	7	na
160878	120	noff	39	0	7	na
160878	0	non	39	100	7	na
160998	120	noff	39	0	7	na
161118	120	non	37	100	7	na
161358	240	noff	37	0	7	na
161358	0	non	41	100	7	na
161478	120	noff	41	0	7	na
161598	120	non	37	100	7	na
161718	120	noff	37	0	7	na
161718	0	non	41	100	7	na
161838	120	noff	41	0	7	na
161838	0	non	46	100	7	na
161958	120	noff	46	0	7	na
161958	0	non	41	100	7	na
162078	120	noff	41	0	7	na
162078	0	non	39	100	7	na
162318	240	noff	39	0	7	na
162318	0	non	41	100	7	na
162438	120	noff	41	0	7	na
162558	120	non	39	100	7	na
162678	120	noff	39	0	7	na
162678	0	non	42	100	7	na
162918	240	noff	42	0	7	na
163038	120	non	39	100	7	na
163278	240	noff	39	0	7	na
163278	0	non	42	100	7	na
163398	120	noff	42	0	7	na
163398	0	non	39	100	7	na
163518	120	noff	39	0	7	na
163518	0	non	39	100	7	na
163638	120	noff	39	0	7	na
163638	0	non	42	100	7	na
163878	240	noff	42	0	7	na
163998	120	non	39	100	7	na
164238	240	noff	39	0	7	na
164238	0	non	46	100	7	na
164358	120	noff	46	0	7	na
164358	0	non	42	100	7	na
164478	120	noff	42	0	7	na
164478	0	non	39	100	7	na
164598	120	noff	39	0	7	na
164598	0	non	46	100	7	na
164718	120	noff	46	0	7	na
164718	0	non	42	100	7	na
164838	120	noff	42	0	7	na
164958	120	non	37	100	7	na
165198	240	noff	37	0	7	na
165198	0	non	41	100	7	na
165318	120	noff	41	0	7	na
165438	120	non	39	100	7	na
165558	120	noff	39	0	7	na
165558	0	non	42	100	7	na
165798	240	noff	42	0	7	na
165798	0	non	39	100	7	na
165918	120	noff	39	0	7	na
165918	0	non	39	100	7	na
166038	120	noff	39	0	7	na
166038	0	non	46	100	7	na
166158	120	noff	46	0	7	na
166158	0	non	42	100	7	na
166278	120	noff	42	0	7	na
166398	120	non	46	100	7	na
166518	120	noff	46	0	7	na
166518	0	non	42	100	7	na
166638	120	noff	42	0	7	na
166638	0	non	39	100	7	na
166758	120	noff	39	0	7	na
166878	120	non	37	100	7	na
167118	240	noff	37	0	7	na
167118	0	non	41	100	7	na
167238	120	noff	41	0	7	na
167358	120	non	37	100	7	na
167478	120	noff	37	0	7	na
167478	0	non	41	100	7	na
167598	120	noff	41	0	7	na
167598	0	non	37	100	7	na
167718	120	noff	37	0	7	na
167718	0	non	34	100	7	na
167838	120	noff	34	0	7	na
167838	0	non	35	100	7	na
168078	240	noff	35	0	7	na
168078	0	non	39	100	7	na
168198	120	noff	39	0	7	na
168318	120	non	35	100	7	na
168438	120	noff	35	0	7	na
168438	0	non	39	100	7	na
168558	120	noff	39	0	7	na
168558	0	non	39	100	7	na
168678	120	noff	39	0	7	na
168798	120	non	37	100	7	na
169038	240	noff	37	0	7	na
169038	0	non	41	100	7	na
169158	120	noff	41	0	7	na
169278	120	non	37	100	7	na
169398	120	noff	37	0	7	na
169398	0	non	44	100	7	na
169518	120	noff	44	0	7	na
169518	0	non	41	100	7	na
169638	120	noff	41	0	7	na
169638	0	non	37	100	7	na
169758	120	noff	37	0	7	na
169758	0	non	39	100	7	na
169998	240	noff	39	0	7	na
169998	0	non	39	100	7	na
170118	120	noff	39	0	7	na
170238	120	non	39	100	7	na
170358	120	noff	39	0	7	na
170358	0	non	39	100	7	na
170598	240	noff	39	0	7	na
170598	0	non	39	100	7	na
170718	120	noff	39	0	7	na
170718	0	non	39	100	7	na
170958	240	noff	39	0	7	na
170958	0	non	39	100	7	na
171078	120	noff	39	0	7	na
171198	120	non	39	100	7	na
171318	120	noff	39	0	7	na
171318	0	non	39	100	7	na
171438	120	noff	39	0	7	na
171438	0	non	39	100	7	na
171558	120	noff	39	0	7	na
171558	0	non	37	100	7	na
171678	120	noff	37	0	7	na
171678	0	non	35	100	7	na
171678	0	non	39	100	7	na
172158	480	noff	35	0	7	na
172158	0	noff	39	0	7	na
172638	480	non	35	100	7	na
172638	0	non	39	100	7	na
173118	480	noff	35	0	7	na
173118	0	noff	39	0	7	na
173598	480	non	35	100	7	na
173598	0	non	39	100	7	na
173838	240	noff	35	0	7	na
173838	0	noff	39	0	7	na
173838	0	non	39	100	7	na
173958	120	noff	39	0	7	na
174078	120	non	35	100	7	na
174078	0	non	39	100	7	na
174318	240	noff	35	0	7	na
174318	0	noff	39	0	7	na
174318	0	non	39	100	7	na
174318	0	non	42	100	7	na
174438	120	noff	39	0	7	na
174438	0	noff	42	0	7	na
174558	120	non	35	100	7	na
174558	0	non	39	100	7	na
174798	240	noff	35	0	7	na
174798	0	noff	39	0	7	na
174798	0	non	42	100	7	na
174798	0	non	39	100	7	na
174918	120	noff	42	0	7	na
174918	0	noff	39	0	7	na
175038	120	non	37	100	7	na
175038	0	non	41	100	7	na
175278	240	noff	37	0	7	na
175278	0	noff	41	0	7	na
175518	240	non	39	100	7	na
175518	0	non	42	100	7	na
175998	480	noff	39	0	7	na
175998	0	noff	42	0	7	na
176478	480	non	39	100	7	na
176478	0	non	42	100	7	na
176958	480	noff	39	0	7	na
176958	0	noff	42	0	7	na
177438	480	non	46	100	7	na
177438	0	non	39	100	7	na
177678	240	noff	46	0	7	na
177678	0	noff	39	0	7	na
177678	0	non	51	100	7	na
177678	0	non	46	100	7	na
177798	120	noff	51	0	7	na
177798	0	noff	46	0	7	na
177918	120	non	46	100	7	na
177918	0	non	39	100	7	na
178158	240	noff	46	0	7	na
178158	0	noff	39	0	7	na
178158	0	non	58	100	7	na
178158	0	non	54	100	7	na
178278	120	noff	58	0	7	na
178278	0	noff	54	0	7	na
178398	120	non	38	100	7	na
178398	0	non	44	100	7	na
178638	240	noff	38	0	7	na
178638	0	noff	44	0	7	na
178638	0	non	56	100	7	na
178638	0	non	53	100	7	na
178758	120	noff	56	0	7	na
178758	0	noff	53	0	7	na
178878	120	non	38	100	7	na
178878	0	non	44	100	7	na
179118	240	noff	38	0	7	na
179118	0	noff	44	0	7	na
179118	0	non	53	100	7	na
179118	0	non	50	100	7	na
179238	120	noff	53	0	7	na
179238	0	noff	50	0	7	na
179358	120	non	38	100	7	na
179358	0	non	42	100	7	na
179838	480	noff	38	0	7	na
179838	0	noff	42	0	7	na
180318	480	non	38	100	7	na
180318	0	non	42	100	7	na
180798	480	noff	38	0	7	na
180798	0	noff	42	0	7	na
181278	480	non	38	100	7	na
181278	0	non	42	100	7	na
181518	240	noff	38	0	7	na
181518	0	noff	42	0	7	na
181518	0	non	42	100	7	na
181638	120	noff	42	0	7	na
181758	120	non	38	100	7	na
181758	0	non	42	100	7	na
181998	240	noff	38	0	7	na
181998	0	noff	42	0	7	na
181998	0	non	45	100	7	na
181998	0	non	54	100	7	na
182118	120	noff	45	0	7	na
182118	0	noff	54	0	7	na
182238	120	non	38	100	7	na
182238	0	non	42	100	7	na
182478	240	noff	38	0	7	na
182478	0	noff	42	0	7	na
182478	0	non	45	100	7	na
182478	0	non	54	100	7	na
182598	120	noff	45	0	7	na
182598	0	noff	54	0	7	na
182718	120	non	38	100	7	na
182718	0	non	42	100	7	na
182958	240	noff	38	0	7	na
182958	0	noff	42	0	7	na
183198	240	non	42	100	7	na
183198	0	non	37	100	7	na
183678	480	noff	42	0	7	na
183678	0	noff	37	0	7	na
184158	480	non	42	100	7	na
184158	0	non	37	100	7	na
184638	480	noff	42	0	7	na
184638	0	noff	37	0	7	na
185118	480	non	42	100	7	na
185118	0	non	37	100	7	na
185358	240	noff	42	0	7	na
185358	0	noff	37	0	7	na
185358	0	non	57	100	7	na
185358	0	non	54	100	7	na
185478	120	noff	57	0	7	na
185478	0	noff	54	0	7	na
185598	120	non	42	100	7	na
185598	0	non	37	100	7	na
185838	240	noff	42	0	7	na
185838	0	noff	37	0	7	na
185838	0	non	57	100	7	na
185838	0	non	54	100	7	na
185958	120	noff	57	0	7	na
185958	0	noff	54	0	7	na
186078	120	non	42	100	7	na
186078	0	non	37	100	7	na
186318	240	noff	42	0	7	na
186318	0	noff	37	0	7	na
186318	0	non	57	100	7	na
186318	0	non	54	100	7	na
186438	120	noff	57	0	7	na
186438	0	noff	54	0	7	na
186558	120	non	42	100	7	na
186558	0	non	37	100	7	na
186798	240	noff	42	0	7	na
186798	0	noff	37	0	7	na
186798	0	non	56	100	7	na
186918	120	noff	56	0	7	na
186918	0	non	57	100	7	na
187038	120	noff	57	0	7	na
187038	0	non	38	100	7	na
187278	240	noff	38	0	7	na
187278	0	non	38	100	7	na
187398	120	noff	38	0	7	na
187518	120	non	42	100	7	na
187638	120	noff	42	0	7	na
187758	120	non	38	100	7	na
187878	120	noff	38	0	7	na
187998	120	non	30	100	7	na
188118	120	noff	30	0	7	na
188118	0	non	38	100	7	na
188238	120	noff	38	0	7	na
188238	0	non	38	100	7	na
188358	120	noff	38	0	7	na
188478	120	non	42	100	7	na
188718	240	noff	42	0	7	na
188718	0	non	38	100	7	na
188838	120	noff	38	0	7	na
188838	0	non	42	100	7	na
188958	120	noff	42	0	7	na
188958	0	non	40	100	7	na
189198	240	noff	40	0	7	na
189198	0	non	44	100	7	na
189318	120	noff	44	0	7	na
189438	120	non	45	100	7	na
189558	120	noff	45	0	7	na
189678	120	non	44	100	7	na
189918	240	noff	44	0	7	na
189918	0	non	40	100	7	na
190038	120	noff	40	0	7	na
190038	0	non	40	100	7	na
190158	120	noff	40	0	7	na
190158	0	non	40	100	7	na
190398	240	noff	40	0	7	na
190398	0	non	40	100	7	na
190818	420	noff	40	0	7	na
190878	60	non	42	100	7	na
191118	240	noff	42	0	7	na
191118	0	non	42	100	7	na
191238	120	noff	42	0	7	na
191358	120	non	45	100	7	na
191478	120	noff	45	0	7	na
191598	120	non	42	100	7	na
191718	120	noff	42	0	7	na
191838	120	non	37	100	7	na
191958	120	noff	37	0	7	na
191958	0	non	42	100	7	na
192078	120	noff	42	0	7	na
192078	0	non	44	100	7	na
192318	240	noff	44	0	7	na
192318	0	non	45	100	7	na
192438	120	noff	45	0	7	na
192438	0	non	44	100	7	na
192558	120	noff	44	0	7	na
192678	120	non	41	100	7	na
192798	120	noff	41	0	7	na
192798	0	non	37	100	7	na
192918	120	noff	37	0	7	na
192918	0	non	42	100	7	na
193038	120	noff	42	0	7	na
193038	0	non	45	100	7	na
193278	240	noff	45	0	7	na
193278	0	non	49	100	7	na
193518	240	noff	49	0	7	na
193518	0	non	45	100	7	na
193758	240	noff	45	0	7	na
193758	0	non	37	100	7	na
193878	120	noff	37	0	7	na
193878	0	non	42	100	7	na
193998	120	noff	42	0	7	na
193998	0	non	45	100	7	na
194238	240	noff	45	0	7	na
194238	0	non	44	100	7	na
194358	120	noff	44	0	7	na
194358	0	non	40	100	7	na
194478	120	noff	40	0	7	na
194478	0	non	37	100	7	na
194598	120	noff	37	0	7	na
194598	0	non	40	100	7	na
194718	120	noff	40	0	7	na
194718	0	non	38	100	7	na
194958	240	noff	38	0	7	na
194958	0	non	42	100	7	na
195198	240	noff	42	0	7	na
195198	0	non	38	100	7	na
195318	120	noff	38	0	7	na
195318	0	non	42	100	7	na
195438	120	noff	42	0	7	na
195438	0	non	38	100	7	na
195558	120	noff	38	0	7	na
195558	0	non	42	100	7	na
195678	120	noff	42	0	7	na
195678	0	non	40	100	7	na
195918	240	noff	40	0	7	na
195918	0	non	37	100	7	na
196038	120	noff	37	0	7	na
196038	0	non	40	100	7	na
196158	120	noff	40	0	7	na
196158	0	non	49	100	7	na
196278	120	noff	49	0	7	na
196278	0	non	40	100	7	na
196398	120	noff	40	0	7	na
196398	0	non	37	100	7	na
196518	120	noff	37	0	7	na
196518	0	non	41	100	7	na
196638	120	noff	41	0	7	na
196638	0	non	42	100	7	na
196878	240	noff	42	0	7	na
196878	0	non	45	100	7	na
197118	240	noff	45	0	7	na
197118	0	non	42	100	7	na
197238	120	noff	42	0	7	na
197238	0	non	44	100	7	na
197358	120	noff	44	0	7	na
197358	0	non	45	100	7	na
197478	120	noff	45	0	7	na
197478	0	non	42	100	7	na
197598	120	noff	42	0	7	na
197598	0	non	42	100	7	na
197838	240	noff	42	0	7	na
197838	0	non	47	100	7	na
198078	240	noff	47	0	7	na
198078	0	non	47	100	7	na
198198	120	noff	47	0	7	na
198198	0	non	52	100	7	na
198318	120	noff	52	0	7	na
198318	0	non	47	100	7	na
198438	120	noff	47	0	7	na
198438	0	non	45	100	7	na
198558	120	noff	45	0	7	na
198558	0	non	42	100	7	na
198798	240	noff	42	0	7	na
198798	0	non	45	100	7	na
199038	240	noff	45	0	7	na
199038	0	non	42	100	7	na
199158	120	noff	42	0	7	na
199158	0	non	45	100	7	na
199278	120	noff	45	0	7	na
199278	0	non	42	100	7	na
199398	120	noff	42	0	7	na
199398	0	non	40	100	7	na
199518	120	noff	40	0	7	na
199518	0	non	44	100	7	na
199638	120	noff	44	0	7	na
199638	0	non	42	100	7	na
199758	120	noff	42	0	7	na
199758	0	non	41	100	7	na
199878	120	noff	41	0	7	na
199878	0	non	37	100	7	na
199998	120	noff	37	0	7	na
199998	0	non	37	100	7	na
200118	120	noff	37	0	7	na
200118	0	non	41	100	7	na
200238	120	noff	41	0	7	na
200238	0	non	44	100	7	na
200358	120	noff	44	0	7	na
200478	120	non	42	100	7	na
200718	240	noff	42	0	7	na
200718	0	non	45	100	7	na
200958	240	noff	45	0	7	na
200958	0	non	42	100	7	na
201078	120	noff	42	0	7	na
201078	0	non	42	100	7	na
201198	120	noff	42	0	7	na
201198	0	non	45	100	7	na
201318	120	noff	45	0	7	na
201318	0	non	42	100	7	na
201438	120	noff	42	0	7	na
201438	0	non	42	100	7	na
201678	240	noff	42	0	7	na
201678	0	non	42	100	7	na
201798	120	noff	42	0	7	na
201798	0	non	45	100	7	na
201918	120	noff	45	0	7	na
201918	0	non	44	100	7	na
202038	120	noff	44	0	7	na
202038	0	non	40	100	7	na
202158	120	noff	40	0	7	na
202158	0	non	37	100	7	na
202278	120	noff	37	0	7	na
202278	0	non	33	100	7	na
202398	120	noff	33	0	7	na
202398	0	non	38	100	7	na
202638	240	noff	38	0	7	na
202638	0	non	38	100	7	na
202758	120	noff	38	0	7	na
202878	120	non	42	100	7	na
202998	120	noff	42	0	7	na
203118	120	non	38	100	7	na
203238	120	noff	38	0	7	na
203358	120	non	30	100	7	na
203478	120	noff	30	0	7	na
203478	0	non	38	100	7	na
203598	120	noff	38	0	7	na
203598	0	non	38	100	7	na
203718	120	noff	38	0	7	na
203838	120	non	42	100	7	na
204078	240	noff	42	0	7	na
204078	0	non	38	100	7	na
204198	120	noff	38	0	7	na
204198	0	non	42	100	7	na
204318	120	noff	42	0	7	na
204318	0	non	40	100	7	na
204558	240	noff	40	0	7	na
204558	0	non	44	100	7	na
204678	120	noff	44	0	7	na
204798	120	non	45	100	7	na
204918	120	noff	45	0	7	na
205038	120	non	44	100	7	na
205278	240	noff	44	0	7	na
205278	0	non	40	100	7	na
205398	120	noff	40	0	7	na
205398	0	non	40	100	7	na
205518	120	noff	40	0	7	na
205518	0	non	40	100	7	na
205758	240	noff	40	0	7	na
205758	0	non	40	100	7	na
206178	420	noff	40	0	7	na
206238	60	non	42	100	7	na
206478	240	noff	42	0	7	na
206478	0	non	42	100	7	na
206598	120	noff	42	0	7	na
206718	120	non	45	100	7	na
206838	120	noff	45	0	7	na
206958	120	non	42	100	7	na
207078	120	noff	42	0	7	na
207198	120	non	37	100	7	na
207318	120	noff	37	0	7	na
207318	0	non	42	100	7	na
207438	120	noff	42	0	7	na
207438	0	non	44	100	7	na
207678	240	noff	44	0	7	na
207678	0	non	45	100	7	na
207798	120	noff	45	0	7	na
207798	0	non	44	100	7	na
207918	120	noff	44	0	7	na
208038	120	non	41	100	7	na
208158	120	noff	41	0	7	na
208158	0	non	37	100	7	na
208278	120	noff	37	0	7	na
208278	0	non	42	100	7	na
208398	120	noff	42	0	7	na
208398	0	non	45	100	7	na
208638	240	noff	45	0	7	na
208638	0	non	49	100	7	na
208878	240	noff	49	0	7	na
208878	0	non	45	100	7	na
209118	240	noff	45	0	7	na
209118	0	non	37	100	7	na
209238	120	noff	37	0	7	na
209238	0	non	42	100	7	na
209358	120	noff	42	0	7	na
209358	0	non	45	100	7	na
209598	240	noff	45	0	7	na
209598	0	non	44	100	7	na
209718	120	noff	44	0	7	na
209718	0	non	40	100	7	na
209838	120	noff	40	0	7	na
209838	0	non	37	100	7	na
209958	120	noff	37	0	7	na
209958	0	non	40	100	7	na
210078	120	noff	40	0	7	na
210078	0	non	38	100	7	na
210318	240	noff	38	0	7	na
210318	0	non	42	100	7	na
210558	240	noff	42	0	7	na
210558	0	non	38	100	7	na
210678	120	noff	38	0	7	na
210678	0	non	42	100	7	na
210798	120	noff	42	0	7	na
210798	0	non	38	100	7	na
210918	120	noff	38	0	7	na
210918	0	non	42	100	7	na
211038	120	noff	42	0	7	na
211038	0	non	40	100	7	na
211278	240	noff	40	0	7	na
211278	0	non	37	100	7	na
211398	120	noff	37	0	7	na
211398	0	non	40	100	7	na
211518	120	noff	40	0	7	na
211518	0	non	49	100	7	na
211638	120	noff	49	0	7	na
211638	0	non	40	100	7	na
211758	120	noff	40	0	7	na
211758	0	non	37	100	7	na
211878	120	noff	37	0	7	na
211878	0	non	41	100	7	na
211998	120	noff	41	0	7	na
211998	0	non	42	100	7	na
212238	240	noff	42	0	7	na
212238	0	non	45	100	7	na
212478	240	noff	45	0	7	na
212478	0	non	42	100	7	na
212598	120	noff	42	0	7	na
212598	0	non	44	100	7	na
212718	120	noff	44	0	7	na
212718	0	non	45	100	7	na
212838	120	noff	45	0	7	na
212838	0	non	42	100	7	na
212958	120	noff	42	0	7	na
212958	0	non	42	100	7	na
213198	240	noff	42	0	7	na
213198	0	non	47	100	7	na
213438	240	noff	47	0	7	na
213438	0	non	47	100	7	na
213558	120	noff	47	0	7	na
213558	0	non	52	100	7	na
213678	120	noff	52	0	7	na
213678	0	non	47	100	7	na
213798	120	noff	47	0	7	na
213798	0	non	45	100	7	na
213918	120	noff	45	0	7	na
213918	0	non	42	100	7	na
214158	240	noff	42	0	7	na
214158	0	non	45	100	7	na
214398	240	noff	45	0	7	na
214398	0	non	42	100	7	na
214518	120	noff	42	0	7	na
214518	0	non	45	100	7	na
214638	120	noff	45	0	7	na
214638	0	non	42	100	7	na
214758	120	noff	42	0	7	na
214758	0	non	40	100	7	na
214878	120	noff	40	0	7	na
214878	0	non	44	100	7	na
214998	120	noff	44	0	7	na
214998	0	non	42	100	7	na
215118	120	noff	42	0	7	na
215118	0	non	41	100	7	na
215238	120	noff	41	0	7	na
215238	0	non	37	100	7	na
215358	120	noff	37	0	7	na
215358	0	non	37	100	7	na
215478	120	noff	37	0	7	na
215478	0	non	41	100	7	na
215598	120	noff	41	0	7	na
215598	0	non	44	100	7	na
215718	120	noff	44	0	7	na
215838	120	non	42	100	7	na
216078	240	noff	42	0	7	na
216078	0	non	45	100	7	na
216318	240	noff	45	0	7	na
216318	0	non	42	100	7	na
216438	120	noff	42	0	7	na
216438	0	non	42	100	7	na
216558	120	noff	42	0	7	na
216558	0	non	45	100	7	na
216678	120	noff	45	0	7	na
216678	0	non	42	100	7	na
216798	120	noff	42	0	7	na
216798	0	non	42	100	7	na
217038	240	noff	42	0	7	na
217038	0	non	42	100	7	na
217158	120	noff	42	0	7	na
217158	0	non	45	100	7	na
217278	120	noff	45	0	7	na
217278	0	non	44	100	7	na
217398	120	noff	44	0	7	na
217398	0	non	40	100	7	na
217518	120	noff	40	0	7	na
217518	0	non	37	100	7	na
217638	120	noff	37	0	7	na
217638	0	non	33	100	7	na
217758	120	noff	33	0	7	na
cumTime	delTime	event	pitch	vel	chan	value
2718	2718	non	38	100	8	na
3378	660	noff	38	0	8	na
3438	60	non	38	100	8	na
3678	240	noff	38	0	8	na
3678	0	non	38	100	8	na
3798	120	noff	38	0	8	na
3798	0	non	40	100	8	na
3918	120	noff	40	0	8	na
3918	0	non	42	100	8	na
4038	120	noff	42	0	8	na
4158	120	non	42	100	8	na
4278	120	noff	42	0	8	na
4278	0	non	37	100	8	na
4398	120	noff	37	0	8	na
4398	0	non	37	100	8	na
4518	120	noff	37	0	8	na
4638	120	non	35	100	8	na
4798	160	noff	35	0	8	na
4798	0	non	40	100	8	na
4958	160	noff	40	0	8	na
4958	0	non	35	100	8	na
5118	160	noff	35	0	8	na
5118	0	non	44	100	8	na
5278	160	noff	44	0	8	na
5278	0	non	35	100	8	na
5438	160	noff	35	0	8	na
5438	0	non	40	100	8	na
5598	160	noff	40	0	8	na
5598	0	non	35	100	8	na
5758	160	noff	35	0	8	na
5758	0	non	40	100	8	na
5918	160	noff	40	0	8	na
5918	0	non	35	100	8	na
6078	160	noff	35	0	8	na
6078	0	non	44	100	8	na
6238	160	noff	44	0	8	na
6238	0	non	35	100	8	na
6398	160	noff	35	0	8	na
6398	0	non	40	100	8	na
6558	160	noff	40	0	8	na
6558	0	non	37	100	8	na
7038	480	noff	37	0	8	na
7038	0	non	37	100	8	na
7158	120	noff	37	0	8	na
7158	0	non	40	100	8	na
7278	120	noff	40	0	8	na
7278	0	non	49	100	8	na
7398	120	noff	49	0	8	na
7518	120	non	37	100	8	na
7758	240	noff	37	0	8	na
7758	0	non	49	100	8	na
7998	240	noff	49	0	8	na
7998	0	non	45	100	8	na
8118	120	noff	45	0	8	na
8118	0	non	44	100	8	na
8358	240	noff	44	0	8	na
8358	0	non	40	100	8	na
8478	120	noff	40	0	8	na
8478	0	non	37	100	8	na
8718	240	noff	37	0	8	na
8718	0	non	45	100	8	na
8838	120	noff	45	0	8	na
8958	120	non	37	100	8	na
9198	240	noff	37	0	8	na
9198	0	non	45	100	8	na
9318	120	noff	45	0	8	na
9438	120	non	37	100	8	na
9558	120	noff	37	0	8	na
9558	0	non	42	100	8	na
9678	120	noff	42	0	8	na
9678	0	non	49	100	8	na
9798	120	noff	49	0	8	na
9798	0	non	45	100	8	na
9918	120	noff	45	0	8	na
9918	0	non	37	100	8	na
10038	120	noff	37	0	8	na
10038	0	non	42	100	8	na
10158	120	noff	42	0	8	na
10158	0	non	49	100	8	na
10278	120	noff	49	0	8	na
10398	120	non	37	100	8	na
10458	60	noff	37	0	8	na
10458	0	non	35	100	8	na
10878	420	noff	35	0	8	na
11118	240	non	35	100	8	na
11238	120	noff	35	0	8	na
11238	0	non	37	100	8	na
11358	120	noff	37	0	8	na
11358	0	non	40	100	8	na
11478	120	noff	40	0	8	na
11478	0	non	37	100	8	na
11598	120	noff	37	0	8	na
11598	0	non	35	100	8	na
11838	240	noff	35	0	8	na
11838	0	non	35	100	8	na
12018	180	noff	35	0	8	na
12078	60	non	35	100	8	na
12258	180	noff	35	0	8	na
12318	60	non	35	100	8	na
12558	240	noff	35	0	8	na
12558	0	non	37	100	8	na
12798	240	noff	37	0	8	na
12798	0	non	40	100	8	na
13038	240	noff	40	0	8	na
13038	0	non	40	100	8	na
13278	240	noff	40	0	8	na
13278	0	non	45	100	8	na
13578	300	noff	45	0	8	na
13638	60	non	40	100	8	na
13998	360	noff	40	0	8	na
13998	0	non	45	100	8	na
14238	240	noff	45	0	8	na
14238	0	non	42	100	8	na
14898	660	noff	42	0	8	na
14958	60	non	42	100	8	na
15138	180	noff	42	0	8	na
15198	60	non	42	100	8	na
15618	420	noff	42	0	8	na
15678	60	non	42	100	8	na
15918	240	noff	42	0	8	na
15918	0	non	45	100	8	na
16158	240	noff	45	0	8	na
16158	0	non	42	100	8	na
16878	720	noff	42	0	8	na
16878	0	non	42	100	8	na
17058	180	noff	42	0	8	na
17118	60	non	42	100	8	na
17598	480	noff	42	0	8	na
17598	0	non	42	100	8	na
17838	240	noff	42	0	8	na
17838	0	non	40	100	8	na
18078	240	noff	40	0	8	na
18078	0	non	38	100	8	na
18738	660	noff	38	0	8	na
18798	60	non	38	100	8	na
19038	240	noff	38	0	8	na
19038	0	non	38	100	8	na
19158	120	noff	38	0	8	na
19158	0	non	40	100	8	na
19278	120	noff	40	0	8	na
19278	0	non	42	100	8	na
19398	120	noff	42	0	8	na
19518	120	non	42	100	8	na
19638	120	noff	42	0	8	na
19638	0	non	37	100	8	na
19758	120	noff	37	0	8	na
19758	0	non	37	100	8	na
19878	120	noff	37	0	8	na
19998	120	non	35	100	8	na
20158	160	noff	35	0	8	na
20158	0	non	40	100	8	na
20318	160	noff	40	0	8	na
20318	0	non	35	100	8	na
20478	160	noff	35	0	8	na
20478	0	non	44	100	8	na
20638	160	noff	44	0	8	na
20638	0	non	35	100	8	na
20798	160	noff	35	0	8	na
20798	0	non	40	100	8	na
20958	160	noff	40	0	8	na
20958	0	non	35	100	8	na
21118	160	noff	35	0	8	na
21118	0	non	40	100	8	na
21278	160	noff	40	0	8	na
21278	0	non	35	100	8	na
21438	160	noff	35	0	8	na
21438	0	non	44	100	8	na
21598	160	noff	44	0	8	na
21598	0	non	35	100	8	na
21758	160	noff	35	0	8	na
21758	0	non	40	100	8	na
21918	160	noff	40	0	8	na
21918	0	non	37	100	8	na
22398	480	noff	37	0	8	na
22398	0	non	37	100	8	na
22518	120	noff	37	0	8	na
22518	0	non	40	100	8	na
22638	120	noff	40	0	8	na
22638	0	non	49	100	8	na
22758	120	noff	49	0	8	na
22878	120	non	37	100	8	na
23118	240	noff	37	0	8	na
23118	0	non	49	100	8	na
23358	240	noff	49	0	8	na
23358	0	non	45	100	8	na
23478	120	noff	45	0	8	na
23478	0	non	44	100	8	na
23718	240	noff	44	0	8	na
23718	0	non	40	100	8	na
23838	120	noff	40	0	8	na
23838	0	non	37	100	8	na
24078	240	noff	37	0	8	na
24078	0	non	45	100	8	na
24198	120	noff	45	0	8	na
24318	120	non	37	100	8	na
24558	240	noff	37	0	8	na
24558	0	non	45	100	8	na
24678	120	noff	45	0	8	na
24798	120	non	37	100	8	na
24918	120	noff	37	0	8	na
24918	0	non	42	100	8	na
25038	120	noff	42	0	8	na
25038	0	non	49	100	8	na
25158	120	noff	49	0	8	na
25158	0	non	45	100	8	na
25278	120	noff	45	0	8	na
25278	0	non	37	100	8	na
25398	120	noff	37	0	8	na
25398	0	non	42	100	8	na
25518	120	noff	42	0	8	na
25518	0	non	49	100	8	na
25638	120	noff	49	0	8	na
25758	120	non	37	100	8	na
25818	60	noff	37	0	8	na
25818	0	non	35	100	8	na
26238	420	noff	35	0	8	na
26478	240	non	35	100	8	na
26598	120	noff	35	0	8	na
26598	0	non	37	100	8	na
26718	120	noff	37	0	8	na
26718	0	non	40	100	8	na
26838	120	noff	40	0	8	na
26838	0	non	37	100	8	na
26958	120	noff	37	0	8	na
26958	0	non	35	100	8	na
27198	240	noff	35	0	8	na
27198	0	non	35	100	8	na
27378	180	noff	35	0	8	na
27438	60	non	35	100	8	na
27618	180	noff	35	0	8	na
27678	60	non	35	100	8	na
27918	240	noff	35	0	8	na
27918	0	non	37	100	8	na
28158	240	noff	37	0	8	na
28158	0	non	40	100	8	na
28398	240	noff	40	0	8	na
28398	0	non	40	100	8	na
28638	240	noff	40	0	8	na
28638	0	non	45	100	8	na
28938	300	noff	45	0	8	na
28998	60	non	40	100	8	na
29358	360	noff	40	0	8	na
29358	0	non	45	100	8	na
29598	240	noff	45	0	8	na
29598	0	non	42	100	8	na
30258	660	noff	42	0	8	na
30318	60	non	42	100	8	na
30498	180	noff	42	0	8	na
30558	60	non	42	100	8	na
30978	420	noff	42	0	8	na
31038	60	non	42	100	8	na
31278	240	noff	42	0	8	na
31278	0	non	45	100	8	na
31518	240	noff	45	0	8	na
31518	0	non	42	100	8	na
32238	720	noff	42	0	8	na
32238	0	non	42	100	8	na
32418	180	noff	42	0	8	na
32478	60	non	42	100	8	na
32718	240	noff	42	0	8	na
32958	240	non	42	100	8	na
33078	120	noff	42	0	8	na
33078	0	non	42	100	8	na
33198	120	noff	42	0	8	na
33198	0	non	52	100	8	na
33318	120	noff	52	0	8	na
33438	120	non	39	100	8	na
33678	240	noff	39	0	8	na
33678	0	non	54	100	8	na
33798	120	noff	54	0	8	na
33918	120	non	39	100	8	na
34038	120	noff	39	0	8	na
34038	0	non	54	100	8	na
34278	240	noff	54	0	8	na
34398	120	non	37	100	8	na
34638	240	noff	37	0	8	na
34638	0	non	53	100	8	na
34758	120	noff	53	0	8	na
34878	120	non	37	100	8	na
34998	120	noff	37	0	8	na
34998	0	non	54	100	8	na
35298	300	noff	54	0	8	na
35358	60	non	39	100	8	na
35598	240	noff	39	0	8	na
35598	0	non	54	100	8	na
35718	120	noff	54	0	8	na
35838	120	non	39	100	8	na
35958	120	noff	39	0	8	na
35958	0	non	54	100	8	na
36198	240	noff	54	0	8	na
36318	120	non	37	100	8	na
36558	240	noff	37	0	8	na
36558	0	non	53	100	8	na
36678	120	noff	53	0	8	na
36798	120	non	37	100	8	na
36918	120	noff	37	0	8	na
36918	0	non	53	100	8	na
37218	300	noff	53	0	8	na
37278	60	non	35	100	8	na
37518	240	noff	35	0	8	na
37518	0	non	51	100	8	na
37638	120	noff	51	0	8	na
37758	120	non	35	100	8	na
37878	120	noff	35	0	8	na
37878	0	non	51	100	8	na
38118	240	noff	51	0	8	na
38238	120	non	37	100	8	na
38478	240	noff	37	0	8	na
38478	0	non	53	100	8	na
38598	120	noff	53	0	8	na
38718	120	non	37	100	8	na
38838	120	noff	37	0	8	na
38838	0	non	53	100	8	na
39078	240	noff	53	0	8	na
39198	120	non	35	100	8	na
39438	240	noff	35	0	8	na
39438	0	non	51	100	8	na
39558	120	noff	51	0	8	na
39678	120	non	35	100	8	na
39798	120	noff	35	0	8	na
39798	0	non	51	100	8	na
40038	240	noff	51	0	8	na
40158	120	non	35	100	8	na
40398	240	noff	35	0	8	na
40398	0	non	51	100	8	na
40518	120	noff	51	0	8	na
40638	120	non	35	100	8	na
40758	120	noff	35	0	8	na
40758	0	non	51	100	8	na
40998	240	noff	51	0	8	na
41118	120	non	39	100	8	na
41358	240	non	54	100	8	na
41418	60	noff	39	0	8	na
41478	60	noff	54	0	8	na
41598	120	non	39	100	8	na
41718	120	noff	39	0	8	na
41718	0	non	51	100	8	na
41958	240	noff	51	0	8	na
42078	120	non	37	100	8	na
42318	240	noff	37	0	8	na
42318	0	non	53	100	8	na
42438	120	noff	53	0	8	na
42558	120	non	39	100	8	na
42678	120	noff	39	0	8	na
42678	0	non	54	100	8	na
42918	240	noff	54	0	8	na
43038	120	non	39	100	8	na
43278	240	noff	39	0	8	na
43278	0	non	54	100	8	na
43398	120	noff	54	0	8	na
43518	120	non	39	100	8	na
43638	120	noff	39	0	8	na
43638	0	non	54	100	8	na
43878	240	noff	54	0	8	na
43998	120	non	37	100	8	na
44238	240	noff	37	0	8	na
44238	0	non	53	100	8	na
44358	120	noff	53	0	8	na
44478	120	non	37	100	8	na
44598	120	noff	37	0	8	na
44598	0	non	53	100	8	na
44898	300	noff	53	0	8	na
44958	60	non	35	100	8	na
45198	240	noff	35	0	8	na
45198	0	non	51	100	8	na
45318	120	noff	51	0	8	na
45438	120	non	35	100	8	na
45558	120	noff	35	0	8	na
45558	0	non	51	100	8	na
45798	240	noff	51	0	8	na
45918	120	non	37	100	8	na
46158	240	noff	37	0	8	na
46158	0	non	53	100	8	na
46278	120	noff	53	0	8	na
46398	120	non	37	100	8	na
46518	120	noff	37	0	8	na
46518	0	non	53	100	8	na
46758	240	noff	53	0	8	na
46878	120	non	34	100	8	na
47118	240	noff	34	0	8	na
47118	0	non	51	100	8	na
47238	120	noff	51	0	8	na
47358	120	non	34	100	8	na
47478	120	noff	34	0	8	na
47478	0	non	51	100	8	na
47718	240	noff	51	0	8	na
47838	120	non	34	100	8	na
48078	240	noff	34	0	8	na
48078	0	non	51	100	8	na
48198	120	noff	51	0	8	na
48318	120	non	34	100	8	na
48438	120	noff	34	0	8	na
48438	0	non	51	100	8	na
48678	240	noff	51	0	8	na
48798	120	non	39	100	8	na
49038	240	noff	39	0	8	na
49038	0	non	54	100	8	na
49158	120	noff	54	0	8	na
49278	120	non	39	100	8	na
49398	120	noff	39	0	8	na
49398	0	non	54	100	8	na
49638	240	noff	54	0	8	na
49758	120	non	37	100	8	na
49998	240	noff	37	0	8	na
49998	0	non	53	100	8	na
50118	120	noff	53	0	8	na
50238	120	non	37	100	8	na
50358	120	noff	37	0	8	na
50358	0	non	54	100	8	na
50658	300	noff	54	0	8	na
50718	60	non	39	100	8	na
50958	240	noff	39	0	8	na
50958	0	non	54	100	8	na
51078	120	noff	54	0	8	na
51198	120	non	39	100	8	na
51318	120	noff	39	0	8	na
51318	0	non	54	100	8	na
51558	240	noff	54	0	8	na
51678	120	non	37	100	8	na
51918	240	noff	37	0	8	na
51918	0	non	53	100	8	na
52038	120	noff	53	0	8	na
52158	120	non	37	100	8	na
52278	120	noff	37	0	8	na
52278	0	non	53	100	8	na
52578	300	noff	53	0	8	na
52638	60	non	35	100	8	na
52878	240	noff	35	0	8	na
52878	0	non	51	100	8	na
52998	120	noff	51	0	8	na
53118	120	non	35	100	8	na
53238	120	noff	35	0	8	na
53238	0	non	51	100	8	na
53478	240	noff	51	0	8	na
53598	120	non	37	100	8	na
53838	240	noff	37	0	8	na
53838	0	non	53	100	8	na
53958	120	noff	53	0	8	na
54078	120	non	37	100	8	na
54198	120	noff	37	0	8	na
54198	0	non	53	100	8	na
54438	240	noff	53	0	8	na
54558	120	non	35	100	8	na
54798	240	noff	35	0	8	na
54798	0	non	51	100	8	na
54918	120	noff	51	0	8	na
55038	120	non	35	100	8	na
55158	120	noff	35	0	8	na
55158	0	non	51	100	8	na
55398	240	noff	51	0	8	na
55518	120	non	35	100	8	na
55758	240	noff	35	0	8	na
55758	0	non	51	100	8	na
55878	120	noff	51	0	8	na
55998	120	non	35	100	8	na
56118	120	noff	35	0	8	na
56118	0	non	51	100	8	na
56358	240	noff	51	0	8	na
56478	120	non	39	100	8	na
56718	240	non	54	100	8	na
56778	60	noff	39	0	8	na
56838	60	noff	54	0	8	na
56958	120	non	39	100	8	na
57078	120	noff	39	0	8	na
57078	0	non	51	100	8	na
57318	240	noff	51	0	8	na
57438	120	non	37	100	8	na
57678	240	noff	37	0	8	na
57678	0	non	53	100	8	na
57798	120	noff	53	0	8	na
57918	120	non	39	100	8	na
58038	120	noff	39	0	8	na
58038	0	non	54	100	8	na
58278	240	noff	54	0	8	na
58398	120	non	39	100	8	na
58638	240	noff	39	0	8	na
58638	0	non	54	100	8	na
58758	120	noff	54	0	8	na
58878	120	non	39	100	8	na
58998	120	noff	39	0	8	na
58998	0	non	54	100	8	na
59238	240	noff	54	0	8	na
59358	120	non	37	100	8	na
59598	240	noff	37	0	8	na
59598	0	non	53	100	8	na
59718	120	noff	53	0	8	na
59838	120	non	37	100	8	na
59958	120	noff	37	0	8	na
59958	0	non	53	100	8	na
60258	300	noff	53	0	8	na
60318	60	non	35	100	8	na
60558	240	noff	35	0	8	na
60558	0	non	51	100	8	na
60678	120	noff	51	0	8	na
60798	120	non	35	100	8	na
60918	120	noff	35	0	8	na
60918	0	non	51	100	8	na
61158	240	noff	51	0	8	na
61278	120	non	37	100	8	na
61518	240	noff	37	0	8	na
61518	0	non	53	100	8	na
61638	120	noff	53	0	8	na
61758	120	non	37	100	8	na
61878	120	noff	37	0	8	na
61878	0	non	53	100	8	na
62118	240	noff	53	0	8	na
62238	120	non	34	100	8	na
62478	240	noff	34	0	8	na
62478	0	non	51	100	8	na
62598	120	noff	51	0	8	na
62718	120	non	34	100	8	na
62838	120	noff	34	0	8	na
62838	0	non	51	100	8	na
63078	240	noff	51	0	8	na
63198	120	non	34	100	8	na
63438	240	noff	34	0	8	na
63438	0	non	51	100	8	na
63558	120	noff	51	0	8	na
63678	120	non	34	100	8	na
63798	120	noff	34	0	8	na
63798	0	non	51	100	8	na
64038	240	noff	51	0	8	na
64158	120	non	35	100	8	na
64638	480	noff	35	0	8	na
65118	480	non	35	100	8	na
65598	480	noff	35	0	8	na
66078	480	non	30	100	8	na
66318	240	noff	30	0	8	na
66318	0	non	35	100	8	na
66558	240	noff	35	0	8	na
66558	0	non	39	100	8	na
66798	240	noff	39	0	8	na
66798	0	non	42	100	8	na
67038	240	noff	42	0	8	na
67038	0	non	41	100	8	na
67278	240	noff	41	0	8	na
67278	0	non	39	100	8	na
67518	240	noff	39	0	8	na
67518	0	non	37	100	8	na
67758	240	noff	37	0	8	na
67998	240	non	39	100	8	na
68478	480	noff	39	0	8	na
68958	480	non	39	100	8	na
69438	480	noff	39	0	8	na
69918	480	non	34	100	8	na
70158	240	noff	34	0	8	na
70158	0	non	42	100	8	na
70278	120	noff	42	0	8	na
70398	120	non	34	100	8	na
70638	240	noff	34	0	8	na
70638	0	non	46	100	8	na
70758	120	noff	46	0	8	na
70878	120	non	32	100	8	na
71118	240	noff	32	0	8	na
71118	0	non	44	100	8	na
71238	120	noff	44	0	8	na
71358	120	non	34	100	8	na
71598	240	noff	34	0	8	na
71598	0	non	41	100	8	na
71718	120	noff	41	0	8	na
71838	120	non	38	100	8	na
72318	480	noff	38	0	8	na
72798	480	non	38	100	8	na
73278	480	noff	38	0	8	na
73758	480	non	33	100	8	na
73998	240	noff	33	0	8	na
73998	0	non	38	100	8	na
74238	240	noff	38	0	8	na
74238	0	non	50	100	8	na
74478	240	noff	50	0	8	na
74478	0	non	54	100	8	na
74718	240	noff	54	0	8	na
74718	0	non	50	100	8	na
74958	240	noff	50	0	8	na
74958	0	non	54	100	8	na
75198	240	noff	54	0	8	na
75198	0	non	50	100	8	na
75438	240	noff	50	0	8	na
75678	240	non	37	100	8	na
76158	480	noff	37	0	8	na
76638	480	non	37	100	8	na
77118	480	noff	37	0	8	na
77598	480	non	37	100	8	na
77838	240	noff	37	0	8	na
77838	0	non	45	100	8	na
77958	120	noff	45	0	8	na
78078	120	non	45	100	8	na
78198	120	noff	45	0	8	na
78318	120	non	45	100	8	na
78438	120	noff	45	0	8	na
78558	120	non	42	100	8	na
78798	240	noff	42	0	8	na
78798	0	non	45	100	8	na
78918	120	noff	45	0	8	na
79038	120	non	42	100	8	na
79278	240	noff	42	0	8	na
79278	0	non	49	100	8	na
79398	120	noff	49	0	8	na
79398	0	non	45	100	8	na
79518	120	noff	45	0	8	na
79758	240	non	50	100	8	na
79758	0	non	45	100	8	na
79878	120	noff	50	0	8	na
79878	0	noff	45	0	8	na
79998	120	non	54	100	8	na
79998	0	non	50	100	8	na
80118	120	noff	54	0	8	na
80118	0	noff	50	0	8	na
80238	120	non	50	100	8	na
80238	0	non	45	100	8	na
80358	120	noff	50	0	8	na
80358	0	noff	45	0	8	na
80718	360	non	50	100	8	na
80718	0	non	45	100	8	na
80838	120	noff	50	0	8	na
80838	0	noff	45	0	8	na
80958	120	non	54	100	8	na
80958	0	non	50	100	8	na
81078	120	noff	54	0	8	na
81078	0	noff	50	0	8	na
81198	120	non	50	100	8	na
81198	0	non	45	100	8	na
81318	120	noff	50	0	8	na
81318	0	noff	45	0	8	na
81678	360	non	52	100	8	na
81678	0	non	47	100	8	na
81798	120	noff	52	0	8	na
81798	0	noff	47	0	8	na
81918	120	non	61	100	8	na
81918	0	non	57	100	8	na
82038	120	noff	61	0	8	na
82038	0	noff	57	0	8	na
82158	120	non	59	100	8	na
82158	0	non	52	100	8	na
82278	120	noff	59	0	8	na
82278	0	noff	52	0	8	na
82398	120	non	56	100	8	na
82398	0	non	49	100	8	na
83298	900	noff	56	0	8	na
83298	0	noff	49	0	8	na
83598	300	non	57	100	8	na
83598	0	non	54	100	8	na
83718	120	noff	57	0	8	na
83718	0	noff	54	0	8	na
83838	120	non	61	100	8	na
83838	0	non	57	100	8	na
83958	120	noff	61	0	8	na
83958	0	noff	57	0	8	na
84078	120	non	57	100	8	na
84078	0	non	54	100	8	na
84198	120	noff	57	0	8	na
84198	0	noff	54	0	8	na
84558	360	non	56	100	8	na
84558	0	non	52	100	8	na
84678	120	noff	56	0	8	na
84678	0	noff	52	0	8	na
84798	120	non	57	100	8	na
84798	0	non	54	100	8	na
84918	120	noff	57	0	8	na
84918	0	noff	54	0	8	na
84918	0	non	56	100	8	na
84918	0	non	53	100	8	na
85038	120	noff	56	0	8	na
85038	0	noff	53	0	8	na
85038	0	non	56	100	8	na
85038	0	non	53	100	8	na
85278	240	noff	56	0	8	na
85278	0	noff	53	0	8	na
85398	120	non	54	100	8	na
85398	0	non	49	100	8	na
85518	120	noff	54	0	8	na
85518	0	noff	49	0	8	na
85518	0	non	57	100	8	na
85518	0	non	54	100	8	na
85638	120	noff	57	0	8	na
85638	0	noff	54	0	8	na
85758	120	non	61	100	8	na
85758	0	non	57	100	8	na
85878	120	noff	61	0	8	na
85878	0	noff	57	0	8	na
85998	120	non	54	100	8	na
85998	0	non	49	100	8	na
86118	120	noff	54	0	8	na
86118	0	noff	49	0	8	na
86358	240	non	52	100	8	na
86358	0	non	45	100	8	na
86478	120	noff	52	0	8	na
86478	0	noff	45	0	8	na
86478	0	non	54	100	8	na
86478	0	non	49	100	8	na
86598	120	noff	54	0	8	na
86598	0	noff	49	0	8	na
86718	120	non	56	100	8	na
86838	120	noff	56	0	8	na
86838	0	non	52	100	8	na
86958	120	noff	52	0	8	na
86958	0	non	49	100	8	na
87078	120	noff	49	0	8	na
87078	0	non	52	100	8	na
87078	0	non	61	100	8	na
87198	120	noff	52	0	8	na
87198	0	noff	61	0	8	na
87438	240	non	54	100	8	na
87438	0	non	50	100	8	na
87558	120	noff	54	0	8	na
87558	0	noff	50	0	8	na
87678	120	non	57	100	8	na
87678	0	non	54	100	8	na
87798	120	noff	57	0	8	na
87798	0	noff	54	0	8	na
87918	120	non	54	100	8	na
87918	0	non	50	100	8	na
88038	120	noff	54	0	8	na
88038	0	noff	50	0	8	na
88158	120	non	44	100	8	na
88158	0	non	49	100	8	na
88518	360	noff	44	0	8	na
88518	0	noff	49	0	8	na
88518	0	non	56	100	8	na
88518	0	non	52	100	8	na
88638	120	noff	56	0	8	na
88638	0	noff	52	0	8	na
88758	120	non	57	100	8	na
88758	0	non	54	100	8	na
88878	120	noff	57	0	8	na
88878	0	noff	54	0	8	na
88878	0	non	59	100	8	na
88878	0	non	56	100	8	na
88998	120	noff	59	0	8	na
88998	0	noff	56	0	8	na
88998	0	non	57	100	8	na
88998	0	non	53	100	8	na
89118	120	noff	57	0	8	na
89118	0	noff	53	0	8	na
89118	0	non	49	100	8	na
89238	120	noff	49	0	8	na
89238	0	non	54	100	8	na
89358	120	noff	54	0	8	na
89358	0	non	57	100	8	na
89478	120	noff	57	0	8	na
89598	120	non	49	100	8	na
89718	120	noff	49	0	8	na
89718	0	non	54	100	8	na
89838	120	noff	54	0	8	na
89838	0	non	57	100	8	na
89958	120	noff	57	0	8	na
90078	120	non	49	100	8	na
90198	120	noff	49	0	8	na
90198	0	non	54	100	8	na
90318	120	noff	54	0	8	na
90318	0	non	59	100	8	na
90438	120	noff	59	0	8	na
90558	120	non	59	100	8	na
90558	0	non	56	100	8	na
90678	120	noff	59	0	8	na
90678	0	noff	56	0	8	na
90678	0	non	64	100	8	na
90678	0	non	59	100	8	na
90798	120	noff	64	0	8	na
90798	0	noff	59	0	8	na
90798	0	non	59	100	8	na
90798	0	non	56	100	8	na
90918	120	noff	59	0	8	na
90918	0	noff	56	0	8	na
91038	120	non	54	100	8	na
91158	120	noff	54	0	8	na
91278	120	non	62	100	8	na
91518	240	noff	62	0	8	na
91518	0	non	54	100	8	na
91638	120	noff	54	0	8	na
91638	0	non	62	100	8	na
91758	120	noff	62	0	8	na
91758	0	non	57	100	8	na
91878	120	noff	57	0	8	na
91878	0	non	54	100	8	na
91998	120	noff	54	0	8	na
91998	0	non	56	100	8	na
92118	120	noff	56	0	8	na
92118	0	non	54	100	8	na
92238	120	noff	54	0	8	na
92238	0	non	53	100	8	na
92358	120	noff	53	0	8	na
92358	0	non	49	100	8	na
92478	120	noff	49	0	8	na
92478	0	non	53	100	8	na
92598	120	noff	53	0	8	na
92598	0	non	49	100	8	na
92718	120	noff	49	0	8	na
92718	0	non	53	100	8	na
92838	120	noff	53	0	8	na
92958	120	non	54	100	8	na
93078	120	noff	54	0	8	na
93078	0	non	49	100	8	na
93198	120	noff	49	0	8	na
93198	0	non	57	100	8	na
93318	120	noff	57	0	8	na
93558	240	non	49	100	8	na
93678	120	noff	49	0	8	na
93678	0	non	57	100	8	na
93798	120	noff	57	0	8	na
93918	120	non	54	100	8	na
94038	120	noff	54	0	8	na
94158	120	non	49	100	8	na
94278	120	noff	49	0	8	na
94278	0	non	57	100	8	na
94398	120	noff	57	0	8	na
94398	0	non	56	100	8	na
94518	120	noff	56	0	8	na
94518	0	non	52	100	8	na
94638	120	noff	52	0	8	na
94638	0	non	49	100	8	na
94758	120	noff	49	0	8	na
94758	0	non	45	100	8	na
94878	120	noff	45	0	8	na
95118	240	non	50	100	8	na
95118	0	non	45	100	8	na
95238	120	noff	50	0	8	na
95238	0	noff	45	0	8	na
95358	120	non	54	100	8	na
95358	0	non	50	100	8	na
95478	120	noff	54	0	8	na
95478	0	noff	50	0	8	na
95598	120	non	50	100	8	na
95598	0	non	45	100	8	na
95718	120	noff	50	0	8	na
95718	0	noff	45	0	8	na
96078	360	non	50	100	8	na
96078	0	non	45	100	8	na
96198	120	noff	50	0	8	na
96198	0	noff	45	0	8	na
96318	120	non	54	100	8	na
96318	0	non	50	100	8	na
96438	120	noff	54	0	8	na
96438	0	noff	50	0	8	na
96558	120	non	50	100	8	na
96558	0	non	45	100	8	na
96678	120	noff	50	0	8	na
96678	0	noff	45	0	8	na
97038	360	non	52	100	8	na
97038	0	non	47	100	8	na
97158	120	noff	52	0	8	na
97158	0	noff	47	0	8	na
97278	120	non	61	100	8	na
97278	0	non	57	100	8	na
97398	120	noff	61	0	8	na
97398	0	noff	57	0	8	na
97518	120	non	59	100	8	na
97518	0	non	52	100	8	na
97638	120	noff	59	0	8	na
97638	0	noff	52	0	8	na
97758	120	non	56	100	8	na
97758	0	non	49	100	8	na
98658	900	noff	56	0	8	na
98658	0	noff	49	0	8	na
98958	300	non	57	100	8	na
98958	0	non	54	100	8	na
99078	120	noff	57	0	8	na
99078	0	noff	54	0	8	na
99198	120	non	61	100	8	na
99198	0	non	57	100	8	na
99318	120	noff	61	0	8	na
99318	0	noff	57	0	8	na
99438	120	non	57	100	8	na
99438	0	non	54	100	8	na
99558	120	noff	57	0	8	na
99558	0	noff	54	0	8	na
99918	360	non	56	100	8	na
99918	0	non	52	100	8	na
100038	120	noff	56	0	8	na
100038	0	noff	52	0	8	na
100158	120	non	57	100	8	na
100158	0	non	54	100	8	na
100278	120	noff	57	0	8	na
100278	0	noff	54	0	8	na
100278	0	non	56	100	8	na
100278	0	non	53	100	8	na
100398	120	noff	56	0	8	na
100398	0	noff	53	0	8	na
100398	0	non	56	100	8	na
100398	0	non	53	100	8	na
100638	240	noff	56	0	8	na
100638	0	noff	53	0	8	na
100758	120	non	54	100	8	na
100758	0	non	49	100	8	na
100878	120	noff	54	0	8	na
100878	0	noff	49	0	8	na
100878	0	non	57	100	8	na
100878	0	non	54	100	8	na
100998	120	noff	57	0	8	na
100998	0	noff	54	0	8	na
101118	120	non	61	100	8	na
101118	0	non	57	100	8	na
101238	120	noff	61	0	8	na
101238	0	noff	57	0	8	na
101358	120	non	54	100	8	na
101358	0	non	49	100	8	na
101478	120	noff	54	0	8	na
101478	0	noff	49	0	8	na
101718	240	non	52	100	8	na
101718	0	non	45	100	8	na
101838	120	noff	52	0	8	na
101838	0	noff	45	0	8	na
101838	0	non	54	100	8	na
101838	0	non	49	100	8	na
101958	120	noff	54	0	8	na
101958	0	noff	49	0	8	na
102078	120	non	56	100	8	na
102198	120	noff	56	0	8	na
102198	0	non	52	100	8	na
102318	120	noff	52	0	8	na
102318	0	non	49	100	8	na
102438	120	noff	49	0	8	na
102438	0	non	52	100	8	na
102438	0	non	61	100	8	na
102558	120	noff	52	0	8	na
102558	0	noff	61	0	8	na
102798	240	non	54	100	8	na
102798	0	non	50	100	8	na
102918	120	noff	54	0	8	na
102918	0	noff	50	0	8	na
103038	120	non	57	100	8	na
103038	0	non	54	100	8	na
103158	120	noff	57	0	8	na
103158	0	noff	54	0	8	na
103278	120	non	54	100	8	na
103278	0	non	50	100	8	na
103398	120	noff	54	0	8	na
103398	0	noff	50	0	8	na
103518	120	non	44	100	8	na
103518	0	non	49	100	8	na
103878	360	noff	44	0	8	na
103878	0	noff	49	0	8	na
103878	0	non	56	100	8	na
103878	0	non	52	100	8	na
103998	120	noff	56	0	8	na
103998	0	noff	52	0	8	na
104118	120	non	57	100	8	na
104118	0	non	54	100	8	na
104238	120	noff	57	0	8	na
104238	0	noff	54	0	8	na
104238	0	non	59	100	8	na
104238	0	non	56	100	8	na
104358	120	noff	59	0	8	na
104358	0	noff	56	0	8	na
104358	0	non	57	100	8	na
104358	0	non	53	100	8	na
104478	120	noff	57	0	8	na
104478	0	noff	53	0	8	na
104478	0	non	49	100	8	na
104598	120	noff	49	0	8	na
104598	0	non	54	100	8	na
104718	120	noff	54	0	8	na
104718	0	non	57	100	8	na
104838	120	noff	57	0	8	na
104958	120	non	49	100	8	na
105078	120	noff	49	0	8	na
105078	0	non	54	100	8	na
105198	120	noff	54	0	8	na
105198	0	non	57	100	8	na
105318	120	noff	57	0	8	na
105438	120	non	49	100	8	na
105558	120	noff	49	0	8	na
105558	0	non	54	100	8	na
105678	120	noff	54	0	8	na
105678	0	non	59	100	8	na
105798	120	noff	59	0	8	na
105918	120	non	59	100	8	na
105918	0	non	56	100	8	na
106038	120	noff	59	0	8	na
106038	0	noff	56	0	8	na
106038	0	non	64	100	8	na
106038	0	non	59	100	8	na
106158	120	noff	64	0	8	na
106158	0	noff	59	0	8	na
106158	0	non	59	100	8	na
106158	0	non	56	100	8	na
106278	120	noff	59	0	8	na
106278	0	noff	56	0	8	na
106398	120	non	54	100	8	na
106518	120	noff	54	0	8	na
106638	120	non	62	100	8	na
106878	240	noff	62	0	8	na
106878	0	non	54	100	8	na
106998	120	noff	54	0	8	na
106998	0	non	62	100	8	na
107118	120	noff	62	0	8	na
107118	0	non	57	100	8	na
107238	120	noff	57	0	8	na
107238	0	non	54	100	8	na
107358	120	noff	54	0	8	na
107358	0	non	56	100	8	na
107478	120	noff	56	0	8	na
107478	0	non	54	100	8	na
107598	120	noff	54	0	8	na
107598	0	non	53	100	8	na
107718	120	noff	53	0	8	na
107718	0	non	49	100	8	na
107838	120	noff	49	0	8	na
107838	0	non	53	100	8	na
107958	120	noff	53	0	8	na
107958	0	non	49	100	8	na
108078	120	noff	49	0	8	na
108078	0	non	53	100	8	na
108198	120	noff	53	0	8	na
108318	120	non	54	100	8	na
108438	120	noff	54	0	8	na
108438	0	non	49	100	8	na
108558	120	noff	49	0	8	na
108558	0	non	57	100	8	na
108678	120	noff	57	0	8	na
108918	240	non	49	100	8	na
109038	120	noff	49	0	8	na
109038	0	non	57	100	8	na
109158	120	noff	57	0	8	na
109278	120	non	54	100	8	na
109398	120	noff	54	0	8	na
109518	120	non	49	100	8	na
109638	120	noff	49	0	8	na
109638	0	non	57	100	8	na
109758	120	noff	57	0	8	na
109758	0	non	56	100	8	na
109878	120	noff	56	0	8	na
109878	0	non	52	100	8	na
109998	120	noff	52	0	8	na
109998	0	non	49	100	8	na
110118	120	noff	49	0	8	na
110118	0	non	45	100	8	na
110238	120	noff	45	0	8	na
110238	0	non	38	100	8	na
110898	660	noff	38	0	8	na
110958	60	non	38	100	8	na
111198	240	noff	38	0	8	na
111198	0	non	38	100	8	na
111318	120	noff	38	0	8	na
111318	0	non	40	100	8	na
111438	120	noff	40	0	8	na
111438	0	non	42	100	8	na
111558	120	noff	42	0	8	na
111678	120	non	42	100	8	na
111798	120	noff	42	0	8	na
111798	0	non	37	100	8	na
111918	120	noff	37	0	8	na
111918	0	non	37	100	8	na
112038	120	noff	37	0	8	na
112158	120	non	35	100	8	na
112318	160	noff	35	0	8	na
112318	0	non	40	100	8	na
112478	160	noff	40	0	8	na
112478	0	non	35	100	8	na
112638	160	noff	35	0	8	na
112638	0	non	44	100	8	na
112798	160	noff	44	0	8	na
112798	0	non	35	100	8	na
112958	160	noff	35	0	8	na
112958	0	non	40	100	8	na
113118	160	noff	40	0	8	na
113118	0	non	35	100	8	na
113278	160	noff	35	0	8	na
113278	0	non	40	100	8	na
113438	160	noff	40	0	8	na
113438	0	non	35	100	8	na
113598	160	noff	35	0	8	na
113598	0	non	44	100	8	na
113758	160	noff	44	0	8	na
113758	0	non	35	100	8	na
113918	160	noff	35	0	8	na
113918	0	non	40	100	8	na
114078	160	noff	40	0	8	na
114078	0	non	37	100	8	na
114558	480	noff	37	0	8	na
114558	0	non	37	100	8	na
114678	120	noff	37	0	8	na
114678	0	non	40	100	8	na
114798	120	noff	40	0	8	na
114798	0	non	49	100	8	na
114918	120	noff	49	0	8	na
115038	120	non	37	100	8	na
115278	240	noff	37	0	8	na
115278	0	non	49	100	8	na
115518	240	noff	49	0	8	na
115518	0	non	45	100	8	na
115638	120	noff	45	0	8	na
115638	0	non	44	100	8	na
115878	240	noff	44	0	8	na
115878	0	non	40	100	8	na
115998	120	noff	40	0	8	na
115998	0	non	37	100	8	na
116238	240	noff	37	0	8	na
116238	0	non	45	100	8	na
116358	120	noff	45	0	8	na
116478	120	non	37	100	8	na
116718	240	noff	37	0	8	na
116718	0	non	45	100	8	na
116838	120	noff	45	0	8	na
116958	120	non	37	100	8	na
117078	120	noff	37	0	8	na
117078	0	non	42	100	8	na
117198	120	noff	42	0	8	na
117198	0	non	49	100	8	na
117318	120	noff	49	0	8	na
117318	0	non	45	100	8	na
117438	120	noff	45	0	8	na
117438	0	non	37	100	8	na
117558	120	noff	37	0	8	na
117558	0	non	42	100	8	na
117678	120	noff	42	0	8	na
117678	0	non	49	100	8	na
117798	120	noff	49	0	8	na
117918	120	non	37	100	8	na
117978	60	noff	37	0	8	na
117978	0	non	35	100	8	na
118398	420	noff	35	0	8	na
118638	240	non	35	100	8	na
118758	120	noff	35	0	8	na
118758	0	non	37	100	8	na
118878	120	noff	37	0	8	na
118878	0	non	40	100	8	na
118998	120	noff	40	0	8	na
118998	0	non	37	100	8	na
119118	120	noff	37	0	8	na
119118	0	non	35	100	8	na
119358	240	noff	35	0	8	na
119358	0	non	35	100	8	na
119538	180	noff	35	0	8	na
119598	60	non	35	100	8	na
119778	180	noff	35	0	8	na
119838	60	non	35	100	8	na
120078	240	noff	35	0	8	na
120078	0	non	37	100	8	na
120318	240	noff	37	0	8	na
120318	0	non	40	100	8	na
120558	240	noff	40	0	8	na
120558	0	non	40	100	8	na
120798	240	noff	40	0	8	na
120798	0	non	45	100	8	na
121098	300	noff	45	0	8	na
121158	60	non	40	100	8	na
121518	360	noff	40	0	8	na
121518	0	non	45	100	8	na
121758	240	noff	45	0	8	na
121758	0	non	42	100	8	na
122418	660	noff	42	0	8	na
122478	60	non	42	100	8	na
122658	180	noff	42	0	8	na
122718	60	non	42	100	8	na
123138	420	noff	42	0	8	na
123198	60	non	42	100	8	na
123438	240	noff	42	0	8	na
123438	0	non	45	100	8	na
123678	240	noff	45	0	8	na
123678	0	non	42	100	8	na
124398	720	noff	42	0	8	na
124398	0	non	42	100	8	na
124578	180	noff	42	0	8	na
124638	60	non	42	100	8	na
125118	480	noff	42	0	8	na
125118	0	non	42	100	8	na
125358	240	noff	42	0	8	na
125358	0	non	40	100	8	na
125598	240	noff	40	0	8	na
125598	0	non	38	100	8	na
126258	660	noff	38	0	8	na
126318	60	non	38	100	8	na
126558	240	noff	38	0	8	na
126558	0	non	38	100	8	na
126678	120	noff	38	0	8	na
126678	0	non	40	100	8	na
126798	120	noff	40	0	8	na
126798	0	non	42	100	8	na
126918	120	noff	42	0	8	na
127038	120	non	42	100	8	na
127158	120	noff	42	0	8	na
127158	0	non	37	100	8	na
127278	120	noff	37	0	8	na
127278	0	non	37	100	8	na
127398	120	noff	37	0	8	na
127518	120	non	35	100	8	na
127678	160	noff	35	0	8	na
127678	0	non	40	100	8	na
127838	160	noff	40	0	8	na
127838	0	non	35	100	8	na
127998	160	noff	35	0	8	na
127998	0	non	44	100	8	na
128158	160	noff	44	0	8	na
128158	0	non	35	100	8	na
128318	160	noff	35	0	8	na
128318	0	non	40	100	8	na
128478	160	noff	40	0	8	na
128478	0	non	35	100	8	na
128638	160	noff	35	0	8	na
128638	0	non	40	100	8	na
128798	160	noff	40	0	8	na
128798	0	non	35	100	8	na
128958	160	noff	35	0	8	na
128958	0	non	44	100	8	na
129118	160	noff	44	0	8	na
129118	0	non	35	100	8	na
129278	160	noff	35	0	8	na
129278	0	non	40	100	8	na
129438	160	noff	40	0	8	na
129438	0	non	37	100	8	na
129918	480	noff	37	0	8	na
129918	0	non	37	100	8	na
130038	120	noff	37	0	8	na
130038	0	non	40	100	8	na
130158	120	noff	40	0	8	na
130158	0	non	49	100	8	na
130278	120	noff	49	0	8	na
130398	120	non	37	100	8	na
130638	240	noff	37	0	8	na
130638	0	non	49	100	8	na
130878	240	noff	49	0	8	na
130878	0	non	45	100	8	na
130998	120	noff	45	0	8	na
130998	0	non	44	100	8	na
131238	240	noff	44	0	8	na
131238	0	non	40	100	8	na
131358	120	noff	40	0	8	na
131358	0	non	37	100	8	na
131598	240	noff	37	0	8	na
131598	0	non	45	100	8	na
131718	120	noff	45	0	8	na
131838	120	non	37	100	8	na
132078	240	noff	37	0	8	na
132078	0	non	45	100	8	na
132198	120	noff	45	0	8	na
132318	120	non	37	100	8	na
132438	120	noff	37	0	8	na
132438	0	non	42	100	8	na
132558	120	noff	42	0	8	na
132558	0	non	49	100	8	na
132678	120	noff	49	0	8	na
132678	0	non	45	100	8	na
132798	120	noff	45	0	8	na
132798	0	non	37	100	8	na
132918	120	noff	37	0	8	na
132918	0	non	42	100	8	na
133038	120	noff	42	0	8	na
133038	0	non	49	100	8	na
133158	120	noff	49	0	8	na
133278	120	non	37	100	8	na
133338	60	noff	37	0	8	na
133338	0	non	35	100	8	na
133758	420	noff	35	0	8	na
133998	240	non	35	100	8	na
134118	120	noff	35	0	8	na
134118	0	non	37	100	8	na
134238	120	noff	37	0	8	na
134238	0	non	40	100	8	na
134358	120	noff	40	0	8	na
134358	0	non	37	100	8	na
134478	120	noff	37	0	8	na
134478	0	non	35	100	8	na
134718	240	noff	35	0	8	na
134718	0	non	35	100	8	na
134898	180	noff	35	0	8	na
134958	60	non	35	100	8	na
135138	180	noff	35	0	8	na
135198	60	non	35	100	8	na
135438	240	noff	35	0	8	na
135438	0	non	37	100	8	na
135678	240	noff	37	0	8	na
135678	0	non	40	100	8	na
135918	240	noff	40	0	8	na
135918	0	non	40	100	8	na
136158	240	noff	40	0	8	na
136158	0	non	45	100	8	na
136458	300	noff	45	0	8	na
136518	60	non	40	100	8	na
136878	360	noff	40	0	8	na
136878	0	non	45	100	8	na
137118	240	noff	45	0	8	na
137118	0	non	42	100	8	na
137778	660	noff	42	0	8	na
137838	60	non	42	100	8	na
138018	180	noff	42	0	8	na
138078	60	non	42	100	8	na
138498	420	noff	42	0	8	na
138558	60	non	42	100	8	na
138798	240	noff	42	0	8	na
138798	0	non	45	100	8	na
139038	240	noff	45	0	8	na
139038	0	non	42	100	8	na
139758	720	noff	42	0	8	na
139758	0	non	42	100	8	na
139938	180	noff	42	0	8	na
139998	60	non	42	100	8	na
140238	240	noff	42	0	8	na
140478	240	non	42	100	8	na
140598	120	noff	42	0	8	na
140598	0	non	42	100	8	na
140718	120	noff	42	0	8	na
140718	0	non	52	100	8	na
140838	120	noff	52	0	8	na
140958	120	non	39	100	8	na
141198	240	noff	39	0	8	na
141198	0	non	54	100	8	na
141318	120	noff	54	0	8	na
141438	120	non	39	100	8	na
141558	120	noff	39	0	8	na
141558	0	non	54	100	8	na
141798	240	noff	54	0	8	na
141918	120	non	37	100	8	na
142158	240	noff	37	0	8	na
142158	0	non	53	100	8	na
142278	120	noff	53	0	8	na
142398	120	non	37	100	8	na
142518	120	noff	37	0	8	na
142518	0	non	54	100	8	na
142818	300	noff	54	0	8	na
142878	60	non	39	100	8	na
143118	240	noff	39	0	8	na
143118	0	non	54	100	8	na
143238	120	noff	54	0	8	na
143358	120	non	39	100	8	na
143478	120	noff	39	0	8	na
143478	0	non	54	100	8	na
143718	240	noff	54	0	8	na
143838	120	non	37	100	8	na
144078	240	noff	37	0	8	na
144078	0	non	53	100	8	na
144198	120	noff	53	0	8	na
144318	120	non	37	100	8	na
144438	120	noff	37	0	8	na
144438	0	non	53	100	8	na
144738	300	noff	53	0	8	na
144798	60	non	35	100	8	na
145038	240	noff	35	0	8	na
145038	0	non	51	100	8	na
145158	120	noff	51	0	8	na
145278	120	non	35	100	8	na
145398	120	noff	35	0	8	na
145398	0	non	51	100	8	na
145638	240	noff	51	0	8	na
145758	120	non	37	100	8	na
145998	240	noff	37	0	8	na
145998	0	non	53	100	8	na
146118	120	noff	53	0	8	na
146238	120	non	37	100	8	na
146358	120	noff	37	0	8	na
146358	0	non	53	100	8	na
146598	240	noff	53	0	8	na
146718	120	non	35	100	8	na
146958	240	noff	35	0	8	na
146958	0	non	51	100	8	na
147078	120	noff	51	0	8	na
147198	120	non	35	100	8	na
147318	120	noff	35	0	8	na
147318	0	non	51	100	8	na
147558	240	noff	51	0	8	na
147678	120	non	35	100	8	na
147918	240	noff	35	0	8	na
147918	0	non	51	100	8	na
148038	120	noff	51	0	8	na
148158	120	non	35	100	8	na
148278	120	noff	35	0	8	na
148278	0	non	51	100	8	na
148518	240	noff	51	0	8	na
148638	120	non	39	100	8	na
148878	240	non	54	100	8	na
148938	60	noff	39	0	8	na
148998	60	noff	54	0	8	na
149118	120	non	39	100	8	na
149238	120	noff	39	0	8	na
149238	0	non	51	100	8	na
149478	240	noff	51	0	8	na
149598	120	non	37	100	8	na
149838	240	noff	37	0	8	na
149838	0	non	53	100	8	na
149958	120	noff	53	0	8	na
150078	120	non	39	100	8	na
150198	120	noff	39	0	8	na
150198	0	non	54	100	8	na
150438	240	noff	54	0	8	na
150558	120	non	39	100	8	na
150798	240	noff	39	0	8	na
150798	0	non	54	100	8	na
150918	120	noff	54	0	8	na
151038	120	non	39	100	8	na
151158	120	noff	39	0	8	na
151158	0	non	54	100	8	na
151398	240	noff	54	0	8	na
151518	120	non	37	100	8	na
151758	240	noff	37	0	8	na
151758	0	non	53	100	8	na
151878	120	noff	53	0	8	na
151998	120	non	37	100	8	na
152118	120	noff	37	0	8	na
152118	0	non	53	100	8	na
152418	300	noff	53	0	8	na
152478	60	non	35	100	8	na
152718	240	noff	35	0	8	na
152718	0	non	51	100	8	na
152838	120	noff	51	0	8	na
152958	120	non	35	100	8	na
153078	120	noff	35	0	8	na
153078	0	non	51	100	8	na
153318	240	noff	51	0	8	na
153438	120	non	37	100	8	na
153678	240	noff	37	0	8	na
153678	0	non	53	100	8	na
153798	120	noff	53	0	8	na
153918	120	non	37	100	8	na
154038	120	noff	37	0	8	na
154038	0	non	53	100	8	na
154278	240	noff	53	0	8	na
154398	120	non	34	100	8	na
154638	240	noff	34	0	8	na
154638	0	non	51	100	8	na
154758	120	noff	51	0	8	na
154878	120	non	34	100	8	na
154998	120	noff	34	0	8	na
154998	0	non	51	100	8	na
155238	240	noff	51	0	8	na
155358	120	non	34	100	8	na
155598	240	noff	34	0	8	na
155598	0	non	51	100	8	na
155718	120	noff	51	0	8	na
155838	120	non	34	100	8	na
155958	120	noff	34	0	8	na
155958	0	non	51	100	8	na
156198	240	noff	51	0	8	na
156318	120	non	39	100	8	na
156558	240	noff	39	0	8	na
156558	0	non	54	100	8	na
156678	120	noff	54	0	8	na
156798	120	non	39	100	8	na
156918	120	noff	39	0	8	na
156918	0	non	54	100	8	na
157158	240	noff	54	0	8	na
157278	120	non	37	100	8	na
157518	240	noff	37	0	8	na
157518	0	non	53	100	8	na
157638	120	noff	53	0	8	na
157758	120	non	37	100	8	na
157878	120	noff	37	0	8	na
157878	0	non	54	100	8	na
158178	300	noff	54	0	8	na
158238	60	non	39	100	8	na
158478	240	noff	39	0	8	na
158478	0	non	54	100	8	na
158598	120	noff	54	0	8	na
158718	120	non	39	100	8	na
158838	120	noff	39	0	8	na
158838	0	non	54	100	8	na
159078	240	noff	54	0	8	na
159198	120	non	37	100	8	na
159438	240	noff	37	0	8	na
159438	0	non	53	100	8	na
159558	120	noff	53	0	8	na
159678	120	non	37	100	8	na
159798	120	noff	37	0	8	na
159798	0	non	53	100	8	na
160098	300	noff	53	0	8	na
160158	60	non	35	100	8	na
160398	240	noff	35	0	8	na
160398	0	non	51	100	8	na
160518	120	noff	51	0	8	na
160638	120	non	35	100	8	na
160758	120	noff	35	0	8	na
160758	0	non	51	100	8	na
160998	240	noff	51	0	8	na
161118	120	non	37	100	8	na
161358	240	noff	37	0	8	na
161358	0	non	53	100	8	na
161478	120	noff	53	0	8	na
161598	120	non	37	100	8	na
161718	120	noff	37	0	8	na
161718	0	non	53	100	8	na
161958	240	noff	53	0	8	na
162078	120	non	35	100	8	na
162318	240	noff	35	0	8	na
162318	0	non	51	100	8	na
162438	120	noff	51	0	8	na
162558	120	non	35	100	8	na
162678	120	noff	35	0	8	na
162678	0	non	51	100	8	na
162918	240	noff	51	0	8	na
163038	120	non	35	100	8	na
163278	240	noff	35	0	8	na
163278	0	non	51	100	8	na
163398	120	noff	51	0	8	na
163518	120	non	35	100	8	na
163638	120	noff	35	0	8	na
163638	0	non	51	100	8	na
163878	240	noff	51	0	8	na
163998	120	non	39	100	8	na
164238	240	non	54	100	8	na
164298	60	noff	39	0	8	na
164358	60	noff	54	0	8	na
164478	120	non	39	100	8	na
164598	120	noff	39	0	8	na
164598	0	non	51	100	8	na
164838	240	noff	51	0	8	na
164958	120	non	37	100	8	na
165198	240	noff	37	0	8	na
165198	0	non	53	100	8	na
165318	120	noff	53	0	8	na
165438	120	non	39	100	8	na
165558	120	noff	39	0	8	na
165558	0	non	54	100	8	na
165798	240	noff	54	0	8	na
165918	120	non	39	100	8	na
166158	240	noff	39	0	8	na
166158	0	non	54	100	8	na
166278	120	noff	54	0	8	na
166398	120	non	39	100	8	na
166518	120	noff	39	0	8	na
166518	0	non	54	100	8	na
166758	240	noff	54	0	8	na
166878	120	non	37	100	8	na
167118	240	noff	37	0	8	na
167118	0	non	53	100	8	na
167238	120	noff	53	0	8	na
167358	120	non	37	100	8	na
167478	120	noff	37	0	8	na
167478	0	non	53	100	8	na
167778	300	noff	53	0	8	na
167838	60	non	35	100	8	na
168078	240	noff	35	0	8	na
168078	0	non	51	100	8	na
168198	120	noff	51	0	8	na
168318	120	non	35	100	8	na
168438	120	noff	35	0	8	na
168438	0	non	51	100	8	na
168678	240	noff	51	0	8	na
168798	120	non	37	100	8	na
169038	240	noff	37	0	8	na
169038	0	non	53	100	8	na
169158	120	noff	53	0	8	na
169278	120	non	37	100	8	na
169398	120	noff	37	0	8	na
169398	0	non	53	100	8	na
169638	240	noff	53	0	8	na
169758	120	non	34	100	8	na
169998	240	noff	34	0	8	na
169998	0	non	51	100	8	na
170118	120	noff	51	0	8	na
170238	120	non	34	100	8	na
170358	120	noff	34	0	8	na
170358	0	non	51	100	8	na
170598	240	noff	51	0	8	na
170718	120	non	34	100	8	na
170958	240	noff	34	0	8	na
170958	0	non	51	100	8	na
171078	120	noff	51	0	8	na
171198	120	non	34	100	8	na
171318	120	noff	34	0	8	na
171318	0	non	51	100	8	na
171558	240	noff	51	0	8	na
171678	120	non	35	100	8	na
172158	480	noff	35	0	8	na
172638	480	non	35	100	8	na
173118	480	noff	35	0	8	na
173598	480	non	30	100	8	na
173838	240	noff	30	0	8	na
173838	0	non	35	100	8	na
174078	240	noff	35	0	8	na
174078	0	non	39	100	8	na
174318	240	noff	39	0	8	na
174318	0	non	42	100	8	na
174558	240	noff	42	0	8	na
174558	0	non	41	100	8	na
174798	240	noff	41	0	8	na
174798	0	non	39	100	8	na
175038	240	noff	39	0	8	na
175038	0	non	37	100	8	na
175278	240	noff	37	0	8	na
175518	240	non	39	100	8	na
175998	480	noff	39	0	8	na
176478	480	non	39	100	8	na
176958	480	noff	39	0	8	na
177438	480	non	34	100	8	na
177678	240	noff	34	0	8	na
177678	0	non	42	100	8	na
177798	120	noff	42	0	8	na
177918	120	non	34	100	8	na
178158	240	noff	34	0	8	na
178158	0	non	46	100	8	na
178278	120	noff	46	0	8	na
178398	120	non	32	100	8	na
178638	240	noff	32	0	8	na
178638	0	non	44	100	8	na
178758	120	noff	44	0	8	na
178878	120	non	34	100	8	na
179118	240	noff	34	0	8	na
179118	0	non	41	100	8	na
179238	120	noff	41	0	8	na
179358	120	non	38	100	8	na
179838	480	noff	38	0	8	na
180318	480	non	38	100	8	na
180798	480	noff	38	0	8	na
181278	480	non	33	100	8	na
181518	240	noff	33	0	8	na
181518	0	non	38	100	8	na
181758	240	noff	38	0	8	na
181758	0	non	50	100	8	na
181998	240	noff	50	0	8	na
181998	0	non	54	100	8	na
182238	240	noff	54	0	8	na
182238	0	non	50	100	8	na
182478	240	noff	50	0	8	na
182478	0	non	54	100	8	na
182718	240	noff	54	0	8	na
182718	0	non	50	100	8	na
182958	240	noff	50	0	8	na
183198	240	non	37	100	8	na
183678	480	noff	37	0	8	na
184158	480	non	37	100	8	na
184638	480	noff	37	0	8	na
185118	480	non	37	100	8	na
185358	240	noff	37	0	8	na
185358	0	non	45	100	8	na
185478	120	noff	45	0	8	na
185598	120	non	45	100	8	na
185718	120	noff	45	0	8	na
185838	120	non	45	100	8	na
185958	120	noff	45	0	8	na
186078	120	non	42	100	8	na
186318	240	noff	42	0	8	na
186318	0	non	45	100	8	na
186438	120	noff	45	0	8	na
186558	120	non	42	100	8	na
186798	240	noff	42	0	8	na
186798	0	non	49	100	8	na
186918	120	noff	49	0	8	na
186918	0	non	45	100	8	na
187038	120	noff	45	0	8	na
187278	240	non	50	100	8	na
187278	0	non	45	100	8	na
187398	120	noff	50	0	8	na
187398	0	noff	45	0	8	na
187518	120	non	54	100	8	na
187518	0	non	50	100	8	na
187638	120	noff	54	0	8	na
187638	0	noff	50	0	8	na
187758	120	non	50	100	8	na
187758	0	non	45	100	8	na
187878	120	noff	50	0	8	na
187878	0	noff	45	0	8	na
188238	360	non	50	100	8	na
188238	0	non	45	100	8	na
188358	120	noff	50	0	8	na
188358	0	noff	45	0	8	na
188478	120	non	54	100	8	na
188478	0	non	50	100	8	na
188598	120	noff	54	0	8	na
188598	0	noff	50	0	8	na
188718	120	non	50	100	8	na
188718	0	non	45	100	8	na
188838	120	noff	50	0	8	na
188838	0	noff	45	0	8	na
189198	360	non	52	100	8	na
189198	0	non	47	100	8	na
189318	120	noff	52	0	8	na
189318	0	noff	47	0	8	na
189438	120	non	61	100	8	na
189438	0	non	57	100	8	na
189558	120	noff	61	0	8	na
189558	0	noff	57	0	8	na
189678	120	non	59	100	8	na
189678	0	non	52	100	8	na
189798	120	noff	59	0	8	na
189798	0	noff	52	0	8	na
189918	120	non	56	100	8	na
189918	0	non	49	100	8	na
190818	900	noff	56	0	8	na
190818	0	noff	49	0	8	na
191118	300	non	57	100	8	na
191118	0	non	54	100	8	na
191238	120	noff	57	0	8	na
191238	0	noff	54	0	8	na
191358	120	non	61	100	8	na
191358	0	non	57	100	8	na
191478	120	noff	61	0	8	na
191478	0	noff	57	0	8	na
191598	120	non	57	100	8	na
191598	0	non	54	100	8	na
191718	120	noff	57	0	8	na
191718	0	noff	54	0	8	na
192078	360	non	56	100	8	na
192078	0	non	52	100	8	na
192198	120	noff	56	0	8	na
192198	0	noff	52	0	8	na
192318	120	non	57	100	8	na
192318	0	non	54	100	8	na
192438	120	noff	57	0	8	na
192438	0	noff	54	0	8	na
192438	0	non	56	100	8	na
192438	0	non	53	100	8	na
192558	120	noff	56	0	8	na
192558	0	noff	53	0	8	na
192558	0	non	56	100	8	na
192558	0	non	53	100	8	na
192798	240	noff	56	0	8	na
192798	0	noff	53	0	8	na
192918	120	non	54	100	8	na
192918	0	non	49	100	8	na
193038	120	noff	54	0	8	na
193038	0	noff	49	0	8	na
193038	0	non	57	100	8	na
193038	0	non	54	100	8	na
193158	120	noff	57	0	8	na
193158	0	noff	54	0	8	na
193278	120	non	61	100	8	na
193278	0	non	57	100	8	na
193398	120	noff	61	0	8	na
193398	0	noff	57	0	8	na
193518	120	non	54	100	8	na
193518	0	non	49	100	8	na
193638	120	noff	54	0	8	na
193638	0	noff	49	0	8	na
193878	240	non	52	100	8	na
193878	0	non	45	100	8	na
193998	120	noff	52	0	8	na
193998	0	noff	45	0	8	na
193998	0	non	54	100	8	na
193998	0	non	49	100	8	na
194118	120	noff	54	0	8	na
194118	0	noff	49	0	8	na
194238	120	non	56	100	8	na
194358	120	noff	56	0	8	na
194358	0	non	52	100	8	na
194478	120	noff	52	0	8	na
194478	0	non	49	100	8	na
194598	120	noff	49	0	8	na
194598	0	non	52	100	8	na
194598	0	non	61	100	8	na
194718	120	noff	52	0	8	na
194718	0	noff	61	0	8	na
194958	240	non	54	100	8	na
194958	0	non	50	100	8	na
195078	120	noff	54	0	8	na
195078	0	noff	50	0	8	na
195198	120	non	57	100	8	na
195198	0	non	54	100	8	na
195318	120	noff	57	0	8	na
195318	0	noff	54	0	8	na
195438	120	non	54	100	8	na
195438	0	non	50	100	8	na
195558	120	noff	54	0	8	na
195558	0	noff	50	0	8	na
195678	120	non	44	100	8	na
195678	0	non	49	100	8	na
196038	360	noff	44	0	8	na
196038	0	noff	49	0	8	na
196038	0	non	56	100	8	na
196038	0	non	52	100	8	na
196158	120	noff	56	0	8	na
196158	0	noff	52	0	8	na
196278	120	non	57	100	8	na
196278	0	non	54	100	8	na
196398	120	noff	57	0	8	na
196398	0	noff	54	0	8	na
196398	0	non	59	100	8	na
196398	0	non	56	100	8	na
196518	120	noff	59	0	8	na
196518	0	noff	56	0	8	na
196518	0	non	57	100	8	na
196518	0	non	53	100	8	na
196638	120	noff	57	0	8	na
196638	0	noff	53	0	8	na
196638	0	non	49	100	8	na
196758	120	noff	49	0	8	na
196758	0	non	54	100	8	na
196878	120	noff	54	0	8	na
196878	0	non	57	100	8	na
196998	120	noff	57	0	8	na
197118	120	non	49	100	8	na
197238	120	noff	49	0	8	na
197238	0	non	54	100	8	na
197358	120	noff	54	0	8	na
197358	0	non	57	100	8	na
197478	120	noff	57	0	8	na
197598	120	non	49	100	8	na
197718	120	noff	49	0	8	na
197718	0	non	54	100	8	na
197838	120	noff	54	0	8	na
197838	0	non	59	100	8	na
197958	120	noff	59	0	8	na
198078	120	non	59	100	8	na
198078	0	non	56	100	8	na
198198	120	noff	59	0	8	na
198198	0	noff	56	0	8	na
198198	0	non	64	100	8	na
198198	0	non	59	100	8	na
198318	120	noff	64	0	8	na
198318	0	noff	59	0	8	na
198318	0	non	59	100	8	na
198318	0	non	56	100	8	na
198438	120	noff	59	0	8	na
198438	0	noff	56	0	8	na
198558	120	non	54	100	8	na
198678	120	noff	54	0	8	na
198798	120	non	62	100	8	na
199038	240	noff	62	0	8	na
199038	0	non	54	100	8	na
199158	120	noff	54	0	8	na
199158	0	non	62	100	8	na
199278	120	noff	62	0	8	na
199278	0	non	57	100	8	na
199398	120	noff	57	0	8	na
199398	0	non	54	100	8	na
199518	120	noff	54	0	8	na
199518	0	non	56	100	8	na
199638	120	noff	56	0	8	na
199638	0	non	54	100	8	na
199758	120	noff	54	0	8	na
199758	0	non	53	100	8	na
199878	120	noff	53	0	8	na
199878	0	non	49	100	8	na
199998	120	noff	49	0	8	na
199998	0	non	53	100	8	na
200118	120	noff	53	0	8	na
200118	0	non	49	100	8	na
200238	120	noff	49	0	8	na
200238	0	non	53	100	8	na
200358	120	noff	53	0	8	na
200478	120	non	54	100	8	na
200598	120	noff	54	0	8	na
200598	0	non	49	100	8	na
200718	120	noff	49	0	8	na
200718	0	non	57	100	8	na
200838	120	noff	57	0	8	na
201078	240	non	49	100	8	na
201198	120	noff	49	0	8	na
201198	0	non	57	100	8	na
201318	120	noff	57	0	8	na
201438	120	non	54	100	8	na
201558	120	noff	54	0	8	na
201678	120	non	49	100	8	na
201798	120	noff	49	0	8	na
201798	0	non	57	100	8	na
201918	120	noff	57	0	8	na
201918	0	non	56	100	8	na
202038	120	noff	56	0	8	na
202038	0	non	52	100	8	na
202158	120	noff	52	0	8	na
202158	0	non	49	100	8	na
202278	120	noff	49	0	8	na
202278	0	non	45	100	8	na
202398	120	noff	45	0	8	na
202638	240	non	50	100	8	na
202638	0	non	45	100	8	na
202758	120	noff	50	0	8	na
202758	0	noff	45	0	8	na
202878	120	non	54	100	8	na
202878	0	non	50	100	8	na
202998	120	noff	54	0	8	na
202998	0	noff	50	0	8	na
203118	120	non	50	100	8	na
203118	0	non	45	100	8	na
203238	120	noff	50	0	8	na
203238	0	noff	45	0	8	na
203598	360	non	50	100	8	na
203598	0	non	45	100	8	na
203718	120	noff	50	0	8	na
203718	0	noff	45	0	8	na
203838	120	non	54	100	8	na
203838	0	non	50	100	8	na
203958	120	noff	54	0	8	na
203958	0	noff	50	0	8	na
204078	120	non	50	100	8	na
204078	0	non	45	100	8	na
204198	120	noff	50	0	8	na
204198	0	noff	45	0	8	na
204558	360	non	52	100	8	na
204558	0	non	47	100	8	na
204678	120	noff	52	0	8	na
204678	0	noff	47	0	8	na
204798	120	non	61	100	8	na
204798	0	non	57	100	8	na
204918	120	noff	61	0	8	na
204918	0	noff	57	0	8	na
205038	120	non	59	100	8	na
205038	0	non	52	100	8	na
205158	120	noff	59	0	8	na
205158	0	noff	52	0	8	na
205278	120	non	56	100	8	na
205278	0	non	49	100	8	na
206178	900	noff	56	0	8	na
206178	0	noff	49	0	8	na
206478	300	non	57	100	8	na
206478	0	non	54	100	8	na
206598	120	noff	57	0	8	na
206598	0	noff	54	0	8	na
206718	120	non	61	100	8	na
206718	0	non	57	100	8	na
206838	120	noff	61	0	8	na
206838	0	noff	57	0	8	na
206958	120	non	57	100	8	na
206958	0	non	54	100	8	na
207078	120	noff	57	0	8	na
207078	0	noff	54	0	8	na
207438	360	non	56	100	8	na
207438	0	non	52	100	8	na
207558	120	noff	56	0	8	na
207558	0	noff	52	0	8	na
207678	120	non	57	100	8	na
207678	0	non	54	100	8	na
207798	120	noff	57	0	8	na
207798	0	noff	54	0	8	na
207798	0	non	56	100	8	na
207798	0	non	53	100	8	na
207918	120	noff	56	0	8	na
207918	0	noff	53	0	8	na
207918	0	non	56	100	8	na
207918	0	non	53	100	8	na
208158	240	noff	56	0	8	na
208158	0	noff	53	0	8	na
208278	120	non	54	100	8	na
208278	0	non	49	100	8	na
208398	120	noff	54	0	8	na
208398	0	noff	49	0	8	na
208398	0	non	57	100	8	na
208398	0	non	54	100	8	na
208518	120	noff	57	0	8	na
208518	0	noff	54	0	8	na
208638	120	non	61	100	8	na
208638	0	non	57	100	8	na
208758	120	noff	61	0	8	na
208758	0	noff	57	0	8	na
208878	120	non	54	100	8	na
208878	0	non	49	100	8	na
208998	120	noff	54	0	8	na
208998	0	noff	49	0	8	na
209238	240	non	52	100	8	na
209238	0	non	45	100	8	na
209358	120	noff	52	0	8	na
209358	0	noff	45	0	8	na
209358	0	non	54	100	8	na
209358	0	non	49	100	8	na
209478	120	noff	54	0	8	na
209478	0	noff	49	0	8	na
209598	120	non	56	100	8	na
209718	120	noff	56	0	8	na
209718	0	non	52	100	8	na
209838	120	noff	52	0	8	na
209838	0	non	49	100	8	na
209958	120	noff	49	0	8	na
209958	0	non	52	100	8	na
209958	0	non	61	100	8	na
210078	120	noff	52	0	8	na
210078	0	noff	61	0	8	na
210318	240	non	54	100	8	na
210318	0	non	50	100	8	na
210438	120	noff	54	0	8	na
210438	0	noff	50	0	8	na
210558	120	non	57	100	8	na
210558	0	non	54	100	8	na
210678	120	noff	57	0	8	na
210678	0	noff	54	0	8	na
210798	120	non	54	100	8	na
210798	0	non	50	100	8	na
210918	120	noff	54	0	8	na
210918	0	noff	50	0	8	na
211038	120	non	44	100	8	na
211038	0	non	49	100	8	na
211398	360	noff	44	0	8	na
211398	0	noff	49	0	8	na
211398	0	non	56	100	8	na
211398	0	non	52	100	8	na
211518	120	noff	56	0	8	na
211518	0	noff	52	0	8	na
211638	120	non	57	100	8	na
211638	0	non	54	100	8	na
211758	120	noff	57	0	8	na
211758	0	noff	54	0	8	na
211758	0	non	59	100	8	na
211758	0	non	56	100	8	na
211878	120	noff	59	0	8	na
211878	0	noff	56	0	8	na
211878	0	non	57	100	8	na
211878	0	non	53	100	8	na
211998	120	noff	57	0	8	na
211998	0	noff	53	0	8	na
211998	0	non	49	100	8	na
212118	120	noff	49	0	8	na
212118	0	non	54	100	8	na
212238	120	noff	54	0	8	na
212238	0	non	57	100	8	na
212358	120	noff	57	0	8	na
212478	120	non	49	100	8	na
212598	120	noff	49	0	8	na
212598	0	non	54	100	8	na
212718	120	noff	54	0	8	na
212718	0	non	57	100	8	na
212838	120	noff	57	0	8	na
212958	120	non	49	100	8	na
213078	120	noff	49	0	8	na
213078	0	non	54	100	8	na
213198	120	noff	54	0	8	na
213198	0	non	59	100	8	na
213318	120	noff	59	0	8	na
213438	120	non	59	100	8	na
213438	0	non	56	100	8	na
213558	120	noff	59	0	8	na
213558	0	noff	56	0	8	na
213558	0	non	64	100	8	na
213558	0	non	59	100	8	na
213678	120	noff	64	0	8	na
213678	0	noff	59	0	8	na
213678	0	non	59	100	8	na
213678	0	non	56	100	8	na
213798	120	noff	59	0	8	na
213798	0	noff	56	0	8	na
213918	120	non	54	100	8	na
214038	120	noff	54	0	8	na
214158	120	non	62	100	8	na
214398	240	noff	62	0	8	na
214398	0	non	54	100	8	na
214518	120	noff	54	0	8	na
214518	0	non	62	100	8	na
214638	120	noff	62	0	8	na
214638	0	non	57	100	8	na
214758	120	noff	57	0	8	na
214758	0	non	54	100	8	na
214878	120	noff	54	0	8	na
214878	0	non	56	100	8	na
214998	120	noff	56	0	8	na
214998	0	non	54	100	8	na
215118	120	noff	54	0	8	na
215118	0	non	53	100	8	na
215238	120	noff	53	0	8	na
215238	0	non	49	100	8	na
215358	120	noff	49	0	8	na
215358	0	non	53	100	8	na
215478	120	noff	53	0	8	na
215478	0	non	49	100	8	na
215598	120	noff	49	0	8	na
215598	0	non	53	100	8	na
215718	120	noff	53	0	8	na
215838	120	non	54	100	8	na
215958	120	noff	54	0	8	na
215958	0	non	49	100	8	na
216078	120	noff	49	0	8	na
216078	0	non	57	100	8	na
216198	120	noff	57	0	8	na
216438	240	non	49	100	8	na
216558	120	noff	49	0	8	na
216558	0	non	57	100	8	na
216678	120	noff	57	0	8	na
216798	120	non	54	100	8	na
216918	120	noff	54	0	8	na
217038	120	non	49	100	8	na
217158	120	noff	49	0	8	na
217158	0	non	57	100	8	na
217278	120	noff	57	0	8	na
217278	0	non	56	100	8	na
217398	120	noff	56	0	8	na
217398	0	non	52	100	8	na
217518	120	noff	52	0	8	na
217518	0	non	49	100	8	na
217638	120	noff	49	0	8	na
217638	0	non	45	100	8	na
217758	120	noff	45	0	8	na
cumTime	delTime	event	pitch	vel	chan	value
2718	2718	non	42	74	9	na
2718	0	non	36	100	9	na
2728	10	noff	42	0	9	na
2728	0	noff	36	0	9	na
3198	470	non	42	75	9	na
3208	10	noff	42	0	9	na
3678	470	non	42	76	9	na
3688	10	noff	42	0	9	na
4158	470	non	42	77	9	na
4168	10	noff	42	0	9	na
4638	470	non	42	77	9	na
4638	0	non	36	100	9	na
4648	10	noff	42	0	9	na
4648	0	noff	36	0	9	na
5118	470	non	42	78	9	na
5128	10	noff	42	0	9	na
5598	470	non	42	79	9	na
5608	10	noff	42	0	9	na
5838	230	non	42	79	9	na
5848	10	noff	42	0	9	na
5958	110	non	42	71	9	na
5968	10	noff	42	0	9	na
6018	50	non	42	76	9	na
6028	10	noff	42	0	9	na
6078	50	non	42	85	9	na
6088	10	noff	42	0	9	na
6318	230	non	46	100	9	na
6328	10	noff	46	0	9	na
6558	230	non	36	100	9	na
6558	0	non	42	100	9	na
6568	10	noff	36	0	9	na
6568	0	noff	42	0	9	na
7038	470	non	42	100	9	na
7048	10	noff	42	0	9	na
7998	950	non	42	100	9	na
8008	10	noff	42	0	9	na
8478	470	non	36	100	9	na
8488	10	noff	36	0	9	na
8958	470	non	42	79	9	na
8968	10	noff	42	0	9	na
9438	470	non	36	100	9	na
9438	0	non	42	75	9	na
9448	10	noff	36	0	9	na
9448	0	noff	42	0	9	na
9918	470	non	36	100	9	na
9918	0	non	42	70	9	na
9928	10	noff	36	0	9	na
9928	0	noff	42	0	9	na
10278	350	non	42	65	9	na
10288	10	noff	42	0	9	na
10398	110	non	36	100	9	na
10398	0	non	42	100	9	na
10408	10	noff	36	0	9	na
10408	0	noff	42	0	9	na
11358	950	non	36	100	9	na
11358	0	non	42	78	9	na
11368	10	noff	36	0	9	na
11368	0	noff	42	0	9	na
12318	950	non	36	100	9	na
12318	0	non	42	77	9	na
12328	10	noff	36	0	9	na
12328	0	noff	42	0	9	na
12798	470	non	42	69	9	na
12808	10	noff	42	0	9	na
13278	470	non	36	100	9	na
13278	0	non	42	79	9	na
13288	10	noff	36	0	9	na
13288	0	noff	42	0	9	na
13518	230	non	42	81	9	na
13528	10	noff	42	0	9	na
13638	110	non	42	100	9	na
13648	10	noff	42	0	9	na
13698	50	non	42	66	9	na
13708	10	noff	42	0	9	na
13758	50	non	42	100	9	na
13768	10	noff	42	0	9	na
13998	230	non	46	82	9	na
14008	10	noff	46	0	9	na
14238	230	non	36	100	9	na
14238	0	non	44	71	9	na
14248	10	noff	36	0	9	na
14248	0	noff	44	0	9	na
14718	470	non	42	73	9	na
14728	10	noff	42	0	9	na
15198	470	non	36	72	9	na
15198	0	non	42	72	9	na
15208	10	noff	36	0	9	na
15208	0	noff	42	0	9	na
15678	470	non	42	70	9	na
15688	10	noff	42	0	9	na
16158	470	non	36	100	9	na
16158	0	non	42	100	9	na
16168	10	noff	36	0	9	na
16168	0	noff	42	0	9	na
16638	470	non	36	100	9	na
16638	0	non	42	69	9	na
16648	10	noff	36	0	9	na
16648	0	noff	42	0	9	na
17118	470	non	36	100	9	na
17118	0	non	42	69	9	na
17128	10	noff	36	0	9	na
17128	0	noff	42	0	9	na
17598	470	non	36	100	9	na
17598	0	non	42	70	9	na
17608	10	noff	36	0	9	na
17608	0	noff	42	0	9	na
17718	110	non	45	100	9	na
17728	10	noff	45	0	9	na
17838	110	non	45	100	9	na
17848	10	noff	45	0	9	na
17958	110	non	43	100	9	na
17968	10	noff	43	0	9	na
18078	110	non	41	90	9	na
18078	0	non	36	100	9	na
18078	0	non	42	76	9	na
18088	10	noff	41	0	9	na
18088	0	noff	36	0	9	na
18088	0	noff	42	0	9	na
18318	230	non	40	90	9	na
18328	10	noff	40	0	9	na
18558	230	non	36	100	9	na
18558	0	non	42	74	9	na
18568	10	noff	36	0	9	na
18568	0	noff	42	0	9	na
18678	110	non	36	100	9	na
18688	10	noff	36	0	9	na
18798	110	non	40	90	9	na
18808	10	noff	40	0	9	na
19038	230	non	36	100	9	na
19038	0	non	42	74	9	na
19048	10	noff	36	0	9	na
19048	0	noff	42	0	9	na
19278	230	non	40	90	9	na
19288	10	noff	40	0	9	na
19518	230	non	36	100	9	na
19518	0	non	42	74	9	na
19528	10	noff	36	0	9	na
19528	0	noff	42	0	9	na
19638	110	non	42	59	9	na
19648	10	noff	42	0	9	na
19758	110	non	40	90	9	na
19758	0	non	42	73	9	na
19768	10	noff	40	0	9	na
19768	0	noff	42	0	9	na
19878	110	non	36	100	9	na
19888	10	noff	36	0	9	na
19998	110	non	36	100	9	na
19998	0	non	42	100	9	na
20008	10	noff	36	0	9	na
20008	0	noff	42	0	9	na
20238	230	non	40	90	9	na
20248	10	noff	40	0	9	na
20358	110	non	36	100	9	na
20368	10	noff	36	0	9	na
20478	110	non	36	100	9	na
20478	0	non	42	74	9	na
20488	10	noff	36	0	9	na
20488	0	noff	42	0	9	na
20598	110	non	36	100	9	na
20608	10	noff	36	0	9	na
20718	110	non	40	90	9	na
20728	10	noff	40	0	9	na
20958	230	non	36	100	9	na
20958	0	non	42	74	9	na
20968	10	noff	36	0	9	na
20968	0	noff	42	0	9	na
21078	110	non	36	100	9	na
21088	10	noff	36	0	9	na
21198	110	non	40	90	9	na
21208	10	noff	40	0	9	na
21438	230	non	36	100	9	na
21438	0	non	42	74	9	na
21448	10	noff	36	0	9	na
21448	0	noff	42	0	9	na
21678	230	non	40	90	9	na
21688	10	noff	40	0	9	na
21798	110	non	36	100	9	na
21808	10	noff	36	0	9	na
21918	110	non	36	100	9	na
21918	0	non	42	74	9	na
21928	10	noff	36	0	9	na
21928	0	noff	42	0	9	na
22158	230	non	40	90	9	na
22168	10	noff	40	0	9	na
22398	230	non	36	100	9	na
22398	0	non	42	74	9	na
22408	10	noff	36	0	9	na
22408	0	noff	42	0	9	na
22518	110	non	36	100	9	na
22528	10	noff	36	0	9	na
22638	110	non	40	90	9	na
22648	10	noff	40	0	9	na
22878	230	non	36	100	9	na
22878	0	non	42	74	9	na
22888	10	noff	36	0	9	na
22888	0	noff	42	0	9	na
23118	230	non	40	90	9	na
23128	10	noff	40	0	9	na
23358	230	non	36	100	9	na
23358	0	non	42	74	9	na
23368	10	noff	36	0	9	na
23368	0	noff	42	0	9	na
23478	110	non	36	100	9	na
23478	0	non	42	74	9	na
23488	10	noff	36	0	9	na
23488	0	noff	42	0	9	na
23598	110	non	40	90	9	na
23598	0	non	42	74	9	na
23608	10	noff	40	0	9	na
23608	0	noff	42	0	9	na
23718	110	non	36	100	9	na
23728	10	noff	36	0	9	na
23838	110	non	36	100	9	na
23838	0	non	42	74	9	na
23848	10	noff	36	0	9	na
23848	0	noff	42	0	9	na
24198	350	non	36	100	9	na
24208	10	noff	36	0	9	na
24318	110	non	40	90	9	na
24318	0	non	42	74	9	na
24328	10	noff	40	0	9	na
24328	0	noff	42	0	9	na
24558	230	non	40	90	9	na
24568	10	noff	40	0	9	na
24678	110	non	36	100	9	na
24678	0	non	40	90	9	na
24688	10	noff	36	0	9	na
24688	0	noff	40	0	9	na
24798	110	non	40	90	9	na
24798	0	non	36	100	9	na
24798	0	non	38	100	9	na
24798	0	non	42	74	9	na
24808	10	noff	40	0	9	na
24808	0	noff	36	0	9	na
24808	0	noff	38	0	9	na
24808	0	noff	42	0	9	na
25038	230	non	40	90	9	na
25048	10	noff	40	0	9	na
25158	110	non	40	90	9	na
25168	10	noff	40	0	9	na
25278	110	non	40	90	9	na
25278	0	non	36	100	9	na
25278	0	non	42	74	9	na
25288	10	noff	40	0	9	na
25288	0	noff	36	0	9	na
25288	0	noff	42	0	9	na
25398	110	non	40	90	9	na
25398	0	non	38	100	9	na
25398	0	non	42	74	9	na
25408	10	noff	40	0	9	na
25408	0	noff	38	0	9	na
25408	0	noff	42	0	9	na
25518	110	non	40	90	9	na
25518	0	non	38	100	9	na
25518	0	non	46	74	9	na
25528	10	noff	40	0	9	na
25528	0	noff	38	0	9	na
25528	0	noff	46	0	9	na
25638	110	non	40	90	9	na
25648	10	noff	40	0	9	na
25758	110	non	36	100	9	na
25758	0	non	42	74	9	na
25768	10	noff	36	0	9	na
25768	0	noff	42	0	9	na
25998	230	non	40	90	9	na
26008	10	noff	40	0	9	na
26238	230	non	36	100	9	na
26238	0	non	42	74	9	na
26248	10	noff	36	0	9	na
26248	0	noff	42	0	9	na
26358	110	non	36	100	9	na
26368	10	noff	36	0	9	na
26478	110	non	40	90	9	na
26488	10	noff	40	0	9	na
26718	230	non	36	100	9	na
26718	0	non	42	74	9	na
26728	10	noff	36	0	9	na
26728	0	noff	42	0	9	na
26958	230	non	40	90	9	na
26968	10	noff	40	0	9	na
27198	230	non	36	100	9	na
27198	0	non	42	74	9	na
27208	10	noff	36	0	9	na
27208	0	noff	42	0	9	na
27438	230	non	40	90	9	na
27448	10	noff	40	0	9	na
27558	110	non	36	100	9	na
27568	10	noff	36	0	9	na
27678	110	non	36	100	9	na
27678	0	non	42	74	9	na
27688	10	noff	36	0	9	na
27688	0	noff	42	0	9	na
27918	230	non	40	90	9	na
27918	0	non	38	100	9	na
27928	10	noff	40	0	9	na
27928	0	noff	38	0	9	na
28038	110	non	40	90	9	na
28048	10	noff	40	0	9	na
28158	110	non	40	90	9	na
28158	0	non	42	74	9	na
28168	10	noff	40	0	9	na
28168	0	noff	42	0	9	na
28278	110	non	40	90	9	na
28288	10	noff	40	0	9	na
28398	110	non	40	90	9	na
28398	0	non	36	100	9	na
28398	0	non	38	100	9	na
28408	10	noff	40	0	9	na
28408	0	noff	36	0	9	na
28408	0	noff	38	0	9	na
28638	230	non	36	100	9	na
28638	0	non	42	74	9	na
28648	10	noff	36	0	9	na
28648	0	noff	42	0	9	na
28758	110	non	36	100	9	na
28768	10	noff	36	0	9	na
28878	110	non	40	90	9	na
28888	10	noff	40	0	9	na
28998	110	non	42	74	9	na
29008	10	noff	42	0	9	na
29118	110	non	36	100	9	na
29118	0	non	42	74	9	na
29128	10	noff	36	0	9	na
29128	0	noff	42	0	9	na
29358	230	non	40	90	9	na
29358	0	non	46	74	9	na
29368	10	noff	40	0	9	na
29368	0	noff	46	0	9	na
29478	110	non	36	100	9	na
29488	10	noff	36	0	9	na
29598	110	non	36	100	9	na
29598	0	non	42	74	9	na
29608	10	noff	36	0	9	na
29608	0	noff	42	0	9	na
29838	230	non	40	90	9	na
29848	10	noff	40	0	9	na
30078	230	non	36	100	9	na
30078	0	non	42	74	9	na
30088	10	noff	36	0	9	na
30088	0	noff	42	0	9	na
30198	110	non	36	100	9	na
30208	10	noff	36	0	9	na
30318	110	non	40	90	9	na
30328	10	noff	40	0	9	na
30558	230	non	36	100	9	na
30558	0	non	42	74	9	na
30568	10	noff	36	0	9	na
30568	0	noff	42	0	9	na
30798	230	non	40	90	9	na
30808	10	noff	40	0	9	na
31038	230	non	36	100	9	na
31038	0	non	42	74	9	na
31048	10	noff	36	0	9	na
31048	0	noff	42	0	9	na
31278	230	non	40	90	9	na
31288	10	noff	40	0	9	na
31398	110	non	36	100	9	na
31408	10	noff	36	0	9	na
31518	110	non	36	100	9	na
31518	0	non	42	74	9	na
31528	10	noff	36	0	9	na
31528	0	noff	42	0	9	na
31758	230	non	40	90	9	na
31768	10	noff	40	0	9	na
31878	110	non	36	100	9	na
31888	10	noff	36	0	9	na
31998	110	non	36	100	9	na
31998	0	non	38	74	9	na
31998	0	non	42	74	9	na
32008	10	noff	36	0	9	na
32008	0	noff	38	0	9	na
32008	0	noff	42	0	9	na
32238	230	non	38	100	9	na
32238	0	non	40	100	9	na
32238	0	non	42	74	9	na
32248	10	noff	38	0	9	na
32248	0	noff	40	0	9	na
32248	0	noff	42	0	9	na
32298	50	non	40	100	9	na
32308	10	noff	40	0	9	na
32358	50	non	40	100	9	na
32368	10	noff	40	0	9	na
32418	50	non	40	100	9	na
32428	10	noff	40	0	9	na
32478	50	non	38	100	9	na
32478	0	non	36	100	9	na
32478	0	non	40	100	9	na
32478	0	non	42	74	9	na
32488	10	noff	38	0	9	na
32488	0	noff	36	0	9	na
32488	0	noff	40	0	9	na
32488	0	noff	42	0	9	na
32958	470	non	36	100	9	na
32968	10	noff	36	0	9	na
33078	110	non	42	74	9	na
33088	10	noff	42	0	9	na
33198	110	non	40	100	9	na
33208	10	noff	40	0	9	na
33318	110	non	36	100	9	na
33318	0	non	46	74	9	na
33328	10	noff	36	0	9	na
33328	0	noff	46	0	9	na
33438	110	non	36	100	9	na
33438	0	non	42	74	9	na
33448	10	noff	36	0	9	na
33448	0	noff	42	0	9	na
33798	350	non	40	100	9	na
33808	10	noff	40	0	9	na
33918	110	non	38	100	9	na
33918	0	non	42	74	9	na
33928	10	noff	38	0	9	na
33928	0	noff	42	0	9	na
34398	470	non	36	100	9	na
34398	0	non	42	74	9	na
34408	10	noff	36	0	9	na
34408	0	noff	42	0	9	na
34638	230	non	36	100	9	na
34648	10	noff	36	0	9	na
34878	230	non	38	100	9	na
34878	0	non	42	74	9	na
34888	10	noff	38	0	9	na
34888	0	noff	42	0	9	na
35358	470	non	36	100	9	na
35358	0	non	42	74	9	na
35368	10	noff	36	0	9	na
35368	0	noff	42	0	9	na
35718	350	non	40	100	9	na
35728	10	noff	40	0	9	na
35838	110	non	38	100	9	na
35838	0	non	42	74	9	na
35848	10	noff	38	0	9	na
35848	0	noff	42	0	9	na
36198	350	non	36	100	9	na
36208	10	noff	36	0	9	na
36318	110	non	36	100	9	na
36318	0	non	42	74	9	na
36328	10	noff	36	0	9	na
36328	0	noff	42	0	9	na
36558	230	non	36	100	9	na
36568	10	noff	36	0	9	na
36798	230	non	38	100	9	na
36798	0	non	42	74	9	na
36808	10	noff	38	0	9	na
36808	0	noff	42	0	9	na
37038	230	non	36	100	9	na
37048	10	noff	36	0	9	na
37278	230	non	36	100	9	na
37278	0	non	42	74	9	na
37288	10	noff	36	0	9	na
37288	0	noff	42	0	9	na
37638	350	non	38	100	9	na
37648	10	noff	38	0	9	na
37758	110	non	38	100	9	na
37758	0	non	42	74	9	na
37768	10	noff	38	0	9	na
37768	0	noff	42	0	9	na
37998	230	non	36	100	9	na
38008	10	noff	36	0	9	na
38238	230	non	36	100	9	na
38238	0	non	38	100	9	na
38238	0	non	42	74	9	na
38248	10	noff	36	0	9	na
38248	0	noff	38	0	9	na
38248	0	noff	42	0	9	na
38358	110	non	38	100	9	na
38368	10	noff	38	0	9	na
38478	110	non	36	100	9	na
38488	10	noff	36	0	9	na
38718	230	non	36	100	9	na
38718	0	non	38	100	9	na
38718	0	non	42	74	9	na
38728	10	noff	36	0	9	na
38728	0	noff	38	0	9	na
38728	0	noff	42	0	9	na
39078	350	non	38	100	9	na
39088	10	noff	38	0	9	na
39198	110	non	36	100	9	na
39198	0	non	42	74	9	na
39208	10	noff	36	0	9	na
39208	0	noff	42	0	9	na
39558	350	non	40	100	9	na
39568	10	noff	40	0	9	na
39678	110	non	38	100	9	na
39678	0	non	42	74	9	na
39688	10	noff	38	0	9	na
39688	0	noff	42	0	9	na
40038	350	non	36	100	9	na
40038	0	non	40	100	9	na
40048	10	noff	36	0	9	na
40048	0	noff	40	0	9	na
40158	110	non	36	100	9	na
40158	0	non	38	100	9	na
40158	0	non	42	74	9	na
40168	10	noff	36	0	9	na
40168	0	noff	38	0	9	na
40168	0	noff	42	0	9	na
40638	470	non	38	100	9	na
40638	0	non	42	74	9	na
40648	10	noff	38	0	9	na
40648	0	noff	42	0	9	na
40878	230	non	38	100	9	na
40878	0	non	36	100	9	na
40888	10	noff	38	0	9	na
40888	0	noff	36	0	9	na
40998	110	non	36	100	9	na
41008	10	noff	36	0	9	na
41118	110	non	36	100	9	na
41118	0	non	42	74	9	na
41128	10	noff	36	0	9	na
41128	0	noff	42	0	9	na
41478	350	non	40	100	9	na
41488	10	noff	40	0	9	na
41598	110	non	38	100	9	na
41598	0	non	42	74	9	na
41608	10	noff	38	0	9	na
41608	0	noff	42	0	9	na
42078	470	non	36	100	9	na
42078	0	non	42	74	9	na
42088	10	noff	36	0	9	na
42088	0	noff	42	0	9	na
42318	230	non	36	100	9	na
42328	10	noff	36	0	9	na
42558	230	non	40	100	9	na
42558	0	non	42	74	9	na
42568	10	noff	40	0	9	na
42568	0	noff	42	0	9	na
43038	470	non	36	100	9	na
43038	0	non	42	74	9	na
43048	10	noff	36	0	9	na
43048	0	noff	42	0	9	na
43398	350	non	40	100	9	na
43408	10	noff	40	0	9	na
43518	110	non	38	100	9	na
43518	0	non	42	74	9	na
43528	10	noff	38	0	9	na
43528	0	noff	42	0	9	na
43878	350	non	36	100	9	na
43888	10	noff	36	0	9	na
43998	110	non	36	100	9	na
43998	0	non	42	74	9	na
44008	10	noff	36	0	9	na
44008	0	noff	42	0	9	na
44238	230	non	36	100	9	na
44248	10	noff	36	0	9	na
44478	230	non	38	100	9	na
44478	0	non	42	74	9	na
44488	10	noff	38	0	9	na
44488	0	noff	42	0	9	na
44718	230	non	36	100	9	na
44728	10	noff	36	0	9	na
44958	230	non	38	100	9	na
44958	0	non	36	100	9	na
44958	0	non	42	74	9	na
44968	10	noff	38	0	9	na
44968	0	noff	36	0	9	na
44968	0	noff	42	0	9	na
45318	350	non	36	100	9	na
45318	0	non	38	34	9	na
45328	10	noff	36	0	9	na
45328	0	noff	38	0	9	na
45378	50	non	38	55	9	na
45388	10	noff	38	0	9	na
45438	50	non	38	96	9	na
45438	0	non	36	100	9	na
45438	0	non	42	74	9	na
45448	10	noff	38	0	9	na
45448	0	noff	36	0	9	na
45448	0	noff	42	0	9	na
45918	470	non	36	100	9	na
45918	0	non	42	74	9	na
45928	10	noff	36	0	9	na
45928	0	noff	42	0	9	na
46038	110	non	38	100	9	na
46048	10	noff	38	0	9	na
46158	110	non	38	100	9	na
46168	10	noff	38	0	9	na
46278	110	non	36	100	9	na
46288	10	noff	36	0	9	na
46398	110	non	36	100	9	na
46398	0	non	40	100	9	na
46398	0	non	42	74	9	na
46408	10	noff	36	0	9	na
46408	0	noff	40	0	9	na
46408	0	noff	42	0	9	na
46518	110	non	38	100	9	na
46528	10	noff	38	0	9	na
46638	110	non	38	100	9	na
46648	10	noff	38	0	9	na
46758	110	non	36	100	9	na
46768	10	noff	36	0	9	na
46878	110	non	36	100	9	na
46878	0	non	38	100	9	na
46878	0	non	42	74	9	na
46888	10	noff	36	0	9	na
46888	0	noff	38	0	9	na
46888	0	noff	42	0	9	na
47238	350	non	36	100	9	na
47248	10	noff	36	0	9	na
47358	110	non	38	100	9	na
47358	0	non	42	74	9	na
47368	10	noff	38	0	9	na
47368	0	noff	42	0	9	na
47718	350	non	38	100	9	na
47728	10	noff	38	0	9	na
47838	110	non	38	100	9	na
47838	0	non	36	100	9	na
47838	0	non	42	74	9	na
47848	10	noff	38	0	9	na
47848	0	noff	36	0	9	na
47848	0	noff	42	0	9	na
48078	230	non	42	74	9	na
48088	10	noff	42	0	9	na
48318	230	non	36	100	9	na
48318	0	non	42	74	9	na
48328	10	noff	36	0	9	na
48328	0	noff	42	0	9	na
48438	110	non	42	74	9	na
48448	10	noff	42	0	9	na
48558	110	non	36	100	9	na
48558	0	non	42	74	9	na
48568	10	noff	36	0	9	na
48568	0	noff	42	0	9	na
48798	230	non	36	100	9	na
48808	10	noff	36	0	9	na
49038	230	non	42	74	9	na
49048	10	noff	42	0	9	na
49158	110	non	36	100	9	na
49168	10	noff	36	0	9	na
49278	110	non	38	100	9	na
49288	10	noff	38	0	9	na
49518	230	non	42	74	9	na
49528	10	noff	42	0	9	na
49638	110	non	36	100	9	na
49648	10	noff	36	0	9	na
49758	110	non	36	100	9	na
49768	10	noff	36	0	9	na
49998	230	non	42	74	9	na
50008	10	noff	42	0	9	na
50118	110	non	42	74	9	na
50128	10	noff	42	0	9	na
50238	110	non	38	100	9	na
50248	10	noff	38	0	9	na
50478	230	non	36	100	9	na
50478	0	non	42	74	9	na
50488	10	noff	36	0	9	na
50488	0	noff	42	0	9	na
50718	230	non	36	100	9	na
50728	10	noff	36	0	9	na
50958	230	non	42	74	9	na
50968	10	noff	42	0	9	na
51078	110	non	36	100	9	na
51088	10	noff	36	0	9	na
51198	110	non	38	100	9	na
51208	10	noff	38	0	9	na
51438	230	non	36	100	9	na
51438	0	non	42	74	9	na
51448	10	noff	36	0	9	na
51448	0	noff	42	0	9	na
51678	230	non	36	100	9	na
51688	10	noff	36	0	9	na
51918	230	non	42	74	9	na
51928	10	noff	42	0	9	na
52038	110	non	42	74	9	na
52048	10	noff	42	0	9	na
52158	110	non	38	100	9	na
52168	10	noff	38	0	9	na
52398	230	non	42	74	9	na
52408	10	noff	42	0	9	na
52638	230	non	36	100	9	na
52648	10	noff	36	0	9	na
52878	230	non	42	74	9	na
52888	10	noff	42	0	9	na
52998	110	non	36	100	9	na
53008	10	noff	36	0	9	na
53118	110	non	38	100	9	na
53128	10	noff	38	0	9	na
53358	230	non	36	100	9	na
53358	0	non	42	74	9	na
53368	10	noff	36	0	9	na
53368	0	noff	42	0	9	na
53598	230	non	36	100	9	na
53608	10	noff	36	0	9	na
53838	230	non	38	100	9	na
53838	0	non	42	74	9	na
53848	10	noff	38	0	9	na
53848	0	noff	42	0	9	na
53958	110	non	42	74	9	na
53968	10	noff	42	0	9	na
54078	110	non	36	100	9	na
54088	10	noff	36	0	9	na
54198	110	non	36	100	9	na
54208	10	noff	36	0	9	na
54318	110	non	38	100	9	na
54318	0	non	42	74	9	na
54328	10	noff	38	0	9	na
54328	0	noff	42	0	9	na
54438	110	non	36	100	9	na
54448	10	noff	36	0	9	na
54558	110	non	36	100	9	na
54568	10	noff	36	0	9	na
54678	110	non	42	74	9	na
54688	10	noff	42	0	9	na
54798	110	non	42	74	9	na
54808	10	noff	42	0	9	na
54918	110	non	36	100	9	na
54928	10	noff	36	0	9	na
55038	110	non	38	100	9	na
55048	10	noff	38	0	9	na
55158	110	non	36	100	9	na
55168	10	noff	36	0	9	na
55278	110	non	36	100	9	na
55278	0	non	42	74	9	na
55288	10	noff	36	0	9	na
55288	0	noff	42	0	9	na
55518	230	non	36	100	9	na
55528	10	noff	36	0	9	na
55758	230	non	42	74	9	na
55768	10	noff	42	0	9	na
55998	230	non	38	100	9	na
56008	10	noff	38	0	9	na
56118	110	non	42	74	9	na
56128	10	noff	42	0	9	na
56238	110	non	36	100	9	na
56238	0	non	42	74	9	na
56248	10	noff	36	0	9	na
56248	0	noff	42	0	9	na
56358	110	non	42	74	9	na
56368	10	noff	42	0	9	na
56478	110	non	36	100	9	na
56488	10	noff	36	0	9	na
56718	230	non	42	74	9	na
56728	10	noff	42	0	9	na
56838	110	non	36	100	9	na
56848	10	noff	36	0	9	na
56958	110	non	38	100	9	na
56968	10	noff	38	0	9	na
57198	230	non	42	74	9	na
57208	10	noff	42	0	9	na
57318	110	non	36	100	9	na
57328	10	noff	36	0	9	na
57438	110	non	36	100	9	na
57448	10	noff	36	0	9	na
57678	230	non	42	74	9	na
57688	10	noff	42	0	9	na
57798	110	non	42	74	9	na
57808	10	noff	42	0	9	na
57918	110	non	38	100	9	na
57928	10	noff	38	0	9	na
58158	230	non	36	100	9	na
58158	0	non	42	74	9	na
58168	10	noff	36	0	9	na
58168	0	noff	42	0	9	na
58398	230	non	36	100	9	na
58408	10	noff	36	0	9	na
58638	230	non	42	74	9	na
58648	10	noff	42	0	9	na
58758	110	non	36	100	9	na
58768	10	noff	36	0	9	na
58878	110	non	38	100	9	na
58888	10	noff	38	0	9	na
59118	230	non	36	100	9	na
59118	0	non	42	74	9	na
59128	10	noff	36	0	9	na
59128	0	noff	42	0	9	na
59358	230	non	36	100	9	na
59368	10	noff	36	0	9	na
59598	230	non	42	74	9	na
59608	10	noff	42	0	9	na
59718	110	non	42	74	9	na
59728	10	noff	42	0	9	na
59838	110	non	38	100	9	na
59848	10	noff	38	0	9	na
60078	230	non	42	74	9	na
60088	10	noff	42	0	9	na
60318	230	non	36	100	9	na
60328	10	noff	36	0	9	na
60558	230	non	42	74	9	na
60568	10	noff	42	0	9	na
60678	110	non	36	100	9	na
60688	10	noff	36	0	9	na
60798	110	non	38	100	9	na
60808	10	noff	38	0	9	na
61038	230	non	36	100	9	na
61038	0	non	42	74	9	na
61048	10	noff	36	0	9	na
61048	0	noff	42	0	9	na
61278	230	non	36	100	9	na
61288	10	noff	36	0	9	na
61518	230	non	38	100	9	na
61518	0	non	42	74	9	na
61528	10	noff	38	0	9	na
61528	0	noff	42	0	9	na
61638	110	non	42	74	9	na
61648	10	noff	42	0	9	na
61758	110	non	36	100	9	na
61768	10	noff	36	0	9	na
61878	110	non	36	100	9	na
61888	10	noff	36	0	9	na
61998	110	non	38	100	9	na
61998	0	non	42	74	9	na
62008	10	noff	38	0	9	na
62008	0	noff	42	0	9	na
62118	110	non	36	100	9	na
62128	10	noff	36	0	9	na
62238	110	non	36	100	9	na
62248	10	noff	36	0	9	na
62478	230	non	42	74	9	na
62488	10	noff	42	0	9	na
62598	110	non	36	100	9	na
62608	10	noff	36	0	9	na
62718	110	non	38	100	9	na
62728	10	noff	38	0	9	na
62838	110	non	36	100	9	na
62848	10	noff	36	0	9	na
62958	110	non	36	100	9	na
62958	0	non	42	74	9	na
62968	10	noff	36	0	9	na
62968	0	noff	42	0	9	na
63198	230	non	36	100	9	na
63208	10	noff	36	0	9	na
63318	110	non	42	74	9	na
63328	10	noff	42	0	9	na
63438	110	non	42	74	9	na
63448	10	noff	42	0	9	na
63558	110	non	42	74	9	na
63568	10	noff	42	0	9	na
63678	110	non	38	100	9	na
63688	10	noff	38	0	9	na
63798	110	non	42	74	9	na
63798	0	non	40	74	9	na
63808	10	noff	42	0	9	na
63808	0	noff	40	0	9	na
63918	110	non	36	100	9	na
63928	10	noff	36	0	9	na
64038	110	non	42	74	9	na
64038	0	non	40	74	9	na
64048	10	noff	42	0	9	na
64048	0	noff	40	0	9	na
64158	110	non	36	100	9	na
64158	0	non	42	62	9	na
64168	10	noff	36	0	9	na
64168	0	noff	42	0	9	na
65118	950	non	36	74	9	na
65118	0	non	42	64	9	na
65118	0	non	38	74	9	na
65128	10	noff	36	0	9	na
65128	0	noff	42	0	9	na
65128	0	noff	38	0	9	na
66078	950	non	36	74	9	na
66078	0	non	42	60	9	na
66078	0	non	38	74	9	na
66088	10	noff	36	0	9	na
66088	0	noff	42	0	9	na
66088	0	noff	38	0	9	na
66318	230	non	42	57	9	na
66328	10	noff	42	0	9	na
66558	230	non	42	54	9	na
66568	10	noff	42	0	9	na
66678	110	non	42	74	9	na
66688	10	noff	42	0	9	na
66798	110	non	42	54	9	na
66808	10	noff	42	0	9	na
66918	110	non	36	74	9	na
66918	0	non	42	46	9	na
66928	10	noff	36	0	9	na
66928	0	noff	42	0	9	na
66978	50	non	42	56	9	na
66988	10	noff	42	0	9	na
67038	50	non	36	74	9	na
67038	0	non	42	74	9	na
67048	10	noff	36	0	9	na
67048	0	noff	42	0	9	na
67398	350	non	42	74	9	na
67408	10	noff	42	0	9	na
67518	110	non	36	74	9	na
67518	0	non	42	53	9	na
67518	0	non	38	74	9	na
67528	10	noff	36	0	9	na
67528	0	noff	42	0	9	na
67528	0	noff	38	0	9	na
67758	230	non	46	74	9	na
67768	10	noff	46	0	9	na
67878	110	non	44	74	9	na
67888	10	noff	44	0	9	na
67998	110	non	36	74	9	na
67998	0	non	38	74	9	na
67998	0	non	42	74	9	na
68008	10	noff	36	0	9	na
68008	0	noff	38	0	9	na
68008	0	noff	42	0	9	na
68478	470	non	36	74	9	na
68488	10	noff	36	0	9	na
68958	470	non	36	74	9	na
68958	0	non	38	74	9	na
68958	0	non	42	74	9	na
68968	10	noff	36	0	9	na
68968	0	noff	38	0	9	na
68968	0	noff	42	0	9	na
69678	710	non	36	74	9	na
69688	10	noff	36	0	9	na
69798	110	non	42	74	9	na
69808	10	noff	42	0	9	na
69918	110	non	36	74	9	na
69918	0	non	38	74	9	na
69918	0	non	42	61	9	na
69928	10	noff	36	0	9	na
69928	0	noff	38	0	9	na
69928	0	noff	42	0	9	na
70038	110	non	42	48	9	na
70048	10	noff	42	0	9	na
70098	50	non	42	52	9	na
70108	10	noff	42	0	9	na
70158	50	non	42	56	9	na
70168	10	noff	42	0	9	na
70278	110	non	42	74	9	na
70288	10	noff	42	0	9	na
70398	110	non	42	49	9	na
70408	10	noff	42	0	9	na
70638	230	non	38	74	9	na
70638	0	non	46	74	9	na
70648	10	noff	38	0	9	na
70648	0	noff	46	0	9	na
70758	110	non	36	74	9	na
70758	0	non	44	74	9	na
70768	10	noff	36	0	9	na
70768	0	noff	44	0	9	na
70878	110	non	36	74	9	na
70878	0	non	42	74	9	na
70888	10	noff	36	0	9	na
70888	0	noff	42	0	9	na
70998	110	non	42	51	9	na
71008	10	noff	42	0	9	na
71118	110	non	38	74	9	na
71118	0	non	42	58	9	na
71128	10	noff	38	0	9	na
71128	0	noff	42	0	9	na
71358	230	non	36	74	9	na
71358	0	non	38	74	9	na
71358	0	non	42	74	9	na
71368	10	noff	36	0	9	na
71368	0	noff	38	0	9	na
71368	0	noff	42	0	9	na
71478	110	non	40	74	9	na
71478	0	non	42	54	9	na
71488	10	noff	40	0	9	na
71488	0	noff	42	0	9	na
71598	110	non	36	74	9	na
71598	0	non	46	74	9	na
71608	10	noff	36	0	9	na
71608	0	noff	46	0	9	na
71718	110	non	38	74	9	na
71728	10	noff	38	0	9	na
71838	110	non	36	74	9	na
71838	0	non	42	74	9	na
71848	10	noff	36	0	9	na
71848	0	noff	42	0	9	na
71958	110	non	36	57	9	na
71958	0	non	42	47	9	na
71968	10	noff	36	0	9	na
71968	0	noff	42	0	9	na
72078	110	non	42	57	9	na
72088	10	noff	42	0	9	na
72198	110	non	36	55	9	na
72198	0	non	42	55	9	na
72208	10	noff	36	0	9	na
72208	0	noff	42	0	9	na
72318	110	non	36	59	9	na
72318	0	non	42	48	9	na
72328	10	noff	36	0	9	na
72328	0	noff	42	0	9	na
72378	50	non	42	53	9	na
72388	10	noff	42	0	9	na
72438	50	non	42	63	9	na
72448	10	noff	42	0	9	na
72558	110	non	42	58	9	na
72558	0	non	38	74	9	na
72568	10	noff	42	0	9	na
72568	0	noff	38	0	9	na
72678	110	non	42	43	9	na
72688	10	noff	42	0	9	na
72798	110	non	36	74	9	na
72798	0	non	42	57	9	na
72808	10	noff	36	0	9	na
72808	0	noff	42	0	9	na
72918	110	non	36	55	9	na
72918	0	non	42	48	9	na
72928	10	noff	36	0	9	na
72928	0	noff	42	0	9	na
73038	110	non	42	57	9	na
73048	10	noff	42	0	9	na
73158	110	non	36	57	9	na
73158	0	non	42	47	9	na
73168	10	noff	36	0	9	na
73168	0	noff	42	0	9	na
73278	110	non	36	63	9	na
73278	0	non	42	48	9	na
73288	10	noff	36	0	9	na
73288	0	noff	42	0	9	na
73338	50	non	42	55	9	na
73348	10	noff	42	0	9	na
73398	50	non	42	58	9	na
73408	10	noff	42	0	9	na
73518	110	non	42	48	9	na
73518	0	non	38	74	9	na
73528	10	noff	42	0	9	na
73528	0	noff	38	0	9	na
73638	110	non	42	46	9	na
73648	10	noff	42	0	9	na
73758	110	non	36	74	9	na
73758	0	non	42	63	9	na
73758	0	non	38	74	9	na
73768	10	noff	36	0	9	na
73768	0	noff	42	0	9	na
73768	0	noff	38	0	9	na
73878	110	non	36	57	9	na
73878	0	non	42	47	9	na
73888	10	noff	36	0	9	na
73888	0	noff	42	0	9	na
73998	110	non	42	57	9	na
74008	10	noff	42	0	9	na
74118	110	non	36	58	9	na
74118	0	non	42	55	9	na
74128	10	noff	36	0	9	na
74128	0	noff	42	0	9	na
74238	110	non	36	61	9	na
74238	0	non	42	48	9	na
74248	10	noff	36	0	9	na
74248	0	noff	42	0	9	na
74298	50	non	42	53	9	na
74308	10	noff	42	0	9	na
74358	50	non	42	63	9	na
74368	10	noff	42	0	9	na
74478	110	non	42	58	9	na
74478	0	non	38	74	9	na
74488	10	noff	42	0	9	na
74488	0	noff	38	0	9	na
74598	110	non	36	59	9	na
74598	0	non	42	43	9	na
74608	10	noff	36	0	9	na
74608	0	noff	42	0	9	na
74718	110	non	36	74	9	na
74718	0	non	42	57	9	na
74728	10	noff	36	0	9	na
74728	0	noff	42	0	9	na
74838	110	non	42	48	9	na
74848	10	noff	42	0	9	na
74958	110	non	42	57	9	na
74968	10	noff	42	0	9	na
75078	110	non	36	57	9	na
75078	0	non	42	47	9	na
75088	10	noff	36	0	9	na
75088	0	noff	42	0	9	na
75198	110	non	36	74	9	na
75198	0	non	42	48	9	na
75208	10	noff	36	0	9	na
75208	0	noff	42	0	9	na
75258	50	non	42	55	9	na
75268	10	noff	42	0	9	na
75318	50	non	42	58	9	na
75318	0	non	38	74	9	na
75318	0	non	40	74	9	na
75328	10	noff	42	0	9	na
75328	0	noff	38	0	9	na
75328	0	noff	40	0	9	na
75438	110	non	36	74	9	na
75438	0	non	46	74	9	na
75448	10	noff	36	0	9	na
75448	0	noff	46	0	9	na
75558	110	non	42	46	9	na
75558	0	non	38	74	9	na
75558	0	non	40	74	9	na
75568	10	noff	42	0	9	na
75568	0	noff	38	0	9	na
75568	0	noff	40	0	9	na
75678	110	non	36	74	9	na
75678	0	non	42	46	9	na
75688	10	noff	36	0	9	na
75688	0	noff	42	0	9	na
75798	110	non	42	46	9	na
75808	10	noff	42	0	9	na
75918	110	non	42	46	9	na
75928	10	noff	42	0	9	na
75978	50	non	42	46	9	na
75988	10	noff	42	0	9	na
76038	50	non	42	46	9	na
76048	10	noff	42	0	9	na
76158	110	non	42	46	9	na
76158	0	non	37	74	9	na
76158	0	non	40	74	9	na
76168	10	noff	42	0	9	na
76168	0	noff	37	0	9	na
76168	0	noff	40	0	9	na
76398	230	non	36	74	9	na
76398	0	non	42	46	9	na
76408	10	noff	36	0	9	na
76408	0	noff	42	0	9	na
76518	110	non	36	74	9	na
76518	0	non	42	46	9	na
76528	10	noff	36	0	9	na
76528	0	noff	42	0	9	na
76578	50	non	42	46	9	na
76588	10	noff	42	0	9	na
76638	50	non	36	74	9	na
76638	0	non	42	46	9	na
76648	10	noff	36	0	9	na
76648	0	noff	42	0	9	na
76878	230	non	46	74	9	na
76888	10	noff	46	0	9	na
76998	110	non	44	74	9	na
77008	10	noff	44	0	9	na
77118	110	non	42	46	9	na
77118	0	non	38	74	9	na
77118	0	non	40	74	9	na
77128	10	noff	42	0	9	na
77128	0	noff	38	0	9	na
77128	0	noff	40	0	9	na
77238	110	non	42	74	9	na
77248	10	noff	42	0	9	na
77358	110	non	36	74	9	na
77358	0	non	46	74	9	na
77368	10	noff	36	0	9	na
77368	0	noff	46	0	9	na
77478	110	non	36	74	9	na
77488	10	noff	36	0	9	na
77598	110	non	36	74	9	na
77598	0	non	38	74	9	na
77598	0	non	40	74	9	na
77608	10	noff	36	0	9	na
77608	0	noff	38	0	9	na
77608	0	noff	40	0	9	na
77718	110	non	42	74	9	na
77728	10	noff	42	0	9	na
77838	110	non	42	74	9	na
77838	0	non	48	74	9	na
77848	10	noff	42	0	9	na
77848	0	noff	48	0	9	na
78078	230	non	36	74	9	na
78078	0	non	40	35	9	na
78078	0	non	42	74	9	na
78088	10	noff	36	0	9	na
78088	0	noff	40	0	9	na
78088	0	noff	42	0	9	na
78138	50	non	40	42	9	na
78148	10	noff	40	0	9	na
78198	50	non	40	56	9	na
78208	10	noff	40	0	9	na
78258	50	non	40	63	9	na
78268	10	noff	40	0	9	na
78318	50	non	38	74	9	na
78318	0	non	40	70	9	na
78318	0	non	42	74	9	na
78318	0	non	47	74	9	na
78328	10	noff	38	0	9	na
78328	0	noff	40	0	9	na
78328	0	noff	42	0	9	na
78328	0	noff	47	0	9	na
78438	110	non	42	74	9	na
78438	0	non	45	74	9	na
78448	10	noff	42	0	9	na
78448	0	noff	45	0	9	na
78558	110	non	36	74	9	na
78558	0	non	40	53	9	na
78558	0	non	42	74	9	na
78568	10	noff	36	0	9	na
78568	0	noff	40	0	9	na
78568	0	noff	42	0	9	na
78678	110	non	38	74	9	na
78678	0	non	40	74	9	na
78688	10	noff	38	0	9	na
78688	0	noff	40	0	9	na
78798	110	non	46	74	9	na
78798	0	non	43	74	9	na
78808	10	noff	46	0	9	na
78808	0	noff	43	0	9	na
78918	110	non	38	74	9	na
78928	10	noff	38	0	9	na
79038	110	non	36	74	9	na
79038	0	non	38	74	9	na
79038	0	non	40	35	9	na
79038	0	non	44	74	9	na
79038	0	non	41	74	9	na
79048	10	noff	36	0	9	na
79048	0	noff	38	0	9	na
79048	0	noff	40	0	9	na
79048	0	noff	44	0	9	na
79048	0	noff	41	0	9	na
79098	50	non	40	41	9	na
79108	10	noff	40	0	9	na
79158	50	non	40	46	9	na
79158	0	non	46	74	9	na
79158	0	non	41	74	9	na
79168	10	noff	40	0	9	na
79168	0	noff	46	0	9	na
79168	0	noff	41	0	9	na
79218	50	non	40	52	9	na
79228	10	noff	40	0	9	na
79278	50	non	36	74	9	na
79278	0	non	38	74	9	na
79278	0	non	40	63	9	na
79278	0	non	41	74	9	na
79288	10	noff	36	0	9	na
79288	0	noff	38	0	9	na
79288	0	noff	40	0	9	na
79288	0	noff	41	0	9	na
79338	50	non	40	68	9	na
79348	10	noff	40	0	9	na
79398	50	non	36	74	9	na
79398	0	non	38	74	9	na
79398	0	non	40	74	9	na
79408	10	noff	36	0	9	na
79408	0	noff	38	0	9	na
79408	0	noff	40	0	9	na
79518	110	non	36	74	9	na
79518	0	non	42	74	9	na
79528	10	noff	36	0	9	na
79528	0	noff	42	0	9	na
79758	230	non	42	74	9	na
79768	10	noff	42	0	9	na
79878	110	non	36	74	9	na
79888	10	noff	36	0	9	na
79998	110	non	38	74	9	na
79998	0	non	42	74	9	na
80008	10	noff	38	0	9	na
80008	0	noff	42	0	9	na
80118	110	non	36	74	9	na
80118	0	non	42	74	9	na
80128	10	noff	36	0	9	na
80128	0	noff	42	0	9	na
80238	110	non	38	74	9	na
80238	0	non	46	74	9	na
80248	10	noff	38	0	9	na
80248	0	noff	46	0	9	na
80358	110	non	44	74	9	na
80368	10	noff	44	0	9	na
80478	110	non	36	74	9	na
80478	0	non	42	74	9	na
80488	10	noff	36	0	9	na
80488	0	noff	42	0	9	na
80718	230	non	42	74	9	na
80728	10	noff	42	0	9	na
80838	110	non	36	74	9	na
80848	10	noff	36	0	9	na
80958	110	non	38	74	9	na
80958	0	non	42	74	9	na
80968	10	noff	38	0	9	na
80968	0	noff	42	0	9	na
81078	110	non	36	74	9	na
81078	0	non	42	74	9	na
81088	10	noff	36	0	9	na
81088	0	noff	42	0	9	na
81198	110	non	38	74	9	na
81198	0	non	46	74	9	na
81208	10	noff	38	0	9	na
81208	0	noff	46	0	9	na
81318	110	non	36	74	9	na
81318	0	non	44	74	9	na
81328	10	noff	36	0	9	na
81328	0	noff	44	0	9	na
81438	110	non	36	74	9	na
81438	0	non	42	74	9	na
81448	10	noff	36	0	9	na
81448	0	noff	42	0	9	na
81678	230	non	42	74	9	na
81688	10	noff	42	0	9	na
81798	110	non	36	74	9	na
81808	10	noff	36	0	9	na
81918	110	non	38	74	9	na
81918	0	non	42	74	9	na
81928	10	noff	38	0	9	na
81928	0	noff	42	0	9	na
82038	110	non	42	74	9	na
82048	10	noff	42	0	9	na
82158	110	non	46	74	9	na
82168	10	noff	46	0	9	na
82278	110	non	36	74	9	na
82278	0	non	38	74	9	na
82278	0	non	44	74	9	na
82288	10	noff	36	0	9	na
82288	0	noff	38	0	9	na
82288	0	noff	44	0	9	na
82398	110	non	36	74	9	na
82398	0	non	42	74	9	na
82408	10	noff	36	0	9	na
82408	0	noff	42	0	9	na
82638	230	non	42	74	9	na
82648	10	noff	42	0	9	na
82758	110	non	42	74	9	na
82768	10	noff	42	0	9	na
82878	110	non	38	74	9	na
82878	0	non	46	74	9	na
82888	10	noff	38	0	9	na
82888	0	noff	46	0	9	na
82998	110	non	36	74	9	na
83008	10	noff	36	0	9	na
83118	110	non	38	74	9	na
83118	0	non	44	74	9	na
83128	10	noff	38	0	9	na
83128	0	noff	44	0	9	na
83238	110	non	36	74	9	na
83248	10	noff	36	0	9	na
83358	110	non	36	74	9	na
83358	0	non	42	74	9	na
83368	10	noff	36	0	9	na
83368	0	noff	42	0	9	na
83598	230	non	42	74	9	na
83608	10	noff	42	0	9	na
83718	110	non	36	74	9	na
83728	10	noff	36	0	9	na
83838	110	non	38	74	9	na
83838	0	non	42	74	9	na
83848	10	noff	38	0	9	na
83848	0	noff	42	0	9	na
83958	110	non	36	74	9	na
83958	0	non	42	74	9	na
83968	10	noff	36	0	9	na
83968	0	noff	42	0	9	na
84078	110	non	38	74	9	na
84078	0	non	46	74	9	na
84088	10	noff	38	0	9	na
84088	0	noff	46	0	9	na
84198	110	non	44	74	9	na
84208	10	noff	44	0	9	na
84318	110	non	36	74	9	na
84318	0	non	42	74	9	na
84328	10	noff	36	0	9	na
84328	0	noff	42	0	9	na
84558	230	non	42	74	9	na
84568	10	noff	42	0	9	na
84678	110	non	36	74	9	na
84688	10	noff	36	0	9	na
84798	110	non	38	74	9	na
84798	0	non	42	74	9	na
84808	10	noff	38	0	9	na
84808	0	noff	42	0	9	na
84918	110	non	36	74	9	na
84918	0	non	42	74	9	na
84928	10	noff	36	0	9	na
84928	0	noff	42	0	9	na
85038	110	non	38	74	9	na
85038	0	non	46	74	9	na
85048	10	noff	38	0	9	na
85048	0	noff	46	0	9	na
85158	110	non	36	74	9	na
85158	0	non	44	74	9	na
85168	10	noff	36	0	9	na
85168	0	noff	44	0	9	na
85278	110	non	36	74	9	na
85278	0	non	42	74	9	na
85288	10	noff	36	0	9	na
85288	0	noff	42	0	9	na
85518	230	non	42	74	9	na
85528	10	noff	42	0	9	na
85638	110	non	36	74	9	na
85648	10	noff	36	0	9	na
85758	110	non	38	74	9	na
85758	0	non	42	74	9	na
85768	10	noff	38	0	9	na
85768	0	noff	42	0	9	na
85878	110	non	42	74	9	na
85888	10	noff	42	0	9	na
85998	110	non	46	74	9	na
85998	0	non	38	74	9	na
86008	10	noff	46	0	9	na
86008	0	noff	38	0	9	na
86118	110	non	36	74	9	na
86118	0	non	44	74	9	na
86128	10	noff	36	0	9	na
86128	0	noff	44	0	9	na
86238	110	non	36	74	9	na
86238	0	non	42	74	9	na
86248	10	noff	36	0	9	na
86248	0	noff	42	0	9	na
86478	230	non	42	74	9	na
86488	10	noff	42	0	9	na
86598	110	non	42	74	9	na
86608	10	noff	42	0	9	na
86718	110	non	38	74	9	na
86718	0	non	46	74	9	na
86728	10	noff	38	0	9	na
86728	0	noff	46	0	9	na
86838	110	non	36	74	9	na
86838	0	non	38	74	9	na
86848	10	noff	36	0	9	na
86848	0	noff	38	0	9	na
86958	110	non	38	74	9	na
86958	0	non	44	74	9	na
86968	10	noff	38	0	9	na
86968	0	noff	44	0	9	na
87078	110	non	36	74	9	na
87088	10	noff	36	0	9	na
87198	110	non	36	74	9	na
87198	0	non	42	74	9	na
87208	10	noff	36	0	9	na
87208	0	noff	42	0	9	na
87438	230	non	42	74	9	na
87448	10	noff	42	0	9	na
87558	110	non	36	74	9	na
87568	10	noff	36	0	9	na
87678	110	non	38	74	9	na
87678	0	non	42	74	9	na
87688	10	noff	38	0	9	na
87688	0	noff	42	0	9	na
87798	110	non	36	74	9	na
87798	0	non	42	74	9	na
87808	10	noff	36	0	9	na
87808	0	noff	42	0	9	na
87918	110	non	38	74	9	na
87918	0	non	46	74	9	na
87928	10	noff	38	0	9	na
87928	0	noff	46	0	9	na
88038	110	non	44	74	9	na
88048	10	noff	44	0	9	na
88158	110	non	36	74	9	na
88158	0	non	42	74	9	na
88168	10	noff	36	0	9	na
88168	0	noff	42	0	9	na
88398	230	non	42	74	9	na
88408	10	noff	42	0	9	na
88518	110	non	36	74	9	na
88528	10	noff	36	0	9	na
88638	110	non	38	74	9	na
88638	0	non	42	74	9	na
88648	10	noff	38	0	9	na
88648	0	noff	42	0	9	na
88758	110	non	36	74	9	na
88758	0	non	42	74	9	na
88768	10	noff	36	0	9	na
88768	0	noff	42	0	9	na
88878	110	non	38	74	9	na
88878	0	non	46	74	9	na
88888	10	noff	38	0	9	na
88888	0	noff	46	0	9	na
88998	110	non	36	74	9	na
88998	0	non	44	74	9	na
89008	10	noff	36	0	9	na
89008	0	noff	44	0	9	na
89118	110	non	36	74	9	na
89118	0	non	42	74	9	na
89128	10	noff	36	0	9	na
89128	0	noff	42	0	9	na
89358	230	non	42	74	9	na
89368	10	noff	42	0	9	na
89478	110	non	36	74	9	na
89488	10	noff	36	0	9	na
89598	110	non	38	74	9	na
89598	0	non	42	74	9	na
89608	10	noff	38	0	9	na
89608	0	noff	42	0	9	na
89718	110	non	42	74	9	na
89728	10	noff	42	0	9	na
89838	110	non	46	74	9	na
89838	0	non	38	74	9	na
89848	10	noff	46	0	9	na
89848	0	noff	38	0	9	na
89958	110	non	36	74	9	na
89958	0	non	44	74	9	na
89968	10	noff	36	0	9	na
89968	0	noff	44	0	9	na
90078	110	non	36	74	9	na
90078	0	non	42	74	9	na
90088	10	noff	36	0	9	na
90088	0	noff	42	0	9	na
90318	230	non	42	74	9	na
90328	10	noff	42	0	9	na
90438	110	non	42	74	9	na
90448	10	noff	42	0	9	na
90558	110	non	38	74	9	na
90558	0	non	46	74	9	na
90568	10	noff	38	0	9	na
90568	0	noff	46	0	9	na
90678	110	non	36	74	9	na
90688	10	noff	36	0	9	na
90798	110	non	38	74	9	na
90798	0	non	44	74	9	na
90808	10	noff	38	0	9	na
90808	0	noff	44	0	9	na
90918	110	non	36	74	9	na
90928	10	noff	36	0	9	na
91038	110	non	36	74	9	na
91038	0	non	42	74	9	na
91048	10	noff	36	0	9	na
91048	0	noff	42	0	9	na
91278	230	non	42	74	9	na
91288	10	noff	42	0	9	na
91398	110	non	36	74	9	na
91408	10	noff	36	0	9	na
91518	110	non	38	74	9	na
91518	0	non	42	74	9	na
91528	10	noff	38	0	9	na
91528	0	noff	42	0	9	na
91638	110	non	36	74	9	na
91638	0	non	42	74	9	na
91648	10	noff	36	0	9	na
91648	0	noff	42	0	9	na
91758	110	non	38	74	9	na
91758	0	non	46	74	9	na
91768	10	noff	38	0	9	na
91768	0	noff	46	0	9	na
91878	110	non	44	74	9	na
91888	10	noff	44	0	9	na
91998	110	non	36	74	9	na
91998	0	non	42	74	9	na
92008	10	noff	36	0	9	na
92008	0	noff	42	0	9	na
92238	230	non	42	74	9	na
92248	10	noff	42	0	9	na
92358	110	non	36	74	9	na
92368	10	noff	36	0	9	na
92478	110	non	38	74	9	na
92478	0	non	42	74	9	na
92488	10	noff	38	0	9	na
92488	0	noff	42	0	9	na
92598	110	non	36	74	9	na
92598	0	non	42	74	9	na
92608	10	noff	36	0	9	na
92608	0	noff	42	0	9	na
92718	110	non	38	74	9	na
92718	0	non	46	74	9	na
92728	10	noff	38	0	9	na
92728	0	noff	46	0	9	na
92838	110	non	36	74	9	na
92838	0	non	44	74	9	na
92848	10	noff	36	0	9	na
92848	0	noff	44	0	9	na
92958	110	non	36	74	9	na
92958	0	non	42	74	9	na
92968	10	noff	36	0	9	na
92968	0	noff	42	0	9	na
93078	110	non	42	74	9	na
93088	10	noff	42	0	9	na
93198	110	non	46	74	9	na
93208	10	noff	46	0	9	na
93318	110	non	36	74	9	na
93328	10	noff	36	0	9	na
93438	110	non	38	74	9	na
93438	0	non	42	74	9	na
93448	10	noff	38	0	9	na
93448	0	noff	42	0	9	na
93558	110	non	42	74	9	na
93568	10	noff	42	0	9	na
93678	110	non	46	74	9	na
93678	0	non	38	74	9	na
93688	10	noff	46	0	9	na
93688	0	noff	38	0	9	na
93798	110	non	36	74	9	na
93798	0	non	44	74	9	na
93808	10	noff	36	0	9	na
93808	0	noff	44	0	9	na
93918	110	non	36	74	9	na
93918	0	non	42	74	9	na
93918	0	non	38	74	9	na
93928	10	noff	36	0	9	na
93928	0	noff	42	0	9	na
93928	0	noff	38	0	9	na
94158	230	non	42	74	9	na
94168	10	noff	42	0	9	na
94278	110	non	42	74	9	na
94288	10	noff	42	0	9	na
94398	110	non	38	74	9	na
94398	0	non	46	74	9	na
94408	10	noff	38	0	9	na
94408	0	noff	46	0	9	na
94518	110	non	36	74	9	na
94518	0	non	38	74	9	na
94528	10	noff	36	0	9	na
94528	0	noff	38	0	9	na
94638	110	non	38	74	9	na
94638	0	non	44	74	9	na
94648	10	noff	38	0	9	na
94648	0	noff	44	0	9	na
94758	110	non	36	74	9	na
94758	0	non	38	74	9	na
94768	10	noff	36	0	9	na
94768	0	noff	38	0	9	na
94878	110	non	36	74	9	na
94878	0	non	42	74	9	na
94888	10	noff	36	0	9	na
94888	0	noff	42	0	9	na
95118	230	non	42	74	9	na
95128	10	noff	42	0	9	na
95238	110	non	36	74	9	na
95248	10	noff	36	0	9	na
95358	110	non	38	74	9	na
95358	0	non	42	74	9	na
95358	0	non	54	74	9	na
95368	10	noff	38	0	9	na
95368	0	noff	42	0	9	na
95368	0	noff	54	0	9	na
95478	110	non	36	74	9	na
95478	0	non	42	74	9	na
95488	10	noff	36	0	9	na
95488	0	noff	42	0	9	na
95598	110	non	38	74	9	na
95598	0	non	46	74	9	na
95608	10	noff	38	0	9	na
95608	0	noff	46	0	9	na
95718	110	non	44	74	9	na
95728	10	noff	44	0	9	na
95838	110	non	36	74	9	na
95838	0	non	42	74	9	na
95848	10	noff	36	0	9	na
95848	0	noff	42	0	9	na
96078	230	non	42	74	9	na
96088	10	noff	42	0	9	na
96198	110	non	36	74	9	na
96208	10	noff	36	0	9	na
96318	110	non	38	74	9	na
96318	0	non	42	74	9	na
96318	0	non	54	74	9	na
96328	10	noff	38	0	9	na
96328	0	noff	42	0	9	na
96328	0	noff	54	0	9	na
96438	110	non	36	74	9	na
96438	0	non	42	74	9	na
96448	10	noff	36	0	9	na
96448	0	noff	42	0	9	na
96558	110	non	38	74	9	na
96558	0	non	46	74	9	na
96568	10	noff	38	0	9	na
96568	0	noff	46	0	9	na
96678	110	non	36	74	9	na
96678	0	non	44	74	9	na
96688	10	noff	36	0	9	na
96688	0	noff	44	0	9	na
96798	110	non	36	74	9	na
96798	0	non	42	74	9	na
96808	10	noff	36	0	9	na
96808	0	noff	42	0	9	na
97038	230	non	42	74	9	na
97048	10	noff	42	0	9	na
97158	110	non	36	74	9	na
97168	10	noff	36	0	9	na
97278	110	non	38	74	9	na
97278	0	non	42	74	9	na
97278	0	non	54	74	9	na
97288	10	noff	38	0	9	na
97288	0	noff	42	0	9	na
97288	0	noff	54	0	9	na
97398	110	non	42	74	9	na
97408	10	noff	42	0	9	na
97518	110	non	46	74	9	na
97528	10	noff	46	0	9	na
97638	110	non	36	74	9	na
97638	0	non	38	74	9	na
97638	0	non	44	74	9	na
97648	10	noff	36	0	9	na
97648	0	noff	38	0	9	na
97648	0	noff	44	0	9	na
97758	110	non	36	74	9	na
97758	0	non	42	74	9	na
97768	10	noff	36	0	9	na
97768	0	noff	42	0	9	na
97998	230	non	42	74	9	na
98008	10	noff	42	0	9	na
98118	110	non	42	74	9	na
98128	10	noff	42	0	9	na
98238	110	non	38	74	9	na
98238	0	non	46	74	9	na
98238	0	non	54	74	9	na
98248	10	noff	38	0	9	na
98248	0	noff	46	0	9	na
98248	0	noff	54	0	9	na
98358	110	non	36	74	9	na
98368	10	noff	36	0	9	na
98478	110	non	38	74	9	na
98478	0	non	44	74	9	na
98488	10	noff	38	0	9	na
98488	0	noff	44	0	9	na
98598	110	non	36	74	9	na
98608	10	noff	36	0	9	na
98718	110	non	36	74	9	na
98718	0	non	42	74	9	na
98728	10	noff	36	0	9	na
98728	0	noff	42	0	9	na
98958	230	non	42	74	9	na
98968	10	noff	42	0	9	na
99078	110	non	36	74	9	na
99088	10	noff	36	0	9	na
99198	110	non	38	74	9	na
99198	0	non	42	74	9	na
99198	0	non	54	74	9	na
99208	10	noff	38	0	9	na
99208	0	noff	42	0	9	na
99208	0	noff	54	0	9	na
99318	110	non	36	74	9	na
99318	0	non	42	74	9	na
99328	10	noff	36	0	9	na
99328	0	noff	42	0	9	na
99438	110	non	38	74	9	na
99438	0	non	46	74	9	na
99448	10	noff	38	0	9	na
99448	0	noff	46	0	9	na
99558	110	non	44	74	9	na
99568	10	noff	44	0	9	na
99678	110	non	36	74	9	na
99678	0	non	42	74	9	na
99688	10	noff	36	0	9	na
99688	0	noff	42	0	9	na
99918	230	non	42	74	9	na
99928	10	noff	42	0	9	na
100038	110	non	36	74	9	na
100048	10	noff	36	0	9	na
100158	110	non	38	74	9	na
100158	0	non	42	74	9	na
100158	0	non	54	74	9	na
100168	10	noff	38	0	9	na
100168	0	noff	42	0	9	na
100168	0	noff	54	0	9	na
100278	110	non	36	74	9	na
100278	0	non	42	74	9	na
100288	10	noff	36	0	9	na
100288	0	noff	42	0	9	na
100398	110	non	38	74	9	na
100398	0	non	46	74	9	na
100408	10	noff	38	0	9	na
100408	0	noff	46	0	9	na
100518	110	non	36	74	9	na
100518	0	non	44	74	9	na
100528	10	noff	36	0	9	na
100528	0	noff	44	0	9	na
100638	110	non	36	74	9	na
100638	0	non	42	74	9	na
100648	10	noff	36	0	9	na
100648	0	noff	42	0	9	na
100878	230	non	42	74	9	na
100888	10	noff	42	0	9	na
100998	110	non	36	74	9	na
101008	10	noff	36	0	9	na
101118	110	non	38	74	9	na
101118	0	non	42	74	9	na
101118	0	non	54	74	9	na
101128	10	noff	38	0	9	na
101128	0	noff	42	0	9	na
101128	0	noff	54	0	9	na
101238	110	non	42	74	9	na
101248	10	noff	42	0	9	na
101358	110	non	46	74	9	na
101358	0	non	38	74	9	na
101368	10	noff	46	0	9	na
101368	0	noff	38	0	9	na
101478	110	non	36	74	9	na
101478	0	non	44	74	9	na
101488	10	noff	36	0	9	na
101488	0	noff	44	0	9	na
101598	110	non	36	74	9	na
101598	0	non	42	74	9	na
101608	10	noff	36	0	9	na
101608	0	noff	42	0	9	na
101838	230	non	42	74	9	na
101848	10	noff	42	0	9	na
101958	110	non	42	74	9	na
101968	10	noff	42	0	9	na
102078	110	non	38	74	9	na
102078	0	non	46	74	9	na
102078	0	non	54	74	9	na
102088	10	noff	38	0	9	na
102088	0	noff	46	0	9	na
102088	0	noff	54	0	9	na
102198	110	non	36	74	9	na
102198	0	non	38	74	9	na
102208	10	noff	36	0	9	na
102208	0	noff	38	0	9	na
102318	110	non	38	74	9	na
102318	0	non	44	74	9	na
102328	10	noff	38	0	9	na
102328	0	noff	44	0	9	na
102438	110	non	36	74	9	na
102448	10	noff	36	0	9	na
102558	110	non	36	74	9	na
102558	0	non	42	74	9	na
102568	10	noff	36	0	9	na
102568	0	noff	42	0	9	na
102798	230	non	42	74	9	na
102808	10	noff	42	0	9	na
102918	110	non	36	74	9	na
102928	10	noff	36	0	9	na
103038	110	non	38	74	9	na
103038	0	non	42	74	9	na
103038	0	non	54	74	9	na
103048	10	noff	38	0	9	na
103048	0	noff	42	0	9	na
103048	0	noff	54	0	9	na
103158	110	non	36	74	9	na
103158	0	non	42	74	9	na
103168	10	noff	36	0	9	na
103168	0	noff	42	0	9	na
103278	110	non	38	74	9	na
103278	0	non	46	74	9	na
103288	10	noff	38	0	9	na
103288	0	noff	46	0	9	na
103398	110	non	44	74	9	na
103408	10	noff	44	0	9	na
103518	110	non	36	74	9	na
103518	0	non	42	74	9	na
103528	10	noff	36	0	9	na
103528	0	noff	42	0	9	na
103758	230	non	42	74	9	na
103768	10	noff	42	0	9	na
103878	110	non	36	74	9	na
103888	10	noff	36	0	9	na
103998	110	non	38	74	9	na
103998	0	non	42	74	9	na
103998	0	non	54	74	9	na
104008	10	noff	38	0	9	na
104008	0	noff	42	0	9	na
104008	0	noff	54	0	9	na
104118	110	non	36	74	9	na
104118	0	non	42	74	9	na
104128	10	noff	36	0	9	na
104128	0	noff	42	0	9	na
104238	110	non	38	74	9	na
104238	0	non	46	74	9	na
104248	10	noff	38	0	9	na
104248	0	noff	46	0	9	na
104358	110	non	36	74	9	na
104358	0	non	44	74	9	na
104368	10	noff	36	0	9	na
104368	0	noff	44	0	9	na
104478	110	non	36	74	9	na
104478	0	non	42	74	9	na
104488	10	noff	36	0	9	na
104488	0	noff	42	0	9	na
104718	230	non	42	74	9	na
104728	10	noff	42	0	9	na
104838	110	non	36	74	9	na
104848	10	noff	36	0	9	na
104958	110	non	38	74	9	na
104958	0	non	42	74	9	na
104958	0	non	54	74	9	na
104968	10	noff	38	0	9	na
104968	0	noff	42	0	9	na
104968	0	noff	54	0	9	na
105078	110	non	42	74	9	na
105088	10	noff	42	0	9	na
105198	110	non	46	74	9	na
105198	0	non	38	74	9	na
105208	10	noff	46	0	9	na
105208	0	noff	38	0	9	na
105318	110	non	36	74	9	na
105318	0	non	44	74	9	na
105328	10	noff	36	0	9	na
105328	0	noff	44	0	9	na
105438	110	non	36	74	9	na
105438	0	non	42	74	9	na
105448	10	noff	36	0	9	na
105448	0	noff	42	0	9	na
105678	230	non	42	74	9	na
105688	10	noff	42	0	9	na
105798	110	non	42	74	9	na
105808	10	noff	42	0	9	na
105918	110	non	38	74	9	na
105918	0	non	46	74	9	na
105918	0	non	54	74	9	na
105928	10	noff	38	0	9	na
105928	0	noff	46	0	9	na
105928	0	noff	54	0	9	na
106038	110	non	36	74	9	na
106048	10	noff	36	0	9	na
106158	110	non	38	74	9	na
106158	0	non	44	74	9	na
106168	10	noff	38	0	9	na
106168	0	noff	44	0	9	na
106278	110	non	36	74	9	na
106288	10	noff	36	0	9	na
106398	110	non	36	74	9	na
106398	0	non	42	74	9	na
106408	10	noff	36	0	9	na
106408	0	noff	42	0	9	na
106638	230	non	42	74	9	na
106648	10	noff	42	0	9	na
106758	110	non	36	74	9	na
106768	10	noff	36	0	9	na
106878	110	non	38	74	9	na
106878	0	non	42	74	9	na
106878	0	non	54	74	9	na
106888	10	noff	38	0	9	na
106888	0	noff	42	0	9	na
106888	0	noff	54	0	9	na
106998	110	non	36	74	9	na
106998	0	non	42	74	9	na
107008	10	noff	36	0	9	na
107008	0	noff	42	0	9	na
107118	110	non	38	74	9	na
107118	0	non	46	74	9	na
107128	10	noff	38	0	9	na
107128	0	noff	46	0	9	na
107238	110	non	44	74	9	na
107248	10	noff	44	0	9	na
107358	110	non	36	74	9	na
107358	0	non	42	74	9	na
107368	10	noff	36	0	9	na
107368	0	noff	42	0	9	na
107598	230	non	42	74	9	na
107608	10	noff	42	0	9	na
107718	110	non	36	74	9	na
107728	10	noff	36	0	9	na
107838	110	non	38	74	9	na
107838	0	non	42	74	9	na
107838	0	non	54	74	9	na
107848	10	noff	38	0	9	na
107848	0	noff	42	0	9	na
107848	0	noff	54	0	9	na
107958	110	non	36	74	9	na
107958	0	non	42	74	9	na
107968	10	noff	36	0	9	na
107968	0	noff	42	0	9	na
108078	110	non	38	74	9	na
108078	0	non	46	74	9	na
108088	10	noff	38	0	9	na
108088	0	noff	46	0	9	na
108198	110	non	36	74	9	na
108198	0	non	44	74	9	na
108208	10	noff	36	0	9	na
108208	0	noff	44	0	9	na
108318	110	non	36	74	9	na
108318	0	non	42	74	9	na
108328	10	noff	36	0	9	na
108328	0	noff	42	0	9	na
108438	110	non	42	74	9	na
108448	10	noff	42	0	9	na
108558	110	non	46	74	9	na
108568	10	noff	46	0	9	na
108678	110	non	36	74	9	na
108688	10	noff	36	0	9	na
108798	110	non	38	74	9	na
108798	0	non	42	74	9	na
108798	0	non	54	74	9	na
108808	10	noff	38	0	9	na
108808	0	noff	42	0	9	na
108808	0	noff	54	0	9	na
108918	110	non	42	74	9	na
108928	10	noff	42	0	9	na
109038	110	non	46	74	9	na
109038	0	non	38	74	9	na
109048	10	noff	46	0	9	na
109048	0	noff	38	0	9	na
109158	110	non	36	74	9	na
109158	0	non	44	74	9	na
109168	10	noff	36	0	9	na
109168	0	noff	44	0	9	na
109278	110	non	36	74	9	na
109278	0	non	42	74	9	na
109278	0	non	38	74	9	na
109278	0	non	47	74	9	na
109288	10	noff	36	0	9	na
109288	0	noff	42	0	9	na
109288	0	noff	38	0	9	na
109288	0	noff	47	0	9	na
109518	230	non	42	74	9	na
109528	10	noff	42	0	9	na
109638	110	non	42	74	9	na
109638	0	non	38	42	9	na
109638	0	non	45	74	9	na
109648	10	noff	42	0	9	na
109648	0	noff	38	0	9	na
109648	0	noff	45	0	9	na
109758	110	non	38	48	9	na
109758	0	non	46	74	9	na
109758	0	non	43	74	9	na
109758	0	non	54	74	9	na
109768	10	noff	38	0	9	na
109768	0	noff	46	0	9	na
109768	0	noff	43	0	9	na
109768	0	noff	54	0	9	na
109878	110	non	36	74	9	na
109878	0	non	38	57	9	na
109888	10	noff	36	0	9	na
109888	0	noff	38	0	9	na
109998	110	non	38	63	9	na
109998	0	non	44	74	9	na
109998	0	non	41	74	9	na
110008	10	noff	38	0	9	na
110008	0	noff	44	0	9	na
110008	0	noff	41	0	9	na
110118	110	non	36	74	9	na
110118	0	non	38	72	9	na
110118	0	non	41	74	9	na
110128	10	noff	36	0	9	na
110128	0	noff	38	0	9	na
110128	0	noff	41	0	9	na
110238	110	non	42	74	9	na
110238	0	non	36	100	9	na
110248	10	noff	42	0	9	na
110248	0	noff	36	0	9	na
110718	470	non	42	75	9	na
110728	10	noff	42	0	9	na
111198	470	non	42	76	9	na
111208	10	noff	42	0	9	na
111678	470	non	42	77	9	na
111688	10	noff	42	0	9	na
112158	470	non	42	77	9	na
112158	0	non	36	100	9	na
112168	10	noff	42	0	9	na
112168	0	noff	36	0	9	na
112638	470	non	42	78	9	na
112648	10	noff	42	0	9	na
113118	470	non	42	79	9	na
113128	10	noff	42	0	9	na
113358	230	non	42	79	9	na
113368	10	noff	42	0	9	na
113478	110	non	42	71	9	na
113488	10	noff	42	0	9	na
113538	50	non	42	76	9	na
113548	10	noff	42	0	9	na
113598	50	non	42	85	9	na
113608	10	noff	42	0	9	na
113838	230	non	46	100	9	na
113848	10	noff	46	0	9	na
114078	230	non	36	100	9	na
114078	0	non	42	100	9	na
114088	10	noff	36	0	9	na
114088	0	noff	42	0	9	na
114558	470	non	42	100	9	na
114568	10	noff	42	0	9	na
115518	950	non	42	100	9	na
115528	10	noff	42	0	9	na
115998	470	non	36	100	9	na
116008	10	noff	36	0	9	na
116478	470	non	42	79	9	na
116488	10	noff	42	0	9	na
116958	470	non	36	100	9	na
116958	0	non	42	75	9	na
116968	10	noff	36	0	9	na
116968	0	noff	42	0	9	na
117438	470	non	36	100	9	na
117438	0	non	42	70	9	na
117448	10	noff	36	0	9	na
117448	0	noff	42	0	9	na
117798	350	non	42	65	9	na
117808	10	noff	42	0	9	na
117918	110	non	36	100	9	na
117918	0	non	42	100	9	na
117928	10	noff	36	0	9	na
117928	0	noff	42	0	9	na
118878	950	non	36	100	9	na
118878	0	non	42	78	9	na
118888	10	noff	36	0	9	na
118888	0	noff	42	0	9	na
119838	950	non	36	100	9	na
119838	0	non	42	77	9	na
119848	10	noff	36	0	9	na
119848	0	noff	42	0	9	na
120318	470	non	42	69	9	na
120328	10	noff	42	0	9	na
120798	470	non	36	100	9	na
120798	0	non	42	79	9	na
120808	10	noff	36	0	9	na
120808	0	noff	42	0	9	na
121038	230	non	42	81	9	na
121048	10	noff	42	0	9	na
121158	110	non	42	100	9	na
121168	10	noff	42	0	9	na
121218	50	non	42	66	9	na
121228	10	noff	42	0	9	na
121278	50	non	42	100	9	na
121288	10	noff	42	0	9	na
121518	230	non	46	82	9	na
121528	10	noff	46	0	9	na
121758	230	non	36	100	9	na
121758	0	non	44	71	9	na
121768	10	noff	36	0	9	na
121768	0	noff	44	0	9	na
122238	470	non	42	73	9	na
122248	10	noff	42	0	9	na
122718	470	non	36	72	9	na
122718	0	non	42	72	9	na
122728	10	noff	36	0	9	na
122728	0	noff	42	0	9	na
123198	470	non	42	70	9	na
123208	10	noff	42	0	9	na
123678	470	non	36	100	9	na
123678	0	non	42	100	9	na
123688	10	noff	36	0	9	na
123688	0	noff	42	0	9	na
124158	470	non	36	100	9	na
124158	0	non	42	69	9	na
124168	10	noff	36	0	9	na
124168	0	noff	42	0	9	na
124638	470	non	36	100	9	na
124638	0	non	42	69	9	na
124648	10	noff	36	0	9	na
124648	0	noff	42	0	9	na
125118	470	non	36	100	9	na
125118	0	non	42	70	9	na
125128	10	noff	36	0	9	na
125128	0	noff	42	0	9	na
125238	110	non	45	100	9	na
125248	10	noff	45	0	9	na
125358	110	non	45	100	9	na
125368	10	noff	45	0	9	na
125478	110	non	43	100	9	na
125488	10	noff	43	0	9	na
125598	110	non	41	90	9	na
125598	0	non	36	100	9	na
125598	0	non	42	76	9	na
125608	10	noff	41	0	9	na
125608	0	noff	36	0	9	na
125608	0	noff	42	0	9	na
125838	230	non	40	90	9	na
125848	10	noff	40	0	9	na
126078	230	non	36	100	9	na
126078	0	non	42	74	9	na
126088	10	noff	36	0	9	na
126088	0	noff	42	0	9	na
126198	110	non	36	100	9	na
126208	10	noff	36	0	9	na
126318	110	non	40	90	9	na
126328	10	noff	40	0	9	na
126558	230	non	36	100	9	na
126558	0	non	42	74	9	na
126568	10	noff	36	0	9	na
126568	0	noff	42	0	9	na
126798	230	non	40	90	9	na
126808	10	noff	40	0	9	na
127038	230	non	36	100	9	na
127038	0	non	42	74	9	na
127048	10	noff	36	0	9	na
127048	0	noff	42	0	9	na
127158	110	non	42	59	9	na
127168	10	noff	42	0	9	na
127278	110	non	40	90	9	na
127278	0	non	42	73	9	na
127288	10	noff	40	0	9	na
127288	0	noff	42	0	9	na
127398	110	non	36	100	9	na
127408	10	noff	36	0	9	na
127518	110	non	36	100	9	na
127518	0	non	42	100	9	na
127528	10	noff	36	0	9	na
127528	0	noff	42	0	9	na
127758	230	non	40	90	9	na
127768	10	noff	40	0	9	na
127878	110	non	36	100	9	na
127888	10	noff	36	0	9	na
127998	110	non	36	100	9	na
127998	0	non	42	74	9	na
128008	10	noff	36	0	9	na
128008	0	noff	42	0	9	na
128118	110	non	36	100	9	na
128128	10	noff	36	0	9	na
128238	110	non	40	90	9	na
128248	10	noff	40	0	9	na
128478	230	non	36	100	9	na
128478	0	non	42	74	9	na
128488	10	noff	36	0	9	na
128488	0	noff	42	0	9	na
128598	110	non	36	100	9	na
128608	10	noff	36	0	9	na
128718	110	non	40	90	9	na
128728	10	noff	40	0	9	na
128958	230	non	36	100	9	na
128958	0	non	42	74	9	na
128968	10	noff	36	0	9	na
128968	0	noff	42	0	9	na
129198	230	non	40	90	9	na
129208	10	noff	40	0	9	na
129318	110	non	36	100	9	na
129328	10	noff	36	0	9	na
129438	110	non	36	100	9	na
129438	0	non	42	74	9	na
129448	10	noff	36	0	9	na
129448	0	noff	42	0	9	na
129678	230	non	40	90	9	na
129688	10	noff	40	0	9	na
129918	230	non	36	100	9	na
129918	0	non	42	74	9	na
129928	10	noff	36	0	9	na
129928	0	noff	42	0	9	na
130038	110	non	36	100	9	na
130048	10	noff	36	0	9	na
130158	110	non	40	90	9	na
130168	10	noff	40	0	9	na
130398	230	non	36	100	9	na
130398	0	non	42	74	9	na
130408	10	noff	36	0	9	na
130408	0	noff	42	0	9	na
130638	230	non	40	90	9	na
130648	10	noff	40	0	9	na
130878	230	non	36	100	9	na
130878	0	non	42	74	9	na
130888	10	noff	36	0	9	na
130888	0	noff	42	0	9	na
130998	110	non	36	100	9	na
130998	0	non	42	74	9	na
131008	10	noff	36	0	9	na
131008	0	noff	42	0	9	na
131118	110	non	40	90	9	na
131118	0	non	42	74	9	na
131128	10	noff	40	0	9	na
131128	0	noff	42	0	9	na
131238	110	non	36	100	9	na
131248	10	noff	36	0	9	na
131358	110	non	36	100	9	na
131358	0	non	42	74	9	na
131368	10	noff	36	0	9	na
131368	0	noff	42	0	9	na
131718	350	non	36	100	9	na
131728	10	noff	36	0	9	na
131838	110	non	40	90	9	na
131838	0	non	42	74	9	na
131848	10	noff	40	0	9	na
131848	0	noff	42	0	9	na
132078	230	non	40	90	9	na
132088	10	noff	40	0	9	na
132198	110	non	36	100	9	na
132198	0	non	40	90	9	na
132208	10	noff	36	0	9	na
132208	0	noff	40	0	9	na
132318	110	non	40	90	9	na
132318	0	non	36	100	9	na
132318	0	non	38	100	9	na
132318	0	non	42	74	9	na
132328	10	noff	40	0	9	na
132328	0	noff	36	0	9	na
132328	0	noff	38	0	9	na
132328	0	noff	42	0	9	na
132558	230	non	40	90	9	na
132568	10	noff	40	0	9	na
132678	110	non	40	90	9	na
132688	10	noff	40	0	9	na
132798	110	non	40	90	9	na
132798	0	non	36	100	9	na
132798	0	non	42	74	9	na
132808	10	noff	40	0	9	na
132808	0	noff	36	0	9	na
132808	0	noff	42	0	9	na
132918	110	non	40	90	9	na
132918	0	non	38	100	9	na
132918	0	non	42	74	9	na
132928	10	noff	40	0	9	na
132928	0	noff	38	0	9	na
132928	0	noff	42	0	9	na
133038	110	non	40	90	9	na
133038	0	non	38	100	9	na
133038	0	non	46	74	9	na
133048	10	noff	40	0	9	na
133048	0	noff	38	0	9	na
133048	0	noff	46	0	9	na
133158	110	non	40	90	9	na
133168	10	noff	40	0	9	na
133278	110	non	36	100	9	na
133278	0	non	42	74	9	na
133288	10	noff	36	0	9	na
133288	0	noff	42	0	9	na
133518	230	non	40	90	9	na
133528	10	noff	40	0	9	na
133758	230	non	36	100	9	na
133758	0	non	42	74	9	na
133768	10	noff	36	0	9	na
133768	0	noff	42	0	9	na
133878	110	non	36	100	9	na
133888	10	noff	36	0	9	na
133998	110	non	40	90	9	na
134008	10	noff	40	0	9	na
134238	230	non	36	100	9	na
134238	0	non	42	74	9	na
134248	10	noff	36	0	9	na
134248	0	noff	42	0	9	na
134478	230	non	40	90	9	na
134488	10	noff	40	0	9	na
134718	230	non	36	100	9	na
134718	0	non	42	74	9	na
134728	10	noff	36	0	9	na
134728	0	noff	42	0	9	na
134958	230	non	40	90	9	na
134968	10	noff	40	0	9	na
135078	110	non	36	100	9	na
135088	10	noff	36	0	9	na
135198	110	non	36	100	9	na
135198	0	non	42	74	9	na
135208	10	noff	36	0	9	na
135208	0	noff	42	0	9	na
135438	230	non	40	90	9	na
135438	0	non	38	100	9	na
135448	10	noff	40	0	9	na
135448	0	noff	38	0	9	na
135558	110	non	40	90	9	na
135568	10	noff	40	0	9	na
135678	110	non	40	90	9	na
135678	0	non	42	74	9	na
135688	10	noff	40	0	9	na
135688	0	noff	42	0	9	na
135798	110	non	40	90	9	na
135808	10	noff	40	0	9	na
135918	110	non	40	90	9	na
135918	0	non	36	100	9	na
135918	0	non	38	100	9	na
135928	10	noff	40	0	9	na
135928	0	noff	36	0	9	na
135928	0	noff	38	0	9	na
136158	230	non	36	100	9	na
136158	0	non	42	74	9	na
136168	10	noff	36	0	9	na
136168	0	noff	42	0	9	na
136278	110	non	36	100	9	na
136288	10	noff	36	0	9	na
136398	110	non	40	90	9	na
136408	10	noff	40	0	9	na
136518	110	non	42	74	9	na
136528	10	noff	42	0	9	na
136638	110	non	36	100	9	na
136638	0	non	42	74	9	na
136648	10	noff	36	0	9	na
136648	0	noff	42	0	9	na
136878	230	non	40	90	9	na
136878	0	non	46	74	9	na
136888	10	noff	40	0	9	na
136888	0	noff	46	0	9	na
136998	110	non	36	100	9	na
137008	10	noff	36	0	9	na
137118	110	non	36	100	9	na
137118	0	non	42	74	9	na
137128	10	noff	36	0	9	na
137128	0	noff	42	0	9	na
137358	230	non	40	90	9	na
137368	10	noff	40	0	9	na
137598	230	non	36	100	9	na
137598	0	non	42	74	9	na
137608	10	noff	36	0	9	na
137608	0	noff	42	0	9	na
137718	110	non	36	100	9	na
137728	10	noff	36	0	9	na
137838	110	non	40	90	9	na
137848	10	noff	40	0	9	na
138078	230	non	36	100	9	na
138078	0	non	42	74	9	na
138088	10	noff	36	0	9	na
138088	0	noff	42	0	9	na
138318	230	non	40	90	9	na
138328	10	noff	40	0	9	na
138558	230	non	36	100	9	na
138558	0	non	42	74	9	na
138568	10	noff	36	0	9	na
138568	0	noff	42	0	9	na
138798	230	non	40	90	9	na
138808	10	noff	40	0	9	na
138918	110	non	36	100	9	na
138928	10	noff	36	0	9	na
139038	110	non	36	100	9	na
139038	0	non	42	74	9	na
139048	10	noff	36	0	9	na
139048	0	noff	42	0	9	na
139278	230	non	40	90	9	na
139288	10	noff	40	0	9	na
139398	110	non	36	100	9	na
139408	10	noff	36	0	9	na
139518	110	non	36	100	9	na
139518	0	non	38	74	9	na
139518	0	non	42	74	9	na
139528	10	noff	36	0	9	na
139528	0	noff	38	0	9	na
139528	0	noff	42	0	9	na
139758	230	non	38	100	9	na
139758	0	non	40	100	9	na
139758	0	non	42	74	9	na
139768	10	noff	38	0	9	na
139768	0	noff	40	0	9	na
139768	0	noff	42	0	9	na
139818	50	non	40	100	9	na
139828	10	noff	40	0	9	na
139878	50	non	40	100	9	na
139888	10	noff	40	0	9	na
139938	50	non	40	100	9	na
139948	10	noff	40	0	9	na
139998	50	non	38	100	9	na
139998	0	non	36	100	9	na
139998	0	non	40	100	9	na
139998	0	non	42	74	9	na
140008	10	noff	38	0	9	na
140008	0	noff	36	0	9	na
140008	0	noff	40	0	9	na
140008	0	noff	42	0	9	na
140478	470	non	36	100	9	na
140488	10	noff	36	0	9	na
140598	110	non	42	74	9	na
140608	10	noff	42	0	9	na
140718	110	non	40	100	9	na
140728	10	noff	40	0	9	na
140838	110	non	36	100	9	na
140838	0	non	46	74	9	na
140848	10	noff	36	0	9	na
140848	0	noff	46	0	9	na
140958	110	non	36	100	9	na
140958	0	non	42	74	9	na
140968	10	noff	36	0	9	na
140968	0	noff	42	0	9	na
141318	350	non	40	100	9	na
141328	10	noff	40	0	9	na
141438	110	non	38	100	9	na
141438	0	non	42	74	9	na
141448	10	noff	38	0	9	na
141448	0	noff	42	0	9	na
141918	470	non	36	100	9	na
141918	0	non	42	74	9	na
141928	10	noff	36	0	9	na
141928	0	noff	42	0	9	na
142158	230	non	36	100	9	na
142168	10	noff	36	0	9	na
142398	230	non	38	100	9	na
142398	0	non	42	74	9	na
142408	10	noff	38	0	9	na
142408	0	noff	42	0	9	na
142878	470	non	36	100	9	na
142878	0	non	42	74	9	na
142888	10	noff	36	0	9	na
142888	0	noff	42	0	9	na
143238	350	non	40	100	9	na
143248	10	noff	40	0	9	na
143358	110	non	38	100	9	na
143358	0	non	42	74	9	na
143368	10	noff	38	0	9	na
143368	0	noff	42	0	9	na
143718	350	non	36	100	9	na
143728	10	noff	36	0	9	na
143838	110	non	36	100	9	na
143838	0	non	42	74	9	na
143848	10	noff	36	0	9	na
143848	0	noff	42	0	9	na
144078	230	non	36	100	9	na
144088	10	noff	36	0	9	na
144318	230	non	38	100	9	na
144318	0	non	42	74	9	na
144328	10	noff	38	0	9	na
144328	0	noff	42	0	9	na
144558	230	non	36	100	9	na
144568	10	noff	36	0	9	na
144798	230	non	36	100	9	na
144798	0	non	42	74	9	na
144808	10	noff	36	0	9	na
144808	0	noff	42	0	9	na
145158	350	non	38	100	9	na
145168	10	noff	38	0	9	na
145278	110	non	38	100	9	na
145278	0	non	42	74	9	na
145288	10	noff	38	0	9	na
145288	0	noff	42	0	9	na
145518	230	non	36	100	9	na
145528	10	noff	36	0	9	na
145758	230	non	36	100	9	na
145758	0	non	38	100	9	na
145758	0	non	42	74	9	na
145768	10	noff	36	0	9	na
145768	0	noff	38	0	9	na
145768	0	noff	42	0	9	na
145878	110	non	38	100	9	na
145888	10	noff	38	0	9	na
145998	110	non	36	100	9	na
146008	10	noff	36	0	9	na
146238	230	non	36	100	9	na
146238	0	non	38	100	9	na
146238	0	non	42	74	9	na
146248	10	noff	36	0	9	na
146248	0	noff	38	0	9	na
146248	0	noff	42	0	9	na
146598	350	non	38	100	9	na
146608	10	noff	38	0	9	na
146718	110	non	36	100	9	na
146718	0	non	42	74	9	na
146728	10	noff	36	0	9	na
146728	0	noff	42	0	9	na
147078	350	non	40	100	9	na
147088	10	noff	40	0	9	na
147198	110	non	38	100	9	na
147198	0	non	42	74	9	na
147208	10	noff	38	0	9	na
147208	0	noff	42	0	9	na
147558	350	non	36	100	9	na
147558	0	non	40	100	9	na
147568	10	noff	36	0	9	na
147568	0	noff	40	0	9	na
147678	110	non	36	100	9	na
147678	0	non	38	100	9	na
147678	0	non	42	74	9	na
147688	10	noff	36	0	9	na
147688	0	noff	38	0	9	na
147688	0	noff	42	0	9	na
148158	470	non	38	100	9	na
148158	0	non	42	74	9	na
148168	10	noff	38	0	9	na
148168	0	noff	42	0	9	na
148398	230	non	38	100	9	na
148398	0	non	36	100	9	na
148408	10	noff	38	0	9	na
148408	0	noff	36	0	9	na
148518	110	non	36	100	9	na
148528	10	noff	36	0	9	na
148638	110	non	36	100	9	na
148638	0	non	42	74	9	na
148648	10	noff	36	0	9	na
148648	0	noff	42	0	9	na
148998	350	non	40	100	9	na
149008	10	noff	40	0	9	na
149118	110	non	38	100	9	na
149118	0	non	42	74	9	na
149128	10	noff	38	0	9	na
149128	0	noff	42	0	9	na
149598	470	non	36	100	9	na
149598	0	non	42	74	9	na
149608	10	noff	36	0	9	na
149608	0	noff	42	0	9	na
149838	230	non	36	100	9	na
149848	10	noff	36	0	9	na
150078	230	non	40	100	9	na
150078	0	non	42	74	9	na
150088	10	noff	40	0	9	na
150088	0	noff	42	0	9	na
150558	470	non	36	100	9	na
150558	0	non	42	74	9	na
150568	10	noff	36	0	9	na
150568	0	noff	42	0	9	na
150918	350	non	40	100	9	na
150928	10	noff	40	0	9	na
151038	110	non	38	100	9	na
151038	0	non	42	74	9	na
151048	10	noff	38	0	9	na
151048	0	noff	42	0	9	na
151398	350	non	36	100	9	na
151408	10	noff	36	0	9	na
151518	110	non	36	100	9	na
151518	0	non	42	74	9	na
151528	10	noff	36	0	9	na
151528	0	noff	42	0	9	na
151758	230	non	36	100	9	na
151768	10	noff	36	0	9	na
151998	230	non	38	100	9	na
151998	0	non	42	74	9	na
152008	10	noff	38	0	9	na
152008	0	noff	42	0	9	na
152238	230	non	36	100	9	na
152248	10	noff	36	0	9	na
152478	230	non	38	100	9	na
152478	0	non	36	100	9	na
152478	0	non	42	74	9	na
152488	10	noff	38	0	9	na
152488	0	noff	36	0	9	na
152488	0	noff	42	0	9	na
152838	350	non	36	100	9	na
152838	0	non	38	34	9	na
152848	10	noff	36	0	9	na
152848	0	noff	38	0	9	na
152898	50	non	38	55	9	na
152908	10	noff	38	0	9	na
152958	50	non	38	96	9	na
152958	0	non	36	100	9	na
152958	0	non	42	74	9	na
152968	10	noff	38	0	9	na
152968	0	noff	36	0	9	na
152968	0	noff	42	0	9	na
153438	470	non	36	100	9	na
153438	0	non	42	74	9	na
153448	10	noff	36	0	9	na
153448	0	noff	42	0	9	na
153558	110	non	38	100	9	na
153568	10	noff	38	0	9	na
153678	110	non	38	100	9	na
153688	10	noff	38	0	9	na
153798	110	non	36	100	9	na
153808	10	noff	36	0	9	na
153918	110	non	36	100	9	na
153918	0	non	40	100	9	na
153918	0	non	42	74	9	na
153928	10	noff	36	0	9	na
153928	0	noff	40	0	9	na
153928	0	noff	42	0	9	na
154038	110	non	38	100	9	na
154048	10	noff	38	0	9	na
154158	110	non	38	100	9	na
154168	10	noff	38	0	9	na
154278	110	non	36	100	9	na
154288	10	noff	36	0	9	na
154398	110	non	36	100	9	na
154398	0	non	38	100	9	na
154398	0	non	42	74	9	na
154408	10	noff	36	0	9	na
154408	0	noff	38	0	9	na
154408	0	noff	42	0	9	na
154758	350	non	36	100	9	na
154768	10	noff	36	0	9	na
154878	110	non	38	100	9	na
154878	0	non	42	74	9	na
154888	10	noff	38	0	9	na
154888	0	noff	42	0	9	na
155238	350	non	38	100	9	na
155248	10	noff	38	0	9	na
155358	110	non	38	100	9	na
155358	0	non	36	100	9	na
155358	0	non	42	74	9	na
155368	10	noff	38	0	9	na
155368	0	noff	36	0	9	na
155368	0	noff	42	0	9	na
155598	230	non	42	74	9	na
155608	10	noff	42	0	9	na
155838	230	non	36	100	9	na
155838	0	non	42	74	9	na
155848	10	noff	36	0	9	na
155848	0	noff	42	0	9	na
155958	110	non	42	74	9	na
155968	10	noff	42	0	9	na
156078	110	non	36	100	9	na
156078	0	non	42	74	9	na
156088	10	noff	36	0	9	na
156088	0	noff	42	0	9	na
156318	230	non	36	100	9	na
156328	10	noff	36	0	9	na
156558	230	non	42	74	9	na
156568	10	noff	42	0	9	na
156678	110	non	36	100	9	na
156688	10	noff	36	0	9	na
156798	110	non	38	100	9	na
156808	10	noff	38	0	9	na
157038	230	non	42	74	9	na
157048	10	noff	42	0	9	na
157158	110	non	36	100	9	na
157168	10	noff	36	0	9	na
157278	110	non	36	100	9	na
157288	10	noff	36	0	9	na
157518	230	non	42	74	9	na
157528	10	noff	42	0	9	na
157638	110	non	42	74	9	na
157648	10	noff	42	0	9	na
157758	110	non	38	100	9	na
157768	10	noff	38	0	9	na
157998	230	non	36	100	9	na
157998	0	non	42	74	9	na
158008	10	noff	36	0	9	na
158008	0	noff	42	0	9	na
158238	230	non	36	100	9	na
158248	10	noff	36	0	9	na
158478	230	non	42	74	9	na
158488	10	noff	42	0	9	na
158598	110	non	36	100	9	na
158608	10	noff	36	0	9	na
158718	110	non	38	100	9	na
158728	10	noff	38	0	9	na
158958	230	non	36	100	9	na
158958	0	non	42	74	9	na
158968	10	noff	36	0	9	na
158968	0	noff	42	0	9	na
159198	230	non	36	100	9	na
159208	10	noff	36	0	9	na
159438	230	non	42	74	9	na
159448	10	noff	42	0	9	na
159558	110	non	42	74	9	na
159568	10	noff	42	0	9	na
159678	110	non	38	100	9	na
159688	10	noff	38	0	9	na
159918	230	non	42	74	9	na
159928	10	noff	42	0	9	na
160158	230	non	36	100	9	na
160168	10	noff	36	0	9	na
160398	230	non	42	74	9	na
160408	10	noff	42	0	9	na
160518	110	non	36	100	9	na
160528	10	noff	36	0	9	na
160638	110	non	38	100	9	na
160648	10	noff	38	0	9	na
160878	230	non	36	100	9	na
160878	0	non	42	74	9	na
160888	10	noff	36	0	9	na
160888	0	noff	42	0	9	na
161118	230	non	36	100	9	na
161128	10	noff	36	0	9	na
161358	230	non	38	100	9	na
161358	0	non	42	74	9	na
161368	10	noff	38	0	9	na
161368	0	noff	42	0	9	na
161478	110	non	42	74	9	na
161488	10	noff	42	0	9	na
161598	110	non	36	100	9	na
161608	10	noff	36	0	9	na
161718	110	non	36	100	9	na
161728	10	noff	36	0	9	na
161838	110	non	38	100	9	na
161838	0	non	42	74	9	na
161848	10	noff	38	0	9	na
161848	0	noff	42	0	9	na
161958	110	non	36	100	9	na
161968	10	noff	36	0	9	na
162078	110	non	36	100	9	na
162088	10	noff	36	0	9	na
162198	110	non	42	74	9	na
162208	10	noff	42	0	9	na
162318	110	non	42	74	9	na
162328	10	noff	42	0	9	na
162438	110	non	36	100	9	na
162448	10	noff	36	0	9	na
162558	110	non	38	100	9	na
162568	10	noff	38	0	9	na
162678	110	non	36	100	9	na
162688	10	noff	36	0	9	na
162798	110	non	36	100	9	na
162798	0	non	42	74	9	na
162808	10	noff	36	0	9	na
162808	0	noff	42	0	9	na
163038	230	non	36	100	9	na
163048	10	noff	36	0	9	na
163278	230	non	42	74	9	na
163288	10	noff	42	0	9	na
163518	230	non	38	100	9	na
163528	10	noff	38	0	9	na
163638	110	non	42	74	9	na
163648	10	noff	42	0	9	na
163758	110	non	36	100	9	na
163758	0	non	42	74	9	na
163768	10	noff	36	0	9	na
163768	0	noff	42	0	9	na
163878	110	non	42	74	9	na
163888	10	noff	42	0	9	na
163998	110	non	36	100	9	na
164008	10	noff	36	0	9	na
164238	230	non	42	74	9	na
164248	10	noff	42	0	9	na
164358	110	non	36	100	9	na
164368	10	noff	36	0	9	na
164478	110	non	38	100	9	na
164488	10	noff	38	0	9	na
164718	230	non	42	74	9	na
164728	10	noff	42	0	9	na
164838	110	non	36	100	9	na
164848	10	noff	36	0	9	na
164958	110	non	36	100	9	na
164968	10	noff	36	0	9	na
165198	230	non	42	74	9	na
165208	10	noff	42	0	9	na
165318	110	non	42	74	9	na
165328	10	noff	42	0	9	na
165438	110	non	38	100	9	na
165448	10	noff	38	0	9	na
165678	230	non	36	100	9	na
165678	0	non	42	74	9	na
165688	10	noff	36	0	9	na
165688	0	noff	42	0	9	na
165918	230	non	36	100	9	na
165928	10	noff	36	0	9	na
166158	230	non	42	74	9	na
166168	10	noff	42	0	9	na
166278	110	non	36	100	9	na
166288	10	noff	36	0	9	na
166398	110	non	38	100	9	na
166408	10	noff	38	0	9	na
166638	230	non	36	100	9	na
166638	0	non	42	74	9	na
166648	10	noff	36	0	9	na
166648	0	noff	42	0	9	na
166878	230	non	36	100	9	na
166888	10	noff	36	0	9	na
167118	230	non	42	74	9	na
167128	10	noff	42	0	9	na
167238	110	non	42	74	9	na
167248	10	noff	42	0	9	na
167358	110	non	38	100	9	na
167368	10	noff	38	0	9	na
167598	230	non	42	74	9	na
167608	10	noff	42	0	9	na
167838	230	non	36	100	9	na
167848	10	noff	36	0	9	na
168078	230	non	42	74	9	na
168088	10	noff	42	0	9	na
168198	110	non	36	100	9	na
168208	10	noff	36	0	9	na
168318	110	non	38	100	9	na
168328	10	noff	38	0	9	na
168558	230	non	36	100	9	na
168558	0	non	42	74	9	na
168568	10	noff	36	0	9	na
168568	0	noff	42	0	9	na
168798	230	non	36	100	9	na
168808	10	noff	36	0	9	na
169038	230	non	38	100	9	na
169038	0	non	42	74	9	na
169048	10	noff	38	0	9	na
169048	0	noff	42	0	9	na
169158	110	non	42	74	9	na
169168	10	noff	42	0	9	na
169278	110	non	36	100	9	na
169288	10	noff	36	0	9	na
169398	110	non	36	100	9	na
169408	10	noff	36	0	9	na
169518	110	non	38	100	9	na
169518	0	non	42	74	9	na
169528	10	noff	38	0	9	na
169528	0	noff	42	0	9	na
169638	110	non	36	100	9	na
169648	10	noff	36	0	9	na
169758	110	non	36	100	9	na
169768	10	noff	36	0	9	na
169998	230	non	42	74	9	na
170008	10	noff	42	0	9	na
170118	110	non	36	100	9	na
170128	10	noff	36	0	9	na
170238	110	non	38	100	9	na
170248	10	noff	38	0	9	na
170358	110	non	36	100	9	na
170368	10	noff	36	0	9	na
170478	110	non	36	100	9	na
170478	0	non	42	74	9	na
170488	10	noff	36	0	9	na
170488	0	noff	42	0	9	na
170718	230	non	36	100	9	na
170728	10	noff	36	0	9	na
170838	110	non	42	74	9	na
170848	10	noff	42	0	9	na
170958	110	non	42	74	9	na
170968	10	noff	42	0	9	na
171078	110	non	42	74	9	na
171088	10	noff	42	0	9	na
171198	110	non	38	100	9	na
171208	10	noff	38	0	9	na
171318	110	non	42	74	9	na
171318	0	non	40	74	9	na
171328	10	noff	42	0	9	na
171328	0	noff	40	0	9	na
171438	110	non	36	100	9	na
171448	10	noff	36	0	9	na
171558	110	non	42	74	9	na
171558	0	non	40	74	9	na
171568	10	noff	42	0	9	na
171568	0	noff	40	0	9	na
171678	110	non	36	100	9	na
171678	0	non	42	62	9	na
171688	10	noff	36	0	9	na
171688	0	noff	42	0	9	na
172638	950	non	36	74	9	na
172638	0	non	42	64	9	na
172638	0	non	38	74	9	na
172648	10	noff	36	0	9	na
172648	0	noff	42	0	9	na
172648	0	noff	38	0	9	na
173598	950	non	36	74	9	na
173598	0	non	42	60	9	na
173598	0	non	38	74	9	na
173608	10	noff	36	0	9	na
173608	0	noff	42	0	9	na
173608	0	noff	38	0	9	na
173838	230	non	42	57	9	na
173848	10	noff	42	0	9	na
174078	230	non	42	54	9	na
174088	10	noff	42	0	9	na
174198	110	non	42	74	9	na
174208	10	noff	42	0	9	na
174318	110	non	42	54	9	na
174328	10	noff	42	0	9	na
174438	110	non	36	74	9	na
174438	0	non	42	46	9	na
174448	10	noff	36	0	9	na
174448	0	noff	42	0	9	na
174498	50	non	42	56	9	na
174508	10	noff	42	0	9	na
174558	50	non	36	74	9	na
174558	0	non	42	74	9	na
174568	10	noff	36	0	9	na
174568	0	noff	42	0	9	na
174918	350	non	42	74	9	na
174928	10	noff	42	0	9	na
175038	110	non	36	74	9	na
175038	0	non	42	53	9	na
175038	0	non	38	74	9	na
175048	10	noff	36	0	9	na
175048	0	noff	42	0	9	na
175048	0	noff	38	0	9	na
175278	230	non	46	74	9	na
175288	10	noff	46	0	9	na
175398	110	non	44	74	9	na
175408	10	noff	44	0	9	na
175518	110	non	36	74	9	na
175518	0	non	38	74	9	na
175518	0	non	42	74	9	na
175528	10	noff	36	0	9	na
175528	0	noff	38	0	9	na
175528	0	noff	42	0	9	na
175998	470	non	36	74	9	na
176008	10	noff	36	0	9	na
176478	470	non	36	74	9	na
176478	0	non	38	74	9	na
176478	0	non	42	74	9	na
176488	10	noff	36	0	9	na
176488	0	noff	38	0	9	na
176488	0	noff	42	0	9	na
177198	710	non	36	74	9	na
177208	10	noff	36	0	9	na
177318	110	non	42	74	9	na
177328	10	noff	42	0	9	na
177438	110	non	36	74	9	na
177438	0	non	38	74	9	na
177438	0	non	42	61	9	na
177448	10	noff	36	0	9	na
177448	0	noff	38	0	9	na
177448	0	noff	42	0	9	na
177558	110	non	42	48	9	na
177568	10	noff	42	0	9	na
177618	50	non	42	52	9	na
177628	10	noff	42	0	9	na
177678	50	non	42	56	9	na
177688	10	noff	42	0	9	na
177798	110	non	42	74	9	na
177808	10	noff	42	0	9	na
177918	110	non	42	49	9	na
177928	10	noff	42	0	9	na
178158	230	non	38	74	9	na
178158	0	non	46	74	9	na
178168	10	noff	38	0	9	na
178168	0	noff	46	0	9	na
178278	110	non	36	74	9	na
178278	0	non	44	74	9	na
178288	10	noff	36	0	9	na
178288	0	noff	44	0	9	na
178398	110	non	36	74	9	na
178398	0	non	42	74	9	na
178408	10	noff	36	0	9	na
178408	0	noff	42	0	9	na
178518	110	non	42	51	9	na
178528	10	noff	42	0	9	na
178638	110	non	38	74	9	na
178638	0	non	42	58	9	na
178648	10	noff	38	0	9	na
178648	0	noff	42	0	9	na
178878	230	non	36	74	9	na
178878	0	non	38	74	9	na
178878	0	non	42	74	9	na
178888	10	noff	36	0	9	na
178888	0	noff	38	0	9	na
178888	0	noff	42	0	9	na
178998	110	non	40	74	9	na
178998	0	non	42	54	9	na
179008	10	noff	40	0	9	na
179008	0	noff	42	0	9	na
179118	110	non	36	74	9	na
179118	0	non	46	74	9	na
179128	10	noff	36	0	9	na
179128	0	noff	46	0	9	na
179238	110	non	38	74	9	na
179248	10	noff	38	0	9	na
179358	110	non	36	74	9	na
179358	0	non	42	74	9	na
179368	10	noff	36	0	9	na
179368	0	noff	42	0	9	na
179478	110	non	36	57	9	na
179478	0	non	42	47	9	na
179488	10	noff	36	0	9	na
179488	0	noff	42	0	9	na
179598	110	non	42	57	9	na
179608	10	noff	42	0	9	na
179718	110	non	36	55	9	na
179718	0	non	42	55	9	na
179728	10	noff	36	0	9	na
179728	0	noff	42	0	9	na
179838	110	non	36	59	9	na
179838	0	non	42	48	9	na
179848	10	noff	36	0	9	na
179848	0	noff	42	0	9	na
179898	50	non	42	53	9	na
179908	10	noff	42	0	9	na
179958	50	non	42	63	9	na
179968	10	noff	42	0	9	na
180078	110	non	42	58	9	na
180078	0	non	38	74	9	na
180088	10	noff	42	0	9	na
180088	0	noff	38	0	9	na
180198	110	non	42	43	9	na
180208	10	noff	42	0	9	na
180318	110	non	36	74	9	na
180318	0	non	42	57	9	na
180328	10	noff	36	0	9	na
180328	0	noff	42	0	9	na
180438	110	non	36	55	9	na
180438	0	non	42	48	9	na
180448	10	noff	36	0	9	na
180448	0	noff	42	0	9	na
180558	110	non	42	57	9	na
180568	10	noff	42	0	9	na
180678	110	non	36	57	9	na
180678	0	non	42	47	9	na
180688	10	noff	36	0	9	na
180688	0	noff	42	0	9	na
180798	110	non	36	63	9	na
180798	0	non	42	48	9	na
180808	10	noff	36	0	9	na
180808	0	noff	42	0	9	na
180858	50	non	42	55	9	na
180868	10	noff	42	0	9	na
180918	50	non	42	58	9	na
180928	10	noff	42	0	9	na
181038	110	non	42	48	9	na
181038	0	non	38	74	9	na
181048	10	noff	42	0	9	na
181048	0	noff	38	0	9	na
181158	110	non	42	46	9	na
181168	10	noff	42	0	9	na
181278	110	non	36	74	9	na
181278	0	non	42	63	9	na
181278	0	non	38	74	9	na
181288	10	noff	36	0	9	na
181288	0	noff	42	0	9	na
181288	0	noff	38	0	9	na
181398	110	non	36	57	9	na
181398	0	non	42	47	9	na
181408	10	noff	36	0	9	na
181408	0	noff	42	0	9	na
181518	110	non	42	57	9	na
181528	10	noff	42	0	9	na
181638	110	non	36	58	9	na
181638	0	non	42	55	9	na
181648	10	noff	36	0	9	na
181648	0	noff	42	0	9	na
181758	110	non	36	61	9	na
181758	0	non	42	48	9	na
181768	10	noff	36	0	9	na
181768	0	noff	42	0	9	na
181818	50	non	42	53	9	na
181828	10	noff	42	0	9	na
181878	50	non	42	63	9	na
181888	10	noff	42	0	9	na
181998	110	non	42	58	9	na
181998	0	non	38	74	9	na
182008	10	noff	42	0	9	na
182008	0	noff	38	0	9	na
182118	110	non	36	59	9	na
182118	0	non	42	43	9	na
182128	10	noff	36	0	9	na
182128	0	noff	42	0	9	na
182238	110	non	36	74	9	na
182238	0	non	42	57	9	na
182248	10	noff	36	0	9	na
182248	0	noff	42	0	9	na
182358	110	non	42	48	9	na
182368	10	noff	42	0	9	na
182478	110	non	42	57	9	na
182488	10	noff	42	0	9	na
182598	110	non	36	57	9	na
182598	0	non	42	47	9	na
182608	10	noff	36	0	9	na
182608	0	noff	42	0	9	na
182718	110	non	36	74	9	na
182718	0	non	42	48	9	na
182728	10	noff	36	0	9	na
182728	0	noff	42	0	9	na
182778	50	non	42	55	9	na
182788	10	noff	42	0	9	na
182838	50	non	42	58	9	na
182838	0	non	38	74	9	na
182838	0	non	40	74	9	na
182848	10	noff	42	0	9	na
182848	0	noff	38	0	9	na
182848	0	noff	40	0	9	na
182958	110	non	36	74	9	na
182958	0	non	46	74	9	na
182968	10	noff	36	0	9	na
182968	0	noff	46	0	9	na
183078	110	non	42	46	9	na
183078	0	non	38	74	9	na
183078	0	non	40	74	9	na
183088	10	noff	42	0	9	na
183088	0	noff	38	0	9	na
183088	0	noff	40	0	9	na
183198	110	non	36	74	9	na
183198	0	non	42	46	9	na
183208	10	noff	36	0	9	na
183208	0	noff	42	0	9	na
183318	110	non	42	46	9	na
183328	10	noff	42	0	9	na
183438	110	non	42	46	9	na
183448	10	noff	42	0	9	na
183498	50	non	42	46	9	na
183508	10	noff	42	0	9	na
183558	50	non	42	46	9	na
183568	10	noff	42	0	9	na
183678	110	non	42	46	9	na
183678	0	non	37	74	9	na
183678	0	non	40	74	9	na
183688	10	noff	42	0	9	na
183688	0	noff	37	0	9	na
183688	0	noff	40	0	9	na
183918	230	non	36	74	9	na
183918	0	non	42	46	9	na
183928	10	noff	36	0	9	na
183928	0	noff	42	0	9	na
184038	110	non	36	74	9	na
184038	0	non	42	46	9	na
184048	10	noff	36	0	9	na
184048	0	noff	42	0	9	na
184098	50	non	42	46	9	na
184108	10	noff	42	0	9	na
184158	50	non	36	74	9	na
184158	0	non	42	46	9	na
184168	10	noff	36	0	9	na
184168	0	noff	42	0	9	na
184398	230	non	46	74	9	na
184408	10	noff	46	0	9	na
184518	110	non	44	74	9	na
184528	10	noff	44	0	9	na
184638	110	non	42	46	9	na
184638	0	non	38	74	9	na
184638	0	non	40	74	9	na
184648	10	noff	42	0	9	na
184648	0	noff	38	0	9	na
184648	0	noff	40	0	9	na
184758	110	non	42	74	9	na
184768	10	noff	42	0	9	na
184878	110	non	36	74	9	na
184878	0	non	46	74	9	na
184888	10	noff	36	0	9	na
184888	0	noff	46	0	9	na
184998	110	non	36	74	9	na
185008	10	noff	36	0	9	na
185118	110	non	36	74	9	na
185118	0	non	38	74	9	na
185118	0	non	40	74	9	na
185128	10	noff	36	0	9	na
185128	0	noff	38	0	9	na
185128	0	noff	40	0	9	na
185238	110	non	42	74	9	na
185248	10	noff	42	0	9	na
185358	110	non	42	74	9	na
185358	0	non	48	74	9	na
185368	10	noff	42	0	9	na
185368	0	noff	48	0	9	na
185598	230	non	36	74	9	na
185598	0	non	40	35	9	na
185598	0	non	42	74	9	na
185608	10	noff	36	0	9	na
185608	0	noff	40	0	9	na
185608	0	noff	42	0	9	na
185658	50	non	40	42	9	na
185668	10	noff	40	0	9	na
185718	50	non	40	56	9	na
185728	10	noff	40	0	9	na
185778	50	non	40	63	9	na
185788	10	noff	40	0	9	na
185838	50	non	38	74	9	na
185838	0	non	40	70	9	na
185838	0	non	42	74	9	na
185838	0	non	47	74	9	na
185848	10	noff	38	0	9	na
185848	0	noff	40	0	9	na
185848	0	noff	42	0	9	na
185848	0	noff	47	0	9	na
185958	110	non	42	74	9	na
185958	0	non	45	74	9	na
185968	10	noff	42	0	9	na
185968	0	noff	45	0	9	na
186078	110	non	36	74	9	na
186078	0	non	40	53	9	na
186078	0	non	42	74	9	na
186088	10	noff	36	0	9	na
186088	0	noff	40	0	9	na
186088	0	noff	42	0	9	na
186198	110	non	38	74	9	na
186198	0	non	40	74	9	na
186208	10	noff	38	0	9	na
186208	0	noff	40	0	9	na
186318	110	non	46	74	9	na
186318	0	non	43	74	9	na
186328	10	noff	46	0	9	na
186328	0	noff	43	0	9	na
186438	110	non	38	74	9	na
186448	10	noff	38	0	9	na
186558	110	non	36	74	9	na
186558	0	non	38	74	9	na
186558	0	non	40	35	9	na
186558	0	non	44	74	9	na
186558	0	non	41	74	9	na
186568	10	noff	36	0	9	na
186568	0	noff	38	0	9	na
186568	0	noff	40	0	9	na
186568	0	noff	44	0	9	na
186568	0	noff	41	0	9	na
186618	50	non	40	41	9	na
186628	10	noff	40	0	9	na
186678	50	non	40	46	9	na
186678	0	non	46	74	9	na
186678	0	non	41	74	9	na
186688	10	noff	40	0	9	na
186688	0	noff	46	0	9	na
186688	0	noff	41	0	9	na
186738	50	non	40	52	9	na
186748	10	noff	40	0	9	na
186798	50	non	36	74	9	na
186798	0	non	38	74	9	na
186798	0	non	40	63	9	na
186798	0	non	41	74	9	na
186808	10	noff	36	0	9	na
186808	0	noff	38	0	9	na
186808	0	noff	40	0	9	na
186808	0	noff	41	0	9	na
186858	50	non	40	68	9	na
186868	10	noff	40	0	9	na
186918	50	non	36	74	9	na
186918	0	non	38	74	9	na
186918	0	non	40	74	9	na
186928	10	noff	36	0	9	na
186928	0	noff	38	0	9	na
186928	0	noff	40	0	9	na
187038	110	non	36	74	9	na
187038	0	non	42	74	9	na
187048	10	noff	36	0	9	na
187048	0	noff	42	0	9	na
187278	230	non	42	74	9	na
187288	10	noff	42	0	9	na
187398	110	non	36	74	9	na
187408	10	noff	36	0	9	na
187518	110	non	38	74	9	na
187518	0	non	42	74	9	na
187528	10	noff	38	0	9	na
187528	0	noff	42	0	9	na
187638	110	non	36	74	9	na
187638	0	non	42	74	9	na
187648	10	noff	36	0	9	na
187648	0	noff	42	0	9	na
187758	110	non	38	74	9	na
187758	0	non	46	74	9	na
187768	10	noff	38	0	9	na
187768	0	noff	46	0	9	na
187878	110	non	44	74	9	na
187888	10	noff	44	0	9	na
187998	110	non	36	74	9	na
187998	0	non	42	74	9	na
188008	10	noff	36	0	9	na
188008	0	noff	42	0	9	na
188238	230	non	42	74	9	na
188248	10	noff	42	0	9	na
188358	110	non	36	74	9	na
188368	10	noff	36	0	9	na
188478	110	non	38	74	9	na
188478	0	non	42	74	9	na
188488	10	noff	38	0	9	na
188488	0	noff	42	0	9	na
188598	110	non	36	74	9	na
188598	0	non	42	74	9	na
188608	10	noff	36	0	9	na
188608	0	noff	42	0	9	na
188718	110	non	38	74	9	na
188718	0	non	46	74	9	na
188728	10	noff	38	0	9	na
188728	0	noff	46	0	9	na
188838	110	non	36	74	9	na
188838	0	non	44	74	9	na
188848	10	noff	36	0	9	na
188848	0	noff	44	0	9	na
188958	110	non	36	74	9	na
188958	0	non	42	74	9	na
188968	10	noff	36	0	9	na
188968	0	noff	42	0	9	na
189198	230	non	42	74	9	na
189208	10	noff	42	0	9	na
189318	110	non	36	74	9	na
189328	10	noff	36	0	9	na
189438	110	non	38	74	9	na
189438	0	non	42	74	9	na
189448	10	noff	38	0	9	na
189448	0	noff	42	0	9	na
189558	110	non	42	74	9	na
189568	10	noff	42	0	9	na
189678	110	non	46	74	9	na
189688	10	noff	46	0	9	na
189798	110	non	36	74	9	na
189798	0	non	38	74	9	na
189798	0	non	44	74	9	na
189808	10	noff	36	0	9	na
189808	0	noff	38	0	9	na
189808	0	noff	44	0	9	na
189918	110	non	36	74	9	na
189918	0	non	42	74	9	na
189928	10	noff	36	0	9	na
189928	0	noff	42	0	9	na
190158	230	non	42	74	9	na
190168	10	noff	42	0	9	na
190278	110	non	42	74	9	na
190288	10	noff	42	0	9	na
190398	110	non	38	74	9	na
190398	0	non	46	74	9	na
190408	10	noff	38	0	9	na
190408	0	noff	46	0	9	na
190518	110	non	36	74	9	na
190528	10	noff	36	0	9	na
190638	110	non	38	74	9	na
190638	0	non	44	74	9	na
190648	10	noff	38	0	9	na
190648	0	noff	44	0	9	na
190758	110	non	36	74	9	na
190768	10	noff	36	0	9	na
190878	110	non	36	74	9	na
190878	0	non	42	74	9	na
190888	10	noff	36	0	9	na
190888	0	noff	42	0	9	na
191118	230	non	42	74	9	na
191128	10	noff	42	0	9	na
191238	110	non	36	74	9	na
191248	10	noff	36	0	9	na
191358	110	non	38	74	9	na
191358	0	non	42	74	9	na
191368	10	noff	38	0	9	na
191368	0	noff	42	0	9	na
191478	110	non	36	74	9	na
191478	0	non	42	74	9	na
191488	10	noff	36	0	9	na
191488	0	noff	42	0	9	na
191598	110	non	38	74	9	na
191598	0	non	46	74	9	na
191608	10	noff	38	0	9	na
191608	0	noff	46	0	9	na
191718	110	non	44	74	9	na
191728	10	noff	44	0	9	na
191838	110	non	36	74	9	na
191838	0	non	42	74	9	na
191848	10	noff	36	0	9	na
191848	0	noff	42	0	9	na
192078	230	non	42	74	9	na
192088	10	noff	42	0	9	na
192198	110	non	36	74	9	na
192208	10	noff	36	0	9	na
192318	110	non	38	74	9	na
192318	0	non	42	74	9	na
192328	10	noff	38	0	9	na
192328	0	noff	42	0	9	na
192438	110	non	36	74	9	na
192438	0	non	42	74	9	na
192448	10	noff	36	0	9	na
192448	0	noff	42	0	9	na
192558	110	non	38	74	9	na
192558	0	non	46	74	9	na
192568	10	noff	38	0	9	na
192568	0	noff	46	0	9	na
192678	110	non	36	74	9	na
192678	0	non	44	74	9	na
192688	10	noff	36	0	9	na
192688	0	noff	44	0	9	na
192798	110	non	36	74	9	na
192798	0	non	42	74	9	na
192808	10	noff	36	0	9	na
192808	0	noff	42	0	9	na
193038	230	non	42	74	9	na
193048	10	noff	42	0	9	na
193158	110	non	36	74	9	na
193168	10	noff	36	0	9	na
193278	110	non	38	74	9	na
193278	0	non	42	74	9	na
193288	10	noff	38	0	9	na
193288	0	noff	42	0	9	na
193398	110	non	42	74	9	na
193408	10	noff	42	0	9	na
193518	110	non	46	74	9	na
193518	0	non	38	74	9	na
193528	10	noff	46	0	9	na
193528	0	noff	38	0	9	na
193638	110	non	36	74	9	na
193638	0	non	44	74	9	na
193648	10	noff	36	0	9	na
193648	0	noff	44	0	9	na
193758	110	non	36	74	9	na
193758	0	non	42	74	9	na
193768	10	noff	36	0	9	na
193768	0	noff	42	0	9	na
193998	230	non	42	74	9	na
194008	10	noff	42	0	9	na
194118	110	non	42	74	9	na
194128	10	noff	42	0	9	na
194238	110	non	38	74	9	na
194238	0	non	46	74	9	na
194248	10	noff	38	0	9	na
194248	0	noff	46	0	9	na
194358	110	non	36	74	9	na
194358	0	non	38	74	9	na
194368	10	noff	36	0	9	na
194368	0	noff	38	0	9	na
194478	110	non	38	74	9	na
194478	0	non	44	74	9	na
194488	10	noff	38	0	9	na
194488	0	noff	44	0	9	na
194598	110	non	36	74	9	na
194608	10	noff	36	0	9	na
194718	110	non	36	74	9	na
194718	0	non	42	74	9	na
194728	10	noff	36	0	9	na
194728	0	noff	42	0	9	na
194958	230	non	42	74	9	na
194968	10	noff	42	0	9	na
195078	110	non	36	74	9	na
195088	10	noff	36	0	9	na
195198	110	non	38	74	9	na
195198	0	non	42	74	9	na
195208	10	noff	38	0	9	na
195208	0	noff	42	0	9	na
195318	110	non	36	74	9	na
195318	0	non	42	74	9	na
195328	10	noff	36	0	9	na
195328	0	noff	42	0	9	na
195438	110	non	38	74	9	na
195438	0	non	46	74	9	na
195448	10	noff	38	0	9	na
195448	0	noff	46	0	9	na
195558	110	non	44	74	9	na
195568	10	noff	44	0	9	na
195678	110	non	36	74	9	na
195678	0	non	42	74	9	na
195688	10	noff	36	0	9	na
195688	0	noff	42	0	9	na
195918	230	non	42	74	9	na
195928	10	noff	42	0	9	na
196038	110	non	36	74	9	na
196048	10	noff	36	0	9	na
196158	110	non	38	74	9	na
196158	0	non	42	74	9	na
196168	10	noff	38	0	9	na
196168	0	noff	42	0	9	na
196278	110	non	36	74	9	na
196278	0	non	42	74	9	na
196288	10	noff	36	0	9	na
196288	0	noff	42	0	9	na
196398	110	non	38	74	9	na
196398	0	non	46	74	9	na
196408	10	noff	38	0	9	na
196408	0	noff	46	0	9	na
196518	110	non	36	74	9	na
196518	0	non	44	74	9	na
196528	10	noff	36	0	9	na
196528	0	noff	44	0	9	na
196638	110	non	36	74	9	na
196638	0	non	42	74	9	na
196648	10	noff	36	0	9	na
196648	0	noff	42	0	9	na
196878	230	non	42	74	9	na
196888	10	noff	42	0	9	na
196998	110	non	36	74	9	na
197008	10	noff	36	0	9	na
197118	110	non	38	74	9	na
197118	0	non	42	74	9	na
197128	10	noff	38	0	9	na
197128	0	noff	42	0	9	na
197238	110	non	42	74	9	na
197248	10	noff	42	0	9	na
197358	110	non	46	74	9	na
197358	0	non	38	74	9	na
197368	10	noff	46	0	9	na
197368	0	noff	38	0	9	na
197478	110	non	36	74	9	na
197478	0	non	44	74	9	na
197488	10	noff	36	0	9	na
197488	0	noff	44	0	9	na
197598	110	non	36	74	9	na
197598	0	non	42	74	9	na
197608	10	noff	36	0	9	na
197608	0	noff	42	0	9	na
197838	230	non	42	74	9	na
197848	10	noff	42	0	9	na
197958	110	non	42	74	9	na
197968	10	noff	42	0	9	na
198078	110	non	38	74	9	na
198078	0	non	46	74	9	na
198088	10	noff	38	0	9	na
198088	0	noff	46	0	9	na
198198	110	non	36	74	9	na
198208	10	noff	36	0	9	na
198318	110	non	38	74	9	na
198318	0	non	44	74	9	na
198328	10	noff	38	0	9	na
198328	0	noff	44	0	9	na
198438	110	non	36	74	9	na
198448	10	noff	36	0	9	na
198558	110	non	36	74	9	na
198558	0	non	42	74	9	na
198568	10	noff	36	0	9	na
198568	0	noff	42	0	9	na
198798	230	non	42	74	9	na
198808	10	noff	42	0	9	na
198918	110	non	36	74	9	na
198928	10	noff	36	0	9	na
199038	110	non	38	74	9	na
199038	0	non	42	74	9	na
199048	10	noff	38	0	9	na
199048	0	noff	42	0	9	na
199158	110	non	36	74	9	na
199158	0	non	42	74	9	na
199168	10	noff	36	0	9	na
199168	0	noff	42	0	9	na
199278	110	non	38	74	9	na
199278	0	non	46	74	9	na
199288	10	noff	38	0	9	na
199288	0	noff	46	0	9	na
199398	110	non	44	74	9	na
199408	10	noff	44	0	9	na
199518	110	non	36	74	9	na
199518	0	non	42	74	9	na
199528	10	noff	36	0	9	na
199528	0	noff	42	0	9	na
199758	230	non	42	74	9	na
199768	10	noff	42	0	9	na
199878	110	non	36	74	9	na
199888	10	noff	36	0	9	na
199998	110	non	38	74	9	na
199998	0	non	42	74	9	na
200008	10	noff	38	0	9	na
200008	0	noff	42	0	9	na
200118	110	non	36	74	9	na
200118	0	non	42	74	9	na
200128	10	noff	36	0	9	na
200128	0	noff	42	0	9	na
200238	110	non	38	74	9	na
200238	0	non	46	74	9	na
200248	10	noff	38	0	9	na
200248	0	noff	46	0	9	na
200358	110	non	36	74	9	na
200358	0	non	44	74	9	na
200368	10	noff	36	0	9	na
200368	0	noff	44	0	9	na
200478	110	non	36	74	9	na
200478	0	non	42	74	9	na
200488	10	noff	36	0	9	na
200488	0	noff	42	0	9	na
200598	110	non	42	74	9	na
200608	10	noff	42	0	9	na
200718	110	non	46	74	9	na
200728	10	noff	46	0	9	na
200838	110	non	36	74	9	na
200848	10	noff	36	0	9	na
200958	110	non	38	74	9	na
200958	0	non	42	74	9	na
200968	10	noff	38	0	9	na
200968	0	noff	42	0	9	na
201078	110	non	42	74	9	na
201088	10	noff	42	0	9	na
201198	110	non	46	74	9	na
201198	0	non	38	74	9	na
201208	10	noff	46	0	9	na
201208	0	noff	38	0	9	na
201318	110	non	36	74	9	na
201318	0	non	44	74	9	na
201328	10	noff	36	0	9	na
201328	0	noff	44	0	9	na
201438	110	non	36	74	9	na
201438	0	non	42	74	9	na
201438	0	non	38	74	9	na
201448	10	noff	36	0	9	na
201448	0	noff	42	0	9	na
201448	0	noff	38	0	9	na
201678	230	non	42	74	9	na
201688	10	noff	42	0	9	na
201798	110	non	42	74	9	na
201808	10	noff	42	0	9	na
201918	110	non	38	74	9	na
201918	0	non	46	74	9	na
201928	10	noff	38	0	9	na
201928	0	noff	46	0	9	na
202038	110	non	36	74	9	na
202038	0	non	38	74	9	na
202048	10	noff	36	0	9	na
202048	0	noff	38	0	9	na
202158	110	non	38	74	9	na
202158	0	non	44	74	9	na
202168	10	noff	38	0	9	na
202168	0	noff	44	0	9	na
202278	110	non	36	74	9	na
202278	0	non	38	74	9	na
202288	10	noff	36	0	9	na
202288	0	noff	38	0	9	na
202398	110	non	36	74	9	na
202398	0	non	42	74	9	na
202408	10	noff	36	0	9	na
202408	0	noff	42	0	9	na
202638	230	non	42	74	9	na
202648	10	noff	42	0	9	na
202758	110	non	36	74	9	na
202768	10	noff	36	0	9	na
202878	110	non	38	74	9	na
202878	0	non	42	74	9	na
202878	0	non	54	74	9	na
202888	10	noff	38	0	9	na
202888	0	noff	42	0	9	na
202888	0	noff	54	0	9	na
202998	110	non	36	74	9	na
202998	0	non	42	74	9	na
203008	10	noff	36	0	9	na
203008	0	noff	42	0	9	na
203118	110	non	38	74	9	na
203118	0	non	46	74	9	na
203128	10	noff	38	0	9	na
203128	0	noff	46	0	9	na
203238	110	non	44	74	9	na
203248	10	noff	44	0	9	na
203358	110	non	36	74	9	na
203358	0	non	42	74	9	na
203368	10	noff	36	0	9	na
203368	0	noff	42	0	9	na
203598	230	non	42	74	9	na
203608	10	noff	42	0	9	na
203718	110	non	36	74	9	na
203728	10	noff	36	0	9	na
203838	110	non	38	74	9	na
203838	0	non	42	74	9	na
203838	0	non	54	74	9	na
203848	10	noff	38	0	9	na
203848	0	noff	42	0	9	na
203848	0	noff	54	0	9	na
203958	110	non	36	74	9	na
203958	0	non	42	74	9	na
203968	10	noff	36	0	9	na
203968	0	noff	42	0	9	na
204078	110	non	38	74	9	na
204078	0	non	46	74	9	na
204088	10	noff	38	0	9	na
204088	0	noff	46	0	9	na
204198	110	non	36	74	9	na
204198	0	non	44	74	9	na
204208	10	noff	36	0	9	na
204208	0	noff	44	0	9	na
204318	110	non	36	74	9	na
204318	0	non	42	74	9	na
204328	10	noff	36	0	9	na
204328	0	noff	42	0	9	na
204558	230	non	42	74	9	na
204568	10	noff	42	0	9	na
204678	110	non	36	74	9	na
204688	10	noff	36	0	9	na
204798	110	non	38	74	9	na
204798	0	non	42	74	9	na
204798	0	non	54	74	9	na
204808	10	noff	38	0	9	na
204808	0	noff	42	0	9	na
204808	0	noff	54	0	9	na
204918	110	non	42	74	9	na
204928	10	noff	42	0	9	na
205038	110	non	46	74	9	na
205048	10	noff	46	0	9	na
205158	110	non	36	74	9	na
205158	0	non	38	74	9	na
205158	0	non	44	74	9	na
205168	10	noff	36	0	9	na
205168	0	noff	38	0	9	na
205168	0	noff	44	0	9	na
205278	110	non	36	74	9	na
205278	0	non	42	74	9	na
205288	10	noff	36	0	9	na
205288	0	noff	42	0	9	na
205518	230	non	42	74	9	na
205528	10	noff	42	0	9	na
205638	110	non	42	74	9	na
205648	10	noff	42	0	9	na
205758	110	non	38	74	9	na
205758	0	non	46	74	9	na
205758	0	non	54	74	9	na
205768	10	noff	38	0	9	na
205768	0	noff	46	0	9	na
205768	0	noff	54	0	9	na
205878	110	non	36	74	9	na
205888	10	noff	36	0	9	na
205998	110	non	38	74	9	na
205998	0	non	44	74	9	na
206008	10	noff	38	0	9	na
206008	0	noff	44	0	9	na
206118	110	non	36	74	9	na
206128	10	noff	36	0	9	na
206238	110	non	36	74	9	na
206238	0	non	42	74	9	na
206248	10	noff	36	0	9	na
206248	0	noff	42	0	9	na
206478	230	non	42	74	9	na
206488	10	noff	42	0	9	na
206598	110	non	36	74	9	na
206608	10	noff	36	0	9	na
206718	110	non	38	74	9	na
206718	0	non	42	74	9	na
206718	0	non	54	74	9	na
206728	10	noff	38	0	9	na
206728	0	noff	42	0	9	na
206728	0	noff	54	0	9	na
206838	110	non	36	74	9	na
206838	0	non	42	74	9	na
206848	10	noff	36	0	9	na
206848	0	noff	42	0	9	na
206958	110	non	38	74	9	na
206958	0	non	46	74	9	na
206968	10	noff	38	0	9	na
206968	0	noff	46	0	9	na
207078	110	non	44	74	9	na
207088	10	noff	44	0	9	na
207198	110	non	36	74	9	na
207198	0	non	42	74	9	na
207208	10	noff	36	0	9	na
207208	0	noff	42	0	9	na
207438	230	non	42	74	9	na
207448	10	noff	42	0	9	na
207558	110	non	36	74	9	na
207568	10	noff	36	0	9	na
207678	110	non	38	74	9	na
207678	0	non	42	74	9	na
207678	0	non	54	74	9	na
207688	10	noff	38	0	9	na
207688	0	noff	42	0	9	na
207688	0	noff	54	0	9	na
207798	110	non	36	74	9	na
207798	0	non	42	74	9	na
207808	10	noff	36	0	9	na
207808	0	noff	42	0	9	na
207918	110	non	38	74	9	na
207918	0	non	46	74	9	na
207928	10	noff	38	0	9	na
207928	0	noff	46	0	9	na
208038	110	non	36	74	9	na
208038	0	non	44	74	9	na
208048	10	noff	36	0	9	na
208048	0	noff	44	0	9	na
208158	110	non	36	74	9	na
208158	0	non	42	74	9	na
208168	10	noff	36	0	9	na
208168	0	noff	42	0	9	na
208398	230	non	42	74	9	na
208408	10	noff	42	0	9	na
208518	110	non	36	74	9	na
208528	10	noff	36	0	9	na
208638	110	non	38	74	9	na
208638	0	non	42	74	9	na
208638	0	non	54	74	9	na
208648	10	noff	38	0	9	na
208648	0	noff	42	0	9	na
208648	0	noff	54	0	9	na
208758	110	non	42	74	9	na
208768	10	noff	42	0	9	na
208878	110	non	46	74	9	na
208878	0	non	38	74	9	na
208888	10	noff	46	0	9	na
208888	0	noff	38	0	9	na
208998	110	non	36	74	9	na
208998	0	non	44	74	9	na
209008	10	noff	36	0	9	na
209008	0	noff	44	0	9	na
209118	110	non	36	74	9	na
209118	0	non	42	74	9	na
209128	10	noff	36	0	9	na
209128	0	noff	42	0	9	na
209358	230	non	42	74	9	na
209368	10	noff	42	0	9	na
209478	110	non	42	74	9	na
209488	10	noff	42	0	9	na
209598	110	non	38	74	9	na
209598	0	non	46	74	9	na
209598	0	non	54	74	9	na
209608	10	noff	38	0	9	na
209608	0	noff	46	0	9	na
209608	0	noff	54	0	9	na
209718	110	non	36	74	9	na
209718	0	non	38	74	9	na
209728	10	noff	36	0	9	na
209728	0	noff	38	0	9	na
209838	110	non	38	74	9	na
209838	0	non	44	74	9	na
209848	10	noff	38	0	9	na
209848	0	noff	44	0	9	na
209958	110	non	36	74	9	na
209968	10	noff	36	0	9	na
210078	110	non	36	74	9	na
210078	0	non	42	74	9	na
210088	10	noff	36	0	9	na
210088	0	noff	42	0	9	na
210318	230	non	42	74	9	na
210328	10	noff	42	0	9	na
210438	110	non	36	74	9	na
210448	10	noff	36	0	9	na
210558	110	non	38	74	9	na
210558	0	non	42	74	9	na
210558	0	non	54	74	9	na
210568	10	noff	38	0	9	na
210568	0	noff	42	0	9	na
210568	0	noff	54	0	9	na
210678	110	non	36	74	9	na
210678	0	non	42	74	9	na
210688	10	noff	36	0	9	na
210688	0	noff	42	0	9	na
210798	110	non	38	74	9	na
210798	0	non	46	74	9	na
210808	10	noff	38	0	9	na
210808	0	noff	46	0	9	na
210918	110	non	44	74	9	na
210928	10	noff	44	0	9	na
211038	110	non	36	74	9	na
211038	0	non	42	74	9	na
211048	10	noff	36	0	9	na
211048	0	noff	42	0	9	na
211278	230	non	42	74	9	na
211288	10	noff	42	0	9	na
211398	110	non	36	74	9	na
211408	10	noff	36	0	9	na
211518	110	non	38	74	9	na
211518	0	non	42	74	9	na
211518	0	non	54	74	9	na
211528	10	noff	38	0	9	na
211528	0	noff	42	0	9	na
211528	0	noff	54	0	9	na
211638	110	non	36	74	9	na
211638	0	non	42	74	9	na
211648	10	noff	36	0	9	na
211648	0	noff	42	0	9	na
211758	110	non	38	74	9	na
211758	0	non	46	74	9	na
211768	10	noff	38	0	9	na
211768	0	noff	46	0	9	na
211878	110	non	36	74	9	na
211878	0	non	44	74	9	na
211888	10	noff	36	0	9	na
211888	0	noff	44	0	9	na
211998	110	non	36	74	9	na
211998	0	non	42	74	9	na
212008	10	noff	36	0	9	na
212008	0	noff	42	0	9	na
212238	230	non	42	74	9	na
212248	10	noff	42	0	9	na
212358	110	non	36	74	9	na
212368	10	noff	36	0	9	na
212478	110	non	38	74	9	na
212478	0	non	42	74	9	na
212478	0	non	54	74	9	na
212488	10	noff	38	0	9	na
212488	0	noff	42	0	9	na
212488	0	noff	54	0	9	na
212598	110	non	42	74	9	na
212608	10	noff	42	0	9	na
212718	110	non	46	74	9	na
212718	0	non	38	74	9	na
212728	10	noff	46	0	9	na
212728	0	noff	38	0	9	na
212838	110	non	36	74	9	na
212838	0	non	44	74	9	na
212848	10	noff	36	0	9	na
212848	0	noff	44	0	9	na
212958	110	non	36	74	9	na
212958	0	non	42	74	9	na
212968	10	noff	36	0	9	na
212968	0	noff	42	0	9	na
213198	230	non	42	74	9	na
213208	10	noff	42	0	9	na
213318	110	non	42	74	9	na
213328	10	noff	42	0	9	na
213438	110	non	38	74	9	na
213438	0	non	46	74	9	na
213438	0	non	54	74	9	na
213448	10	noff	38	0	9	na
213448	0	noff	46	0	9	na
213448	0	noff	54	0	9	na
213558	110	non	36	74	9	na
213568	10	noff	36	0	9	na
213678	110	non	38	74	9	na
213678	0	non	44	74	9	na
213688	10	noff	38	0	9	na
213688	0	noff	44	0	9	na
213798	110	non	36	74	9	na
213808	10	noff	36	0	9	na
213918	110	non	36	74	9	na
213918	0	non	42	74	9	na
213928	10	noff	36	0	9	na
213928	0	noff	42	0	9	na
214158	230	non	42	74	9	na
214168	10	noff	42	0	9	na
214278	110	non	36	74	9	na
214288	10	noff	36	0	9	na
214398	110	non	38	74	9	na
214398	0	non	42	74	9	na
214398	0	non	54	74	9	na
214408	10	noff	38	0	9	na
214408	0	noff	42	0	9	na
214408	0	noff	54	0	9	na
214518	110	non	36	74	9	na
214518	0	non	42	74	9	na
214528	10	noff	36	0	9	na
214528	0	noff	42	0	9	na
214638	110	non	38	74	9	na
214638	0	non	46	74	9	na
214648	10	noff	38	0	9	na
214648	0	noff	46	0	9	na
214758	110	non	44	74	9	na
214768	10	noff	44	0	9	na
214878	110	non	36	74	9	na
214878	0	non	42	74	9	na
214888	10	noff	36	0	9	na
214888	0	noff	42	0	9	na
215118	230	non	42	74	9	na
215128	10	noff	42	0	9	na
215238	110	non	36	74	9	na
215248	10	noff	36	0	9	na
215358	110	non	38	74	9	na
215358	0	non	42	74	9	na
215358	0	non	54	74	9	na
215368	10	noff	38	0	9	na
215368	0	noff	42	0	9	na
215368	0	noff	54	0	9	na
215478	110	non	36	74	9	na
215478	0	non	42	74	9	na
215488	10	noff	36	0	9	na
215488	0	noff	42	0	9	na
215598	110	non	38	74	9	na
215598	0	non	46	74	9	na
215608	10	noff	38	0	9	na
215608	0	noff	46	0	9	na
215718	110	non	36	74	9	na
215718	0	non	44	74	9	na
215728	10	noff	36	0	9	na
215728	0	noff	44	0	9	na
215838	110	non	36	74	9	na
215838	0	non	42	74	9	na
215848	10	noff	36	0	9	na
215848	0	noff	42	0	9	na
215958	110	non	42	74	9	na
215968	10	noff	42	0	9	na
216078	110	non	46	74	9	na
216088	10	noff	46	0	9	na
216198	110	non	36	74	9	na
216208	10	noff	36	0	9	na
216318	110	non	38	74	9	na
216318	0	non	42	74	9	na
216318	0	non	54	74	9	na
216328	10	noff	38	0	9	na
216328	0	noff	42	0	9	na
216328	0	noff	54	0	9	na
216438	110	non	42	74	9	na
216448	10	noff	42	0	9	na
216558	110	non	46	74	9	na
216558	0	non	38	74	9	na
216568	10	noff	46	0	9	na
216568	0	noff	38	0	9	na
216678	110	non	36	74	9	na
216678	0	non	44	74	9	na
216688	10	noff	36	0	9	na
216688	0	noff	44	0	9	na
216798	110	non	36	74	9	na
216798	0	non	42	74	9	na
216798	0	non	38	74	9	na
216798	0	non	47	74	9	na
216808	10	noff	36	0	9	na
216808	0	noff	42	0	9	na
216808	0	noff	38	0	9	na
216808	0	noff	47	0	9	na
217038	230	non	42	74	9	na
217048	10	noff	42	0	9	na
217158	110	non	42	74	9	na
217158	0	non	38	42	9	na
217158	0	non	45	74	9	na
217168	10	noff	42	0	9	na
217168	0	noff	38	0	9	na
217168	0	noff	45	0	9	na
217278	110	non	38	48	9	na
217278	0	non	46	74	9	na
217278	0	non	43	74	9	na
217278	0	non	54	74	9	na
217288	10	noff	38	0	9	na
217288	0	noff	46	0	9	na
217288	0	noff	43	0	9	na
217288	0	noff	54	0	9	na
217398	110	non	36	74	9	na
217398	0	non	38	57	9	na
217408	10	noff	36	0	9	na
217408	0	noff	38	0	9	na
217518	110	non	38	63	9	na
217518	0	non	44	74	9	na
217518	0	non	41	74	9	na
217528	10	noff	38	0	9	na
217528	0	noff	44	0	9	na
217528	0	noff	41	0	9	na
217638	110	non	36	74	9	na
217638	0	non	38	72	9	na
217638	0	non	41	74	9	na
217648	10	noff	36	0	9	na
217648	0	noff	38	0	9	na
217648	0	noff	41	0	9	na
cumTime	delTime	event	pitch	vel	chan	value
cumTime	delTime	event	pitch	vel	chan	value
2718	2718	non	42	100	10	na
2718	0	non	35	100	10	na
2728	10	noff	42	0	10	na
2728	0	noff	35	0	10	na
3198	470	non	42	100	10	na
3208	10	noff	42	0	10	na
3438	230	non	46	80	10	na
3448	10	noff	46	0	10	na
3678	230	non	42	100	10	na
3688	10	noff	42	0	10	na
4158	470	non	42	100	10	na
4168	10	noff	42	0	10	na
4398	230	non	46	80	10	na
4408	10	noff	46	0	10	na
4638	230	non	42	100	10	na
4638	0	non	35	100	10	na
4648	10	noff	42	0	10	na
4648	0	noff	35	0	10	na
5118	470	non	42	100	10	na
5128	10	noff	42	0	10	na
5358	230	non	46	80	10	na
5368	10	noff	46	0	10	na
5598	230	non	42	100	10	na
5608	10	noff	42	0	10	na
6318	710	non	46	80	10	na
6328	10	noff	46	0	10	na
6558	230	non	35	100	10	na
6558	0	non	42	100	10	na
6568	10	noff	35	0	10	na
6568	0	noff	42	0	10	na
7038	470	non	42	100	10	na
7048	10	noff	42	0	10	na
7278	230	non	46	80	10	na
7288	10	noff	46	0	10	na
7518	230	non	42	100	10	na
7528	10	noff	42	0	10	na
7998	470	non	42	100	10	na
8008	10	noff	42	0	10	na
8238	230	non	46	80	10	na
8248	10	noff	46	0	10	na
8478	230	non	42	100	10	na
8478	0	non	35	100	10	na
8488	10	noff	42	0	10	na
8488	0	noff	35	0	10	na
8718	230	non	46	80	10	na
8728	10	noff	46	0	10	na
8958	230	non	42	100	10	na
8958	0	non	39	100	10	na
8968	10	noff	42	0	10	na
8968	0	noff	39	0	10	na
9198	230	non	46	80	10	na
9208	10	noff	46	0	10	na
9438	230	non	42	100	10	na
9438	0	non	35	100	10	na
9448	10	noff	42	0	10	na
9448	0	noff	35	0	10	na
9678	230	non	42	100	10	na
9688	10	noff	42	0	10	na
9918	230	non	42	100	10	na
9918	0	non	35	100	10	na
9928	10	noff	42	0	10	na
9928	0	noff	35	0	10	na
10158	230	non	46	80	10	na
10168	10	noff	46	0	10	na
10398	230	non	35	100	10	na
10398	0	non	42	100	10	na
10408	10	noff	35	0	10	na
10408	0	noff	42	0	10	na
10878	470	non	42	100	10	na
10888	10	noff	42	0	10	na
11118	230	non	46	80	10	na
11128	10	noff	46	0	10	na
11358	230	non	42	100	10	na
11358	0	non	35	100	10	na
11368	10	noff	42	0	10	na
11368	0	noff	35	0	10	na
11838	470	non	42	100	10	na
11848	10	noff	42	0	10	na
12078	230	non	46	80	10	na
12088	10	noff	46	0	10	na
12318	230	non	35	100	10	na
12318	0	non	42	100	10	na
12328	10	noff	35	0	10	na
12328	0	noff	42	0	10	na
12798	470	non	42	100	10	na
12808	10	noff	42	0	10	na
13038	230	non	46	80	10	na
13048	10	noff	46	0	10	na
13278	230	non	42	100	10	na
13278	0	non	35	100	10	na
13288	10	noff	42	0	10	na
13288	0	noff	35	0	10	na
13758	470	non	42	100	10	na
13768	10	noff	42	0	10	na
13998	230	non	46	80	10	na
14008	10	noff	46	0	10	na
14238	230	non	42	100	10	na
14238	0	non	35	100	10	na
14248	10	noff	42	0	10	na
14248	0	noff	35	0	10	na
14718	470	non	42	100	10	na
14728	10	noff	42	0	10	na
14958	230	non	46	80	10	na
14968	10	noff	46	0	10	na
15198	230	non	42	100	10	na
15198	0	non	35	100	10	na
15208	10	noff	42	0	10	na
15208	0	noff	35	0	10	na
15678	470	non	42	100	10	na
15678	0	non	39	100	10	na
15688	10	noff	42	0	10	na
15688	0	noff	39	0	10	na
15918	230	non	46	80	10	na
15928	10	noff	46	0	10	na
16158	230	non	42	100	10	na
16158	0	non	35	100	10	na
16168	10	noff	42	0	10	na
16168	0	noff	35	0	10	na
16638	470	non	42	100	10	na
16638	0	non	35	100	10	na
16648	10	noff	42	0	10	na
16648	0	noff	35	0	10	na
16878	230	non	46	80	10	na
16888	10	noff	46	0	10	na
17118	230	non	42	100	10	na
17118	0	non	35	100	10	na
17128	10	noff	42	0	10	na
17128	0	noff	35	0	10	na
17358	230	non	40	100	10	na
17368	10	noff	40	0	10	na
17598	230	non	35	100	10	na
17598	0	non	42	100	10	na
17598	0	non	40	100	10	na
17608	10	noff	35	0	10	na
17608	0	noff	42	0	10	na
17608	0	noff	40	0	10	na
17838	230	non	46	80	10	na
17848	10	noff	46	0	10	na
18078	230	non	42	100	10	na
18078	0	non	35	100	10	na
18088	10	noff	42	0	10	na
18088	0	noff	35	0	10	na
18318	230	non	42	100	10	na
18318	0	non	34	45	10	na
18328	10	noff	42	0	10	na
18328	0	noff	34	0	10	na
18558	230	non	35	100	10	na
18558	0	non	42	100	10	na
18568	10	noff	35	0	10	na
18568	0	noff	42	0	10	na
18678	110	non	35	100	10	na
18688	10	noff	35	0	10	na
18798	110	non	42	100	10	na
18798	0	non	34	45	10	na
18808	10	noff	42	0	10	na
18808	0	noff	34	0	10	na
19038	230	non	35	100	10	na
19038	0	non	42	100	10	na
19048	10	noff	35	0	10	na
19048	0	noff	42	0	10	na
19278	230	non	42	100	10	na
19278	0	non	34	45	10	na
19288	10	noff	42	0	10	na
19288	0	noff	34	0	10	na
19518	230	non	35	100	10	na
19518	0	non	42	100	10	na
19528	10	noff	35	0	10	na
19528	0	noff	42	0	10	na
19758	230	non	46	80	10	na
19758	0	non	34	45	10	na
19768	10	noff	46	0	10	na
19768	0	noff	34	0	10	na
19878	110	non	35	100	10	na
19878	0	non	44	100	10	na
19888	10	noff	35	0	10	na
19888	0	noff	44	0	10	na
19998	110	non	35	100	10	na
19998	0	non	42	100	10	na
20008	10	noff	35	0	10	na
20008	0	noff	42	0	10	na
20238	230	non	42	100	10	na
20238	0	non	34	45	10	na
20248	10	noff	42	0	10	na
20248	0	noff	34	0	10	na
20358	110	non	35	100	10	na
20368	10	noff	35	0	10	na
20478	110	non	35	100	10	na
20478	0	non	42	100	10	na
20488	10	noff	35	0	10	na
20488	0	noff	42	0	10	na
20598	110	non	35	100	10	na
20608	10	noff	35	0	10	na
20718	110	non	46	80	10	na
20718	0	non	34	45	10	na
20728	10	noff	46	0	10	na
20728	0	noff	34	0	10	na
20958	230	non	35	100	10	na
20958	0	non	44	100	10	na
20968	10	noff	35	0	10	na
20968	0	noff	44	0	10	na
21078	110	non	35	100	10	na
21088	10	noff	35	0	10	na
21198	110	non	42	100	10	na
21198	0	non	34	45	10	na
21208	10	noff	42	0	10	na
21208	0	noff	34	0	10	na
21438	230	non	35	100	10	na
21438	0	non	42	100	10	na
21448	10	noff	35	0	10	na
21448	0	noff	42	0	10	na
21678	230	non	46	80	10	na
21678	0	non	34	45	10	na
21688	10	noff	46	0	10	na
21688	0	noff	34	0	10	na
21798	110	non	35	100	10	na
21808	10	noff	35	0	10	na
21918	110	non	35	100	10	na
21918	0	non	42	100	10	na
21928	10	noff	35	0	10	na
21928	0	noff	42	0	10	na
22158	230	non	42	100	10	na
22158	0	non	34	45	10	na
22168	10	noff	42	0	10	na
22168	0	noff	34	0	10	na
22398	230	non	35	100	10	na
22398	0	non	42	100	10	na
22408	10	noff	35	0	10	na
22408	0	noff	42	0	10	na
22518	110	non	35	100	10	na
22528	10	noff	35	0	10	na
22638	110	non	34	45	10	na
22648	10	noff	34	0	10	na
22878	230	non	35	100	10	na
22878	0	non	42	100	10	na
22888	10	noff	35	0	10	na
22888	0	noff	42	0	10	na
22998	110	non	42	100	10	na
23008	10	noff	42	0	10	na
23118	110	non	42	100	10	na
23118	0	non	34	45	10	na
23128	10	noff	42	0	10	na
23128	0	noff	34	0	10	na
23358	230	non	35	100	10	na
23358	0	non	46	80	10	na
23368	10	noff	35	0	10	na
23368	0	noff	46	0	10	na
23478	110	non	35	100	10	na
23488	10	noff	35	0	10	na
23598	110	non	44	100	10	na
23598	0	non	34	45	10	na
23608	10	noff	44	0	10	na
23608	0	noff	34	0	10	na
23718	110	non	35	100	10	na
23718	0	non	42	100	10	na
23728	10	noff	35	0	10	na
23728	0	noff	42	0	10	na
23838	110	non	35	100	10	na
23838	0	non	42	100	10	na
23848	10	noff	35	0	10	na
23848	0	noff	42	0	10	na
24078	230	non	46	80	10	na
24088	10	noff	46	0	10	na
24198	110	non	35	100	10	na
24198	0	non	44	100	10	na
24208	10	noff	35	0	10	na
24208	0	noff	44	0	10	na
24318	110	non	42	100	10	na
24318	0	non	34	45	10	na
24328	10	noff	42	0	10	na
24328	0	noff	34	0	10	na
24438	110	non	46	80	10	na
24448	10	noff	46	0	10	na
24558	110	non	44	100	10	na
24558	0	non	34	45	10	na
24568	10	noff	44	0	10	na
24568	0	noff	34	0	10	na
24678	110	non	35	100	10	na
24678	0	non	42	100	10	na
24678	0	non	34	45	10	na
24688	10	noff	35	0	10	na
24688	0	noff	42	0	10	na
24688	0	noff	34	0	10	na
24798	110	non	38	45	10	na
24798	0	non	35	100	10	na
24798	0	non	42	100	10	na
24798	0	non	34	45	10	na
24808	10	noff	38	0	10	na
24808	0	noff	35	0	10	na
24808	0	noff	42	0	10	na
24808	0	noff	34	0	10	na
25038	230	non	46	80	10	na
25038	0	non	34	45	10	na
25048	10	noff	46	0	10	na
25048	0	noff	34	0	10	na
25158	110	non	34	45	10	na
25168	10	noff	34	0	10	na
25278	110	non	35	100	10	na
25278	0	non	42	100	10	na
25278	0	non	34	45	10	na
25288	10	noff	35	0	10	na
25288	0	noff	42	0	10	na
25288	0	noff	34	0	10	na
25398	110	non	38	45	10	na
25398	0	non	34	45	10	na
25408	10	noff	38	0	10	na
25408	0	noff	34	0	10	na
25518	110	non	38	45	10	na
25518	0	non	46	80	10	na
25518	0	non	34	45	10	na
25528	10	noff	38	0	10	na
25528	0	noff	46	0	10	na
25528	0	noff	34	0	10	na
25638	110	non	34	45	10	na
25648	10	noff	34	0	10	na
25758	110	non	35	100	10	na
25758	0	non	42	100	10	na
25768	10	noff	35	0	10	na
25768	0	noff	42	0	10	na
25998	230	non	42	100	10	na
25998	0	non	34	45	10	na
26008	10	noff	42	0	10	na
26008	0	noff	34	0	10	na
26238	230	non	35	100	10	na
26238	0	non	42	100	10	na
26248	10	noff	35	0	10	na
26248	0	noff	42	0	10	na
26358	110	non	35	100	10	na
26368	10	noff	35	0	10	na
26478	110	non	34	45	10	na
26488	10	noff	34	0	10	na
26718	230	non	35	100	10	na
26718	0	non	42	100	10	na
26728	10	noff	35	0	10	na
26728	0	noff	42	0	10	na
26958	230	non	42	100	10	na
26958	0	non	34	45	10	na
26968	10	noff	42	0	10	na
26968	0	noff	34	0	10	na
27198	230	non	35	100	10	na
27198	0	non	42	100	10	na
27208	10	noff	35	0	10	na
27208	0	noff	42	0	10	na
27438	230	non	46	80	10	na
27438	0	non	34	45	10	na
27448	10	noff	46	0	10	na
27448	0	noff	34	0	10	na
27558	110	non	35	100	10	na
27568	10	noff	35	0	10	na
27678	110	non	35	100	10	na
27678	0	non	42	100	10	na
27688	10	noff	35	0	10	na
27688	0	noff	42	0	10	na
27918	230	non	38	45	10	na
27918	0	non	42	100	10	na
27918	0	non	34	45	10	na
27928	10	noff	38	0	10	na
27928	0	noff	42	0	10	na
27928	0	noff	34	0	10	na
28038	110	non	34	45	10	na
28048	10	noff	34	0	10	na
28158	110	non	42	100	10	na
28158	0	non	34	45	10	na
28168	10	noff	42	0	10	na
28168	0	noff	34	0	10	na
28278	110	non	34	45	10	na
28288	10	noff	34	0	10	na
28398	110	non	38	45	10	na
28398	0	non	35	100	10	na
28398	0	non	34	45	10	na
28408	10	noff	38	0	10	na
28408	0	noff	35	0	10	na
28408	0	noff	34	0	10	na
28638	230	non	35	100	10	na
28638	0	non	42	100	10	na
28648	10	noff	35	0	10	na
28648	0	noff	42	0	10	na
28758	110	non	35	100	10	na
28768	10	noff	35	0	10	na
28878	110	non	42	100	10	na
28878	0	non	34	45	10	na
28888	10	noff	42	0	10	na
28888	0	noff	34	0	10	na
29118	230	non	35	100	10	na
29118	0	non	42	100	10	na
29128	10	noff	35	0	10	na
29128	0	noff	42	0	10	na
29358	230	non	46	80	10	na
29358	0	non	34	45	10	na
29368	10	noff	46	0	10	na
29368	0	noff	34	0	10	na
29478	110	non	35	100	10	na
29488	10	noff	35	0	10	na
29598	110	non	35	100	10	na
29598	0	non	42	100	10	na
29608	10	noff	35	0	10	na
29608	0	noff	42	0	10	na
29838	230	non	34	45	10	na
29848	10	noff	34	0	10	na
30078	230	non	35	100	10	na
30088	10	noff	35	0	10	na
30198	110	non	35	100	10	na
30208	10	noff	35	0	10	na
30318	110	non	42	100	10	na
30318	0	non	34	45	10	na
30328	10	noff	42	0	10	na
30328	0	noff	34	0	10	na
30438	110	non	42	100	10	na
30448	10	noff	42	0	10	na
30558	110	non	35	100	10	na
30558	0	non	42	100	10	na
30568	10	noff	35	0	10	na
30568	0	noff	42	0	10	na
30798	230	non	34	45	10	na
30808	10	noff	34	0	10	na
31038	230	non	35	100	10	na
31038	0	non	46	80	10	na
31048	10	noff	35	0	10	na
31048	0	noff	46	0	10	na
31278	230	non	42	100	10	na
31278	0	non	34	45	10	na
31288	10	noff	42	0	10	na
31288	0	noff	34	0	10	na
31398	110	non	35	100	10	na
31408	10	noff	35	0	10	na
31518	110	non	35	100	10	na
31518	0	non	42	100	10	na
31528	10	noff	35	0	10	na
31528	0	noff	42	0	10	na
31758	230	non	42	100	10	na
31758	0	non	34	45	10	na
31768	10	noff	42	0	10	na
31768	0	noff	34	0	10	na
31878	110	non	35	100	10	na
31888	10	noff	35	0	10	na
31998	110	non	38	45	10	na
31998	0	non	35	100	10	na
31998	0	non	42	100	10	na
32008	10	noff	38	0	10	na
32008	0	noff	35	0	10	na
32008	0	noff	42	0	10	na
32238	230	non	38	45	10	na
32238	0	non	42	100	10	na
32238	0	non	34	45	10	na
32248	10	noff	38	0	10	na
32248	0	noff	42	0	10	na
32248	0	noff	34	0	10	na
32298	50	non	34	45	10	na
32308	10	noff	34	0	10	na
32358	50	non	42	100	10	na
32358	0	non	34	45	10	na
32368	10	noff	42	0	10	na
32368	0	noff	34	0	10	na
32418	50	non	34	45	10	na
32428	10	noff	34	0	10	na
32478	50	non	38	45	10	na
32478	0	non	35	100	10	na
32478	0	non	46	80	10	na
32478	0	non	34	45	10	na
32488	10	noff	38	0	10	na
32488	0	noff	35	0	10	na
32488	0	noff	46	0	10	na
32488	0	noff	34	0	10	na
32958	470	non	35	100	10	na
32968	10	noff	35	0	10	na
33078	110	non	42	100	10	na
33088	10	noff	42	0	10	na
33198	110	non	34	45	10	na
33208	10	noff	34	0	10	na
33318	110	non	35	100	10	na
33318	0	non	42	100	10	na
33328	10	noff	35	0	10	na
33328	0	noff	42	0	10	na
33438	110	non	35	100	10	na
33438	0	non	42	100	10	na
33438	0	non	49	100	10	na
33438	0	non	57	100	10	na
33448	10	noff	35	0	10	na
33448	0	noff	42	0	10	na
33448	0	noff	49	0	10	na
33448	0	noff	57	0	10	na
33678	230	non	42	100	10	na
33688	10	noff	42	0	10	na
33798	110	non	42	100	10	na
33798	0	non	34	45	10	na
33808	10	noff	42	0	10	na
33808	0	noff	34	0	10	na
33918	110	non	38	45	10	na
33918	0	non	46	80	10	na
33928	10	noff	38	0	10	na
33928	0	noff	46	0	10	na
34278	350	non	44	100	10	na
34288	10	noff	44	0	10	na
34398	110	non	35	100	10	na
34408	10	noff	35	0	10	na
34638	230	non	35	100	10	na
34638	0	non	42	100	10	na
34648	10	noff	35	0	10	na
34648	0	noff	42	0	10	na
34758	110	non	42	100	10	na
34768	10	noff	42	0	10	na
34878	110	non	38	45	10	na
34878	0	non	46	80	10	na
34888	10	noff	38	0	10	na
34888	0	noff	46	0	10	na
35118	230	non	44	100	10	na
35128	10	noff	44	0	10	na
35358	230	non	35	100	10	na
35358	0	non	42	100	10	na
35368	10	noff	35	0	10	na
35368	0	noff	42	0	10	na
35598	230	non	42	100	10	na
35608	10	noff	42	0	10	na
35718	110	non	42	100	10	na
35718	0	non	34	45	10	na
35728	10	noff	42	0	10	na
35728	0	noff	34	0	10	na
35838	110	non	38	45	10	na
35838	0	non	46	80	10	na
35848	10	noff	38	0	10	na
35848	0	noff	46	0	10	na
36198	350	non	35	100	10	na
36198	0	non	44	100	10	na
36208	10	noff	35	0	10	na
36208	0	noff	44	0	10	na
36318	110	non	35	100	10	na
36328	10	noff	35	0	10	na
36558	230	non	35	100	10	na
36558	0	non	42	100	10	na
36568	10	noff	35	0	10	na
36568	0	noff	42	0	10	na
36678	110	non	42	100	10	na
36688	10	noff	42	0	10	na
36798	110	non	38	45	10	na
36798	0	non	46	80	10	na
36808	10	noff	38	0	10	na
36808	0	noff	46	0	10	na
37038	230	non	35	100	10	na
37038	0	non	44	100	10	na
37048	10	noff	35	0	10	na
37048	0	noff	44	0	10	na
37278	230	non	35	100	10	na
37278	0	non	42	100	10	na
37288	10	noff	35	0	10	na
37288	0	noff	42	0	10	na
37518	230	non	42	100	10	na
37528	10	noff	42	0	10	na
37638	110	non	38	45	10	na
37638	0	non	42	100	10	na
37648	10	noff	38	0	10	na
37648	0	noff	42	0	10	na
37758	110	non	38	45	10	na
37758	0	non	46	80	10	na
37768	10	noff	38	0	10	na
37768	0	noff	46	0	10	na
37998	230	non	35	100	10	na
38008	10	noff	35	0	10	na
38118	110	non	44	100	10	na
38128	10	noff	44	0	10	na
38238	110	non	38	45	10	na
38238	0	non	35	100	10	na
38248	10	noff	38	0	10	na
38248	0	noff	35	0	10	na
38358	110	non	38	45	10	na
38368	10	noff	38	0	10	na
38478	110	non	35	100	10	na
38478	0	non	42	100	10	na
38488	10	noff	35	0	10	na
38488	0	noff	42	0	10	na
38598	110	non	38	53	10	na
38598	0	non	42	100	10	na
38608	10	noff	38	0	10	na
38608	0	noff	42	0	10	na
38718	110	non	38	45	10	na
38718	0	non	35	100	10	na
38718	0	non	46	80	10	na
38728	10	noff	38	0	10	na
38728	0	noff	35	0	10	na
38728	0	noff	46	0	10	na
38958	230	non	44	100	10	na
38968	10	noff	44	0	10	na
39078	110	non	38	45	10	na
39088	10	noff	38	0	10	na
39198	110	non	35	100	10	na
39198	0	non	42	100	10	na
39208	10	noff	35	0	10	na
39208	0	noff	42	0	10	na
39438	230	non	42	100	10	na
39448	10	noff	42	0	10	na
39558	110	non	42	100	10	na
39558	0	non	34	45	10	na
39568	10	noff	42	0	10	na
39568	0	noff	34	0	10	na
39678	110	non	38	45	10	na
39678	0	non	46	80	10	na
39688	10	noff	38	0	10	na
39688	0	noff	46	0	10	na
39918	230	non	34	53	10	na
39928	10	noff	34	0	10	na
40038	110	non	35	100	10	na
40038	0	non	44	100	10	na
40048	10	noff	35	0	10	na
40048	0	noff	44	0	10	na
40158	110	non	38	45	10	na
40158	0	non	35	100	10	na
40158	0	non	42	100	10	na
40168	10	noff	38	0	10	na
40168	0	noff	35	0	10	na
40168	0	noff	42	0	10	na
40278	110	non	42	100	10	na
40288	10	noff	42	0	10	na
40398	110	non	46	80	10	na
40408	10	noff	46	0	10	na
40638	230	non	38	45	10	na
40638	0	non	42	100	10	na
40648	10	noff	38	0	10	na
40648	0	noff	42	0	10	na
40758	110	non	42	100	10	na
40768	10	noff	42	0	10	na
40878	110	non	38	45	10	na
40878	0	non	35	100	10	na
40878	0	non	46	80	10	na
40888	10	noff	38	0	10	na
40888	0	noff	35	0	10	na
40888	0	noff	46	0	10	na
40998	110	non	35	100	10	na
41008	10	noff	35	0	10	na
41118	110	non	35	100	10	na
41118	0	non	42	100	10	na
41128	10	noff	35	0	10	na
41128	0	noff	42	0	10	na
41358	230	non	42	100	10	na
41368	10	noff	42	0	10	na
41478	110	non	42	100	10	na
41478	0	non	34	45	10	na
41488	10	noff	42	0	10	na
41488	0	noff	34	0	10	na
41598	110	non	38	45	10	na
41598	0	non	46	80	10	na
41608	10	noff	38	0	10	na
41608	0	noff	46	0	10	na
41958	350	non	44	100	10	na
41968	10	noff	44	0	10	na
42078	110	non	35	100	10	na
42088	10	noff	35	0	10	na
42318	230	non	35	100	10	na
42318	0	non	42	100	10	na
42328	10	noff	35	0	10	na
42328	0	noff	42	0	10	na
42438	110	non	42	100	10	na
42448	10	noff	42	0	10	na
42558	110	non	46	80	10	na
42558	0	non	34	45	10	na
42568	10	noff	46	0	10	na
42568	0	noff	34	0	10	na
42798	230	non	44	100	10	na
42808	10	noff	44	0	10	na
43038	230	non	35	100	10	na
43038	0	non	42	100	10	na
43048	10	noff	35	0	10	na
43048	0	noff	42	0	10	na
43278	230	non	42	100	10	na
43288	10	noff	42	0	10	na
43398	110	non	42	100	10	na
43398	0	non	34	45	10	na
43408	10	noff	42	0	10	na
43408	0	noff	34	0	10	na
43518	110	non	38	45	10	na
43518	0	non	46	80	10	na
43528	10	noff	38	0	10	na
43528	0	noff	46	0	10	na
43878	350	non	35	100	10	na
43878	0	non	44	100	10	na
43888	10	noff	35	0	10	na
43888	0	noff	44	0	10	na
43998	110	non	35	100	10	na
44008	10	noff	35	0	10	na
44238	230	non	35	100	10	na
44238	0	non	42	100	10	na
44248	10	noff	35	0	10	na
44248	0	noff	42	0	10	na
44358	110	non	42	100	10	na
44368	10	noff	42	0	10	na
44478	110	non	38	45	10	na
44478	0	non	46	80	10	na
44488	10	noff	38	0	10	na
44488	0	noff	46	0	10	na
44718	230	non	35	100	10	na
44718	0	non	44	100	10	na
44728	10	noff	35	0	10	na
44728	0	noff	44	0	10	na
44958	230	non	38	45	10	na
44958	0	non	35	100	10	na
44958	0	non	42	100	10	na
44968	10	noff	38	0	10	na
44968	0	noff	35	0	10	na
44968	0	noff	42	0	10	na
45198	230	non	42	100	10	na
45208	10	noff	42	0	10	na
45318	110	non	38	45	10	na
45318	0	non	35	100	10	na
45318	0	non	42	100	10	na
45328	10	noff	38	0	10	na
45328	0	noff	35	0	10	na
45328	0	noff	42	0	10	na
45378	50	non	38	45	10	na
45388	10	noff	38	0	10	na
45438	50	non	38	45	10	na
45438	0	non	35	100	10	na
45438	0	non	46	80	10	na
45448	10	noff	38	0	10	na
45448	0	noff	35	0	10	na
45448	0	noff	46	0	10	na
45798	350	non	44	100	10	na
45808	10	noff	44	0	10	na
45918	110	non	35	100	10	na
45928	10	noff	35	0	10	na
46038	110	non	38	45	10	na
46048	10	noff	38	0	10	na
46158	110	non	38	45	10	na
46158	0	non	42	100	10	na
46168	10	noff	38	0	10	na
46168	0	noff	42	0	10	na
46278	110	non	35	100	10	na
46278	0	non	42	100	10	na
46288	10	noff	35	0	10	na
46288	0	noff	42	0	10	na
46398	110	non	35	100	10	na
46398	0	non	46	80	10	na
46398	0	non	34	45	10	na
46408	10	noff	35	0	10	na
46408	0	noff	46	0	10	na
46408	0	noff	34	0	10	na
46518	110	non	38	45	10	na
46528	10	noff	38	0	10	na
46638	110	non	38	45	10	na
46638	0	non	44	100	10	na
46648	10	noff	38	0	10	na
46648	0	noff	44	0	10	na
46758	110	non	35	100	10	na
46768	10	noff	35	0	10	na
46878	110	non	38	45	10	na
46878	0	non	35	100	10	na
46878	0	non	42	100	10	na
46888	10	noff	38	0	10	na
46888	0	noff	35	0	10	na
46888	0	noff	42	0	10	na
47118	230	non	42	100	10	na
47128	10	noff	42	0	10	na
47238	110	non	35	100	10	na
47238	0	non	42	100	10	na
47248	10	noff	35	0	10	na
47248	0	noff	42	0	10	na
47358	110	non	38	45	10	na
47358	0	non	46	80	10	na
47368	10	noff	38	0	10	na
47368	0	noff	46	0	10	na
47718	350	non	38	45	10	na
47718	0	non	44	100	10	na
47728	10	noff	38	0	10	na
47728	0	noff	44	0	10	na
47838	110	non	38	45	10	na
47838	0	non	35	100	10	na
47838	0	non	42	100	10	na
47848	10	noff	38	0	10	na
47848	0	noff	35	0	10	na
47848	0	noff	42	0	10	na
47958	110	non	42	79	10	na
47968	10	noff	42	0	10	na
48078	110	non	42	100	10	na
48088	10	noff	42	0	10	na
48198	110	non	42	79	10	na
48208	10	noff	42	0	10	na
48318	110	non	35	100	10	na
48318	0	non	42	100	10	na
48328	10	noff	35	0	10	na
48328	0	noff	42	0	10	na
48438	110	non	42	77	10	na
48448	10	noff	42	0	10	na
48558	110	non	35	100	10	na
48558	0	non	46	80	10	na
48568	10	noff	35	0	10	na
48568	0	noff	46	0	10	na
48798	230	non	35	100	10	na
48798	0	non	49	100	10	na
48798	0	non	42	79	10	na
48808	10	noff	35	0	10	na
48808	0	noff	49	0	10	na
48808	0	noff	42	0	10	na
49038	230	non	42	73	10	na
49048	10	noff	42	0	10	na
49158	110	non	35	100	10	na
49168	10	noff	35	0	10	na
49278	110	non	38	45	10	na
49278	0	non	42	77	10	na
49288	10	noff	38	0	10	na
49288	0	noff	42	0	10	na
49518	230	non	42	76	10	na
49528	10	noff	42	0	10	na
49638	110	non	35	100	10	na
49648	10	noff	35	0	10	na
49758	110	non	35	100	10	na
49758	0	non	46	80	10	na
49768	10	noff	35	0	10	na
49768	0	noff	46	0	10	na
49998	230	non	42	69	10	na
50008	10	noff	42	0	10	na
50238	230	non	38	45	10	na
50238	0	non	42	73	10	na
50248	10	noff	38	0	10	na
50248	0	noff	42	0	10	na
50478	230	non	35	100	10	na
50478	0	non	42	65	10	na
50488	10	noff	35	0	10	na
50488	0	noff	42	0	10	na
50718	230	non	35	100	10	na
50718	0	non	42	73	10	na
50728	10	noff	35	0	10	na
50728	0	noff	42	0	10	na
50958	230	non	42	65	10	na
50968	10	noff	42	0	10	na
51078	110	non	35	100	10	na
51088	10	noff	35	0	10	na
51198	110	non	38	45	10	na
51198	0	non	42	73	10	na
51208	10	noff	38	0	10	na
51208	0	noff	42	0	10	na
51438	230	non	35	100	10	na
51438	0	non	42	68	10	na
51448	10	noff	35	0	10	na
51448	0	noff	42	0	10	na
51678	230	non	35	100	10	na
51678	0	non	46	80	10	na
51688	10	noff	35	0	10	na
51688	0	noff	46	0	10	na
51918	230	non	42	70	10	na
51928	10	noff	42	0	10	na
52158	230	non	38	45	10	na
52158	0	non	42	65	10	na
52168	10	noff	38	0	10	na
52168	0	noff	42	0	10	na
52398	230	non	42	76	10	na
52408	10	noff	42	0	10	na
52638	230	non	35	100	10	na
52638	0	non	42	65	10	na
52648	10	noff	35	0	10	na
52648	0	noff	42	0	10	na
52878	230	non	42	73	10	na
52888	10	noff	42	0	10	na
52998	110	non	35	100	10	na
53008	10	noff	35	0	10	na
53118	110	non	38	45	10	na
53118	0	non	42	63	10	na
53128	10	noff	38	0	10	na
53128	0	noff	42	0	10	na
53358	230	non	35	100	10	na
53358	0	non	42	72	10	na
53368	10	noff	35	0	10	na
53368	0	noff	42	0	10	na
53598	230	non	35	100	10	na
53598	0	non	46	80	10	na
53608	10	noff	35	0	10	na
53608	0	noff	46	0	10	na
53838	230	non	38	45	10	na
53838	0	non	42	72	10	na
53848	10	noff	38	0	10	na
53848	0	noff	42	0	10	na
54078	230	non	35	100	10	na
54078	0	non	42	66	10	na
54088	10	noff	35	0	10	na
54088	0	noff	42	0	10	na
54198	110	non	35	100	10	na
54208	10	noff	35	0	10	na
54318	110	non	38	45	10	na
54318	0	non	42	75	10	na
54328	10	noff	38	0	10	na
54328	0	noff	42	0	10	na
54438	110	non	35	100	10	na
54448	10	noff	35	0	10	na
54558	110	non	35	100	10	na
54558	0	non	42	67	10	na
54568	10	noff	35	0	10	na
54568	0	noff	42	0	10	na
54798	230	non	42	70	10	na
54808	10	noff	42	0	10	na
54918	110	non	35	100	10	na
54928	10	noff	35	0	10	na
55038	110	non	38	45	10	na
55038	0	non	42	64	10	na
55048	10	noff	38	0	10	na
55048	0	noff	42	0	10	na
55158	110	non	35	100	10	na
55168	10	noff	35	0	10	na
55278	110	non	35	100	10	na
55278	0	non	42	67	10	na
55288	10	noff	35	0	10	na
55288	0	noff	42	0	10	na
55518	230	non	35	100	10	na
55518	0	non	46	80	10	na
55528	10	noff	35	0	10	na
55528	0	noff	46	0	10	na
55758	230	non	42	68	10	na
55768	10	noff	42	0	10	na
55998	230	non	38	45	10	na
55998	0	non	42	71	10	na
56008	10	noff	38	0	10	na
56008	0	noff	42	0	10	na
56238	230	non	35	100	10	na
56238	0	non	42	58	10	na
56248	10	noff	35	0	10	na
56248	0	noff	42	0	10	na
56478	230	non	35	100	10	na
56478	0	non	42	71	10	na
56478	0	non	49	100	10	na
56478	0	non	57	100	10	na
56488	10	noff	35	0	10	na
56488	0	noff	42	0	10	na
56488	0	noff	49	0	10	na
56488	0	noff	57	0	10	na
56718	230	non	42	60	10	na
56728	10	noff	42	0	10	na
56838	110	non	35	100	10	na
56848	10	noff	35	0	10	na
56958	110	non	38	45	10	na
56958	0	non	42	71	10	na
56968	10	noff	38	0	10	na
56968	0	noff	42	0	10	na
57198	230	non	42	63	10	na
57208	10	noff	42	0	10	na
57318	110	non	35	100	10	na
57328	10	noff	35	0	10	na
57438	110	non	35	100	10	na
57438	0	non	46	80	10	na
57448	10	noff	35	0	10	na
57448	0	noff	46	0	10	na
57678	230	non	42	59	10	na
57688	10	noff	42	0	10	na
57918	230	non	38	45	10	na
57918	0	non	42	72	10	na
57928	10	noff	38	0	10	na
57928	0	noff	42	0	10	na
58158	230	non	35	100	10	na
58158	0	non	42	63	10	na
58168	10	noff	35	0	10	na
58168	0	noff	42	0	10	na
58398	230	non	35	100	10	na
58398	0	non	42	72	10	na
58408	10	noff	35	0	10	na
58408	0	noff	42	0	10	na
58638	230	non	42	61	10	na
58648	10	noff	42	0	10	na
58758	110	non	35	100	10	na
58768	10	noff	35	0	10	na
58878	110	non	38	45	10	na
58878	0	non	42	72	10	na
58888	10	noff	38	0	10	na
58888	0	noff	42	0	10	na
59118	230	non	35	100	10	na
59118	0	non	42	61	10	na
59128	10	noff	35	0	10	na
59128	0	noff	42	0	10	na
59358	230	non	35	100	10	na
59358	0	non	46	81	10	na
59368	10	noff	35	0	10	na
59368	0	noff	46	0	10	na
59598	230	non	42	65	10	na
59608	10	noff	42	0	10	na
59838	230	non	38	45	10	na
59838	0	non	42	71	10	na
59848	10	noff	38	0	10	na
59848	0	noff	42	0	10	na
60078	230	non	42	63	10	na
60088	10	noff	42	0	10	na
60318	230	non	35	100	10	na
60318	0	non	42	71	10	na
60328	10	noff	35	0	10	na
60328	0	noff	42	0	10	na
60558	230	non	42	65	10	na
60568	10	noff	42	0	10	na
60678	110	non	35	100	10	na
60688	10	noff	35	0	10	na
60798	110	non	38	45	10	na
60798	0	non	42	74	10	na
60808	10	noff	38	0	10	na
60808	0	noff	42	0	10	na
61038	230	non	35	100	10	na
61038	0	non	42	65	10	na
61048	10	noff	35	0	10	na
61048	0	noff	42	0	10	na
61278	230	non	35	100	10	na
61278	0	non	46	80	10	na
61288	10	noff	35	0	10	na
61288	0	noff	46	0	10	na
61518	230	non	38	45	10	na
61518	0	non	42	76	10	na
61528	10	noff	38	0	10	na
61528	0	noff	42	0	10	na
61758	230	non	35	100	10	na
61758	0	non	42	64	10	na
61768	10	noff	35	0	10	na
61768	0	noff	42	0	10	na
61878	110	non	35	100	10	na
61888	10	noff	35	0	10	na
61998	110	non	38	45	10	na
61998	0	non	42	78	10	na
62008	10	noff	38	0	10	na
62008	0	noff	42	0	10	na
62118	110	non	35	100	10	na
62128	10	noff	35	0	10	na
62238	110	non	35	100	10	na
62238	0	non	42	67	10	na
62248	10	noff	35	0	10	na
62248	0	noff	42	0	10	na
62478	230	non	42	73	10	na
62488	10	noff	42	0	10	na
62598	110	non	35	100	10	na
62608	10	noff	35	0	10	na
62718	110	non	38	45	10	na
62718	0	non	42	65	10	na
62728	10	noff	38	0	10	na
62728	0	noff	42	0	10	na
62838	110	non	35	100	10	na
62848	10	noff	35	0	10	na
62958	110	non	35	100	10	na
62958	0	non	42	75	10	na
62968	10	noff	35	0	10	na
62968	0	noff	42	0	10	na
63198	230	non	35	100	10	na
63198	0	non	42	64	10	na
63208	10	noff	35	0	10	na
63208	0	noff	42	0	10	na
63438	230	non	42	74	10	na
63448	10	noff	42	0	10	na
63678	230	non	38	45	10	na
63678	0	non	42	63	10	na
63688	10	noff	38	0	10	na
63688	0	noff	42	0	10	na
63798	110	non	34	45	10	na
63808	10	noff	34	0	10	na
63918	110	non	35	100	10	na
63918	0	non	46	80	10	na
63928	10	noff	35	0	10	na
63928	0	noff	46	0	10	na
64038	110	non	34	45	10	na
64048	10	noff	34	0	10	na
64158	110	non	35	100	10	na
64158	0	non	42	100	10	na
64168	10	noff	35	0	10	na
64168	0	noff	42	0	10	na
64878	710	non	46	80	10	na
64888	10	noff	46	0	10	na
65118	230	non	44	100	10	na
65118	0	non	35	100	10	na
65118	0	non	38	45	10	na
65128	10	noff	44	0	10	na
65128	0	noff	35	0	10	na
65128	0	noff	38	0	10	na
65838	710	non	46	80	10	na
65848	10	noff	46	0	10	na
66078	230	non	44	100	10	na
66078	0	non	35	100	10	na
66088	10	noff	44	0	10	na
66088	0	noff	35	0	10	na
66798	710	non	46	80	10	na
66808	10	noff	46	0	10	na
66918	110	non	35	100	10	na
66928	10	noff	35	0	10	na
67038	110	non	44	100	10	na
67038	0	non	35	100	10	na
67048	10	noff	44	0	10	na
67048	0	noff	35	0	10	na
67278	230	non	42	100	10	na
67288	10	noff	42	0	10	na
67518	230	non	35	100	10	na
67518	0	non	38	45	10	na
67528	10	noff	35	0	10	na
67528	0	noff	38	0	10	na
67758	230	non	42	100	10	na
67768	10	noff	42	0	10	na
67878	110	non	42	100	10	na
67888	10	noff	42	0	10	na
67998	110	non	42	100	10	na
67998	0	non	35	100	10	na
67998	0	non	38	45	10	na
68008	10	noff	42	0	10	na
68008	0	noff	35	0	10	na
68008	0	noff	38	0	10	na
68478	470	non	35	100	10	na
68488	10	noff	35	0	10	na
68718	230	non	46	80	10	na
68728	10	noff	46	0	10	na
68958	230	non	44	100	10	na
68958	0	non	35	100	10	na
68958	0	non	38	45	10	na
68968	10	noff	44	0	10	na
68968	0	noff	35	0	10	na
68968	0	noff	38	0	10	na
69678	710	non	46	80	10	na
69678	0	non	35	100	10	na
69688	10	noff	46	0	10	na
69688	0	noff	35	0	10	na
69918	230	non	44	100	10	na
69918	0	non	35	100	10	na
69918	0	non	38	45	10	na
69928	10	noff	44	0	10	na
69928	0	noff	35	0	10	na
69928	0	noff	38	0	10	na
70638	710	non	46	80	10	na
70638	0	non	38	45	10	na
70648	10	noff	46	0	10	na
70648	0	noff	38	0	10	na
70758	110	non	35	100	10	na
70768	10	noff	35	0	10	na
70878	110	non	44	100	10	na
70878	0	non	35	100	10	na
70888	10	noff	44	0	10	na
70888	0	noff	35	0	10	na
71118	230	non	42	100	10	na
71118	0	non	38	45	10	na
71128	10	noff	42	0	10	na
71128	0	noff	38	0	10	na
71358	230	non	35	100	10	na
71358	0	non	38	45	10	na
71368	10	noff	35	0	10	na
71368	0	noff	38	0	10	na
71598	230	non	42	100	10	na
71598	0	non	35	100	10	na
71608	10	noff	42	0	10	na
71608	0	noff	35	0	10	na
71718	110	non	42	100	10	na
71718	0	non	38	45	10	na
71728	10	noff	42	0	10	na
71728	0	noff	38	0	10	na
71838	110	non	42	100	10	na
71838	0	non	35	100	10	na
71848	10	noff	42	0	10	na
71848	0	noff	35	0	10	na
71958	110	non	35	71	10	na
71968	10	noff	35	0	10	na
72198	230	non	35	74	10	na
72208	10	noff	35	0	10	na
72318	110	non	35	100	10	na
72328	10	noff	35	0	10	na
72558	230	non	46	80	10	na
72558	0	non	34	45	10	na
72568	10	noff	46	0	10	na
72568	0	noff	34	0	10	na
72798	230	non	35	100	10	na
72798	0	non	44	100	10	na
72808	10	noff	35	0	10	na
72808	0	noff	44	0	10	na
72918	110	non	35	71	10	na
72928	10	noff	35	0	10	na
73158	230	non	35	74	10	na
73158	0	non	42	100	10	na
73168	10	noff	35	0	10	na
73168	0	noff	42	0	10	na
73278	110	non	35	100	10	na
73288	10	noff	35	0	10	na
73518	230	non	46	80	10	na
73518	0	non	34	45	10	na
73528	10	noff	46	0	10	na
73528	0	noff	34	0	10	na
73758	230	non	35	100	10	na
73758	0	non	44	100	10	na
73758	0	non	34	45	10	na
73768	10	noff	35	0	10	na
73768	0	noff	44	0	10	na
73768	0	noff	34	0	10	na
73878	110	non	35	71	10	na
73888	10	noff	35	0	10	na
74118	230	non	35	74	10	na
74128	10	noff	35	0	10	na
74238	110	non	35	100	10	na
74248	10	noff	35	0	10	na
74478	230	non	46	80	10	na
74478	0	non	34	45	10	na
74488	10	noff	46	0	10	na
74488	0	noff	34	0	10	na
74598	110	non	35	71	10	na
74608	10	noff	35	0	10	na
74718	110	non	35	100	10	na
74718	0	non	42	100	10	na
74728	10	noff	35	0	10	na
74728	0	noff	42	0	10	na
74958	230	non	42	100	10	na
74968	10	noff	42	0	10	na
75078	110	non	35	78	10	na
75088	10	noff	35	0	10	na
75198	110	non	35	100	10	na
75208	10	noff	35	0	10	na
75318	110	non	42	100	10	na
75318	0	non	38	45	10	na
75328	10	noff	42	0	10	na
75328	0	noff	38	0	10	na
75438	110	non	35	100	10	na
75438	0	non	42	100	10	na
75448	10	noff	35	0	10	na
75448	0	noff	42	0	10	na
75558	110	non	42	100	10	na
75558	0	non	38	45	10	na
75568	10	noff	42	0	10	na
75568	0	noff	38	0	10	na
75678	110	non	35	100	10	na
75688	10	noff	35	0	10	na
76158	470	non	34	100	10	na
76158	0	non	38	45	10	na
76168	10	noff	34	0	10	na
76168	0	noff	38	0	10	na
76398	230	non	35	100	10	na
76398	0	non	46	80	10	na
76408	10	noff	35	0	10	na
76408	0	noff	46	0	10	na
76518	110	non	35	100	10	na
76528	10	noff	35	0	10	na
76638	110	non	35	100	10	na
76638	0	non	44	100	10	na
76648	10	noff	35	0	10	na
76648	0	noff	44	0	10	na
77118	470	non	38	45	10	na
77128	10	noff	38	0	10	na
77358	230	non	46	80	10	na
77358	0	non	35	100	10	na
77368	10	noff	46	0	10	na
77368	0	noff	35	0	10	na
77478	110	non	35	100	10	na
77488	10	noff	35	0	10	na
77598	110	non	44	100	10	na
77598	0	non	35	100	10	na
77598	0	non	38	45	10	na
77608	10	noff	44	0	10	na
77608	0	noff	35	0	10	na
77608	0	noff	38	0	10	na
77838	230	non	48	45	10	na
77848	10	noff	48	0	10	na
78078	230	non	35	100	10	na
78078	0	non	42	100	10	na
78088	10	noff	35	0	10	na
78088	0	noff	42	0	10	na
78318	230	non	46	80	10	na
78318	0	non	38	45	10	na
78318	0	non	47	45	10	na
78328	10	noff	46	0	10	na
78328	0	noff	38	0	10	na
78328	0	noff	47	0	10	na
78438	110	non	45	45	10	na
78448	10	noff	45	0	10	na
78558	110	non	35	100	10	na
78558	0	non	44	100	10	na
78568	10	noff	35	0	10	na
78568	0	noff	44	0	10	na
78678	110	non	38	45	10	na
78688	10	noff	38	0	10	na
78798	110	non	42	100	10	na
78798	0	non	43	45	10	na
78798	0	non	34	15	10	na
78808	10	noff	42	0	10	na
78808	0	noff	43	0	10	na
78808	0	noff	34	0	10	na
78858	50	non	42	100	10	na
78858	0	non	34	22	10	na
78868	10	noff	42	0	10	na
78868	0	noff	34	0	10	na
78918	50	non	42	100	10	na
78918	0	non	38	45	10	na
78918	0	non	34	26	10	na
78928	10	noff	42	0	10	na
78928	0	noff	38	0	10	na
78928	0	noff	34	0	10	na
78978	50	non	34	30	10	na
78988	10	noff	34	0	10	na
79038	50	non	35	100	10	na
79038	0	non	42	100	10	na
79038	0	non	38	45	10	na
79038	0	non	41	45	10	na
79038	0	non	34	34	10	na
79048	10	noff	35	0	10	na
79048	0	noff	42	0	10	na
79048	0	noff	38	0	10	na
79048	0	noff	41	0	10	na
79048	0	noff	34	0	10	na
79098	50	non	34	41	10	na
79108	10	noff	34	0	10	na
79158	50	non	41	45	10	na
79158	0	non	34	45	10	na
79168	10	noff	41	0	10	na
79168	0	noff	34	0	10	na
79218	50	non	34	49	10	na
79228	10	noff	34	0	10	na
79278	50	non	35	100	10	na
79278	0	non	46	80	10	na
79278	0	non	38	45	10	na
79278	0	non	41	45	10	na
79278	0	non	34	52	10	na
79288	10	noff	35	0	10	na
79288	0	noff	46	0	10	na
79288	0	noff	38	0	10	na
79288	0	noff	41	0	10	na
79288	0	noff	34	0	10	na
79398	110	non	35	100	10	na
79398	0	non	34	92	10	na
79398	0	non	38	45	10	na
79408	10	noff	35	0	10	na
79408	0	noff	34	0	10	na
79408	0	noff	38	0	10	na
79518	110	non	35	100	10	na
79518	0	non	49	100	10	na
79518	0	non	57	100	10	na
79528	10	noff	35	0	10	na
79528	0	noff	49	0	10	na
79528	0	noff	57	0	10	na
79758	230	non	42	100	10	na
79768	10	noff	42	0	10	na
79878	110	non	35	100	10	na
79888	10	noff	35	0	10	na
79998	110	non	34	60	10	na
80008	10	noff	34	0	10	na
80118	110	non	35	100	10	na
80128	10	noff	35	0	10	na
80238	110	non	42	100	10	na
80238	0	non	34	60	10	na
80248	10	noff	42	0	10	na
80248	0	noff	34	0	10	na
80478	230	non	35	100	10	na
80488	10	noff	35	0	10	na
80718	230	non	42	100	10	na
80728	10	noff	42	0	10	na
80838	110	non	35	100	10	na
80838	0	non	42	66	10	na
80848	10	noff	35	0	10	na
80848	0	noff	42	0	10	na
80958	110	non	46	80	10	na
80958	0	non	34	60	10	na
80968	10	noff	46	0	10	na
80968	0	noff	34	0	10	na
81078	110	non	35	100	10	na
81088	10	noff	35	0	10	na
81198	110	non	34	60	10	na
81208	10	noff	34	0	10	na
81318	110	non	35	100	10	na
81328	10	noff	35	0	10	na
81438	110	non	35	100	10	na
81448	10	noff	35	0	10	na
81678	230	non	42	100	10	na
81688	10	noff	42	0	10	na
81798	110	non	35	100	10	na
81808	10	noff	35	0	10	na
81918	110	non	34	60	10	na
81928	10	noff	34	0	10	na
82158	230	non	42	100	10	na
82168	10	noff	42	0	10	na
82278	110	non	35	100	10	na
82278	0	non	34	46	10	na
82288	10	noff	35	0	10	na
82288	0	noff	34	0	10	na
82398	110	non	35	100	10	na
82408	10	noff	35	0	10	na
82638	230	non	42	100	10	na
82648	10	noff	42	0	10	na
82758	110	non	42	71	10	na
82768	10	noff	42	0	10	na
82878	110	non	46	80	10	na
82878	0	non	34	60	10	na
82888	10	noff	46	0	10	na
82888	0	noff	34	0	10	na
82998	110	non	35	100	10	na
83008	10	noff	35	0	10	na
83118	110	non	34	38	10	na
83128	10	noff	34	0	10	na
83238	110	non	35	100	10	na
83248	10	noff	35	0	10	na
83358	110	non	35	100	10	na
83368	10	noff	35	0	10	na
83598	230	non	42	100	10	na
83608	10	noff	42	0	10	na
83718	110	non	35	100	10	na
83728	10	noff	35	0	10	na
83838	110	non	34	60	10	na
83848	10	noff	34	0	10	na
83958	110	non	35	100	10	na
83968	10	noff	35	0	10	na
84078	110	non	42	100	10	na
84078	0	non	34	37	10	na
84088	10	noff	42	0	10	na
84088	0	noff	34	0	10	na
84318	230	non	35	100	10	na
84328	10	noff	35	0	10	na
84558	230	non	42	100	10	na
84568	10	noff	42	0	10	na
84678	110	non	35	100	10	na
84678	0	non	42	71	10	na
84688	10	noff	35	0	10	na
84688	0	noff	42	0	10	na
84798	110	non	46	80	10	na
84798	0	non	34	60	10	na
84808	10	noff	46	0	10	na
84808	0	noff	34	0	10	na
84918	110	non	35	100	10	na
84928	10	noff	35	0	10	na
85038	110	non	34	38	10	na
85048	10	noff	34	0	10	na
85158	110	non	35	100	10	na
85168	10	noff	35	0	10	na
85278	110	non	35	100	10	na
85288	10	noff	35	0	10	na
85518	230	non	42	100	10	na
85528	10	noff	42	0	10	na
85638	110	non	35	100	10	na
85648	10	noff	35	0	10	na
85758	110	non	34	60	10	na
85768	10	noff	34	0	10	na
85998	230	non	42	100	10	na
85998	0	non	34	35	10	na
86008	10	noff	42	0	10	na
86008	0	noff	34	0	10	na
86118	110	non	35	100	10	na
86128	10	noff	35	0	10	na
86238	110	non	35	100	10	na
86248	10	noff	35	0	10	na
86478	230	non	42	100	10	na
86488	10	noff	42	0	10	na
86718	230	non	34	60	10	na
86728	10	noff	34	0	10	na
86838	110	non	35	100	10	na
86838	0	non	34	36	10	na
86848	10	noff	35	0	10	na
86848	0	noff	34	0	10	na
86958	110	non	42	100	10	na
86958	0	non	34	60	10	na
86968	10	noff	42	0	10	na
86968	0	noff	34	0	10	na
87078	110	non	35	100	10	na
87078	0	non	42	100	10	na
87088	10	noff	35	0	10	na
87088	0	noff	42	0	10	na
87198	110	non	35	100	10	na
87208	10	noff	35	0	10	na
87438	230	non	42	100	10	na
87448	10	noff	42	0	10	na
87558	110	non	35	100	10	na
87568	10	noff	35	0	10	na
87678	110	non	34	56	10	na
87688	10	noff	34	0	10	na
87798	110	non	35	100	10	na
87808	10	noff	35	0	10	na
87918	110	non	42	100	10	na
87918	0	non	34	37	10	na
87928	10	noff	42	0	10	na
87928	0	noff	34	0	10	na
88158	230	non	35	100	10	na
88168	10	noff	35	0	10	na
88398	230	non	42	100	10	na
88408	10	noff	42	0	10	na
88518	110	non	35	100	10	na
88518	0	non	42	66	10	na
88528	10	noff	35	0	10	na
88528	0	noff	42	0	10	na
88638	110	non	46	80	10	na
88638	0	non	34	60	10	na
88648	10	noff	46	0	10	na
88648	0	noff	34	0	10	na
88758	110	non	35	100	10	na
88768	10	noff	35	0	10	na
88878	110	non	34	37	10	na
88888	10	noff	34	0	10	na
88998	110	non	35	100	10	na
89008	10	noff	35	0	10	na
89118	110	non	35	100	10	na
89128	10	noff	35	0	10	na
89358	230	non	42	100	10	na
89368	10	noff	42	0	10	na
89478	110	non	35	100	10	na
89488	10	noff	35	0	10	na
89598	110	non	34	60	10	na
89608	10	noff	34	0	10	na
89838	230	non	42	100	10	na
89838	0	non	34	35	10	na
89848	10	noff	42	0	10	na
89848	0	noff	34	0	10	na
89958	110	non	35	100	10	na
89968	10	noff	35	0	10	na
90078	110	non	35	100	10	na
90088	10	noff	35	0	10	na
90318	230	non	42	100	10	na
90328	10	noff	42	0	10	na
90438	110	non	42	66	10	na
90448	10	noff	42	0	10	na
90558	110	non	46	80	10	na
90558	0	non	34	60	10	na
90568	10	noff	46	0	10	na
90568	0	noff	34	0	10	na
90678	110	non	35	100	10	na
90688	10	noff	35	0	10	na
90798	110	non	34	39	10	na
90808	10	noff	34	0	10	na
90918	110	non	35	100	10	na
90928	10	noff	35	0	10	na
91038	110	non	35	100	10	na
91048	10	noff	35	0	10	na
91278	230	non	42	100	10	na
91288	10	noff	42	0	10	na
91398	110	non	35	100	10	na
91408	10	noff	35	0	10	na
91518	110	non	34	60	10	na
91528	10	noff	34	0	10	na
91638	110	non	35	100	10	na
91648	10	noff	35	0	10	na
91758	110	non	42	100	10	na
91758	0	non	34	40	10	na
91768	10	noff	42	0	10	na
91768	0	noff	34	0	10	na
91998	230	non	35	100	10	na
92008	10	noff	35	0	10	na
92238	230	non	42	100	10	na
92248	10	noff	42	0	10	na
92358	110	non	35	100	10	na
92358	0	non	42	66	10	na
92368	10	noff	35	0	10	na
92368	0	noff	42	0	10	na
92478	110	non	46	80	10	na
92478	0	non	34	60	10	na
92488	10	noff	46	0	10	na
92488	0	noff	34	0	10	na
92598	110	non	35	100	10	na
92608	10	noff	35	0	10	na
92718	110	non	34	38	10	na
92728	10	noff	34	0	10	na
92838	110	non	35	100	10	na
92848	10	noff	35	0	10	na
92958	110	non	35	100	10	na
92968	10	noff	35	0	10	na
93198	230	non	42	100	10	na
93208	10	noff	42	0	10	na
93318	110	non	35	100	10	na
93328	10	noff	35	0	10	na
93438	110	non	34	60	10	na
93448	10	noff	34	0	10	na
93678	230	non	42	100	10	na
93678	0	non	34	40	10	na
93688	10	noff	42	0	10	na
93688	0	noff	34	0	10	na
93798	110	non	35	100	10	na
93808	10	noff	35	0	10	na
93918	110	non	35	100	10	na
93918	0	non	34	60	10	na
93928	10	noff	35	0	10	na
93928	0	noff	34	0	10	na
94158	230	non	42	100	10	na
94168	10	noff	42	0	10	na
94278	110	non	42	66	10	na
94288	10	noff	42	0	10	na
94398	110	non	46	80	10	na
94398	0	non	34	60	10	na
94408	10	noff	46	0	10	na
94408	0	noff	34	0	10	na
94518	110	non	35	100	10	na
94518	0	non	34	40	10	na
94528	10	noff	35	0	10	na
94528	0	noff	34	0	10	na
94638	110	non	34	45	10	na
94648	10	noff	34	0	10	na
94698	50	non	34	50	10	na
94708	10	noff	34	0	10	na
94758	50	non	35	100	10	na
94758	0	non	34	56	10	na
94768	10	noff	35	0	10	na
94768	0	noff	34	0	10	na
94878	110	non	49	100	10	na
94878	0	non	57	100	10	na
94878	0	non	35	100	10	na
94888	10	noff	49	0	10	na
94888	0	noff	57	0	10	na
94888	0	noff	35	0	10	na
95118	230	non	42	100	10	na
95128	10	noff	42	0	10	na
95238	110	non	35	100	10	na
95248	10	noff	35	0	10	na
95358	110	non	34	60	10	na
95368	10	noff	34	0	10	na
95478	110	non	35	100	10	na
95488	10	noff	35	0	10	na
95598	110	non	42	100	10	na
95598	0	non	34	60	10	na
95608	10	noff	42	0	10	na
95608	0	noff	34	0	10	na
95838	230	non	35	100	10	na
95848	10	noff	35	0	10	na
96078	230	non	42	100	10	na
96088	10	noff	42	0	10	na
96198	110	non	35	100	10	na
96198	0	non	42	66	10	na
96208	10	noff	35	0	10	na
96208	0	noff	42	0	10	na
96318	110	non	46	80	10	na
96318	0	non	34	60	10	na
96328	10	noff	46	0	10	na
96328	0	noff	34	0	10	na
96438	110	non	35	100	10	na
96448	10	noff	35	0	10	na
96558	110	non	34	60	10	na
96568	10	noff	34	0	10	na
96678	110	non	35	100	10	na
96688	10	noff	35	0	10	na
96798	110	non	35	100	10	na
96808	10	noff	35	0	10	na
97038	230	non	42	100	10	na
97048	10	noff	42	0	10	na
97158	110	non	35	100	10	na
97168	10	noff	35	0	10	na
97278	110	non	34	60	10	na
97288	10	noff	34	0	10	na
97518	230	non	42	100	10	na
97528	10	noff	42	0	10	na
97638	110	non	35	100	10	na
97638	0	non	34	46	10	na
97648	10	noff	35	0	10	na
97648	0	noff	34	0	10	na
97758	110	non	35	100	10	na
97768	10	noff	35	0	10	na
97998	230	non	42	100	10	na
98008	10	noff	42	0	10	na
98118	110	non	42	71	10	na
98128	10	noff	42	0	10	na
98238	110	non	46	80	10	na
98238	0	non	34	60	10	na
98248	10	noff	46	0	10	na
98248	0	noff	34	0	10	na
98358	110	non	35	100	10	na
98368	10	noff	35	0	10	na
98478	110	non	34	38	10	na
98488	10	noff	34	0	10	na
98598	110	non	35	100	10	na
98608	10	noff	35	0	10	na
98718	110	non	35	100	10	na
98728	10	noff	35	0	10	na
98958	230	non	42	100	10	na
98968	10	noff	42	0	10	na
99078	110	non	35	100	10	na
99088	10	noff	35	0	10	na
99198	110	non	34	60	10	na
99208	10	noff	34	0	10	na
99318	110	non	35	100	10	na
99328	10	noff	35	0	10	na
99438	110	non	42	100	10	na
99438	0	non	34	37	10	na
99448	10	noff	42	0	10	na
99448	0	noff	34	0	10	na
99678	230	non	35	100	10	na
99688	10	noff	35	0	10	na
99918	230	non	42	100	10	na
99928	10	noff	42	0	10	na
100038	110	non	35	100	10	na
100038	0	non	42	71	10	na
100048	10	noff	35	0	10	na
100048	0	noff	42	0	10	na
100158	110	non	46	80	10	na
100158	0	non	34	60	10	na
100168	10	noff	46	0	10	na
100168	0	noff	34	0	10	na
100278	110	non	35	100	10	na
100288	10	noff	35	0	10	na
100398	110	non	34	38	10	na
100408	10	noff	34	0	10	na
100518	110	non	35	100	10	na
100528	10	noff	35	0	10	na
100638	110	non	35	100	10	na
100648	10	noff	35	0	10	na
100878	230	non	42	100	10	na
100888	10	noff	42	0	10	na
100998	110	non	35	100	10	na
101008	10	noff	35	0	10	na
101118	110	non	34	60	10	na
101128	10	noff	34	0	10	na
101358	230	non	42	100	10	na
101358	0	non	34	35	10	na
101368	10	noff	42	0	10	na
101368	0	noff	34	0	10	na
101478	110	non	35	100	10	na
101488	10	noff	35	0	10	na
101598	110	non	35	100	10	na
101608	10	noff	35	0	10	na
101838	230	non	42	100	10	na
101848	10	noff	42	0	10	na
102078	230	non	34	60	10	na
102088	10	noff	34	0	10	na
102198	110	non	35	100	10	na
102198	0	non	34	36	10	na
102208	10	noff	35	0	10	na
102208	0	noff	34	0	10	na
102318	110	non	42	100	10	na
102318	0	non	34	60	10	na
102328	10	noff	42	0	10	na
102328	0	noff	34	0	10	na
102438	110	non	35	100	10	na
102438	0	non	42	100	10	na
102448	10	noff	35	0	10	na
102448	0	noff	42	0	10	na
102558	110	non	35	100	10	na
102568	10	noff	35	0	10	na
102798	230	non	42	100	10	na
102808	10	noff	42	0	10	na
102918	110	non	35	100	10	na
102928	10	noff	35	0	10	na
103038	110	non	34	56	10	na
103048	10	noff	34	0	10	na
103158	110	non	35	100	10	na
103168	10	noff	35	0	10	na
103278	110	non	42	100	10	na
103278	0	non	34	37	10	na
103288	10	noff	42	0	10	na
103288	0	noff	34	0	10	na
103518	230	non	35	100	10	na
103528	10	noff	35	0	10	na
103758	230	non	42	100	10	na
103768	10	noff	42	0	10	na
103878	110	non	35	100	10	na
103878	0	non	42	66	10	na
103888	10	noff	35	0	10	na
103888	0	noff	42	0	10	na
103998	110	non	46	80	10	na
103998	0	non	34	60	10	na
104008	10	noff	46	0	10	na
104008	0	noff	34	0	10	na
104118	110	non	35	100	10	na
104128	10	noff	35	0	10	na
104238	110	non	34	37	10	na
104248	10	noff	34	0	10	na
104358	110	non	35	100	10	na
104368	10	noff	35	0	10	na
104478	110	non	35	100	10	na
104488	10	noff	35	0	10	na
104718	230	non	42	100	10	na
104728	10	noff	42	0	10	na
104838	110	non	35	100	10	na
104848	10	noff	35	0	10	na
104958	110	non	34	60	10	na
104968	10	noff	34	0	10	na
105198	230	non	42	100	10	na
105198	0	non	34	35	10	na
105208	10	noff	42	0	10	na
105208	0	noff	34	0	10	na
105318	110	non	35	100	10	na
105328	10	noff	35	0	10	na
105438	110	non	35	100	10	na
105448	10	noff	35	0	10	na
105678	230	non	42	100	10	na
105688	10	noff	42	0	10	na
105798	110	non	42	66	10	na
105808	10	noff	42	0	10	na
105918	110	non	46	80	10	na
105918	0	non	34	60	10	na
105928	10	noff	46	0	10	na
105928	0	noff	34	0	10	na
106038	110	non	35	100	10	na
106048	10	noff	35	0	10	na
106158	110	non	34	39	10	na
106168	10	noff	34	0	10	na
106278	110	non	35	100	10	na
106288	10	noff	35	0	10	na
106398	110	non	35	100	10	na
106408	10	noff	35	0	10	na
106638	230	non	42	100	10	na
106648	10	noff	42	0	10	na
106758	110	non	35	100	10	na
106768	10	noff	35	0	10	na
106878	110	non	34	60	10	na
106888	10	noff	34	0	10	na
106998	110	non	35	100	10	na
107008	10	noff	35	0	10	na
107118	110	non	42	100	10	na
107118	0	non	34	40	10	na
107128	10	noff	42	0	10	na
107128	0	noff	34	0	10	na
107358	230	non	35	100	10	na
107368	10	noff	35	0	10	na
107598	230	non	42	100	10	na
107608	10	noff	42	0	10	na
107718	110	non	35	100	10	na
107718	0	non	42	66	10	na
107728	10	noff	35	0	10	na
107728	0	noff	42	0	10	na
107838	110	non	46	80	10	na
107838	0	non	34	60	10	na
107848	10	noff	46	0	10	na
107848	0	noff	34	0	10	na
107958	110	non	35	100	10	na
107968	10	noff	35	0	10	na
108078	110	non	34	38	10	na
108088	10	noff	34	0	10	na
108198	110	non	35	100	10	na
108208	10	noff	35	0	10	na
108318	110	non	35	100	10	na
108328	10	noff	35	0	10	na
108558	230	non	42	100	10	na
108568	10	noff	42	0	10	na
108678	110	non	35	100	10	na
108688	10	noff	35	0	10	na
108798	110	non	34	60	10	na
108808	10	noff	34	0	10	na
109038	230	non	42	100	10	na
109038	0	non	34	40	10	na
109048	10	noff	42	0	10	na
109048	0	noff	34	0	10	na
109158	110	non	35	100	10	na
109168	10	noff	35	0	10	na
109278	110	non	35	100	10	na
109278	0	non	34	60	10	na
109288	10	noff	35	0	10	na
109288	0	noff	34	0	10	na
109518	230	non	42	100	10	na
109528	10	noff	42	0	10	na
109638	110	non	42	66	10	na
109648	10	noff	42	0	10	na
109758	110	non	46	80	10	na
109758	0	non	34	60	10	na
109768	10	noff	46	0	10	na
109768	0	noff	34	0	10	na
109878	110	non	35	100	10	na
109878	0	non	34	40	10	na
109888	10	noff	35	0	10	na
109888	0	noff	34	0	10	na
109998	110	non	34	45	10	na
110008	10	noff	34	0	10	na
110058	50	non	34	50	10	na
110068	10	noff	34	0	10	na
110118	50	non	35	100	10	na
110118	0	non	34	56	10	na
110128	10	noff	35	0	10	na
110128	0	noff	34	0	10	na
110238	110	non	42	100	10	na
110238	0	non	35	100	10	na
110248	10	noff	42	0	10	na
110248	0	noff	35	0	10	na
110718	470	non	42	100	10	na
110728	10	noff	42	0	10	na
110958	230	non	46	80	10	na
110968	10	noff	46	0	10	na
111198	230	non	42	100	10	na
111208	10	noff	42	0	10	na
111678	470	non	42	100	10	na
111688	10	noff	42	0	10	na
111918	230	non	46	80	10	na
111928	10	noff	46	0	10	na
112158	230	non	42	100	10	na
112158	0	non	35	100	10	na
112168	10	noff	42	0	10	na
112168	0	noff	35	0	10	na
112638	470	non	42	100	10	na
112648	10	noff	42	0	10	na
112878	230	non	46	80	10	na
112888	10	noff	46	0	10	na
113118	230	non	42	100	10	na
113128	10	noff	42	0	10	na
113838	710	non	46	80	10	na
113848	10	noff	46	0	10	na
114078	230	non	35	100	10	na
114078	0	non	42	100	10	na
114088	10	noff	35	0	10	na
114088	0	noff	42	0	10	na
114558	470	non	42	100	10	na
114568	10	noff	42	0	10	na
114798	230	non	46	80	10	na
114808	10	noff	46	0	10	na
115038	230	non	42	100	10	na
115048	10	noff	42	0	10	na
115518	470	non	42	100	10	na
115528	10	noff	42	0	10	na
115758	230	non	46	80	10	na
115768	10	noff	46	0	10	na
115998	230	non	42	100	10	na
115998	0	non	35	100	10	na
116008	10	noff	42	0	10	na
116008	0	noff	35	0	10	na
116238	230	non	46	80	10	na
116248	10	noff	46	0	10	na
116478	230	non	42	100	10	na
116478	0	non	39	100	10	na
116488	10	noff	42	0	10	na
116488	0	noff	39	0	10	na
116718	230	non	46	80	10	na
116728	10	noff	46	0	10	na
116958	230	non	42	100	10	na
116958	0	non	35	100	10	na
116968	10	noff	42	0	10	na
116968	0	noff	35	0	10	na
117198	230	non	42	100	10	na
117208	10	noff	42	0	10	na
117438	230	non	42	100	10	na
117438	0	non	35	100	10	na
117448	10	noff	42	0	10	na
117448	0	noff	35	0	10	na
117678	230	non	46	80	10	na
117688	10	noff	46	0	10	na
117918	230	non	35	100	10	na
117918	0	non	42	100	10	na
117928	10	noff	35	0	10	na
117928	0	noff	42	0	10	na
118398	470	non	42	100	10	na
118408	10	noff	42	0	10	na
118638	230	non	46	80	10	na
118648	10	noff	46	0	10	na
118878	230	non	42	100	10	na
118878	0	non	35	100	10	na
118888	10	noff	42	0	10	na
118888	0	noff	35	0	10	na
119358	470	non	42	100	10	na
119368	10	noff	42	0	10	na
119598	230	non	46	80	10	na
119608	10	noff	46	0	10	na
119838	230	non	35	100	10	na
119838	0	non	42	100	10	na
119848	10	noff	35	0	10	na
119848	0	noff	42	0	10	na
120318	470	non	42	100	10	na
120328	10	noff	42	0	10	na
120558	230	non	46	80	10	na
120568	10	noff	46	0	10	na
120798	230	non	42	100	10	na
120798	0	non	35	100	10	na
120808	10	noff	42	0	10	na
120808	0	noff	35	0	10	na
121278	470	non	42	100	10	na
121288	10	noff	42	0	10	na
121518	230	non	46	80	10	na
121528	10	noff	46	0	10	na
121758	230	non	42	100	10	na
121758	0	non	35	100	10	na
121768	10	noff	42	0	10	na
121768	0	noff	35	0	10	na
122238	470	non	42	100	10	na
122248	10	noff	42	0	10	na
122478	230	non	46	80	10	na
122488	10	noff	46	0	10	na
122718	230	non	42	100	10	na
122718	0	non	35	100	10	na
122728	10	noff	42	0	10	na
122728	0	noff	35	0	10	na
123198	470	non	42	100	10	na
123198	0	non	39	100	10	na
123208	10	noff	42	0	10	na
123208	0	noff	39	0	10	na
123438	230	non	46	80	10	na
123448	10	noff	46	0	10	na
123678	230	non	42	100	10	na
123678	0	non	35	100	10	na
123688	10	noff	42	0	10	na
123688	0	noff	35	0	10	na
124158	470	non	42	100	10	na
124158	0	non	35	100	10	na
124168	10	noff	42	0	10	na
124168	0	noff	35	0	10	na
124398	230	non	46	80	10	na
124408	10	noff	46	0	10	na
124638	230	non	42	100	10	na
124638	0	non	35	100	10	na
124648	10	noff	42	0	10	na
124648	0	noff	35	0	10	na
124878	230	non	40	100	10	na
124888	10	noff	40	0	10	na
125118	230	non	35	100	10	na
125118	0	non	42	100	10	na
125118	0	non	40	100	10	na
125128	10	noff	35	0	10	na
125128	0	noff	42	0	10	na
125128	0	noff	40	0	10	na
125358	230	non	46	80	10	na
125368	10	noff	46	0	10	na
125598	230	non	42	100	10	na
125598	0	non	35	100	10	na
125608	10	noff	42	0	10	na
125608	0	noff	35	0	10	na
125838	230	non	42	100	10	na
125838	0	non	34	45	10	na
125848	10	noff	42	0	10	na
125848	0	noff	34	0	10	na
126078	230	non	35	100	10	na
126078	0	non	42	100	10	na
126088	10	noff	35	0	10	na
126088	0	noff	42	0	10	na
126198	110	non	35	100	10	na
126208	10	noff	35	0	10	na
126318	110	non	42	100	10	na
126318	0	non	34	45	10	na
126328	10	noff	42	0	10	na
126328	0	noff	34	0	10	na
126558	230	non	35	100	10	na
126558	0	non	42	100	10	na
126568	10	noff	35	0	10	na
126568	0	noff	42	0	10	na
126798	230	non	42	100	10	na
126798	0	non	34	45	10	na
126808	10	noff	42	0	10	na
126808	0	noff	34	0	10	na
127038	230	non	35	100	10	na
127038	0	non	42	100	10	na
127048	10	noff	35	0	10	na
127048	0	noff	42	0	10	na
127278	230	non	46	80	10	na
127278	0	non	34	45	10	na
127288	10	noff	46	0	10	na
127288	0	noff	34	0	10	na
127398	110	non	35	100	10	na
127398	0	non	44	100	10	na
127408	10	noff	35	0	10	na
127408	0	noff	44	0	10	na
127518	110	non	35	100	10	na
127518	0	non	42	100	10	na
127528	10	noff	35	0	10	na
127528	0	noff	42	0	10	na
127758	230	non	42	100	10	na
127758	0	non	34	45	10	na
127768	10	noff	42	0	10	na
127768	0	noff	34	0	10	na
127878	110	non	35	100	10	na
127888	10	noff	35	0	10	na
127998	110	non	35	100	10	na
127998	0	non	42	100	10	na
128008	10	noff	35	0	10	na
128008	0	noff	42	0	10	na
128118	110	non	35	100	10	na
128128	10	noff	35	0	10	na
128238	110	non	46	80	10	na
128238	0	non	34	45	10	na
128248	10	noff	46	0	10	na
128248	0	noff	34	0	10	na
128478	230	non	35	100	10	na
128478	0	non	44	100	10	na
128488	10	noff	35	0	10	na
128488	0	noff	44	0	10	na
128598	110	non	35	100	10	na
128608	10	noff	35	0	10	na
128718	110	non	42	100	10	na
128718	0	non	34	45	10	na
128728	10	noff	42	0	10	na
128728	0	noff	34	0	10	na
128958	230	non	35	100	10	na
128958	0	non	42	100	10	na
128968	10	noff	35	0	10	na
128968	0	noff	42	0	10	na
129198	230	non	46	80	10	na
129198	0	non	34	45	10	na
129208	10	noff	46	0	10	na
129208	0	noff	34	0	10	na
129318	110	non	35	100	10	na
129328	10	noff	35	0	10	na
129438	110	non	35	100	10	na
129438	0	non	42	100	10	na
129448	10	noff	35	0	10	na
129448	0	noff	42	0	10	na
129678	230	non	42	100	10	na
129678	0	non	34	45	10	na
129688	10	noff	42	0	10	na
129688	0	noff	34	0	10	na
129918	230	non	35	100	10	na
129918	0	non	42	100	10	na
129928	10	noff	35	0	10	na
129928	0	noff	42	0	10	na
130038	110	non	35	100	10	na
130048	10	noff	35	0	10	na
130158	110	non	34	45	10	na
130168	10	noff	34	0	10	na
130398	230	non	35	100	10	na
130398	0	non	42	100	10	na
130408	10	noff	35	0	10	na
130408	0	noff	42	0	10	na
130518	110	non	42	100	10	na
130528	10	noff	42	0	10	na
130638	110	non	42	100	10	na
130638	0	non	34	45	10	na
130648	10	noff	42	0	10	na
130648	0	noff	34	0	10	na
130878	230	non	35	100	10	na
130878	0	non	46	80	10	na
130888	10	noff	35	0	10	na
130888	0	noff	46	0	10	na
130998	110	non	35	100	10	na
131008	10	noff	35	0	10	na
131118	110	non	44	100	10	na
131118	0	non	34	45	10	na
131128	10	noff	44	0	10	na
131128	0	noff	34	0	10	na
131238	110	non	35	100	10	na
131238	0	non	42	100	10	na
131248	10	noff	35	0	10	na
131248	0	noff	42	0	10	na
131358	110	non	35	100	10	na
131358	0	non	42	100	10	na
131368	10	noff	35	0	10	na
131368	0	noff	42	0	10	na
131598	230	non	46	80	10	na
131608	10	noff	46	0	10	na
131718	110	non	35	100	10	na
131718	0	non	44	100	10	na
131728	10	noff	35	0	10	na
131728	0	noff	44	0	10	na
131838	110	non	42	100	10	na
131838	0	non	34	45	10	na
131848	10	noff	42	0	10	na
131848	0	noff	34	0	10	na
131958	110	non	46	80	10	na
131968	10	noff	46	0	10	na
132078	110	non	44	100	10	na
132078	0	non	34	45	10	na
132088	10	noff	44	0	10	na
132088	0	noff	34	0	10	na
132198	110	non	35	100	10	na
132198	0	non	42	100	10	na
132198	0	non	34	45	10	na
132208	10	noff	35	0	10	na
132208	0	noff	42	0	10	na
132208	0	noff	34	0	10	na
132318	110	non	38	45	10	na
132318	0	non	35	100	10	na
132318	0	non	42	100	10	na
132318	0	non	34	45	10	na
132328	10	noff	38	0	10	na
132328	0	noff	35	0	10	na
132328	0	noff	42	0	10	na
132328	0	noff	34	0	10	na
132558	230	non	46	80	10	na
132558	0	non	34	45	10	na
132568	10	noff	46	0	10	na
132568	0	noff	34	0	10	na
132678	110	non	34	45	10	na
132688	10	noff	34	0	10	na
132798	110	non	35	100	10	na
132798	0	non	42	100	10	na
132798	0	non	34	45	10	na
132808	10	noff	35	0	10	na
132808	0	noff	42	0	10	na
132808	0	noff	34	0	10	na
132918	110	non	38	45	10	na
132918	0	non	34	45	10	na
132928	10	noff	38	0	10	na
132928	0	noff	34	0	10	na
133038	110	non	38	45	10	na
133038	0	non	46	80	10	na
133038	0	non	34	45	10	na
133048	10	noff	38	0	10	na
133048	0	noff	46	0	10	na
133048	0	noff	34	0	10	na
133158	110	non	34	45	10	na
133168	10	noff	34	0	10	na
133278	110	non	35	100	10	na
133278	0	non	42	100	10	na
133288	10	noff	35	0	10	na
133288	0	noff	42	0	10	na
133518	230	non	42	100	10	na
133518	0	non	34	45	10	na
133528	10	noff	42	0	10	na
133528	0	noff	34	0	10	na
133758	230	non	35	100	10	na
133758	0	non	42	100	10	na
133768	10	noff	35	0	10	na
133768	0	noff	42	0	10	na
133878	110	non	35	100	10	na
133888	10	noff	35	0	10	na
133998	110	non	34	45	10	na
134008	10	noff	34	0	10	na
134238	230	non	35	100	10	na
134238	0	non	42	100	10	na
134248	10	noff	35	0	10	na
134248	0	noff	42	0	10	na
134478	230	non	42	100	10	na
134478	0	non	34	45	10	na
134488	10	noff	42	0	10	na
134488	0	noff	34	0	10	na
134718	230	non	35	100	10	na
134718	0	non	42	100	10	na
134728	10	noff	35	0	10	na
134728	0	noff	42	0	10	na
134958	230	non	46	80	10	na
134958	0	non	34	45	10	na
134968	10	noff	46	0	10	na
134968	0	noff	34	0	10	na
135078	110	non	35	100	10	na
135088	10	noff	35	0	10	na
135198	110	non	35	100	10	na
135198	0	non	42	100	10	na
135208	10	noff	35	0	10	na
135208	0	noff	42	0	10	na
135438	230	non	38	45	10	na
135438	0	non	42	100	10	na
135438	0	non	34	45	10	na
135448	10	noff	38	0	10	na
135448	0	noff	42	0	10	na
135448	0	noff	34	0	10	na
135558	110	non	34	45	10	na
135568	10	noff	34	0	10	na
135678	110	non	42	100	10	na
135678	0	non	34	45	10	na
135688	10	noff	42	0	10	na
135688	0	noff	34	0	10	na
135798	110	non	34	45	10	na
135808	10	noff	34	0	10	na
135918	110	non	38	45	10	na
135918	0	non	35	100	10	na
135918	0	non	34	45	10	na
135928	10	noff	38	0	10	na
135928	0	noff	35	0	10	na
135928	0	noff	34	0	10	na
136158	230	non	35	100	10	na
136158	0	non	42	100	10	na
136168	10	noff	35	0	10	na
136168	0	noff	42	0	10	na
136278	110	non	35	100	10	na
136288	10	noff	35	0	10	na
136398	110	non	42	100	10	na
136398	0	non	34	45	10	na
136408	10	noff	42	0	10	na
136408	0	noff	34	0	10	na
136638	230	non	35	100	10	na
136638	0	non	42	100	10	na
136648	10	noff	35	0	10	na
136648	0	noff	42	0	10	na
136878	230	non	46	80	10	na
136878	0	non	34	45	10	na
136888	10	noff	46	0	10	na
136888	0	noff	34	0	10	na
136998	110	non	35	100	10	na
137008	10	noff	35	0	10	na
137118	110	non	35	100	10	na
137118	0	non	42	100	10	na
137128	10	noff	35	0	10	na
137128	0	noff	42	0	10	na
137358	230	non	34	45	10	na
137368	10	noff	34	0	10	na
137598	230	non	35	100	10	na
137608	10	noff	35	0	10	na
137718	110	non	35	100	10	na
137728	10	noff	35	0	10	na
137838	110	non	42	100	10	na
137838	0	non	34	45	10	na
137848	10	noff	42	0	10	na
137848	0	noff	34	0	10	na
137958	110	non	42	100	10	na
137968	10	noff	42	0	10	na
138078	110	non	35	100	10	na
138078	0	non	42	100	10	na
138088	10	noff	35	0	10	na
138088	0	noff	42	0	10	na
138318	230	non	34	45	10	na
138328	10	noff	34	0	10	na
138558	230	non	35	100	10	na
138558	0	non	46	80	10	na
138568	10	noff	35	0	10	na
138568	0	noff	46	0	10	na
138798	230	non	42	100	10	na
138798	0	non	34	45	10	na
138808	10	noff	42	0	10	na
138808	0	noff	34	0	10	na
138918	110	non	35	100	10	na
138928	10	noff	35	0	10	na
139038	110	non	35	100	10	na
139038	0	non	42	100	10	na
139048	10	noff	35	0	10	na
139048	0	noff	42	0	10	na
139278	230	non	42	100	10	na
139278	0	non	34	45	10	na
139288	10	noff	42	0	10	na
139288	0	noff	34	0	10	na
139398	110	non	35	100	10	na
139408	10	noff	35	0	10	na
139518	110	non	38	45	10	na
139518	0	non	35	100	10	na
139518	0	non	42	100	10	na
139528	10	noff	38	0	10	na
139528	0	noff	35	0	10	na
139528	0	noff	42	0	10	na
139758	230	non	38	45	10	na
139758	0	non	42	100	10	na
139758	0	non	34	45	10	na
139768	10	noff	38	0	10	na
139768	0	noff	42	0	10	na
139768	0	noff	34	0	10	na
139818	50	non	34	45	10	na
139828	10	noff	34	0	10	na
139878	50	non	42	100	10	na
139878	0	non	34	45	10	na
139888	10	noff	42	0	10	na
139888	0	noff	34	0	10	na
139938	50	non	34	45	10	na
139948	10	noff	34	0	10	na
139998	50	non	38	45	10	na
139998	0	non	35	100	10	na
139998	0	non	46	80	10	na
139998	0	non	34	45	10	na
140008	10	noff	38	0	10	na
140008	0	noff	35	0	10	na
140008	0	noff	46	0	10	na
140008	0	noff	34	0	10	na
140478	470	non	35	100	10	na
140488	10	noff	35	0	10	na
140598	110	non	42	100	10	na
140608	10	noff	42	0	10	na
140718	110	non	34	45	10	na
140728	10	noff	34	0	10	na
140838	110	non	35	100	10	na
140838	0	non	42	100	10	na
140848	10	noff	35	0	10	na
140848	0	noff	42	0	10	na
140958	110	non	35	100	10	na
140958	0	non	42	100	10	na
140958	0	non	49	100	10	na
140958	0	non	57	100	10	na
140968	10	noff	35	0	10	na
140968	0	noff	42	0	10	na
140968	0	noff	49	0	10	na
140968	0	noff	57	0	10	na
141198	230	non	42	100	10	na
141208	10	noff	42	0	10	na
141318	110	non	42	100	10	na
141318	0	non	34	45	10	na
141328	10	noff	42	0	10	na
141328	0	noff	34	0	10	na
141438	110	non	38	45	10	na
141438	0	non	46	80	10	na
141448	10	noff	38	0	10	na
141448	0	noff	46	0	10	na
141798	350	non	44	100	10	na
141808	10	noff	44	0	10	na
141918	110	non	35	100	10	na
141928	10	noff	35	0	10	na
142158	230	non	35	100	10	na
142158	0	non	42	100	10	na
142168	10	noff	35	0	10	na
142168	0	noff	42	0	10	na
142278	110	non	42	100	10	na
142288	10	noff	42	0	10	na
142398	110	non	38	45	10	na
142398	0	non	46	80	10	na
142408	10	noff	38	0	10	na
142408	0	noff	46	0	10	na
142638	230	non	44	100	10	na
142648	10	noff	44	0	10	na
142878	230	non	35	100	10	na
142878	0	non	42	100	10	na
142888	10	noff	35	0	10	na
142888	0	noff	42	0	10	na
143118	230	non	42	100	10	na
143128	10	noff	42	0	10	na
143238	110	non	42	100	10	na
143238	0	non	34	45	10	na
143248	10	noff	42	0	10	na
143248	0	noff	34	0	10	na
143358	110	non	38	45	10	na
143358	0	non	46	80	10	na
143368	10	noff	38	0	10	na
143368	0	noff	46	0	10	na
143718	350	non	35	100	10	na
143718	0	non	44	100	10	na
143728	10	noff	35	0	10	na
143728	0	noff	44	0	10	na
143838	110	non	35	100	10	na
143848	10	noff	35	0	10	na
144078	230	non	35	100	10	na
144078	0	non	42	100	10	na
144088	10	noff	35	0	10	na
144088	0	noff	42	0	10	na
144198	110	non	42	100	10	na
144208	10	noff	42	0	10	na
144318	110	non	38	45	10	na
144318	0	non	46	80	10	na
144328	10	noff	38	0	10	na
144328	0	noff	46	0	10	na
144558	230	non	35	100	10	na
144558	0	non	44	100	10	na
144568	10	noff	35	0	10	na
144568	0	noff	44	0	10	na
144798	230	non	35	100	10	na
144798	0	non	42	100	10	na
144808	10	noff	35	0	10	na
144808	0	noff	42	0	10	na
145038	230	non	42	100	10	na
145048	10	noff	42	0	10	na
145158	110	non	38	45	10	na
145158	0	non	42	100	10	na
145168	10	noff	38	0	10	na
145168	0	noff	42	0	10	na
145278	110	non	38	45	10	na
145278	0	non	46	80	10	na
145288	10	noff	38	0	10	na
145288	0	noff	46	0	10	na
145518	230	non	35	100	10	na
145528	10	noff	35	0	10	na
145638	110	non	44	100	10	na
145648	10	noff	44	0	10	na
145758	110	non	38	45	10	na
145758	0	non	35	100	10	na
145768	10	noff	38	0	10	na
145768	0	noff	35	0	10	na
145878	110	non	38	45	10	na
145888	10	noff	38	0	10	na
145998	110	non	35	100	10	na
145998	0	non	42	100	10	na
146008	10	noff	35	0	10	na
146008	0	noff	42	0	10	na
146118	110	non	38	53	10	na
146118	0	non	42	100	10	na
146128	10	noff	38	0	10	na
146128	0	noff	42	0	10	na
146238	110	non	38	45	10	na
146238	0	non	35	100	10	na
146238	0	non	46	80	10	na
146248	10	noff	38	0	10	na
146248	0	noff	35	0	10	na
146248	0	noff	46	0	10	na
146478	230	non	44	100	10	na
146488	10	noff	44	0	10	na
146598	110	non	38	45	10	na
146608	10	noff	38	0	10	na
146718	110	non	35	100	10	na
146718	0	non	42	100	10	na
146728	10	noff	35	0	10	na
146728	0	noff	42	0	10	na
146958	230	non	42	100	10	na
146968	10	noff	42	0	10	na
147078	110	non	42	100	10	na
147078	0	non	34	45	10	na
147088	10	noff	42	0	10	na
147088	0	noff	34	0	10	na
147198	110	non	38	45	10	na
147198	0	non	46	80	10	na
147208	10	noff	38	0	10	na
147208	0	noff	46	0	10	na
147438	230	non	34	53	10	na
147448	10	noff	34	0	10	na
147558	110	non	35	100	10	na
147558	0	non	44	100	10	na
147568	10	noff	35	0	10	na
147568	0	noff	44	0	10	na
147678	110	non	38	45	10	na
147678	0	non	35	100	10	na
147678	0	non	42	100	10	na
147688	10	noff	38	0	10	na
147688	0	noff	35	0	10	na
147688	0	noff	42	0	10	na
147798	110	non	42	100	10	na
147808	10	noff	42	0	10	na
147918	110	non	46	80	10	na
147928	10	noff	46	0	10	na
148158	230	non	38	45	10	na
148158	0	non	42	100	10	na
148168	10	noff	38	0	10	na
148168	0	noff	42	0	10	na
148278	110	non	42	100	10	na
148288	10	noff	42	0	10	na
148398	110	non	38	45	10	na
148398	0	non	35	100	10	na
148398	0	non	46	80	10	na
148408	10	noff	38	0	10	na
148408	0	noff	35	0	10	na
148408	0	noff	46	0	10	na
148518	110	non	35	100	10	na
148528	10	noff	35	0	10	na
148638	110	non	35	100	10	na
148638	0	non	42	100	10	na
148648	10	noff	35	0	10	na
148648	0	noff	42	0	10	na
148878	230	non	42	100	10	na
148888	10	noff	42	0	10	na
148998	110	non	42	100	10	na
148998	0	non	34	45	10	na
149008	10	noff	42	0	10	na
149008	0	noff	34	0	10	na
149118	110	non	38	45	10	na
149118	0	non	46	80	10	na
149128	10	noff	38	0	10	na
149128	0	noff	46	0	10	na
149478	350	non	44	100	10	na
149488	10	noff	44	0	10	na
149598	110	non	35	100	10	na
149608	10	noff	35	0	10	na
149838	230	non	35	100	10	na
149838	0	non	42	100	10	na
149848	10	noff	35	0	10	na
149848	0	noff	42	0	10	na
149958	110	non	42	100	10	na
149968	10	noff	42	0	10	na
150078	110	non	46	80	10	na
150078	0	non	34	45	10	na
150088	10	noff	46	0	10	na
150088	0	noff	34	0	10	na
150318	230	non	44	100	10	na
150328	10	noff	44	0	10	na
150558	230	non	35	100	10	na
150558	0	non	42	100	10	na
150568	10	noff	35	0	10	na
150568	0	noff	42	0	10	na
150798	230	non	42	100	10	na
150808	10	noff	42	0	10	na
150918	110	non	42	100	10	na
150918	0	non	34	45	10	na
150928	10	noff	42	0	10	na
150928	0	noff	34	0	10	na
151038	110	non	38	45	10	na
151038	0	non	46	80	10	na
151048	10	noff	38	0	10	na
151048	0	noff	46	0	10	na
151398	350	non	35	100	10	na
151398	0	non	44	100	10	na
151408	10	noff	35	0	10	na
151408	0	noff	44	0	10	na
151518	110	non	35	100	10	na
151528	10	noff	35	0	10	na
151758	230	non	35	100	10	na
151758	0	non	42	100	10	na
151768	10	noff	35	0	10	na
151768	0	noff	42	0	10	na
151878	110	non	42	100	10	na
151888	10	noff	42	0	10	na
151998	110	non	38	45	10	na
151998	0	non	46	80	10	na
152008	10	noff	38	0	10	na
152008	0	noff	46	0	10	na
152238	230	non	35	100	10	na
152238	0	non	44	100	10	na
152248	10	noff	35	0	10	na
152248	0	noff	44	0	10	na
152478	230	non	38	45	10	na
152478	0	non	35	100	10	na
152478	0	non	42	100	10	na
152488	10	noff	38	0	10	na
152488	0	noff	35	0	10	na
152488	0	noff	42	0	10	na
152718	230	non	42	100	10	na
152728	10	noff	42	0	10	na
152838	110	non	38	45	10	na
152838	0	non	35	100	10	na
152838	0	non	42	100	10	na
152848	10	noff	38	0	10	na
152848	0	noff	35	0	10	na
152848	0	noff	42	0	10	na
152898	50	non	38	45	10	na
152908	10	noff	38	0	10	na
152958	50	non	38	45	10	na
152958	0	non	35	100	10	na
152958	0	non	46	80	10	na
152968	10	noff	38	0	10	na
152968	0	noff	35	0	10	na
152968	0	noff	46	0	10	na
153318	350	non	44	100	10	na
153328	10	noff	44	0	10	na
153438	110	non	35	100	10	na
153448	10	noff	35	0	10	na
153558	110	non	38	45	10	na
153568	10	noff	38	0	10	na
153678	110	non	38	45	10	na
153678	0	non	42	100	10	na
153688	10	noff	38	0	10	na
153688	0	noff	42	0	10	na
153798	110	non	35	100	10	na
153798	0	non	42	100	10	na
153808	10	noff	35	0	10	na
153808	0	noff	42	0	10	na
153918	110	non	35	100	10	na
153918	0	non	46	80	10	na
153918	0	non	34	45	10	na
153928	10	noff	35	0	10	na
153928	0	noff	46	0	10	na
153928	0	noff	34	0	10	na
154038	110	non	38	45	10	na
154048	10	noff	38	0	10	na
154158	110	non	38	45	10	na
154158	0	non	44	100	10	na
154168	10	noff	38	0	10	na
154168	0	noff	44	0	10	na
154278	110	non	35	100	10	na
154288	10	noff	35	0	10	na
154398	110	non	38	45	10	na
154398	0	non	35	100	10	na
154398	0	non	42	100	10	na
154408	10	noff	38	0	10	na
154408	0	noff	35	0	10	na
154408	0	noff	42	0	10	na
154638	230	non	42	100	10	na
154648	10	noff	42	0	10	na
154758	110	non	35	100	10	na
154758	0	non	42	100	10	na
154768	10	noff	35	0	10	na
154768	0	noff	42	0	10	na
154878	110	non	38	45	10	na
154878	0	non	46	80	10	na
154888	10	noff	38	0	10	na
154888	0	noff	46	0	10	na
155238	350	non	38	45	10	na
155238	0	non	44	100	10	na
155248	10	noff	38	0	10	na
155248	0	noff	44	0	10	na
155358	110	non	38	45	10	na
155358	0	non	35	100	10	na
155358	0	non	42	100	10	na
155368	10	noff	38	0	10	na
155368	0	noff	35	0	10	na
155368	0	noff	42	0	10	na
155478	110	non	42	79	10	na
155488	10	noff	42	0	10	na
155598	110	non	42	100	10	na
155608	10	noff	42	0	10	na
155718	110	non	42	79	10	na
155728	10	noff	42	0	10	na
155838	110	non	35	100	10	na
155838	0	non	42	100	10	na
155848	10	noff	35	0	10	na
155848	0	noff	42	0	10	na
155958	110	non	42	77	10	na
155968	10	noff	42	0	10	na
156078	110	non	35	100	10	na
156078	0	non	46	80	10	na
156088	10	noff	35	0	10	na
156088	0	noff	46	0	10	na
156318	230	non	35	100	10	na
156318	0	non	49	100	10	na
156318	0	non	42	79	10	na
156328	10	noff	35	0	10	na
156328	0	noff	49	0	10	na
156328	0	noff	42	0	10	na
156558	230	non	42	73	10	na
156568	10	noff	42	0	10	na
156678	110	non	35	100	10	na
156688	10	noff	35	0	10	na
156798	110	non	38	45	10	na
156798	0	non	42	77	10	na
156808	10	noff	38	0	10	na
156808	0	noff	42	0	10	na
157038	230	non	42	76	10	na
157048	10	noff	42	0	10	na
157158	110	non	35	100	10	na
157168	10	noff	35	0	10	na
157278	110	non	35	100	10	na
157278	0	non	46	80	10	na
157288	10	noff	35	0	10	na
157288	0	noff	46	0	10	na
157518	230	non	42	69	10	na
157528	10	noff	42	0	10	na
157758	230	non	38	45	10	na
157758	0	non	42	73	10	na
157768	10	noff	38	0	10	na
157768	0	noff	42	0	10	na
157998	230	non	35	100	10	na
157998	0	non	42	65	10	na
158008	10	noff	35	0	10	na
158008	0	noff	42	0	10	na
158238	230	non	35	100	10	na
158238	0	non	42	73	10	na
158248	10	noff	35	0	10	na
158248	0	noff	42	0	10	na
158478	230	non	42	65	10	na
158488	10	noff	42	0	10	na
158598	110	non	35	100	10	na
158608	10	noff	35	0	10	na
158718	110	non	38	45	10	na
158718	0	non	42	73	10	na
158728	10	noff	38	0	10	na
158728	0	noff	42	0	10	na
158958	230	non	35	100	10	na
158958	0	non	42	68	10	na
158968	10	noff	35	0	10	na
158968	0	noff	42	0	10	na
159198	230	non	35	100	10	na
159198	0	non	46	80	10	na
159208	10	noff	35	0	10	na
159208	0	noff	46	0	10	na
159438	230	non	42	70	10	na
159448	10	noff	42	0	10	na
159678	230	non	38	45	10	na
159678	0	non	42	65	10	na
159688	10	noff	38	0	10	na
159688	0	noff	42	0	10	na
159918	230	non	42	76	10	na
159928	10	noff	42	0	10	na
160158	230	non	35	100	10	na
160158	0	non	42	65	10	na
160168	10	noff	35	0	10	na
160168	0	noff	42	0	10	na
160398	230	non	42	73	10	na
160408	10	noff	42	0	10	na
160518	110	non	35	100	10	na
160528	10	noff	35	0	10	na
160638	110	non	38	45	10	na
160638	0	non	42	63	10	na
160648	10	noff	38	0	10	na
160648	0	noff	42	0	10	na
160878	230	non	35	100	10	na
160878	0	non	42	72	10	na
160888	10	noff	35	0	10	na
160888	0	noff	42	0	10	na
161118	230	non	35	100	10	na
161118	0	non	46	80	10	na
161128	10	noff	35	0	10	na
161128	0	noff	46	0	10	na
161358	230	non	38	45	10	na
161358	0	non	42	72	10	na
161368	10	noff	38	0	10	na
161368	0	noff	42	0	10	na
161598	230	non	35	100	10	na
161598	0	non	42	66	10	na
161608	10	noff	35	0	10	na
161608	0	noff	42	0	10	na
161718	110	non	35	100	10	na
161728	10	noff	35	0	10	na
161838	110	non	38	45	10	na
161838	0	non	42	75	10	na
161848	10	noff	38	0	10	na
161848	0	noff	42	0	10	na
161958	110	non	35	100	10	na
161968	10	noff	35	0	10	na
162078	110	non	35	100	10	na
162078	0	non	42	67	10	na
162088	10	noff	35	0	10	na
162088	0	noff	42	0	10	na
162318	230	non	42	70	10	na
162328	10	noff	42	0	10	na
162438	110	non	35	100	10	na
162448	10	noff	35	0	10	na
162558	110	non	38	45	10	na
162558	0	non	42	64	10	na
162568	10	noff	38	0	10	na
162568	0	noff	42	0	10	na
162678	110	non	35	100	10	na
162688	10	noff	35	0	10	na
162798	110	non	35	100	10	na
162798	0	non	42	67	10	na
162808	10	noff	35	0	10	na
162808	0	noff	42	0	10	na
163038	230	non	35	100	10	na
163038	0	non	46	80	10	na
163048	10	noff	35	0	10	na
163048	0	noff	46	0	10	na
163278	230	non	42	68	10	na
163288	10	noff	42	0	10	na
163518	230	non	38	45	10	na
163518	0	non	42	71	10	na
163528	10	noff	38	0	10	na
163528	0	noff	42	0	10	na
163758	230	non	35	100	10	na
163758	0	non	42	58	10	na
163768	10	noff	35	0	10	na
163768	0	noff	42	0	10	na
163998	230	non	35	100	10	na
163998	0	non	42	71	10	na
163998	0	non	49	100	10	na
163998	0	non	57	100	10	na
164008	10	noff	35	0	10	na
164008	0	noff	42	0	10	na
164008	0	noff	49	0	10	na
164008	0	noff	57	0	10	na
164238	230	non	42	60	10	na
164248	10	noff	42	0	10	na
164358	110	non	35	100	10	na
164368	10	noff	35	0	10	na
164478	110	non	38	45	10	na
164478	0	non	42	71	10	na
164488	10	noff	38	0	10	na
164488	0	noff	42	0	10	na
164718	230	non	42	63	10	na
164728	10	noff	42	0	10	na
164838	110	non	35	100	10	na
164848	10	noff	35	0	10	na
164958	110	non	35	100	10	na
164958	0	non	46	80	10	na
164968	10	noff	35	0	10	na
164968	0	noff	46	0	10	na
165198	230	non	42	59	10	na
165208	10	noff	42	0	10	na
165438	230	non	38	45	10	na
165438	0	non	42	72	10	na
165448	10	noff	38	0	10	na
165448	0	noff	42	0	10	na
165678	230	non	35	100	10	na
165678	0	non	42	63	10	na
165688	10	noff	35	0	10	na
165688	0	noff	42	0	10	na
165918	230	non	35	100	10	na
165918	0	non	42	72	10	na
165928	10	noff	35	0	10	na
165928	0	noff	42	0	10	na
166158	230	non	42	61	10	na
166168	10	noff	42	0	10	na
166278	110	non	35	100	10	na
166288	10	noff	35	0	10	na
166398	110	non	38	45	10	na
166398	0	non	42	72	10	na
166408	10	noff	38	0	10	na
166408	0	noff	42	0	10	na
166638	230	non	35	100	10	na
166638	0	non	42	61	10	na
166648	10	noff	35	0	10	na
166648	0	noff	42	0	10	na
166878	230	non	35	100	10	na
166878	0	non	46	81	10	na
166888	10	noff	35	0	10	na
166888	0	noff	46	0	10	na
167118	230	non	42	65	10	na
167128	10	noff	42	0	10	na
167358	230	non	38	45	10	na
167358	0	non	42	71	10	na
167368	10	noff	38	0	10	na
167368	0	noff	42	0	10	na
167598	230	non	42	63	10	na
167608	10	noff	42	0	10	na
167838	230	non	35	100	10	na
167838	0	non	42	71	10	na
167848	10	noff	35	0	10	na
167848	0	noff	42	0	10	na
168078	230	non	42	65	10	na
168088	10	noff	42	0	10	na
168198	110	non	35	100	10	na
168208	10	noff	35	0	10	na
168318	110	non	38	45	10	na
168318	0	non	42	74	10	na
168328	10	noff	38	0	10	na
168328	0	noff	42	0	10	na
168558	230	non	35	100	10	na
168558	0	non	42	65	10	na
168568	10	noff	35	0	10	na
168568	0	noff	42	0	10	na
168798	230	non	35	100	10	na
168798	0	non	46	80	10	na
168808	10	noff	35	0	10	na
168808	0	noff	46	0	10	na
169038	230	non	38	45	10	na
169038	0	non	42	76	10	na
169048	10	noff	38	0	10	na
169048	0	noff	42	0	10	na
169278	230	non	35	100	10	na
169278	0	non	42	64	10	na
169288	10	noff	35	0	10	na
169288	0	noff	42	0	10	na
169398	110	non	35	100	10	na
169408	10	noff	35	0	10	na
169518	110	non	38	45	10	na
169518	0	non	42	78	10	na
169528	10	noff	38	0	10	na
169528	0	noff	42	0	10	na
169638	110	non	35	100	10	na
169648	10	noff	35	0	10	na
169758	110	non	35	100	10	na
169758	0	non	42	67	10	na
169768	10	noff	35	0	10	na
169768	0	noff	42	0	10	na
169998	230	non	42	73	10	na
170008	10	noff	42	0	10	na
170118	110	non	35	100	10	na
170128	10	noff	35	0	10	na
170238	110	non	38	45	10	na
170238	0	non	42	65	10	na
170248	10	noff	38	0	10	na
170248	0	noff	42	0	10	na
170358	110	non	35	100	10	na
170368	10	noff	35	0	10	na
170478	110	non	35	100	10	na
170478	0	non	42	75	10	na
170488	10	noff	35	0	10	na
170488	0	noff	42	0	10	na
170718	230	non	35	100	10	na
170718	0	non	42	64	10	na
170728	10	noff	35	0	10	na
170728	0	noff	42	0	10	na
170958	230	non	42	74	10	na
170968	10	noff	42	0	10	na
171198	230	non	38	45	10	na
171198	0	non	42	63	10	na
171208	10	noff	38	0	10	na
171208	0	noff	42	0	10	na
171318	110	non	34	45	10	na
171328	10	noff	34	0	10	na
171438	110	non	35	100	10	na
171438	0	non	46	80	10	na
171448	10	noff	35	0	10	na
171448	0	noff	46	0	10	na
171558	110	non	34	45	10	na
171568	10	noff	34	0	10	na
171678	110	non	35	100	10	na
171678	0	non	42	100	10	na
171688	10	noff	35	0	10	na
171688	0	noff	42	0	10	na
172398	710	non	46	80	10	na
172408	10	noff	46	0	10	na
172638	230	non	44	100	10	na
172638	0	non	35	100	10	na
172638	0	non	38	45	10	na
172648	10	noff	44	0	10	na
172648	0	noff	35	0	10	na
172648	0	noff	38	0	10	na
173358	710	non	46	80	10	na
173368	10	noff	46	0	10	na
173598	230	non	44	100	10	na
173598	0	non	35	100	10	na
173608	10	noff	44	0	10	na
173608	0	noff	35	0	10	na
174318	710	non	46	80	10	na
174328	10	noff	46	0	10	na
174438	110	non	35	100	10	na
174448	10	noff	35	0	10	na
174558	110	non	44	100	10	na
174558	0	non	35	100	10	na
174568	10	noff	44	0	10	na
174568	0	noff	35	0	10	na
174798	230	non	42	100	10	na
174808	10	noff	42	0	10	na
175038	230	non	35	100	10	na
175038	0	non	38	45	10	na
175048	10	noff	35	0	10	na
175048	0	noff	38	0	10	na
175278	230	non	42	100	10	na
175288	10	noff	42	0	10	na
175398	110	non	42	100	10	na
175408	10	noff	42	0	10	na
175518	110	non	42	100	10	na
175518	0	non	35	100	10	na
175518	0	non	38	45	10	na
175528	10	noff	42	0	10	na
175528	0	noff	35	0	10	na
175528	0	noff	38	0	10	na
175998	470	non	35	100	10	na
176008	10	noff	35	0	10	na
176238	230	non	46	80	10	na
176248	10	noff	46	0	10	na
176478	230	non	44	100	10	na
176478	0	non	35	100	10	na
176478	0	non	38	45	10	na
176488	10	noff	44	0	10	na
176488	0	noff	35	0	10	na
176488	0	noff	38	0	10	na
177198	710	non	46	80	10	na
177198	0	non	35	100	10	na
177208	10	noff	46	0	10	na
177208	0	noff	35	0	10	na
177438	230	non	44	100	10	na
177438	0	non	35	100	10	na
177438	0	non	38	45	10	na
177448	10	noff	44	0	10	na
177448	0	noff	35	0	10	na
177448	0	noff	38	0	10	na
178158	710	non	46	80	10	na
178158	0	non	38	45	10	na
178168	10	noff	46	0	10	na
178168	0	noff	38	0	10	na
178278	110	non	35	100	10	na
178288	10	noff	35	0	10	na
178398	110	non	44	100	10	na
178398	0	non	35	100	10	na
178408	10	noff	44	0	10	na
178408	0	noff	35	0	10	na
178638	230	non	42	100	10	na
178638	0	non	38	45	10	na
178648	10	noff	42	0	10	na
178648	0	noff	38	0	10	na
178878	230	non	35	100	10	na
178878	0	non	38	45	10	na
178888	10	noff	35	0	10	na
178888	0	noff	38	0	10	na
179118	230	non	42	100	10	na
179118	0	non	35	100	10	na
179128	10	noff	42	0	10	na
179128	0	noff	35	0	10	na
179238	110	non	42	100	10	na
179238	0	non	38	45	10	na
179248	10	noff	42	0	10	na
179248	0	noff	38	0	10	na
179358	110	non	42	100	10	na
179358	0	non	35	100	10	na
179368	10	noff	42	0	10	na
179368	0	noff	35	0	10	na
179478	110	non	35	71	10	na
179488	10	noff	35	0	10	na
179718	230	non	35	74	10	na
179728	10	noff	35	0	10	na
179838	110	non	35	100	10	na
179848	10	noff	35	0	10	na
180078	230	non	46	80	10	na
180078	0	non	34	45	10	na
180088	10	noff	46	0	10	na
180088	0	noff	34	0	10	na
180318	230	non	35	100	10	na
180318	0	non	44	100	10	na
180328	10	noff	35	0	10	na
180328	0	noff	44	0	10	na
180438	110	non	35	71	10	na
180448	10	noff	35	0	10	na
180678	230	non	35	74	10	na
180678	0	non	42	100	10	na
180688	10	noff	35	0	10	na
180688	0	noff	42	0	10	na
180798	110	non	35	100	10	na
180808	10	noff	35	0	10	na
181038	230	non	46	80	10	na
181038	0	non	34	45	10	na
181048	10	noff	46	0	10	na
181048	0	noff	34	0	10	na
181278	230	non	35	100	10	na
181278	0	non	44	100	10	na
181278	0	non	34	45	10	na
181288	10	noff	35	0	10	na
181288	0	noff	44	0	10	na
181288	0	noff	34	0	10	na
181398	110	non	35	71	10	na
181408	10	noff	35	0	10	na
181638	230	non	35	74	10	na
181648	10	noff	35	0	10	na
181758	110	non	35	100	10	na
181768	10	noff	35	0	10	na
181998	230	non	46	80	10	na
181998	0	non	34	45	10	na
182008	10	noff	46	0	10	na
182008	0	noff	34	0	10	na
182118	110	non	35	71	10	na
182128	10	noff	35	0	10	na
182238	110	non	35	100	10	na
182238	0	non	42	100	10	na
182248	10	noff	35	0	10	na
182248	0	noff	42	0	10	na
182478	230	non	42	100	10	na
182488	10	noff	42	0	10	na
182598	110	non	35	78	10	na
182608	10	noff	35	0	10	na
182718	110	non	35	100	10	na
182728	10	noff	35	0	10	na
182838	110	non	42	100	10	na
182838	0	non	38	45	10	na
182848	10	noff	42	0	10	na
182848	0	noff	38	0	10	na
182958	110	non	35	100	10	na
182958	0	non	42	100	10	na
182968	10	noff	35	0	10	na
182968	0	noff	42	0	10	na
183078	110	non	42	100	10	na
183078	0	non	38	45	10	na
183088	10	noff	42	0	10	na
183088	0	noff	38	0	10	na
183198	110	non	35	100	10	na
183208	10	noff	35	0	10	na
183678	470	non	34	100	10	na
183678	0	non	38	45	10	na
183688	10	noff	34	0	10	na
183688	0	noff	38	0	10	na
183918	230	non	35	100	10	na
183918	0	non	46	80	10	na
183928	10	noff	35	0	10	na
183928	0	noff	46	0	10	na
184038	110	non	35	100	10	na
184048	10	noff	35	0	10	na
184158	110	non	35	100	10	na
184158	0	non	44	100	10	na
184168	10	noff	35	0	10	na
184168	0	noff	44	0	10	na
184638	470	non	38	45	10	na
184648	10	noff	38	0	10	na
184878	230	non	46	80	10	na
184878	0	non	35	100	10	na
184888	10	noff	46	0	10	na
184888	0	noff	35	0	10	na
184998	110	non	35	100	10	na
185008	10	noff	35	0	10	na
185118	110	non	44	100	10	na
185118	0	non	35	100	10	na
185118	0	non	38	45	10	na
185128	10	noff	44	0	10	na
185128	0	noff	35	0	10	na
185128	0	noff	38	0	10	na
185358	230	non	48	45	10	na
185368	10	noff	48	0	10	na
185598	230	non	35	100	10	na
185598	0	non	42	100	10	na
185608	10	noff	35	0	10	na
185608	0	noff	42	0	10	na
185838	230	non	46	80	10	na
185838	0	non	38	45	10	na
185838	0	non	47	45	10	na
185848	10	noff	46	0	10	na
185848	0	noff	38	0	10	na
185848	0	noff	47	0	10	na
185958	110	non	45	45	10	na
185968	10	noff	45	0	10	na
186078	110	non	35	100	10	na
186078	0	non	44	100	10	na
186088	10	noff	35	0	10	na
186088	0	noff	44	0	10	na
186198	110	non	38	45	10	na
186208	10	noff	38	0	10	na
186318	110	non	42	100	10	na
186318	0	non	43	45	10	na
186318	0	non	34	15	10	na
186328	10	noff	42	0	10	na
186328	0	noff	43	0	10	na
186328	0	noff	34	0	10	na
186378	50	non	42	100	10	na
186378	0	non	34	22	10	na
186388	10	noff	42	0	10	na
186388	0	noff	34	0	10	na
186438	50	non	42	100	10	na
186438	0	non	38	45	10	na
186438	0	non	34	26	10	na
186448	10	noff	42	0	10	na
186448	0	noff	38	0	10	na
186448	0	noff	34	0	10	na
186498	50	non	34	30	10	na
186508	10	noff	34	0	10	na
186558	50	non	35	100	10	na
186558	0	non	42	100	10	na
186558	0	non	38	45	10	na
186558	0	non	41	45	10	na
186558	0	non	34	34	10	na
186568	10	noff	35	0	10	na
186568	0	noff	42	0	10	na
186568	0	noff	38	0	10	na
186568	0	noff	41	0	10	na
186568	0	noff	34	0	10	na
186618	50	non	34	41	10	na
186628	10	noff	34	0	10	na
186678	50	non	41	45	10	na
186678	0	non	34	45	10	na
186688	10	noff	41	0	10	na
186688	0	noff	34	0	10	na
186738	50	non	34	49	10	na
186748	10	noff	34	0	10	na
186798	50	non	35	100	10	na
186798	0	non	46	80	10	na
186798	0	non	38	45	10	na
186798	0	non	41	45	10	na
186798	0	non	34	52	10	na
186808	10	noff	35	0	10	na
186808	0	noff	46	0	10	na
186808	0	noff	38	0	10	na
186808	0	noff	41	0	10	na
186808	0	noff	34	0	10	na
186858	50	non	34	60	10	na
186868	10	noff	34	0	10	na
186918	50	non	35	100	10	na
186918	0	non	34	92	10	na
186918	0	non	38	45	10	na
186928	10	noff	35	0	10	na
186928	0	noff	34	0	10	na
186928	0	noff	38	0	10	na
187038	110	non	35	100	10	na
187038	0	non	49	100	10	na
187038	0	non	57	100	10	na
187048	10	noff	35	0	10	na
187048	0	noff	49	0	10	na
187048	0	noff	57	0	10	na
187278	230	non	42	100	10	na
187288	10	noff	42	0	10	na
187398	110	non	35	100	10	na
187408	10	noff	35	0	10	na
187518	110	non	34	60	10	na
187528	10	noff	34	0	10	na
187638	110	non	35	100	10	na
187648	10	noff	35	0	10	na
187758	110	non	42	100	10	na
187758	0	non	34	60	10	na
187768	10	noff	42	0	10	na
187768	0	noff	34	0	10	na
187998	230	non	35	100	10	na
188008	10	noff	35	0	10	na
188238	230	non	42	100	10	na
188248	10	noff	42	0	10	na
188358	110	non	35	100	10	na
188358	0	non	42	66	10	na
188368	10	noff	35	0	10	na
188368	0	noff	42	0	10	na
188478	110	non	46	80	10	na
188478	0	non	34	60	10	na
188488	10	noff	46	0	10	na
188488	0	noff	34	0	10	na
188598	110	non	35	100	10	na
188608	10	noff	35	0	10	na
188718	110	non	34	60	10	na
188728	10	noff	34	0	10	na
188838	110	non	35	100	10	na
188848	10	noff	35	0	10	na
188958	110	non	35	100	10	na
188968	10	noff	35	0	10	na
189198	230	non	42	100	10	na
189208	10	noff	42	0	10	na
189318	110	non	35	100	10	na
189328	10	noff	35	0	10	na
189438	110	non	34	60	10	na
189448	10	noff	34	0	10	na
189678	230	non	42	100	10	na
189688	10	noff	42	0	10	na
189798	110	non	35	100	10	na
189798	0	non	34	46	10	na
189808	10	noff	35	0	10	na
189808	0	noff	34	0	10	na
189918	110	non	35	100	10	na
189928	10	noff	35	0	10	na
190158	230	non	42	100	10	na
190168	10	noff	42	0	10	na
190278	110	non	42	71	10	na
190288	10	noff	42	0	10	na
190398	110	non	46	80	10	na
190398	0	non	34	60	10	na
190408	10	noff	46	0	10	na
190408	0	noff	34	0	10	na
190518	110	non	35	100	10	na
190528	10	noff	35	0	10	na
190638	110	non	34	38	10	na
190648	10	noff	34	0	10	na
190758	110	non	35	100	10	na
190768	10	noff	35	0	10	na
190878	110	non	35	100	10	na
190888	10	noff	35	0	10	na
191118	230	non	42	100	10	na
191128	10	noff	42	0	10	na
191238	110	non	35	100	10	na
191248	10	noff	35	0	10	na
191358	110	non	34	60	10	na
191368	10	noff	34	0	10	na
191478	110	non	35	100	10	na
191488	10	noff	35	0	10	na
191598	110	non	42	100	10	na
191598	0	non	34	37	10	na
191608	10	noff	42	0	10	na
191608	0	noff	34	0	10	na
191838	230	non	35	100	10	na
191848	10	noff	35	0	10	na
192078	230	non	42	100	10	na
192088	10	noff	42	0	10	na
192198	110	non	35	100	10	na
192198	0	non	42	71	10	na
192208	10	noff	35	0	10	na
192208	0	noff	42	0	10	na
192318	110	non	46	80	10	na
192318	0	non	34	60	10	na
192328	10	noff	46	0	10	na
192328	0	noff	34	0	10	na
192438	110	non	35	100	10	na
192448	10	noff	35	0	10	na
192558	110	non	34	38	10	na
192568	10	noff	34	0	10	na
192678	110	non	35	100	10	na
192688	10	noff	35	0	10	na
192798	110	non	35	100	10	na
192808	10	noff	35	0	10	na
193038	230	non	42	100	10	na
193048	10	noff	42	0	10	na
193158	110	non	35	100	10	na
193168	10	noff	35	0	10	na
193278	110	non	34	60	10	na
193288	10	noff	34	0	10	na
193518	230	non	42	100	10	na
193518	0	non	34	35	10	na
193528	10	noff	42	0	10	na
193528	0	noff	34	0	10	na
193638	110	non	35	100	10	na
193648	10	noff	35	0	10	na
193758	110	non	35	100	10	na
193768	10	noff	35	0	10	na
193998	230	non	42	100	10	na
194008	10	noff	42	0	10	na
194238	230	non	34	60	10	na
194248	10	noff	34	0	10	na
194358	110	non	35	100	10	na
194358	0	non	34	36	10	na
194368	10	noff	35	0	10	na
194368	0	noff	34	0	10	na
194478	110	non	42	100	10	na
194478	0	non	34	60	10	na
194488	10	noff	42	0	10	na
194488	0	noff	34	0	10	na
194598	110	non	35	100	10	na
194598	0	non	42	100	10	na
194608	10	noff	35	0	10	na
194608	0	noff	42	0	10	na
194718	110	non	35	100	10	na
194728	10	noff	35	0	10	na
194958	230	non	42	100	10	na
194968	10	noff	42	0	10	na
195078	110	non	35	100	10	na
195088	10	noff	35	0	10	na
195198	110	non	34	56	10	na
195208	10	noff	34	0	10	na
195318	110	non	35	100	10	na
195328	10	noff	35	0	10	na
195438	110	non	42	100	10	na
195438	0	non	34	37	10	na
195448	10	noff	42	0	10	na
195448	0	noff	34	0	10	na
195678	230	non	35	100	10	na
195688	10	noff	35	0	10	na
195918	230	non	42	100	10	na
195928	10	noff	42	0	10	na
196038	110	non	35	100	10	na
196038	0	non	42	66	10	na
196048	10	noff	35	0	10	na
196048	0	noff	42	0	10	na
196158	110	non	46	80	10	na
196158	0	non	34	60	10	na
196168	10	noff	46	0	10	na
196168	0	noff	34	0	10	na
196278	110	non	35	100	10	na
196288	10	noff	35	0	10	na
196398	110	non	34	37	10	na
196408	10	noff	34	0	10	na
196518	110	non	35	100	10	na
196528	10	noff	35	0	10	na
196638	110	non	35	100	10	na
196648	10	noff	35	0	10	na
196878	230	non	42	100	10	na
196888	10	noff	42	0	10	na
196998	110	non	35	100	10	na
197008	10	noff	35	0	10	na
197118	110	non	34	60	10	na
197128	10	noff	34	0	10	na
197358	230	non	42	100	10	na
197358	0	non	34	35	10	na
197368	10	noff	42	0	10	na
197368	0	noff	34	0	10	na
197478	110	non	35	100	10	na
197488	10	noff	35	0	10	na
197598	110	non	35	100	10	na
197608	10	noff	35	0	10	na
197838	230	non	42	100	10	na
197848	10	noff	42	0	10	na
197958	110	non	42	66	10	na
197968	10	noff	42	0	10	na
198078	110	non	46	80	10	na
198078	0	non	34	60	10	na
198088	10	noff	46	0	10	na
198088	0	noff	34	0	10	na
198198	110	non	35	100	10	na
198208	10	noff	35	0	10	na
198318	110	non	34	39	10	na
198328	10	noff	34	0	10	na
198438	110	non	35	100	10	na
198448	10	noff	35	0	10	na
198558	110	non	35	100	10	na
198568	10	noff	35	0	10	na
198798	230	non	42	100	10	na
198808	10	noff	42	0	10	na
198918	110	non	35	100	10	na
198928	10	noff	35	0	10	na
199038	110	non	34	60	10	na
199048	10	noff	34	0	10	na
199158	110	non	35	100	10	na
199168	10	noff	35	0	10	na
199278	110	non	42	100	10	na
199278	0	non	34	40	10	na
199288	10	noff	42	0	10	na
199288	0	noff	34	0	10	na
199518	230	non	35	100	10	na
199528	10	noff	35	0	10	na
199758	230	non	42	100	10	na
199768	10	noff	42	0	10	na
199878	110	non	35	100	10	na
199878	0	non	42	66	10	na
199888	10	noff	35	0	10	na
199888	0	noff	42	0	10	na
199998	110	non	46	80	10	na
199998	0	non	34	60	10	na
200008	10	noff	46	0	10	na
200008	0	noff	34	0	10	na
200118	110	non	35	100	10	na
200128	10	noff	35	0	10	na
200238	110	non	34	38	10	na
200248	10	noff	34	0	10	na
200358	110	non	35	100	10	na
200368	10	noff	35	0	10	na
200478	110	non	35	100	10	na
200488	10	noff	35	0	10	na
200718	230	non	42	100	10	na
200728	10	noff	42	0	10	na
200838	110	non	35	100	10	na
200848	10	noff	35	0	10	na
200958	110	non	34	60	10	na
200968	10	noff	34	0	10	na
201198	230	non	42	100	10	na
201198	0	non	34	40	10	na
201208	10	noff	42	0	10	na
201208	0	noff	34	0	10	na
201318	110	non	35	100	10	na
201328	10	noff	35	0	10	na
201438	110	non	35	100	10	na
201438	0	non	34	60	10	na
201448	10	noff	35	0	10	na
201448	0	noff	34	0	10	na
201678	230	non	42	100	10	na
201688	10	noff	42	0	10	na
201798	110	non	42	66	10	na
201808	10	noff	42	0	10	na
201918	110	non	46	80	10	na
201918	0	non	34	60	10	na
201928	10	noff	46	0	10	na
201928	0	noff	34	0	10	na
202038	110	non	35	100	10	na
202038	0	non	34	40	10	na
202048	10	noff	35	0	10	na
202048	0	noff	34	0	10	na
202158	110	non	34	45	10	na
202168	10	noff	34	0	10	na
202218	50	non	34	50	10	na
202228	10	noff	34	0	10	na
202278	50	non	35	100	10	na
202278	0	non	34	56	10	na
202288	10	noff	35	0	10	na
202288	0	noff	34	0	10	na
202398	110	non	49	100	10	na
202398	0	non	57	100	10	na
202398	0	non	35	100	10	na
202408	10	noff	49	0	10	na
202408	0	noff	57	0	10	na
202408	0	noff	35	0	10	na
202638	230	non	42	100	10	na
202648	10	noff	42	0	10	na
202758	110	non	35	100	10	na
202768	10	noff	35	0	10	na
202878	110	non	34	60	10	na
202888	10	noff	34	0	10	na
202998	110	non	35	100	10	na
203008	10	noff	35	0	10	na
203118	110	non	42	100	10	na
203118	0	non	34	60	10	na
203128	10	noff	42	0	10	na
203128	0	noff	34	0	10	na
203358	230	non	35	100	10	na
203368	10	noff	35	0	10	na
203598	230	non	42	100	10	na
203608	10	noff	42	0	10	na
203718	110	non	35	100	10	na
203718	0	non	42	66	10	na
203728	10	noff	35	0	10	na
203728	0	noff	42	0	10	na
203838	110	non	46	80	10	na
203838	0	non	34	60	10	na
203848	10	noff	46	0	10	na
203848	0	noff	34	0	10	na
203958	110	non	35	100	10	na
203968	10	noff	35	0	10	na
204078	110	non	34	60	10	na
204088	10	noff	34	0	10	na
204198	110	non	35	100	10	na
204208	10	noff	35	0	10	na
204318	110	non	35	100	10	na
204328	10	noff	35	0	10	na
204558	230	non	42	100	10	na
204568	10	noff	42	0	10	na
204678	110	non	35	100	10	na
204688	10	noff	35	0	10	na
204798	110	non	34	60	10	na
204808	10	noff	34	0	10	na
205038	230	non	42	100	10	na
205048	10	noff	42	0	10	na
205158	110	non	35	100	10	na
205158	0	non	34	46	10	na
205168	10	noff	35	0	10	na
205168	0	noff	34	0	10	na
205278	110	non	35	100	10	na
205288	10	noff	35	0	10	na
205518	230	non	42	100	10	na
205528	10	noff	42	0	10	na
205638	110	non	42	71	10	na
205648	10	noff	42	0	10	na
205758	110	non	46	80	10	na
205758	0	non	34	60	10	na
205768	10	noff	46	0	10	na
205768	0	noff	34	0	10	na
205878	110	non	35	100	10	na
205888	10	noff	35	0	10	na
205998	110	non	34	38	10	na
206008	10	noff	34	0	10	na
206118	110	non	35	100	10	na
206128	10	noff	35	0	10	na
206238	110	non	35	100	10	na
206248	10	noff	35	0	10	na
206478	230	non	42	100	10	na
206488	10	noff	42	0	10	na
206598	110	non	35	100	10	na
206608	10	noff	35	0	10	na
206718	110	non	34	60	10	na
206728	10	noff	34	0	10	na
206838	110	non	35	100	10	na
206848	10	noff	35	0	10	na
206958	110	non	42	100	10	na
206958	0	non	34	37	10	na
206968	10	noff	42	0	10	na
206968	0	noff	34	0	10	na
207198	230	non	35	100	10	na
207208	10	noff	35	0	10	na
207438	230	non	42	100	10	na
207448	10	noff	42	0	10	na
207558	110	non	35	100	10	na
207558	0	non	42	71	10	na
207568	10	noff	35	0	10	na
207568	0	noff	42	0	10	na
207678	110	non	46	80	10	na
207678	0	non	34	60	10	na
207688	10	noff	46	0	10	na
207688	0	noff	34	0	10	na
207798	110	non	35	100	10	na
207808	10	noff	35	0	10	na
207918	110	non	34	38	10	na
207928	10	noff	34	0	10	na
208038	110	non	35	100	10	na
208048	10	noff	35	0	10	na
208158	110	non	35	100	10	na
208168	10	noff	35	0	10	na
208398	230	non	42	100	10	na
208408	10	noff	42	0	10	na
208518	110	non	35	100	10	na
208528	10	noff	35	0	10	na
208638	110	non	34	60	10	na
208648	10	noff	34	0	10	na
208878	230	non	42	100	10	na
208878	0	non	34	35	10	na
208888	10	noff	42	0	10	na
208888	0	noff	34	0	10	na
208998	110	non	35	100	10	na
209008	10	noff	35	0	10	na
209118	110	non	35	100	10	na
209128	10	noff	35	0	10	na
209358	230	non	42	100	10	na
209368	10	noff	42	0	10	na
209598	230	non	34	60	10	na
209608	10	noff	34	0	10	na
209718	110	non	35	100	10	na
209718	0	non	34	36	10	na
209728	10	noff	35	0	10	na
209728	0	noff	34	0	10	na
209838	110	non	42	100	10	na
209838	0	non	34	60	10	na
209848	10	noff	42	0	10	na
209848	0	noff	34	0	10	na
209958	110	non	35	100	10	na
209958	0	non	42	100	10	na
209968	10	noff	35	0	10	na
209968	0	noff	42	0	10	na
210078	110	non	35	100	10	na
210088	10	noff	35	0	10	na
210318	230	non	42	100	10	na
210328	10	noff	42	0	10	na
210438	110	non	35	100	10	na
210448	10	noff	35	0	10	na
210558	110	non	34	56	10	na
210568	10	noff	34	0	10	na
210678	110	non	35	100	10	na
210688	10	noff	35	0	10	na
210798	110	non	42	100	10	na
210798	0	non	34	37	10	na
210808	10	noff	42	0	10	na
210808	0	noff	34	0	10	na
211038	230	non	35	100	10	na
211048	10	noff	35	0	10	na
211278	230	non	42	100	10	na
211288	10	noff	42	0	10	na
211398	110	non	35	100	10	na
211398	0	non	42	66	10	na
211408	10	noff	35	0	10	na
211408	0	noff	42	0	10	na
211518	110	non	46	80	10	na
211518	0	non	34	60	10	na
211528	10	noff	46	0	10	na
211528	0	noff	34	0	10	na
211638	110	non	35	100	10	na
211648	10	noff	35	0	10	na
211758	110	non	34	37	10	na
211768	10	noff	34	0	10	na
211878	110	non	35	100	10	na
211888	10	noff	35	0	10	na
211998	110	non	35	100	10	na
212008	10	noff	35	0	10	na
212238	230	non	42	100	10	na
212248	10	noff	42	0	10	na
212358	110	non	35	100	10	na
212368	10	noff	35	0	10	na
212478	110	non	34	60	10	na
212488	10	noff	34	0	10	na
212718	230	non	42	100	10	na
212718	0	non	34	35	10	na
212728	10	noff	42	0	10	na
212728	0	noff	34	0	10	na
212838	110	non	35	100	10	na
212848	10	noff	35	0	10	na
212958	110	non	35	100	10	na
212968	10	noff	35	0	10	na
213198	230	non	42	100	10	na
213208	10	noff	42	0	10	na
213318	110	non	42	66	10	na
213328	10	noff	42	0	10	na
213438	110	non	46	80	10	na
213438	0	non	34	60	10	na
213448	10	noff	46	0	10	na
213448	0	noff	34	0	10	na
213558	110	non	35	100	10	na
213568	10	noff	35	0	10	na
213678	110	non	34	39	10	na
213688	10	noff	34	0	10	na
213798	110	non	35	100	10	na
213808	10	noff	35	0	10	na
213918	110	non	35	100	10	na
213928	10	noff	35	0	10	na
214158	230	non	42	100	10	na
214168	10	noff	42	0	10	na
214278	110	non	35	100	10	na
214288	10	noff	35	0	10	na
214398	110	non	34	60	10	na
214408	10	noff	34	0	10	na
214518	110	non	35	100	10	na
214528	10	noff	35	0	10	na
214638	110	non	42	100	10	na
214638	0	non	34	40	10	na
214648	10	noff	42	0	10	na
214648	0	noff	34	0	10	na
214878	230	non	35	100	10	na
214888	10	noff	35	0	10	na
215118	230	non	42	100	10	na
215128	10	noff	42	0	10	na
215238	110	non	35	100	10	na
215238	0	non	42	66	10	na
215248	10	noff	35	0	10	na
215248	0	noff	42	0	10	na
215358	110	non	46	80	10	na
215358	0	non	34	60	10	na
215368	10	noff	46	0	10	na
215368	0	noff	34	0	10	na
215478	110	non	35	100	10	na
215488	10	noff	35	0	10	na
215598	110	non	34	38	10	na
215608	10	noff	34	0	10	na
215718	110	non	35	100	10	na
215728	10	noff	35	0	10	na
215838	110	non	35	100	10	na
215848	10	noff	35	0	10	na
216078	230	non	42	100	10	na
216088	10	noff	42	0	10	na
216198	110	non	35	100	10	na
216208	10	noff	35	0	10	na
216318	110	non	34	60	10	na
216328	10	noff	34	0	10	na
216558	230	non	42	100	10	na
216558	0	non	34	40	10	na
216568	10	noff	42	0	10	na
216568	0	noff	34	0	10	na
216678	110	non	35	100	10	na
216688	10	noff	35	0	10	na
216798	110	non	35	100	10	na
216798	0	non	34	60	10	na
216808	10	noff	35	0	10	na
216808	0	noff	34	0	10	na
217038	230	non	42	100	10	na
217048	10	noff	42	0	10	na
217158	110	non	42	66	10	na
217168	10	noff	42	0	10	na
217278	110	non	46	80	10	na
217278	0	non	34	60	10	na
217288	10	noff	46	0	10	na
217288	0	noff	34	0	10	na
217398	110	non	35	100	10	na
217398	0	non	34	40	10	na
217408	10	noff	35	0	10	na
217408	0	noff	34	0	10	na
217518	110	non	34	45	10	na
217528	10	noff	34	0	10	na
217578	50	non	34	50	10	na
217588	10	noff	34	0	10	na
217638	50	non	35	100	10	na
217638	0	non	40	56	10	na
217648	10	noff	35	0	10	na
217648	0	noff	40	0	10	na
cumTime	delTime	event	pitch	vel	chan	value
cumTime	delTime	event	pitch	vel	chan	value
47838	47838	non	66	86	11	na
48318	480	noff	66	0	11	na
48318	0	non	68	91	11	na
48618	300	noff	68	0	11	na
48798	180	non	70	92	11	na
50178	1380	noff	70	0	11	na
50238	60	non	68	95	11	na
50478	240	noff	68	0	11	na
50478	0	non	66	92	11	na
50718	240	noff	66	0	11	na
50718	0	non	65	88	11	na
51078	360	noff	65	0	11	na
51078	0	non	66	92	11	na
51318	240	noff	66	0	11	na
51438	120	non	75	100	11	na
51618	180	noff	75	0	11	na
51678	60	non	70	88	11	na
51858	180	noff	70	0	11	na
52158	300	non	63	86	11	na
52398	240	noff	63	0	11	na
52398	0	non	65	92	11	na
52518	120	noff	65	0	11	na
52638	120	non	66	97	11	na
52818	180	noff	66	0	11	na
52878	60	non	68	97	11	na
52998	120	noff	68	0	11	na
52998	0	non	66	97	11	na
53118	120	noff	66	0	11	na
53238	120	non	66	94	11	na
53358	120	noff	66	0	11	na
53358	0	non	65	93	11	na
53538	180	noff	65	0	11	na
53598	60	non	61	91	11	na
53778	180	noff	61	0	11	na
53838	60	non	58	87	11	na
54078	240	noff	58	0	11	na
54078	0	non	61	91	11	na
54318	240	noff	61	0	11	na
54318	0	non	58	85	11	na
54438	120	noff	58	0	11	na
54558	120	non	63	83	11	na
54738	180	noff	63	0	11	na
54798	60	non	65	84	11	na
55038	240	noff	65	0	11	na
55038	0	non	66	88	11	na
55278	240	noff	66	0	11	na
55278	0	non	73	102	11	na
55518	240	noff	73	0	11	na
55518	0	non	70	97	11	na
55998	480	noff	70	0	11	na
55998	0	non	66	87	11	na
56238	240	noff	66	0	11	na
56238	0	non	68	88	11	na
56478	240	noff	68	0	11	na
56478	0	non	70	90	11	na
57438	960	noff	70	0	11	na
57678	240	non	70	88	11	na
57918	240	noff	70	0	11	na
57918	0	non	75	94	11	na
58158	240	noff	75	0	11	na
58158	0	non	77	95	11	na
58398	240	noff	77	0	11	na
58398	0	non	78	95	11	na
58638	240	noff	78	0	11	na
58758	120	non	77	91	11	na
59118	360	noff	77	0	11	na
59118	0	non	73	90	11	na
59358	240	noff	73	0	11	na
59358	0	non	75	86	11	na
59718	360	noff	75	0	11	na
59838	120	non	75	89	11	na
60078	240	noff	75	0	11	na
60078	0	non	77	95	11	na
60318	240	noff	77	0	11	na
60318	0	non	78	97	11	na
60558	240	noff	78	0	11	na
60558	0	non	80	100	11	na
60678	120	noff	80	0	11	na
60678	0	non	78	97	11	na
60798	120	noff	78	0	11	na
60918	120	non	77	91	11	na
61038	120	noff	77	0	11	na
61038	0	non	73	88	11	na
61278	240	noff	73	0	11	na
61278	0	non	70	86	11	na
61518	240	noff	70	0	11	na
61518	0	non	68	85	11	na
61758	240	noff	68	0	11	na
61758	0	non	70	87	11	na
61998	240	noff	70	0	11	na
61998	0	non	75	90	11	na
64038	2040	noff	75	0	11	na
77598	13560	non	61	100	11	na
77718	120	noff	61	0	11	na
77718	0	non	66	100	11	na
77838	120	noff	66	0	11	na
77838	0	non	69	100	11	na
77958	120	noff	69	0	11	na
78078	120	non	61	100	11	na
78198	120	noff	61	0	11	na
78318	120	non	61	100	11	na
78438	120	noff	61	0	11	na
78558	120	non	64	100	11	na
78678	120	noff	64	0	11	na
78798	120	non	66	100	11	na
78918	120	noff	66	0	11	na
79038	120	non	68	100	11	na
79278	240	noff	68	0	11	na
79278	0	non	69	100	11	na
79398	120	noff	69	0	11	na
79398	0	non	71	100	11	na
79458	60	non	76	100	11	na
79518	60	noff	71	0	11	na
79518	0	non	78	100	11	na
79578	60	noff	76	0	11	na
80118	540	noff	78	0	11	na
80238	120	non	76	106	11	na
80358	120	noff	76	0	11	na
80478	120	non	71	97	11	na
80838	360	noff	71	0	11	na
80838	0	non	73	100	11	na
81198	360	noff	73	0	11	na
81198	0	non	76	106	11	na
81318	120	noff	76	0	11	na
81438	120	non	78	108	11	na
81678	240	noff	78	0	11	na
81798	120	non	81	109	11	na
82038	240	noff	81	0	11	na
82158	120	non	80	111	11	na
82398	240	noff	80	0	11	na
82398	0	non	73	100	11	na
83118	720	noff	73	0	11	na
83118	0	non	78	98	11	na
83238	120	noff	78	0	11	na
83238	0	non	80	100	11	na
83358	120	noff	80	0	11	na
83358	0	non	81	104	11	na
83538	180	noff	81	0	11	na
83718	180	non	83	106	11	na
84078	360	noff	83	0	11	na
84078	0	non	81	97	11	na
84198	120	noff	81	0	11	na
84318	120	non	80	106	11	na
84618	300	noff	80	0	11	na
84618	0	non	76	89	11	na
84678	60	noff	76	0	11	na
84678	0	non	77	100	11	na
85038	360	noff	77	0	11	na
85038	0	non	73	91	11	na
85158	120	noff	73	0	11	na
85278	120	non	80	96	11	na
85998	720	noff	80	0	11	na
85998	0	non	81	100	11	na
86178	180	noff	81	0	11	na
86238	60	non	81	100	11	na
86838	600	noff	81	0	11	na
86958	120	non	73	98	11	na
87078	120	noff	73	0	11	na
87078	0	non	76	99	11	na
87198	120	noff	76	0	11	na
87198	0	non	78	102	11	na
87918	720	noff	78	0	11	na
87918	0	non	76	95	11	na
88038	120	noff	76	0	11	na
88158	120	non	71	93	11	na
88518	360	noff	71	0	11	na
88518	0	non	73	100	11	na
88878	360	noff	73	0	11	na
88878	0	non	76	104	11	na
88998	120	noff	76	0	11	na
89118	120	non	78	107	11	na
89358	240	noff	78	0	11	na
89478	120	non	81	109	11	na
89718	240	noff	81	0	11	na
89838	120	non	80	109	11	na
89958	120	noff	80	0	11	na
90078	120	non	78	104	11	na
90738	660	noff	78	0	11	na
90798	60	non	78	102	11	na
90918	120	noff	78	0	11	na
90918	0	non	80	104	11	na
91038	120	noff	80	0	11	na
91038	0	non	81	108	11	na
91278	240	noff	81	0	11	na
91398	120	non	83	109	11	na
91758	360	noff	83	0	11	na
91758	0	non	81	111	11	na
91878	120	noff	81	0	11	na
91998	120	non	80	111	11	na
92178	180	noff	80	0	11	na
92358	180	non	77	107	11	na
92718	360	noff	77	0	11	na
92718	0	non	73	104	11	na
92838	120	noff	73	0	11	na
92958	120	non	78	97	11	na
95598	2640	noff	78	0	11	na
95598	0	non	76	92	11	na
95718	120	noff	76	0	11	na
95838	120	non	71	88	11	na
96078	240	noff	71	0	11	na
96198	120	non	73	94	11	na
96438	240	noff	73	0	11	na
96558	120	non	76	95	11	na
96678	120	noff	76	0	11	na
96798	120	non	78	97	11	na
97038	240	noff	78	0	11	na
97158	120	non	81	99	11	na
97518	360	noff	81	0	11	na
97518	0	non	80	97	11	na
97638	120	noff	80	0	11	na
97758	120	non	73	93	11	na
98478	720	noff	73	0	11	na
98478	0	non	78	98	11	na
98598	120	noff	78	0	11	na
98598	0	non	80	99	11	na
98718	120	noff	80	0	11	na
98718	0	non	81	101	11	na
98958	240	noff	81	0	11	na
99078	120	non	83	104	11	na
99378	300	noff	83	0	11	na
99438	60	non	81	106	11	na
99558	120	noff	81	0	11	na
99678	120	non	80	103	11	na
99978	300	noff	80	0	11	na
100038	60	non	77	99	11	na
100338	300	noff	77	0	11	na
100398	60	non	73	90	11	na
100518	120	noff	73	0	11	na
100638	120	non	80	93	11	na
101358	720	noff	80	0	11	na
101358	0	non	81	97	11	na
101538	180	noff	81	0	11	na
101598	60	non	81	91	11	na
102198	600	noff	81	0	11	na
102318	120	non	73	90	11	na
102438	120	noff	73	0	11	na
102438	0	non	76	92	11	na
102558	120	noff	76	0	11	na
102558	0	non	78	97	11	na
103218	660	noff	78	0	11	na
103278	60	non	76	91	11	na
103398	120	noff	76	0	11	na
103518	120	non	71	89	11	na
103818	300	noff	71	0	11	na
103878	60	non	73	89	11	na
104178	300	noff	73	0	11	na
104238	60	non	76	94	11	na
104358	120	noff	76	0	11	na
104478	120	non	78	95	11	na
104718	240	noff	78	0	11	na
104838	120	non	81	97	11	na
105198	360	noff	81	0	11	na
105198	0	non	80	99	11	na
105318	120	noff	80	0	11	na
105438	120	non	78	97	11	na
106098	660	noff	78	0	11	na
106158	60	non	78	100	11	na
106278	120	noff	78	0	11	na
106278	0	non	80	101	11	na
106398	120	noff	80	0	11	na
106398	0	non	81	100	11	na
106638	240	noff	81	0	11	na
106758	120	non	83	100	11	na
106998	240	noff	83	0	11	na
107118	120	non	81	98	11	na
107238	120	noff	81	0	11	na
107358	120	non	80	98	11	na
107598	240	noff	80	0	11	na
107718	120	non	77	97	11	na
107958	240	noff	77	0	11	na
108078	120	non	73	95	11	na
108198	120	noff	73	0	11	na
108208	10	non	78	91	11	na
108218	10	noff	78	0	11	na
108218	0	non	73	87	11	na
109398	1180	noff	73	0	11	na
109398	0	non	64	83	11	na
109878	480	noff	64	0	11	na
109878	0	non	66	80	11	na
109898	20	noff	66	0	11	na
110078	180	non	66	85	11	na
110378	300	noff	66	0	11	na
110438	60	non	68	91	11	na
110738	300	noff	68	0	11	na
110798	60	non	69	97	11	na
110918	120	noff	69	0	11	na
110938	20	non	71	100	11	na
110958	20	noff	71	0	11	na
110958	0	non	68	88	11	na
111308	350	noff	68	0	11	na
111308	0	non	69	95	11	na
111608	300	noff	69	0	11	na
111668	60	non	68	92	11	na
111968	300	noff	68	0	11	na
112088	120	non	64	83	11	na
112208	120	noff	64	0	11	na
112268	60	non	61	82	11	na
112318	50	noff	61	0	11	na
141428	29110	non	66	86	11	na
141908	480	noff	66	0	11	na
141908	0	non	68	91	11	na
142208	300	noff	68	0	11	na
142388	180	non	70	92	11	na
143768	1380	noff	70	0	11	na
143828	60	non	68	95	11	na
144068	240	noff	68	0	11	na
144068	0	non	66	92	11	na
144308	240	noff	66	0	11	na
144308	0	non	65	88	11	na
144668	360	noff	65	0	11	na
144668	0	non	66	92	11	na
144908	240	noff	66	0	11	na
145028	120	non	75	100	11	na
145208	180	noff	75	0	11	na
145268	60	non	70	88	11	na
145448	180	noff	70	0	11	na
145748	300	non	63	86	11	na
145988	240	noff	63	0	11	na
145988	0	non	65	92	11	na
146108	120	noff	65	0	11	na
146228	120	non	66	97	11	na
146408	180	noff	66	0	11	na
146468	60	non	68	97	11	na
146588	120	noff	68	0	11	na
146588	0	non	66	97	11	na
146708	120	noff	66	0	11	na
146828	120	non	66	94	11	na
146948	120	noff	66	0	11	na
146948	0	non	65	93	11	na
147128	180	noff	65	0	11	na
147188	60	non	61	91	11	na
147368	180	noff	61	0	11	na
147428	60	non	58	87	11	na
147668	240	noff	58	0	11	na
147668	0	non	61	91	11	na
147908	240	noff	61	0	11	na
147908	0	non	58	85	11	na
148028	120	noff	58	0	11	na
148148	120	non	63	83	11	na
148328	180	noff	63	0	11	na
148388	60	non	65	84	11	na
148628	240	noff	65	0	11	na
148628	0	non	66	88	11	na
148868	240	noff	66	0	11	na
148868	0	non	73	102	11	na
149108	240	noff	73	0	11	na
149108	0	non	70	97	11	na
149588	480	noff	70	0	11	na
149588	0	non	66	87	11	na
149828	240	noff	66	0	11	na
149828	0	non	68	88	11	na
150068	240	noff	68	0	11	na
150068	0	non	70	90	11	na
151028	960	noff	70	0	11	na
151268	240	non	70	88	11	na
151508	240	noff	70	0	11	na
151508	0	non	75	94	11	na
151748	240	noff	75	0	11	na
151748	0	non	77	95	11	na
151988	240	noff	77	0	11	na
151988	0	non	78	95	11	na
152228	240	noff	78	0	11	na
152348	120	non	77	91	11	na
152708	360	noff	77	0	11	na
152708	0	non	73	90	11	na
152948	240	noff	73	0	11	na
152948	0	non	75	86	11	na
153308	360	noff	75	0	11	na
153428	120	non	75	89	11	na
153668	240	noff	75	0	11	na
153668	0	non	77	95	11	na
153908	240	noff	77	0	11	na
153908	0	non	78	97	11	na
154148	240	noff	78	0	11	na
154148	0	non	80	100	11	na
154268	120	noff	80	0	11	na
154268	0	non	78	97	11	na
154388	120	noff	78	0	11	na
154508	120	non	77	91	11	na
154628	120	noff	77	0	11	na
154628	0	non	73	88	11	na
154868	240	noff	73	0	11	na
154868	0	non	70	86	11	na
155108	240	noff	70	0	11	na
155108	0	non	68	85	11	na
155348	240	noff	68	0	11	na
155348	0	non	70	87	11	na
155588	240	noff	70	0	11	na
155588	0	non	75	90	11	na
157628	2040	noff	75	0	11	na
171188	13560	non	61	100	11	na
171308	120	noff	61	0	11	na
171308	0	non	66	100	11	na
171428	120	noff	66	0	11	na
171428	0	non	69	100	11	na
171548	120	noff	69	0	11	na
171668	120	non	61	100	11	na
171788	120	noff	61	0	11	na
171908	120	non	61	100	11	na
172028	120	noff	61	0	11	na
172148	120	non	64	100	11	na
172268	120	noff	64	0	11	na
172388	120	non	66	100	11	na
172508	120	noff	66	0	11	na
172628	120	non	68	100	11	na
172868	240	noff	68	0	11	na
172868	0	non	69	100	11	na
172988	120	noff	69	0	11	na
172988	0	non	71	100	11	na
173048	60	non	76	100	11	na
173108	60	noff	71	0	11	na
173108	0	non	78	100	11	na
173168	60	noff	76	0	11	na
173708	540	noff	78	0	11	na
173828	120	non	76	106	11	na
173948	120	noff	76	0	11	na
174068	120	non	71	97	11	na
174428	360	noff	71	0	11	na
174428	0	non	73	100	11	na
174788	360	noff	73	0	11	na
174788	0	non	76	106	11	na
174908	120	noff	76	0	11	na
175028	120	non	78	108	11	na
175268	240	noff	78	0	11	na
175388	120	non	81	109	11	na
175628	240	noff	81	0	11	na
175748	120	non	80	111	11	na
175988	240	noff	80	0	11	na
175988	0	non	73	100	11	na
176708	720	noff	73	0	11	na
176708	0	non	78	98	11	na
176828	120	noff	78	0	11	na
176828	0	non	80	100	11	na
176948	120	noff	80	0	11	na
176948	0	non	81	104	11	na
177128	180	noff	81	0	11	na
177308	180	non	83	106	11	na
177668	360	noff	83	0	11	na
177668	0	non	81	97	11	na
177788	120	noff	81	0	11	na
177908	120	non	80	106	11	na
178208	300	noff	80	0	11	na
178208	0	non	76	89	11	na
178268	60	noff	76	0	11	na
178268	0	non	77	100	11	na
178628	360	noff	77	0	11	na
178628	0	non	73	91	11	na
178748	120	noff	73	0	11	na
178868	120	non	80	96	11	na
179588	720	noff	80	0	11	na
179588	0	non	81	100	11	na
179768	180	noff	81	0	11	na
179828	60	non	81	100	11	na
180428	600	noff	81	0	11	na
180548	120	non	73	98	11	na
180668	120	noff	73	0	11	na
180668	0	non	76	99	11	na
180788	120	noff	76	0	11	na
180788	0	non	78	102	11	na
181508	720	noff	78	0	11	na
181508	0	non	76	95	11	na
181628	120	noff	76	0	11	na
181748	120	non	71	93	11	na
182108	360	noff	71	0	11	na
182108	0	non	73	100	11	na
182468	360	noff	73	0	11	na
182468	0	non	76	104	11	na
182588	120	noff	76	0	11	na
182708	120	non	78	107	11	na
182948	240	noff	78	0	11	na
183068	120	non	81	109	11	na
183308	240	noff	81	0	11	na
183428	120	non	80	109	11	na
183548	120	noff	80	0	11	na
183668	120	non	78	104	11	na
184328	660	noff	78	0	11	na
184388	60	non	78	102	11	na
184508	120	noff	78	0	11	na
184508	0	non	80	104	11	na
184628	120	noff	80	0	11	na
184628	0	non	81	108	11	na
184868	240	noff	81	0	11	na
184988	120	non	83	109	11	na
185348	360	noff	83	0	11	na
185348	0	non	81	111	11	na
185468	120	noff	81	0	11	na
185588	120	non	80	111	11	na
185768	180	noff	80	0	11	na
185948	180	non	77	107	11	na
186308	360	noff	77	0	11	na
186308	0	non	73	104	11	na
186428	120	noff	73	0	11	na
186548	120	non	78	97	11	na
189188	2640	noff	78	0	11	na
189188	0	non	76	92	11	na
189308	120	noff	76	0	11	na
189428	120	non	71	88	11	na
189668	240	noff	71	0	11	na
189788	120	non	73	94	11	na
190028	240	noff	73	0	11	na
190148	120	non	76	95	11	na
190268	120	noff	76	0	11	na
190388	120	non	78	97	11	na
190628	240	noff	78	0	11	na
190748	120	non	81	99	11	na
191108	360	noff	81	0	11	na
191108	0	non	80	97	11	na
191228	120	noff	80	0	11	na
191348	120	non	73	93	11	na
192068	720	noff	73	0	11	na
192068	0	non	78	98	11	na
192188	120	noff	78	0	11	na
192188	0	non	80	99	11	na
192308	120	noff	80	0	11	na
192308	0	non	81	101	11	na
192548	240	noff	81	0	11	na
192668	120	non	83	104	11	na
192968	300	noff	83	0	11	na
193028	60	non	81	106	11	na
193148	120	noff	81	0	11	na
193268	120	non	80	103	11	na
193568	300	noff	80	0	11	na
193628	60	non	77	99	11	na
193928	300	noff	77	0	11	na
193988	60	non	73	90	11	na
194108	120	noff	73	0	11	na
194228	120	non	80	93	11	na
194948	720	noff	80	0	11	na
194948	0	non	81	97	11	na
195128	180	noff	81	0	11	na
195188	60	non	81	91	11	na
195788	600	noff	81	0	11	na
195908	120	non	73	90	11	na
196028	120	noff	73	0	11	na
196028	0	non	76	92	11	na
196148	120	noff	76	0	11	na
196148	0	non	78	97	11	na
196808	660	noff	78	0	11	na
196868	60	non	76	91	11	na
196988	120	noff	76	0	11	na
197108	120	non	71	89	11	na
197408	300	noff	71	0	11	na
197468	60	non	73	89	11	na
197768	300	noff	73	0	11	na
197828	60	non	76	94	11	na
197948	120	noff	76	0	11	na
198068	120	non	78	95	11	na
198308	240	noff	78	0	11	na
198428	120	non	81	97	11	na
198788	360	noff	81	0	11	na
198788	0	non	80	99	11	na
198908	120	noff	80	0	11	na
199028	120	non	78	97	11	na
199688	660	noff	78	0	11	na
199748	60	non	78	100	11	na
199868	120	noff	78	0	11	na
199868	0	non	80	101	11	na
199988	120	noff	80	0	11	na
199988	0	non	81	100	11	na
200228	240	noff	81	0	11	na
200348	120	non	83	100	11	na
200588	240	noff	83	0	11	na
200708	120	non	81	98	11	na
200828	120	noff	81	0	11	na
200948	120	non	80	98	11	na
201188	240	noff	80	0	11	na
201308	120	non	77	97	11	na
201548	240	noff	77	0	11	na
201668	120	non	73	95	11	na
201788	120	noff	73	0	11	na
201908	120	non	78	91	11	na
203768	1860	noff	78	0	11	na
cumTime	delTime	event	pitch	vel	chan	value
186318	186318	non	66	85	12	na
186438	120	noff	66	0	12	na
186438	0	non	68	91	12	na
186558	120	noff	68	0	12	na
186558	0	non	68	95	12	na
186678	120	noff	68	0	12	na
186798	120	non	69	93	12	na
186918	120	noff	69	0	12	na
186918	0	non	71	95	12	na
187038	120	noff	71	0	12	na
187038	0	non	74	98	12	na
187758	720	noff	74	0	12	na
187758	0	non	73	95	12	na
187998	240	noff	73	0	12	na
187998	0	non	66	85	12	na
188358	360	noff	66	0	12	na
188358	0	non	69	88	12	na
188718	360	noff	69	0	12	na
188718	0	non	73	93	12	na
188958	240	noff	73	0	12	na
188958	0	non	73	95	12	na
189318	360	noff	73	0	12	na
189318	0	non	78	100	12	na
189678	360	noff	78	0	12	na
189678	0	non	76	95	12	na
189918	240	noff	76	0	12	na
189918	0	non	69	89	12	na
190398	480	noff	69	0	12	na
190398	0	non	66	80	12	na
190518	120	noff	66	0	12	na
190518	0	non	69	87	12	na
190638	120	noff	69	0	12	na
190638	0	non	71	90	12	na
190758	120	noff	71	0	12	na
190758	0	non	73	96	12	na
190878	120	noff	73	0	12	na
190878	0	non	78	100	12	na
191238	360	noff	78	0	12	na
191238	0	non	80	103	12	na
191598	360	noff	80	0	12	na
191598	0	non	78	100	12	na
191838	240	noff	78	0	12	na
191838	0	non	77	95	12	na
192198	360	noff	77	0	12	na
192198	0	non	73	93	12	na
192558	360	noff	73	0	12	na
192558	0	non	69	84	12	na
192798	240	noff	69	0	12	na
192798	0	non	73	89	12	na
193278	480	noff	73	0	12	na
193278	0	non	69	81	12	na
193398	120	noff	69	0	12	na
193398	0	non	71	84	12	na
193518	120	noff	71	0	12	na
193518	0	non	73	84	12	na
193758	240	noff	73	0	12	na
193758	0	non	78	94	12	na
194238	480	noff	78	0	12	na
194238	0	non	73	93	12	na
194478	240	noff	73	0	12	na
194478	0	non	69	88	12	na
194718	240	noff	69	0	12	na
194718	0	non	71	87	12	na
195438	720	noff	71	0	12	na
195438	0	non	71	89	12	na
195678	240	noff	71	0	12	na
195678	0	non	68	86	12	na
196038	360	noff	68	0	12	na
196038	0	non	69	88	12	na
196398	360	noff	69	0	12	na
196398	0	non	71	90	12	na
196518	120	noff	71	0	12	na
196518	0	non	69	88	12	na
196638	120	noff	69	0	12	na
196638	0	non	66	85	12	na
196758	120	noff	66	0	12	na
196758	0	non	69	87	12	na
196878	120	noff	69	0	12	na
196878	0	non	71	89	12	na
196998	120	noff	71	0	12	na
196998	0	non	69	93	12	na
197118	120	noff	69	0	12	na
197118	0	non	73	97	12	na
197238	120	noff	73	0	12	na
197238	0	non	78	97	12	na
197358	120	noff	78	0	12	na
197358	0	non	73	96	12	na
197478	120	noff	73	0	12	na
197478	0	non	69	94	12	na
197598	120	noff	69	0	12	na
197598	0	non	73	93	12	na
198078	480	noff	73	0	12	na
198078	0	non	69	81	12	na
198318	240	noff	69	0	12	na
198318	0	non	73	89	12	na
198558	240	noff	73	0	12	na
198558	0	non	74	91	12	na
199278	720	noff	74	0	12	na
199278	0	non	74	93	12	na
199518	240	noff	74	0	12	na
199518	0	non	73	89	12	na
199878	360	noff	73	0	12	na
199878	0	non	71	85	12	na
200238	360	noff	71	0	12	na
200238	0	non	69	78	12	na
200478	240	noff	69	0	12	na
200478	0	non	66	79	12	na
200598	120	noff	66	0	12	na
200598	0	non	69	82	12	na
200718	120	noff	69	0	12	na
200718	0	non	68	85	12	na
200838	120	noff	68	0	12	na
200838	0	non	73	89	12	na
200958	120	noff	73	0	12	na
200958	0	non	78	91	12	na
201078	120	noff	78	0	12	na
201078	0	non	85	98	12	na
201198	120	noff	85	0	12	na
201198	0	non	81	98	12	na
201318	120	noff	81	0	12	na
201318	0	non	78	94	12	na
201438	120	noff	78	0	12	na
201438	0	non	73	87	12	na
201558	120	noff	73	0	12	na
201558	0	non	81	93	12	na
201678	120	noff	81	0	12	na
201678	0	non	78	90	12	na
201798	120	noff	78	0	12	na
201798	0	non	73	85	12	na
201918	120	noff	73	0	12	na
201918	0	non	81	93	12	na
201918	0	non	54	82	12	na
201978	60	non	57	82	12	na
202038	60	noff	81	0	12	na
202038	0	non	78	92	12	na
202038	0	non	61	87	12	na
202098	60	noff	54	0	12	na
202098	0	non	66	93	12	na
202158	60	noff	57	0	12	na
202158	0	noff	78	0	12	na
202158	0	non	77	90	12	na
202158	0	non	69	97	12	na
202218	60	noff	61	0	12	na
202218	0	non	73	97	12	na
202278	60	noff	66	0	12	na
202278	0	noff	77	0	12	na
202278	0	non	78	99	12	na
202338	60	noff	69	0	12	na
202338	0	non	81	103	12	na
202398	60	noff	73	0	12	na
202398	0	non	74	100	12	na
202458	60	noff	78	0	12	na
202518	60	noff	81	0	12	na
203118	600	noff	74	0	12	na
203118	0	non	74	86	12	na
203238	120	noff	74	0	12	na
203358	120	non	76	97	12	na
203718	360	noff	76	0	12	na
203718	0	non	76	92	12	na
204078	360	noff	76	0	12	na
204078	0	non	76	89	12	na
204258	180	noff	76	0	12	na
204318	60	non	73	85	12	na
204678	360	noff	73	0	12	na
204678	0	non	78	100	12	na
205038	360	noff	78	0	12	na
205038	0	non	76	95	12	na
205218	180	noff	76	0	12	na
205278	60	non	68	95	12	na
205758	480	noff	68	0	12	na
205758	0	non	71	100	12	na
205998	240	noff	71	0	12	na
205998	0	non	73	103	12	na
206238	240	noff	73	0	12	na
206238	0	non	78	104	12	na
206598	360	noff	78	0	12	na
206598	0	non	80	110	12	na
206958	360	noff	80	0	12	na
206958	0	non	78	107	12	na
207198	240	noff	78	0	12	na
207198	0	non	77	104	12	na
207558	360	noff	77	0	12	na
207558	0	non	73	100	12	na
207918	360	noff	73	0	12	na
207918	0	non	69	100	12	na
208038	120	noff	69	0	12	na
208038	0	non	68	98	12	na
208158	120	noff	68	0	12	na
208158	0	non	68	94	12	na
208518	360	noff	68	0	12	na
208518	0	non	66	91	12	na
208878	360	noff	66	0	12	na
208878	0	non	66	88	12	na
208998	120	noff	66	0	12	na
208998	0	non	69	89	12	na
209118	120	noff	69	0	12	na
209118	0	non	73	91	12	na
209238	120	noff	73	0	12	na
209238	0	non	78	93	12	na
209358	120	noff	78	0	12	na
209358	0	non	73	94	12	na
209478	120	noff	73	0	12	na
209478	0	non	69	94	12	na
209598	120	noff	69	0	12	na
209598	0	non	76	94	12	na
209718	120	noff	76	0	12	na
209718	0	non	73	94	12	na
209838	120	noff	73	0	12	na
209838	0	non	69	94	12	na
209958	120	noff	69	0	12	na
209958	0	non	71	91	12	na
210078	120	noff	71	0	12	na
210078	0	non	74	100	12	na
210798	720	noff	74	0	12	na
210798	0	non	73	94	12	na
211038	240	noff	73	0	12	na
211038	0	non	66	85	12	na
211398	360	noff	66	0	12	na
211398	0	non	69	90	12	na
211758	360	noff	69	0	12	na
211758	0	non	73	93	12	na
211998	240	noff	73	0	12	na
211998	0	non	73	100	12	na
212718	720	noff	73	0	12	na
212718	0	non	76	103	12	na
212958	240	noff	76	0	12	na
212958	0	non	73	98	12	na
213438	480	noff	73	0	12	na
213438	0	non	71	95	12	na
213678	240	noff	71	0	12	na
213678	0	non	73	90	12	na
213918	240	noff	73	0	12	na
213918	0	non	74	91	12	na
214278	360	noff	74	0	12	na
214278	0	non	76	98	12	na
214638	360	noff	76	0	12	na
214638	0	non	78	99	12	na
214878	240	noff	78	0	12	na
214878	0	non	85	106	12	na
214998	120	noff	85	0	12	na
214998	0	non	83	106	12	na
215118	120	noff	83	0	12	na
215118	0	non	81	102	12	na
215358	240	noff	81	0	12	na
215358	0	non	80	99	12	na
215598	240	noff	80	0	12	na
215598	0	non	77	91	12	na
215838	240	noff	77	0	12	na
215838	0	non	78	87	12	na
215838	0	non	73	87	12	na
215838	0	non	69	87	12	na
217758	1920	noff	78	0	12	na
217758	0	noff	73	0	12	na
217758	0	noff	69	0	12	na
cumTime	delTime	event	pitch	vel	chan	value
2718	2718	non	62	100	13	na
2718	0	non	54	100	13	na
4158	1440	noff	62	0	13	na
4158	0	non	61	100	13	na
4638	480	noff	54	0	13	na
4638	0	non	52	100	13	na
6558	1920	noff	61	0	13	na
6558	0	noff	52	0	13	na
6558	0	non	64	100	13	na
6558	0	non	56	100	13	na
8478	1920	noff	64	0	13	na
8478	0	noff	56	0	13	na
8478	0	non	61	100	13	na
8478	0	non	54	100	13	na
10398	1920	noff	61	0	13	na
10398	0	noff	54	0	13	na
10398	0	non	62	100	13	na
10398	0	non	54	100	13	na
12318	1920	noff	62	0	13	na
12318	0	noff	54	0	13	na
12318	0	non	64	100	13	na
12318	0	non	57	100	13	na
14238	1920	noff	64	0	13	na
14238	0	noff	57	0	13	na
14238	0	non	54	100	13	na
14238	0	non	61	100	13	na
18078	3840	noff	54	0	13	na
18078	0	noff	61	0	13	na
18078	0	non	62	100	13	na
18078	0	non	54	100	13	na
19518	1440	noff	62	0	13	na
19518	0	non	61	100	13	na
19998	480	noff	54	0	13	na
19998	0	non	52	100	13	na
21918	1920	noff	61	0	13	na
21918	0	noff	52	0	13	na
21918	0	non	64	100	13	na
21918	0	non	56	100	13	na
23838	1920	noff	64	0	13	na
23838	0	noff	56	0	13	na
23838	0	non	61	100	13	na
23838	0	non	54	100	13	na
25758	1920	noff	61	0	13	na
25758	0	noff	54	0	13	na
25758	0	non	62	100	13	na
25758	0	non	54	100	13	na
27678	1920	noff	62	0	13	na
27678	0	noff	54	0	13	na
27678	0	non	64	100	13	na
27678	0	non	57	100	13	na
29598	1920	noff	64	0	13	na
29598	0	noff	57	0	13	na
29598	0	non	61	100	13	na
29598	0	non	57	100	13	na
32478	2880	noff	61	0	13	na
32478	0	noff	57	0	13	na
33438	960	non	58	83	13	na
33438	0	non	63	83	13	na
36318	2880	noff	58	0	13	na
36318	0	noff	63	0	13	na
36318	0	non	61	81	13	na
36318	0	non	56	81	13	na
37278	960	noff	61	0	13	na
37278	0	noff	56	0	13	na
37278	0	non	54	77	13	na
37278	0	non	59	77	13	na
38238	960	noff	54	0	13	na
38238	0	noff	59	0	13	na
38238	0	non	61	81	13	na
38238	0	non	56	81	13	na
39198	960	noff	61	0	13	na
39198	0	noff	56	0	13	na
39198	0	non	59	82	13	na
39198	0	non	63	82	13	na
41118	1920	noff	59	0	13	na
41118	0	noff	63	0	13	na
41118	0	non	63	83	13	na
41118	0	non	58	83	13	na
43998	2880	noff	63	0	13	na
43998	0	noff	58	0	13	na
43998	0	non	61	80	13	na
43998	0	non	56	80	13	na
44958	960	noff	61	0	13	na
44958	0	noff	56	0	13	na
44958	0	non	59	77	13	na
44958	0	non	54	77	13	na
45918	960	noff	59	0	13	na
45918	0	noff	54	0	13	na
45918	0	non	56	80	13	na
45918	0	non	61	80	13	na
46878	960	noff	56	0	13	na
46878	0	noff	61	0	13	na
46878	0	non	63	81	13	na
46878	0	non	58	81	13	na
48798	1920	noff	63	0	13	na
48798	0	noff	58	0	13	na
48798	0	non	58	83	13	na
48798	0	non	63	83	13	na
51678	2880	noff	58	0	13	na
51678	0	noff	63	0	13	na
51678	0	non	61	81	13	na
51678	0	non	56	81	13	na
52638	960	noff	61	0	13	na
52638	0	noff	56	0	13	na
52638	0	non	54	77	13	na
52638	0	non	59	77	13	na
53598	960	noff	54	0	13	na
53598	0	noff	59	0	13	na
53598	0	non	61	81	13	na
53598	0	non	56	81	13	na
54558	960	noff	61	0	13	na
54558	0	noff	56	0	13	na
54558	0	non	59	82	13	na
54558	0	non	63	82	13	na
56478	1920	noff	59	0	13	na
56478	0	noff	63	0	13	na
56478	0	non	63	83	13	na
56478	0	non	58	83	13	na
59358	2880	noff	63	0	13	na
59358	0	noff	58	0	13	na
59358	0	non	61	80	13	na
59358	0	non	56	80	13	na
60318	960	noff	61	0	13	na
60318	0	noff	56	0	13	na
60318	0	non	59	77	13	na
60318	0	non	54	77	13	na
61278	960	noff	59	0	13	na
61278	0	noff	54	0	13	na
61278	0	non	56	80	13	na
61278	0	non	61	80	13	na
62238	960	noff	56	0	13	na
62238	0	noff	61	0	13	na
62238	0	non	63	81	13	na
62238	0	non	58	81	13	na
64158	1920	noff	63	0	13	na
64158	0	noff	58	0	13	na
79518	15360	non	57	100	13	na
79518	0	non	62	100	13	na
79518	0	non	54	100	13	na
81438	1920	noff	57	0	13	na
81438	0	noff	62	0	13	na
81438	0	noff	54	0	13	na
81438	0	non	59	100	13	na
81438	0	non	64	100	13	na
81438	0	non	56	100	13	na
83358	1920	noff	59	0	13	na
83358	0	noff	64	0	13	na
83358	0	noff	56	0	13	na
83358	0	non	61	100	13	na
83358	0	non	66	100	13	na
83358	0	non	57	100	13	na
84318	960	noff	61	0	13	na
84318	0	noff	66	0	13	na
84318	0	noff	57	0	13	na
84318	0	non	65	100	13	na
84318	0	non	59	100	13	na
84318	0	non	56	100	13	na
85278	960	noff	65	0	13	na
85278	0	noff	59	0	13	na
85278	0	noff	56	0	13	na
85278	0	non	66	100	13	na
85278	0	non	61	100	13	na
85278	0	non	57	100	13	na
87198	1920	noff	66	0	13	na
87198	0	noff	61	0	13	na
87198	0	noff	57	0	13	na
87198	0	non	54	100	13	na
87198	0	non	57	100	13	na
87198	0	non	62	100	13	na
88158	960	noff	54	0	13	na
88158	0	noff	57	0	13	na
88158	0	noff	62	0	13	na
88158	0	non	64	100	13	na
88158	0	non	59	100	13	na
88158	0	non	56	100	13	na
89118	960	noff	64	0	13	na
89118	0	noff	59	0	13	na
89118	0	noff	56	0	13	na
89118	0	non	66	100	13	na
89118	0	non	61	100	13	na
89118	0	non	57	100	13	na
90078	960	noff	66	0	13	na
90078	0	noff	61	0	13	na
90078	0	noff	57	0	13	na
90078	0	non	64	100	13	na
90078	0	non	59	100	13	na
90078	0	non	56	100	13	na
91038	960	noff	64	0	13	na
91038	0	noff	59	0	13	na
91038	0	noff	56	0	13	na
91038	0	non	54	100	13	na
91038	0	non	62	100	13	na
91038	0	non	57	100	13	na
91998	960	noff	54	0	13	na
91998	0	noff	62	0	13	na
91998	0	noff	57	0	13	na
91998	0	non	56	100	13	na
91998	0	non	65	100	13	na
91998	0	non	59	100	13	na
92958	960	noff	56	0	13	na
92958	0	noff	65	0	13	na
92958	0	noff	59	0	13	na
92958	0	non	57	100	13	na
92958	0	non	66	100	13	na
92958	0	non	61	100	13	na
94878	1920	noff	57	0	13	na
94878	0	noff	66	0	13	na
94878	0	noff	61	0	13	na
94878	0	non	57	100	13	na
94878	0	non	62	100	13	na
94878	0	non	54	100	13	na
96798	1920	noff	57	0	13	na
96798	0	noff	62	0	13	na
96798	0	noff	54	0	13	na
96798	0	non	59	100	13	na
96798	0	non	64	100	13	na
96798	0	non	56	100	13	na
98718	1920	noff	59	0	13	na
98718	0	noff	64	0	13	na
98718	0	noff	56	0	13	na
98718	0	non	61	100	13	na
98718	0	non	66	100	13	na
98718	0	non	57	100	13	na
99678	960	noff	61	0	13	na
99678	0	noff	66	0	13	na
99678	0	noff	57	0	13	na
99678	0	non	65	100	13	na
99678	0	non	59	100	13	na
99678	0	non	56	100	13	na
100638	960	noff	65	0	13	na
100638	0	noff	59	0	13	na
100638	0	noff	56	0	13	na
100638	0	non	66	100	13	na
100638	0	non	61	100	13	na
100638	0	non	57	100	13	na
102558	1920	noff	66	0	13	na
102558	0	noff	61	0	13	na
102558	0	noff	57	0	13	na
102558	0	non	54	100	13	na
102558	0	non	57	100	13	na
102558	0	non	62	100	13	na
103518	960	noff	54	0	13	na
103518	0	noff	57	0	13	na
103518	0	noff	62	0	13	na
103518	0	non	64	100	13	na
103518	0	non	59	100	13	na
103518	0	non	56	100	13	na
104478	960	noff	64	0	13	na
104478	0	noff	59	0	13	na
104478	0	noff	56	0	13	na
104478	0	non	66	100	13	na
104478	0	non	61	100	13	na
104478	0	non	57	100	13	na
105438	960	noff	66	0	13	na
105438	0	noff	61	0	13	na
105438	0	noff	57	0	13	na
105438	0	non	64	100	13	na
105438	0	non	59	100	13	na
105438	0	non	56	100	13	na
106398	960	noff	64	0	13	na
106398	0	noff	59	0	13	na
106398	0	noff	56	0	13	na
106398	0	non	54	100	13	na
106398	0	non	62	100	13	na
106398	0	non	57	100	13	na
107358	960	noff	54	0	13	na
107358	0	noff	62	0	13	na
107358	0	noff	57	0	13	na
107358	0	non	56	100	13	na
107358	0	non	65	100	13	na
107358	0	non	59	100	13	na
108318	960	noff	56	0	13	na
108318	0	noff	65	0	13	na
108318	0	noff	59	0	13	na
108318	0	non	57	100	13	na
108318	0	non	66	100	13	na
108318	0	non	61	100	13	na
110238	1920	noff	57	0	13	na
110238	0	noff	66	0	13	na
110238	0	noff	61	0	13	na
110238	0	non	62	100	13	na
110238	0	non	54	100	13	na
111678	1440	noff	62	0	13	na
111678	0	non	61	100	13	na
112158	480	noff	54	0	13	na
112158	0	non	52	100	13	na
114078	1920	noff	61	0	13	na
114078	0	noff	52	0	13	na
114078	0	non	64	100	13	na
114078	0	non	56	100	13	na
115998	1920	noff	64	0	13	na
115998	0	noff	56	0	13	na
115998	0	non	61	100	13	na
115998	0	non	54	100	13	na
117918	1920	noff	61	0	13	na
117918	0	noff	54	0	13	na
117918	0	non	62	100	13	na
117918	0	non	54	100	13	na
119838	1920	noff	62	0	13	na
119838	0	noff	54	0	13	na
119838	0	non	64	100	13	na
119838	0	non	57	100	13	na
121758	1920	noff	64	0	13	na
121758	0	noff	57	0	13	na
121758	0	non	54	100	13	na
121758	0	non	61	100	13	na
125598	3840	noff	54	0	13	na
125598	0	noff	61	0	13	na
125598	0	non	62	100	13	na
125598	0	non	54	100	13	na
127038	1440	noff	62	0	13	na
127038	0	non	61	100	13	na
127518	480	noff	54	0	13	na
127518	0	non	52	100	13	na
129438	1920	noff	61	0	13	na
129438	0	noff	52	0	13	na
129438	0	non	64	100	13	na
129438	0	non	56	100	13	na
131358	1920	noff	64	0	13	na
131358	0	noff	56	0	13	na
131358	0	non	61	100	13	na
131358	0	non	54	100	13	na
133278	1920	noff	61	0	13	na
133278	0	noff	54	0	13	na
133278	0	non	62	100	13	na
133278	0	non	54	100	13	na
135198	1920	noff	62	0	13	na
135198	0	noff	54	0	13	na
135198	0	non	64	100	13	na
135198	0	non	57	100	13	na
137118	1920	noff	64	0	13	na
137118	0	noff	57	0	13	na
137118	0	non	61	100	13	na
137118	0	non	57	100	13	na
139998	2880	noff	61	0	13	na
139998	0	noff	57	0	13	na
140958	960	non	58	83	13	na
140958	0	non	63	83	13	na
143838	2880	noff	58	0	13	na
143838	0	noff	63	0	13	na
143838	0	non	61	81	13	na
143838	0	non	56	81	13	na
144798	960	noff	61	0	13	na
144798	0	noff	56	0	13	na
144798	0	non	54	77	13	na
144798	0	non	59	77	13	na
145758	960	noff	54	0	13	na
145758	0	noff	59	0	13	na
145758	0	non	61	81	13	na
145758	0	non	56	81	13	na
146718	960	noff	61	0	13	na
146718	0	noff	56	0	13	na
146718	0	non	59	82	13	na
146718	0	non	63	82	13	na
148638	1920	noff	59	0	13	na
148638	0	noff	63	0	13	na
148638	0	non	63	83	13	na
148638	0	non	58	83	13	na
151518	2880	noff	63	0	13	na
151518	0	noff	58	0	13	na
151518	0	non	61	80	13	na
151518	0	non	56	80	13	na
152478	960	noff	61	0	13	na
152478	0	noff	56	0	13	na
152478	0	non	59	77	13	na
152478	0	non	54	77	13	na
153438	960	noff	59	0	13	na
153438	0	noff	54	0	13	na
153438	0	non	56	80	13	na
153438	0	non	61	80	13	na
154398	960	noff	56	0	13	na
154398	0	noff	61	0	13	na
154398	0	non	63	81	13	na
154398	0	non	58	81	13	na
156318	1920	noff	63	0	13	na
156318	0	noff	58	0	13	na
156318	0	non	58	83	13	na
156318	0	non	63	83	13	na
159198	2880	noff	58	0	13	na
159198	0	noff	63	0	13	na
159198	0	non	61	81	13	na
159198	0	non	56	81	13	na
160158	960	noff	61	0	13	na
160158	0	noff	56	0	13	na
160158	0	non	54	77	13	na
160158	0	non	59	77	13	na
161118	960	noff	54	0	13	na
161118	0	noff	59	0	13	na
161118	0	non	61	81	13	na
161118	0	non	56	81	13	na
162078	960	noff	61	0	13	na
162078	0	noff	56	0	13	na
162078	0	non	59	82	13	na
162078	0	non	63	82	13	na
163998	1920	noff	59	0	13	na
163998	0	noff	63	0	13	na
163998	0	non	63	83	13	na
163998	0	non	58	83	13	na
166878	2880	noff	63	0	13	na
166878	0	noff	58	0	13	na
166878	0	non	61	80	13	na
166878	0	non	56	80	13	na
167838	960	noff	61	0	13	na
167838	0	noff	56	0	13	na
167838	0	non	59	77	13	na
167838	0	non	54	77	13	na
168798	960	noff	59	0	13	na
168798	0	noff	54	0	13	na
168798	0	non	56	80	13	na
168798	0	non	61	80	13	na
169758	960	noff	56	0	13	na
169758	0	noff	61	0	13	na
169758	0	non	63	81	13	na
169758	0	non	58	81	13	na
171678	1920	noff	63	0	13	na
171678	0	noff	58	0	13	na
187038	15360	non	57	100	13	na
187038	0	non	62	100	13	na
187038	0	non	54	100	13	na
188958	1920	noff	57	0	13	na
188958	0	noff	62	0	13	na
188958	0	noff	54	0	13	na
188958	0	non	59	100	13	na
188958	0	non	64	100	13	na
188958	0	non	56	100	13	na
190878	1920	noff	59	0	13	na
190878	0	noff	64	0	13	na
190878	0	noff	56	0	13	na
190878	0	non	61	100	13	na
190878	0	non	66	100	13	na
190878	0	non	57	100	13	na
191838	960	noff	61	0	13	na
191838	0	noff	66	0	13	na
191838	0	noff	57	0	13	na
191838	0	non	65	100	13	na
191838	0	non	59	100	13	na
191838	0	non	56	100	13	na
192798	960	noff	65	0	13	na
192798	0	noff	59	0	13	na
192798	0	noff	56	0	13	na
192798	0	non	66	100	13	na
192798	0	non	61	100	13	na
192798	0	non	57	100	13	na
194718	1920	noff	66	0	13	na
194718	0	noff	61	0	13	na
194718	0	noff	57	0	13	na
194718	0	non	54	100	13	na
194718	0	non	57	100	13	na
194718	0	non	62	100	13	na
195678	960	noff	54	0	13	na
195678	0	noff	57	0	13	na
195678	0	noff	62	0	13	na
195678	0	non	64	100	13	na
195678	0	non	59	100	13	na
195678	0	non	56	100	13	na
196638	960	noff	64	0	13	na
196638	0	noff	59	0	13	na
196638	0	noff	56	0	13	na
196638	0	non	66	100	13	na
196638	0	non	61	100	13	na
196638	0	non	57	100	13	na
197598	960	noff	66	0	13	na
197598	0	noff	61	0	13	na
197598	0	noff	57	0	13	na
197598	0	non	64	100	13	na
197598	0	non	59	100	13	na
197598	0	non	56	100	13	na
198558	960	noff	64	0	13	na
198558	0	noff	59	0	13	na
198558	0	noff	56	0	13	na
198558	0	non	54	100	13	na
198558	0	non	62	100	13	na
198558	0	non	57	100	13	na
199518	960	noff	54	0	13	na
199518	0	noff	62	0	13	na
199518	0	noff	57	0	13	na
199518	0	non	56	100	13	na
199518	0	non	65	100	13	na
199518	0	non	59	100	13	na
200478	960	noff	56	0	13	na
200478	0	noff	65	0	13	na
200478	0	noff	59	0	13	na
200478	0	non	57	100	13	na
200478	0	non	66	100	13	na
200478	0	non	61	100	13	na
202398	1920	noff	57	0	13	na
202398	0	noff	66	0	13	na
202398	0	noff	61	0	13	na
202398	0	non	57	100	13	na
202398	0	non	62	100	13	na
202398	0	non	54	100	13	na
204318	1920	noff	57	0	13	na
204318	0	noff	62	0	13	na
204318	0	noff	54	0	13	na
204318	0	non	59	100	13	na
204318	0	non	64	100	13	na
204318	0	non	56	100	13	na
206238	1920	noff	59	0	13	na
206238	0	noff	64	0	13	na
206238	0	noff	56	0	13	na
206238	0	non	61	100	13	na
206238	0	non	66	100	13	na
206238	0	non	57	100	13	na
207198	960	noff	61	0	13	na
207198	0	noff	66	0	13	na
207198	0	noff	57	0	13	na
207198	0	non	65	100	13	na
207198	0	non	59	100	13	na
207198	0	non	56	100	13	na
208158	960	noff	65	0	13	na
208158	0	noff	59	0	13	na
208158	0	noff	56	0	13	na
208158	0	non	66	100	13	na
208158	0	non	61	100	13	na
208158	0	non	57	100	13	na
210078	1920	noff	66	0	13	na
210078	0	noff	61	0	13	na
210078	0	noff	57	0	13	na
210078	0	non	54	100	13	na
210078	0	non	57	100	13	na
210078	0	non	62	100	13	na
211038	960	noff	54	0	13	na
211038	0	noff	57	0	13	na
211038	0	noff	62	0	13	na
211038	0	non	64	100	13	na
211038	0	non	59	100	13	na
211038	0	non	56	100	13	na
211998	960	noff	64	0	13	na
211998	0	noff	59	0	13	na
211998	0	noff	56	0	13	na
211998	0	non	66	100	13	na
211998	0	non	61	100	13	na
211998	0	non	57	100	13	na
212958	960	noff	66	0	13	na
212958	0	noff	61	0	13	na
212958	0	noff	57	0	13	na
212958	0	non	64	100	13	na
212958	0	non	59	100	13	na
212958	0	non	56	100	13	na
213918	960	noff	64	0	13	na
213918	0	noff	59	0	13	na
213918	0	noff	56	0	13	na
213918	0	non	54	100	13	na
213918	0	non	62	100	13	na
213918	0	non	57	100	13	na
214878	960	noff	54	0	13	na
214878	0	noff	62	0	13	na
214878	0	noff	57	0	13	na
214878	0	non	56	100	13	na
214878	0	non	65	100	13	na
214878	0	non	59	100	13	na
215838	960	noff	56	0	13	na
215838	0	noff	65	0	13	na
215838	0	noff	59	0	13	na
215838	0	non	57	100	13	na
215838	0	non	66	100	13	na
215838	0	non	61	100	13	na
217758	1920	noff	57	0	13	na
217758	0	noff	66	0	13	na
217758	0	noff	61	0	13	na
cumTime	delTime	event	pitch	vel	chan	value
0	0	non	63	100	14	na
0	0	non	58	100	14	na
0	0	non	66	100	14	na
2880	2880	noff	63	0	14	na
2880	0	noff	58	0	14	na
2880	0	noff	66	0	14	na
2880	0	non	65	100	14	na
2880	0	non	61	100	14	na
2880	0	non	56	100	14	na
3840	960	noff	65	0	14	na
3840	0	noff	61	0	14	na
3840	0	noff	56	0	14	na
3840	0	non	63	100	14	na
3840	0	non	54	100	14	na
3840	0	non	59	100	14	na
4800	960	noff	63	0	14	na
4800	0	noff	54	0	14	na
4800	0	noff	59	0	14	na
4800	0	non	65	100	14	na
4800	0	non	61	100	14	na
4800	0	non	56	100	14	na
5760	960	noff	65	0	14	na
5760	0	noff	61	0	14	na
5760	0	noff	56	0	14	na
5760	0	non	63	100	14	na
5760	0	non	66	100	14	na
5760	0	non	59	100	14	na
7680	1920	noff	63	0	14	na
7680	0	noff	66	0	14	na
7680	0	noff	59	0	14	na
7680	0	non	58	100	14	na
7680	0	non	63	100	14	na
7680	0	non	66	100	14	na
10560	2880	noff	58	0	14	na
10560	0	noff	63	0	14	na
10560	0	noff	66	0	14	na
10560	0	non	65	100	14	na
10560	0	non	61	100	14	na
10560	0	non	56	100	14	na
11520	960	noff	65	0	14	na
11520	0	noff	61	0	14	na
11520	0	noff	56	0	14	na
11520	0	non	63	100	14	na
11520	0	non	54	100	14	na
11520	0	non	59	100	14	na
12480	960	noff	63	0	14	na
12480	0	noff	54	0	14	na
12480	0	noff	59	0	14	na
12480	0	non	65	100	14	na
12480	0	non	61	100	14	na
12480	0	non	56	100	14	na
13440	960	noff	65	0	14	na
13440	0	noff	61	0	14	na
13440	0	noff	56	0	14	na
13440	0	non	63	100	14	na
13440	0	non	66	100	14	na
13440	0	non	58	100	14	na
15360	1920	noff	63	0	14	na
15360	0	noff	66	0	14	na
15360	0	noff	58	0	14	na
15360	0	non	58	100	14	na
15360	0	non	63	100	14	na
15360	0	non	66	100	14	na
18240	2880	noff	58	0	14	na
18240	0	noff	63	0	14	na
18240	0	noff	66	0	14	na
18240	0	non	65	100	14	na
18240	0	non	61	100	14	na
18240	0	non	56	100	14	na
19200	960	noff	65	0	14	na
19200	0	noff	61	0	14	na
19200	0	noff	56	0	14	na
19200	0	non	63	100	14	na
19200	0	non	54	100	14	na
19200	0	non	59	100	14	na
20160	960	noff	63	0	14	na
20160	0	noff	54	0	14	na
20160	0	noff	59	0	14	na
20160	0	non	65	100	14	na
20160	0	non	61	100	14	na
20160	0	non	56	100	14	na
21120	960	noff	65	0	14	na
21120	0	noff	61	0	14	na
21120	0	noff	56	0	14	na
21120	0	non	63	100	14	na
21120	0	non	66	100	14	na
21120	0	non	59	100	14	na
23040	1920	noff	63	0	14	na
23040	0	noff	66	0	14	na
23040	0	noff	59	0	14	na
23040	0	non	58	100	14	na
23040	0	non	63	100	14	na
23040	0	non	66	100	14	na
25920	2880	noff	58	0	14	na
25920	0	noff	63	0	14	na
25920	0	noff	66	0	14	na
25920	0	non	65	100	14	na
25920	0	non	61	100	14	na
25920	0	non	56	100	14	na
26880	960	noff	65	0	14	na
26880	0	noff	61	0	14	na
26880	0	noff	56	0	14	na
26880	0	non	63	100	14	na
26880	0	non	54	100	14	na
26880	0	non	59	100	14	na
27840	960	noff	63	0	14	na
27840	0	noff	54	0	14	na
27840	0	noff	59	0	14	na
27840	0	non	65	100	14	na
27840	0	non	61	100	14	na
27840	0	non	56	100	14	na
28800	960	noff	65	0	14	na
28800	0	noff	61	0	14	na
28800	0	noff	56	0	14	na
28800	0	non	63	100	14	na
28800	0	non	66	100	14	na
28800	0	non	58	100	14	na
30720	1920	noff	63	0	14	na
30720	0	noff	66	0	14	na
30720	0	noff	58	0	14	na
30720	0	non	59	100	14	na
30720	0	non	54	100	14	na
30720	0	non	51	100	14	na
30720	0	non	47	100	14	na
31440	720	noff	59	0	14	na
31440	0	noff	54	0	14	na
31440	0	noff	51	0	14	na
31440	0	noff	47	0	14	na
31680	240	non	59	100	14	na
31680	0	non	54	100	14	na
31680	0	non	51	100	14	na
31680	0	non	47	100	14	na
32400	720	noff	59	0	14	na
32400	0	noff	54	0	14	na
32400	0	noff	51	0	14	na
32400	0	noff	47	0	14	na
32640	240	non	59	100	14	na
32640	0	non	54	100	14	na
32640	0	non	51	100	14	na
32640	0	non	47	100	14	na
34080	1440	noff	59	0	14	na
34080	0	noff	54	0	14	na
34080	0	noff	51	0	14	na
34080	0	noff	47	0	14	na
34080	0	non	58	100	14	na
34080	0	non	61	100	14	na
34080	0	non	49	100	14	na
34080	0	non	65	100	14	na
34560	480	noff	58	0	14	na
34560	0	noff	61	0	14	na
34560	0	noff	49	0	14	na
34560	0	noff	65	0	14	na
34560	0	non	63	100	14	na
34560	0	non	58	100	14	na
34560	0	non	54	100	14	na
34560	0	non	51	100	14	na
35280	720	noff	63	0	14	na
35280	0	noff	58	0	14	na
35280	0	noff	54	0	14	na
35280	0	noff	51	0	14	na
35520	240	non	63	100	14	na
35520	0	non	58	100	14	na
35520	0	non	54	100	14	na
35520	0	non	51	100	14	na
36240	720	noff	63	0	14	na
36240	0	noff	58	0	14	na
36240	0	noff	54	0	14	na
36240	0	noff	51	0	14	na
36480	240	non	63	100	14	na
36480	0	non	54	100	14	na
36480	0	non	51	100	14	na
36480	0	non	58	100	14	na
37440	960	noff	63	0	14	na
37440	0	noff	54	0	14	na
37440	0	noff	51	0	14	na
37440	0	noff	58	0	14	na
37440	0	non	53	100	14	na
37440	0	non	61	100	14	na
37440	0	non	65	100	14	na
38400	960	noff	53	0	14	na
38400	0	noff	61	0	14	na
38400	0	noff	65	0	14	na
38400	0	non	66	100	14	na
38400	0	non	62	100	14	na
38400	0	non	54	100	14	na
38400	0	non	69	100	14	na
39120	720	noff	66	0	14	na
39120	0	noff	62	0	14	na
39120	0	noff	54	0	14	na
39120	0	noff	69	0	14	na
39360	240	non	66	100	14	na
39360	0	non	54	100	14	na
39360	0	non	62	100	14	na
39360	0	non	69	100	14	na
40080	720	noff	66	0	14	na
40080	0	noff	54	0	14	na
40080	0	noff	62	0	14	na
40080	0	noff	69	0	14	na
40320	240	non	54	100	14	na
40320	0	non	66	100	14	na
40320	0	non	62	100	14	na
40320	0	non	69	100	14	na
41040	720	noff	54	0	14	na
41040	0	noff	66	0	14	na
41040	0	noff	62	0	14	na
41040	0	noff	69	0	14	na
41280	240	non	66	100	14	na
41280	0	non	54	100	14	na
41280	0	non	62	100	14	na
41280	0	non	69	100	14	na
41760	480	noff	66	0	14	na
41760	0	noff	54	0	14	na
41760	0	noff	62	0	14	na
41760	0	noff	69	0	14	na
41760	0	non	68	100	14	na
41760	0	non	56	100	14	na
41760	0	non	64	100	14	na
41760	0	non	71	100	14	na
42240	480	noff	68	0	14	na
42240	0	noff	56	0	14	na
42240	0	noff	64	0	14	na
42240	0	noff	71	0	14	na
42240	0	non	69	100	14	na
42240	0	non	57	100	14	na
42240	0	non	66	100	14	na
42960	720	noff	69	0	14	na
42960	0	noff	57	0	14	na
42960	0	noff	66	0	14	na
43200	240	non	71	100	14	na
43200	0	non	59	100	14	na
43200	0	non	68	100	14	na
43920	720	noff	71	0	14	na
43920	0	noff	59	0	14	na
43920	0	noff	68	0	14	na
44160	240	non	69	100	14	na
44160	0	non	66	100	14	na
44160	0	non	61	100	14	na
44880	720	noff	69	0	14	na
44880	0	noff	66	0	14	na
44880	0	noff	61	0	14	na
45120	240	non	69	100	14	na
45120	0	non	66	100	14	na
45120	0	non	61	100	14	na
45600	480	noff	69	0	14	na
45600	0	noff	66	0	14	na
45600	0	noff	61	0	14	na
45600	0	non	68	100	14	na
45600	0	non	64	100	14	na
45600	0	non	59	100	14	na
46080	480	noff	68	0	14	na
46080	0	noff	64	0	14	na
46080	0	noff	59	0	14	na
46080	0	non	63	100	14	na
46080	0	non	58	100	14	na
46080	0	non	66	100	14	na
48960	2880	noff	63	0	14	na
48960	0	noff	58	0	14	na
48960	0	noff	66	0	14	na
48960	0	non	65	100	14	na
48960	0	non	61	100	14	na
48960	0	non	56	100	14	na
49920	960	noff	65	0	14	na
49920	0	noff	61	0	14	na
49920	0	noff	56	0	14	na
49920	0	non	63	100	14	na
49920	0	non	54	100	14	na
49920	0	non	59	100	14	na
50880	960	noff	63	0	14	na
50880	0	noff	54	0	14	na
50880	0	noff	59	0	14	na
50880	0	non	65	100	14	na
50880	0	non	61	100	14	na
50880	0	non	56	100	14	na
51840	960	noff	65	0	14	na
51840	0	noff	61	0	14	na
51840	0	noff	56	0	14	na
51840	0	non	63	100	14	na
51840	0	non	66	100	14	na
51840	0	non	59	100	14	na
53760	1920	noff	63	0	14	na
53760	0	noff	66	0	14	na
53760	0	noff	59	0	14	na
53760	0	non	58	100	14	na
53760	0	non	63	100	14	na
53760	0	non	66	100	14	na
56640	2880	noff	58	0	14	na
56640	0	noff	63	0	14	na
56640	0	noff	66	0	14	na
56640	0	non	65	100	14	na
56640	0	non	61	100	14	na
56640	0	non	56	100	14	na
57600	960	noff	65	0	14	na
57600	0	noff	61	0	14	na
57600	0	noff	56	0	14	na
57600	0	non	63	100	14	na
57600	0	non	54	100	14	na
57600	0	non	59	100	14	na
58560	960	noff	63	0	14	na
58560	0	noff	54	0	14	na
58560	0	noff	59	0	14	na
58560	0	non	65	100	14	na
58560	0	non	61	100	14	na
58560	0	non	56	100	14	na
59520	960	noff	65	0	14	na
59520	0	noff	61	0	14	na
59520	0	noff	56	0	14	na
59520	0	non	63	100	14	na
59520	0	non	66	100	14	na
59520	0	non	58	100	14	na
61440	1920	noff	63	0	14	na
61440	0	noff	66	0	14	na
61440	0	noff	58	0	14	na
61440	0	non	58	100	14	na
61440	0	non	63	100	14	na
61440	0	non	66	100	14	na
64320	2880	noff	58	0	14	na
64320	0	noff	63	0	14	na
64320	0	noff	66	0	14	na
64320	0	non	65	100	14	na
64320	0	non	61	100	14	na
64320	0	non	56	100	14	na
65280	960	noff	65	0	14	na
65280	0	noff	61	0	14	na
65280	0	noff	56	0	14	na
65280	0	non	63	100	14	na
65280	0	non	54	100	14	na
65280	0	non	59	100	14	na
66240	960	noff	63	0	14	na
66240	0	noff	54	0	14	na
66240	0	noff	59	0	14	na
66240	0	non	65	100	14	na
66240	0	non	61	100	14	na
66240	0	non	56	100	14	na
67200	960	noff	65	0	14	na
67200	0	noff	61	0	14	na
67200	0	noff	56	0	14	na
67200	0	non	63	100	14	na
67200	0	non	66	100	14	na
67200	0	non	59	100	14	na
69120	1920	noff	63	0	14	na
69120	0	noff	66	0	14	na
69120	0	noff	59	0	14	na
69120	0	non	58	100	14	na
69120	0	non	63	100	14	na
69120	0	non	66	100	14	na
72000	2880	noff	58	0	14	na
72000	0	noff	63	0	14	na
72000	0	noff	66	0	14	na
72000	0	non	65	100	14	na
72000	0	non	61	100	14	na
72000	0	non	56	100	14	na
72960	960	noff	65	0	14	na
72960	0	noff	61	0	14	na
72960	0	noff	56	0	14	na
72960	0	non	63	100	14	na
72960	0	non	54	100	14	na
72960	0	non	59	100	14	na
73920	960	noff	63	0	14	na
73920	0	noff	54	0	14	na
73920	0	noff	59	0	14	na
73920	0	non	65	100	14	na
73920	0	non	61	100	14	na
73920	0	non	56	100	14	na
74880	960	noff	65	0	14	na
74880	0	noff	61	0	14	na
74880	0	noff	56	0	14	na
74880	0	non	63	100	14	na
74880	0	non	66	100	14	na
74880	0	non	58	100	14	na
76800	1920	noff	63	0	14	na
76800	0	noff	66	0	14	na
76800	0	noff	58	0	14	na
76800	0	non	59	100	14	na
76800	0	non	54	100	14	na
76800	0	non	51	100	14	na
76800	0	non	47	100	14	na
77520	720	noff	59	0	14	na
77520	0	noff	54	0	14	na
77520	0	noff	51	0	14	na
77520	0	noff	47	0	14	na
77760	240	non	59	100	14	na
77760	0	non	54	100	14	na
77760	0	non	51	100	14	na
77760	0	non	47	100	14	na
78480	720	noff	59	0	14	na
78480	0	noff	54	0	14	na
78480	0	noff	51	0	14	na
78480	0	noff	47	0	14	na
78720	240	non	59	100	14	na
78720	0	non	54	100	14	na
78720	0	non	51	100	14	na
78720	0	non	47	100	14	na
80160	1440	noff	59	0	14	na
80160	0	noff	54	0	14	na
80160	0	noff	51	0	14	na
80160	0	noff	47	0	14	na
80160	0	non	58	100	14	na
80160	0	non	61	100	14	na
80160	0	non	49	100	14	na
80160	0	non	65	100	14	na
80640	480	noff	58	0	14	na
80640	0	noff	61	0	14	na
80640	0	noff	49	0	14	na
80640	0	noff	65	0	14	na
80640	0	non	63	100	14	na
80640	0	non	58	100	14	na
80640	0	non	54	100	14	na
80640	0	non	51	100	14	na
81360	720	noff	63	0	14	na
81360	0	noff	58	0	14	na
81360	0	noff	54	0	14	na
81360	0	noff	51	0	14	na
81600	240	non	63	100	14	na
81600	0	non	58	100	14	na
81600	0	non	54	100	14	na
81600	0	non	51	100	14	na
82320	720	noff	63	0	14	na
82320	0	noff	58	0	14	na
82320	0	noff	54	0	14	na
82320	0	noff	51	0	14	na
82560	240	non	63	100	14	na
82560	0	non	54	100	14	na
82560	0	non	51	100	14	na
82560	0	non	58	100	14	na
83520	960	noff	63	0	14	na
83520	0	noff	54	0	14	na
83520	0	noff	51	0	14	na
83520	0	noff	58	0	14	na
83520	0	non	53	100	14	na
83520	0	non	61	100	14	na
83520	0	non	65	100	14	na
84480	960	noff	53	0	14	na
84480	0	noff	61	0	14	na
84480	0	noff	65	0	14	na
84480	0	non	66	100	14	na
84480	0	non	62	100	14	na
84480	0	non	54	100	14	na
84480	0	non	69	100	14	na
85200	720	noff	66	0	14	na
85200	0	noff	62	0	14	na
85200	0	noff	54	0	14	na
85200	0	noff	69	0	14	na
85440	240	non	66	100	14	na
85440	0	non	54	100	14	na
85440	0	non	62	100	14	na
85440	0	non	69	100	14	na
86160	720	noff	66	0	14	na
86160	0	noff	54	0	14	na
86160	0	noff	62	0	14	na
86160	0	noff	69	0	14	na
86400	240	non	54	100	14	na
86400	0	non	66	100	14	na
86400	0	non	62	100	14	na
86400	0	non	69	100	14	na
87120	720	noff	54	0	14	na
87120	0	noff	66	0	14	na
87120	0	noff	62	0	14	na
87120	0	noff	69	0	14	na
87360	240	non	66	100	14	na
87360	0	non	54	100	14	na
87360	0	non	62	100	14	na
87360	0	non	69	100	14	na
87840	480	noff	66	0	14	na
87840	0	noff	54	0	14	na
87840	0	noff	62	0	14	na
87840	0	noff	69	0	14	na
87840	0	non	68	100	14	na
87840	0	non	56	100	14	na
87840	0	non	64	100	14	na
87840	0	non	71	100	14	na
88320	480	noff	68	0	14	na
88320	0	noff	56	0	14	na
88320	0	noff	64	0	14	na
88320	0	noff	71	0	14	na
88320	0	non	69	100	14	na
88320	0	non	57	100	14	na
88320	0	non	66	100	14	na
88320	0	non	49	100	14	na
89040	720	noff	69	0	14	na
89040	0	noff	57	0	14	na
89040	0	noff	66	0	14	na
89040	0	noff	49	0	14	na
89280	240	non	71	100	14	na
89280	0	non	59	100	14	na
89280	0	non	68	100	14	na
89280	0	non	52	100	14	na
90000	720	noff	71	0	14	na
90000	0	noff	59	0	14	na
90000	0	noff	68	0	14	na
90000	0	noff	52	0	14	na
90240	240	non	69	100	14	na
90240	0	non	66	100	14	na
90240	0	non	61	100	14	na
90960	720	noff	69	0	14	na
90960	0	noff	66	0	14	na
90960	0	noff	61	0	14	na
91200	240	non	69	100	14	na
91200	0	non	66	100	14	na
91200	0	non	61	100	14	na
91680	480	noff	69	0	14	na
91680	0	noff	66	0	14	na
91680	0	noff	61	0	14	na
91680	0	non	68	100	14	na
91680	0	non	64	100	14	na
91680	0	non	59	100	14	na
92160	480	noff	68	0	14	na
92160	0	noff	64	0	14	na
92160	0	noff	59	0	14	na
cumTime	delTime	event	pitch	vel	chan	value
33438	33438	non	63	100	15	na
33438	0	non	66	100	15	na
33438	0	non	58	100	15	na
36318	2880	noff	63	0	15	na
36318	0	noff	66	0	15	na
36318	0	noff	58	0	15	na
36318	0	non	65	100	15	na
36318	0	non	61	100	15	na
36318	0	non	56	100	15	na
37278	960	noff	65	0	15	na
37278	0	noff	61	0	15	na
37278	0	noff	56	0	15	na
37278	0	non	63	100	15	na
37278	0	non	54	100	15	na
37278	0	non	59	100	15	na
38238	960	noff	63	0	15	na
38238	0	noff	54	0	15	na
38238	0	noff	59	0	15	na
38238	0	non	65	100	15	na
38238	0	non	61	100	15	na
38238	0	non	56	100	15	na
39198	960	noff	65	0	15	na
39198	0	noff	61	0	15	na
39198	0	noff	56	0	15	na
39198	0	non	63	100	15	na
39198	0	non	66	100	15	na
39198	0	non	59	100	15	na
41118	1920	noff	63	0	15	na
41118	0	noff	66	0	15	na
41118	0	noff	59	0	15	na
41118	0	non	58	100	15	na
41118	0	non	63	100	15	na
41118	0	non	66	100	15	na
43998	2880	noff	58	0	15	na
43998	0	noff	63	0	15	na
43998	0	noff	66	0	15	na
43998	0	non	65	100	15	na
43998	0	non	61	100	15	na
43998	0	non	56	100	15	na
44958	960	noff	65	0	15	na
44958	0	noff	61	0	15	na
44958	0	noff	56	0	15	na
44958	0	non	63	100	15	na
44958	0	non	54	100	15	na
44958	0	non	59	100	15	na
45918	960	noff	63	0	15	na
45918	0	noff	54	0	15	na
45918	0	noff	59	0	15	na
45918	0	non	65	100	15	na
45918	0	non	61	100	15	na
45918	0	non	56	100	15	na
46878	960	noff	65	0	15	na
46878	0	noff	61	0	15	na
46878	0	noff	56	0	15	na
46878	0	non	63	100	15	na
46878	0	non	66	100	15	na
46878	0	non	58	100	15	na
48798	1920	noff	63	0	15	na
48798	0	noff	66	0	15	na
48798	0	noff	58	0	15	na
48798	0	non	58	100	15	na
48798	0	non	63	100	15	na
48798	0	non	66	100	15	na
51678	2880	noff	58	0	15	na
51678	0	noff	63	0	15	na
51678	0	noff	66	0	15	na
51678	0	non	65	100	15	na
51678	0	non	61	100	15	na
51678	0	non	56	100	15	na
52638	960	noff	65	0	15	na
52638	0	noff	61	0	15	na
52638	0	noff	56	0	15	na
52638	0	non	63	100	15	na
52638	0	non	54	100	15	na
52638	0	non	59	100	15	na
53598	960	noff	63	0	15	na
53598	0	noff	54	0	15	na
53598	0	noff	59	0	15	na
53598	0	non	65	100	15	na
53598	0	non	61	100	15	na
53598	0	non	56	100	15	na
54558	960	noff	65	0	15	na
54558	0	noff	61	0	15	na
54558	0	noff	56	0	15	na
54558	0	non	63	100	15	na
54558	0	non	66	100	15	na
54558	0	non	59	100	15	na
56478	1920	noff	63	0	15	na
56478	0	noff	66	0	15	na
56478	0	noff	59	0	15	na
56478	0	non	58	100	15	na
56478	0	non	63	100	15	na
56478	0	non	66	100	15	na
59358	2880	noff	58	0	15	na
59358	0	noff	63	0	15	na
59358	0	noff	66	0	15	na
59358	0	non	65	100	15	na
59358	0	non	61	100	15	na
59358	0	non	56	100	15	na
60318	960	noff	65	0	15	na
60318	0	noff	61	0	15	na
60318	0	noff	56	0	15	na
60318	0	non	63	100	15	na
60318	0	non	54	100	15	na
60318	0	non	59	100	15	na
61278	960	noff	63	0	15	na
61278	0	noff	54	0	15	na
61278	0	noff	59	0	15	na
61278	0	non	65	100	15	na
61278	0	non	61	100	15	na
61278	0	non	56	100	15	na
62238	960	noff	65	0	15	na
62238	0	noff	61	0	15	na
62238	0	noff	56	0	15	na
62238	0	non	63	100	15	na
62238	0	non	66	100	15	na
62238	0	non	58	100	15	na
64158	1920	noff	63	0	15	na
64158	0	noff	66	0	15	na
64158	0	noff	58	0	15	na
64158	0	non	59	105	15	na
64158	0	non	54	105	15	na
64158	0	non	51	105	15	na
64158	0	non	47	105	15	na
64878	720	noff	59	0	15	na
64878	0	noff	54	0	15	na
64878	0	noff	51	0	15	na
64878	0	noff	47	0	15	na
65118	240	non	59	105	15	na
65118	0	non	54	105	15	na
65118	0	non	51	105	15	na
65118	0	non	47	105	15	na
65838	720	noff	59	0	15	na
65838	0	noff	54	0	15	na
65838	0	noff	51	0	15	na
65838	0	noff	47	0	15	na
66078	240	non	59	105	15	na
66078	0	non	54	105	15	na
66078	0	non	51	105	15	na
66078	0	non	47	105	15	na
67518	1440	noff	59	0	15	na
67518	0	noff	54	0	15	na
67518	0	noff	51	0	15	na
67518	0	noff	47	0	15	na
67518	0	non	58	105	15	na
67518	0	non	61	105	15	na
67518	0	non	49	105	15	na
67518	0	non	65	105	15	na
67998	480	noff	58	0	15	na
67998	0	noff	61	0	15	na
67998	0	noff	49	0	15	na
67998	0	noff	65	0	15	na
67998	0	non	63	105	15	na
67998	0	non	58	105	15	na
67998	0	non	54	105	15	na
67998	0	non	51	105	15	na
68718	720	noff	63	0	15	na
68718	0	noff	58	0	15	na
68718	0	noff	54	0	15	na
68718	0	noff	51	0	15	na
68958	240	non	63	105	15	na
68958	0	non	58	105	15	na
68958	0	non	54	105	15	na
68958	0	non	51	105	15	na
69678	720	noff	63	0	15	na
69678	0	noff	58	0	15	na
69678	0	noff	54	0	15	na
69678	0	noff	51	0	15	na
69918	240	non	63	105	15	na
69918	0	non	54	105	15	na
69918	0	non	51	105	15	na
69918	0	non	58	105	15	na
70878	960	noff	63	0	15	na
70878	0	noff	54	0	15	na
70878	0	noff	51	0	15	na
70878	0	noff	58	0	15	na
70878	0	non	53	105	15	na
70878	0	non	61	105	15	na
70878	0	non	65	105	15	na
71838	960	noff	53	0	15	na
71838	0	noff	61	0	15	na
71838	0	noff	65	0	15	na
71838	0	non	66	105	15	na
71838	0	non	62	105	15	na
71838	0	non	54	105	15	na
71838	0	non	69	105	15	na
72558	720	noff	66	0	15	na
72558	0	noff	62	0	15	na
72558	0	noff	54	0	15	na
72558	0	noff	69	0	15	na
72798	240	non	66	105	15	na
72798	0	non	54	105	15	na
72798	0	non	62	105	15	na
72798	0	non	69	105	15	na
73518	720	noff	66	0	15	na
73518	0	noff	54	0	15	na
73518	0	noff	62	0	15	na
73518	0	noff	69	0	15	na
73758	240	non	54	105	15	na
73758	0	non	66	105	15	na
73758	0	non	62	105	15	na
73758	0	non	69	105	15	na
74478	720	noff	54	0	15	na
74478	0	noff	66	0	15	na
74478	0	noff	62	0	15	na
74478	0	noff	69	0	15	na
74718	240	non	66	105	15	na
74718	0	non	54	105	15	na
74718	0	non	62	105	15	na
74718	0	non	69	105	15	na
75198	480	noff	66	0	15	na
75198	0	noff	54	0	15	na
75198	0	noff	62	0	15	na
75198	0	noff	69	0	15	na
75198	0	non	68	105	15	na
75198	0	non	56	105	15	na
75198	0	non	64	105	15	na
75198	0	non	71	105	15	na
75678	480	noff	68	0	15	na
75678	0	noff	56	0	15	na
75678	0	noff	64	0	15	na
75678	0	noff	71	0	15	na
75678	0	non	69	105	15	na
75678	0	non	57	105	15	na
75678	0	non	66	105	15	na
76398	720	noff	69	0	15	na
76398	0	noff	57	0	15	na
76398	0	noff	66	0	15	na
76638	240	non	71	105	15	na
76638	0	non	59	105	15	na
76638	0	non	68	105	15	na
77358	720	noff	71	0	15	na
77358	0	noff	59	0	15	na
77358	0	noff	68	0	15	na
77598	240	non	69	105	15	na
77598	0	non	66	105	15	na
77598	0	non	61	105	15	na
78318	720	noff	69	0	15	na
78318	0	noff	66	0	15	na
78318	0	noff	61	0	15	na
78558	240	non	69	105	15	na
78558	0	non	66	105	15	na
78558	0	non	61	105	15	na
79038	480	noff	69	0	15	na
79038	0	noff	66	0	15	na
79038	0	noff	61	0	15	na
79038	0	non	68	105	15	na
79038	0	non	64	105	15	na
79038	0	non	59	105	15	na
79518	480	noff	68	0	15	na
79518	0	noff	64	0	15	na
79518	0	noff	59	0	15	na
140958	61440	non	63	100	15	na
140958	0	non	66	100	15	na
140958	0	non	58	100	15	na
143838	2880	noff	63	0	15	na
143838	0	noff	66	0	15	na
143838	0	noff	58	0	15	na
143838	0	non	65	100	15	na
143838	0	non	61	100	15	na
143838	0	non	56	100	15	na
144798	960	noff	65	0	15	na
144798	0	noff	61	0	15	na
144798	0	noff	56	0	15	na
144798	0	non	63	100	15	na
144798	0	non	54	100	15	na
144798	0	non	59	100	15	na
145758	960	noff	63	0	15	na
145758	0	noff	54	0	15	na
145758	0	noff	59	0	15	na
145758	0	non	65	100	15	na
145758	0	non	61	100	15	na
145758	0	non	56	100	15	na
146718	960	noff	65	0	15	na
146718	0	noff	61	0	15	na
146718	0	noff	56	0	15	na
146718	0	non	63	100	15	na
146718	0	non	66	100	15	na
146718	0	non	59	100	15	na
148638	1920	noff	63	0	15	na
148638	0	noff	66	0	15	na
148638	0	noff	59	0	15	na
148638	0	non	58	100	15	na
148638	0	non	63	100	15	na
148638	0	non	66	100	15	na
151518	2880	noff	58	0	15	na
151518	0	noff	63	0	15	na
151518	0	noff	66	0	15	na
151518	0	non	65	100	15	na
151518	0	non	61	100	15	na
151518	0	non	56	100	15	na
152478	960	noff	65	0	15	na
152478	0	noff	61	0	15	na
152478	0	noff	56	0	15	na
152478	0	non	63	100	15	na
152478	0	non	54	100	15	na
152478	0	non	59	100	15	na
153438	960	noff	63	0	15	na
153438	0	noff	54	0	15	na
153438	0	noff	59	0	15	na
153438	0	non	65	100	15	na
153438	0	non	61	100	15	na
153438	0	non	56	100	15	na
154398	960	noff	65	0	15	na
154398	0	noff	61	0	15	na
154398	0	noff	56	0	15	na
154398	0	non	63	100	15	na
154398	0	non	66	100	15	na
154398	0	non	58	100	15	na
156318	1920	noff	63	0	15	na
156318	0	noff	66	0	15	na
156318	0	noff	58	0	15	na
156318	0	non	58	100	15	na
156318	0	non	63	100	15	na
156318	0	non	66	100	15	na
159198	2880	noff	58	0	15	na
159198	0	noff	63	0	15	na
159198	0	noff	66	0	15	na
159198	0	non	65	100	15	na
159198	0	non	61	100	15	na
159198	0	non	56	100	15	na
160158	960	noff	65	0	15	na
160158	0	noff	61	0	15	na
160158	0	noff	56	0	15	na
160158	0	non	63	100	15	na
160158	0	non	54	100	15	na
160158	0	non	59	100	15	na
161118	960	noff	63	0	15	na
161118	0	noff	54	0	15	na
161118	0	noff	59	0	15	na
161118	0	non	65	100	15	na
161118	0	non	61	100	15	na
161118	0	non	56	100	15	na
162078	960	noff	65	0	15	na
162078	0	noff	61	0	15	na
162078	0	noff	56	0	15	na
162078	0	non	63	100	15	na
162078	0	non	66	100	15	na
162078	0	non	59	100	15	na
163998	1920	noff	63	0	15	na
163998	0	noff	66	0	15	na
163998	0	noff	59	0	15	na
163998	0	non	58	100	15	na
163998	0	non	63	100	15	na
163998	0	non	66	100	15	na
166878	2880	noff	58	0	15	na
166878	0	noff	63	0	15	na
166878	0	noff	66	0	15	na
166878	0	non	65	100	15	na
166878	0	non	61	100	15	na
166878	0	non	56	100	15	na
167838	960	noff	65	0	15	na
167838	0	noff	61	0	15	na
167838	0	noff	56	0	15	na
167838	0	non	63	100	15	na
167838	0	non	54	100	15	na
167838	0	non	59	100	15	na
168798	960	noff	63	0	15	na
168798	0	noff	54	0	15	na
168798	0	noff	59	0	15	na
168798	0	non	65	100	15	na
168798	0	non	61	100	15	na
168798	0	non	56	100	15	na
169758	960	noff	65	0	15	na
169758	0	noff	61	0	15	na
169758	0	noff	56	0	15	na
169758	0	non	63	100	15	na
169758	0	non	66	100	15	na
169758	0	non	58	100	15	na
171678	1920	noff	63	0	15	na
171678	0	noff	66	0	15	na
171678	0	noff	58	0	15	na
171678	0	non	59	105	15	na
171678	0	non	54	105	15	na
171678	0	non	51	105	15	na
171678	0	non	47	105	15	na
172398	720	noff	59	0	15	na
172398	0	noff	54	0	15	na
172398	0	noff	51	0	15	na
172398	0	noff	47	0	15	na
172638	240	non	59	105	15	na
172638	0	non	54	105	15	na
172638	0	non	51	105	15	na
172638	0	non	47	105	15	na
173358	720	noff	59	0	15	na
173358	0	noff	54	0	15	na
173358	0	noff	51	0	15	na
173358	0	noff	47	0	15	na
173598	240	non	59	105	15	na
173598	0	non	54	105	15	na
173598	0	non	51	105	15	na
173598	0	non	47	105	15	na
175038	1440	noff	59	0	15	na
175038	0	noff	54	0	15	na
175038	0	noff	51	0	15	na
175038	0	noff	47	0	15	na
175038	0	non	58	105	15	na
175038	0	non	61	105	15	na
175038	0	non	49	105	15	na
175038	0	non	65	105	15	na
175518	480	noff	58	0	15	na
175518	0	noff	61	0	15	na
175518	0	noff	49	0	15	na
175518	0	noff	65	0	15	na
175518	0	non	63	105	15	na
175518	0	non	58	105	15	na
175518	0	non	54	105	15	na
175518	0	non	51	105	15	na
176238	720	noff	63	0	15	na
176238	0	noff	58	0	15	na
176238	0	noff	54	0	15	na
176238	0	noff	51	0	15	na
176478	240	non	63	105	15	na
176478	0	non	58	105	15	na
176478	0	non	54	105	15	na
176478	0	non	51	105	15	na
177198	720	noff	63	0	15	na
177198	0	noff	58	0	15	na
177198	0	noff	54	0	15	na
177198	0	noff	51	0	15	na
177438	240	non	63	105	15	na
177438	0	non	54	105	15	na
177438	0	non	51	105	15	na
177438	0	non	58	105	15	na
178398	960	noff	63	0	15	na
178398	0	noff	54	0	15	na
178398	0	noff	51	0	15	na
178398	0	noff	58	0	15	na
178398	0	non	53	105	15	na
178398	0	non	61	105	15	na
178398	0	non	65	105	15	na
179358	960	noff	53	0	15	na
179358	0	noff	61	0	15	na
179358	0	noff	65	0	15	na
179358	0	non	66	105	15	na
179358	0	non	62	105	15	na
179358	0	non	54	105	15	na
179358	0	non	69	105	15	na
180078	720	noff	66	0	15	na
180078	0	noff	62	0	15	na
180078	0	noff	54	0	15	na
180078	0	noff	69	0	15	na
180318	240	non	66	105	15	na
180318	0	non	54	105	15	na
180318	0	non	62	105	15	na
180318	0	non	69	105	15	na
181038	720	noff	66	0	15	na
181038	0	noff	54	0	15	na
181038	0	noff	62	0	15	na
181038	0	noff	69	0	15	na
181278	240	non	54	105	15	na
181278	0	non	66	105	15	na
181278	0	non	62	105	15	na
181278	0	non	69	105	15	na
181998	720	noff	54	0	15	na
181998	0	noff	66	0	15	na
181998	0	noff	62	0	15	na
181998	0	noff	69	0	15	na
182238	240	non	66	105	15	na
182238	0	non	54	105	15	na
182238	0	non	62	105	15	na
182238	0	non	69	105	15	na
182718	480	noff	66	0	15	na
182718	0	noff	54	0	15	na
182718	0	noff	62	0	15	na
182718	0	noff	69	0	15	na
182718	0	non	68	105	15	na
182718	0	non	56	105	15	na
182718	0	non	64	105	15	na
182718	0	non	71	105	15	na
183198	480	noff	68	0	15	na
183198	0	noff	56	0	15	na
183198	0	noff	64	0	15	na
183198	0	noff	71	0	15	na
183198	0	non	69	105	15	na
183198	0	non	57	105	15	na
183198	0	non	66	105	15	na
183198	0	non	49	105	15	na
183918	720	noff	69	0	15	na
183918	0	noff	57	0	15	na
183918	0	noff	66	0	15	na
183918	0	noff	49	0	15	na
184158	240	non	71	105	15	na
184158	0	non	59	105	15	na
184158	0	non	68	105	15	na
184158	0	non	52	105	15	na
184878	720	noff	71	0	15	na
184878	0	noff	59	0	15	na
184878	0	noff	68	0	15	na
184878	0	noff	52	0	15	na
185118	240	non	69	105	15	na
185118	0	non	66	105	15	na
185118	0	non	61	105	15	na
185838	720	noff	69	0	15	na
185838	0	noff	66	0	15	na
185838	0	noff	61	0	15	na
186078	240	non	69	105	15	na
186078	0	non	66	105	15	na
186078	0	non	61	105	15	na
186558	480	noff	69	0	15	na
186558	0	noff	66	0	15	na
186558	0	noff	61	0	15	na
186558	0	non	68	105	15	na
186558	0	non	64	105	15	na
186558	0	non	59	105	15	na
187038	480	noff	68	0	15	na
187038	0	noff	64	0	15	na
187038	0	noff	59	0	15	na
